<?xml version="1.0" encoding="UTF-8" standalone="no"?>
<!-- Generator: Gravit.io -->

<svg
   style="isolation:isolate"
   viewBox="0 0 48 48"
   width="48pt"
   height="48pt"
   version="1.1"
   id="svg9"
   sodipodi:docname="folder-games.svg"
   inkscape:version="1.3.2 (091e20ef0f, 2023-11-25, custom)"
   xmlns:inkscape="http://www.inkscape.org/namespaces/inkscape"
   xmlns:sodipodi="http://sodipodi.sourceforge.net/DTD/sodipodi-0.dtd"
   xmlns:xlink="http://www.w3.org/1999/xlink"
   xmlns="http://www.w3.org/2000/svg"
   xmlns:svg="http://www.w3.org/2000/svg">
  <defs
     id="defs13">
    <linearGradient
       id="linearGradient7298"
       x1="0"
       y1="0.4999999772727428"
       x2="1"
       y2="0.4999999772727428"
       gradientTransform="matrix(46.1,0,0,37.1,0.95,9.95)"
       gradientUnits="userSpaceOnUse">
      <stop
         offset="0"
         stop-opacity="1"
         style="stop-color:#e5f230;stop-opacity:1;"
         id="stop7294" />
      <stop
         offset="1"
         stop-opacity="1"
         style="stop-color:#24d864;stop-opacity:1;"
         id="stop7296" />
    </linearGradient>
    <linearGradient
       id="linearGradient1135"
       x1="0"
       y1="0.4999999772727428"
       x2="1"
       y2="0.4999999772727428"
       gradientTransform="matrix(46.1,0,0,37.1,0.95,9.95)"
       gradientUnits="userSpaceOnUse">
      <stop
         offset="0"
         stop-opacity="1"
         style="stop-color:#e5f230;stop-opacity:1;"
         id="stop1131" />
      <stop
         offset="1"
         stop-opacity="1"
         style="stop-color:#54d864;stop-opacity:1;"
         id="stop1133" />
    </linearGradient>
    <linearGradient
       inkscape:collect="always"
       xlink:href="#linearGradient1135"
       id="linearGradient291"
       gradientUnits="userSpaceOnUse"
       gradientTransform="matrix(46.099999,0,0,37.099998,0,4.7260022)"
       x1="0.0097444421"
       y1="0.5195148"
       x2="1.0314703"
       y2="0.5195148" />
    <linearGradient
       inkscape:collect="always"
       xlink:href="#linearGradient7298"
       id="linearGradient293"
       gradientUnits="userSpaceOnUse"
       gradientTransform="matrix(46.099999,0,0,37.099998,0.95,5.4500002)"
       x1="0.5"
       y1="1.0134851"
       x2="1.0108523"
       y2="0.5" />
    <linearGradient
       id="linearGradient9689"
       x1="-191.17393"
       y1="249.12497"
       x2="255.24251"
       y2="54.070564"
       gradientUnits="userSpaceOnUse"
       gradientTransform="matrix(0.09766906,0,0,0.09766906,22.620997,18.718979)"
       spreadMethod="pad">
      <stop
         id="stop244"
         offset="0"
         style="stop-color:#e5f230;stop-opacity:1;" />
      <stop
         offset="1"
         id="stop246"
         style="stop-color:#24d864;stop-opacity:1;" />
    </linearGradient>
    <linearGradient
       id="_lgradient_4"
       x1="0.058835909"
       y1="1.6495206"
       x2="1.4441437"
       y2="0.085474662"
       gradientTransform="matrix(17.000044,0,0,12.180136,22.999787,22.958907)"
       gradientUnits="userSpaceOnUse"
       xlink:href="#linearGradient9689">
      <stop
         offset="0"
         stop-opacity="1"
         style="stop-color:#e5f230;stop-opacity:1;"
         id="stop1" />
      <stop
         offset="1"
         stop-opacity="1"
         style="stop-color:#24d864;stop-opacity:1;"
         id="stop2" />
    </linearGradient>
    <linearGradient
       inkscape:collect="always"
       xlink:href="#linearGradient9689"
       id="linearGradient1"
       gradientUnits="userSpaceOnUse"
       gradientTransform="matrix(0.09766906,0,0,0.09766906,22.121015,19.718979)"
       x1="-191.17393"
       y1="249.12497"
       x2="255.24251"
       y2="54.070564"
       spreadMethod="pad" />
    <linearGradient
       inkscape:collect="always"
       xlink:href="#_lgradient_4-9"
       id="linearGradient3"
       gradientUnits="userSpaceOnUse"
       gradientTransform="matrix(21.000038,0,0,15.046038,-2.6243935e-4,2.269137)"
       x1="0.05883592"
       y1="1.6458787"
       x2="1.4441447"
       y2="0.081831381" />
    <linearGradient
       id="_lgradient_4-9"
       x1="0.07809598"
       y1="1"
       x2="1.00001"
       y2="0.5"
       gradientTransform="matrix(16.000041,0,0,11.463657,-1.9985843e-4,2.2681711)"
       gradientUnits="userSpaceOnUse"
       xlink:href="#linearGradient9689">
      <stop
         offset="0"
         stop-opacity="1"
         style="stop-color:#e5f230;stop-opacity:1;"
         id="stop1-6" />
      <stop
         offset="1"
         stop-opacity="1"
         style="stop-color:#24d864;stop-opacity:1;"
         id="stop2-1" />
    </linearGradient>
    <linearGradient
       inkscape:collect="always"
       xlink:href="#_lgradient_4-9"
       id="linearGradient1-2"
       gradientUnits="userSpaceOnUse"
       gradientTransform="matrix(-21.000038,0,0,15.046038,21.000265,2.269137)"
       x1="0.94118738"
       y1="1.6458787"
       x2="-0.44412145"
       y2="0.081831381" />
  </defs>
  <sodipodi:namedview
     id="namedview11"
     pagecolor="#ffffff"
     bordercolor="#666666"
     borderopacity="1.0"
     inkscape:showpageshadow="2"
     inkscape:pageopacity="0.0"
     inkscape:pagecheckerboard="0"
     inkscape:deskcolor="#d1d1d1"
     inkscape:document-units="pt"
     showgrid="false"
     inkscape:zoom="7.375"
     inkscape:cx="18.711864"
     inkscape:cy="36.067797"
     inkscape:current-layer="svg9" />
  <g
     id="path7">
    <path
       id="path395"
       style="color:#000000;fill:url(#linearGradient293);fill-rule:evenodd;-inkscape-stroke:none"
       d="M 3.9492188 4.949707 C 2.0226911 4.949707 0.44970703 6.5226913 0.44970703 8.4492188 L 0.44970703 20.500488 C 0.44970703 21.350601 1.1493985 22.050293 1.9995117 22.050293 C 2.849625 22.050293 3.5507813 21.350601 3.5507813 20.500488 L 3.5507813 9.0512695 C 3.5507813 8.4938022 3.9938022 8.0507812 4.5512695 8.0507813 L 16.36377 8.0507813 L 18.906738 10.59375 C 19.506534 11.193545 20.493955 11.193546 21.09375 10.59375 C 21.693546 9.9939541 21.693547 9.0065338 21.09375 8.4067383 L 18.490723 5.8022461 C 17.965346 5.2768694 17.173112 4.949707 16.429688 4.949707 L 3.9492188 4.949707 z M 24.650391 9.9492188 C 23.935952 9.9492188 23.122671 10.222974 22.55127 10.650879 L 16.149902 15.449707 C 15.837305 15.683802 15.039462 15.949219 14.649902 15.949219 L 9 15.949219 C 8.1498874 15.949219 7.4487306 16.650374 7.4487305 17.500488 C 7.4487305 18.350601 8.1498862 19.050293 9 19.050293 L 15.350098 19.050293 C 16.064537 19.050293 16.877816 18.778003 17.449219 18.350098 L 23.849121 13.55127 C 24.161718 13.317176 24.959561 13.050293 25.349121 13.050293 L 43.44873 13.050293 C 44.006197 13.050293 44.449219 13.493314 44.449219 14.050781 L 44.449219 38.94873 C 44.449219 39.506198 44.006198 39.949219 43.44873 39.949219 L 4.5512695 39.949219 C 3.9938022 39.949219 3.5507812 39.506198 3.5507813 38.94873 L 3.5507813 28.5 C 3.5507813 27.649886 2.8496244 26.94873 1.9995117 26.94873 C 1.1493991 26.94873 0.44970703 27.649886 0.44970703 28.5 L 0.44970703 39.550781 C 0.44970703 41.47731 2.0226913 43.050293 3.9492188 43.050293 L 44.050781 43.050293 C 45.977309 43.050293 47.550293 41.47731 47.550293 39.550781 L 47.550293 13.44873 C 47.550293 11.522202 45.977309 9.9492188 44.050781 9.9492188 L 24.650391 9.9492188 z " />
  </g>
  <path
     d="m 32.5,19.776 c -4.708999,0 -8.5,3.791001 -8.5,8.5 0,3.795999 2.465,6.990999 5.887,8.088999 v -1.766 c -2.150999,0.474999 -2.604,-0.946 -2.604,-0.946 -0.351999,-0.908 -0.858999,-1.150001 -0.858999,-1.150001 -0.703001,-0.486998 0.05201,-0.478999 0.05201,-0.478999 0.776,0.055 1.185,0.811 1.185,0.811 0.69,1.201 1.811,0.855 2.250999,0.654 0.071,-0.508001 0.271001,-0.856 0.492001,-1.052 C 28.687011,32.237998 27.19801,31.14 27.19801,28.128 c 0,-0.858 0.623,-1.984 1.118001,-2.533 -0.08,-0.199 -0.347,-1.423 0.075,-2.505 0,0 0.04,-0.013 0.124,-0.017 0.252,-0.011 0.818,0.466001 1.925999,1.229 0.669,-0.191999 1.525001,-0.281999 2.059001,-0.285999 0.602999,-0.005 1.3,0.098 1.929,0.285999 1.108,-0.762999 1.816,-1.241999 2.066999,-1.230999 h 0.002 c 0.08399,0.004 0.124999,0.01701 0.124999,0.01701 0.422001,1.081998 0.156,2.307999 0.076,2.506998 0.496,0.549001 1.114,1.675 1.114,2.533001 0,3.019999 -1.807999,4.107999 -3.53,4.302998 0.277,0.242 0.345999,0.723 0.345999,1.456001 0,0.885999 -0.002,1.461 -0.004,1.827 v 0.785999 c 3.672999,-0.94 6.375,-4.249999 6.375,-8.223998 0,-4.709 -3.791,-8.500001 -8.5,-8.500001 z"
     fill-rule="evenodd"
     fill="url(#linearGradient1135)"
     id="path242"
     style="display:none;fill:url(#linearGradient291);fill-opacity:1;stroke-width:1"
     sodipodi:nodetypes="csccccccccsccccccccccscsccscc" />
  <path
     d="m 27.627577,21.536298 c 1.455112,-0.756819 3.131318,-1.063927 4.758552,-0.891724 1.715362,0.173299 3.368704,0.898307 4.669168,2.036815 1.453999,1.260263 2.463603,3.028356 2.803492,4.930256 0.348483,1.89309 0.04786,3.902532 -0.857242,5.600412 -1.089107,2.070876 -3.05499,3.662296 -5.312805,4.245869 -0.364892,0.121695 -0.851772,-0.01973 -0.936744,-0.439804 -0.06095,-0.974054 0.01094,-1.955725 -0.03477,-2.93183 -0.02071,-0.315959 -0.199343,-0.581326 -0.391067,-0.819346 -0.266832,-0.296132 -0.13283,-0.835852 0.242903,-0.968584 0.377979,-0.135955 0.765628,-0.258822 1.102195,-0.483657 0.88664,-0.526436 1.542292,-1.596987 1.259052,-2.651041 -0.05772,-0.448603 -0.470473,-0.761203 -0.491177,-1.2109 0.101282,-0.531965 0.208034,-1.063929 0.229814,-1.607955 -0.48141,0.175492 -1.003061,0.304923 -1.400671,0.648229 -0.235188,0.227041 -0.569607,0.105297 -0.844057,0.04277 -0.700336,-0.173294 -1.43007,-0.114067 -2.124946,0.05595 -0.313674,0.09213 -0.539133,-0.190856 -0.792907,-0.315892 -0.376846,-0.18646 -0.776567,-0.320276 -1.178464,-0.438729 0.02288,0.544026 0.06753,1.086959 0.164465,1.622215 0.06208,0.257748 -0.120896,0.472727 -0.228722,0.687707 -0.344176,0.618616 -0.346354,1.407264 -0.01635,2.032444 0.406256,0.78858 1.193712,1.312867 2.023645,1.560751 0.264664,0.06036 0.509725,0.267614 0.533683,0.553881 0.06427,0.47936 -0.490113,0.728319 -0.510809,1.196641 -0.06753,0.980598 0.02723,1.968814 -0.0098,2.951657 -0.01852,0.314787 -0.324574,0.567067 -0.633891,0.542943 -0.303879,0.0077 -0.585966,-0.25228 -0.60339,-0.558374 -0.02614,-0.459533 -0.01198,-0.920239 -0.0207,-1.380846 -0.676358,-0.125016 -1.388668,-0.217216 -1.980074,-0.596659 -0.234172,-0.140449 -0.33437,-0.404741 -0.463977,-0.630747 -0.33437,-0.594414 -0.787456,-1.126418 -1.347286,-1.516899 0.645865,0.01973 1.476893,0.06475 1.823237,0.714059 0.340904,0.719528 1.230748,0.870915 1.944142,0.82042 0.0011,-0.391556 0.08495,-0.773246 0.199313,-1.146146 -1.056476,-0.477211 -1.963744,-1.371079 -2.305732,-2.50189 -0.286453,-0.907151 -0.164465,-1.923876 0.304962,-2.748691 -0.106743,-0.846752 -0.18734,-1.707763 -0.08059,-2.557807 0.05445,-0.363054 0.462883,-0.608741 0.807059,-0.484799 0.825577,0.21498 1.656604,0.459572 2.408118,0.875271 0.785279,-0.152461 1.596655,-0.152461 2.379766,0.01315 0.738475,-0.416793 1.554208,-0.667968 2.367888,-0.889531 0.363719,-0.130515 0.797175,0.151368 0.817881,0.541839 0.08712,0.805077 0.0044,1.621121 -0.152462,2.413031 0.499968,0.845658 0.655653,1.897563 0.352879,2.840753 -0.341939,1.138528 -1.2612,2.020382 -2.31339,2.512927 0.342037,0.903732 0.152559,1.887552 0.201589,2.829766 1.500783,-0.556128 2.806716,-1.625506 3.648623,-2.994338 0.897481,-1.437981 1.266671,-3.197294 1.024841,-4.877613 -0.231964,-1.713251 -1.100046,-3.32778 -2.391719,-4.466298 -1.083736,-0.966308 -2.461455,-1.592591 -3.898069,-1.765895 -1.73178,-0.221562 -3.534321,0.228145 -4.967644,1.229546 -1.41372,0.976183 -2.464757,2.470069 -2.900419,4.140543 -0.346344,1.288772 -0.318031,2.669685 0.05118,3.949737 0.140507,0.350924 -0.08277,0.794048 -0.459621,0.854408 -0.314758,0.07569 -0.65784,-0.130583 -0.735174,-0.44752 -0.592499,-1.967738 -0.453088,-4.152614 0.394271,-6.02491 0.7831,-1.75273 2.172862,-3.221389 3.871933,-4.095566 z"
     fill="url(#linearGradient9689)"
     id="path242-3"
     style="display:none;fill:url(#linearGradient1);fill-opacity:1;stroke-width:0.097669" />
  <g
     id="g4"
     transform="matrix(0.80952382,0,0,0.80952382,23,21.166363)"
     style="isolation:isolate">
    <path
       d="m 8.5990193,11.387036 v 0 c 0.3911964,0 0.7090433,0.317848 0.7090433,0.709044 v 0 c 0,0.391198 -0.3178469,0.708575 -0.7090433,0.708575 v 0 H 5.6622198 c -0.1955988,0 -0.4020113,0.151401 -0.4603146,0.338067 l -0.7800431,2.482125 c -0.293397,0.932856 -1.3254622,1.690329 -2.3034536,1.690329 H 1.639756 c -0.97799274,0 -1.71007684,-0.791328 -1.6343756,-1.7665 L 0.69702722,6.6550576 C 0.77272599,5.6798863 1.2259895,4.3017624 1.707933,3.578612 v 0 C 2.190347,2.8559321 3.3756923,2.269137 4.3536849,2.269137 h 6.7904661 v 0 c 0.391196,0 0.709044,0.3178471 0.709044,0.7090447 v 0 c 0,0.3911963 -0.317848,0.708574 -0.709044,0.708574 v 0 H 4.4030547 c -0.5867951,0 -1.3066548,0.3662768 -1.6071051,0.8171884 v 0 C 2.4959697,4.9548544 2.2086837,5.7950824 2.1550831,6.3795268 L 1.3501192,15.191803 c -0.035738,0.389788 0.2529622,0.705753 0.6441585,0.705753 h 0.2303932 c 0.3911964,0 0.8040227,-0.3028 0.9210988,-0.67613 l 0.8867761,-2.820193 c 0.1758514,-0.559524 0.795089,-1.014197 1.3818854,-1.014197 z M 4.0555853,7.0815177 V 8.00873 h 1.1641871 c 0.1894866,0 0.3432372,0.153752 0.3432372,0.3432386 V 9.5161558 H 6.4897527 V 8.351498 c 0,-0.1894866 0.1537506,-0.3432372 0.3432372,-0.3432372 H 7.9976477 V 7.0819884 H 6.8329899 c -0.1894866,0 -0.3432372,-0.1537519 -0.3432372,-0.3432372 V 5.5740934 H 5.5630096 v 1.1641871 c 0,0.1894867 -0.1537506,0.3432372 -0.3432372,0.3432372 z M 15.681472,7.4398023 c 0,-0.3893164 0.315966,-0.7052832 0.705283,-0.7052832 0.389316,0 0.705283,0.3159668 0.705283,0.7052832 0,0.3893162 -0.315967,0.7052831 -0.705283,0.7052831 -0.389317,0 -0.705283,-0.3159669 -0.705283,-0.7052831 z m -2.821134,0 c 0,-0.3893164 0.315967,-0.7052832 0.705284,-0.7052832 0.389316,0 0.705283,0.3159668 0.705283,0.7052832 0,0.3893162 -0.315967,0.7052831 -0.705283,0.7052831 -0.389317,0 -0.705284,-0.3159669 -0.705284,-0.7052831 z m 2.11585,-2.1158497 c 0.389317,0 0.705284,0.3159671 0.705284,0.7052833 0,0.3893162 -0.315967,0.7052832 -0.705284,0.7052832 -0.389316,0 -0.705283,-0.315967 -0.705283,-0.7052832 0,-0.3893162 0.315967,-0.7052833 0.705283,-0.7052833 z M 5.2197724,4.8871481 h 1.6132175 c 0.1894865,0 0.3432373,0.1537507 0.3432373,0.3432374 v 1.1646578 h 1.1646577 c 0.1894867,0 0.3432374,0.1537507 0.3432374,0.3432372 V 8.351498 l -4.695e-4,4.706e-4 v 0 c 0,0.1894853 -0.1537519,0.3432373 -0.3432384,0.3427667 H 7.1757578 V 9.859393 c 0,0.189487 -0.1537519,0.343237 -0.3427679,0.343237 H 5.2197724 c -0.1894852,0 -0.3432373,-0.15375 -0.3432373,-0.343237 V 8.6947353 H 3.712348 c -0.1894866,0 -0.3432385,-0.1532814 -0.3432385,-0.3427667 V 6.7387512 c 0,-0.1894867 0.1537519,-0.3432386 0.3432385,-0.3432386 H 4.8765351 V 5.2303855 c 0,-0.1894867 0.1537521,-0.3432374 0.3432373,-0.3432374 z m 9.7564156,3.2579373 c 0.389317,0 0.705284,0.315967 0.705284,0.7052831 0,0.3893163 -0.315967,0.7052821 -0.705284,0.7052821 -0.389316,0 -0.705283,-0.3159658 -0.705283,-0.7052821 0,-0.3893161 0.315967,-0.7052831 0.705283,-0.7052831 z"
       fill-rule="evenodd"
       fill="url(#_lgradient_4)"
       id="path2-2"
       style="display:inline;isolation:isolate;fill:url(#linearGradient3);stroke-width:0.470188"
       sodipodi:nodetypes="csssscsccssccssscsssscsssccssccscccssccssccssccsscsssssssssssssssssscssccsccsssscsssscsssssss" />
    <path
       d="m 11.612745,11.387036 c -0.926055,0 -0.926708,1.417619 4.92e-4,1.417619 h 3.724544 c 0.195599,0 0.402012,0.151401 0.460315,0.338067 l 0.780043,2.482125 c 0.293397,0.932856 1.325462,1.690329 2.303454,1.690329 h 0.478652 c 0.977993,0 1.710078,-0.791328 1.634375,-1.7665 L 20.302974,6.6550576 C 20.227276,5.6798863 19.774012,4.3017624 19.292068,3.578612 v 0 C 18.809655,2.8559321 17.624301,2.2732186 16.646316,2.269137 14.502534,2.26019 14.59067,2.2688207 14.580329,2.2689123 c -0.292668,0.0026 -0.708596,0.3746768 -0.708601,0.7087495 -7e-6,0.3342236 0.31772,0.705076 0.708896,0.7090939 2.433753,0.024998 -0.222056,0.024407 2.016323,0 0.586759,-0.00639 1.306654,0.3662768 1.607105,0.8171884 v 0 c 0.299979,0.4509103 0.587266,1.2911383 0.640866,1.8755827 l 0.804964,8.8122762 c 0.03574,0.389788 -0.252963,0.705753 -0.644158,0.705753 H 18.77533 c -0.391197,0 -0.804022,-0.3028 -0.921098,-0.67613 l -0.886777,-2.820193 c -0.175851,-0.559524 -0.795088,-1.014197 -1.381886,-1.014197 z"
       fill-rule="evenodd"
       fill="url(#_lgradient_4)"
       id="path1"
       style="display:inline;isolation:isolate;fill:url(#linearGradient1-2);stroke-width:0.470188"
       sodipodi:nodetypes="sccccssccsssssssssccssccss" />
  </g>
</svg>
