<?xml version="1.0" encoding="UTF-8" standalone="no"?>
<!-- Generator: Gravit.io -->

<svg
   style="isolation:isolate"
   viewBox="0 0 48 48"
   width="48pt"
   height="48pt"
   version="1.1"
   id="svg911"
   sodipodi:docname="folder-download.svg"
   inkscape:version="1.3.2 (091e20ef0f, 2023-11-25, custom)"
   xmlns:inkscape="http://www.inkscape.org/namespaces/inkscape"
   xmlns:sodipodi="http://sodipodi.sourceforge.net/DTD/sodipodi-0.dtd"
   xmlns:xlink="http://www.w3.org/1999/xlink"
   xmlns="http://www.w3.org/2000/svg"
   xmlns:svg="http://www.w3.org/2000/svg">
  <g
     id="g2315"
     transform="translate(-0.5,-0.5)">
    <path
       d="m 40.086666,36.5 c 0.541247,0 0.980001,-0.344616 0.980001,-0.769742 v 0 c -2e-6,-0.425127 -0.438754,-0.769746 -0.980001,-0.769746 H 28.98 c -0.541236,0 -0.98,0.344619 -0.98,0.769746 v 0 C 28,36.155384 28.438764,36.5 28.98,36.5 Z"
       fill="url(#linearGradient1512)"
       id="path2"
       style="fill:url(#linearGradient5395);fill-opacity:1;stroke-width:0.214454"
       sodipodi:nodetypes="sssssssss" />
    <path
       inkscape:connector-curvature="0"
       style="color:#000000;font-style:normal;font-variant:normal;font-weight:normal;font-stretch:normal;font-size:medium;line-height:normal;font-family:Sans;-inkscape-font-specification:Sans;text-indent:0;text-align:start;text-decoration:none;text-decoration-line:none;letter-spacing:normal;word-spacing:normal;text-transform:none;writing-mode:lr-tb;direction:ltr;baseline-shift:baseline;text-anchor:start;display:inline;overflow:visible;visibility:visible;isolation:isolate;fill:url(#linearGradient4557);fill-opacity:1;fill-rule:nonzero;stroke:none;stroke-width:0.416624;marker:none;enable-background:accumulate"
       d="m 39.73653,24.791255 -4.657773,7.637513 c -0.287577,0.446905 -0.809522,0.445033 -1.095948,0 l -4.657772,-7.637513 c -0.86043,-1.410905 0.04,-2.285701 0.547974,-2.291255 h 4.657772 4.657773 c 0.860481,0 1.080548,1.417991 0.547974,2.291255 z m -5.205967,-0.637272 -3.917571,1.2e-5 3.917518,6.085164 3.91757,-6.085183 z"
       id="path3787-74-1"
       sodipodi:nodetypes="sccsscssccccc" />
  </g>
  <defs
     id="defs915">
    <linearGradient
       id="linearGradient2778"
       x1="0"
       y1="0.5"
       x2="1"
       y2="0.5"
       gradientTransform="matrix(46.1,0,0,37.1,0.95,5.45)"
       gradientUnits="userSpaceOnUse">
      <stop
         offset="0"
         stop-opacity="1"
         style="stop-color:#b900ff;stop-opacity:1;"
         id="stop2774" />
      <stop
         offset="1"
         stop-opacity="1"
         style="stop-color:#6444ff;stop-opacity:1;"
         id="stop2776" />
    </linearGradient>
    <linearGradient
       id="linearGradient5401"
       x1="0"
       y1="0.5"
       x2="1"
       y2="0.5"
       gradientTransform="matrix(46.1,0,0,37.1,0.95,5.45)"
       gradientUnits="userSpaceOnUse">
      <stop
         offset="0"
         stop-opacity="1"
         style="stop-color:#b900ff;stop-opacity:1;"
         id="stop5397" />
      <stop
         offset="1"
         stop-opacity="1"
         style="stop-color:#6444ff;stop-opacity:1;"
         id="stop5399" />
    </linearGradient>
    <linearGradient
       id="linearGradient5393"
       x1="0"
       y1="0.5"
       x2="1"
       y2="0.5"
       gradientTransform="matrix(46.1,0,0,37.1,0.95,5.45)"
       gradientUnits="userSpaceOnUse">
      <stop
         offset="0"
         stop-opacity="1"
         style="stop-color:#bf00ff;stop-opacity:1;"
         id="stop5389" />
      <stop
         offset="1"
         stop-opacity="1"
         style="stop-color:#6444ff;stop-opacity:1;"
         id="stop5391" />
    </linearGradient>
    <linearGradient
       id="linearGradient5022"
       x1="0"
       y1="0.5"
       x2="1"
       y2="0.5"
       gradientTransform="matrix(46.1,0,0,37.1,0.95,5.45)"
       gradientUnits="userSpaceOnUse">
      <stop
         offset="0"
         stop-opacity="1"
         style="stop-color:#b900ff;stop-opacity:1;"
         id="stop5020" />
      <stop
         offset="1"
         stop-opacity="1"
         style="stop-color:#6444ff;stop-opacity:1;"
         id="stop5018" />
    </linearGradient>
    <linearGradient
       id="linearGradient4991"
       x1="0"
       y1="0.5"
       x2="1"
       y2="0.5"
       gradientTransform="matrix(46.1,0,0,37.1,0.95,5.45)"
       gradientUnits="userSpaceOnUse">
      <stop
         offset="0"
         stop-opacity="1"
         style="stop-color:#f069ff;stop-opacity:1;"
         id="stop4987" />
      <stop
         offset="1"
         stop-opacity="1"
         style="stop-color:#9600ff;stop-opacity:1;"
         id="stop4989" />
    </linearGradient>
    <linearGradient
       id="linearGradient1512"
       x1="0"
       y1="0.5"
       x2="1"
       y2="0.5"
       gradientTransform="matrix(46.1,0,0,37.1,0.95,5.45)"
       gradientUnits="userSpaceOnUse">
      <stop
         offset="0"
         stop-opacity="1"
         style="stop-color:#bf00ff;stop-opacity:1;"
         id="stop1508" />
      <stop
         offset="0.98695654"
         stop-opacity="1"
         style="stop-color:#6444ff;stop-opacity:1;"
         id="stop1510" />
    </linearGradient>
    <linearGradient
       id="linearGradient1473"
       x1="0"
       y1="0.5"
       x2="1"
       y2="0.5"
       gradientTransform="matrix(46.1,0,0,37.1,0.95,5.45)"
       gradientUnits="userSpaceOnUse">
      <stop
         offset="0"
         stop-opacity="1"
         style="stop-color:#ffffff;stop-opacity:1;"
         id="stop1469" />
      <stop
         offset="98.69565217391305%"
         stop-opacity="1"
         style="stop-color:rgb(236,110,173)"
         id="stop1471" />
    </linearGradient>
    <linearGradient
       inkscape:collect="always"
       xlink:href="#linearGradient1512"
       id="linearGradient1504"
       x1="0.94999999"
       y1="24"
       x2="47.049999"
       y2="24"
       gradientUnits="userSpaceOnUse" />
    <linearGradient
       inkscape:collect="always"
       xlink:href="#linearGradient1512"
       id="linearGradient1506"
       gradientUnits="userSpaceOnUse"
       gradientTransform="matrix(46.1,0,0,37.1,0.95,5.45)"
       x1="0"
       y1="0.5"
       x2="1"
       y2="0.5" />
    <linearGradient
       inkscape:collect="always"
       xlink:href="#linearGradient2778"
       id="linearGradient4557"
       gradientUnits="userSpaceOnUse"
       gradientTransform="matrix(-0.00635088,0.00986489,0.00635081,0.00986479,35.071075,14.372365)"
       x1="2311.1299"
       y1="646.63159"
       x2="-508.52756"
       y2="1535.1775" />
    <linearGradient
       inkscape:collect="always"
       xlink:href="#linearGradient1512"
       id="linearGradient5574"
       x1="-81.847374"
       y1="-8.3351364"
       x2="82.890305"
       y2="-8.3351364"
       gradientUnits="userSpaceOnUse"
       gradientTransform="matrix(0.23545456,0,0,0.18214791,25.965456,27.047639)" />
    <linearGradient
       inkscape:collect="always"
       xlink:href="#linearGradient5022"
       id="linearGradient5016"
       gradientUnits="userSpaceOnUse"
       gradientTransform="matrix(46.1,0,0,37.1,0.95,5.45)"
       x1="0.5"
       y1="1.013485"
       x2="1.0108523"
       y2="0.5" />
    <linearGradient
       inkscape:collect="always"
       xlink:href="#linearGradient5401"
       id="linearGradient5395"
       gradientUnits="userSpaceOnUse"
       gradientTransform="matrix(43.026667,0,0,34.626667,4.1533334,7.0533333)"
       x1="0.47288504"
       y1="1.054013"
       x2="1.0202268"
       y2="0.50385058" />
  </defs>
  <sodipodi:namedview
     id="namedview913"
     pagecolor="#ffffff"
     bordercolor="#666666"
     borderopacity="1.0"
     inkscape:showpageshadow="2"
     inkscape:pageopacity="0.0"
     inkscape:pagecheckerboard="0"
     inkscape:deskcolor="#d1d1d1"
     inkscape:document-units="pt"
     showgrid="false"
     inkscape:zoom="7.375"
     inkscape:cx="23.389831"
     inkscape:cy="28.542373"
     inkscape:current-layer="svg911" />
  <linearGradient
     id="_lgradient_7"
     x1="0"
     y1="0.5"
     x2="1"
     y2="0.5"
     gradientTransform="matrix(46.1,0,0,37.1,0.95,5.45)"
     gradientUnits="userSpaceOnUse"
     xlink:href="#linearGradient1473">
    <stop
       offset="0%"
       stop-opacity="1"
       style="stop-color:rgb(52,148,230)"
       id="stop904" />
    <stop
       offset="98.69565217391305%"
       stop-opacity="1"
       style="stop-color:rgb(236,110,173)"
       id="stop906" />
  </linearGradient>
  <g
     id="path1057">
    <path
       id="path3530"
       style="color:#000000;fill:url(#linearGradient5016);fill-rule:evenodd;-inkscape-stroke:none"
       d="M 3.9492188 4.949707 C 2.0226912 4.949707 0.44970703 6.5226912 0.44970703 8.4492188 L 0.44970703 20.500488 C 0.44970703 21.350601 1.1493985 22.050293 1.9995117 22.050293 C 2.849625 22.050293 3.5507813 21.350601 3.5507813 20.500488 L 3.5507813 9.0512695 C 3.5507813 8.493802 3.9938021 8.0507813 4.5512695 8.0507813 L 16.36377 8.0507813 L 18.906738 10.59375 C 19.506534 11.193545 20.493955 11.193545 21.09375 10.59375 C 21.693545 9.9939543 21.693545 9.006534 21.09375 8.4067383 L 18.490723 5.8022461 C 17.965346 5.2768694 17.173112 4.949707 16.429688 4.949707 L 3.9492188 4.949707 z M 24.650391 9.9492188 C 23.935952 9.9492188 23.122672 10.222973 22.55127 10.650879 L 16.149902 15.449707 C 15.837306 15.683801 15.039462 15.949219 14.649902 15.949219 L 9 15.949219 C 8.1498868 15.949219 7.4487306 16.650375 7.4487305 17.500488 C 7.4487305 18.350601 8.1498868 19.050293 9 19.050293 L 15.350098 19.050293 C 16.064536 19.050293 16.877816 18.778003 17.449219 18.350098 L 23.849121 13.55127 C 24.161718 13.317176 24.959561 13.050293 25.349121 13.050293 L 43.44873 13.050293 C 44.006198 13.050293 44.449219 13.493314 44.449219 14.050781 L 44.449219 38.94873 C 44.449219 39.506198 44.006198 39.949219 43.44873 39.949219 L 4.5512695 39.949219 C 3.9938021 39.949219 3.5507812 39.506198 3.5507813 38.94873 L 3.5507813 28.5 C 3.5507813 27.649887 2.849625 26.94873 1.9995117 26.94873 C 1.1493985 26.94873 0.44970703 27.649887 0.44970703 28.5 L 0.44970703 39.550781 C 0.44970703 41.477309 2.0226912 43.050293 3.9492188 43.050293 L 44.050781 43.050293 C 45.977309 43.050293 47.550293 41.477309 47.550293 39.550781 L 47.550293 13.44873 C 47.550293 11.522202 45.977309 9.9492187 44.050781 9.9492188 L 24.650391 9.9492188 z " />
  </g>
</svg>
