<?xml version="1.0" encoding="UTF-8" standalone="no"?>
<!-- Generator: Gravit.io -->

<svg
   style="isolation:isolate"
   viewBox="0 0 48 48"
   width="48pt"
   height="48pt"
   version="1.1"
   id="svg911"
   sodipodi:docname="folder-music.svg"
   inkscape:version="1.3.2 (091e20ef0f, 2023-11-25, custom)"
   xmlns:inkscape="http://www.inkscape.org/namespaces/inkscape"
   xmlns:sodipodi="http://sodipodi.sourceforge.net/DTD/sodipodi-0.dtd"
   xmlns:xlink="http://www.w3.org/1999/xlink"
   xmlns="http://www.w3.org/2000/svg"
   xmlns:svg="http://www.w3.org/2000/svg">
  <defs
     id="defs915">
    <linearGradient
       id="linearGradient2778"
       x1="0"
       y1="0.5"
       x2="1"
       y2="0.5"
       gradientTransform="matrix(46.1,0,0,37.1,0.95,5.45)"
       gradientUnits="userSpaceOnUse">
      <stop
         offset="0"
         stop-opacity="1"
         style="stop-color:#b900ff;stop-opacity:1;"
         id="stop2774" />
      <stop
         offset="1"
         stop-opacity="1"
         style="stop-color:#6444ff;stop-opacity:1;"
         id="stop2776" />
    </linearGradient>
    <linearGradient
       id="linearGradient5401"
       x1="0"
       y1="0.5"
       x2="1"
       y2="0.5"
       gradientTransform="matrix(46.1,0,0,37.1,0.95,5.45)"
       gradientUnits="userSpaceOnUse">
      <stop
         offset="0"
         stop-opacity="1"
         style="stop-color:#b900ff;stop-opacity:1;"
         id="stop5397" />
      <stop
         offset="1"
         stop-opacity="1"
         style="stop-color:#6444ff;stop-opacity:1;"
         id="stop5399" />
    </linearGradient>
    <linearGradient
       id="linearGradient5393"
       x1="0"
       y1="0.5"
       x2="1"
       y2="0.5"
       gradientTransform="matrix(46.1,0,0,37.1,0.95,5.45)"
       gradientUnits="userSpaceOnUse">
      <stop
         offset="0"
         stop-opacity="1"
         style="stop-color:#bf00ff;stop-opacity:1;"
         id="stop5389" />
      <stop
         offset="1"
         stop-opacity="1"
         style="stop-color:#6444ff;stop-opacity:1;"
         id="stop5391" />
    </linearGradient>
    <linearGradient
       id="linearGradient5022"
       x1="0"
       y1="0.5"
       x2="1"
       y2="0.5"
       gradientTransform="matrix(46.1,0,0,37.1,0.95,5.45)"
       gradientUnits="userSpaceOnUse">
      <stop
         offset="0"
         stop-opacity="1"
         style="stop-color:#b900ff;stop-opacity:1;"
         id="stop5020" />
      <stop
         offset="1"
         stop-opacity="1"
         style="stop-color:#6444ff;stop-opacity:1;"
         id="stop5018" />
    </linearGradient>
    <linearGradient
       id="linearGradient4991"
       x1="0"
       y1="0.5"
       x2="1"
       y2="0.5"
       gradientTransform="matrix(46.1,0,0,37.1,0.95,5.45)"
       gradientUnits="userSpaceOnUse">
      <stop
         offset="0"
         stop-opacity="1"
         style="stop-color:#f069ff;stop-opacity:1;"
         id="stop4987" />
      <stop
         offset="1"
         stop-opacity="1"
         style="stop-color:#9600ff;stop-opacity:1;"
         id="stop4989" />
    </linearGradient>
    <linearGradient
       id="linearGradient1512"
       x1="0"
       y1="0.5"
       x2="1"
       y2="0.5"
       gradientTransform="matrix(46.1,0,0,37.1,0.95,5.45)"
       gradientUnits="userSpaceOnUse">
      <stop
         offset="0"
         stop-opacity="1"
         style="stop-color:#bf00ff;stop-opacity:1;"
         id="stop1508" />
      <stop
         offset="0.98695654"
         stop-opacity="1"
         style="stop-color:#6444ff;stop-opacity:1;"
         id="stop1510" />
    </linearGradient>
    <linearGradient
       id="linearGradient1473"
       x1="0"
       y1="0.5"
       x2="1"
       y2="0.5"
       gradientTransform="matrix(46.1,0,0,37.1,0.95,5.45)"
       gradientUnits="userSpaceOnUse">
      <stop
         offset="0"
         stop-opacity="1"
         style="stop-color:#ffffff;stop-opacity:1;"
         id="stop1469" />
      <stop
         offset="98.69565217391305%"
         stop-opacity="1"
         style="stop-color:rgb(236,110,173)"
         id="stop1471" />
    </linearGradient>
    <linearGradient
       inkscape:collect="always"
       xlink:href="#linearGradient1512"
       id="linearGradient1504"
       x1="0.94999999"
       y1="24"
       x2="47.049999"
       y2="24"
       gradientUnits="userSpaceOnUse" />
    <linearGradient
       inkscape:collect="always"
       xlink:href="#linearGradient1512"
       id="linearGradient1506"
       gradientUnits="userSpaceOnUse"
       gradientTransform="matrix(46.1,0,0,37.1,0.95,5.45)"
       x1="0"
       y1="0.5"
       x2="1"
       y2="0.5" />
    <linearGradient
       inkscape:collect="always"
       xlink:href="#linearGradient1512"
       id="linearGradient5574"
       x1="-81.847374"
       y1="-8.3351364"
       x2="82.890305"
       y2="-8.3351364"
       gradientUnits="userSpaceOnUse"
       gradientTransform="matrix(0.23545456,0,0,0.18214791,25.965456,27.047639)" />
    <linearGradient
       inkscape:collect="always"
       xlink:href="#linearGradient5022"
       id="linearGradient5016"
       gradientUnits="userSpaceOnUse"
       gradientTransform="matrix(46.1,0,0,37.1,0.95,5.45)"
       x1="0.5"
       y1="1.013485"
       x2="1.0108523"
       y2="0.5" />
    <linearGradient
       id="linearGradient4485"
       x1="-12.10288"
       y1="253.9525"
       x2="243.20537"
       y2="47.376377"
       gradientUnits="userSpaceOnUse"
       gradientTransform="matrix(0.09224533,0,0,0.0922212,25.116434,19.630489)">
      <stop
         offset="0"
         id="stop4483"
         style="stop-color:#b900ff;stop-opacity:1;" />
      <stop
         id="stop4481"
         style="stop-color:#6444ff;stop-opacity:1;"
         offset="1" />
    </linearGradient>
  </defs>
  <sodipodi:namedview
     id="namedview913"
     pagecolor="#ffffff"
     bordercolor="#666666"
     borderopacity="1.0"
     inkscape:showpageshadow="2"
     inkscape:pageopacity="0.0"
     inkscape:pagecheckerboard="0"
     inkscape:deskcolor="#d1d1d1"
     inkscape:document-units="pt"
     showgrid="false"
     inkscape:zoom="7.375"
     inkscape:cx="8.5423729"
     inkscape:cy="23.050847"
     inkscape:current-layer="svg911" />
  <linearGradient
     id="_lgradient_7"
     x1="0"
     y1="0.5"
     x2="1"
     y2="0.5"
     gradientTransform="matrix(46.1,0,0,37.1,0.95,5.45)"
     gradientUnits="userSpaceOnUse"
     xlink:href="#linearGradient1473">
    <stop
       offset="0%"
       stop-opacity="1"
       style="stop-color:rgb(52,148,230)"
       id="stop904" />
    <stop
       offset="98.69565217391305%"
       stop-opacity="1"
       style="stop-color:rgb(236,110,173)"
       id="stop906" />
  </linearGradient>
  <g
     id="path1057">
    <path
       id="path3530"
       style="color:#000000;fill:url(#linearGradient5016);fill-rule:evenodd;-inkscape-stroke:none"
       d="M 3.9492188 4.949707 C 2.0226912 4.949707 0.44970703 6.5226912 0.44970703 8.4492188 L 0.44970703 20.500488 C 0.44970703 21.350601 1.1493985 22.050293 1.9995117 22.050293 C 2.849625 22.050293 3.5507813 21.350601 3.5507813 20.500488 L 3.5507813 9.0512695 C 3.5507813 8.493802 3.9938021 8.0507813 4.5512695 8.0507813 L 16.36377 8.0507813 L 18.906738 10.59375 C 19.506534 11.193545 20.493955 11.193545 21.09375 10.59375 C 21.693545 9.9939543 21.693545 9.006534 21.09375 8.4067383 L 18.490723 5.8022461 C 17.965346 5.2768694 17.173112 4.949707 16.429688 4.949707 L 3.9492188 4.949707 z M 24.650391 9.9492188 C 23.935952 9.9492188 23.122672 10.222973 22.55127 10.650879 L 16.149902 15.449707 C 15.837306 15.683801 15.039462 15.949219 14.649902 15.949219 L 9 15.949219 C 8.1498868 15.949219 7.4487306 16.650375 7.4487305 17.500488 C 7.4487305 18.350601 8.1498868 19.050293 9 19.050293 L 15.350098 19.050293 C 16.064536 19.050293 16.877816 18.778003 17.449219 18.350098 L 23.849121 13.55127 C 24.161718 13.317176 24.959561 13.050293 25.349121 13.050293 L 43.44873 13.050293 C 44.006198 13.050293 44.449219 13.493314 44.449219 14.050781 L 44.449219 38.94873 C 44.449219 39.506198 44.006198 39.949219 43.44873 39.949219 L 4.5512695 39.949219 C 3.9938021 39.949219 3.5507812 39.506198 3.5507813 38.94873 L 3.5507813 28.5 C 3.5507813 27.649887 2.849625 26.94873 1.9995117 26.94873 C 1.1493985 26.94873 0.44970703 27.649887 0.44970703 28.5 L 0.44970703 39.550781 C 0.44970703 41.477309 2.0226912 43.050293 3.9492188 43.050293 L 44.050781 43.050293 C 45.977309 43.050293 47.550293 41.477309 47.550293 39.550781 L 47.550293 13.44873 C 47.550293 11.522202 45.977309 9.9492187 44.050781 9.9492188 L 24.650391 9.9492188 z " />
    <path
       id="path1635"
       style="color:#000000;isolation:isolate;fill:url(#linearGradient4485);stroke-width:0.184467;-inkscape-stroke:none"
       d="m 39.546804,20.001792 c -0.04402,0.0025 -0.08754,0.0069 -0.128912,0.01318 -0.08285,0.01258 -0.161613,0.0308 -0.235847,0.04834 h -0.0015 c -0.0053,0.0014 -0.01516,0.003 -0.02637,0.0059 -0.06512,0.01539 -0.125576,0.0306 -0.183113,0.04102 h -0.0015 c -1.031025,0.20173 -2.064289,0.401877 -3.096788,0.600623 -1.662911,0.320106 -3.326589,0.640695 -4.987969,0.97418 -0.298608,0.01793 -0.535986,0.190707 -0.687036,0.408716 -0.151026,0.217966 -0.226595,0.48858 -0.210946,0.745652 l -0.0029,-0.0044 c 0.0018,1.105716 0.0033,2.210441 0.0029,3.316609 -4.26e-4,1.666251 -7.4e-4,3.334758 0.0059,5.001283 -0.69647,-0.346022 -1.5088,-0.468362 -2.25594,-0.246109 -1.19154,0.339632 -2.110444,1.432709 -2.217851,2.666179 v 0.0015 c -0.124318,1.074441 0.371839,2.177061 1.246626,2.814138 0.789895,0.588532 1.86408,0.773439 2.805275,0.461453 0.947351,-0.291873 1.704529,-1.062453 2.012766,-1.992309 v -0.0015 c 0.141564,-0.328525 0.171842,-0.668688 0.168463,-0.993225 -0.0015,-0.149118 -0.0096,-0.296973 -0.01758,-0.440945 -7.6e-4,-0.01363 -0.0036,-0.02708 -0.0044,-0.04102 -0.0087,-0.157814 -0.01454,-0.31039 -0.01318,-0.458524 v -0.0029 c 4.32e-4,-0.754776 5.7e-5,-1.508772 0,-2.263323 -7.9e-5,-1.206659 -5.24e-4,-2.410968 0.0015,-3.61692 0.403109,-0.08353 0.80998,-0.151233 1.223188,-0.215345 h 0.0044 c 0.461303,-0.07157 0.927485,-0.144973 1.39165,-0.247574 h 0.0029 0.0015 0.0015 c 0.297275,-0.06685 0.599489,-0.114508 0.908235,-0.162607 0.03631,-0.0056 0.07374,-0.01196 0.109867,-0.01758 0.34506,-0.05408 0.695131,-0.112474 1.043006,-0.203626 h 0.0044 l 0.0029,-0.0015 c 0.205629,-0.0634 0.391664,-0.201183 0.512713,-0.380882 0.121378,-0.180241 0.180646,-0.414171 0.108403,-0.650431 l -0.0059,-0.01758 -0.0073,-0.01611 c -0.08959,-0.171684 -0.227555,-0.339116 -0.404314,-0.45413 -0.176071,-0.114602 -0.401361,-0.176467 -0.637229,-0.111335 -0.125726,0.02497 -0.250423,0.05066 -0.375014,0.07618 -0.517959,0.105904 -1.027963,0.209252 -1.543999,0.263688 l -0.0059,0.0015 h -0.0044 c -0.342698,0.05564 -0.682379,0.121648 -1.019567,0.187511 -0.08599,0.0168 -0.172188,0.03473 -0.257822,0.05127 -0.352527,0.0681 -0.703712,0.128309 -1.054725,0.177257 0.0017,-0.326337 0.0018,-0.651709 0.0015,-0.97711 v -0.04248 c -3.71e-4,-0.360578 3.32e-4,-0.719871 0.0029,-1.079656 0.165864,-0.0313 0.332165,-0.06539 0.498065,-0.09669 2.19008,-0.413098 4.383322,-0.82716 6.568592,-1.280353 0.0076,1.408551 0.0069,2.814953 0.0059,4.221939 -0.0011,1.211921 -0.0019,2.423425 0.0029,3.637429 -0.849263,-0.341085 -1.85749,-0.278406 -2.604584,0.275408 -0.90447,0.632532 -1.329765,1.834625 -1.023962,2.890313 0.254238,0.962432 1.081866,1.736823 2.064038,1.926388 0.873254,0.183122 1.81739,-0.105371 2.44198,-0.736862 l 0.0015,-0.0015 c 0.632994,-0.626285 0.878294,-1.54288 0.814482,-2.390771 -0.0043,-1.976294 -0.0026,-3.95364 -0.0015,-5.930051 9.37e-4,-1.605131 0.0022,-3.209647 0,-4.815236 0.03266,-0.390628 -0.256057,-0.675025 -0.503924,-0.833547 l -0.01025,-0.0073 -0.01172,-0.0059 h -0.0015 c -0.140537,-0.06355 -0.282499,-0.07777 -0.414565,-0.07031 z m -1.819401,11.11738 c 0.191857,-0.0056 0.386509,0.04746 0.558125,0.147958 0.27464,0.160819 0.470438,0.432254 0.493671,0.741257 v 0.01172 l 0.0029,0.01172 c 0.06096,0.307579 -0.05693,0.619221 -0.28126,0.846732 -0.224499,0.227595 -0.54216,0.355004 -0.854034,0.304705 l -0.0059,-0.0015 h -0.0059 c -0.573255,-0.05569 -1.01563,-0.68017 -0.880403,-1.23494 v -0.0015 l 0.0015,-0.0044 c 0.06754,-0.326404 0.314511,-0.613722 0.62844,-0.744187 l 0.0044,-0.0015 h 0.0015 c 0.106829,-0.04786 0.221811,-0.07284 0.336925,-0.07617 z m -9.154132,1.312581 c 0.596212,-0.0099 1.205376,0.36039 1.385791,0.925837 0.04849,0.346684 0.04382,0.707635 0.01025,1.066472 -0.23475,0.670839 -1.050713,1.077828 -1.740296,0.871635 l -0.0059,-0.0029 h -0.0029 l -0.0029,-0.0015 c -0.696935,-0.185078 -1.18292,-0.960358 -1.03568,-1.6627 l 0.0015,-0.0015 v -0.0015 c 0.09245,-0.510643 0.483443,-0.960091 0.978551,-1.122139 l 0.0044,-0.0015 h 0.0015 c 0.130777,-0.04498 0.26819,-0.06803 0.405776,-0.07031 z" />
  </g>
</svg>
