<?xml version="1.0" encoding="UTF-8" standalone="no"?>
<svg
   width="22"
   height="22"
   version="1.1"
   id="svg3"
   sodipodi:docname="battery-050-charging.svg"
   inkscape:version="1.4 (e7c3feb100, 2024-10-09)"
   xmlns:inkscape="http://www.inkscape.org/namespaces/inkscape"
   xmlns:sodipodi="http://sodipodi.sourceforge.net/DTD/sodipodi-0.dtd"
   xmlns:xlink="http://www.w3.org/1999/xlink"
   xmlns="http://www.w3.org/2000/svg"
   xmlns:svg="http://www.w3.org/2000/svg">
  <sodipodi:namedview
     id="namedview3"
     pagecolor="#505050"
     bordercolor="#ffffff"
     borderopacity="1"
     inkscape:showpageshadow="0"
     inkscape:pageopacity="0"
     inkscape:pagecheckerboard="1"
     inkscape:deskcolor="#505050"
     inkscape:zoom="32.173359"
     inkscape:cx="10.95627"
     inkscape:cy="12.510351"
     inkscape:current-layer="svg3" />
  <defs
     id="defs1">
    <linearGradient
       id="linearGradient5"
       inkscape:collect="always">
      <stop
         style="stop-color:#e5f230;stop-opacity:1;"
         offset="0"
         id="stop5" />
      <stop
         style="stop-color:#24d864;stop-opacity:1;"
         offset="1"
         id="stop6" />
    </linearGradient>
    <linearGradient
       id="linearGradient3"
       inkscape:collect="always">
      <stop
         style="stop-color:#00f1fa;stop-opacity:1;"
         offset="0"
         id="stop3" />
      <stop
         style="stop-color:#006cff;stop-opacity:1;"
         offset="1"
         id="stop4" />
    </linearGradient>
    <linearGradient
       id="linearGradient1"
       inkscape:collect="always">
      <stop
         style="stop-color:#00f1fa;stop-opacity:1;"
         offset="0"
         id="stop1" />
      <stop
         style="stop-color:#006cff;stop-opacity:1;"
         offset="1"
         id="stop2" />
    </linearGradient>
    <style
       id="current-color-scheme"
       type="text/css">.ColorScheme-Text {
                color:#dddddd;
            }
            .ColorScheme-PositiveText {
                color:#27ae60;
            }</style>
    <linearGradient
       inkscape:collect="always"
       xlink:href="#linearGradient1"
       id="linearGradient2"
       x1="-1"
       y1="14"
       x2="8.5"
       y2="2"
       gradientUnits="userSpaceOnUse" />
    <linearGradient
       inkscape:collect="always"
       xlink:href="#linearGradient3"
       id="linearGradient4"
       x1="-1"
       y1="14"
       x2="8.5"
       y2="2"
       gradientUnits="userSpaceOnUse" />
    <linearGradient
       inkscape:collect="always"
       xlink:href="#linearGradient5"
       id="linearGradient6"
       x1="7.0147247"
       y1="10.816301"
       x2="11.5"
       y2="7"
       gradientUnits="userSpaceOnUse" />
  </defs>
  <g
     class="ColorScheme-Text"
     transform="translate(1,3)"
     fill="currentColor"
     id="g3">
    <path
       d="m8.834 4-3.334 5h3l-0.75 3h0.416l3.334-5h-3l0.75-3z"
       color="#dddddd"
       fill="#dddddd"
       stroke-linecap="round"
       stroke-linejoin="round"
       style="-inkscape-stroke:none;fill:url(#linearGradient6)"
       id="path1" />
    <path
       d="m2.5918 5c-0.32761 0-0.5918 0.26418-0.5918 0.5918v4.8164c0 0.32761 0.26418 0.5918 0.5918 0.5918h4.377l0.25-1h-1.7188c-0.79859-1.712e-4 -1.2749-0.89013-0.83203-1.5547l2.2969-3.4453z"
       id="path2"
       style="fill:url(#linearGradient4)" />
    <path
       d="M 2,2 C 0.892,2 -1,3.892 -1,5 v 6 c 0,1.108 1.892,3 3,3 h 13 c 1.108,0 3,-1.892 3,-3 V 5 C 18,3.892 16.108,2 15,2 Z m 0,2 h 13 c 0.554,0 1,0.446 1,1 v 6 c 0,0.554 -0.446,1 -1,1 H 2 C 1.446,12 1,11.554 1,11 V 5 C 1,4.446 1.446,4 2,4 Z m 17,2 v 4 c 1.104569,0 2,-0.8954305 2,-2 0,-1.1045695 -0.895431,-2 -2,-2 z"
       id="path3"
       sodipodi:nodetypes="ssssssssssssssssssccsc"
       style="fill:url(#linearGradient2)" />
  </g>
</svg>
