<?xml version="1.0" encoding="UTF-8" standalone="no"?>
<svg
   width="22"
   height="22"
   version="1.1"
   id="svg1"
   sodipodi:docname="network-wireless-60-limited.svg"
   inkscape:version="1.4 (e7c3feb100, 2024-10-09)"
   xmlns:inkscape="http://www.inkscape.org/namespaces/inkscape"
   xmlns:sodipodi="http://sodipodi.sourceforge.net/DTD/sodipodi-0.dtd"
   xmlns:xlink="http://www.w3.org/1999/xlink"
   xmlns="http://www.w3.org/2000/svg"
   xmlns:svg="http://www.w3.org/2000/svg">
  <defs
     id="defs1">
    <linearGradient
       id="linearGradient1"
       inkscape:collect="always">
      <stop
         style="stop-color:#00f1fa;stop-opacity:1;"
         offset="0"
         id="stop1" />
      <stop
         style="stop-color:#006cff;stop-opacity:1;"
         offset="1"
         id="stop2" />
    </linearGradient>
    <linearGradient
       inkscape:collect="always"
       xlink:href="#linearGradient1"
       id="linearGradient2"
       x1="11.000053"
       y1="21.101"
       x2="21.000032"
       y2="8.5351725"
       gradientUnits="userSpaceOnUse" />
    <linearGradient
       inkscape:collect="always"
       xlink:href="#linearGradient1"
       id="linearGradient6"
       x1="11.000053"
       y1="21.101"
       x2="21.000032"
       y2="8.5351725"
       gradientUnits="userSpaceOnUse" />
    <linearGradient
       inkscape:collect="always"
       xlink:href="#linearGradient1"
       id="linearGradient8"
       x1="11.000053"
       y1="21.101"
       x2="21.000032"
       y2="8.5351725"
       gradientUnits="userSpaceOnUse" />
    <linearGradient
       inkscape:collect="always"
       xlink:href="#linearGradient1"
       id="linearGradient10"
       x1="11.000053"
       y1="21.101"
       x2="21.000032"
       y2="8.5351725"
       gradientUnits="userSpaceOnUse" />
    <linearGradient
       inkscape:collect="always"
       xlink:href="#linearGradient1"
       id="linearGradient12"
       x1="11.000053"
       y1="21.101"
       x2="21.000032"
       y2="8.5351725"
       gradientUnits="userSpaceOnUse" />
    <linearGradient
       inkscape:collect="always"
       xlink:href="#linearGradient1"
       id="linearGradient14"
       x1="11.000053"
       y1="21.101"
       x2="21.000032"
       y2="8.5351725"
       gradientUnits="userSpaceOnUse" />
    <linearGradient
       inkscape:collect="always"
       xlink:href="#linearGradient4158"
       id="linearGradient1-5"
       gradientUnits="userSpaceOnUse"
       gradientTransform="matrix(0.01050535,-0.00991728,-0.01050541,-0.00991733,-0.37996899,71.863275)"
       x1="221.32639"
       y1="470.72339"
       x2="549.03735"
       y2="798.43243" />
    <linearGradient
       inkscape:collect="always"
       id="linearGradient4158">
      <stop
         style="stop-color:#ff69ff;stop-opacity:1;"
         offset="0"
         id="stop4154" />
      <stop
         style="stop-color:#9033dd;stop-opacity:1;"
         offset="1"
         id="stop4156" />
    </linearGradient>
    <linearGradient
       inkscape:collect="always"
       xlink:href="#linearGradient4158"
       id="linearGradient3"
       x1="7"
       y1="52"
       x2="7"
       y2="45.5"
       gradientUnits="userSpaceOnUse"
       gradientTransform="translate(-10,13)" />
  </defs>
  <sodipodi:namedview
     id="namedview1"
     pagecolor="#505050"
     bordercolor="#ffffff"
     borderopacity="1"
     inkscape:showpageshadow="0"
     inkscape:pageopacity="0"
     inkscape:pagecheckerboard="1"
     inkscape:deskcolor="#505050"
     inkscape:zoom="17.340909"
     inkscape:cx="3.027523"
     inkscape:cy="19.31848"
     inkscape:current-layer="network-wireless-100-locked" />
  <style
     type="text/css"
     id="current-color-scheme">.ColorScheme-Text{color:#dddddd;}.ColorScheme-Background{color:#1a1a1a;}.ColorScheme-Highlight{color:#aaaaac30;}.ColorScheme-ViewText{color:#dddddd;}.ColorScheme-ViewBackground{color:#1a1a1a01;}.ColorScheme-ViewHover{color:#aaaaac30;}.ColorScheme-ViewFocus{color:#aaaaac30;}.ColorScheme-ButtonText{color:#bbbbbb;}.ColorScheme-ButtonBackground{color:#aaaaac20;}.ColorScheme-ButtonHover{color:#aaaaac30;}.ColorScheme-ButtonFocus{color:#aaaaac30;}.ColorScheme-NegativeText { color: #8500ff; } </style>
  <g
     transform="translate(0,20) translate(22,-64)"
     id="network-wireless-100-locked">
    <path
       id="path2"
       style="display:none;fill:#dddddd;fill-opacity:1;stroke:currentColor;stroke-width:1.33182;stroke-dasharray:none;stroke-opacity:1"
       class="ColorScheme-Text"
       d="m 11,1.5644531 c -3.7726529,0 -6.2591179,1.0102339 -8.8105469,2.6386719 C 1.6580181,4.542359 1.5025819,5.2478999 1.8417969,5.7792969 2.1810119,6.3106939 2.8865337,6.4661871 3.4179688,6.1269531 5.6815907,4.6821161 7.7478231,3.8476562 11,3.8476562 c 3.257485,0 5.371315,0.8379235 7.572266,2.2734376 0.528163,0.3443709 1.235517,0.1961307 1.580078,-0.3320313 C 20.496715,5.2610895 20.346521,4.5533554 19.818359,4.2089844 17.306921,2.5710334 14.767383,1.5644531 11,1.5644531 Z m 0,5.5488281 c -2.7118179,0 -4.436228,0.6995929 -6.3125,1.7949219 -0.544487,0.317754 -0.7280052,1.0180132 -0.4101562,1.5624999 0.3178489,0.544488 1.0160788,0.728005 1.5605468,0.410156 C 7.4714856,9.9272176 8.8004571,9.3964844 11,9.3964844 c 2.194063,0 3.540178,0.5534554 5.167969,1.4882816 0.546714,0.313986 1.244625,0.124838 1.558593,-0.421875 C 18.040492,9.9161588 17.851288,9.2183029 17.304688,8.9042969 15.457432,7.8434059 13.71726,7.1132812 11,7.1132812 Z m 0,5.2910158 c -1.4094289,0 -2.658186,0.363762 -3.796875,0.945312 -0.561477,0.286761 -0.7848069,0.973679 -0.4980469,1.535157 0.286761,0.561477 0.9736793,0.784808 1.5351563,0.498046 C 9.1074784,14.939887 10.003949,14.6875 11,14.6875 c 0.975579,0 1.899864,0.264094 2.765625,0.699219 0.563341,0.283107 1.250095,0.0555 1.533203,-0.507813 0.283126,-0.563323 0.05552,-1.250077 -0.507812,-1.533203 C 13.671353,12.782989 12.39712,12.404297 11,12.404297 Z"
       transform="translate(-22,44)" />
    <path
       class="ColorScheme-Text"
       id="path4340"
       transform="translate(0,-20)"
       d="m -3,76 c -1.108,0 -2,0.892 -2,2 v 2 h -1 v 3 h 6 v -3 h -1 v -2 c 0,-1.108 -0.892,-2 -2,-2 z m 0,1 c 0.554,0 1,0.446 1,1 v 2 h -2 v -2 c 0,-0.554 0.446,-1 1,-1 z"
       style="display:none;opacity:1;fill:currentColor;fill-opacity:1;stroke:none;stroke-width:0.1;stroke-miterlimit:4;stroke-dasharray:none;stroke-opacity:1" />
    <path
       class="ColorScheme-Text"
       id="path3"
       d="m 11.000053,17.101 c -1.1045599,0 -1.9999999,0.89543 -1.9999999,1.999999 0,1.10457 0.89544,2.000001 1.9999999,2.000001 1.10456,0 2,-0.895431 2,-2.000001 0,-1.104569 -0.89544,-1.999999 -2,-1.999999 z"
       style="display:inline;fill:url(#linearGradient2);fill-opacity:1;stroke-width:2"
       sodipodi:nodetypes="sssss"
       transform="translate(-22,44)" />
    <g
       id="path1659-7"
       class="ColorScheme-Text"
       transform="translate(-22,44)">
      <path
         style="color:#dddddd;clip-rule:evenodd;fill:url(#linearGradient6);fill-rule:evenodd"
         d="m 7.2024621,13.349419 c -0.561477,0.286761 -0.784177,0.974399 -0.497417,1.535877 0.286761,0.561477 0.9744,0.784177 1.535877,0.497416 0.867244,-0.442926 1.7630469,-0.694678 2.7590979,-0.694678 0.975579,0 1.89994,0.262902 2.765701,0.698027 0.563341,0.283107 1.249515,0.05595 1.532623,-0.507367 0.283126,-0.563323 0.05596,-1.249497 -0.507368,-1.532623 -1.119663,-0.562714 -2.393836,-0.941161 -3.790956,-0.941161 -1.4094289,0 -2.6588689,0.362959 -3.7975579,0.944509 z"
         id="path6" />
      <path
         style="color:#dddddd;clip-rule:evenodd;fill:url(#linearGradient14);fill-rule:evenodd"
         d="m 11,11.738281 c -1.5237532,0 -2.8851486,0.39733 -4.0996094,1.017578 -0.8819839,0.450453 -1.2395113,1.549659 -0.7890625,2.431641 0.4504526,0.881984 1.549659,1.239514 2.4316407,0.789063 C 9.3358164,15.571633 10.116155,15.353516 11,15.353516 c 0.855945,0 1.674803,0.228902 2.466797,0.626953 0.884891,0.444702 1.981064,0.08215 2.425781,-0.802735 0.444745,-0.884888 0.08214,-1.981048 -0.802734,-2.425781 C 13.896102,12.152009 12.517373,11.738281 11,11.738281 Z m 0,1.332032 c 1.276867,0 2.446604,0.34561 3.492188,0.871093 0.241784,0.12152 0.332444,0.396914 0.210937,0.638672 -0.121498,0.241753 -0.396881,0.33245 -0.638672,0.210938 -0.939528,-0.4722 -1.96924,-0.769532 -3.064453,-0.769532 -1.1082569,0 -2.1208596,0.286656 -3.0625,0.767579 -0.2409724,0.12307 -0.5156024,0.03394 -0.6386719,-0.207032 C 7.1757569,14.341057 7.2648893,14.066429 7.5058594,13.943359 8.5687766,13.400507 9.7048954,13.070313 11,13.070313 Z"
         id="path7" />
    </g>
    <g
       id="path1-5"
       class="ColorScheme-Text"
       transform="translate(-22,44)">
      <path
         style="color:#dddddd;clip-rule:evenodd;fill:url(#linearGradient8);fill-rule:evenodd"
         d="m 4.6874291,8.9088262 c -0.544487,0.317754 -0.728202,1.016808 -0.410353,1.5612948 0.317849,0.544488 1.016922,0.728203 1.56139,0.410354 1.633595,-0.9536418 2.96203,-1.4834788 5.1615729,-1.4834788 2.194063,0 3.540783,0.552706 5.168574,1.4875318 0.546714,0.313986 1.244455,0.125305 1.558423,-0.421408 C 18.040966,9.9163882 17.852228,9.2186462 17.305628,8.9046402 15.458372,7.8437492 13.717299,7.11391 11.000039,7.11391 c -2.7118179,0 -4.4363379,0.6995872 -6.3126099,1.7949162 z"
         id="path4" />
      <path
         style="color:#dddddd;clip-rule:evenodd;fill:url(#linearGradient12);fill-rule:evenodd"
         d="m 11,6.4472656 c -2.8263443,0 -4.7253557,0.7640632 -6.6484375,1.8867188 -0.8553773,0.4991847 -1.1496689,1.6173745 -0.6503906,2.4726566 0.4992882,0.8553 1.6173775,1.147731 2.4726562,0.648437 C 7.7644221,10.526539 8.9073956,10.0625 11,10.0625 c 2.08223,0 3.249351,0.488106 4.837891,1.400391 0.858803,0.493223 1.973599,0.190837 2.466796,-0.667969 C 18.797832,9.9360759 18.495364,8.8213922 17.636719,8.328125 15.747139,7.2429274 13.8365,6.4472656 11,6.4472656 Z m 0,1.3320313 c 2.59802,0 4.169677,0.6665406 5.974609,1.703125 0.234555,0.1347448 0.310498,0.4138198 0.175782,0.6484371 C 17.015652,10.36548 16.734624,10.441389 16.5,10.306641 14.832958,9.3492734 13.305896,8.7304687 11,8.7304688 c -2.3064814,0 -3.8214509,0.5954743 -5.4980469,1.5742192 C 5.2682958,10.441092 4.9879723,10.368441 4.8515625,10.134766 4.7151428,9.9010737 4.7898408,9.6206983 5.0234375,9.484375 6.8528997,8.4163726 8.4027085,7.7792969 11,7.7792969 Z"
         id="path5" />
    </g>
    <path
       class="ColorScheme-Text"
       fill-rule="evenodd"
       clip-rule="evenodd"
       d="M 1.8419531,5.779367 C 1.5027381,5.24797 1.6585611,4.542104 2.1899961,4.20287 4.7414251,2.574432 7.2273671,1.56491 11.00002,1.56491 c 3.767383,0 6.307872,1.006097 8.81931,2.644048 0.528162,0.344371 0.677136,1.051759 0.332765,1.579732 -0.344561,0.528162 -1.051759,0.677136 -1.579922,0.332765 -2.200951,-1.435514 -4.314668,-2.273421 -7.572153,-2.273421 -3.2521769,0 -5.3180049,0.834482 -7.5816269,2.279319 -0.531435,0.339234 -1.237225,0.183411 -1.57644,-0.347986 z"
       id="path2-3"
       style="display:none;fill:none;fill-opacity:1;stroke:url(#linearGradient10);stroke-width:1.33182;stroke-dasharray:none;stroke-opacity:1"
       sodipodi:nodetypes="scscccscs"
       transform="translate(-22,44)" />
    <g
       id="g2">
      <path
         inkscape:connector-curvature="0"
         d="m -2.000034,57.931739 -2.8e-5,3.136399 c -4e-6,0.512395 -0.444135,0.931664 -0.986994,0.931743 l -0.02599,-9.4e-5 c -0.542943,0 -0.98697,-0.419175 -0.98691,-0.931668 L -4,57.931686 C -4.000079,57.419178 -3.555969,56.999924 -3.013066,57 h 0.02608 C -2.444047,57 -2,57.41919 -2,57.931739"
         style="fill:url(#linearGradient1-5);fill-opacity:1;fill-rule:evenodd;stroke:none;stroke-width:0.0273073"
         id="path1"
         sodipodi:nodetypes="cccccccsc" />
      <path
         class="ColorScheme-Text"
         id="path2-2"
         d="m -3,63 c -0.55228,0 -1,0.447715 -1,1 0,0.552285 0.44772,1 1,1 0.55228,0 1,-0.447715 1,-1 0,-0.552285 -0.44772,-1 -1,-1 z"
         style="color:#dddddd;display:inline;fill:url(#linearGradient3);stroke-width:1"
         sodipodi:nodetypes="sssss" />
    </g>
  </g>
</svg>
