<?xml version="1.0" encoding="UTF-8" standalone="no"?>
<svg
   version="1.1"
   viewBox="-10 0 2231 2048"
   id="svg1"
   sodipodi:docname="weather-showers2-symbolic.svg"
   inkscape:version="1.4 (e7c3feb100, 2024-10-09)"
   xmlns:inkscape="http://www.inkscape.org/namespaces/inkscape"
   xmlns:sodipodi="http://sodipodi.sourceforge.net/DTD/sodipodi-0.dtd"
   xmlns="http://www.w3.org/2000/svg"
   xmlns:svg="http://www.w3.org/2000/svg">
  <defs
     id="defs1" />
  <sodipodi:namedview
     id="namedview1"
     pagecolor="#505050"
     bordercolor="#ffffff"
     borderopacity="1"
     inkscape:showpageshadow="0"
     inkscape:pageopacity="0"
     inkscape:pagecheckerboard="1"
     inkscape:deskcolor="#505050"
     inkscape:zoom="0.35631553"
     inkscape:cx="1119.794"
     inkscape:cy="1164.6981"
     inkscape:current-layer="svg1" />
  <style
     type="text/css"
     id="current-color-scheme">.ColorScheme-Text{color:#dddddd;}.ColorScheme-Background{color:#1a1a1a;}.ColorScheme-Highlight{color:#aaaaac30;}.ColorScheme-ViewText{color:#dddddd;}.ColorScheme-ViewBackground{color:#1a1a1a01;}.ColorScheme-ViewHover{color:#aaaaac30;}.ColorScheme-ViewFocus{color:#aaaaac30;}.ColorScheme-ButtonText{color:#bbbbbb;}.ColorScheme-ButtonBackground{color:#aaaaac20;}.ColorScheme-ButtonHover{color:#aaaaac30;}.ColorScheme-ButtonFocus{color:#aaaaac30;}.ColorScheme-NegativeText { color: #8500ff; } </style>
  <path
     class="ColorScheme-Text"
     fill="currentColor"
     d="M 0,1010 C 0,887.33333 38.333333,778.16667 115,682.5 191.66667,586.83333 288.66667,525.33333 406,498 439.33333,352.66667 514.33333,233.33333 631,140 747.66667,46.666667 881,0 1031,0 c 146.6667,0 277.5,45.5 392.5,136.5 115,91 189.8333,207.83333 224.5,350.5 h 34 c 95.3333,0 183.6667,23.16667 265,69.5 81.3333,46.33333 145.6667,109.66667 193,190 47.3333,80.33333 71,168.16667 71,263.5 0,93.3333 -22.5,180.1667 -67.5,260.5 -45,80.3333 -106.5,144.5 -184.5,192.5 -78,48 -163.3333,73.3333 -256,76 -14,0 -21,-6 -21,-18 v -142 c 0,-12.6667 7,-19 21,-19 90.6667,-4.6667 168.1667,-41 232.5,-109 64.3333,-68 96.5,-148.3333 96.5,-241 0,-92.66667 -34.6667,-173.16667 -104,-241.5 C 1858.6667,700.16667 1776.6667,666 1682,666 h -172 c -12.6667,0 -19,-6 -19,-18 l -8,-62 C 1471,470.66667 1421.5,374.16667 1334.5,296.5 1247.5,218.83333 1146.3333,180 1031,180 914.33333,180 812.83333,218.83333 726.5,296.5 640.16667,374.16667 591.66667,470.66667 581,586 l -8,57 c 0,13.33333 -7,20 -21,20 l -56,3 c -88.66667,10.66667 -163.16667,48.66667 -223.5,114 -60.33333,65.33333 -90.5,142 -90.5,230 0,92.6667 32,173 96,241 64,68 141.66667,104.3333 233,109 12,0 18,6.3333 18,19 v 142 c 0,12 -6,18 -18,18 C 368.33333,1532.3333 247.5,1478 148.5,1376 49.5,1274 0,1152 0,1010 Z m 571,713 c 0,-4.6667 1.33333,-11.6667 4,-21 l 174,-615 c 6.66667,-20.6667 18.16667,-36.3333 34.5,-47 16.33333,-10.6667 32.83333,-16 49.5,-16 7.33333,0 16,1 26,3 25.33333,4.6667 44.5,17.6667 57.5,39 13,21.3333 15.83333,45 8.5,71 l -174,611 c -13.33333,45.3333 -42.66667,68 -88,68 -4,0 -8,-0.6667 -12,-2 -6,-2 -9.66667,-3 -11,-3 -23.33333,-6.6667 -40.66667,-18.5 -52,-35.5 -11.33333,-17 -17,-34.5 -17,-52.5 z M 874.15363,1932 1111,1087 c 4.6667,-20.6667 15.3333,-36.3333 32,-47 16.6667,-10.6667 34,-16 52,-16 9.3333,0 19,1 29,3 23.3333,6.6667 40.6667,20.5 52,41.5 11.3333,21 13.6667,43.8333 7,68.5 l -235.8463,846 c -4,18 -14.3334,33.3333 -31.0001,46 -16.66663,12.6667 -34.66663,19 -53.99997,19 -10,0 -19,-1.6667 -27,-5 -21.33333,-5.3333 -39.66666,-19.3333 -55,-42 -12,-18.6667 -14,-41.6667 -6,-69 z M 1291,1726 c 0,-4 1.3333,-12 4,-24 l 174,-615 c 6,-20.6667 16.8333,-36.3333 32.5,-47 15.6667,-10.6667 32.1667,-16 49.5,-16 8.6667,0 18,1 28,3 22,6 38.5,17 49.5,33 11,16 16.5,32.6667 16.5,50 0,3.3333 -0.6667,8.1667 -2,14.5 -1.3333,6.3333 -2,10.5 -2,12.5 l -174,611 c -4,20.6667 -14,37.1667 -30,49.5 -16,12.3333 -34,18.5 -54,18.5 l -26,-5 c -21.3333,-6 -37.6667,-17.5 -49,-34.5 -11.3333,-17 -17,-33.8333 -17,-50.5 z"
     id="path1"
     sodipodi:nodetypes="sscssscsssssscsscsssssccsssccccssscsscsssccsscsccsscssccsscsccsscccsccsscsssccsccss" />
</svg>
