<?xml version="1.0" encoding="UTF-8" standalone="no"?>
<svg
   version="1.1"
   viewBox="-10 0 3125 2048"
   id="svg1"
   sodipodi:docname="weather-scattered-test.svg"
   inkscape:version="1.4 (e7c3feb100, 2024-10-09)"
   xmlns:inkscape="http://www.inkscape.org/namespaces/inkscape"
   xmlns:sodipodi="http://sodipodi.sourceforge.net/DTD/sodipodi-0.dtd"
   xmlns="http://www.w3.org/2000/svg"
   xmlns:svg="http://www.w3.org/2000/svg">
  <defs
     id="defs1" />
  <sodipodi:namedview
     id="namedview1"
     pagecolor="#505050"
     bordercolor="#ffffff"
     borderopacity="1"
     inkscape:showpageshadow="0"
     inkscape:pageopacity="0"
     inkscape:pagecheckerboard="1"
     inkscape:deskcolor="#505050"
     inkscape:zoom="0.2296"
     inkscape:cx="1635.453"
     inkscape:cy="1171.6028"
     inkscape:current-layer="svg1" />
  <style
     type="text/css"
     id="current-color-scheme">.ColorScheme-Text{color:#dddddd;}.ColorScheme-Background{color:#1a1a1a;}.ColorScheme-Highlight{color:#aaaaac30;}.ColorScheme-ViewText{color:#dddddd;}.ColorScheme-ViewBackground{color:#1a1a1a01;}.ColorScheme-ViewHover{color:#aaaaac30;}.ColorScheme-ViewFocus{color:#aaaaac30;}.ColorScheme-ButtonText{color:#bbbbbb;}.ColorScheme-ButtonBackground{color:#aaaaac20;}.ColorScheme-ButtonHover{color:#aaaaac30;}.ColorScheme-ButtonFocus{color:#aaaaac30;}.ColorScheme-NegativeText { color: #8500ff; } </style>
  <path
     class="ColorScheme-Text"
     fill="currentColor"
     d="m 261,1088 c 0,9.3333 6,14 18,14 h 148 c 12.66667,0 20.33333,-4.6667 23,-14 27.33333,-56.6667 66,-103.5 116,-140.5 50,-37 106.33333,-59.16667 169,-66.5 h 58 c 11.33333,0 17,-6.66667 17,-20 l 8,-60 c 7.33333,-76 32,-145.16667 74,-207.5 42,-62.33333 96.5,-111.16667 163.5,-146.5 67,-35.33333 138.8333,-53 215.5,-53 116,0 217.3333,39 304,117 86.6667,78 136,174.66667 148,290 l 8,60 c 0,13.33333 6.3333,20 19,20 h 171 c 94.6667,0 176.5,34 245.5,102 69,68 103.5,148.6667 103.5,242 0,96 -34.3333,178.1667 -103,246.5 -68.6667,68.3333 -61.3333,259.8333 20,212.5 81.3333,-47.3333 145.6667,-111.6667 193,-193 47.3333,-81.3333 71,-170 71,-266 0,-77.3333 -15.3333,-148.6667 -46,-214 82.6667,-102.66667 124,-219.33333 124,-350 0,-100 -25.1667,-193 -75.5,-279 -50.3333,-86 -118.6667,-154.16667 -205,-204.5 C 2162.1667,127.16667 2068.6667,102 1968,102 c -78,0 -152.5,15.83333 -223.5,47.5 -71,31.66667 -132.8333,76.16667 -185.5,133.5 -88,-46 -184,-69 -288,-69 -150.6667,0 -284.33333,46.66667 -401,140 -116.66667,93.33333 -191,212.66667 -223,358 -90.66667,22.66667 -170.5,67.16667 -239.5,133.5 -69,66.33333 -117.16667,144.83333 -144.5,235.5 -1.33333,1.3333 -2,3.6667 -2,7 z M 1707,387 c 70.6667,-67.33333 157.6667,-101 261,-101 104,0 192.5,36.5 265.5,109.5 73,73 109.5,161.5 109.5,265.5 0,71.33333 -16.3333,135.66667 -49,193 C 2193.3333,752.66667 2069,702 1921,702 h -32 C 1858.3333,579.33333 1797.6667,474.33333 1707,387 Z m 845,785.1 c 0,26 8.3333,47.3333 25,64 l 70,67 c 26,19.3333 47.6667,29 65,29 17.3333,0 39,-9.6667 65,-29 17.3333,-17.3333 26,-38.6667 26,-64 0,-24.6667 -8.6667,-46.3333 -26,-65 l -68,-65 c -20,-18.6667 -43,-28 -69,-28 -25.3333,0 -46.3333,8.6667 -63,26 -16.6667,17.3333 -25,39 -25,65 z M 2706,665 c 0,26 9.6667,47.66667 29,65 19.3333,18 40.6667,27 64,27 h 217 c 24,0 44.8333,-9 62.5,-27 17.6667,-18 26.5,-39.66667 26.5,-65 0,-24 -8.6667,-44.16667 -26,-60.5 -17.3333,-16.33333 -38.3333,-24.5 -63,-24.5 h -217 c -26,0 -48,8.16667 -66,24.5 -18,16.33333 -27,36.5 -27,60.5 z"
     id="path1"
     sodipodi:nodetypes="scsssssssssscsssssssssscscsccssssccsssssssssssssscsssssssscscsscss"
     style="display:inline" />
  <path
     class="ColorScheme-Text"
     fill="currentColor"
     d="m 2744.5,104 c 0,25.33333 -8.3333,46.33333 -25,63 l -69,68 c -18,19.33333 -38.6667,29 -62,29 -24,0 -45.1667,-8.83333 -63.5,-26.5 -18.3333,-17.66667 -27.5,-39.5 -27.5,-65.5 0,-25.33333 9,-47.66667 27,-67 l 68,-65 c 17.3333,-18.66667 38.6667,-28 64,-28 26,0 47.1667,8.83333 63.5,26.5 16.3333,17.66667 24.5,39.5 24.5,65.5 z"
     id="path4"
     sodipodi:nodetypes="sccsssccsss" />
  <path
     class="ColorScheme-Text"
     fill="currentColor"
     d="m 0,1661 c 0,26 8.6666667,47.6667 26,65 46.666667,19.3333 78,29 94,29 h 840 c 25.33333,0 46.8333,-9.1667 64.5,-27.5 17.6667,-18.3333 26.5,-40.1667 26.5,-65.5 0,-24.6667 -8.8333,-45.5 -26.5,-62.5 -17.6667,-17 -39.16667,-25.5 -64.5,-25.5 H 120 c -28,0 -55,8.5 -81,25.5 -26,17 -39,37.5 -39,61.5 z m 149,-320 c 0,25.3333 9,46.3333 27,63 16,18.6667 36.66667,28 62,28 h 1003 c 25.3333,0 47,-8.8333 65,-26.5 18,-17.6667 27,-39.1667 27,-64.5 0,-25.3333 -9,-47 -27,-65 -18,-18 -39.6667,-27 -65,-27 H 238 c -24.66667,0 -45.66667,9 -63,27 -17.33333,18 -26,39.6667 -26,65 z m 112,-253 c 0,9.3333 6,14 18,14 h 148 c 12.66667,0 20.33333,-4.6667 23,-14 27.33333,-56.6667 66,-103.5 116,-140.5 50,-37 106.33333,-59.16667 169,-66.5 h 58 c 11.33333,0 17,-6.66667 17,-20 l 8,-60 c 7.33333,-76 32,-145.16667 74,-207.5 42,-62.33333 96.5,-111.16667 163.5,-146.5 67,-35.33333 138.8333,-53 215.5,-53 116,0 217.3333,39 304,117 86.6667,78 136,174.66667 148,290 l 8,60 c 0,13.33333 6.3333,20 19,20 h 171 c 94.6667,0 176.5,34 245.5,102 69,68 103.5,148.6667 103.5,242 0,96 -34.3333,178.1667 -103,246.5 -68.6667,68.3333 -150.6667,102.5 -246,102.5 h -735 c -12,0 -18,6.6667 -18,20 v 142 c 0,12.6667 6,19 18,19 h 735 c 96,0 184.6667,-23.6667 266,-71 81.3333,-47.3333 145.6667,-111.6667 193,-193 47.3333,-81.3333 71,-170 71,-266 0,-77.3333 -15.3333,-148.6667 -46,-214 82.6667,-102.66667 124,-219.33333 124,-350 0,-100 -25.1667,-193 -75.5,-279 -50.3333,-86 -118.6667,-154.16667 -205,-204.5 C 2162.1667,127.16667 2068.6667,102 1968,102 c -78,0 -152.5,15.83333 -223.5,47.5 -71,31.66667 -132.8333,76.16667 -185.5,133.5 -88,-46 -184,-69 -288,-69 -150.6667,0 -284.33333,46.66667 -401,140 -116.66667,93.33333 -191,212.66667 -223,358 -90.66667,22.66667 -170.5,67.16667 -239.5,133.5 -69,66.33333 -117.16667,144.83333 -144.5,235.5 -1.33333,1.3333 -2,3.6667 -2,7 z m 76,868 c 0,25.3333 9.33333,46.3333 28,63 16.66667,18 37.33333,27 62,27 h 1005 c 24.6667,0 45.6667,-8.8333 63,-26.5 17.3333,-17.6667 26,-38.8333 26,-63.5 0,-26.6667 -8.5,-48.8333 -25.5,-66.5 -17,-17.6667 -38.1667,-26.5 -63.5,-26.5 H 427 c -25.33333,0 -46.66667,8.8333 -64,26.5 -17.33333,17.6667 -26,39.8333 -26,66.5 z M 1135,-80 c 0,26.666667 8.6667,48 26,64 l 68,70 c 17.3333,17.333333 38.6667,26 64,26 27.3333,0 49.5,-8.5 66.5,-25.5 17,-17 25.5,-38.833333 25.5,-65.5 0,-24.666667 -8.6667,-45.666667 -26,-63 l -69,-69 c -18,-18 -38.3333,-27 -61,-27 -26.6667,0 -49,8.83333 -67,26.5 -18,17.66667 -27,38.83333 -27,63.5 z m 572,467 c 70.6667,-67.33333 157.6667,-101 261,-101 104,0 192.5,36.5 265.5,109.5 73,73 109.5,161.5 109.5,265.5 0,71.33333 -16.3333,135.66667 -49,193 C 2193.3333,752.66667 2069,702 1921,702 h -32 C 1858.3333,579.33333 1797.6667,474.33333 1707,387 Z m 171,-557 c 0,25.33333 8.8333,46.33333 26.5,63 17.6667,16.666667 38.8333,25 63.5,25 26.6667,0 48.1667,-8.166667 64.5,-24.5 16.3333,-16.33333 24.5,-37.5 24.5,-63.5 v -218 c 0,-26 -8.3333,-47.83333 -25,-65.5 -16.6667,-17.66667 -38,-26.5 -64,-26.5 -24.6667,0 -45.8333,9 -63.5,27 -17.6667,18 -26.5,39.66667 -26.5,65 z m 589,244 c 0,26 9,47.33333 27,64 13.3333,17.33333 34.6667,26 64,26 28.6667,0 49.6667,-8.66667 63,-26 l 156,-154 c 17.3333,-16 26,-38 26,-66 0,-24.66667 -8.8333,-45.83333 -26.5,-63.5 -17.6667,-17.66667 -39.1667,-26.5 -64.5,-26.5 -25.3333,0 -47,8.33333 -65,25 L 2494,11 c -18,17.333333 -27,38.333333 -27,63 z m 85,1265 c 0,26 8.3333,47.3333 25,64 l 70,67 c 26,19.3333 47.6667,29 65,29 17.3333,0 39,-9.6667 65,-29 17.3333,-17.3333 26,-38.6667 26,-64 0,-24.6667 -8.6667,-46.3333 -26,-65 l -68,-65 c -20,-18.6667 -43,-28 -69,-28 -25.3333,0 -46.3333,8.6667 -63,26 -16.6667,17.3333 -25,39 -25,65 z m 154,-674 c 0,26 9.6667,47.66667 29,65 19.3333,18 40.6667,27 64,27 h 217 c 24,0 44.8333,-9 62.5,-27 17.6667,-18 26.5,-39.66667 26.5,-65 0,-24 -8.6667,-44.16667 -26,-60.5 -17.3333,-16.33333 -38.3333,-24.5 -63,-24.5 h -217 c -26,0 -48,8.16667 -66,24.5 -18,16.33333 -27,36.5 -27,60.5 z"
     id="path2"
     sodipodi:nodetypes="scsssssssssscsssssssssssscscsccssssccsssssssssssssscssssscsscscsscssssssssssccsssssssscssscsccsssssssssssscsccsssccssccscsccsssscsssssssss"
     style="display:none" />
  <path
     class="ColorScheme-Text"
     fill="currentColor"
     d="m 233,1227 v -1 -1 C 233,1101.6667 271.5,991.6667 348.5,895 425.5,798.33333 523,736.33333 641,709 673.6667,563 748.5,443.16667 865.5,349.5 982.5,255.8333 1116.6667,209 1268,209 c 106,0 202.6667,23.3333 290,70 53.3333,-56.6667 116,-101.1667 188,-133.5 72,-32.3333 146.3333,-48.5 223,-48.5 101.3333,0 195.1667,25.1667 281.5,75.5 86.3333,50.3333 154.6667,118.6667 205,205 50.3333,86.33333 75.5,180.16667 75.5,281.5 0,131.33333 -40.6667,248.33333 -122,351 30.6667,65.3333 46,137 46,215 0,94 -22.6667,181.1667 -68,261.5 -45.3333,80.3333 -107.1667,144.6667 -185.5,193 -78.3333,48.3333 -164.5,73.8333 -258.5,76.5 -14,0 -21,-6 -21,-18 v -143 c 0,-12.6667 7,-19 21,-19 91.3333,-4.6667 168.8333,-41.1667 232.5,-109.5 63.6667,-68.3333 95.5,-148.8333 95.5,-241.5 0,-94.6667 -34.3333,-176 -103,-244 -68.6667,-68 -150.6667,-102 -246,-102 h -172 c -12.6667,0 -19,-6.33333 -19,-19 l -8,-63 C 1711,681.66667 1661.1667,584.83333 1573.5,506.5 1485.8333,428.16667 1384,389 1268,389 1150.6667,389 1048.8333,428.16667 962.5,506.5 876.1667,584.83333 827.3333,681.66667 816,797 l -8,63 c -3.3333,10 -11.3333,15 -24,15 l -54,4 c -90,10.66667 -165,48.5 -225,113.5 -60,65 -90,142.5 -90,232.5 v 4 c 1.3333,1.3333 2.3333,2 3,2 0.6667,90.6667 32.6667,169.6667 96,237 30,31.3333 62.6667,55 98,71 v 2 c 40,20.6667 84,32.6667 132,36 12,0 18,6 18,18 v 143 c 0,12 -6,18 -18,18 -52,-2.6667 -103,-13 -153,-31 -80.6667,-26.6667 -150.5,-70.5 -209.5,-131.5 -59,-61 -100.8333,-132.1667 -125.5,-213.5 -15.3333,-50 -23,-101 -23,-153 z M 1708,386 c 89.3333,81.33333 149.6667,185.33333 181,312 h 33 c 147.3333,0 272.3333,51.33333 375,154 33.3333,-58.66667 50,-123 50,-193 0,-104.66667 -36.8333,-193.5 -110.5,-266.5 C 2162.8333,319.5 2073.6667,283 1969,283 c -102.6667,0 -189.6667,34.3333 -261,103 z"
     id="path1-2"
     sodipodi:nodetypes="scsscsscssssscssscsscsssssccsssccccssccccccssccscsccscsssc" />
  <path
     class="ColorScheme-Text"
     fill="currentColor"
     d="M 240,1225 Q 240,1041 355,897.5 470,754 646,713 695,495 870,355.5 1045,216 1271,216 q 220,0 392,136 172,136 225,350 h 33 q 143,0 265,69.5 122,69.5 193,190 71,120.5 71,263.5 0,214 -147.5,368 -147.5,154 -360.5,161 -21,0 -21,-18 v -142 q 0,-19 21,-19 137,-7 233,-109 96,-102 96,-241 0,-139 -104,-241.5 Q 2063,881 1921,881 h -171 q -20,0 -20,-18 l -7,-62 Q 1706,629 1575.5,512 1445,395 1271,395 1096,395 966,511.5 836,628 819,801 l -6,58 q 0,19 -21,19 l -56,3 q -131,6 -222.5,107 -91.5,101 -91.5,237 0,139 96,241 96,102 233,109 18,0 18,19 v 142 q 0,18 -18,18 Q 537,1744 388.5,1591 240,1438 240,1225 Z m 632,94 q 0,-39 39,-105.5 39,-66.5 73,-107.5 34,-38 41,-45 l 38,43 q 41,44 76.5,108.5 35.5,64.5 35.5,106.5 0,63 -43,105 -43,42 -107,42 -63,0 -108,-43 -45,-43 -45,-104 z m 318,425 q 0,-44 25.5,-102 25.5,-58 62.5,-109 29,-41 71,-89.5 42,-48.5 64,-69.5 11,-10 26,-25 l 26,25 q 60,53 136,156 38,53 63,111 25,58 25,103 0,103 -72.5,175.5 -72.5,72.5 -177.5,72.5 -103,0 -176,-72 -73,-72 -73,-176 z m 157,-710 q 0,-67 104,-171 l 26,27 q 28,34 51,75.5 23,41.5 23,68.5 0,41 -29.5,70.5 -29.5,29.5 -70.5,29.5 -43,0 -73.5,-29.5 Q 1347,1075 1347,1034 Z"
     id="path1-5" />
</svg>
