<?xml version="1.0" standalone="no"?>
<!DOCTYPE svg PUBLIC "-//W3C//DTD SVG 1.1//EN" "http://www.w3.org/Graphics/SVG/1.1/DTD/svg11.dtd" >
<svg xmlns="http://www.w3.org/2000/svg" xmlns:xlink="http://www.w3.org/1999/xlink" version="1.1" viewBox="-10 0 2230 2048">
   <style
      type="text/css"
      id="current-color-scheme">.ColorScheme-Text{color:#dddddd;}.ColorScheme-Background{color:#1a1a1a;}.ColorScheme-Highlight{color:#aaaaac30;}.ColorScheme-ViewText{color:#dddddd;}.ColorScheme-ViewBackground{color:#1a1a1a01;}.ColorScheme-ViewHover{color:#aaaaac30;}.ColorScheme-ViewFocus{color:#aaaaac30;}.ColorScheme-ButtonText{color:#bbbbbb;}.ColorScheme-ButtonBackground{color:#aaaaac20;}.ColorScheme-ButtonHover{color:#aaaaac30;}.ColorScheme-ButtonFocus{color:#aaaaac30;}.ColorScheme-NegativeText { color: #8500ff; } </style>
   <path class="ColorScheme-Text" fill="currentColor"
d="M0 1228q0 -184 115 -327.5t291 -184.5q49 -218 224 -357.5t401 -139.5q220 0 392 136t225 350h33q143 0 265 69.5t193 190t71 263.5q0 214 -147.5 368t-360.5 161q-21 0 -21 -18v-142q0 -19 21 -19q137 -7 233 -109t96 -241t-104 -241.5t-246 -102.5h-171q-20 0 -20 -18
l-7 -62q-17 -172 -147.5 -289t-304.5 -117q-175 0 -305 116.5t-147 289.5l-6 58q0 19 -21 19l-56 3q-131 6 -222.5 107t-91.5 237q0 139 96 241t233 109q18 0 18 19v142q0 18 -18 18q-214 -10 -362.5 -163t-148.5 -366zM632 1322q0 -39 39 -105.5t73 -107.5q34 -38 41 -45
l38 43q41 44 76.5 108.5t35.5 106.5q0 63 -43 105t-107 42q-63 0 -108 -43t-45 -104zM950 1747q0 -44 25.5 -102t62.5 -109q29 -41 71 -89.5t64 -69.5q11 -10 26 -25l26 25q60 53 136 156q38 53 63 111t25 103q0 103 -72.5 175.5t-177.5 72.5q-103 0 -176 -72t-73 -176z
M1107 1037q0 -67 104 -171l26 27q28 34 51 75.5t23 68.5q0 41 -29.5 70.5t-70.5 29.5q-43 0 -73.5 -29.5t-30.5 -70.5z" />
</svg>
