<?xml version="1.0" encoding="UTF-8" standalone="no"?>
<svg
   version="1.1"
   viewBox="-10 0 2562 2048"
   id="svg1"
   sodipodi:docname="weather-overcast-small.svg"
   inkscape:version="1.4 (e7c3feb100, 2024-10-09)"
   xmlns:inkscape="http://www.inkscape.org/namespaces/inkscape"
   xmlns:sodipodi="http://sodipodi.sourceforge.net/DTD/sodipodi-0.dtd"
   xmlns="http://www.w3.org/2000/svg"
   xmlns:svg="http://www.w3.org/2000/svg">
  <defs
     id="defs1" />
  <sodipodi:namedview
     id="namedview1"
     pagecolor="#505050"
     bordercolor="#ffffff"
     borderopacity="1"
     inkscape:showpageshadow="0"
     inkscape:pageopacity="0"
     inkscape:pagecheckerboard="1"
     inkscape:deskcolor="#505050"
     inkscape:zoom="0.25195313"
     inkscape:cx="1250.2326"
     inkscape:cy="825.55039"
     inkscape:current-layer="svg1" />
  <style
     type="text/css"
     id="current-color-scheme">.ColorScheme-Text{color:#dddddd;}.ColorScheme-Background{color:#1a1a1a;}.ColorScheme-Highlight{color:#aaaaac30;}.ColorScheme-ViewText{color:#dddddd;}.ColorScheme-ViewBackground{color:#1a1a1a01;}.ColorScheme-ViewHover{color:#aaaaac30;}.ColorScheme-ViewFocus{color:#aaaaac30;}.ColorScheme-ButtonText{color:#bbbbbb;}.ColorScheme-ButtonBackground{color:#aaaaac20;}.ColorScheme-ButtonHover{color:#aaaaac30;}.ColorScheme-ButtonFocus{color:#aaaaac30;}.ColorScheme-NegativeText { color: #8500ff; } </style>
  <path
     class="ColorScheme-Text"
     fill="currentColor"
     d="m 161.4484,1138.3598 q 0,37.5379 26.18926,61.9812 26.18926,24.4433 67.21909,24.4433 h 157.13556 q 37.53793,0 64.16368,-24.8798 26.62574,-24.8798 26.62574,-61.5447 0,-40.1569 -26.18925,-66.3462 -26.18926,-26.1892 -64.60017,-26.1892 H 254.85675 q -41.02983,0 -67.21909,25.7528 -26.18926,25.7527 -26.18926,66.7826 z m 164.99233,576.1636 q 0,135.3112 98.6462,234.3939 Q 523.73314,2048 659.04431,2048 h 639.01789 q 135.3112,0 231.775,-97.7732 96.4637,-97.7733 96.4637,-235.7034 0,-67.2191 -19.2054,-114.3597 116.1057,-74.2029 183.7613,-197.7289 67.6555,-123.526 67.6555,-264.075 0,-113.4868 -44.5217,-216.9344 -44.5217,-103.44757 -119.1611,-178.08695 -74.6394,-74.63939 -178.087,-119.16113 -103.4475,-44.52174 -216.0614,-44.52174 -152.7706,0 -281.5345,75.07588 -128.76384,75.07587 -202.53025,203.40324 -73.76641,128.32736 -73.76641,280.2251 v 31.4271 q -139.67605,79.4407 -184.19779,232.2114 -105.63001,33.1731 -168.92071,117.8517 -63.29071,84.6786 -63.29071,194.6734 z M 471.35462,395.4578 q 0,39.28389 24.44331,62.85422 l 150.15175,157.13555 q 65.47315,49.75959 130.94629,0 26.18926,-26.18926 26.18926,-65.47315 0,-37.53793 -26.18926,-65.47314 L 623.25232,331.7306 q -29.68116,-27.06223 -64.60017,-27.06223 -39.28389,0 -63.29071,26.18926 -24.00682,26.18926 -24.00682,64.60017 z m 39.28389,1319.0656 q 0,-58.4893 37.53794,-100.3921 37.53794,-41.9028 95.1543,-47.1407 l 57.61637,-7.8568 q 18.33248,0 18.33248,-20.9514 l 8.72976,-52.3785 q 9.60272,-80.3137 68.09207,-134.4382 58.48934,-54.1244 137.93009,-54.1244 81.18668,0 140.98548,54.1244 59.7988,54.1245 69.4016,134.4382 l 7.8567,60.2353 q 8.7298,20.9514 22.6974,20.9514 h 123.0895 q 60.2353,0 104.3206,43.6488 44.0852,43.6488 44.0852,103.884 0,62.8543 -44.0852,107.376 -44.0853,44.5217 -104.3206,44.5217 H 659.04431 q -62.85422,0 -105.63001,-44.5217 -42.77579,-44.5217 -42.77579,-107.376 z m 412.04433,-595.3691 q 9.60273,-152.77067 117.85166,-256.65473 108.2489,-103.88406 260.1466,-103.88406 155.3896,0 264.5116,110.86787 109.1219,110.86786 109.1219,268.87642 0,97.7732 -47.5772,181.1423 -47.5771,83.3692 -128.7638,134.8747 -82.0597,-68.0921 -189.4357,-68.0921 -41.0298,-122.2165 -143.1679,-194.6734 -102.1381,-72.457 -231.33848,-72.457 z M 1209.8917,304.66837 q 0,38.41091 26.6258,65.03666 26.6257,26.62574 64.1636,26.62574 38.411,0 65.0367,-26.62574 26.6257,-26.62575 26.6257,-65.03666 V 86.424549 q 0,-36.664961 -26.6257,-61.544757 Q 1339.0921,-3.44e-6 1300.6811,-3.44e-6 q -37.5379,0 -64.1636,24.87979544 -26.6258,24.879796 -26.6258,61.544757 z m 588.3854,1417.71183 q 0,37.538 25.3162,65.4732 l 152.7707,151.0247 q 58.4894,59.3623 130.9463,0 24.4433,-23.5703 24.4433,-62.8542 0,-37.538 -24.4433,-61.9813 l -157.1356,-156.2625 q -25.3162,-23.5704 -63.7271,-23.5704 -38.411,0 -63.2908,25.3163 -24.8797,25.3163 -24.8797,62.8542 z m 0,-1174.15173 q 0,39.28389 25.3162,67.2191 25.3163,25.31628 62.8543,25.31628 38.4109,0 63.7271,-25.31628 l 157.1356,-157.13555 q 24.4433,-23.57033 24.4433,-62.85422 0,-38.41091 -26.6257,-64.60017 -26.6258,-26.18926 -65.0367,-26.18926 -36.665,0 -63.7272,27.06223 l -152.7707,152.77068 q -25.3162,25.31628 -25.3162,63.72719 z m 240.9411,590.13133 q 0,37.5379 26.1893,61.9812 26.1892,24.4433 67.2191,24.4433 h 157.1355 q 37.538,0 64.1637,-24.8798 26.6258,-24.8798 26.6258,-61.5447 0,-40.1569 -26.1893,-66.3462 -26.1893,-26.1892 -64.6002,-26.1892 h -157.1355 q -41.0299,0 -67.2191,25.7528 -26.1893,25.7527 -26.1893,66.7826 z"
     id="path1"
     style="stroke-width:1" />
</svg>
