<?xml version="1.0" encoding="UTF-8" standalone="no"?>
<svg
   version="1.1"
   viewBox="-10 0 2340 2048"
   id="svg1"
   sodipodi:docname="weather-storm-symbolic.svg"
   inkscape:version="1.4 (e7c3feb100, 2024-10-09)"
   xmlns:inkscape="http://www.inkscape.org/namespaces/inkscape"
   xmlns:sodipodi="http://sodipodi.sourceforge.net/DTD/sodipodi-0.dtd"
   xmlns="http://www.w3.org/2000/svg"
   xmlns:svg="http://www.w3.org/2000/svg">
  <defs
     id="defs1" />
  <sodipodi:namedview
     id="namedview1"
     pagecolor="#505050"
     bordercolor="#ffffff"
     borderopacity="1"
     inkscape:showpageshadow="0"
     inkscape:pageopacity="0"
     inkscape:pagecheckerboard="1"
     inkscape:deskcolor="#505050"
     inkscape:zoom="0.25195313"
     inkscape:cx="1831.6899"
     inkscape:cy="1055.7519"
     inkscape:current-layer="svg1" />
  <style
     type="text/css"
     id="current-color-scheme">.ColorScheme-Text{color:#dddddd;}.ColorScheme-Background{color:#1a1a1a;}.ColorScheme-Highlight{color:#aaaaac30;}.ColorScheme-ViewText{color:#dddddd;}.ColorScheme-ViewBackground{color:#1a1a1a01;}.ColorScheme-ViewHover{color:#aaaaac30;}.ColorScheme-ViewFocus{color:#aaaaac30;}.ColorScheme-ButtonText{color:#bbbbbb;}.ColorScheme-ButtonBackground{color:#aaaaac20;}.ColorScheme-ButtonHover{color:#aaaaac30;}.ColorScheme-ButtonFocus{color:#aaaaac30;}.ColorScheme-NegativeText { color: #8500ff; } </style>
  <path
     class="ColorScheme-Text"
     fill="currentColor"
     d="m 0,1228 q 0,213 148.5,366 148.5,153 362.5,163 18,0 18,-18 v -146 q 0,-19 -18,-19 Q 372,1563 277,1463.5 182,1364 182,1228 182,1094 272.5,994.5 363,895 496,884 l 56,-8 q 21,0 21,-18 l 8,-55 Q 598,630 727,513.5 856,397 1031,397 q 174,0 304,116 130,116 148,290 l 8,62 q 0,19 19,19 h 172 q 145,0 247.5,101 102.5,101 102.5,243 0,136 -95,235.5 -95,99.5 -234,110.5 -21,0 -21,19 v 146 q 0,18 21,18 213,-7 360.5,-161 147.5,-154 147.5,-368 0,-143 -73,-264 128,-116 165,-275 l 16,-77 q 1,-1 1,-7 0,-12 -17,-17 l -62,-18 q -91,-26 -155,-88 -64,-62 -91,-131.5 -27,-69.5 -27,-140.5 0,-39 10,-84 l 15,-66 q 5,-15 -15,-24 l -84,-26 q -70,-17 -133,-17 -58,0 -119,14 -61,14 -127,43.5 -66,29.5 -128,85 Q 1325,191 1280,266 1167,218 1031,218 805,218 630.5,357.5 456,497 406,715 230,757 115,900.5 0,1044 0,1228 Z m 818,496 q -8,23 15,23 h 230 l -140,442 h 32 l 445,-596 q 6,-7 3,-14.5 -3,-7.5 -14,-7.5 h -235 l 246,-449 q 11,-23 -15,-23 h -314 q -13,0 -23,15 z M 1437,364 q 53,-91 141.5,-139 88.5,-48 183.5,-48 20,0 29,2 v 33 q 0,154 83,291 83,137 231,209 -25,59 -80,114 -147,-126 -343,-126 h -34 Q 1603,500 1437,364 Z"
     id="path1"
     style="display:none" />
  <path
     class="ColorScheme-Text"
     fill="currentColor"
     d="m 55,1047.25 c 0,142 49.5,264 148.5,366 99,102 219.8333,156.3333 362.5,163 12,0 18,-6 18,-18 v -143 c 0,-12 -6,-18 -18,-18 -91.3333,-4.6667 -169,-41 -233,-109 -64,-68 -96,-148.3333 -96,-241 0,-88 30,-164.6667 90,-230 60,-65.3333 134.3333,-103.33333 223,-114 l 57,-3 c 14,0 21,-6.66667 21,-20 l 6,-57 c 11.3333,-115.33333 60.1667,-211.83333 146.5,-289.5 86.3333,-77.66667 187.8333,-116.5 304.5,-116.5 116,0 217.3333,38.83333 304,116.5 86.6667,77.66667 136,174.16667 148,289.5 l 8,62 c 0,12 6.3333,18 19,18 h 172 c 94.6667,0 176.6667,34 246,102 69.3333,68 104,148.6667 104,242 0,92.6667 -32.1667,173 -96.5,241 -64.3333,68 -141.8333,104.3333 -232.5,109 -14,0 -21,6 -21,18 v 143 c 0,12 7,18 21,18 92.6667,-2.6667 178,-28 256,-76 78,-48 139.5,-112.1667 184.5,-192.5 45,-80.3333 67.5,-167.1667 67.5,-260.5 0,-95.3333 -23.6667,-183.1667 -71,-263.5 -47.3333,-80.33333 -111.6667,-143.66667 -193,-190 -81.3333,-46.33333 -169.6667,-69.5 -265,-69.5 h -34 c -34.6667,-142.66667 -109.5,-259.33333 -224.5,-350 -115,-90.66667 -245.8333,-136 -392.5,-136 -150,0 -283.3333,46.5 -400,139.5 -116.6667,93 -191.3333,212.16667 -224,357.5 C 343,562.58333 245.8333,624.08333 169.5,719.75 93.1667,815.4167 55,924.5833 55,1047.25 Z"
     id="path1-3"
     sodipodi:nodetypes="sscsscsssccccsssccssssscsscsssssscssscss" />
  <path
     class="ColorScheme-Text"
     fill="currentColor"
     d="m 872,1544.75 c -5.33333,15.3333 -0.33333,23 15,23 h 230 l -140,442 h 32 l 445,-596 c 4,-4.6667 5,-9.5 3,-14.5 -2,-5 -6.6667,-7.5 -14,-7.5 h -235 l 246,-449 c 7.3333,-15.3333 2.3333,-23 -15,-23 h -314 c -8.6667,0 -16.3333,5 -23,15 z"
     id="path2"
     sodipodi:nodetypes="csccccssccsscc" />
</svg>
