<?xml version="1.0" encoding="UTF-8" standalone="no"?>
<svg
   version="1.1"
   viewBox="-10 0 2287 2048"
   id="svg1"
   sodipodi:docname="weather-clear-symbolic.svg"
   inkscape:version="1.4 (e7c3feb100, 2024-10-09)"
   xmlns:inkscape="http://www.inkscape.org/namespaces/inkscape"
   xmlns:sodipodi="http://sodipodi.sourceforge.net/DTD/sodipodi-0.dtd"
   xmlns="http://www.w3.org/2000/svg"
   xmlns:svg="http://www.w3.org/2000/svg">
  <defs
     id="defs1" />
  <sodipodi:namedview
     id="namedview1"
     pagecolor="#505050"
     bordercolor="#ffffff"
     borderopacity="1"
     inkscape:showpageshadow="0"
     inkscape:pageopacity="0"
     inkscape:pagecheckerboard="1"
     inkscape:deskcolor="#505050"
     inkscape:zoom="0.17815776"
     inkscape:cx="667.94732"
     inkscape:cy="561.30027"
     inkscape:current-layer="svg1" />
  <style
     type="text/css"
     id="current-color-scheme">.ColorScheme-Text{color:#dddddd;}.ColorScheme-Background{color:#1a1a1a;}.ColorScheme-Highlight{color:#aaaaac30;}.ColorScheme-ViewText{color:#dddddd;}.ColorScheme-ViewBackground{color:#1a1a1a01;}.ColorScheme-ViewHover{color:#aaaaac30;}.ColorScheme-ViewFocus{color:#aaaaac30;}.ColorScheme-ButtonText{color:#bbbbbb;}.ColorScheme-ButtonBackground{color:#aaaaac20;}.ColorScheme-ButtonHover{color:#aaaaac30;}.ColorScheme-ButtonFocus{color:#aaaaac30;}.ColorScheme-NegativeText { color: #8500ff; } </style>
  <path
     class="ColorScheme-Text"
     fill="currentColor"
     d="m 0,984 q 0,-39 27,-66 28,-26 64,-26 h 218 q 37,0 61.5,27 24.5,27 24.5,65 0,38 -24.5,64.5 Q 346,1075 309,1075 H 91 Q 54,1075 27,1048 0,1021 0,984 Z m 305,739 q 0,-37 25,-65 l 157,-152 q 24,-25 63,-25 38,0 63.5,24 25.5,24 25.5,61 0,39 -26,68 l -152,152 q -65,51 -131,0 -25,-27 -25,-63 z m 0,-1477 q 0,-37 25,-65 31,-26 68,-26 35,0 63,26 l 152,157 q 26,24 26,63 0,38 -25.5,63.5 Q 588,490 550,490 511,490 487,464 L 330,312 Q 305,285 305,246 Z M 577,984 Q 577,835 652,706.5 727,578 855.5,503 984,428 1133,428 q 112,0 215,44.5 103,44.5 177.5,119 74.5,74.5 118.5,177.5 44,103 44,215 0,150 -74.5,278 -74.5,128 -202.5,202.5 -128,74.5 -278,74.5 -150,0 -278,-74.5 Q 727,1390 652,1262 577,1134 577,984 Z m 181,0 q 0,156 109.5,266.5 Q 977,1361 1133,1361 q 156,0 266.5,-110.5 Q 1510,1140 1510,984 1510,830 1399.5,721 1289,612 1133,612 978,612 868,721 758,830 758,984 Z m 284,829 q 0,-38 26.5,-64 26.5,-26 64.5,-26 39,0 65,26 26,26 26,64 v 212 q 0,39 -26.5,66 -26.5,27 -64.5,27 -38,0 -64.5,-27 -26.5,-27 -26.5,-66 z m 0,-1653 V -58 q 0,-37 27,-64 27,-27 64,-27 37,0 64,27 27,27 27,64 v 218 q 0,37 -26.5,61.5 Q 1171,246 1133,246 1095,246 1068.5,221.5 1042,197 1042,160 Z m 589,1406 q 0,-37 24,-60 24,-25 60,-25 39,0 64,25 l 156,152 q 26,28 26,65 0,37 -26,63 -64,50 -128,0 l -152,-152 q -24,-27 -24,-68 z m 0,-1165 q 0,-40 24,-63 l 152,-157 q 28,-26 63,-26 38,0 64.5,27 26.5,27 26.5,64 0,40 -26,66 l -156,152 q -29,26 -64,26 -36,0 -60,-25.5 -24,-25.5 -24,-63.5 z m 241,583 q 0,-38 26,-66 26,-26 61,-26 h 216 q 37,0 64.5,27.5 27.5,27.5 27.5,64.5 0,37 -27.5,64 -27.5,27 -64.5,27 h -216 q -37,0 -62,-26.5 -25,-26.5 -25,-64.5 z"
     id="path1"
     style="display:none" />
  <path
     class="ColorScheme-Text"
     fill="currentColor"
     d="m 0,984 c 0,-26 9,-48 27,-66 18.666667,-17.33333 40,-26 64,-26 h 218 c 24.66667,0 45.16667,9 61.5,27 16.33333,18 24.5,39.66667 24.5,65 0,25.3333 -8.16667,46.8333 -24.5,64.5 -16.33333,17.6667 -36.83333,26.5 -61.5,26.5 H 91 c -24.666667,0 -46,-9 -64,-27 C 9,1030 0,1008.6667 0,984 Z m 305,739 c 0,-24.6667 8.33333,-46.3333 25,-65 l 157,-152 c 16,-16.6667 37,-25 63,-25 25.33333,0 46.5,8 63.5,24 17,16 25.5,36.3333 25.5,61 0,26 -8.66667,48.6667 -26,68 l -152,152 c -43.33333,34 -87,34 -131,0 -16.66667,-18 -25,-39 -25,-63 z m 0,-1477 c 0,-24.66667 8.33333,-46.33333 25,-65 20.66667,-17.33333 43.33333,-26 68,-26 23.33333,0 44.33333,8.66667 63,26 l 152,157 c 17.33333,16 26,37 26,63 0,25.33333 -8.5,46.5 -25.5,63.5 -17,17 -38.16667,25.5 -63.5,25.5 -26,0 -47,-8.66667 -63,-26 L 330,312 C 313.33333,294 305,272 305,246 Z M 577,984 C 577,884.66667 602,792.16667 652,706.5 702,620.83333 769.83333,553 855.5,503 c 85.66667,-50 178.1667,-75 277.5,-75 74.6667,0 146.3333,14.83333 215,44.5 68.6667,29.66667 127.8333,69.33333 177.5,119 49.6667,49.66667 89.1667,108.83333 118.5,177.5 29.3333,68.66667 44,140.33333 44,215 0,100 -24.8333,192.6667 -74.5,278 -49.6667,85.3333 -117.1667,152.8333 -202.5,202.5 -85.3333,49.6667 -178,74.5 -278,74.5 -100,0 -192.66667,-24.8333 -278,-74.5 C 769.66667,1414.8333 702,1347.3333 652,1262 602,1176.6667 577,1084 577,984 Z m 181,0 c 0,104 36.5,192.8333 109.5,266.5 73,73.6667 161.5,110.5 265.5,110.5 104,0 192.8333,-36.8333 266.5,-110.5 C 1473.1667,1176.8333 1510,1088 1510,984 1510,881.33333 1473.1667,793.66667 1399.5,721 1325.8333,648.33333 1237,612 1133,612 1029.6667,612 941.33333,648.33333 868,721 794.66667,793.66667 758,881.33333 758,984 Z m 284,829 c 0,-25.3333 8.8333,-46.6667 26.5,-64 17.6667,-17.3333 39.1667,-26 64.5,-26 26,0 47.6667,8.6667 65,26 17.3333,17.3333 26,38.6667 26,64 v 212 c 0,26 -8.8333,48 -26.5,66 -17.6667,18 -39.1667,27 -64.5,27 -25.3333,0 -46.8333,-9 -64.5,-27 -17.6667,-18 -26.5,-40 -26.5,-66 z m 0,-1701.5 v -218 c 0,-24.66667 9,-46 27,-64 18,-18 39.3333,-27 64,-27 24.6667,0 46,9 64,27 18,18 27,39.33333 27,64 v 218 c 0,24.66667 -8.8333,45.16667 -26.5,61.5 -17.6667,16.33333 -39.1667,24.5 -64.5,24.5 -25.3333,0 -46.8333,-8.16667 -64.5,-24.5 -17.6667,-16.33333 -26.5,-36.83333 -26.5,-61.5 z M 1631,1566 c 0,-24.6667 8,-44.6667 24,-60 16,-16.6667 36,-25 60,-25 26,0 47.3333,8.3333 64,25 l 156,152 c 17.3333,18.6667 26,40.3333 26,65 0,24.6667 -8.6667,45.6667 -26,63 -42.6667,33.3333 -85.3333,33.3333 -128,0 l -152,-152 c -16,-18 -24,-40.6667 -24,-68 z m 0,-1165 c 0,-26.66667 8,-47.66667 24,-63 l 152,-157 c 18.6667,-17.33333 39.6667,-26 63,-26 25.3333,0 46.8333,9 64.5,27 17.6667,18 26.5,39.33333 26.5,64 0,26.66667 -8.6667,48.66667 -26,66 l -156,152 c -19.3333,17.33333 -40.6667,26 -64,26 -24,0 -44,-8.5 -60,-25.5 -16,-17 -24,-38.16667 -24,-63.5 z m 241,583 c 0,-25.33333 8.6667,-47.33333 26,-66 17.3333,-17.33333 37.6667,-26 61,-26 h 216 c 24.6667,0 46.1667,9.16667 64.5,27.5 18.3333,18.33333 27.5,39.83333 27.5,64.5 0,24.6667 -9.1667,46 -27.5,64 -18.3333,18 -39.8333,27 -64.5,27 h -216 c -24.6667,0 -45.3333,-8.8333 -62,-26.5 -16.6667,-17.6667 -25,-39.1667 -25,-64.5 z"
     id="path2"
     sodipodi:nodetypes="scssssssssssccssscccsscsccsssccssssssssssssssssssssssssssssssssssssssssssssssscsccscccssccsssccsssscsssssssss"
     style="display:none" />
  <path
     class="ColorScheme-Text"
     fill="currentColor"
     d="m 23.9484,1178.0801 c 0,25.0253 8.729755,45.6857 26.18929,61.9812 17.45946,16.2955 39.86583,24.4433 67.2191,24.4433 h 157.1355 c 25.02527,0 46.41317,-8.2933 64.1637,-24.8798 17.75047,-16.5865 26.6257,-37.1014 26.6257,-61.5447 0,-26.7713 -8.72973,-48.8867 -26.1892,-66.3462 -17.45953,-17.4595 -38.99293,-26.1892 -64.6002,-26.1892 h -157.1355 c -27.35327,0 -49.75964,8.5843 -67.2191,25.7528 -17.459535,17.1685 -26.18929,39.4293 -26.18929,66.7826 z m 1445.6471,461.8039 c 77.4038,-49.4686 138.6576,-115.3782 183.7613,-197.7289 45.1037,-82.3507 67.6555,-170.3757 67.6555,-264.075 0,-75.6579 -14.8406,-147.9692 -44.5217,-216.9343 -29.6811,-68.965 -69.4015,-128.3273 -119.1611,-178.0869 -49.7596,-49.7596 -109.1219,-89.48 -178.087,-119.1611 -68.965,-29.6812 -140.9855,-44.5218 -216.0614,-44.5218 -101.8471,0 -195.6919,25.0253 -281.5345,75.0759 -85.8425,50.0506 -153.3526,117.8517 -202.5302,203.4032 -49.1777,85.5516 -73.7665,178.9598 -73.7665,280.225 v 31.4271 c -93.1173,52.9605 1248.3963,1373.2937 864.2456,430.3768 z M 333.85459,435.1782 c 0,26.1893 8.14777,47.1407 24.4433,62.8543 L 508.4497,655.168 c 43.6487,33.1731 87.2975,33.1731 130.9463,0 17.4595,-17.4595 26.1892,-39.2839 26.1892,-65.4731 0,-25.0253 -8.7297,-46.8497 -26.1892,-65.4732 L 485.7523,371.451 c -19.7874,-18.0414 -41.3208,-27.0622 -64.6001,-27.0622 -26.18928,0 -47.28621,8.7298 -63.29081,26.1893 -16.00453,17.4595 -24.0068,38.9929 -24.0068,64.6001 z M 658.6014,1391.086 c 0,0 84.9696,-54.1244 137.9301,-54.1244 54.1245,0 101.1196,18.0415 140.9855,54.1244 39.8659,36.083 62.9997,80.8957 69.4016,134.4382 l 7.8567,60.2353 c 5.8199,13.9676 22.6974,20.9514 22.6974,20.9514 h 123.0895 c 40.1569,0 74.9304,14.5496 104.3206,43.6488 339.7491,336.3859 -606.2814,-259.2737 -606.2814,-259.2737 z m 126.5814,-232.2114 c 6.4019,-101.847 45.6858,-187.3985 117.8517,-256.6546 72.1659,-69.256 158.8815,-103.884 260.1466,-103.884 103.5931,0 191.7636,36.9559 264.5116,110.8678 72.7479,73.9119 109.1219,163.5373 109.1219,268.8763 0,65.1821 -15.8591,125.5629 -47.5772,181.1423 -31.7181,55.5795 -74.6393,100.5377 -128.7638,134.8747 -54.7065,-45.3947 -117.8517,-68.0921 -189.4357,-68.0921 -27.3532,-81.4777 -75.0758,-146.3688 -143.1679,-194.6734 -68.0921,-48.3047 -145.20489,-72.457 -231.33849,-72.457 z m 287.2089,-814.4858 c 0,25.6073 8.8753,47.2862 26.6258,65.0367 17.7505,17.7505 39.1383,26.6257 64.1636,26.6257 25.6073,0 47.2862,-8.8752 65.0367,-26.6257 17.7505,-17.7505 26.6257,-39.4294 26.6257,-65.0367 V 126.145 c 0,-24.4433 -8.8752,-44.958198 -26.6257,-61.544798 -17.7505,-16.5865 -39.4294,-24.8798 -65.0367,-24.8798 -25.0253,0 -46.4131,8.2933 -64.1636,24.8798 -17.7505,16.5866 -26.6258,37.101498 -26.6258,61.544798 z m 588.3854,1417.7117 c 0,25.0253 8.4387,46.8497 25.3162,65.4732 l 152.7707,151.0247 c 38.9929,39.5749 82.6417,39.5749 130.9463,0 16.2955,-15.7135 24.4433,-36.6649 24.4433,-62.8542 0,-25.0253 -8.1478,-45.6858 -24.4433,-61.9813 l -157.1356,-156.2625 c -16.8775,-15.7136 -38.1198,-23.5704 -63.7271,-23.5704 -25.6073,0 -46.7043,8.4388 -63.2908,25.3163 -16.5865,16.8775 -24.8797,37.8289 -24.8797,62.8542 z m 0,-1174.1516 c 0,26.1893 8.4387,48.5956 25.3162,67.2191 16.8775,16.8775 37.829,25.3163 62.8543,25.3163 25.6073,0 46.8496,-8.4388 63.7271,-25.3163 l 157.1356,-157.1355 c 16.2955,-15.7136 24.4433,-36.665 24.4433,-62.8543 0,-25.6072 -8.8752,-47.1406 -26.6257,-64.6001 -17.7505,-17.4595 -39.4294,-26.1893 -65.0367,-26.1893 -24.4433,0 -45.6857,9.0208 -63.7272,27.0622 l -152.7707,152.7707 c -16.8775,16.8775 -25.3162,38.1199 -25.3162,63.7272 z m 240.9411,590.1312 c 0,25.0253 8.7298,45.6857 26.1893,61.9812 17.4595,16.2955 39.8658,24.4433 67.2191,24.4433 h 157.1355 c 25.0253,0 46.4132,-8.2933 64.1637,-24.8798 17.7505,-16.5865 26.6258,-37.1014 26.6258,-61.5447 0,-26.7713 -8.7298,-48.8867 -26.1893,-66.3462 -17.4595,-17.4595 -38.9929,-26.1892 -64.6002,-26.1892 h -157.1355 c -27.3533,0 -49.7596,8.5843 -67.2191,25.7528 -17.4595,17.1685 -26.1893,39.4293 -26.1893,66.7826 z"
     id="path1-6"
     style="display:none;fill:#ffffff;fill-opacity:1;stroke-width:1"
     sodipodi:nodetypes="ssssssssssscsssssssssccscccsccssscsscccscccsssssccsscsssssssssssscccsccsssscsscsssssssssssssssss" />
  <path
     class="ColorScheme-Text"
     fill="currentColor"
     d="m 0,1047.75 c 0,-26 9,-48 27,-66 18.666667,-17.33333 40,-26 64,-26 h 218 c 24.66667,0 45.16667,9 61.5,27 16.33333,18 24.5,39.6667 24.5,65 0,25.3333 -8.16667,46.8333 -24.5,64.5 -16.33333,17.6667 -36.83333,26.5 -61.5,26.5 H 91 c -24.666667,0 -46,-9 -64,-27 -18,-18 -27,-39.3333 -27,-64 z m 305,739 c 0,-24.6667 8.33333,-46.3333 25,-65 l 157,-152 c 16,-16.6667 37,-25 63,-25 25.33333,0 46.5,8 63.5,24 17,16 25.5,36.3333 25.5,61 0,26 -8.66667,48.6667 -26,68 l -152,152 c -43.33333,34 -87,34 -131,0 -16.66667,-18 -25,-39 -25,-63 z m 0,-1477 c 0,-24.66667 8.33333,-46.33333 25,-65 20.66667,-17.33333 43.33333,-26 68,-26 23.33333,0 44.33333,8.66667 63,26 l 152,157 c 17.33333,16 26,37 26,63 0,25.33333 -8.5,46.5 -25.5,63.5 -17,17 -38.16667,25.5 -63.5,25.5 -26,0 -47,-8.66667 -63,-26 l -157,-152 c -16.66667,-18 -25,-40 -25,-66 z m 272,738 c 0,-99.33333 25,-191.83333 75,-277.5 50,-85.66667 117.83333,-153.5 203.5,-203.5 85.66667,-50 178.1667,-75 277.5,-75 74.6667,0 146.3333,14.83333 215,44.5 68.6667,29.66667 127.8333,69.33333 177.5,119 49.6667,49.66667 89.1667,108.83333 118.5,177.5 29.3333,68.66667 44,140.33333 44,215 0,100 -24.8333,192.6667 -74.5,278 -49.6667,85.3333 -117.1667,152.8333 -202.5,202.5 -85.3333,49.6667 -178,74.5 -278,74.5 -100,0 -192.66667,-24.8333 -278,-74.5 -85.33333,-49.6667 -153,-117.1667 -203,-202.5 -50,-85.3333 -75,-178 -75,-278 z m 181,0 c 0,104 36.5,192.8333 109.5,266.5 73,73.6667 161.5,110.5 265.5,110.5 104,0 192.8333,-36.8333 266.5,-110.5 73.6667,-73.6667 110.5,-162.5 110.5,-266.5 0,-102.66667 -36.8333,-190.33333 -110.5,-263 -73.6667,-72.66667 -162.5,-109 -266.5,-109 -103.3333,0 -191.66667,36.33333 -265,109 -73.33333,72.66667 -110,160.33333 -110,263 z m 284,829 c 0,-25.3333 8.8333,-46.6667 26.5,-64 17.6667,-17.3333 39.1667,-26 64.5,-26 26,0 47.6667,8.6667 65,26 17.3333,17.3333 26,38.6667 26,64 v 212 c 0,26 -8.8333,48 -26.5,66 -17.6667,18 -39.1667,27 -64.5,27 -25.3333,0 -46.8333,-9 -64.5,-27 -17.6667,-18 -26.5,-40 -26.5,-66 z m 0,-1701.5 v -218 c 0,-24.66667 9,-46 27,-64 18,-18 39.3333,-27 64,-27 24.6667,0 46,9 64,27 18,18 27,39.33333 27,64 v 218 c 0,24.66667 -8.8333,45.16667 -26.5,61.5 -17.6667,16.33333 -39.1667,24.5 -64.5,24.5 -25.3333,0 -46.8333,-8.16667 -64.5,-24.5 -17.6667,-16.33333 -26.5,-36.83333 -26.5,-61.5 z m 589,1454.5 c 0,-24.6667 8,-44.6667 24,-60 16,-16.6667 36,-25 60,-25 26,0 47.3333,8.3333 64,25 l 156,152 c 17.3333,18.6667 26,40.3333 26,65 0,24.6667 -8.6667,45.6667 -26,63 -42.6667,33.3333 -85.3333,33.3333 -128,0 l -152,-152 c -16,-18 -24,-40.6667 -24,-68 z m 0,-1165 c 0,-26.66667 8,-47.66667 24,-63 l 152,-157 c 18.6667,-17.33333 39.6667,-26 63,-26 25.3333,0 46.8333,9 64.5,27 17.6667,18 26.5,39.33333 26.5,64 0,26.66667 -8.6667,48.66667 -26,66 l -156,152 c -19.3333,17.33333 -40.6667,26 -64,26 -24,0 -44,-8.5 -60,-25.5 -16,-17 -24,-38.16667 -24,-63.5 z m 241,583 c 0,-25.3333 8.6667,-47.3333 26,-66 17.3333,-17.33333 37.6667,-26 61,-26 h 216 c 24.6667,0 46.1667,9.16667 64.5,27.5 18.3333,18.3333 27.5,39.8333 27.5,64.5 0,24.6667 -9.1667,46 -27.5,64 -18.3333,18 -39.8333,27 -64.5,27 h -216 c -24.6667,0 -45.3333,-8.8333 -62,-26.5 -16.6667,-17.6667 -25,-39.1667 -25,-64.5 z"
     id="path3"
     sodipodi:nodetypes="scssssssssssccssscccsscsccsssccssssssssssssssssssssssssssssssssssssssssssssssscsccscccssccsssccsssscsssssssss"
     style="display:none" />
  <path
     class="ColorScheme-Text"
     fill="currentColor"
     id="path4"
     style="stroke-width:0.999995"
     d="m 1132.5563,556.01438 c -50.6553,0.0982 -101.3627,8.25264 -149.25614,24.84392 -44.59882,15.42095 -86.70548,37.80645 -124.86129,65.53179 -29.22821,21.26843 -55.99925,45.92003 -79.50899,73.38143 -18.86261,22.03115 -35.65513,45.82309 -50.26931,70.87045 -15.21863,26.16955 -28.11247,53.72201 -38.01341,82.34095 -11.80207,33.99642 -19.53393,69.40884 -22.9153,105.23874 -3.98463,41.41024 -2.61145,83.34024 4.13398,124.39214 7.2122,43.316 20.75176,85.5802 40.16404,124.9732 19.43593,39.5776 44.25984,76.5198 73.69262,109.3549 27.32024,30.4079 58.72275,57.1197 93.01014,79.3671 37.95995,24.7114 79.38416,44.2202 122.86856,56.985 31.743,9.3604 64.5148,15.1672 97.5248,17.4607 36.6733,2.6005 73.6486,1.1019 109.9717,-4.5986 43.6944,-6.9175 86.3772,-20.2394 126.1967,-39.5218 36.9903,-17.8483 71.7171,-40.4089 102.9774,-67.0533 33.9535,-28.9957 63.6016,-62.9977 87.8441,-100.4869 25.696,-39.5383 45.7091,-82.8509 58.3768,-128.3008 9.1332,-32.5716 14.5062,-66.1708 16.288,-99.9448 2.4163,-44.5686 -1.3085,-89.52088 -11.68,-132.95419 -6.9536,-29.33073 -16.8901,-57.9386 -29.399,-85.3599 -16.9823,-37.47593 -38.4676,-72.98202 -64.4992,-104.87617 -20.7318,-25.47009 -44.2673,-48.65311 -70.0469,-68.99933 -30.5135,-24.13006 -64.0978,-44.29738 -99.4661,-60.45922 -31.4335,-14.42015 -64.4114,-25.56039 -98.2859,-32.59783 -31.1616,-6.52116 -63.012,-9.70467 -94.8473,-9.58748 z m 1.3555,185.03907 c 8.52,0.0472 17.1242,0.32244 25.5664,1.00195 6.9204,0.54305 13.7479,1.30599 20.6231,2.31836 12.2399,1.80769 24.5029,4.42133 36.4494,7.84458 1.6692,0.49561 3.2847,0.94958 4.8863,1.45322 21.561,6.58499 42.25,15.97138 61.4731,27.74212 15.2014,9.28959 29.4647,20.0773 42.7322,31.95813 12.0672,10.82267 23.4653,22.64917 33.8194,35.2065 12.5261,15.21894 23.5072,31.7255 32.5204,49.26029 0.5073,1.0177 1.1187,2.19301 1.6292,3.23509 4.6631,9.38214 8.7485,19.14365 12.2165,28.97195 2.5169,7.1617 4.7244,14.44913 6.6055,21.75585 2.5124,9.76443 4.5035,19.79655 5.9043,29.77276 1.4332,10.15503 2.3105,20.23475 2.7095,30.47815 0.3953,10.1615 0.3064,20.4632 -0.2611,30.5896 -0.2233,4.0501 -0.5371,8.2432 -0.9281,12.2836 -1.7288,18.1031 -5.1409,36.2438 -10.3465,53.749 -5.2009,17.4633 -12.2392,34.5302 -20.9594,50.606 -1.9276,3.5738 -3.9267,7.0718 -6.033,10.5884 -3.1334,5.2173 -6.5268,10.4801 -9.9986,15.4738 -15.395,22.1221 -33.8367,42.0655 -54.2746,59.6091 -17.6569,15.0763 -37.0614,28.1485 -57.875,38.4629 -7.1425,3.54 -14.7557,6.8972 -22.2574,9.7879 -8.7083,3.3754 -17.6441,6.2662 -26.6124,8.688 -11.8956,3.2087 -24.0083,5.5966 -36.2201,7.2233 -6.053,0.7996 -12.3002,1.4398 -18.457,1.8731 -4.0327,0.2815 -8.0785,0.4889 -12.1621,0.623 -8.0051,0.2509 -16.2375,0.223 -24.2485,-0.1016 -10.0513,-0.4069 -19.9587,-1.2865 -29.8999,-2.6699 -13.9719,-1.9403 -27.9278,-4.9596 -41.4811,-9.0593 -5.7677,-1.7415 -11.7201,-3.7582 -17.3468,-5.8914 -27.2973,-10.2815 -52.71899,-25.3206 -75.28916,-43.761 -11.02294,-8.9761 -21.55012,-18.893 -31.27319,-29.2681 -10.51065,-11.2312 -20.23067,-23.211 -28.93987,-35.8932 -15.00954,-21.8872 -26.93433,-46.0736 -34.89303,-71.455 -1.81958,-5.7716 -3.46789,-11.7283 -4.88822,-17.5294 -1.90929,-7.8765 -3.51056,-15.9954 -4.74012,-24.0427 -1.51658,-9.868 -2.5064,-19.8146 -3.04699,-29.7249 -0.4455,-8.2383 -0.56545,-16.4885 -0.39449,-24.7654 0.42581,-20.29262 2.80082,-40.6763 7.47036,-60.52879 1.81949,-7.74749 4.05203,-15.65554 6.61635,-23.30479 4.46861,-13.38057 10.11285,-26.59435 16.75083,-39.13759 3.0454,-5.78017 6.32797,-11.43376 9.78938,-16.97436 8.55142,-13.6196 18.40712,-26.63268 29.16211,-38.6836 13.95911,-15.65266 29.39042,-30.01167 46.15429,-42.62304 6.52005,-4.89806 13.37323,-9.61681 20.34484,-13.9647 6.67416,-4.16174 13.64391,-8.11109 20.71701,-11.6909 3.5934,-1.82577 7.4114,-3.65652 11.1639,-5.34182 3.8281,-1.72778 7.5796,-3.29999 11.5025,-4.85465 15.6953,-6.18862 31.9861,-10.84427 48.555,-14.01122 2.5332,-0.4847 5.2552,-0.9678 7.8133,-1.37809 9.4036,-1.5335 18.9409,-2.56844 28.3926,-3.19915 3.978,-0.25901 7.9681,-0.43811 11.8961,-0.54235 3.1201,-0.0947 6.2415,-0.13399 9.3628,-0.1597 z" />
  <path
     class="ColorScheme-Text"
     fill="currentColor"
     id="path5"
     style="display:inline;stroke-width:0.999998"
     d="m 1132.0768,0.00375842 c -19.9163,0.04982244 -39.8337,6.57789838 -55.6834,18.69047858 -13.1403,9.865811 -24.1091,22.750752 -31.2317,37.592772 -6.1817,13.043835 -9.151,27.545609 -8.87,41.96365 -0.043,32.928961 -0.01,65.858021 -0.017,98.787021 0.01,31.07511 0.01,62.15091 0.083,93.22555 0.5864,17.75146 6.3364,35.47086 17.1283,49.66205 13.2776,17.73267 32.8083,30.75539 54.3933,35.85942 14.8566,3.55897 30.4597,3.81059 45.4701,1.05302 13.2597,-2.48866 26.0277,-7.72571 37.0609,-15.51434 14.9205,-10.35775 27.1181,-24.94733 33.5932,-42.00143 4.1644,-10.95844 5.9656,-22.73204 5.8391,-34.43165 -0.015,-52.99275 0.016,-105.98567 -0.037,-158.97847 -0.027,-11.08476 0,-22.17062 -0.059,-33.254686 -0.6689,-19.727816 -7.7937,-39.212625 -20.1919,-54.593192 -9.3154,-11.76856 -21.0695,-21.690864 -34.4977,-28.4497845 -13.2825,-6.5909719 -28.1661,-9.84393417 -42.981,-9.61040908 z M 491.97027,306.40056 c -21.26459,0.36454 -42.2438,7.62805 -59.49198,20.00532 -4.9513,3.47621 -9.84603,7.19627 -13.59969,11.99496 -11.86166,14.37277 -19.92473,32.00979 -22.24258,50.55109 -2.27842,17.19336 -0.53989,34.97255 5.4394,51.27651 5.36146,14.37137 14.22275,27.40018 25.55704,37.72846 43.75025,42.35771 87.53274,84.68242 131.22195,127.10298 3.95436,3.99859 8.05642,7.88275 12.65821,11.13503 12.15669,8.82753 26.66948,14.30386 41.5933,15.92519 13.55744,1.62837 27.44987,0.7796 40.64137,-2.79542 14.75989,-4.10102 28.40298,-12.06085 39.31353,-22.80662 12.47768,-12.08219 21.65134,-27.67551 25.55953,-44.63942 3.48748,-14.76058 3.57027,-30.26288 0.67237,-45.12963 -3.10909,-15.35857 -10.30129,-29.95952 -21.05307,-41.4098 -3.76714,-4.03978 -7.7625,-7.859 -11.55792,-11.87227 -34.44671,-35.51207 -68.83124,-71.0844 -103.26945,-106.60473 -7.67754,-7.9084 -15.33655,-15.83658 -23.03611,-23.7225 -12.43808,-11.43221 -27.54039,-20.23454 -44.05167,-24.14843 -7.95967,-1.92356 -16.17157,-2.73761 -24.35423,-2.59072 z m 1279.13453,0.0172 c -19.123,0.41168 -37.9767,7.04163 -53.3746,18.3426 -6.9926,4.98483 -13.1493,11.02209 -18.9858,17.29293 -42.5875,43.98543 -85.188,87.95868 -127.7692,131.95001 -11.9087,12.83795 -19.2421,29.60007 -21.5173,46.8977 -2.0329,14.05179 -1.5317,28.4949 1.6778,42.33358 3.6508,15.14719 11.1481,29.36849 21.7173,40.83007 11.111,12.25653 25.6268,21.58893 41.6991,25.7493 18.8595,5.01621 39.2545,3.95078 57.5426,-2.82082 14.1149,-5.2535 26.8398,-13.86154 37.5868,-24.35488 5.4778,-5.36704 10.9632,-10.72656 16.4631,-16.07136 39.4772,-38.47394 78.983,-76.91957 118.3927,-115.46229 13.7916,-14.41019 22.6276,-33.41471 24.9359,-53.21479 1.8967,-14.56175 1.0418,-29.58845 -3.3158,-43.65254 -4.3057,-13.81357 -11.9406,-26.52061 -21.8618,-37.03079 -11.2307,-12.10322 -25.4366,-21.62602 -41.2793,-26.47955 -10.2943,-3.23951 -21.1374,-4.55783 -31.9115,-4.30917 z m 265.9475,640.55766 c -63.2622,0.0131 -126.5248,-0.0306 -189.7866,0.0847 -18.7346,0.60742 -37.2015,7.37113 -51.9104,18.98747 -16.1131,12.45413 -27.927,30.22321 -33.6542,49.72991 -3.9835,13.7504 -4.8737,28.3229 -3.1537,42.51 1.6146,12.9346 5.7073,25.6031 12.3782,36.8262 8.8033,14.9647 21.6025,27.6495 36.91,35.9027 10.2665,5.5216 21.6751,8.819 33.2703,9.8969 5.9415,0.5981 11.9197,0.5634 17.8838,0.5009 61.1617,0 122.3241,0.044 183.4855,-0.068 19.9778,-0.6006 39.7213,-7.7677 55.3401,-20.2574 11.915,-9.3045 22.0199,-21.0558 28.89,-34.5549 6.5116,-12.9662 9.7889,-27.4959 9.7006,-41.9937 0.027,-17.5083 -4.7526,-35.0917 -14.1849,-49.88816 -8.1049,-12.90768 -19.1058,-23.93341 -31.7636,-32.38998 -12.5255,-8.25164 -27.0711,-13.44581 -42.0197,-14.80302 -3.7827,-0.37072 -7.5852,-0.51602 -11.3854,-0.48244 z m -1717.53005,0.0115 c -31.93832,0.0146 -63.87731,0.007 -95.81521,0.0645 -19.47441,0.58837 -38.65866,7.43707 -54.22874,19.12398 -16.00527,11.66362 -28.20642,28.47511 -34.2164,47.3545 -3.61969,11.2517 -5.00583,23.1605 -4.60178,34.9529 0.48006,13.0389 3.52135,26.0325 9.34222,37.7364 6.118,12.5251 15.13978,23.5038 25.71351,32.5321 10.52642,8.9499 22.92136,15.8027 36.30221,19.3671 9.19566,2.5223 18.77113,3.4836 28.29072,3.2898 61.60374,0 123.20754,0.047 184.8112,-0.054 3.95399,0.023 7.91426,0.01 11.84933,-0.4268 15.94238,-1.5884 31.55977,-7.3991 44.2466,-17.2609 17.54284,-13.3912 30.36247,-32.9418 35.29481,-54.4831 3.36939,-14.4454 3.61186,-29.5767 1.03884,-44.1697 -2.48475,-13.7886 -7.89831,-27.07146 -15.99996,-38.51917 -10.43446,-15.0175 -25.0759,-27.39605 -42.30306,-33.82545 -10.4977,-3.95541 -21.74518,-5.73993 -32.94496,-5.68864 -32.25977,-0.002 -64.51956,0.006 -96.77933,0.008 z m 304.50237,511.97158 c -15.86137,0.267 -31.84723,3.939 -45.68034,11.8553 -8.49447,4.7634 -15.83122,11.2945 -22.60004,18.2351 -44.65097,43.2332 -89.30304,86.4664 -133.92401,129.73 -12.95261,14.432 -22.01677,32.5295 -24.86485,51.7751 -2.89642,18.5147 -0.93706,37.9401 6.62132,55.1609 4.76314,10.7888 11.39491,20.8045 19.7662,29.1322 4.06122,3.5153 8.58359,6.4444 13.07228,9.3743 14.10588,8.8826 30.03894,15.2763 46.7176,16.8998 16.6192,1.6532 33.61602,-1.375 48.77309,-8.3415 10.35129,-4.6487 20.04385,-10.743 28.81414,-17.9337 5.33033,-5.0101 10.35602,-10.3316 15.58237,-15.4484 39.43422,-39.4492 78.89072,-78.8758 118.28494,-118.3634 13.53845,-15.1179 22.83836,-34.1768 25.57688,-54.3422 2.28661,-15.731 1.37844,-32.0801 -3.76142,-47.1851 -4.5403,-13.2093 -12.42784,-25.2181 -22.62579,-34.7504 -13.11456,-12.469 -29.93775,-21.0101 -47.77994,-24.093 -7.24291,-1.3088 -14.61646,-1.8262 -21.97243,-1.705 z m 1012.83378,0 c -18.1471,0.2779 -36.4075,5.8081 -50.9872,16.7678 -7.9508,5.9137 -15.0324,12.9901 -21.0264,20.8764 -9.5986,13.0421 -15.1308,28.9199 -16.2163,45.0462 -1.034,12.9354 0.08,26.0358 3.1856,38.6318 4.3157,16.7623 12.889,32.5567 25.3095,44.6926 43.3596,43.3602 86.7191,86.7205 130.0787,130.0809 12.1306,9.5084 25.6556,17.5163 40.4691,22.0127 20.0221,6.2701 42.1909,5.1808 61.5814,-2.7819 11.8942,-4.724 22.935,-11.4859 32.8256,-19.5827 6.0137,-5.6705 11.092,-12.2853 15.3937,-19.3279 7.6594,-12.772 12.0208,-27.4601 12.7847,-42.3225 1.1414,-18.7462 -2.9198,-37.8869 -12.2069,-54.2617 -5.5042,-9.8397 -12.7249,-18.6658 -20.9956,-26.308 -44.5431,-43.345 -89.017,-86.7616 -133.61,-130.0551 -14.3089,-13.0175 -32.9877,-20.9453 -52.1966,-22.8179 -4.7759,-0.5267 -9.5862,-0.6938 -14.3893,-0.6507 z m -505.3708,210.3446 c -16.6959,0.149 -33.4323,4.4599 -47.8454,12.9604 -12.6858,7.5809 -23.7397,17.9422 -31.9479,30.2444 -6.9233,10.3242 -11.6267,22.1039 -13.8053,34.3378 -1.2765,6.8729 -1.7182,13.8784 -1.603,20.8621 -0.034,45.3756 -0.01,90.7511 0,136.1269 0.013,16.6426 0.014,33.2858 0.072,49.9276 0.6236,18.7558 6.4512,37.4707 17.4301,52.7678 10.9256,15.4735 26.1729,28.058 43.86,35.0042 16.0607,6.2639 33.7861,7.8433 50.7927,5.3142 13.3744,-2.0172 26.3543,-6.8915 37.552,-14.5134 12.708,-8.5447 23.4283,-20.0272 31.1191,-33.267 7.3662,-12.7923 11.5715,-27.333 12.4611,-42.053 0.4863,-7.936 0.1877,-15.8904 0.2613,-23.8352 -4e-4,-57.2897 0.042,-114.5799 -0.067,-171.8694 -0.5522,-18.4434 -6.3061,-36.8651 -17.1983,-51.8392 -11.6244,-16.2959 -28.3347,-29.1016 -47.4424,-35.2711 -10.825,-3.5509 -22.266,-5.0599 -33.6406,-4.897 z" />
</svg>
