<?xml version="1.0" encoding="UTF-8" standalone="no"?>
<svg
   width="24"
   height="24"
   viewBox="0 0 24 24"
   fill="none"
   version="1.1"
   id="svg8"
   sodipodi:docname="drive-harddisk-usb-symbolic.svg"
   inkscape:version="1.3.2 (091e20ef0f, 2023-11-25, custom)"
   xmlns:inkscape="http://www.inkscape.org/namespaces/inkscape"
   xmlns:sodipodi="http://sodipodi.sourceforge.net/DTD/sodipodi-0.dtd"
   xmlns="http://www.w3.org/2000/svg"
   xmlns:svg="http://www.w3.org/2000/svg">
  <sodipodi:namedview
     id="namedview8"
     pagecolor="#ffffff"
     bordercolor="#666666"
     borderopacity="1.0"
     inkscape:showpageshadow="2"
     inkscape:pageopacity="0.0"
     inkscape:pagecheckerboard="0"
     inkscape:deskcolor="#d1d1d1"
     inkscape:zoom="32.166667"
     inkscape:cx="11.984456"
     inkscape:cy="12"
     inkscape:current-layer="svg8" />
  <path
     d="M10 5C10 4.72386 10.2239 4.5 10.5 4.5V4.5C10.7761 4.5 11 4.72386 11 5V6C11 6.27614 10.7761 6.5 10.5 6.5V6.5C10.2239 6.5 10 6.27614 10 6V5Z"
     id="path1"
     style="fill:url(#paint0_linear)" />
  <path
     d="M14 5C14 4.72386 13.7761 4.5 13.5 4.5V4.5C13.2239 4.5 13 4.72386 13 5V6C13 6.27614 13.2239 6.5 13.5 6.5V6.5C13.7761 6.5 14 6.27614 14 6V5Z"
     id="path2"
     style="fill:url(#paint1_linear)" />
  <path
     fill-rule="evenodd"
     clip-rule="evenodd"
     d="M6 8.5C6.55228 8.5 7 8.05228 7 7.5V2.5C7 1.94772 7.44772 1.5 8 1.5H16C16.5523 1.5 17 1.94772 17 2.5V7.5C17 8.05228 17.4477 8.5 18 8.5V8.5C18.5523 8.5 19 8.94772 19 9.5V19.5C19 20.2956 18.6839 21.0587 18.1213 21.6213C17.5587 22.1839 16.7956 22.5 16 22.5H8C7.20435 22.5 6.44129 22.1839 5.87868 21.6213C5.31607 21.0587 5 20.2956 5 19.5V9.5C5 8.94771 5.44772 8.5 6 8.5V8.5ZM9 4.5C9 3.94772 9.44772 3.5 10 3.5H14C14.5523 3.5 15 3.94772 15 4.5V7.5C15 8.05228 14.5523 8.5 14 8.5H10C9.44772 8.5 9 8.05228 9 7.5V4.5ZM17 11.5C17 10.9477 16.5523 10.5 16 10.5H8C7.44772 10.5 7 10.9477 7 11.5V19.5C7 19.7652 7.10536 20.0196 7.29289 20.2071C7.48043 20.3946 7.73478 20.5 8 20.5H16C16.2652 20.5 16.5196 20.3946 16.7071 20.2071C16.8946 20.0196 17 19.7652 17 19.5V11.5Z"
     id="path3"
     style="fill:url(#paint2_linear)" />
  <defs
     id="defs8">
    <linearGradient
       id="paint0_linear"
       x1="8"
       y1="22.5"
       x2="19"
       y2="12"
       gradientUnits="userSpaceOnUse">
      <stop
         id="stop3"
         offset="0"
         style="stop-color:#00f1fa;stop-opacity:1;" />
      <stop
         offset="1"
         id="stop4"
         style="stop-color:#006cff;stop-opacity:1;" />
    </linearGradient>
    <linearGradient
       id="paint1_linear"
       x1="8"
       y1="22.5"
       x2="19"
       y2="12"
       gradientUnits="userSpaceOnUse">
      <stop
         id="stop5"
         offset="0"
         style="stop-color:#00f1fa;stop-opacity:1;" />
      <stop
         offset="1"
         id="stop6"
         style="stop-color:#006cff;stop-opacity:1;" />
    </linearGradient>
    <linearGradient
       id="paint2_linear"
       x1="8"
       y1="22.5"
       x2="19"
       y2="12"
       gradientUnits="userSpaceOnUse">
      <stop
         id="stop7"
         offset="0"
         style="stop-color:#00f1fa;stop-opacity:1;" />
      <stop
         offset="1"
         id="stop8"
         style="stop-color:#006cff;stop-opacity:1;" />
    </linearGradient>
  </defs>
</svg>
