<?xml version="1.0" encoding="UTF-8" standalone="no"?>
<svg
   id="Capa_1"
   enable-background="new 0 0 512 512"
   height="512"
   viewBox="0 0 512 512"
   width="512"
   version="1.1"
   sodipodi:docname="audio-input-microphone.svg"
   inkscape:version="1.3.2 (091e20ef0f, 2023-11-25, custom)"
   xmlns:inkscape="http://www.inkscape.org/namespaces/inkscape"
   xmlns:sodipodi="http://sodipodi.sourceforge.net/DTD/sodipodi-0.dtd"
   xmlns="http://www.w3.org/2000/svg"
   xmlns:svg="http://www.w3.org/2000/svg">
  <defs
     id="defs3" />
  <sodipodi:namedview
     id="namedview3"
     pagecolor="#ffffff"
     bordercolor="#666666"
     borderopacity="1.0"
     inkscape:showpageshadow="2"
     inkscape:pageopacity="0.0"
     inkscape:pagecheckerboard="0"
     inkscape:deskcolor="#d1d1d1"
     inkscape:zoom="1.0661844"
     inkscape:cx="158.97812"
     inkscape:cy="272.93589"
     inkscape:current-layer="Capa_1" />
  <linearGradient
     id="SVGID_1_"
     gradientUnits="userSpaceOnUse"
     x1="136"
     x2="361"
     y1="512"
     y2="75">
    <stop
       offset="0"
       id="stop1"
       style="stop-color:#e5f230;stop-opacity:1;" />
    <stop
       offset="1"
       id="stop2"
       style="stop-color:#24d864;stop-opacity:1;" />
  </linearGradient>
  <g
     id="g3">
    <g
       id="g2">
      <path
         d="m421 285v-30c0-8.284-6.716-15-15-15h-45v-165c0-41.355-33.645-75-75-75h-60c-41.355 0-75 33.645-75 75v165h-45c-8.284 0-15 6.716-15 15v30c0 69.369 52.594 126.676 120 134.162v62.838h-75c-8.284 0-15 6.716-15 15s6.716 15 15 15h240c8.284 0 15-6.716 15-15s-6.716-15-15-15h-75v-62.838c67.406-7.486 120-64.793 120-134.162zm-240-210c0-24.813 20.187-45 45-45h60c24.813 0 45 20.187 45 45v165h-150zm0 195h150v15c0 24.813-20.187 45-45 45h-60c-24.813 0-45-20.187-45-45zm90 212h-30v-62h30zm15-92h-60c-57.897 0-105-47.103-105-105v-15h30v15c0 41.355 33.645 75 75 75h60c41.355 0 75-33.645 75-75v-15h30v15c0 57.897-47.103 105-105 105zm-60-330c-8.284 0-15 6.716-15 15s6.716 15 15 15 15-6.716 15-15-6.716-15-15-15zm0 120c-8.284 0-15 6.716-15 15s6.716 15 15 15 15-6.716 15-15-6.716-15-15-15zm0-60c-8.284 0-15 6.716-15 15s6.716 15 15 15 15-6.716 15-15-6.716-15-15-15zm60-60c-8.284 0-15 6.716-15 15s6.716 15 15 15 15-6.716 15-15-6.716-15-15-15zm0 60c-8.284 0-15 6.716-15 15s6.716 15 15 15 15-6.716 15-15-6.716-15-15-15zm0 60c-8.284 0-15 6.716-15 15s6.716 15 15 15 15-6.716 15-15-6.716-15-15-15z"
         id="path2"
         style="fill:url(#SVGID_1_)" />
    </g>
  </g>
</svg>
