<?xml version="1.0" encoding="UTF-8" standalone="no"?>
<svg
   id="Capa_1"
   enable-background="new 0 0 512 512"
   height="512"
   viewBox="0 0 512 512"
   width="512"
   version="1.1"
   sodipodi:docname="microphone-muted.svg"
   inkscape:version="1.3.2 (091e20ef0f, 2023-11-25, custom)"
   xmlns:inkscape="http://www.inkscape.org/namespaces/inkscape"
   xmlns:sodipodi="http://sodipodi.sourceforge.net/DTD/sodipodi-0.dtd"
   xmlns:xlink="http://www.w3.org/1999/xlink"
   xmlns="http://www.w3.org/2000/svg"
   xmlns:svg="http://www.w3.org/2000/svg">
  <defs
     id="defs3">
    <linearGradient
       inkscape:collect="always"
       xlink:href="#_lgradient_58"
       id="linearGradient4"
       gradientUnits="userSpaceOnUse"
       gradientTransform="matrix(-392.93398,-392.93398,-394.54576,394.54576,684.02262,245.3963)"
       x1="0.62689447"
       y1="0.19245385"
       x2="0.35712907"
       y2="1.0313933" />
    <linearGradient
       id="_lgradient_58"
       x1="0.73568618"
       y1="0.5"
       x2="0.26568109"
       y2="0.75531918"
       gradientTransform="matrix(-70.592531,70.592531,70.882095,70.882095,66.415874,-2.5489864)"
       gradientUnits="userSpaceOnUse">
      <stop
         offset="0"
         stop-opacity="1"
         style="stop-color:#9033dd;stop-opacity:1;"
         id="stop1-3" />
      <stop
         offset="1"
         stop-opacity="1"
         style="stop-color:#ff69ff;stop-opacity:1;"
         id="stop3" />
    </linearGradient>
  </defs>
  <sodipodi:namedview
     id="namedview3"
     pagecolor="#ffffff"
     bordercolor="#666666"
     borderopacity="1.0"
     inkscape:showpageshadow="2"
     inkscape:pageopacity="0.0"
     inkscape:pagecheckerboard="0"
     inkscape:deskcolor="#d1d1d1"
     inkscape:zoom="1.0661844"
     inkscape:cx="245.26714"
     inkscape:cy="252.30157"
     inkscape:current-layer="Capa_1" />
  <linearGradient
     id="SVGID_1_"
     gradientUnits="userSpaceOnUse"
     x1="136"
     x2="361"
     y1="512"
     y2="75">
    <stop
       offset="0"
       id="stop1"
       style="stop-color:#ff69ff;stop-opacity:1;" />
    <stop
       offset="1"
       id="stop2"
       style="stop-color:#9033dd;stop-opacity:1;" />
  </linearGradient>
  <g
     id="g3">
    <g
       id="g2">
      <path
         d="m421 285v-30c0-8.284-6.716-15-15-15h-45v-165c0-41.355-33.645-75-75-75h-60c-41.355 0-75 33.645-75 75v165h-45c-8.284 0-15 6.716-15 15v30c0 69.369 52.594 126.676 120 134.162v62.838h-75c-8.284 0-15 6.716-15 15s6.716 15 15 15h240c8.284 0 15-6.716 15-15s-6.716-15-15-15h-75v-62.838c67.406-7.486 120-64.793 120-134.162zm-240-210c0-24.813 20.187-45 45-45h60c24.813 0 45 20.187 45 45v165h-150zm0 195h150v15c0 24.813-20.187 45-45 45h-60c-24.813 0-45-20.187-45-45zm90 212h-30v-62h30zm15-92h-60c-57.897 0-105-47.103-105-105v-15h30v15c0 41.355 33.645 75 75 75h60c41.355 0 75-33.645 75-75v-15h30v15c0 57.897-47.103 105-105 105zm-60-330c-8.284 0-15 6.716-15 15s6.716 15 15 15 15-6.716 15-15-6.716-15-15-15zm0 120c-8.284 0-15 6.716-15 15s6.716 15 15 15 15-6.716 15-15-6.716-15-15-15zm0-60c-8.284 0-15 6.716-15 15s6.716 15 15 15 15-6.716 15-15-6.716-15-15-15zm60-60c-8.284 0-15 6.716-15 15s6.716 15 15 15 15-6.716 15-15-6.716-15-15-15zm0 60c-8.284 0-15 6.716-15 15s6.716 15 15 15 15-6.716 15-15-6.716-15-15-15zm0 60c-8.284 0-15 6.716-15 15s6.716 15 15 15 15-6.716 15-15-6.716-15-15-15z"
         id="path2"
         style="fill:url(#SVGID_1_)" />
    </g>
  </g>
  <path
     id="path4"
     style="isolation:isolate;fill:url(#linearGradient4);stroke-width:11.8717"
     d="m 75.011225,99.071637 c 5.16281,-5.290473 14.11847,-5.890309 19.87495,-1.092424 24.286515,24.012487 48.361005,48.246187 72.524015,72.388677 2.91477,2.90595 5.8238,5.81752 8.73525,8.72697 1.42152,1.16877 2.77651,2.51388 3.98024,3.98023 16.13559,16.1374 32.24186,32.30491 48.40367,48.41472 1.4777,1.20569 2.88429,2.60702 4.12801,4.13354 22.86953,22.74204 45.6025,45.62903 68.44573,68.39877 1.4346,1.17053 2.8053,2.52143 4.02305,3.99543 22.27905,22.07178 44.4041,44.30589 66.58681,66.47909 3.56087,3.54976 7.1127,7.10838 10.66875,10.66322 1.41256,1.16343 2.75986,2.49666 3.95675,3.954 15.59348,15.59958 31.16137,31.22541 46.7823,46.7961 5.30404,4.32768 9.96114,10.97374 7.80166,18.13757 -2.13402,10.16462 -15.87459,14.67664 -23.6646,7.84033 -23.92912,-23.66456 -47.66501,-47.53436 -71.46889,-71.33079 -0.0483,-0.0483 -0.0967,-0.0967 -0.14501,-0.14501 C 325.47968,370.30565 305.39973,350.1084 285.23738,330 c -27.74389,-27.43715 -55.20886,-55.16685 -82.84612,-82.71629 -0.11897,-0.11902 -0.22246,-0.23862 -0.33836,-0.3577 -20.8485,-20.71588 -41.59262,-41.54207 -62.38284,-62.31931 -20.80621,-20.74506 -41.518955,-41.58785 -62.327595,-62.33036 -7.65162,-7.65464 -8.98852,-15.44194 -3.3118,-22.08328 0.3084,-0.394175 0.63637,-0.76872 0.98056,-1.121423 z" />
</svg>
