<?xml version="1.0" encoding="UTF-8" standalone="no"?>
<svg
   width="192"
   height="192"
   viewBox="0 0 192 192"
   fill="none"
   version="1.1"
   id="svg41"
   sodipodi:docname="preferences-kde-connect.svg"
   inkscape:version="1.3.2 (091e20ef0f, 2023-11-25, custom)"
   xmlns:inkscape="http://www.inkscape.org/namespaces/inkscape"
   xmlns:sodipodi="http://sodipodi.sourceforge.net/DTD/sodipodi-0.dtd"
   xmlns:xlink="http://www.w3.org/1999/xlink"
   xmlns="http://www.w3.org/2000/svg"
   xmlns:svg="http://www.w3.org/2000/svg">
  <sodipodi:namedview
     id="namedview41"
     pagecolor="#ffffff"
     bordercolor="#666666"
     borderopacity="1.0"
     inkscape:showpageshadow="2"
     inkscape:pageopacity="0.0"
     inkscape:pagecheckerboard="0"
     inkscape:deskcolor="#d1d1d1"
     inkscape:zoom="3.3718405"
     inkscape:cx="51.752151"
     inkscape:cy="99.500555"
     inkscape:current-layer="svg41" />
  <path
     id="path1"
     d="m 130.7832,5 c -2.95893,-0.011724 -5.94884,0.195303 -8.83984,0.1035156 -10.88899,-0.08392 -21.76684,-0.051726 -32.644532,-0.00977 -0.503524,1.0568514 -1.027936,2.1023187 -1.572266,3.1367188 -0.544329,1.0344 -1.107281,2.0580256 -1.6875,3.0722656 -0.580218,1.014241 -1.17787,2.019252 -1.789062,3.015625 -0.611192,0.996374 -1.235798,1.984045 -1.873047,2.964844 10.814989,0.0105 21.639857,0.03213 32.464847,-0.0098 6.78699,0.157299 13.6371,-0.473078 20.37109,0.607421 1.91,0.7972 3.50383,2.434387 4.04883,4.458985 0.168,0.734299 0.31867,1.473335 0.45117,2.216797 0.1325,0.743461 0.24766,1.490185 0.34766,2.240234 -0.1,-0.750049 -0.21516,-1.496773 -0.34766,-2.240234 -0.1325,-0.743462 -0.28317,-1.482498 -0.45117,-2.216797 0.137,49.050451 -0.0623,98.099435 0.0527,147.150385 -0.577,3.378 -4.16453,5.31889 -7.39453,5.08789 -10.41699,0.032 -20.84377,-0.009 -31.25976,0.0117 -12.955191,-0.011 -25.900585,-0.043 -38.855472,0.041 -3.681997,0.189 -8.36043,-0.15705 -9.986329,-4.12305 -0.110137,-0.97287 -0.195799,-1.94721 -0.263671,-2.92187 -0.06787,-0.97466 -0.117518,-1.94971 -0.152344,-2.92578 -0.06965,-1.95216 -0.08143,-3.90571 -0.07422,-5.86133 -0.0072,1.95562 0.0046,3.90917 0.07422,5.86133 0.03483,0.97607 0.08447,1.95112 0.152344,2.92578 0.06787,0.97466 0.153534,1.949 0.263671,2.92187 -0.0734,-49.77395 -0.02133,-99.559631 -0.05273,-149.333981 1.290199,-1.300699 2.592686,-2.694669 4.333984,-3.355469 8.706592,-1.080499 17.518253,-0.293956 26.277344,-0.535156 0.637249,-0.980799 1.261855,-1.96847 1.873047,-2.964844 0.611192,-0.996373 1.208844,-2.001384 1.789062,-3.015625 0.580219,-1.01424 1.143171,-2.0378656 1.6875,-3.0722656 C 88.270866,7.1959893 88.795278,6.150522 89.298802,5.0936706 78.651613,5.0412206 68.01567,5.0314546 57.37888,5.0839006 47.69679,5.1888005 38.938377,13.747598 39.095677,23.513588 c -0.0315,16.941183 -0.07487,33.883136 0.01953,50.824219 0.558587,-0.510075 1.100062,-1.037602 1.626954,-1.576172 -0.526892,0.53857 -1.068367,1.066097 -1.626954,1.576172 -0.0629,15.787184 -0.104415,31.574343 0.02148,47.361333 -0.1049,13.21699 -0.09488,26.44389 -0.02148,39.67187 -0.293699,6.262 -0.324086,13.04993 3.66211,18.29493 3.167897,3.53499 7.33112,6.16782 12.041015,7.04882 2.750973,-0.118 5.504555,-0.20193 8.257813,-0.26367 2.753258,-0.0617 5.506828,-0.10142 8.261719,-0.13086 -2.754891,0.0294 -5.508461,0.0691 -8.261719,0.13086 -2.753258,0.0617 -5.50684,0.14567 -8.257813,0.26367 25.679175,0.514 51.389868,0.0837 77.089838,0.26172 5.832,0.294 11.42538,-2.3062 15.48438,-6.4082 2.706,-3.409 4.48951,-7.64797 4.47851,-12.04297 0.965,-4.91999 0.68286,-9.94379 0.63086,-14.92578 0.01,-38.46696 0.01,-76.932915 0,-115.388676 0.052,-4.982596 0.10672,-9.448789 -0.42305,-14.648277 -0.037,6.120794 -0.25857,11.964926 -0.25857,18.089683 0,-6.124757 0.22385,-12.314295 0.26085,-18.435089 -0.042,-2.821797 -0.62827,-5.965449 -2.11827,-8.367646 v 0 c -2.35,-2.895197 -4.75336,-5.9473455 -8.19336,-7.6152338 C 138.3411,5.39341 134.58755,5.0150744 130.7832,5 Z m 16.3125,13.068359 c -0.81121,0.94524 -1.60525,1.904058 -2.39062,2.871094 0.78537,-0.967036 1.57941,-1.925854 2.39062,-2.871094 z M 51.361328,31.115234 c -0.0536,3.317085 -0.0425,6.637638 -0.01563,9.958985 -0.02687,-3.321347 -0.03798,-6.6419 0.01563,-9.958985 z M 151.75586,108.05273 c -0.56913,0.48388 -1.11151,0.98947 -1.63477,1.51368 -0.52325,0.5242 -1.02635,1.06695 -1.51562,1.62109 0.48927,-0.55414 0.99237,-1.09689 1.51562,-1.62109 0.52326,-0.52421 1.06564,-1.0298 1.63477,-1.51368 z M 82.910156,153.9375 c -3.140428,0.0431 -5.999922,2.76891 -6.009765,5.96484 -0.2413,3.189 2.339831,6.02238 5.423828,6.48438 8.884891,-0.273 17.769301,-0.24149 26.654301,-0.0215 2.26599,-0.556 4.37542,-2.21298 4.85742,-4.58398 1.217,-3.818 -2.14144,-8.10845 -6.14844,-7.81445 -8.045692,-0.053 -16.090192,-0.021 -24.146484,0 -0.211106,-0.0216 -0.421498,-0.0322 -0.63086,-0.0293 z m -40.566406,4.01367 c -0.512199,0.5926 -1.035604,1.17685 -1.572266,1.74805 0.536662,-0.5712 1.060067,-1.15545 1.572266,-1.74805 z m 97.59961,1.95117 c -0.0105,1.6 -0.0411,3.20565 -0.13281,4.80664 0.0917,-1.60099 0.12231,-3.20664 0.13281,-4.80664 z m -50.320313,26.1543 c -0.59727,0.0342 -1.188776,0.058 -1.75,0.11328 0.561224,-0.0553 1.15273,-0.0791 1.75,-0.11328 z"
     style="fill:url(#linearGradient43);fill-opacity:1"
     sodipodi:nodetypes="sccsssccccscsccccccsscssccccsssccccccccccscsccccccccccccscccccccscsccccccccccccccccccc" />
  <defs
     id="defs41">
    <linearGradient
       id="linearGradient3"
       inkscape:collect="always">
      <stop
         style="stop-color:#ff69ff;stop-opacity:1;"
         offset="0"
         id="stop3" />
      <stop
         style="stop-color:#9033dd;stop-opacity:1;"
         offset="1"
         id="stop4" />
    </linearGradient>
    <linearGradient
       id="linearGradient41"
       inkscape:collect="always">
      <stop
         style="stop-color:#ff69ff;stop-opacity:1;"
         offset="0"
         id="stop42" />
      <stop
         style="stop-color:#9033dd;stop-opacity:1;"
         offset="1"
         id="stop43" />
    </linearGradient>
    <linearGradient
       inkscape:collect="always"
       xlink:href="#linearGradient41"
       id="linearGradient43"
       x1="54.818333"
       y1="186.71477"
       x2="152.58024"
       y2="95.999292"
       gradientUnits="userSpaceOnUse" />
    <linearGradient
       inkscape:collect="always"
       xlink:href="#linearGradient3"
       id="linearGradient4"
       x1="54.818333"
       y1="189.03662"
       x2="152.58025"
       y2="98.321152"
       gradientUnits="userSpaceOnUse"
       gradientTransform="matrix(1.474532,0,0,1.6383689,-45.245271,-14.176252)" />
  </defs>
  <path
     id="path3"
     style="opacity:1;fill:url(#linearGradient4);stroke:none;stroke-width:1.23214"
     d="M 105,36.513997 A 9.0000054,10.000006 0 0 1 96.000004,46.514012 9.0000054,10.000006 0 0 1 87,36.513997 9.0000054,10.000006 0 0 1 96.000004,26.514 9.0000054,10.000006 0 0 1 105,36.513997 Z" />
</svg>
