<?xml version="1.0" encoding="UTF-8" standalone="no"?>
<svg
   id="Capa_1"
   enable-background="new 0 0 512 512"
   height="512"
   viewBox="0 0 512 512"
   width="512"
   version="1.1"
   sodipodi:docname="klipper-symbolic.svg"
   inkscape:version="1.3.2 (091e20ef0f, 2023-11-25, custom)"
   xmlns:inkscape="http://www.inkscape.org/namespaces/inkscape"
   xmlns:sodipodi="http://sodipodi.sourceforge.net/DTD/sodipodi-0.dtd"
   xmlns="http://www.w3.org/2000/svg"
   xmlns:svg="http://www.w3.org/2000/svg">
  <defs
     id="defs3" />
  <sodipodi:namedview
     id="namedview3"
     pagecolor="#505050"
     bordercolor="#ffffff"
     borderopacity="1"
     inkscape:showpageshadow="0"
     inkscape:pageopacity="0"
     inkscape:pagecheckerboard="1"
     inkscape:deskcolor="#505050"
     inkscape:zoom="0.82714844"
     inkscape:cx="238.77214"
     inkscape:cy="277.45927"
     inkscape:current-layer="Capa_1" />
  <style
    type="text/css"
    id="current-color-scheme">.ColorScheme-Text{color:#dddddd;}.ColorScheme-Background{color:#1a1a1a;}.ColorScheme-Highlight{color:#aaaaac30;}.ColorScheme-ViewText{color:#dddddd;}.ColorScheme-ViewBackground{color:#1a1a1a01;}.ColorScheme-ViewHover{color:#aaaaac30;}.ColorScheme-ViewFocus{color:#aaaaac30;}.ColorScheme-ButtonText{color:#bbbbbb;}.ColorScheme-ButtonBackground{color:#aaaaac20;}.ColorScheme-ButtonHover{color:#aaaaac30;}.ColorScheme-ButtonFocus{color:#aaaaac30;}.ColorScheme-NegativeText { color: #8500ff; } </style>
  <linearGradient
     id="SVGID_1_"
     gradientUnits="userSpaceOnUse"
     x1="256"
     x2="451"
     y1="512"
     y2="256">
    <stop
       offset="0"
       stop-color="#a93aff"
       id="stop1"
       style="stop-color:#e5f230;stop-opacity:1;" />
    <stop
       offset="1"
       stop-color="#ff81ff"
       id="stop2"
       style="stop-color:#24d864;stop-opacity:1;" />
  </linearGradient>
  <g
     id="g3">
    <g
       id="g2">
      <path
        class="ColorScheme-Text"
         d="m136 331c-8.284 0-15 6.716-15 15s6.716 15 15 15 15-6.716 15-15-6.716-15-15-15zm0-60c-8.284 0-15 6.716-15 15s6.716 15 15 15 15-6.716 15-15-6.716-15-15-15zm86.833-70.005 8.896 2.891-5.498 7.568c-4.869 6.702-3.384 16.083 3.318 20.952 6.672 4.848 16.061 3.414 20.952-3.318l5.499-7.568 5.499 7.568c4.883 6.722 14.269 8.174 20.952 3.318 6.702-4.87 8.188-14.25 3.318-20.952l-5.498-7.568 8.896-2.891c7.879-2.56 12.19-11.022 9.63-18.901-2.56-7.878-11.017-12.191-18.901-9.63l-8.896 2.89v-9.354c0-8.284-6.716-15-15-15s-15 6.716-15 15v9.354l-8.896-2.891c-7.882-2.563-16.342 1.752-18.901 9.63-2.56 7.88 1.751 16.343 9.63 18.902zm-30.382 31.411c6.702-4.87 8.188-14.25 3.318-20.952l-5.498-7.568 8.896-2.891c7.879-2.56 12.19-11.022 9.63-18.901-2.559-7.878-11.019-12.191-18.901-9.63l-8.896 2.89v-9.354c0-8.284-6.716-15-15-15s-15 6.716-15 15v9.354l-8.896-2.891c-7.882-2.563-16.342 1.752-18.901 9.63-2.56 7.879 1.751 16.341 9.63 18.901l8.896 2.891-5.498 7.568c-4.869 6.702-3.384 16.083 3.318 20.952 6.672 4.848 16.061 3.414 20.952-3.318l5.499-7.567 5.499 7.568c4.883 6.721 14.268 8.173 20.952 3.318zm-56.451 158.594c-8.284 0-15 6.716-15 15s6.716 15 15 15 15-6.716 15-15-6.716-15-15-15zm300-361h-90v-15c0-8.284-6.716-15-15-15h-150c-8.284 0-15 6.716-15 15v15h-90c-8.284 0-15 6.716-15 15v452c0 8.284 6.716 15 15 15h360c8.284 0 15-6.716 15-15v-452c0-8.284-6.716-15-15-15zm-240 0h120v15c0 8.271-6.729 15-15 15h-90c-8.271 0-15-6.729-15-15zm225 452h-330v-422h77.58c6.192 17.458 22.865 30 42.42 30h90c19.555 0 36.228-12.542 42.42-30h77.58zm-45-91h-180c-8.284 0-15 6.716-15 15s6.716 15 15 15h180c8.284 0 15-6.716 15-15s-6.716-15-15-15zm-45-225v9.354l-8.896-2.891c-7.882-2.563-16.342 1.752-18.901 9.63-2.56 7.879 1.751 16.341 9.63 18.901l8.896 2.891-5.498 7.568c-4.869 6.702-3.384 16.083 3.318 20.952 6.672 4.848 16.061 3.414 20.952-3.318l5.499-7.567 5.499 7.568c4.883 6.722 14.269 8.174 20.952 3.318 6.702-4.87 8.188-14.25 3.318-20.952l-5.498-7.568 8.896-2.891c7.879-2.56 12.19-11.022 9.63-18.901-2.56-7.878-11.019-12.191-18.901-9.63l-8.896 2.89v-9.354c0-8.284-6.716-15-15-15s-15 6.716-15 15zm45 105h-180c-8.284 0-15 6.716-15 15s6.716 15 15 15h180c8.284 0 15-6.716 15-15s-6.716-15-15-15zm0 60h-180c-8.284 0-15 6.716-15 15s6.716 15 15 15h180c8.284 0 15-6.716 15-15s-6.716-15-15-15z"
         fill="url(#SVGID_1_)"
         id="path2"
         style="fill:currentColor;fill-opacity:1" />
    </g>
  </g>
</svg>
