<?xml version="1.0" encoding="UTF-8" standalone="no"?>
<!-- Created with Inkscape (http://www.inkscape.org/) -->

<svg
   width="48"
   height="48"
   viewBox="0 0 12.7 12.7"
   version="1.1"
   id="svg4559"
   inkscape:version="1.4 (e7c3feb100, 2024-10-09)"
   style="enable-background:new"
   sodipodi:docname="koi-8.svg"
   xmlns:inkscape="http://www.inkscape.org/namespaces/inkscape"
   xmlns:sodipodi="http://sodipodi.sourceforge.net/DTD/sodipodi-0.dtd"
   xmlns:xlink="http://www.w3.org/1999/xlink"
   xmlns="http://www.w3.org/2000/svg"
   xmlns:svg="http://www.w3.org/2000/svg"
   xmlns:rdf="http://www.w3.org/1999/02/22-rdf-syntax-ns#"
   xmlns:cc="http://creativecommons.org/ns#"
   xmlns:dc="http://purl.org/dc/elements/1.1/">
  <defs
     id="defs4553">
    <linearGradient
       inkscape:collect="always"
       id="linearGradient17">
      <stop
         style="stop-color:#00ccff;stop-opacity:1;"
         offset="0"
         id="stop16" />
      <stop
         style="stop-color:#006cff;stop-opacity:0.98431373;"
         offset="1"
         id="stop17" />
    </linearGradient>
    <linearGradient
       inkscape:collect="always"
       id="linearGradient15">
      <stop
         style="stop-color:#00ccff;stop-opacity:1;"
         offset="0"
         id="stop14" />
      <stop
         style="stop-color:#006cff;stop-opacity:0.98431373;"
         offset="1"
         id="stop15" />
    </linearGradient>
    <linearGradient
       id="linearGradient12"
       inkscape:collect="always">
      <stop
         style="stop-color:#00ccff;stop-opacity:1;"
         offset="0"
         id="stop10" />
      <stop
         style="stop-color:#006cff;stop-opacity:1;"
         offset="1"
         id="stop12" />
    </linearGradient>
    <linearGradient
       id="linearGradient5768"
       inkscape:collect="always">
      <stop
         id="stop5764"
         offset="0"
         style="stop-color:#ffffdc;stop-opacity:0" />
      <stop
         id="stop5766"
         offset="1"
         style="stop-color:#00fc00;stop-opacity:0.98431373" />
    </linearGradient>
    <linearGradient
       inkscape:collect="always"
       id="linearGradient4575-3-7-3">
      <stop
         style="stop-color:#00e7ff;stop-opacity:1"
         offset="0"
         id="stop4571" />
      <stop
         style="stop-color:#006aff;stop-opacity:0.98253274"
         offset="1"
         id="stop4573" />
    </linearGradient>
    <linearGradient
       inkscape:collect="always"
       xlink:href="#linearGradient4575-3-7-3"
       id="linearGradient5558"
       x1="-1.1526345"
       y1="290.65015"
       x2="13.844142"
       y2="290.65015"
       gradientUnits="userSpaceOnUse"
       gradientTransform="matrix(0.92526036,0,0,0.92526036,0.4743413,21.72303)" />
    <linearGradient
       inkscape:collect="always"
       xlink:href="#linearGradient5768"
       id="linearGradient5810"
       gradientUnits="userSpaceOnUse"
       gradientTransform="matrix(0.92526036,0,0,0.92526036,0.4743413,21.72303)"
       x1="6.7681732"
       y1="288.19928"
       x2="9.3888521"
       y2="290.67569" />
    <linearGradient
       inkscape:collect="always"
       xlink:href="#linearGradient17"
       id="linearGradient4"
       gradientUnits="userSpaceOnUse"
       gradientTransform="matrix(0,-0.82372629,0.81271727,0,-230.39934,296.02424)"
       x1="-0.12300384"
       y1="290.88525"
       x2="6.5143943"
       y2="298.79364" />
    <linearGradient
       inkscape:collect="always"
       xlink:href="#linearGradient15"
       id="linearGradient7"
       gradientUnits="userSpaceOnUse"
       gradientTransform="matrix(0,0.82372632,-0.81271727,0,243.09932,285.27572)"
       x1="13.171659"
       y1="291.72653"
       x2="6.5342603"
       y2="283.81815" />
    <linearGradient
       inkscape:collect="always"
       xlink:href="#linearGradient1"
       id="linearGradient11"
       gradientUnits="userSpaceOnUse"
       gradientTransform="matrix(-0.02868817,0,0,0.02874381,8.2517051,290.66453)"
       x1="78.205688"
       y1="189.98982"
       x2="-145.83411"
       y2="-0.2215409" />
    <linearGradient
       id="linearGradient1"
       inkscape:collect="always">
      <stop
         style="stop-color:#00ccff;stop-opacity:1;"
         offset="0"
         id="stop11" />
      <stop
         style="stop-color:#006cff;stop-opacity:1;"
         offset="1"
         id="stop13" />
    </linearGradient>
    <linearGradient
       inkscape:collect="always"
       xlink:href="#linearGradient12"
       id="linearGradient3"
       gradientUnits="userSpaceOnUse"
       gradientTransform="matrix(0.02868817,0,0,-0.02874381,4.4482906,290.66084)"
       x1="54.372116"
       y1="-190.11821"
       x2="278.4119"
       y2="0.093165435" />
  </defs>
  <sodipodi:namedview
     id="base"
     pagecolor="#ffffff"
     bordercolor="#666666"
     borderopacity="1.0"
     inkscape:pageopacity="0.0"
     inkscape:pageshadow="2"
     inkscape:zoom="64"
     inkscape:cx="23.757812"
     inkscape:cy="37.578125"
     inkscape:document-units="mm"
     inkscape:current-layer="layer1"
     showgrid="false"
     inkscape:window-width="2560"
     inkscape:window-height="1345"
     inkscape:window-x="0"
     inkscape:window-y="0"
     inkscape:window-maximized="1"
     units="px"
     inkscape:showpageshadow="0"
     inkscape:pagecheckerboard="1"
     inkscape:deskcolor="#505050" />
  <style
    type="text/css"
    id="current-color-scheme">.ColorScheme-Text{color:#dddddd;}.ColorScheme-Background{color:#1a1a1a;}.ColorScheme-Highlight{color:#aaaaac30;}.ColorScheme-ViewText{color:#dddddd;}.ColorScheme-ViewBackground{color:#1a1a1a01;}.ColorScheme-ViewHover{color:#aaaaac30;}.ColorScheme-ViewFocus{color:#aaaaac30;}.ColorScheme-ButtonText{color:#bbbbbb;}.ColorScheme-ButtonBackground{color:#aaaaac20;}.ColorScheme-ButtonHover{color:#aaaaac30;}.ColorScheme-ButtonFocus{color:#aaaaac30;}.ColorScheme-NegativeText { color: #8500ff; } </style>
  <metadata
     id="metadata4556">
    <rdf:RDF>
      <cc:Work
         rdf:about="">
        <dc:format>image/svg+xml</dc:format>
        <dc:type
           rdf:resource="http://purl.org/dc/dcmitype/StillImage" />
      </cc:Work>
    </rdf:RDF>
  </metadata>
  <g
     inkscape:label="Layer 1"
     inkscape:groupmode="layer"
     id="layer1"
     style="display:inline"
     transform="translate(0,-284.3)">
    <path
      class="ColorScheme-Text"
      d="m 6.0311552,284.78454 c -0.07331,0.0136 -0.1114979,0.012 -0.184041,0.0122 -0.2785152,4.8e-4 -0.9406029,0.13437 -1.2116032,0.2227 -0.5341789,0.17408 -1.0478066,0.40488 -1.518338,0.71407 -1.0461191,0.6874 -1.844244,1.69518 -2.28164785,2.86674 -0.14017802,0.37545 -0.28480343,0.93648 -0.32299181,1.33432 l -0.0305171,0.42942 0.009966,0.16869 v 0.13804 0.18405 c 0.00291,0.20059 0.0107303,0.39906 0.0375736,0.59813 0.15842898,1.17556 0.69199436,2.28164 1.48597746,3.15936 0.5947596,0.65735 1.3550019,1.16267 2.1752116,1.49074 0.4398576,0.17592 0.8804824,0.29078 1.3496337,0.35396 l 0.3834186,0.0417 h 0.2760612 l 0.1993777,0.0152 0.3374084,-0.0152 c 0.2846506,-5.5e-4 0.7622369,-0.0902 1.0428992,-0.16151 0.9942816,-0.25168 1.9810488,-0.79213 2.7017223,-1.52445 0.245544,-0.24939 0.47498,-0.51181 0.67666,-0.79859 0.06716,-0.0955 0.188488,-0.25216 0.19447,-0.36809 0.0079,-0.15521 -0.12883,-0.31255 -0.290786,-0.28634 l -0.552123,0.23388 c -0.341243,0.12868 -0.6973622,0.20904 -1.0582371,0.25614 l -0.2453886,0.0263 -0.2760614,0.014 c -0.065793,0.003 -0.094013,-0.009 -0.1533674,-0.0134 H 8.6384018 c -0.1708515,-9.4e-4 -0.6107098,-0.0725 -0.7821743,-0.11524 -1.2645149,-0.31469 -2.4540328,-1.176 -2.7816264,-2.49267 -0.036043,-0.14462 -0.084658,-0.43741 -0.086344,-0.58278 -0.00231,-0.20585 0.036963,-0.40966 0.1205465,-0.59814 0.053063,-0.11962 0.1266815,-0.22254 0.2105737,-0.32209 0.1233074,-0.14644 0.2499888,-0.24062 0.42038,-0.32574 0.6127036,-0.30627 1.3405853,-0.11545 1.732439,0.44846 0.1473863,0.2121 0.2116475,0.43585 0.231892,0.69013 l 0.010886,0.1227 c -0.00997,0.18729 -0.099228,0.41747 -0.184808,0.5828 -0.1463123,0.28296 -0.3090348,0.34292 -0.3174709,0.53677 -0.01073,0.2431 0.2007581,0.4095 0.3981423,0.50982 0.4113318,0.20918 0.8185225,0.27313 1.2729503,0.30443 l 0.1533675,0.014 c 0.3042809,0.003 0.6220606,0.01 0.9202054,-0.0596 1.0145271,-0.23345 1.8201661,-0.94904 2.1315011,-1.94946 0.07209,-0.23175 0.122696,-0.50886 0.123,-0.7515 v -0.27607 l -0.01534,-0.24539 c -3.96e-4,-0.13987 -0.03174,-0.27728 -0.05736,-0.4141 -0.09356,-0.49828 -0.317009,-0.99059 -0.5716,-1.4263 -0.279741,-0.47882 -0.589085,-0.84169 -0.995355,-1.21804 l -0.09478,-0.094 -0.274682,-0.2121 c -0.6194484,-0.46533 -1.3080696,-0.79231 -2.0551226,-0.9935 -0.3739096,-0.10078 -0.9197445,-0.20798 -1.3036231,-0.21243 l -0.2300515,-0.0122 z m -5.19915732,4.52112 c -0.0322074,-0.0967 0.0605796,-0.31225 0.0898732,-0.41409 0.12054662,-0.41885 0.31701052,-0.80595 0.53463902,-1.18093 0.1579682,-0.27252 0.305968,-0.46349 0.5033522,-0.70549 l 0.1171728,-0.15337 0.2426277,-0.24538 c 0.753034,-0.75305 1.6901092,-1.27756 2.729941,-1.51297 0.264559,-0.06 0.7314092,-0.1402 0.9968884,-0.1434 h 0.6441436 l 0.2913982,0.0307 h 0.1380304 l 0.6441435,0.11261 c 0.9912149,0.21194 1.9279847,0.64382 2.6839331,1.32647 l 0.213334,0.18802 0.189716,0.21333 c 0.282504,0.32485 0.447986,0.56027 0.657332,0.93553 0.2664,0.4776 0.442467,0.97604 0.508262,1.51835 l 0.02639,0.23005 v 0.42943 c -1.57e-4,0.12209 -0.02838,0.27868 -0.0549,0.39877 -0.0934,0.42405 -0.22453,0.73875 -0.487558,1.0889 -0.103829,0.13802 -0.333419,0.37313 -0.469764,0.48049 -0.243394,0.19172 -0.522217,0.33251 -0.812849,0.43635 -0.3539694,0.12668 -0.7321757,0.14569 -1.1042456,0.14139 l -0.153368,-0.0159 H 8.8071228 c -0.3332673,-0.0338 -0.7741991,-0.10677 -1.0735717,-0.25646 -0.1366506,-0.0683 -0.3708436,-0.20641 -0.3470707,-0.38709 0.011497,-0.0874 0.093402,-0.16119 0.1456987,-0.23006 0.094628,-0.12452 0.1634896,-0.23831 0.2228437,-0.38342 0.081591,-0.19982 0.1102707,-0.2894 0.1240737,-0.5061 0.00751,-0.11857 -0.016871,-0.25166 -0.033589,-0.36807 l -0.011343,-0.12272 c -0.031899,-0.20397 -0.090794,-0.42236 -0.1688582,-0.61346 -0.1926316,-0.47197 -0.5344887,-0.89667 -0.9286425,-1.21475 -0.5415409,-0.4371 -1.1566976,-0.69566 -1.8404094,-0.81101 -0.1559753,-0.0263 -0.3168575,-0.0583 -0.4754397,-0.0601 h -0.475439 c -0.3318875,4.8e-4 -0.8513432,0.11344 -1.1655928,0.2253 -0.5921519,0.21072 -1.1399804,0.5653 -1.5617413,1.03232 -0.1771396,0.196 -0.24738188,0.32451 -0.38602619,0.53678 z m 6.67148482,0.32207 -0.3374082,-0.26533 c -0.2085795,-0.13403 -0.485868,-0.24031 -0.736164,-0.24078 H 6.2458701 c -0.3487581,0.004 -0.680799,0.20151 -0.9662155,0.38264 -0.8022654,0.50902 -1.4286181,1.36805 -1.6309098,2.3013 l -0.086193,0.55211 v 0.15338 l -0.015797,0.15335 0.014567,0.16872 0.020395,0.32207 c 0.027301,0.20936 0.0796,0.41286 0.1437053,0.61345 0.2731477,0.85457 0.7952107,1.55668 1.5542264,2.0444 0.2030586,0.13052 0.5522765,0.29676 0.7821738,0.37345 l 0.4754396,0.12807 c -0.071777,0.0285 -0.4068837,0.0157 -0.5061125,0.0153 l -0.5981335,-0.0702 c -0.6967486,-0.10807 -1.3034704,-0.32803 -1.9170934,-0.67481 -0.6482844,-0.36638 -1.1332323,-0.79658 -1.604377,-1.37142 -0.1317428,-0.16073 -0.2624119,-0.3285 -0.3709963,-0.50611 l -0.3058145,-0.53678 -0.1024498,-0.24539 -0.078677,-0.16869 C 0.9687961,292.54695 0.87907589,292.256 0.82386388,292.03561 l -0.0610409,-0.32206 c -0.0653341,-0.31641 -0.0791374,-0.49522 -0.1009154,-0.81286 l -0.013956,-0.18404 0.0168697,-0.29139 v -0.15337 c 0.0680953,-0.53051 0.31931126,-1.032 0.67589072,-1.42631 0.232505,-0.2572 0.4829538,-0.45934 0.7795667,-0.63725 1.0964242,-0.65779 2.527496,-0.715 3.6961558,-0.21503 0.1995316,0.0853 0.3696163,0.1836 0.5521232,0.2994 0.3524387,0.22361 0.704724,0.56699 0.9266468,0.92095 0.071161,0.11331 0.1837343,0.28358 0.2082723,0.41409 z m -2.4998899,0.27606 -0.1041366,0.24538 c -0.059817,0.17776 -0.082052,0.36533 -0.079905,0.55216 0.00309,0.25608 0.073003,0.60178 0.1581225,0.84351 0.1687041,0.4788 0.440778,0.90699 0.7953638,1.27154 l 0.1174795,0.10276 0.1101179,0.10633 0.1838875,0.13696 c 0.5246701,0.39355 1.0784803,0.64106 1.7177158,0.7814 l 0.4907767,0.0907 h 0.092019 l 0.1687049,0.0199 c 0.3760571,0.0233 0.7487395,-0.0211 1.1195839,-0.0794 l 0.1073569,-0.0125 0.1073577,-0.0327 c 0.2025967,-0.0552 0.4211467,-0.10551 0.6134687,-0.18909 l 0.260727,-0.1145 0.153368,-0.0708 c 0.06196,-0.0226 0.129901,-0.0318 0.156742,0.0456 0.02317,0.0663 -0.03849,0.14692 -0.07361,0.19877 l -0.327287,0.44476 c -0.259805,0.31119 -0.542462,0.59874 -0.8600857,0.85134 l -0.122692,0.10322 c -0.2493767,0.18586 -0.5254387,0.34245 -0.7975125,0.49167 -0.2683931,0.1474 -0.55335,0.26166 -0.8435214,0.35842 -0.134349,0.0446 -0.3702284,0.11917 -0.5061117,0.13849 l -0.3527459,0.0199 c -0.2555099,4e-4 -0.5151618,-0.009 -0.7668372,-0.0584 -0.5110249,-0.10147 -1.0840056,-0.35373 -1.4876686,-0.68471 -0.212721,-0.17438 -0.4282023,-0.40504 -0.5979802,-0.62176 -0.181738,-0.2322 -0.3255964,-0.49447 -0.4364813,-0.76685 -0.086806,-0.21302 -0.1521402,-0.38756 -0.2042854,-0.61348 -0.032667,-0.1417 -0.078524,-0.47036 -0.080212,-0.61347 v -0.38341 l 0.02638,-0.27605 c 0.064874,-0.49753 0.2141013,-0.94904 0.4728317,-1.38031 0.1610361,-0.26841 0.2906319,-0.43697 0.5130142,-0.65949 0.08696,-0.0868 0.1690113,-0.18298 0.2760612,-0.24539 z"
       id="Selection"
       inkscape:connector-curvature="0"
       style="display:none;fill:none;fill-opacity:1;stroke:currentColor;stroke-width:0.8;stroke-miterlimit:4;stroke-dasharray:none;stroke-opacity:1"
       sodipodi:nodetypes="ccccccccccccccccccccccccccccccccccccccccccccccccccccccccccccccccccccccccccccccccccccccccccccccccccccccccccccccccccccccccccccccccccccccccccccccccccccccccccccccccccccccccccccccc" />
    <path
      class="ColorScheme-Text"
      sodipodi:nodetypes="ccccccccccccccccccccccccccccccccccccccccccccccccccccc"
       style="display:none;fill:none;fill-opacity:1;stroke:currentColor;stroke-width:0.8;stroke-miterlimit:4;stroke-dasharray:none;stroke-opacity:1"
       inkscape:connector-curvature="0"
       id="path5808"
       d="m 5.7397573,289.43994 c 0.6127036,-0.30627 1.3405853,-0.11545 1.732439,0.44846 0.1473863,0.2121 0.2116475,0.43585 0.231892,0.69013 l 0.010886,0.1227 c -0.00997,0.18729 -0.099228,0.41747 -0.184808,0.5828 -0.1463123,0.28296 -0.3090348,0.34292 -0.3174709,0.53677 -0.01073,0.2431 0.2007581,0.4095 0.3981423,0.50982 0.4113318,0.20918 0.8185225,0.27313 1.2729503,0.30443 l 0.1533675,0.014 c 0.3042809,0.003 0.6220606,0.01 0.9202054,-0.0596 1.0145271,-0.23345 1.8201661,-0.94904 2.1315011,-1.94946 0.07209,-0.23175 0.122696,-0.50886 0.123,-0.7515 v -0.27607 l -0.01534,-0.24539 c -3.96e-4,-0.13987 -0.03174,-0.27728 -0.05736,-0.4141 -0.09356,-0.49828 -0.317009,-0.99059 -0.5716,-1.4263 -0.279741,-0.47882 -0.589085,-0.84169 -0.995355,-1.21804 l -0.09478,-0.094 -0.274682,-0.2121 c -0.6194484,-0.46533 -1.2253873,-0.72144 -1.9842521,-1.06437 -6.9327295,2.68746 -41.3107279,29.6895 -2.4787356,4.50182 z m 4.7083837,-3.02013 0.213334,0.18802 0.189716,0.21333 c 0.282504,0.32485 0.447986,0.56027 0.657332,0.93553 0.2664,0.4776 0.442467,0.97604 0.508262,1.51835 l 0.02639,0.23005 v 0.42943 c -1.57e-4,0.12209 -0.02838,0.27868 -0.0549,0.39877 -0.0934,0.42405 -0.22453,0.73875 -0.487558,1.0889 -0.103829,0.13802 -0.333419,0.37313 -0.469764,0.48049 -0.243394,0.19172 -0.522217,0.33251 -0.812849,0.43635 -0.3539694,0.12668 -0.7321757,0.14569 -1.1042456,0.14139 l -0.153368,-0.0159 H 8.8071228 c -0.3332673,-0.0338 -0.7741991,-0.10677 -1.0735717,-0.25646 -0.1366506,-0.0683 -0.3708436,-0.20641 -0.3470707,-0.38709 0.011497,-0.0874 0.093402,-0.16119 0.1456987,-0.23006 0.094628,-0.12452 0.1634896,-0.23831 0.2228437,-0.38342 0.081591,-0.19982 0.1102707,-0.2894 0.1240737,-0.5061 0.00751,-0.11857 -0.016871,-0.25166 -0.033589,-0.36807 l -0.011343,-0.12272 c -0.031899,-0.20397 -0.090794,-0.42236 -0.1688582,-0.61346 -0.1926316,-0.47197 -0.5344887,-0.89667 -0.9286425,-1.21475 -1.225643,-4.03857 1.2040658,-3.97539 3.7114772,-1.96258 z m -2.9446583,3.20792 -0.3374082,-0.26533 c -0.2085795,-0.13403 -0.485868,-0.24031 -0.736164,-0.24078 H 6.2458701 c -5.55665638,3.09289 -20.1915031,-13.02349 0.1226876,-0.82888 0.3524387,0.22361 0.704724,0.56699 0.9266468,0.92095 0.071161,0.11331 0.1837343,0.28358 0.2082723,0.41409 z" />
    <path
      class="ColorScheme-Text"
       d="m 6.0311552,284.78454 c -0.07331,0.0136 -0.1114979,0.012 -0.184041,0.0122 -0.2785152,4.8e-4 -0.9406029,0.13437 -1.2116032,0.2227 -0.5341789,0.17408 -1.0478066,0.40488 -1.518338,0.71407 -1.0461191,0.6874 -1.844244,1.69518 -2.28164785,2.86674 -0.14017802,0.37545 -0.28480343,0.93648 -0.32299181,1.33432 l -0.0305171,0.42942 0.009966,0.16869 v 0.13804 0.18405 c 0.00291,0.20059 0.0107303,0.39906 0.0375736,0.59813 0.15842898,1.17556 0.69199436,2.28164 1.48597746,3.15936 0.5947596,0.65735 1.3550019,1.16267 2.1752116,1.49074 0.4398576,0.17592 0.8804824,0.29078 1.3496337,0.35396 l 0.3834186,0.0417 h 0.2760612 l 0.1993777,0.0152 0.3374084,-0.0152 c 0.2846506,-5.5e-4 0.7622369,-0.0902 1.0428992,-0.16151 0.9942816,-0.25168 1.9810488,-0.79213 2.7017223,-1.52445 0.245544,-0.24939 0.47498,-0.51181 0.67666,-0.79859 0.06716,-0.0955 0.188488,-0.25216 0.19447,-0.36809 0.0079,-0.15521 -0.12883,-0.31255 -0.290786,-0.28634 l -0.552123,0.23388 c -0.341243,0.12868 -0.6973622,0.20904 -1.0582371,0.25614 l -0.2453886,0.0263 -0.2760614,0.014 c -0.065793,0.003 -0.094013,-0.009 -0.1533674,-0.0134 H 8.6384018 c -0.1708515,-9.4e-4 -0.6107098,-0.0725 -0.7821743,-0.11524 -1.2645149,-0.31469 -2.4540328,-1.176 -2.7816264,-2.49267 -0.036043,-0.14462 -0.084658,-0.43741 -0.086344,-0.58278 -0.00231,-0.20585 0.036963,-0.40966 0.1205465,-0.59814 0.053063,-0.11962 0.1266815,-0.22254 0.2105737,-0.32209 0.1233074,-0.14644 0.2499888,-0.24062 0.42038,-0.32574 0.6127036,-0.30627 1.3405853,-0.11545 1.732439,0.44846 0.1473863,0.2121 0.2116475,0.43585 0.231892,0.69013 l 0.010886,0.1227 c -0.00997,0.18729 -0.099228,0.41747 -0.184808,0.5828 -0.1463123,0.28296 -0.3090348,0.34292 -0.3174709,0.53677 -0.01073,0.2431 0.2007581,0.4095 0.3981423,0.50982 0.4113318,0.20918 0.8185225,0.27313 1.2729503,0.30443 l 0.1533675,0.014 c 0.3042809,0.003 0.6220606,0.01 0.9202054,-0.0596 1.0145271,-0.23345 1.8201661,-0.94904 2.1315011,-1.94946 0.07209,-0.23175 0.122696,-0.50886 0.123,-0.7515 v -0.27607 l -0.01534,-0.24539 c -3.96e-4,-0.13987 -0.03174,-0.27728 -0.05736,-0.4141 -0.09356,-0.49828 -0.317009,-0.99059 -0.5716,-1.4263 -0.279741,-0.47882 -0.589085,-0.84169 -0.995355,-1.21804 l -0.09478,-0.094 -0.274682,-0.2121 c -0.6194484,-0.46533 -1.3080696,-0.79231 -2.0551226,-0.9935 -0.3739096,-0.10078 -0.9197445,-0.20798 -1.3036231,-0.21243 l -0.2300515,-0.0122 z m -5.19915732,4.52112 c -0.0322074,-0.0967 0.0605796,-0.31225 0.0898732,-0.41409 0.12054662,-0.41885 0.31701052,-0.80595 0.53463902,-1.18093 0.1579682,-0.27252 0.305968,-0.46349 0.5033522,-0.70549 l 0.1171728,-0.15337 0.2426277,-0.24538 c 0.753034,-0.75305 1.6901092,-1.27756 2.729941,-1.51297 0.264559,-0.06 0.7314092,-0.1402 0.9968884,-0.1434 h 0.6441436 l 0.2913982,0.0307 h 0.1380304 l 0.6441435,0.11261 c 0.9912149,0.21194 1.9279847,0.64382 2.6839331,1.32647 l 0.213334,0.18802 0.189716,0.21333 c 0.282504,0.32485 0.447986,0.56027 0.657332,0.93553 0.2664,0.4776 0.442467,0.97604 0.508262,1.51835 l 0.02639,0.23005 v 0.42943 c -1.57e-4,0.12209 -0.02838,0.27868 -0.0549,0.39877 -0.0934,0.42405 -0.22453,0.73875 -0.487558,1.0889 -0.103829,0.13802 -0.333419,0.37313 -0.469764,0.48049 -0.243394,0.19172 -0.522217,0.33251 -0.812849,0.43635 -0.3539694,0.12668 -0.7321757,0.14569 -1.1042456,0.14139 l -0.153368,-0.0159 H 8.8071228 c -0.3332673,-0.0338 -0.7741991,-0.10677 -1.0735717,-0.25646 -0.1366506,-0.0683 -0.3708436,-0.20641 -0.3470707,-0.38709 0.011497,-0.0874 0.093402,-0.16119 0.1456987,-0.23006 0.094628,-0.12452 0.1634896,-0.23831 0.2228437,-0.38342 0.081591,-0.19982 0.1102707,-0.2894 0.1240737,-0.5061 0.00751,-0.11857 -0.016871,-0.25166 -0.033589,-0.36807 l -0.011343,-0.12272 c -0.031899,-0.20397 -0.090794,-0.42236 -0.1688582,-0.61346 -0.1926316,-0.47197 -0.5344887,-0.89667 -0.9286425,-1.21475 -0.5415409,-0.4371 -1.1566976,-0.69566 -1.8404094,-0.81101 -0.1559753,-0.0263 -0.3168575,-0.0583 -0.4754397,-0.0601 h -0.475439 c -0.3318875,4.8e-4 -0.8513432,0.11344 -1.1655928,0.2253 -0.5921519,0.21072 -1.1399804,0.5653 -1.5617413,1.03232 -0.1771396,0.196 -0.24738188,0.32451 -0.38602619,0.53678 z m 6.67148482,0.32207 -0.3374082,-0.26533 c -0.2085795,-0.13403 -0.485868,-0.24031 -0.736164,-0.24078 H 6.2458701 c -0.3487581,0.004 -0.680799,0.20151 -0.9662155,0.38264 -0.8022654,0.50902 -1.4286181,1.36805 -1.6309098,2.3013 l -0.086193,0.55211 v 0.15338 l -0.015797,0.15335 0.014567,0.16872 0.020395,0.32207 c 0.027301,0.20936 0.0796,0.41286 0.1437053,0.61345 0.2731477,0.85457 0.7952107,1.55668 1.5542264,2.0444 0.2030586,0.13052 0.5522765,0.29676 0.7821738,0.37345 l 0.4754396,0.12807 c -0.071777,0.0285 -0.4068837,0.0157 -0.5061125,0.0153 l -0.5981335,-0.0702 c -0.6967486,-0.10807 -1.3034704,-0.32803 -1.9170934,-0.67481 -0.6482844,-0.36638 -1.1332323,-0.79658 -1.604377,-1.37142 -0.1317428,-0.16073 -0.2624119,-0.3285 -0.3709963,-0.50611 l -0.3058145,-0.53678 -0.1024498,-0.24539 -0.078677,-0.16869 C 0.9687961,292.54695 0.87907589,292.256 0.82386388,292.03561 l -0.0610409,-0.32206 c -0.0653341,-0.31641 -0.0791374,-0.49522 -0.1009154,-0.81286 l -0.013956,-0.18404 0.0168697,-0.29139 v -0.15337 c 0.0680953,-0.53051 0.31931126,-1.032 0.67589072,-1.42631 0.232505,-0.2572 0.4829538,-0.45934 0.7795667,-0.63725 1.0964242,-0.65779 2.527496,-0.715 3.6961558,-0.21503 0.1995316,0.0853 0.3696163,0.1836 0.5521232,0.2994 0.3524387,0.22361 0.704724,0.56699 0.9266468,0.92095 0.071161,0.11331 0.1837343,0.28358 0.2082723,0.41409 z m -2.4998899,0.27606 -0.1041366,0.24538 c -0.059817,0.17776 -0.082052,0.36533 -0.079905,0.55216 0.00309,0.25608 0.073003,0.60178 0.1581225,0.84351 0.1687041,0.4788 0.440778,0.90699 0.7953638,1.27154 l 0.1174795,0.10276 0.1101179,0.10633 0.1838875,0.13696 c 0.5246701,0.39355 1.0784803,0.64106 1.7177158,0.7814 l 0.4907767,0.0907 h 0.092019 l 0.1687049,0.0199 c 0.3760571,0.0233 0.7487395,-0.0211 1.1195839,-0.0794 l 0.1073569,-0.0125 0.1073577,-0.0327 c 0.2025967,-0.0552 0.4211467,-0.10551 0.6134687,-0.18909 l 0.260727,-0.1145 0.153368,-0.0708 c 0.06196,-0.0226 0.129901,-0.0318 0.156742,0.0456 0.02317,0.0663 -0.03849,0.14692 -0.07361,0.19877 l -0.327287,0.44476 c -0.259805,0.31119 -0.542462,0.59874 -0.8600857,0.85134 l -0.122692,0.10322 c -0.2493767,0.18586 -0.5254387,0.34245 -0.7975125,0.49167 -0.2683931,0.1474 -0.55335,0.26166 -0.8435214,0.35842 -0.134349,0.0446 -0.3702284,0.11917 -0.5061117,0.13849 l -0.3527459,0.0199 c -0.2555099,4e-4 -0.5151618,-0.009 -0.7668372,-0.0584 -0.5110249,-0.10147 -1.0840056,-0.35373 -1.4876686,-0.68471 -0.212721,-0.17438 -0.4282023,-0.40504 -0.5979802,-0.62176 -0.181738,-0.2322 -0.3255964,-0.49447 -0.4364813,-0.76685 -0.086806,-0.21302 -0.1521402,-0.38756 -0.2042854,-0.61348 -0.032667,-0.1417 -0.078524,-0.47036 -0.080212,-0.61347 v -0.38341 l 0.02638,-0.27605 c 0.064874,-0.49753 0.2141013,-0.94904 0.4728317,-1.38031 0.1610361,-0.26841 0.2906319,-0.43697 0.5130142,-0.65949 0.08696,-0.0868 0.1690113,-0.18298 0.2760612,-0.24539 z"
       id="path1"
       inkscape:connector-curvature="0"
       style="display:none;fill:none;fill-opacity:1;stroke:currentColor;stroke-width:0.8;stroke-miterlimit:4;stroke-dasharray:none;stroke-opacity:1"
       sodipodi:nodetypes="ccccccccccccccccccccccccccccccccccccccccccccccccccccccccccccccccccccccccccccccccccccccccccccccccccccccccccccccccccccccccccccccccccccccccccccccccccccccccccccccccccccccccccccccc" />
    <path
      class="ColorScheme-Text"
       d="m 7.5164904,289.89135 c 0.1473863,0.2121 0.1673534,0.4329 0.1875979,0.68718 l 0.010886,0.1227 c -0.00997,0.18729 -0.099228,0.41747 -0.184808,0.5828 -0.1463123,0.28296 -0.3090348,0.34292 -0.3174709,0.53677 -0.01073,0.2431 0.2007581,0.4095 0.3981423,0.50982 0.4113318,0.20918 0.8185225,0.27313 1.2729503,0.30443 l 0.1533675,0.014 c 0.3042809,0.003 0.6220606,0.01 0.9202054,-0.0596 1.0145271,-0.23345 1.8201661,-0.94904 2.1315011,-1.94946 0.07209,-0.23175 0.122696,-0.50886 0.123,-0.7515 v -0.27607 l -0.01534,-0.24539 c -3.96e-4,-0.13987 -0.03174,-0.27728 -0.05736,-0.4141 -0.09356,-0.49828 -0.317009,-0.99059 -0.5716,-1.4263 -0.279741,-0.47882 -0.589085,-0.84169 -0.995355,-1.21804 l -0.09478,-0.094 -0.274682,-0.2121 c -0.6194484,-0.46533 -1.3080696,-0.79231 -2.0551226,-0.9935 -0.3739096,-0.10078 -0.9197445,-0.20798 -1.3036231,-0.21243 l -0.2300515,-0.0122 -0.5827926,1.8e-4 c -0.07331,0.0136 -0.1114979,0.012 -0.184041,0.0122 -0.2785152,4.8e-4 -0.9406029,0.13437 -1.2116032,0.2227 -0.5341789,0.17408 -1.0478066,0.40488 -1.518338,0.71407 -1.0461191,0.6874 -1.685183,1.76173 -2.12258685,2.93329 m -0.162588,0.63886 c -0.0322074,-0.0967 0.0605796,-0.31225 0.0898732,-0.41409 0.12054665,-0.41885 0.31701055,-0.80595 0.53463905,-1.18093 0.1579682,-0.27252 0.305968,-0.46349 0.5033522,-0.70549 l 0.1171728,-0.15337 0.2426277,-0.24538 c 0.753034,-0.75305 1.6901092,-1.27756 2.729941,-1.51297 0.264559,-0.06 0.7314092,-0.1402 0.9968884,-0.1434 h 0.6441436 l 0.2913982,0.0307 h 0.1380304 l 0.6441435,0.11261 c 0.9912149,0.21194 1.9279847,0.64382 2.6839328,1.32647 l 0.213334,0.18802 0.189716,0.21333 c 0.282504,0.32485 0.447986,0.56027 0.657332,0.93553 0.2664,0.4776 0.442467,0.97604 0.508262,1.51835 l 0.02639,0.23005 v 0.42943 c -1.57e-4,0.12209 -0.02838,0.27868 -0.0549,0.39877 -0.0934,0.42405 -0.22453,0.73875 -0.487558,1.0889 -0.103829,0.13802 -0.333419,0.37313 -0.469764,0.48049 -0.243394,0.19172 -0.522217,0.33251 -0.812849,0.43635 -0.3539691,0.12668 -0.7321754,0.14569 -1.1042453,0.14139 l -0.153368,-0.0159 H 8.8071228 c -0.3332673,-0.0338 -0.7741991,-0.10677 -1.0735717,-0.25646 -0.1366506,-0.0683 -0.3708436,-0.20641 -0.3470707,-0.38709 0.011497,-0.0874 0.093402,-0.16119 0.1456987,-0.23006 0.094628,-0.12452 0.1634896,-0.23831 0.2228437,-0.38342 0.081591,-0.19982 0.1102707,-0.2894 0.1240737,-0.5061 0.00751,-0.11857 -0.016871,-0.25166 -0.033589,-0.36807 l -0.011343,-0.12272 c -0.031899,-0.20397 -0.090794,-0.42236 -0.1688582,-0.61346 -0.1926316,-0.47197 -0.5344887,-0.89667 -0.9286425,-1.21475 -0.5415409,-0.4371 -1.1566976,-0.69566 -1.8404094,-0.81101 -0.1559753,-0.0263 -0.3168575,-0.0583 -0.4754397,-0.0601 h -0.475439 c -0.3318875,4.8e-4 -0.8513432,0.11344 -1.1655928,0.2253 -0.5921519,0.21072 -1.1399804,0.5653 -1.5617413,1.03232 -0.1771396,0.196 -0.24738188,0.32451 -0.38602619,0.53678 z m 0.45152435,-0.60731 c 0.232505,-0.2572 0.5401433,-0.31211 0.8367562,-0.49002 1.0964242,-0.65779 2.527496,-0.715 3.6961558,-0.21503 0.1995316,0.0853 0.3696163,0.1836 0.5521232,0.2994 0.3524387,0.22361 0.704724,0.56699 0.9266468,0.92095 0.071161,0.11331 0.1837343,0.28358 0.2082723,0.41409 v 0 l -0.4230375,0.1274"
       id="path2"
       inkscape:connector-curvature="0"
       style="display:none;fill:none;fill-opacity:1;stroke:currentColor;stroke-width:0.8;stroke-miterlimit:4;stroke-dasharray:none;stroke-opacity:1"
       sodipodi:nodetypes="cccccccccccccccccccccccccccccccccccccccccccccccccccccccccccccccccccccccccccc" />
    <path
      class="ColorScheme-Text"
       d="m 5.0944972,289.75044 c 0.1863047,-0.13122 0.4363601,-0.14456 0.6597066,-0.16258 l 0.1078259,-0.01 c 0.1645029,0.009 0.3666951,0.0883 0.5119114,0.16453 0.2485474,0.13025 0.3012028,0.27512 0.471483,0.28263 0.2135226,0.01 0.3596852,-0.17873 0.4478011,-0.35445 0.1837398,-0.3662 0.2399064,-0.7287 0.2674107,-1.13326 l 0.012451,-0.13654 c 0.00249,-0.27089 0.00872,-0.5538 -0.052294,-0.81922 -0.2050559,-0.9032 -0.8336086,-1.62044 -1.7123397,-1.8976 -0.2035621,-0.0641 -0.4469672,-0.10926 -0.6600914,-0.10951 H 4.9058657 l -0.2155397,0.0136 c -0.1228916,3.5e-4 -0.2435545,0.0282 -0.3637318,0.051 -0.4376784,0.0833 -0.8701025,0.28223 -1.2528097,0.50887 -0.4205832,0.24905 -0.739317,0.52445 -1.0698917,0.88613 l -0.08255,0.0843 -0.1863046,0.24454 c -0.4087298,0.55148 -0.6959376,1.16453 -0.87265495,1.82961 -0.088527,0.33287 -0.1826815,0.81881 -0.1865911,1.16056 l -0.011206,0.20481 1.618e-4,0.51884 c 0.012451,0.0652 0.00996,0.0993 0.011206,0.16385 4.108e-4,0.24794 0.1180357,0.83738 0.1956056,1.07864 0.15291095,0.47557 0.35563855,0.93283 0.62722035,1.35172 0.6037875,0.93132 1.5474382,1.50027 2.576503,1.88967 m 0.1974235,0.0647 c -0.3679031,-0.10719 -0.7079157,-0.28213 -1.0372827,-0.47587 -0.2393709,-0.14065 -0.4071236,-0.2724 -0.6196875,-0.44812 l -0.1347076,-0.1043 -0.2155397,-0.216 c -0.6614483,-0.67039 -1.1221611,-1.50465 -1.32893525,-2.43037 -0.0526678,-0.23553 -0.1231406,-0.65115 -0.1259546,-0.88749 v -0.57346 l 0.027019,-0.25942 v -0.12288 l 0.098861,-0.57346 C 1.1226467,288.65146 1.5019921,287.8175 2.1016086,287.1445 l 0.1651504,-0.18992 0.1873879,-0.1689 c 0.2853277,-0.2515 0.4921143,-0.39882 0.8217303,-0.5852 0.4195124,-0.23717 0.8573278,-0.3939 1.3336666,-0.45249 l 0.2020677,-0.0235 h 0.3772038 c 0.1072033,1.4e-4 0.2447747,0.0252 0.3502598,0.0489 0.3724724,0.0831 0.6488976,0.19989 0.9564504,0.43405 0.121273,0.0924 0.3277483,0.29684 0.4220524,0.41822 0.1684001,0.21668 0.2920637,0.46491 0.3832799,0.72365 0.1113122,0.31513 0.1279592,0.65182 0.1241367,0.98306 l -0.013945,0.13655 v 0.13654 c -0.029633,0.29669 -0.093756,0.68924 -0.225264,0.95576 -0.060014,0.12163 -0.1812994,0.33015 -0.3400001,0.30898 -0.076823,-0.01 -0.1415931,-0.0831 -0.2020802,-0.1297 -0.10932,-0.0842 -0.2093266,-0.14555 -0.3367877,-0.1984 -0.1755097,-0.0726 -0.2542002,-0.0982 -0.444539,-0.1104 -0.1040905,-0.006 -0.221043,0.015 -0.3233033,0.0299 l -0.1078259,0.01 c -0.1791578,0.0284 -0.3709907,0.0808 -0.538843,0.15033 -0.4145569,0.17148 -0.787602,0.47582 -1.0669906,0.82673 -0.3839398,0.48211 -0.6110465,1.02977 -0.7123729,1.63845 -0.023159,0.13886 -0.051174,0.28209 -0.052792,0.42327 v 0.42327 c 4.234e-4,0.29546 0.099608,0.75791 0.1978966,1.03768 0.1850845,0.52717 0.4965345,1.01488 0.9067459,1.39036 0.2667803,0.22902 0.673903,0.44424 0.1078135,0.26361 z m -0.16972,-0.32201 c -0.2259114,-0.20698 -0.2741466,-0.48086 -0.430407,-0.74494 -0.5777898,-0.97611 -0.6280421,-2.25013 -0.188882,-3.29055 0.074955,-0.17763 0.1612656,-0.32906 0.2629781,-0.49153 0.1964149,-0.31377 0.4980285,-0.62739 0.808943,-0.82496 0.099484,-0.0634 0.2490828,-0.16358 0.3637194,-0.18542 v 0 l 0.1650007,0.40932"
       id="path4"
       inkscape:connector-curvature="0"
       style="display:inline;fill:none;fill-opacity:1;stroke:currentColor;stroke-width:0.800003;stroke-miterlimit:4;stroke-dasharray:none;stroke-opacity:1"
       sodipodi:nodetypes="ccccccccccccccccccccccccccccccccccccccccccccccccccccccccccccccccccccccccccc" />
    <path
      class="ColorScheme-Text"
       d="m 7.6527331,291.53475 c -0.1863047,0.13122 -0.4835948,0.15933 -0.7069537,0.17735 l -0.1078259,0.01 c -0.164503,-0.009 -0.3666827,-0.0883 -0.5119115,-0.16452 -0.2485349,-0.13026 -0.3012027,-0.27513 -0.4714829,-0.28264 -0.2135226,-0.01 -0.3596852,0.17873 -0.4478011,0.35446 -0.1837398,0.36619 -0.2399064,0.7287 -0.2673982,1.13325 l -0.012451,0.13654 c -0.00249,0.27089 -0.00872,0.5538 0.052294,0.81924 0.205056,0.90319 0.8336086,1.62042 1.7123397,1.89759 0.2035618,0.0641 0.4469669,0.10929 0.6601035,0.10954 h 0.2424838 l 0.2155396,-0.0137 c 0.1228917,-3.6e-4 0.2435545,-0.0282 0.3637318,-0.051 0.4376785,-0.0833 0.8701026,-0.28223 1.2528226,-0.50887 0.4205702,-0.24905 0.7393042,-0.52445 1.0698792,-0.88614 l 0.08255,-0.0843 0.186305,-0.24454 c 0.40873,-0.55147 0.695938,-1.16452 0.872655,-1.8296 0.08853,-0.33287 0.182681,-0.81882 0.186591,-1.16056 l 0.01121,-0.20482 -1.62e-4,-0.51883 c -0.01245,-0.0652 -0.01,-0.0993 -0.01121,-0.16385 -4.23e-4,-0.24796 -0.118036,-0.83738 -0.195618,-1.07865 -0.152911,-0.47556 -0.355639,-0.93282 -0.62722,-1.35173 -0.603788,-0.93132 -1.5474392,-1.50025 -2.5764913,-1.88965 m -0.1974359,-0.0647 c 0.3679029,0.10728 0.707916,0.28222 1.037283,0.47597 0.239383,0.14064 0.407123,0.2724 0.6196872,0.44811 l 0.134708,0.10429 0.21554,0.21601 c 0.661448,0.67041 1.122161,1.50465 1.328935,2.43037 0.05267,0.23553 0.12314,0.65115 0.125967,0.88749 v 0.57346 l -0.02702,0.25942 v 0.12288 l -0.09886,0.57346 c -0.186168,0.88245 -0.565513,1.71642 -1.16513,2.38942 l -0.16515,0.18992 -0.187388,0.16889 c -0.2853282,0.25151 -0.4921142,0.39883 -0.8217302,0.5852 -0.419513,0.23718 -0.8573282,0.39392 -1.3336671,0.45249 L 7.888384,295.5754 H 7.5111804 c -0.1072033,-1.4e-4 -0.2447747,-0.0252 -0.3502598,-0.0489 -0.3724724,-0.0831 -0.6488976,-0.19989 -0.9564504,-0.43405 -0.1212729,-0.0924 -0.3277483,-0.29684 -0.4220524,-0.41822 -0.1684001,-0.21668 -0.2920637,-0.46491 -0.3832674,-0.72365 -0.1113122,-0.31512 -0.1279716,-0.65182 -0.1241367,-0.98306 l 0.013945,-0.13655 v -0.13654 c 0.029634,-0.29669 0.093756,-0.68924 0.225264,-0.95576 0.060014,-0.12163 0.1812993,-0.33014 0.3400001,-0.30898 0.076823,0.01 0.1415931,0.0832 0.2020801,0.1297 0.1094445,0.0842 0.2093267,0.14556 0.3367878,0.1984 0.1755097,0.0726 0.2542001,0.0982 0.444539,0.1104 0.104215,0.006 0.2210555,-0.015 0.3233033,-0.0299 l 0.1078259,-0.01 c 0.1791577,-0.0284 0.3709907,-0.0808 0.538843,-0.15034 0.4145568,-0.17148 0.787602,-0.47583 1.0669905,-0.82673 0.3839404,-0.48211 0.6110464,-1.02977 0.7123734,-1.63845 0.02316,-0.13886 0.05117,-0.28209 0.05279,-0.42327 v -0.42327 c -4.11e-4,-0.29546 -0.09961,-0.75792 -0.197884,-1.03768 -0.185097,-0.52717 -0.496547,-1.01489 -0.9067586,-1.39036 -0.2577602,-0.22614 -0.7722164,-0.47561 -0.1078383,-0.2636 z m 0.1699939,0.32201 c 0.2259114,0.20698 0.2741466,0.48086 0.4304201,0.74493 0.577777,0.9761 0.628029,2.25014 0.188869,3.29056 -0.07496,0.17763 -0.161266,0.32904 -0.262978,0.49153 -0.1964151,0.31377 -0.4980287,0.62739 -0.8089308,0.82496 -0.099484,0.0634 -0.2490952,0.16358 -0.3637318,0.18542 v 0 l -0.1636111,-0.4054"
       id="path7"
       inkscape:connector-curvature="0"
       style="display:inline;fill:none;fill-opacity:1;stroke:currentColor;stroke-width:0.800003;stroke-miterlimit:4;stroke-dasharray:none;stroke-opacity:1"
       sodipodi:nodetypes="ccccccccccccccccccccccccccccccccccccccccccccccccccccccccccccccccccccccccccc" />
    <path
      class="ColorScheme-Text"
       id="path11"
       style="fill:currentColor;stroke-width:0.264583"
       d="M 7.0874227 292.8509 C 6.8798722 292.85634 6.6797924 292.99434 6.6099325 293.19196 C 6.5301622 293.39669 6.6009222 293.64635 6.7758138 293.78004 C 7.0339327 293.99437 7.380615 294.07553 7.7111572 294.05703 C 7.8477847 294.04778 7.9830766 293.98216 8.0656576 293.87151 C 8.0805746 293.85341 8.073428 293.81295 8.047054 293.80795 C 7.9439368 293.77784 7.8365154 293.74167 7.7612834 293.66067 C 7.6668133 293.55758 7.6307455 293.41634 7.6119385 293.28136 C 7.5797275 293.07512 7.4082492 292.90117 7.2026611 292.86227 C 7.1644915 292.85376 7.125858 292.84989 7.0874227 292.8509 z " />
    <path
      class="ColorScheme-Text"
       id="path3"
       style="fill:currentColor;stroke-width:0.264583"
       d="M 5.0508545 287.26623 C 5.0300945 287.2666 5.0095017 287.26765 4.9888428 287.26881 C 4.8522153 287.27807 4.7169234 287.34315 4.6343424 287.45381 C 4.6194264 287.47181 4.626572 287.51237 4.652946 287.51737 C 4.7560633 287.54749 4.8634846 287.58365 4.9387166 287.66465 C 5.0331866 287.76775 5.0692545 287.90898 5.0880615 288.04396 C 5.1202726 288.2502 5.2917508 288.42415 5.4973389 288.46305 C 5.7416243 288.51752 6.0072705 288.36809 6.0900675 288.13387 C 6.1698377 287.92914 6.0990777 287.67896 5.9241862 287.54528 C 5.6821996 287.34434 5.3622536 287.26065 5.0508545 287.26623 z " />
  </g>
</svg>
