<?xml version="1.0" encoding="UTF-8" standalone="no"?>
<svg
   width="128"
   height="128"
   viewBox="0 0 128 128"
   fill="none"
   version="1.1"
   id="svg5"
   sodipodi:docname="preferences-user-feedback.svg"
   inkscape:version="1.3.2 (091e20ef0f, 2023-11-25, custom)"
   xmlns:inkscape="http://www.inkscape.org/namespaces/inkscape"
   xmlns:sodipodi="http://sodipodi.sourceforge.net/DTD/sodipodi-0.dtd"
   xmlns="http://www.w3.org/2000/svg"
   xmlns:svg="http://www.w3.org/2000/svg">
  <sodipodi:namedview
     id="namedview5"
     pagecolor="#ffffff"
     bordercolor="#666666"
     borderopacity="1.0"
     inkscape:showpageshadow="2"
     inkscape:pageopacity="0.0"
     inkscape:pagecheckerboard="0"
     inkscape:deskcolor="#d1d1d1"
     inkscape:zoom="6.4765625"
     inkscape:cx="63.922799"
     inkscape:cy="64"
     inkscape:current-layer="svg5" />
  <style
    type="text/css"
    id="current-color-scheme">.ColorScheme-Text{color:#dddddd;}.ColorScheme-Background{color:#1a1a1a;}.ColorScheme-Highlight{color:#aaaaac30;}.ColorScheme-ViewText{color:#dddddd;}.ColorScheme-ViewBackground{color:#1a1a1a01;}.ColorScheme-ViewHover{color:#aaaaac30;}.ColorScheme-ViewFocus{color:#aaaaac30;}.ColorScheme-ButtonText{color:#bbbbbb;}.ColorScheme-ButtonBackground{color:#aaaaac20;}.ColorScheme-ButtonHover{color:#aaaaac30;}.ColorScheme-ButtonFocus{color:#aaaaac30;}.ColorScheme-NegativeText { color: #8500ff; } </style>
  <path
    class="ColorScheme-Text"
     fill-rule="evenodd"
     clip-rule="evenodd"
     d="M64 106.476C91.615 106.476 114 87.5366 114 61.2369C114 34.9396 91.615 16.0024 64 16C36.385 16 14 34.9396 14 61.2369C14 75.6381 20.712 87.8323 31.3193 95.9185C31.9542 96.4025 30.5132 105.877 26.4015 109.009C25.389 109.78 26.0415 111.363 27.3065 111.23C32.1431 110.723 39.2453 108.909 44.1695 102.97C50.2493 105.243 56.9544 106.476 64 106.476Z"
     stroke="currentColor"
     stroke-width="10"
     id="path1"
     style="stroke:currentColor" />
  <path
    class="ColorScheme-Text"
     fill-rule="evenodd"
     clip-rule="evenodd"
     d="M37.336 45.4644H89.7711C91.3177 45.4644 94.3571 47.8628 94.3571 50.8215C94.3571 53.7802 91.3177 56.1786 89.7711 56.1786H37.336C35.7895 56.1786 32.75 53.7802 32.75 50.8215C32.75 47.8628 35.7895 45.4644 37.336 45.4644ZM37.336 66.8929H89.7711C91.3177 66.8929 94.3571 69.2913 94.3571 72.25C94.3571 75.2087 91.3177 77.6071 89.7711 77.6071H37.336C35.7895 77.6071 32.75 75.2087 32.75 72.25C32.75 69.2913 35.7895 66.8929 37.336 66.8929Z"
     fill="currentColor"
     id="path2"
     style="fill:currentColor" />
  <defs
     id="defs5">
    <linearGradient
       id="paint0_linear_719_33"
       x1="119"
       y1="63.616619"
       x2="9"
       y2="116.23324"
       gradientUnits="userSpaceOnUse">
      <stop
         id="stop2"
         offset="0"
         style="stop-color:#006cff;stop-opacity:1;" />
      <stop
         offset="1"
         id="stop3"
         style="stop-color:#00f1fa;stop-opacity:1;" />
    </linearGradient>
    <linearGradient
       id="paint1_linear_719_33"
       x1="9"
       y1="116.23324"
       x2="119"
       y2="63.616619"
       gradientUnits="userSpaceOnUse">
      <stop
         id="stop4"
         offset="0"
         style="stop-color:#00f1fa;stop-opacity:1;" />
      <stop
         offset="1"
         id="stop5"
         style="stop-color:#006cff;stop-opacity:1;" />
    </linearGradient>
  </defs>
</svg>
