<?xml version="1.0" encoding="UTF-8" standalone="no"?>
<svg
   width="192"
   height="192"
   viewBox="0 0 192 192"
   fill="none"
   version="1.1"
   id="svg14"
   sodipodi:docname="redshift-symbolic.svg"
   inkscape:version="1.3.2 (091e20ef0f, 2023-11-25, custom)"
   xmlns:inkscape="http://www.inkscape.org/namespaces/inkscape"
   xmlns:sodipodi="http://sodipodi.sourceforge.net/DTD/sodipodi-0.dtd"
   xmlns="http://www.w3.org/2000/svg"
   xmlns:svg="http://www.w3.org/2000/svg">
  <style
    type="text/css"
    id="current-color-scheme">.ColorScheme-Text{color:#dddddd;}.ColorScheme-Background{color:#1a1a1a;}.ColorScheme-Highlight{color:#aaaaac30;}.ColorScheme-ViewText{color:#dddddd;}.ColorScheme-ViewBackground{color:#1a1a1a01;}.ColorScheme-ViewHover{color:#aaaaac30;}.ColorScheme-ViewFocus{color:#aaaaac30;}.ColorScheme-ButtonText{color:#bbbbbb;}.ColorScheme-ButtonBackground{color:#aaaaac20;}.ColorScheme-ButtonHover{color:#aaaaac30;}.ColorScheme-ButtonFocus{color:#aaaaac30;}.ColorScheme-NegativeText { color: #8500ff; } </style>
  <defs
     id="defs14">
    <linearGradient
       id="paint0_linear_678_278"
       x1="12.3287"
       y1="23"
       x2="12.3287"
       y2="1"
       gradientUnits="userSpaceOnUse"
       gradientTransform="matrix(40.54459,0,0,40.54459,2635.9193,2048.1586)">
      <stop
         stop-color="#FD5900"
         id="stop1" />
      <stop
         offset="1"
         stop-color="#FFDE00"
         id="stop2" />
    </linearGradient>
    <linearGradient
       id="_lgradient_58"
       x1="0.73568618"
       y1="0.5"
       x2="0.26568109"
       y2="0.75531918"
       gradientTransform="matrix(-70.592531,70.592531,70.882095,70.882095,66.415874,-2.5489864)"
       gradientUnits="userSpaceOnUse">
      <stop
         offset="0"
         stop-opacity="1"
         style="stop-color:#24d863;stop-opacity:1;"
         id="stop1-3" />
      <stop
         offset="1"
         stop-opacity="1"
         style="stop-color:#e5f230;stop-opacity:1;"
         id="stop3" />
    </linearGradient>
  </defs>
  <sodipodi:namedview
     id="namedview14"
     pagecolor="#505050"
     bordercolor="#ffffff"
     borderopacity="1"
     inkscape:showpageshadow="0"
     inkscape:pageopacity="0"
     inkscape:pagecheckerboard="1"
     inkscape:deskcolor="#505050"
     inkscape:zoom="3.1193721"
     inkscape:cx="103.38619"
     inkscape:cy="87.677902"
     inkscape:current-layer="svg14"
     showgrid="true">
    <inkscape:grid
       id="grid14"
       units="px"
       originx="0"
       originy="0"
       spacingx="1"
       spacingy="1"
       empcolor="#0099e5"
       empopacity="0.30196078"
       color="#0099e5"
       opacity="0.14901961"
       empspacing="5"
       dotted="false"
       gridanglex="30"
       gridanglez="30"
       visible="true" />
  </sodipodi:namedview>
  <path
     d="m 28.8574,9.567489 c 2.976,-1.42406 6.3068,0.0113 8.3213,2.31687 4.7845,4.9164 10.0496,9.4147 14.4793,14.6475 3.5711,5.2441 -3.3194,12.0932 -8.699,8.8495 -5.7345,-4.8034 -10.8852,-10.3075 -16.1848,-15.5855 -3.1018,-2.9499 -1.9115,-8.68 2.0832,-10.22837 z"
     fill="#ff4a7e"
     id="path1"
     style="display:none" />
  <path
     d="m 157.259,9.92153 c 3.755,-2.46385 9.432,0.31647 9.741,4.74687 0.606,3.4358 -2.347,5.8318 -4.51,8.0131 -4.292,4.0462 -8.31,8.3749 -12.739,12.2628 -3.652,2.8481 -9.787,0.3164 -10.176,-4.3061 -0.744,-3.7523 2.656,-6.2275 4.968,-8.6009 4.315,-3.9557 8.103,-8.4991 12.716,-12.11577 z"
     fill="#ff4b8b"
     id="path2"
     style="display:none" />
  <path
    class="ColorScheme-Text"
     id="path14-5"
     style="isolation:isolate;fill:currentColor;stroke-width:6.43789;fill-opacity:1"
     d="m 154.98425,135.68891 c 3.60151,-3.07843 9.27174,-1.89242 11.97639,1.796 14.93961,14.98742 1.01993,0.92551 15.89948,15.96994 3.70726,4.2244 1.2602,11.67596 -4.25195,12.83321 -3.88485,1.17104 -7.48834,-1.3538 -9.83519,-4.23013 -14.63612,-14.68394 -0.41296,-0.3185 -14.98903,-15.05949 -2.77534,-3.32972 -2.2198,-8.63371 1.20031,-11.30955 z"
     sodipodi:nodetypes="cccccccc" />
  <path
    class="ColorScheme-Text"
     id="path28"
     style="isolation:isolate;fill:currentColor;stroke-width:6.43789;fill-opacity:1"
     d="m 10.383575,2.7756874 c 3.601529,-3.07841346 9.271749,-1.89241396 11.976396,1.796016 14.939607,14.9874086 1.019926,0.925487 15.89948,15.9699336 3.707253,4.224402 1.260201,11.675959 -4.251952,12.833208 C 30.122647,34.545883 26.519168,32.021049 24.17231,29.144701 9.5361873,14.460778 23.759361,28.826216 9.1832793,14.085222 6.4079463,10.755504 6.9634873,5.4515134 10.383592,2.7756694 Z"
     sodipodi:nodetypes="cccccccc" />
  <path
    class="ColorScheme-Text"
     id="path29"
     style="isolation:isolate;fill:currentColor;stroke-width:6.43789;fill-opacity:1"
     d="m 182.86253,3.9701024 c 3.07841,3.601525 1.89239,9.2717396 -1.79603,11.9763916 -14.98741,14.939611 -0.92548,1.019934 -15.96993,15.899484 -4.22456,3.707081 -11.67614,1.260004 -12.83339,-4.252144 -1.17105,-3.884852 1.3538,-7.488336 4.23013,-9.83519 14.68394,-14.6361246 0.31853,-0.412948 15.05949,-14.9890226 3.32972,-2.77533806 8.63371,-2.21979396 11.30954,1.20031 z"
     sodipodi:nodetypes="cccccccc" />
  <path
    class="ColorScheme-Text"
     id="path30"
     style="isolation:isolate;fill:currentColor;stroke-width:6.43789;fill-opacity:1"
     d="m 38.261677,136.88312 c 3.078423,3.60154 1.892415,9.27175 -1.796014,11.9764 -14.987418,14.93961 -0.925494,1.01993 -15.969926,15.89947 -4.224437,3.7073 -11.6759637,1.26019 -12.8332337,-4.25193 -1.171036,-3.88486 1.353799,-7.48835 4.2301707,-9.83522 14.683912,-14.63612 0.318486,-0.41288 15.05947,-14.98901 3.329716,-2.77533 8.633709,-2.21979 11.309552,1.20032 z"
     sodipodi:nodetypes="cccccccc" />
  <path
     d="m 77.7435,32.9438 c 13.2775,-5.2329 28.8215,-4.7469 41.5265,1.8083 11.984,5.9788 21.118,16.9757 25.101,29.6 3.033,10.624 2.713,22.186 -1.362,32.5047 -3.159,-3.5375 -6.65,-6.7925 -10.633,-9.4259 l 0.034,-0.1921 c 2.919,-12.1271 -0.87,-25.5313 -9.878,-34.2791 -8.722,-8.7591 -21.999,-12.4549 -34.1093,-9.8102 -3.491,-3.481 -7.6803,-6.25 -10.6792,-10.2057 z"
     fill="#ff7a3e"
     id="path3"
     style="display:none" />
  <path
     d="m 56.0189,49.9194 c 5.5514,-7.448 13.0943,-13.3703 21.7246,-16.9757 2.9989,3.9557 7.1882,6.7247 10.6792,10.2058 -8.5044,2.1022 -16.2877,7.0299 -21.4728,14.0484 -3.7429,-2.2943 -7.3827,-4.7242 -10.931,-7.2785 z"
     fill="#ff7346"
     id="path4"
     style="display:none" />
  <path
     d="m 132.376,87.4309 c 3.983,2.6334 7.474,5.8884 10.633,9.4259 -3.285,8.3182 -8.962,15.5632 -15.979,21.1462 -2.918,-3.323 -6.1,-6.578 -10.301,-8.273 7.314,-5.708 13.529,-13.1557 15.647,-22.2991 z"
     fill="#ff7346"
     id="path5"
     style="display:none" />
  <path
     opacity="0.13"
     d="m 88.4227,43.1495 c 12.1103,-2.6447 25.3873,1.0511 34.1093,9.8102 9.008,8.7478 12.797,22.152 9.878,34.2791 C 131.7,79.576 131.803,71.4724 128.152,64.4539 123.505,54.9714 114.199,47.6929 103.657,45.8733 96.1259,45.0369 88.0335,44.9691 81.1659,48.5858 71.5855,53.1857 64.0655,62.2726 62.3485,72.7609 61.6961,77.7111 61.3299,82.6954 60.9636,87.6683 58.1822,77.293 60.563,65.844 66.9499,57.1979 72.1349,50.1794 79.9182,45.2517 88.4227,43.1495 Z"
     fill="#000000"
     id="path6"
     style="display:none" />
  <path
     d="m 48.8307,64.3182 c 1.6368,-5.1311 4.1778,-9.9345 7.1881,-14.3988 3.5483,2.5543 7.1881,4.9842 10.931,7.2786 -6.3869,8.646 -8.7677,20.095 -5.9863,30.4703 1.9,7.5723 6.3411,14.5567 12.5792,19.3827 2.6326,2.17 5.7688,4.205 6.8905,7.595 1.6254,4.838 2.1977,9.957 3.3308,14.908 8.5617,0 17.123,0 25.674,0.011 2.426,-6.612 3.731,-13.687 7.291,-19.835 4.2,1.695 7.382,4.95 10.301,8.273 -2.335,6.374 -4.04,12.963 -6.501,19.293 -1.225,3.356 -4.808,5.345 -8.344,5.142 -10.794,0.023 -21.5762,0.113 -32.3584,-0.045 -3.8001,0.09 -7.2339,-2.769 -7.9894,-6.397 -1.4078,-5.448 -2.2205,-11.031 -3.5368,-16.501 C 50.6391,107.707 42.5697,84.3907 48.8307,64.3182 Z"
     fill="#ff6a51"
     id="path7"
     style="display:none" />
  <path
     opacity="0.1"
     d="m 46.1066,68.1835 c 0.2976,-1.6388 1.3735,-2.9272 2.7242,-3.8653 -6.261,20.0725 1.8084,43.3888 19.4697,55.1768 1.3163,5.47 2.129,11.053 3.5368,16.501 0.7555,3.628 4.1893,6.487 7.9894,6.397 10.7822,0.158 21.5643,0.068 32.3583,0.045 3.537,0.203 7.119,-1.786 8.344,-5.142 2.461,-6.33 4.166,-12.919 6.501,-19.293 7.017,-5.583 12.694,-12.828 15.979,-21.1462 4.075,-10.3187 4.395,-21.8807 1.362,-32.5046 2.77,1.6953 2.987,5.1424 3.525,7.9905 2.404,16.3315 -3.617,33.4653 -15.601,44.9253 -6.341,5.629 -6.352,14.603 -9.969,21.7 -1.74,3.606 -5.414,6.16 -9.489,6.375 -8.287,0.553 -16.6081,-0.023 -24.8951,0.237 -5.0133,-0.034 -10.8623,0.633 -14.7997,-3.119 C 66.492,136.03 70.4409,124.456 62.772,118.738 48.2241,106.712 41.8258,86.3233 46.1066,68.1835 Z"
     fill="#000000"
     id="path8"
     style="display:none" />
  <path
     d="m 43.7259,116.918 c 4.979,-2.147 10.6333,3.424 8.3899,8.33 -1.7856,3.288 -5.0134,5.515 -7.5315,8.227 -3.1705,3.007 -6.0435,6.318 -9.4659,9.042 -3.6856,2.826 -9.7749,0.079 -10.0611,-4.521 -0.6066,-4.396 3.7429,-6.917 6.3068,-9.765 4.1893,-3.684 7.6002,-8.352 12.3618,-11.313 z"
     fill="#ff4972"
     id="path9"
     style="display:none" />
  <path
    class="ColorScheme-Text"
     d="m 150.53992,79.584815 c 0,-29.981725 -24.55171,-54.540135 -54.539774,-54.540135 -29.98894,0 -54.540504,24.55841 -54.540504,54.540135 0,16.242412 7.137196,31.237175 19.156825,41.565855 1.617208,1.39016 2.631917,3.37939 2.631917,5.51224 v 45.51716 c 0,3.05344 2.475488,5.52937 5.529065,5.52937 3.053653,0 5.529063,2.47518 5.529063,5.52861 0,3.05344 2.475492,5.52937 5.528991,5.52937 h 32.324837 c 3.05268,0 5.52564,-2.4737 5.52564,-5.52566 0,-3.05193 2.47593,-5.52562 5.52787,-5.52562 3.05344,0 5.53012,-2.47594 5.53012,-5.52939 v -45.49406 c 0,-2.14924 1.03144,-4.15185 2.66793,-5.54575 5.56806,-4.742 10.13221,-10.5668 13.4074,-17.13282 3.78497,-7.586333 5.74294,-15.951739 5.72062,-24.429305 z M 79.576524,166.76011 c -2.967105,0 -5.37226,-2.40525 -5.37226,-5.37159 0,-2.96712 2.405155,-5.37234 5.37226,-5.37234 h 32.853206 c 2.96711,0 5.37234,2.40522 5.37234,5.37234 0,2.96634 -2.40523,5.37159 -5.37234,5.37159 z m 0,-21.78852 c -2.967105,0 -5.37226,-2.40526 -5.37226,-5.37234 0,-2.96637 2.405155,-5.37235 5.37226,-5.37235 h 32.853206 c 2.96711,0 5.37234,2.40598 5.37234,5.37235 0,2.96708 -2.40523,5.37234 -5.37234,5.37234 z m 40.624086,-29.0645 c 0.0135,0 0.0201,0.0171 0.008,0.0252 l -2.10012,1.4043 c -0.192,0.12725 -0.30661,0.34306 -0.30661,0.57303 v 1.62978 c 0,2.06515 -1.6737,3.73884 -3.73883,3.73884 H 77.968494 c -2.078613,0 -3.763614,-1.68487 -3.763614,-3.7634 0,-1.23238 -0.603019,-2.38662 -1.614462,-3.08989 l -0.739128,-0.51427 c -5.996644,-3.96801 -10.91279,-9.3649 -14.306465,-15.7047 -3.393749,-6.339783 -5.158457,-13.423554 -5.135608,-20.614404 0,-24.046776 19.442073,-43.598024 43.591549,-43.598024 24.149104,0 43.590444,19.448922 43.590444,43.598024 0.0356,7.193087 -1.7243,14.281311 -5.11857,20.622594 -3.38609,6.32713 -8.29405,11.71138 -14.28035,15.66825 -0.0105,0.008 -0.005,0.0254 0.008,0.0244 z"
     stroke-width="4.46517"
     id="path1-7"
     style="display:inline;fill:currentColor;fill-opacity:1;stroke:currentColor;stroke-opacity:1" />
  <path
     d="m 143.444,116.94902 c 2.575,-1.108 5.643,-0.328 7.508,1.706 4.796,4.713 9.718,9.324 14.377,14.196 3.285,3.164 1.568,9.414 -2.93,10.443 -2.816,1.051 -5.609,-0.565 -7.486,-2.543 -4.579,-4.566 -9.306,-8.997 -13.758,-13.676 -3.022,-3.006 -1.683,-8.646 2.289,-10.126 z"
     fill="#ff4a7f"
     id="path10"
     style="display:none" />
  <path
     d="m 74.5729,153.763 c 1.6254,-1.91 3.7887,-3.64 6.4785,-3.402 10.3701,-0.068 20.7406,-0.068 31.1106,-0.012 2.678,-0.237 4.83,1.515 6.467,3.402 0.171,2.238 0.675,4.804 -0.927,6.691 -2.312,3.266 -6.776,2.566 -10.256,2.69 -9.2026,-0.237 -18.4167,0.283 -27.5964,-0.237 -4.5327,-0.272 -6.4098,-5.29 -5.2767,-9.132 z"
     fill="#b655ee"
     id="path11"
     style="display:none" />
  <path
     opacity="0.07"
     d="m 73.0391,161.719 c -1.6254,-2.678 -1.1675,-6.171 1.5338,-7.956 -1.1332,3.842 0.7439,8.86 5.2766,9.132 9.1797,0.52 18.3938,0 27.5965,0.237 3.48,-0.124 7.943,0.576 10.256,-2.69 1.602,-1.887 1.098,-4.453 0.927,-6.691 2.712,1.763 3.113,5.346 1.476,7.98 -2.369,4.566 -8.825,3.661 -11.778,7.662 -7.817,-0.203 -15.635,-0.192 -23.4527,0 -2.9187,-4.08 -9.5346,-2.995 -11.8352,-7.674 z"
     fill="#000000"
     id="path12"
     style="display:none" />
  <path
     d="m 84.8744,169.393 c 7.8177,-0.192 15.6356,-0.203 23.4526,0 2.496,0.498 4.075,2.611 5.266,4.646 -0.058,3.221 -1.397,7.097 -5.06,7.707 -6.055,0.588 -12.1553,0.068 -18.2217,0.272 -2.8501,-0.136 -6.2496,0.441 -8.4815,-1.741 -1.8314,-1.548 -1.9001,-4.102 -2.232,-6.272 1.2133,-2.012 2.7814,-4.114 5.2766,-4.612 z"
     fill="#b254ee"
     id="path13"
     style="display:none" />
  <path
     opacity="0.14"
     d="m 84.0501,173.92 c -3.03,-1.43 -3.12,-5.17 -2.4,-7.99 0.29,1.92 0.3499,4.18 1.9499,5.55 1.9501,1.93 4.9201,1.42 7.4101,1.54 5.3,-0.18 10.6299,0.28 15.9199,-0.24 3.2,-0.54 4.37,-3.97 4.42,-6.82 0.37,2.19 0.84,4.75 -0.77,6.6 -2.57,3.02 -6.99,2.63 -10.57,2.83 -5.3199,-0.17 -10.9399,0.62 -15.9599,-1.47 z"
     fill="#060307"
     id="path14"
     style="display:none" />
</svg>
