<?xml version="1.0" encoding="UTF-8" standalone="no"?>
<svg
   width="22"
   height="22"
   version="1.1"
   id="svg2"
   sodipodi:docname="battery-010-charging.svg"
   inkscape:version="1.4 (e7c3feb100, 2024-10-09)"
   xmlns:inkscape="http://www.inkscape.org/namespaces/inkscape"
   xmlns:sodipodi="http://sodipodi.sourceforge.net/DTD/sodipodi-0.dtd"
   xmlns:xlink="http://www.w3.org/1999/xlink"
   xmlns="http://www.w3.org/2000/svg"
   xmlns:svg="http://www.w3.org/2000/svg">
  <sodipodi:namedview
     id="namedview2"
     pagecolor="#505050"
     bordercolor="#ffffff"
     borderopacity="1"
     inkscape:showpageshadow="0"
     inkscape:pageopacity="0"
     inkscape:pagecheckerboard="1"
     inkscape:deskcolor="#505050"
     inkscape:zoom="22.627417"
     inkscape:cx="3.3808543"
     inkscape:cy="8.4189901"
     inkscape:current-layer="svg2" />
  <defs
     id="defs1">
    <linearGradient
       id="linearGradient9"
       inkscape:collect="always">
      <stop
         style="stop-color:#ff69ff;stop-opacity:1;"
         offset="0"
         id="stop9" />
      <stop
         style="stop-color:#9033dd;stop-opacity:1;"
         offset="1"
         id="stop8" />
    </linearGradient>
    <linearGradient
       id="linearGradient7"
       inkscape:collect="always">
      <stop
         style="stop-color:#ff69ff;stop-opacity:1;"
         offset="0"
         id="stop7" />
      <stop
         style="stop-color:#9033dd;stop-opacity:1;"
         offset="1"
         id="stop6" />
    </linearGradient>
    <linearGradient
       id="linearGradient4"
       inkscape:collect="always">
      <stop
         style="stop-color:#e5f230;stop-opacity:1;"
         offset="0"
         id="stop4" />
      <stop
         style="stop-color:#24d864;stop-opacity:1;"
         offset="1"
         id="stop5" />
    </linearGradient>
    <linearGradient
       id="linearGradient2"
       inkscape:collect="always">
      <stop
         style="stop-color:#9033dd;stop-opacity:1;"
         offset="0"
         id="stop2" />
      <stop
         style="stop-color:#ff69ff;stop-opacity:1;"
         offset="1"
         id="stop3" />
    </linearGradient>
    <style
       id="current-color-scheme"
       type="text/css">.ColorScheme-NegativeText {
                color:#da4453;
            }
            .ColorScheme-PositiveText {
                color:#27ae60;
            }</style>
    <linearGradient
       inkscape:collect="always"
       xlink:href="#linearGradient2"
       id="linearGradient3"
       x1="5.7190175"
       y1="13"
       x2="20"
       y2="8"
       gradientUnits="userSpaceOnUse" />
    <linearGradient
       inkscape:collect="always"
       xlink:href="#linearGradient4"
       id="linearGradient5"
       x1="8.0229988"
       y1="13.797345"
       x2="12.5"
       y2="10"
       gradientUnits="userSpaceOnUse" />
    <linearGradient
       inkscape:collect="always"
       xlink:href="#linearGradient9"
       id="linearGradient1"
       gradientUnits="userSpaceOnUse"
       x1="-1"
       y1="14"
       x2="8.5"
       y2="2" />
    <linearGradient
       inkscape:collect="always"
       xlink:href="#linearGradient7"
       id="linearGradient6"
       gradientUnits="userSpaceOnUse"
       x1="-1"
       y1="14"
       x2="8.5"
       y2="2" />
  </defs>
  <g
     class="ColorScheme-NegativeText"
     transform="translate(1,3)"
     fill="currentColor"
     id="g1"
     style="fill:url(#linearGradient3)">
    <rect
       x="2"
       y="5"
       width="1"
       height="6"
       rx=".5"
       ry=".5"
       stroke-width=".57735"
       id="rect1"
       style="fill:url(#linearGradient1)" />
    <path
       d="M 2,2 C 0.892,2 -1,3.892 -1,5 v 6 c 0,1.108 1.892,3 3,3 h 13 c 1.108,0 3,-1.892 3,-3 V 5 C 18,3.892 16.108,2 15,2 Z m 0,2 h 13 c 0.554,0 1,0.446 1,1 v 6 c 0,0.554 -0.446,1 -1,1 H 2 C 1.446,12 1,11.554 1,11 V 5 C 1,4.446 1.446,4 2,4 Z m 17,2 v 4 c 1.104569,0 2,-0.8954305 2,-2 0,-1.1045695 -0.895431,-2 -2,-2 z"
       id="path1"
       style="fill:url(#linearGradient6)"
       sodipodi:nodetypes="ssssssssssssssssssccsc" />
  </g>
  <path
     class="ColorScheme-PositiveText"
     d="m9.834 7-3.334 5h3l-0.75 3h0.416l3.334-5h-3l0.75-3z"
     fill="currentColor"
     id="path2"
     style="fill:url(#linearGradient5)" />
</svg>
