<?xml version="1.0" encoding="UTF-8" standalone="no"?>
<svg
   width="22"
   height="22"
   version="1.1"
   id="svg4"
   sodipodi:docname="battery-good-charging.svg"
   inkscape:version="1.4 (e7c3feb100, 2024-10-09)"
   xmlns:inkscape="http://www.inkscape.org/namespaces/inkscape"
   xmlns:sodipodi="http://sodipodi.sourceforge.net/DTD/sodipodi-0.dtd"
   xmlns:xlink="http://www.w3.org/1999/xlink"
   xmlns="http://www.w3.org/2000/svg"
   xmlns:svg="http://www.w3.org/2000/svg">
  <sodipodi:namedview
     id="namedview4"
     pagecolor="#505050"
     bordercolor="#ffffff"
     borderopacity="1"
     inkscape:showpageshadow="0"
     inkscape:pageopacity="0"
     inkscape:pagecheckerboard="1"
     inkscape:deskcolor="#505050"
     inkscape:zoom="32"
     inkscape:cx="13.109375"
     inkscape:cy="11.640625"
     inkscape:current-layer="svg4" />
  <defs
     id="defs1">
    <linearGradient
       id="linearGradient16"
       inkscape:collect="always">
      <stop
         style="stop-color:#00f1fa;stop-opacity:1;"
         offset="0"
         id="stop16" />
      <stop
         style="stop-color:#006cff;stop-opacity:1;"
         offset="1"
         id="stop15" />
    </linearGradient>
    <linearGradient
       id="linearGradient14"
       inkscape:collect="always">
      <stop
         style="stop-color:#00f1fa;stop-opacity:1;"
         offset="0"
         id="stop14" />
      <stop
         style="stop-color:#006cff;stop-opacity:1;"
         offset="1"
         id="stop13" />
    </linearGradient>
    <linearGradient
       id="linearGradient12"
       inkscape:collect="always">
      <stop
         style="stop-color:#00f1fa;stop-opacity:1;"
         offset="0"
         id="stop12" />
      <stop
         style="stop-color:#006cff;stop-opacity:1;"
         offset="1"
         id="stop11" />
    </linearGradient>
    <linearGradient
       id="linearGradient7"
       inkscape:collect="always">
      <stop
         style="stop-color:#00f1fa;stop-opacity:1;"
         offset="0"
         id="stop7" />
      <stop
         style="stop-color:#006cff;stop-opacity:1;"
         offset="1"
         id="stop6" />
    </linearGradient>
    <linearGradient
       id="linearGradient5"
       inkscape:collect="always">
      <stop
         style="stop-color:#e5f230;stop-opacity:1;"
         offset="0"
         id="stop4" />
      <stop
         style="stop-color:#24d864;stop-opacity:1;"
         offset="1"
         id="stop5" />
    </linearGradient>
    <linearGradient
       id="linearGradient1"
       inkscape:collect="always">
      <stop
         style="stop-color:#00f1fa;stop-opacity:1;"
         offset="0"
         id="stop2" />
      <stop
         style="stop-color:#006cff;stop-opacity:1;"
         offset="1"
         id="stop1" />
    </linearGradient>
    <style
       id="current-color-scheme"
       type="text/css">
   .ColorScheme-Text { color:#dddddd; } .ColorScheme-Highlight { color:#4285f4; }
  </style>
    <linearGradient
       inkscape:collect="always"
       xlink:href="#linearGradient7"
       id="linearGradient2"
       x1="1"
       y1="18"
       x2="10.5"
       y2="6"
       gradientUnits="userSpaceOnUse" />
    <linearGradient
       inkscape:collect="always"
       xlink:href="#linearGradient5"
       id="linearGradient3"
       x1="8.9893808"
       y1="14.922478"
       x2="13.5"
       y2="11"
       gradientUnits="userSpaceOnUse" />
    <linearGradient
       inkscape:collect="always"
       xlink:href="#linearGradient12"
       id="linearGradient4"
       x1="1"
       y1="18"
       x2="10.5"
       y2="6"
       gradientUnits="userSpaceOnUse" />
    <linearGradient
       inkscape:collect="always"
       xlink:href="#linearGradient14"
       id="linearGradient9"
       gradientUnits="userSpaceOnUse"
       x1="1"
       y1="18"
       x2="10.5"
       y2="6" />
    <linearGradient
       inkscape:collect="always"
       xlink:href="#linearGradient1"
       id="linearGradient10"
       gradientUnits="userSpaceOnUse"
       x1="1"
       y1="18"
       x2="10.5"
       y2="6" />
    <linearGradient
       inkscape:collect="always"
       xlink:href="#linearGradient16"
       id="linearGradient11"
       gradientUnits="userSpaceOnUse"
       x1="1"
       y1="18"
       x2="10.5"
       y2="6" />
  </defs>
  <g
     transform="translate(-1,-1)"
     class="ColorScheme-Text"
     fill="currentColor"
     id="g4">
    <path
       d="m10.834 8-3.334 5h3l-0.75 3h0.416l3.334-5h-3l0.75-3z"
       id="path1"
       style="fill:url(#linearGradient3)" />
    <g
       id="g3">
      <path
         d="M 4,6 C 2.892,6 1,7.892 1,9 v 6 c 0,1.108 1.892,3 3,3 h 13 c 1.108,0 3,-1.892 3,-3 V 9 C 20,7.892 18.108,6 17,6 Z m 0,2 h 13 c 0.554,0 1,0.446 1,1 v 6 c 0,0.554 -0.446,1 -1,1 H 4 C 3.446,16 3,15.554 3,15 V 9 C 3,8.446 3.446,8 4,8 Z"
         id="path2"
         sodipodi:nodetypes="ssssssssssssssssss"
         style="fill:url(#linearGradient2)" />
      <path
         style="fill:url(#linearGradient4)"
         d="m 21,10 v 4 c 1.104569,0 2,-0.895431 2,-2 0,-1.104569 -0.895431,-2 -2,-2 z"
         id="path9" />
      <path
         style="fill:url(#linearGradient11)"
         d="M 14.001,12.053 12.034,15 h 1.414 c 0.304147,5.53e-4 0.551001,-0.245852 0.551,-0.55 v -2.397 z"
         id="path8" />
      <path
         style="fill:url(#linearGradient10)"
         d="m 12.031,9 -0.25,1 h 1.72 c 0.187,0 0.355,0.053 0.5,0.137 V 9.55 C 14.001005,9.2450679 13.752928,8.9983367 13.448,9 H 12.03 Z"
         id="path7" />
      <path
         style="fill:url(#linearGradient9)"
         d="M 4.55,9 C 4.2462434,9 4,9.2462434 4,9.55 v 4.9 C 4,14.754 4.246,15 4.55,15 H 8.97 L 9.22,14 H 7.5 C 6.7010736,14.00012 6.2245958,13.109587 6.668,12.445 L 8.965,9 Z"
         id="path3" />
    </g>
  </g>
</svg>
