<?xml version="1.0" encoding="UTF-8" standalone="no"?>
<svg
   width="22"
   height="22"
   version="1.1"
   id="svg3"
   sodipodi:docname="battery-040-charging.svg"
   inkscape:version="1.4 (e7c3feb100, 2024-10-09)"
   xmlns:inkscape="http://www.inkscape.org/namespaces/inkscape"
   xmlns:sodipodi="http://sodipodi.sourceforge.net/DTD/sodipodi-0.dtd"
   xmlns:xlink="http://www.w3.org/1999/xlink"
   xmlns="http://www.w3.org/2000/svg"
   xmlns:svg="http://www.w3.org/2000/svg">
  <sodipodi:namedview
     id="namedview3"
     pagecolor="#505050"
     bordercolor="#ffffff"
     borderopacity="1"
     inkscape:showpageshadow="0"
     inkscape:pageopacity="0"
     inkscape:pagecheckerboard="1"
     inkscape:deskcolor="#505050"
     inkscape:zoom="32"
     inkscape:cx="11.515625"
     inkscape:cy="16.046875"
     inkscape:current-layer="svg3" />
  <defs
     id="defs1">
    <linearGradient
       id="linearGradient7"
       inkscape:collect="always">
      <stop
         style="stop-color:#b900ff;stop-opacity:1;"
         offset="0"
         id="stop7" />
      <stop
         style="stop-color:#6444ff;stop-opacity:1;"
         offset="1"
         id="stop6" />
    </linearGradient>
    <linearGradient
       id="linearGradient5"
       inkscape:collect="always">
      <stop
         style="stop-color:#e5f230;stop-opacity:1;"
         offset="0"
         id="stop4" />
      <stop
         style="stop-color:#24d864;stop-opacity:1;"
         offset="1"
         id="stop5" />
    </linearGradient>
    <linearGradient
       id="linearGradient1"
       inkscape:collect="always">
      <stop
         style="stop-color:#b900ff;stop-opacity:1;"
         offset="0"
         id="stop2" />
      <stop
         style="stop-color:#6444ff;stop-opacity:1;"
         offset="1"
         id="stop1" />
    </linearGradient>
    <style
       id="current-color-scheme"
       type="text/css">
   .ColorScheme-Text { color:#dddddd; } .ColorScheme-Highlight { color:#4285f4; }
  </style>
    <linearGradient
       inkscape:collect="always"
       xlink:href="#linearGradient7"
       id="linearGradient2"
       x1="1"
       y1="18"
       x2="10.5"
       y2="6"
       gradientUnits="userSpaceOnUse" />
    <linearGradient
       inkscape:collect="always"
       xlink:href="#linearGradient1"
       id="linearGradient3"
       x1="1"
       y1="18"
       x2="10.5"
       y2="6"
       gradientUnits="userSpaceOnUse" />
    <linearGradient
       inkscape:collect="always"
       xlink:href="#linearGradient5"
       id="linearGradient4"
       x1="9.0000601"
       y1="14.872582"
       x2="13.5"
       y2="11"
       gradientUnits="userSpaceOnUse" />
  </defs>
  <g
     transform="translate(-1,-1)"
     class="ColorScheme-Text"
     fill="currentColor"
     id="g3">
    <g
       fill-rule="evenodd"
       paint-order="stroke fill markers"
       id="g2">
      <path
         d="m4.531 9a0.537 0.537 0 0 0-0.531 0.545v4.91c0 0.303 0.237 0.545 0.531 0.545h3.939a0.537 0.537 0 0 0 0.53-0.545v-0.455h-1.5a1 1 0 0 1-0.832-1.555l2.184-3.275a0.523 0.523 0 0 0-0.383-0.17h-3.939z"
         id="path1"
         style="fill:url(#linearGradient3)" />
      <path
         d="M 4,6 C 2.892,6 1,7.892 1,9 v 6 c 0,1.108 1.892,3 3,3 h 13 c 1.108,0 3,-1.892 3,-3 V 9 C 20,7.892 18.108,6 17,6 Z m 0,2 h 13 c 0.554,0 1,0.446 1,1 v 6 c 0,0.554 -0.446,1 -1,1 H 4 C 3.446,16 3,15.554 3,15 V 9 C 3,8.446 3.446,8 4,8 Z m 17,2 v 4 c 1.104569,0 2,-0.895431 2,-2 0,-1.104569 -0.895431,-2 -2,-2 z"
         id="path2"
         sodipodi:nodetypes="ssssssssssssssssssccsc"
         style="fill:url(#linearGradient2)" />
    </g>
    <path
       d="m10.834 8-3.334 5h3l-0.75 3h0.416l3.334-5h-3l0.75-3z"
       id="path3"
       style="fill:url(#linearGradient4)" />
  </g>
</svg>
