<?xml version="1.0" encoding="UTF-8" standalone="no"?>
<svg
   width="23"
   height="22"
   viewBox="0 0 23 22"
   fill="none"
   version="1.1"
   id="svg2"
   sodipodi:docname="network-wired-unavailable.svg"
   inkscape:version="1.3.2 (091e20ef0f, 2023-11-25, custom)"
   xmlns:inkscape="http://www.inkscape.org/namespaces/inkscape"
   xmlns:sodipodi="http://sodipodi.sourceforge.net/DTD/sodipodi-0.dtd"
   xmlns:xlink="http://www.w3.org/1999/xlink"
   xmlns="http://www.w3.org/2000/svg"
   xmlns:svg="http://www.w3.org/2000/svg">
  <sodipodi:namedview
     id="namedview2"
     pagecolor="#505050"
     bordercolor="#ffffff"
     borderopacity="1"
     inkscape:showpageshadow="0"
     inkscape:pageopacity="0"
     inkscape:pagecheckerboard="1"
     inkscape:deskcolor="#505050"
     inkscape:zoom="26.039976"
     inkscape:cx="14.573746"
     inkscape:cy="14.63135"
     inkscape:current-layer="svg2" />
  <path
     d="M3.34375 2.75C3.34375 2.75 1.96875 2.75 1.96875 4.125V16.5C1.96875 17.875 3.34375 17.875 3.34375 17.875H6.09375L7.46875 19.25H15.7188L17.0938 17.875H19.8438C19.8438 17.875 21.2188 18.0537 21.2188 16.5V4.125C21.2188 2.75 19.8438 2.75 19.8438 2.75H3.34375ZM4.71875 5.5H18.4688V15.125H15.7188L14.3438 16.5H8.84375L7.46875 15.125H4.71875V5.5Z"
     fill="url(#paint0_linear_451_1612)"
     id="path1"
     style="fill:url(#paint0_linear_451_1612)" />
  <defs
     id="defs2">
    <linearGradient
       id="linearGradient8"
       inkscape:collect="always">
      <stop
         style="stop-color:#f1fa00;stop-opacity:1;"
         offset="0"
         id="stop7" />
      <stop
         style="stop-color:#ff6900;stop-opacity:1;"
         offset="1"
         id="stop8" />
    </linearGradient>
    <linearGradient
       id="linearGradient2"
       inkscape:collect="always">
      <stop
         style="stop-color:#f1fa00;stop-opacity:1;"
         offset="0"
         id="stop5" />
      <stop
         style="stop-color:#ff6900;stop-opacity:1;"
         offset="1"
         id="stop6" />
    </linearGradient>
    <linearGradient
       id="linearGradient1"
       inkscape:collect="always">
      <stop
         style="stop-color:#f1fa00;stop-opacity:1;"
         offset="0"
         id="stop3" />
      <stop
         style="stop-color:#ff6900;stop-opacity:1;"
         offset="1"
         id="stop4" />
    </linearGradient>
    <linearGradient
       id="paint0_linear_451_1612"
       x1="3.5048497"
       y1="19.25"
       x2="21.2188"
       y2="10.3125"
       gradientUnits="userSpaceOnUse">
      <stop
         id="stop1"
         offset="0"
         style="stop-color:#f1fa00;stop-opacity:1;" />
      <stop
         offset="1"
         id="stop2"
         style="stop-color:#ff6900;stop-opacity:1;" />
    </linearGradient>
    <linearGradient
       inkscape:collect="always"
       xlink:href="#linearGradient1"
       id="linearGradient4"
       x1="3.4880908"
       y1="19.25"
       x2="21.2188"
       y2="10.3125"
       gradientUnits="userSpaceOnUse" />
    <linearGradient
       inkscape:collect="always"
       xlink:href="#linearGradient2"
       id="linearGradient6"
       x1="3.5172129"
       y1="19.25"
       x2="21.2188"
       y2="10.3125"
       gradientUnits="userSpaceOnUse" />
    <linearGradient
       inkscape:collect="always"
       xlink:href="#linearGradient8"
       id="linearGradient7"
       x1="3.5059648"
       y1="19.25"
       x2="21.2188"
       y2="10.3125"
       gradientUnits="userSpaceOnUse" />
  </defs>
  <path
     id="path3"
     style="display:none;fill:url(#linearGradient4);fill-opacity:1;fill-rule:evenodd;stroke:none;stroke-width:0.0139475"
     d="m 9.043638,7.25 c -0.125545,0 -0.251017,0.04761 -0.346275,0.142838 l -0.0101,0.00866 -0.285676,0.2871194 -0.0087,0.00866 c -0.1905159,0.1905378 -0.1905159,0.5035302 0,0.6939919 l 0.294334,0.294329 1.815056,1.8150567 -1.815056,1.815056 c -0.0052,0.0053 -0.0095,0.01048 -0.01443,0.01588 l -0.279905,0.279905 c -0.1905147,0.190537 -0.1905147,0.50205 0,0.692549 l 0.0087,0.0087 0.285677,0.285676 0.0101,0.0101 c 0.107165,0.107136 0.253174,0.153345 0.393887,0.139953 0.109444,-0.01042 0.215309,-0.05662 0.298662,-0.139953 l 0.294333,-0.294333 0.0015,-0.0015 1.813613,-1.815056 1.815057,1.815056 0.295776,0.295776 c 0.09524,0.09529 0.220712,0.142838 0.346273,0.142838 0.0157,0 0.03053,-0.0014 0.04617,-0.0028 0.109452,-0.01042 0.216773,-0.05658 0.300104,-0.139953 l 0.0087,-0.0101 0.287119,-0.285676 0.0087,-0.0087 c 0.190515,-0.190536 0.190515,-0.502012 0,-0.692549 l -0.261186,-0.259682 c -0.01042,-0.0128 -0.02272,-0.02416 -0.03462,-0.03608 l -1.81506,-1.815055 1.815056,-1.8150551 c 0.01191,-0.011908 0.02421,-0.023277 0.03462,-0.036072 l 0.261149,-0.2597062 c 0.190516,-0.1904987 0.190516,-0.5019752 0,-0.6925492 l -0.0087,-0.00866 -0.287119,-0.2871194 -0.0087,-0.00866 c -0.190475,-0.190538 -0.502074,-0.1904635 -0.692549,0 L 11.500756,9.502228 9.685699,7.6886138 9.684199,7.6872138 9.389866,7.3928807 C 9.294681,7.2976445 9.169183,7.250037 9.043638,7.250037 Z"
     sodipodi:nodetypes="scccsccccccsccssccccccsscccscccccccsccscccccs" />
  <path
     inkscape:connector-curvature="0"
     d="m 9.6118558,7.4620435 4.9261262,4.9261615 c 0.294579,0.294581 0.280286,0.790957 -0.03177,1.103094 l -0.01501,0.0149 c -0.31214,0.312143 -0.808403,0.326433 -1.103003,0.03177 L 8.4620149,8.6118283 C 8.1673252,8.3172279 8.1816168,7.8208756 8.4937804,7.5087999 l 0.014984,-0.014984 C 8.8209048,7.1816754 9.3171896,7.167383 9.6118549,7.46205"
     style="display:inline;fill:url(#linearGradient7);fill-opacity:1;fill-rule:evenodd;stroke:none;stroke-width:0.022202"
     id="path20-2"
     sodipodi:nodetypes="cccccccsc" />
  <path
     inkscape:connector-curvature="0"
     d="M 14.537981,8.6118371 9.61182,13.537966 C 9.3172392,13.832542 8.820865,13.81825 8.5087257,13.506196 l -0.014887,-0.01499 C 8.181697,13.179065 8.1674094,12.682804 8.4620817,12.388203 L 13.38822,7.4620158 c 0.294598,-0.2946897 0.790953,-0.2804005 1.103027,0.031765 l 0.01499,0.014992 c 0.312139,0.3121392 0.326429,0.8084192 0.03176,1.1030877"
     style="fill:url(#linearGradient6);fill-opacity:1;fill-rule:evenodd;stroke:none;stroke-width:0.0222019"
     id="path1-6"
     sodipodi:nodetypes="cccccccsc" />
</svg>
