<?xml version="1.0" encoding="UTF-8" standalone="no"?>
<svg
   width="22"
   height="22"
   version="1.1"
   id="svg1"
   sodipodi:docname="network-wireless-off.svg"
   inkscape:version="1.4 (e7c3feb100, 2024-10-09)"
   xmlns:inkscape="http://www.inkscape.org/namespaces/inkscape"
   xmlns:sodipodi="http://sodipodi.sourceforge.net/DTD/sodipodi-0.dtd"
   xmlns:xlink="http://www.w3.org/1999/xlink"
   xmlns="http://www.w3.org/2000/svg"
   xmlns:svg="http://www.w3.org/2000/svg">
  <defs
     id="defs1">
    <linearGradient
       id="linearGradient1"
       inkscape:collect="always">
      <stop
         style="stop-color:#ff69ff;stop-opacity:1;"
         offset="0"
         id="stop1" />
      <stop
         style="stop-color:#9033dd;stop-opacity:1;"
         offset="1"
         id="stop2" />
    </linearGradient>
    <linearGradient
       inkscape:collect="always"
       xlink:href="#linearGradient1"
       id="linearGradient2"
       x1="-10.999947"
       y1="65.100998"
       x2="-0.99996716"
       y2="52.535172"
       gradientUnits="userSpaceOnUse" />
    <linearGradient
       inkscape:collect="always"
       xlink:href="#linearGradient1"
       id="linearGradient4"
       x1="11.000053"
       y1="21.101"
       x2="21.000032"
       y2="8.5351725"
       gradientUnits="userSpaceOnUse" />
    <linearGradient
       inkscape:collect="always"
       xlink:href="#linearGradient1"
       id="linearGradient6"
       x1="11.000053"
       y1="21.101"
       x2="21.000032"
       y2="8.5351725"
       gradientUnits="userSpaceOnUse" />
  </defs>
  <sodipodi:namedview
     id="namedview1"
     pagecolor="#505050"
     bordercolor="#ffffff"
     borderopacity="1"
     inkscape:showpageshadow="0"
     inkscape:pageopacity="0"
     inkscape:pagecheckerboard="1"
     inkscape:deskcolor="#505050"
     inkscape:zoom="24.523749"
     inkscape:cx="15.005862"
     inkscape:cy="12.885469"
     inkscape:current-layer="network-wireless-100-locked" />
  <style
     type="text/css"
     id="current-color-scheme">.ColorScheme-Text{color:#dddddd;}.ColorScheme-Background{color:#1a1a1a;}.ColorScheme-Highlight{color:#aaaaac30;}.ColorScheme-ViewText{color:#dddddd;}.ColorScheme-ViewBackground{color:#1a1a1a01;}.ColorScheme-ViewHover{color:#aaaaac30;}.ColorScheme-ViewFocus{color:#aaaaac30;}.ColorScheme-ButtonText{color:#bbbbbb;}.ColorScheme-ButtonBackground{color:#aaaaac20;}.ColorScheme-ButtonHover{color:#aaaaac30;}.ColorScheme-ButtonFocus{color:#aaaaac30;}.ColorScheme-NegativeText { color: #8500ff; } </style>
  <g
     transform="translate(0,20) translate(22,-64)"
     id="network-wireless-100-locked">
    <path
       class="ColorScheme-Text"
       id="path4340"
       transform="translate(0,-20)"
       d="m -3,76 c -1.108,0 -2,0.892 -2,2 v 2 h -1 v 3 h 6 v -3 h -1 v -2 c 0,-1.108 -0.892,-2 -2,-2 z m 0,1 c 0.554,0 1,0.446 1,1 v 2 h -2 v -2 c 0,-0.554 0.446,-1 1,-1 z"
       style="display:none;opacity:1;fill:currentColor;fill-opacity:1;stroke:none;stroke-width:0.1;stroke-miterlimit:4;stroke-dasharray:none;stroke-opacity:1" />
    <path
       class="ColorScheme-Text"
       id="path3"
       d="m 11.000053,17.101 c -1.1045599,0 -1.9999999,0.89543 -1.9999999,1.999999 0,1.10457 0.89544,2.000001 1.9999999,2.000001 1.10456,0 2,-0.895431 2,-2.000001 0,-1.104569 -0.89544,-1.999999 -2,-1.999999 z"
       style="display:inline;fill:url(#linearGradient6);fill-opacity:1;stroke-width:2"
       sodipodi:nodetypes="sssss"
       transform="translate(-22,44)" />
    <path
       style="color:#dddddd;fill:url(#linearGradient4)"
       d="m 11,0.8984375 c -3.8915303,0 -6.5564341,1.0773405 -9.1679688,2.7441406 C 0.99726554,4.175439 0.74855525,5.3022262 1.28125,6.1367187 1.8140879,6.9714355 2.9408587,7.2202115 3.7753906,6.6875 5.9821165,5.2789789 7.8617315,4.5136719 11,4.5136719 c 3.14329,0 5.072128,0.7723056 7.208984,2.1660156 0.829264,0.5406937 1.960672,0.3023627 2.501953,-0.5273438 C 21.252472,5.3220885 21.011081,4.1912003 20.181641,3.6503906 17.602715,1.9684242 14.885996,0.8984375 11,0.8984375 Z m 0,1.3320313 c 3.64877,0 6.011128,0.9431737 8.455078,2.5371093 0.226884,0.1479323 0.285879,0.4325124 0.138672,0.6582031 C 19.44591,5.6523988 19.162609,5.7105481 18.935547,5.5625 16.670501,4.0851818 14.37168,3.1816406 11,3.1816406 c -3.3660853,0 -5.6189352,0.9036127 -7.9394531,2.3847656 C 2.8322086,5.7121627 2.5479359,5.6499522 2.4023438,5.421875 2.2566085,5.1935736 2.3187707,4.909279 2.546875,4.7636719 5.0381984,3.173596 7.3462245,2.2304687 11,2.2304688 Z m 0,4.2167968 c -2.8263452,0 -4.7253664,0.7640694 -6.6484375,1.8867188 C 3.4954918,8.8335737 3.2036913,9.9510928 3.703125,10.806641 4.2021901,11.661559 5.3189119,11.95416 6.1738281,11.455078 7.7645242,10.52648 8.9075765,10.0625 11,10.0625 c 2.082079,0 3.247202,0.487994 4.835938,1.400391 0.859102,0.493395 1.975582,0.190785 2.468749,-0.667969 C 18.797993,9.9357943 18.495283,8.8193923 17.636719,8.3261719 15.747265,7.2410465 13.836546,6.4472656 11,6.4472656 Z m 0,1.3320313 c 2.597974,0 4.167598,0.6664683 5.972656,1.703125 0.234636,0.1347915 0.310336,0.4141006 0.175781,0.6484371 C 17.013669,10.365532 16.734325,10.441217 16.5,10.306641 14.833153,9.349385 13.306047,8.7304688 11,8.7304688 c -2.3066623,0 -3.821553,0.5974874 -5.4980469,1.5761722 C 5.2679333,10.443256 4.9881952,10.368823 4.8515625,10.134766 4.7152982,9.90134 4.7905342,9.6183405 5.0234375,9.4824219 6.8529104,8.4144133 8.4027094,7.7792969 11,7.7792969 Z m 0,3.9589841 c -1.5240062,0 -2.8854657,0.397492 -4.0996094,1.017578 -0.8814021,0.450156 -1.2395861,1.549513 -0.7890625,2.431641 0.4501551,0.881402 1.5495122,1.23959 2.4316407,0.789063 C 9.3359229,15.571579 10.116438,15.353516 11,15.353516 c 0.855402,0 1.674353,0.230629 2.466797,0.628906 0.885305,0.44491 1.982916,0.08039 2.427734,-0.804688 C 16.339484,14.292433 15.974916,13.194833 15.089844,12.75 13.896162,12.150086 12.517451,11.738281 11,11.738281 Z m 0,1.332032 c 1.276789,0 2.446543,0.345579 3.492188,0.871093 0.241583,0.121419 0.332237,0.397328 0.210937,0.638672 -0.121398,0.241553 -0.397295,0.332241 -0.638672,0.210938 C 13.125375,14.319042 12.095756,14.021484 11,14.021484 c -1.1085399,0 -2.1209662,0.286712 -3.0625,0.767579 C 7.6966745,14.912059 7.4221951,14.823583 7.2988281,14.582031 7.1758317,14.341203 7.2643075,14.066726 7.5058594,13.943359 8.5690937,13.400345 9.7051484,13.070313 11,13.070313 Z"
       id="path1659-7"
       transform="translate(-22,44)" />
    <path
       class="ColorScheme-Text"
       inkscape:connector-curvature="0"
       d="M -5.203874,65.021699 -18.435266,46.125262 c -0.293894,-0.419731 -0.170568,-1.017919 0.274073,-1.329355 l 0.02134,-0.01483 c 0.444754,-0.31142 1.048909,-0.222735 1.342814,0.197111 l 13.231471,18.89642 c 0.294028,0.419776 0.170708,1.017942 -0.274059,1.329275 l -0.02136,0.01496 c -0.444714,0.311469 -1.048928,0.22273 -1.342914,-0.197129"
       style="fill:url(#linearGradient2);fill-opacity:1;fill-rule:evenodd;stroke:none;stroke-width:0.0273073"
       id="path4"
       sodipodi:nodetypes="cccccccsc" />
  </g>
</svg>
