<svg xmlns="http://www.w3.org/2000/svg" height="16.001" width="16">
    <style
        type="text/css"
        id="current-color-scheme">.ColorScheme-Text{color:#dddddd;}.ColorScheme-Background{color:#1a1a1a;}.ColorScheme-Highlight{color:#aaaaac30;}.ColorScheme-ViewText{color:#dddddd;}.ColorScheme-ViewBackground{color:#1a1a1a01;}.ColorScheme-ViewHover{color:#aaaaac30;}.ColorScheme-ViewFocus{color:#aaaaac30;}.ColorScheme-ButtonText{color:#bbbbbb;}.ColorScheme-ButtonBackground{color:#aaaaac20;}.ColorScheme-ButtonHover{color:#aaaaac30;}.ColorScheme-ButtonFocus{color:#aaaaac30;}.ColorScheme-NegativeText { color: #8500ff; } </style>
    <path class="ColorScheme-Text" d="M3.5 4.002a.499.499 0 1 0 0 1h9a.499.499 0 1 0 0-1h-9zm1.5 2a.499.499 0 1 0 0 1h6a.499.499 0 1 0 0-1H5zm1.5 2a.499.499 0 1 0 0 1h5a.499.499 0 1 0 0-1h-5zm.5 2a.499.499 0 1 0 0 1h2.5a.499.499 0 1 0 0-1H7zm0 2a.499.499 0 1 0 0 1h.5a.499.499 0 1 0 0-1H7z" style="marker:none" fill="currentColor"/></svg>
