<?xml version="1.0" encoding="UTF-8" standalone="no"?>
<svg
   version="1.1"
   viewBox="-10 0 2231 2048"
   id="svg1"
   sodipodi:docname="weather-freezing-rain-symbolic.svg"
   inkscape:version="1.4 (e7c3feb100, 2024-10-09)"
   xmlns:inkscape="http://www.inkscape.org/namespaces/inkscape"
   xmlns:sodipodi="http://sodipodi.sourceforge.net/DTD/sodipodi-0.dtd"
   xmlns="http://www.w3.org/2000/svg"
   xmlns:svg="http://www.w3.org/2000/svg">
  <defs
     id="defs1" />
  <sodipodi:namedview
     id="namedview1"
     pagecolor="#505050"
     bordercolor="#ffffff"
     borderopacity="1"
     inkscape:showpageshadow="0"
     inkscape:pageopacity="0"
     inkscape:pagecheckerboard="1"
     inkscape:deskcolor="#505050"
     inkscape:zoom="0.25195313"
     inkscape:cx="686.63566"
     inkscape:cy="1647.1318"
     inkscape:current-layer="svg1" />
  <style
     type="text/css"
     id="current-color-scheme">.ColorScheme-Text{color:#dddddd;}.ColorScheme-Background{color:#1a1a1a;}.ColorScheme-Highlight{color:#aaaaac30;}.ColorScheme-ViewText{color:#dddddd;}.ColorScheme-ViewBackground{color:#1a1a1a01;}.ColorScheme-ViewHover{color:#aaaaac30;}.ColorScheme-ViewFocus{color:#aaaaac30;}.ColorScheme-ButtonText{color:#bbbbbb;}.ColorScheme-ButtonBackground{color:#aaaaac20;}.ColorScheme-ButtonHover{color:#aaaaac30;}.ColorScheme-ButtonFocus{color:#aaaaac30;}.ColorScheme-NegativeText { color: #8500ff; } </style>
  <path
     class="ColorScheme-Text"
     fill="currentColor"
     d="M -10,1014 C -10,890.66667 27.833333,781.16667 103.5,685.5 179.16667,589.83333 276.66667,527.33333 396,498 429.33333,352.66667 504.16667,233.33333 620.5,140 736.83333,46.666667 870.33333,0 1021,0 c 146.6667,0 277.5,45.5 392.5,136.5 115,91 189.8333,207.83333 224.5,350.5 h 34 c 95.3333,0 183.6667,23.5 265,70.5 81.3333,47 145.6667,111 193,192 47.3333,80.99998 71,169.16665 71,264.5 0,141.3333 -49.3333,263 -148,365 -98.6667,102 -218.6667,155.3333 -360,160 -14,0 -21,-6 -21,-18 v -142 c 0,-12.6667 7,-19 21,-19 90.6667,-4.6667 168.1667,-40.8333 232.5,-108.5 64.3333,-67.6667 96.5,-146.8333 96.5,-237.5 0,-94.66669 -34.3333,-176.33335 -103,-245 -68.6667,-68.66667 -151,-103 -247,-103 h -172 c -12.6667,0 -19,-6 -19,-18 l -8,-62 C 1461,470.66667 1411.5,374 1324.5,296 1237.5,218 1136.3333,179 1021,179 903.66667,179 801.83333,218.33333 715.5,297 629.16667,375.66667 580.33333,473.33333 569,590 l -6,53 c 0,13.33333 -7,20 -21,20 l -56,7 C 397.33333,677.33333 322.83333,714.16667 262.5,780.5 202.16667,846.83331 172,924.66665 172,1014 c 0,90.6667 32.16667,169.8333 96.5,237.5 64.33333,67.6667 141.83333,103.8333 232.5,108.5 12,0 18,6.3333 18,19 v 142 c 0,12 -6,18 -18,18 C 358.33333,1534.3333 237.5,1481 138.5,1379 39.5,1277 -10,1155.3333 -10,1014 Z m 587,821 c 0,-24.6667 9,-46 27,-64 17.33333,-16 37.66667,-24 61,-24 24.66667,0 45.5,8.3333 62.5,25 17,16.6667 25.5,37.6667 25.5,63 0,25.3333 -8.5,46.3333 -25.5,63 -17,16.6667 -37.83333,25 -62.5,25 -24.66667,0 -45.5,-8.3333 -62.5,-25 -17,-16.6667 -25.5,-37.6667 -25.5,-63 z m 92,-387 c 0,-24 8.5,-44.6667 25.5,-62 17,-17.3333 37.83333,-26 62.5,-26 24.66667,0 45.5,8.6667 62.5,26 17,17.3333 25.5,38 25.5,62 0,25.3333 -8.5,46.8333 -25.5,64.5 -17,17.6667 -37.83333,26.5 -62.5,26.5 -24.66667,0 -45.5,-8.8333 -62.5,-26.5 -17,-17.6667 -25.5,-39.1667 -25.5,-64.5 z m 203,509.9 c 0,-24 9,-45.6667 27,-65 17.33333,-17.3333 37.66667,-26 61,-26 25.33333,0 47,9 65,27 18,18 27,39.3333 27,64 0,24.6667 -9,45.5 -27,62.5 -18,17 -39.66667,25.5 -65,25.5 -24,0 -44.66667,-8.5 -62,-25.5 -17.33333,-17 -26,-37.8333 -26,-62.5 z M 964,1654 c 0,-25.3333 8.66667,-47.3333 26,-66 17.3333,-17.3333 38,-26 62,-26 24.6667,0 46,9 64,27 18,18 27,39.6667 27,65 0,24.6667 -8.8333,45.8333 -26.5,63.5 -17.6667,17.6667 -39.1667,26.5 -64.5,26.5 -24,0 -44.6667,-8.8333 -62,-26.5 -17.33333,-17.6667 -26,-38.8333 -26,-63.5 z m 45,-386 c 0,-24.6667 9,-46 27,-64 18.6667,-17.3333 39,-26 61,-26 25.3333,0 47,8.8333 65,26.5 18,17.6667 27,38.8333 27,63.5 0,24.6667 -9,45.5 -27,62.5 -18,17 -39.6667,25.5 -65,25.5 -24,0 -44.6667,-8.5 -62,-25.5 -17.3333,-17 -26,-37.8333 -26,-62.5 z m 253,567 c 0,-24 8.6667,-45.3333 26,-64 17.3333,-16 38.6667,-24 64,-24 25.3333,0 46.3333,8.3333 63,25 16.6667,16.6667 25,37.6667 25,63 0,25.3333 -8.3333,46.3333 -25,63 -16.6667,16.6667 -37.6667,25 -63,25 -25.3333,0 -46.6667,-8.5 -64,-25.5 -17.3333,-17 -26,-37.8333 -26,-62.5 z m 91,-387 c 0,-23.3333 9,-43.8333 27,-61.5 18,-17.6667 39.3333,-26.5 64,-26.5 24.6667,0 45.5,8.6667 62.5,26 17,17.3333 25.5,38 25.5,62 0,25.3333 -8.5,46.8333 -25.5,64.5 -17,17.6667 -37.8333,26.5 -62.5,26.5 -25.3333,0 -46.8333,-9 -64.5,-27 -17.6667,-18 -26.5,-39.3333 -26.5,-64 z"
     id="path1"
     sodipodi:nodetypes="sscssscssssscsscsssssccsssccccssscsscssscssssssssssssssssscsssssssscsssssssscsssssssscssssssssssssssss" />
</svg>
