<?xml version="1.0" standalone="no"?>
<!DOCTYPE svg PUBLIC "-//W3C//DTD SVG 1.1//EN" "http://www.w3.org/Graphics/SVG/1.1/DTD/svg11.dtd" >
<svg xmlns="http://www.w3.org/2000/svg" xmlns:xlink="http://www.w3.org/1999/xlink" version="1.1" viewBox="-10 0 2229 2048">
   <style
      type="text/css"
      id="current-color-scheme">.ColorScheme-Text{color:#dddddd;}.ColorScheme-Background{color:#1a1a1a;}.ColorScheme-Highlight{color:#aaaaac30;}.ColorScheme-ViewText{color:#dddddd;}.ColorScheme-ViewBackground{color:#1a1a1a01;}.ColorScheme-ViewHover{color:#aaaaac30;}.ColorScheme-ViewFocus{color:#aaaaac30;}.ColorScheme-ButtonText{color:#bbbbbb;}.ColorScheme-ButtonBackground{color:#aaaaac20;}.ColorScheme-ButtonHover{color:#aaaaac30;}.ColorScheme-ButtonFocus{color:#aaaaac30;}.ColorScheme-NegativeText { color: #8500ff; } </style>
   <path class="ColorScheme-Text" fill="currentColor"
d="M0 1077q0 -36 25 -60t61 -24h1289q35 0 58 23.5t23 60.5q0 35 -23 58t-58 23h-1289q-36 0 -61 -23t-25 -58zM258 768q0 -35 25 -59q24 -24 60 -24h1290q34 0 57.5 24t23.5 59t-23.5 59.5t-57.5 24.5h-1290q-35 0 -60 -24.5t-25 -59.5zM430 1380q0 -34 26 -58
q23 -23 58 -23h1291q36 0 60 23t24 58t-24.5 60t-59.5 25h-1291q-35 0 -59.5 -25t-24.5 -60zM1559 1077q0 -37 23.5 -60.5t60.5 -23.5h482q37 0 60.5 24t23.5 60q0 35 -24 58t-60 23h-482q-37 0 -60.5 -23t-23.5 -58z" />
</svg>
