<?xml version="1.0" encoding="UTF-8" standalone="no"?>
<!-- Generator: Gravit.io -->

<svg
   style="isolation:isolate"
   viewBox="0 0 48 48"
   width="48pt"
   height="48pt"
   version="1.1"
   id="svg3"
   sodipodi:docname="application-x-theme.svg"
   inkscape:version="1.3.2 (091e20ef0f, 2023-11-25, custom)"
   xmlns:inkscape="http://www.inkscape.org/namespaces/inkscape"
   xmlns:sodipodi="http://sodipodi.sourceforge.net/DTD/sodipodi-0.dtd"
   xmlns:xlink="http://www.w3.org/1999/xlink"
   xmlns="http://www.w3.org/2000/svg"
   xmlns:svg="http://www.w3.org/2000/svg">
  <sodipodi:namedview
     id="namedview1"
     pagecolor="#ffffff"
     bordercolor="#666666"
     borderopacity="1.0"
     inkscape:showpageshadow="2"
     inkscape:pageopacity="0.0"
     inkscape:pagecheckerboard="0"
     inkscape:deskcolor="#d1d1d1"
     inkscape:document-units="pt"
     inkscape:zoom="8.3085047"
     inkscape:cx="4.1523717"
     inkscape:cy="34.903994"
     inkscape:current-layer="svg3" />
  <defs
     id="defs3">
    <linearGradient
       id="linearGradient1"
       inkscape:collect="always">
      <stop
         style="stop-color:#ff69ff;stop-opacity:1;"
         offset="0"
         id="stop11" />
      <stop
         style="stop-color:#9033dd;stop-opacity:1;"
         offset="1"
         id="stop13" />
    </linearGradient>
    <linearGradient
       inkscape:collect="always"
       xlink:href="#linearGradient1"
       id="linearGradient2"
       gradientTransform="scale(0.94156543,1.0620611)"
       x1="8.6061716"
       y1="45.195141"
       x2="48.087036"
       y2="22.59757"
       gradientUnits="userSpaceOnUse" />
    <linearGradient
       inkscape:collect="always"
       xlink:href="#linearGradient1"
       id="linearGradient4"
       x1="8.1032734"
       y1="48"
       x2="45.277092"
       y2="24"
       gradientUnits="userSpaceOnUse" />
    <linearGradient
       inkscape:collect="always"
       xlink:href="#linearGradient1"
       id="linearGradient5"
       x1="-10.184732"
       y1="175.99998"
       x2="163.29308"
       y2="63.999996"
       gradientUnits="userSpaceOnUse"
       gradientTransform="matrix(0.21428572,0,0,0.21428572,10.285716,11.285715)" />
  </defs>
  <path
     d="m 8.1032733,0 c -2.969455,0 -5.380364,2.410909 -5.380364,5.380364 v 22.048364 0 c 0,1.26109 0.907636,2.285454 2.025818,2.285454 v 0 c 1.118182,0 2.026909,-1.024364 2.026909,-2.285454 v 0 0 0 V 7.8 c 0,-1.782545 1.446546,-3.729 3.2280007,-3.729 h 27.992726 c 1.781456,0 3.228,1.946455 3.228,3.729 v 3.628364 0 c 0,1.262182 0.908728,2.285454 2.02691,2.285454 v 0 c 1.118182,0 2.025818,-1.023272 2.025818,-2.285454 v 0 -6.048 C 45.277091,2.410909 42.866181,0 39.896727,0 Z m 4.9393127,43.928955 c 0.737617,0.0049 1.838505,0.523409 1.838505,1.785591 v 0 C 14.881091,46.975636 13.973455,48 12.854181,48 v 0 H 8.1032733 c -2.969455,0 -5.380364,-2.41091 -5.380364,-5.380364 v -6.048 0 c 0,-1.262182 0.907636,-2.285454 2.025818,-2.285454 v 0 c 1.118182,0 2.026909,1.023272 2.026909,2.285454 v 0 V 40.2 c 0,1.782546 1.446546,3.729045 3.2280007,3.729045 1.012711,0.0042 2.301332,-0.005 3.038949,-9e-5 z M 41.224363,21.714546 v 0 c 0,-1.262182 0.908728,-2.285456 2.02691,-2.285456 v 0 c 1.118182,0 2.025818,1.023274 2.025818,2.285456 v 0 20.90509 C 45.277091,45.58909 42.866181,48 39.896727,48 H 21.973091 v 0 c -1.118182,0 -2.025818,-1.024364 -2.025818,-2.285454 v 0 c 0,-1.262182 2.025818,-1.785501 2.025818,-1.785501 v 0 h 16.023272 c 1.781456,0 3.228,-1.946499 3.228,-3.729045 z"
     fill-rule="evenodd"
     id="path3"
     sodipodi:nodetypes="sscsssscccsssscsssscssszssscsscsssscsszscsssscsscsssscss"
     style="fill:url(#linearGradient2);stroke-width:1.0909;fill-opacity:1" />
  <path
     fill-rule="evenodd"
     clip-rule="evenodd"
     d="m 32.764665,12.000092 c -0.858035,0 -1.680847,0.340847 -2.287658,0.947547 -0.01416,0.01416 -0.02796,0.02872 -0.04137,0.04363 L 19.397291,25.284537 c -0.26781,0.298374 -0.355589,0.717141 -0.229791,1.09789 0.125798,0.380748 0.445791,0.664958 0.838653,0.74491 0.348507,0.07101 0.76336,0.298374 1.113731,0.646694 0.354843,0.352607 0.539906,0.72441 0.578111,0.991474 0.06038,0.422867 0.35652,0.774356 0.762987,0.905745 0.406281,0.131389 0.852071,0.01994 1.148768,-0.287565 L 35.06015,17.515259 C 35.66193,16.909193 36,16.089736 36,15.235242 36,14.377394 35.65914,13.554396 35.05233,12.947677 L 34.254861,13.745236 35.05233,12.94764 C 34.445511,12.340939 33.6227,12.000092 32.764665,12.000092 Z m 0.706332,2.529004 v 0 c -0.187299,-0.187299 -0.441504,-0.292597 -0.706332,-0.292597 -0.256814,0 -0.503378,0.09877 -0.688814,0.275451 L 22.067557,25.658016 c 0.226995,0.161208 0.437963,0.34012 0.628803,0.529656 0.148908,0.147976 0.292038,0.309183 0.424731,0.481387 L 33.457019,15.955923 c 0.0045,-0.0048 0.0091,-0.0095 0.01398,-0.01435 0.187299,-0.187299 0.292596,-0.441318 0.292596,-0.706332 0,-0.264828 -0.105297,-0.518846 -0.292596,-0.706145 z M 17.824068,27.07068 c -2.19645,0 -3.941723,1.798444 -3.941723,3.986769 0,0.268928 -0.106081,0.448586 -0.257933,0.579788 -0.178092,0.154126 -0.391837,0.214136 -0.506211,0.214136 -0.422531,0 -0.809001,0.238178 -0.998909,0.615571 -0.18989,0.37758 -0.150809,0.829707 0.101029,1.169082 1.073737,1.446583 2.882356,2.363882 4.662574,2.363882 2.713991,0 4.882933,-2.228579 4.882933,-4.942459 0,-2.188325 -1.745329,-3.986769 -3.94176,-3.986769 z m -1.705316,3.986769 c 0,-0.986628 0.777076,-1.750362 1.705316,-1.750362 0.928202,0 1.705353,0.763734 1.705353,1.750362 0,1.511997 -1.200596,2.706052 -2.646526,2.706052 -0.586945,0 -1.199721,-0.175185 -1.741565,-0.481759 0.566184,-0.504869 0.977422,-1.246797 0.977422,-2.224293 z"
     id="path2-6"
     style="display:none;isolation:isolate;fill:url(#linearGradient4);fill-opacity:1;stroke-width:0.186367" />
  <path
     d="m 33.428575,13 h -15.42857 c -1.25032,0 -2.4494,0.496693 -3.3335,1.380793 -0.884096,0.8841 -1.38079,2.083178 -1.38079,3.333493 v 7.714285 c 0.0028,0.794786 0.3198,1.556208 0.881809,2.118193 0.561981,0.562007 1.323401,0.878979 2.118191,0.881807 h 4.18929 l -0.33215,4.617858 v 0.09643 c 0,1.023 0.40637,2.004 1.12974,2.727429 C 21.995935,36.593714 22.977025,37 24.000005,37 c 1.02297,0 2.00406,-0.406286 2.7274,-1.129714 0.72337,-0.723429 1.12974,-1.704429 1.12974,-2.727429 v -0.09643 l -0.33214,-4.617858 h 4.18928 c 0.79479,-0.0028 1.55614,-0.3198 2.11822,-0.881807 0.56207,-0.561985 0.879,-1.323407 0.88178,-2.118193 V 14.285714 c 0,-0.340993 -0.13543,-0.668014 -0.3765,-0.909128 C 34.096505,13.13545 33.769505,13 33.428575,13 Z m -15.42857,2.571429 h 9.85714 v 3 c 0,0.340992 0.13545,0.668014 0.37658,0.909128 0.24112,0.241136 0.56814,0.376586 0.90913,0.376586 0.34099,0 0.66802,-0.13545 0.90913,-0.376586 0.24114,-0.241114 0.37659,-0.568136 0.37659,-0.909128 v -3 h 1.71428 v 6 h -16.28571 v -3.857143 c 0.003,-0.56745 0.22948,-1.110857 0.63075,-1.512107 0.40125,-0.401272 0.94466,-0.627943 1.51211,-0.63075 z m 13.71428,10.285714 h -4.65 c -0.29355,0.0024 -0.58356,0.06448 -0.85238,0.182486 -0.2688,0.118007 -0.5108,0.289457 -0.71124,0.503935 -0.20046,0.2145 -0.35518,0.467507 -0.45476,0.743679 -0.0996,0.276171 -0.14192,0.5697 -0.12448,0.862757 l 0.36429,5.035714 c 0,0.340929 -0.13545,0.667929 -0.37659,0.909215 -0.24111,0.241071 -0.56813,0.3765 -0.90912,0.3765 -0.341,0 -0.66802,-0.135429 -0.90913,-0.3765 -0.24114,-0.241286 -0.37659,-0.568286 -0.37659,-0.909215 L 23.078575,28.15 c 0.0174,-0.293057 -0.0249,-0.586586 -0.12448,-0.862757 -0.0996,-0.276172 -0.25429,-0.529179 -0.45476,-0.743679 -0.20044,-0.214478 -0.44243,-0.385928 -0.71123,-0.503935 -0.26882,-0.118008 -0.55882,-0.180108 -0.85239,-0.182486 h -4.65 c -0.11366,0 -0.22266,-0.04515 -0.30304,-0.125529 -0.0804,-0.08038 -0.12553,-0.189385 -0.12553,-0.303043 v -1.285714 h 16.28571 v 1.285714 c 0,0.113658 -0.0452,0.222665 -0.12557,0.303043 -0.0804,0.08038 -0.18943,0.125529 -0.303,0.125529 z"
     id="path1"
     style="display:inline;fill:url(#linearGradient5);stroke-width:0.214286" />
</svg>
