<?xml version="1.0" encoding="UTF-8" standalone="no"?>
<svg
   style="isolation:isolate"
   viewBox="0 0 48 48"
   width="48pt"
   height="48pt"
   version="1.1"
   id="svg9"
   sodipodi:docname="application-pdf.svg"
   inkscape:version="1.3.2 (091e20ef0f, 2023-11-25, custom)"
   xmlns:inkscape="http://www.inkscape.org/namespaces/inkscape"
   xmlns:sodipodi="http://sodipodi.sourceforge.net/DTD/sodipodi-0.dtd"
   xmlns:xlink="http://www.w3.org/1999/xlink"
   xmlns="http://www.w3.org/2000/svg"
   xmlns:svg="http://www.w3.org/2000/svg"
   xmlns:rdf="http://www.w3.org/1999/02/22-rdf-syntax-ns#"
   xmlns:cc="http://creativecommons.org/ns#"
   xmlns:dc="http://purl.org/dc/elements/1.1/">
  <metadata
     id="metadata15">
    <rdf:RDF>
      <cc:Work
         rdf:about="">
        <dc:format>image/svg+xml</dc:format>
        <dc:type
           rdf:resource="http://purl.org/dc/dcmitype/StillImage" />
      </cc:Work>
    </rdf:RDF>
  </metadata>
  <defs
     id="defs13">
    <linearGradient
       id="linearGradient1"
       inkscape:collect="always">
      <stop
         style="stop-color:#ff69ff;stop-opacity:1;"
         offset="0"
         id="stop19" />
      <stop
         style="stop-color:#9033dd;stop-opacity:1;"
         offset="1"
         id="stop22" />
    </linearGradient>
    <linearGradient
       id="linearGradient21"
       x1="0.22078557"
       y1="0.047239967"
       x2="0.9022491"
       y2="0.90614605"
       gradientTransform="matrix(43.5,0,0,44,5,2)"
       gradientUnits="userSpaceOnUse"
       spreadMethod="pad">
      <stop
         offset="0"
         stop-opacity="1"
         style="stop-color:#ff69ff;stop-opacity:1;"
         id="stop20" />
      <stop
         offset="1"
         stop-opacity="1"
         style="stop-color:#9033dd;stop-opacity:1;"
         id="stop21" />
    </linearGradient>
    <linearGradient
       id="linearGradient18"
       x1="0.22078557"
       y1="0.047239967"
       x2="0.9022491"
       y2="0.90614605"
       gradientTransform="matrix(43.5,0,0,44,5,2)"
       gradientUnits="userSpaceOnUse"
       spreadMethod="pad">
      <stop
         offset="0"
         stop-opacity="1"
         style="stop-color:#e5f230;stop-opacity:1;"
         id="stop17" />
      <stop
         offset="1"
         stop-opacity="1"
         style="stop-color:#24d864;stop-opacity:1;"
         id="stop18" />
    </linearGradient>
    <linearGradient
       id="linearGradient15"
       x1="0.22078557"
       y1="0.047239967"
       x2="0.9022491"
       y2="0.90614605"
       gradientTransform="matrix(43.5,0,0,44,5,2)"
       gradientUnits="userSpaceOnUse"
       spreadMethod="pad">
      <stop
         offset="0"
         stop-opacity="1"
         style="stop-color:#ff69ff;stop-opacity:1;"
         id="stop13" />
      <stop
         offset="1"
         stop-opacity="1"
         style="stop-color:#9033dd;stop-opacity:1;"
         id="stop15" />
    </linearGradient>
    <linearGradient
       id="linearGradient12"
       x1="0.22078557"
       y1="0.047239967"
       x2="0.9022491"
       y2="0.90614605"
       gradientTransform="matrix(43.5,0,0,44,5,2)"
       gradientUnits="userSpaceOnUse"
       spreadMethod="pad">
      <stop
         offset="0"
         stop-opacity="1"
         style="stop-color:#e5f230;stop-opacity:1;"
         id="stop11" />
      <stop
         offset="1"
         stop-opacity="1"
         style="stop-color:#24d864;stop-opacity:1;"
         id="stop12" />
    </linearGradient>
    <linearGradient
       id="linearGradient10"
       x1="0.22078557"
       y1="0.047239967"
       x2="0.9022491"
       y2="0.90614605"
       gradientTransform="matrix(43.5,0,0,44,5,2)"
       gradientUnits="userSpaceOnUse"
       spreadMethod="pad">
      <stop
         offset="0"
         stop-opacity="1"
         style="stop-color:#e5f230;stop-opacity:1;"
         id="stop8" />
      <stop
         offset="1"
         stop-opacity="1"
         style="stop-color:#24d864;stop-opacity:1;"
         id="stop10" />
    </linearGradient>
    <linearGradient
       id="linearGradient6"
       x1="0.22078557"
       y1="0.047239967"
       x2="0.9022491"
       y2="0.90614605"
       gradientTransform="matrix(43.5,0,0,44,5,2)"
       gradientUnits="userSpaceOnUse"
       spreadMethod="pad">
      <stop
         offset="0"
         stop-opacity="1"
         style="stop-color:#e5f230;stop-opacity:1;"
         id="stop5" />
      <stop
         offset="1"
         stop-opacity="1"
         style="stop-color:#24d864;stop-opacity:1;"
         id="stop6" />
    </linearGradient>
    <linearGradient
       id="linearGradient3"
       x1="0.22078557"
       y1="0.047239967"
       x2="0.9022491"
       y2="0.90614605"
       gradientTransform="matrix(43.5,0,0,44,5,2)"
       gradientUnits="userSpaceOnUse"
       spreadMethod="pad">
      <stop
         offset="0"
         stop-opacity="1"
         style="stop-color:#e5f230;stop-opacity:1;"
         id="stop1" />
      <stop
         offset="1"
         stop-opacity="1"
         style="stop-color:#24d864;stop-opacity:1;"
         id="stop3" />
    </linearGradient>
    <linearGradient
       id="linearGradient11746"
       x1="0.22078557"
       y1="0.047239967"
       x2="0.9022491"
       y2="0.90614605"
       gradientTransform="matrix(43.5,0,0,44,5,2)"
       gradientUnits="userSpaceOnUse"
       spreadMethod="pad">
      <stop
         offset="0"
         stop-opacity="1"
         style="stop-color:#e5f230;stop-opacity:1;"
         id="stop11742" />
      <stop
         offset="1"
         stop-opacity="1"
         style="stop-color:#24d864;stop-opacity:1;"
         id="stop11744" />
    </linearGradient>
    <linearGradient
       id="linearGradient8325"
       x1="0.22078557"
       y1="0.047239967"
       x2="0.9022491"
       y2="0.90614605"
       gradientTransform="matrix(43.5,0,0,44,5,2)"
       gradientUnits="userSpaceOnUse"
       spreadMethod="pad">
      <stop
         offset="0.02608696"
         stop-opacity="1"
         style="stop-color:#e5f230;stop-opacity:1;"
         id="stop8321" />
      <stop
         offset="0.98695654"
         stop-opacity="1"
         style="stop-color:#54d864;stop-opacity:1;"
         id="stop8323" />
    </linearGradient>
    <linearGradient
       id="_lgradient_0"
       x1="0"
       y1="0.5"
       x2="0.90748805"
       y2="0.92007786"
       gradientTransform="matrix(20,0,0,20,-95.90834,50.970339)"
       gradientUnits="userSpaceOnUse">
      <stop
         offset="0%"
         stop-opacity="1"
         style="stop-color:rgb(0,196,255)"
         id="stop2-3" />
      <stop
         offset="83.88839793817618%"
         stop-opacity="1"
         style="stop-color:rgb(0,114,255)"
         id="stop4-6" />
    </linearGradient>
    <linearGradient
       id="_lgradient_1"
       x1="24.624671"
       y1="35.999638"
       x2="43.681728"
       y2="44.821184"
       gradientTransform="scale(0.99998993,1.0000101)"
       gradientUnits="userSpaceOnUse">
      <stop
         offset="0%"
         stop-opacity="1"
         style="stop-color:rgb(0,196,255)"
         id="stop7" />
      <stop
         offset="83.88839793817618%"
         stop-opacity="1"
         style="stop-color:rgb(0,114,255)"
         id="stop9" />
    </linearGradient>
    <linearGradient
       id="_lgradient_2"
       x1="0"
       y1="0.5"
       x2="0.90748805"
       y2="0.92007786"
       gradientTransform="matrix(40,0,0,44,2,2)"
       gradientUnits="userSpaceOnUse">
      <stop
         offset="0%"
         stop-opacity="1"
         style="stop-color:rgb(0,196,255)"
         id="stop14" />
      <stop
         offset="83.88839793817618%"
         stop-opacity="1"
         style="stop-color:rgb(0,114,255)"
         id="stop16" />
    </linearGradient>
    <linearGradient
       id="linearGradient921"
       x1="0.22078557"
       y1="0.047239967"
       x2="0.9022491"
       y2="0.90614605"
       gradientTransform="matrix(43.5,0,0,44,5,2)"
       gradientUnits="userSpaceOnUse"
       spreadMethod="pad">
      <stop
         offset="2.608695652173913%"
         stop-opacity="1"
         style="stop-color:#ea8bf3;stop-opacity:1"
         id="stop2-7" />
      <stop
         offset="98.69565217391305%"
         stop-opacity="1"
         style="stop-color:#826ef5;stop-opacity:1"
         id="stop4-5" />
    </linearGradient>
    <linearGradient
       inkscape:collect="always"
       xlink:href="#linearGradient15"
       id="linearGradient4074"
       gradientUnits="userSpaceOnUse"
       gradientTransform="matrix(40,0,0,-44,2.0000007,46.204584)"
       x1="0.12499999"
       y1="0.0046496363"
       x2="0.99994767"
       y2="0.50464964" />
    <linearGradient
       id="linearGradient18-6"
       x1="0.22078557"
       y1="0.047239967"
       x2="0.9022491"
       y2="0.90614605"
       gradientTransform="matrix(43.5,0,0,44,5,2)"
       gradientUnits="userSpaceOnUse"
       spreadMethod="pad">
      <stop
         offset="0"
         stop-opacity="1"
         style="stop-color:#e5f230;stop-opacity:1;"
         id="stop17-7" />
      <stop
         offset="1"
         stop-opacity="1"
         style="stop-color:#24d864;stop-opacity:1;"
         id="stop18-5" />
    </linearGradient>
    <linearGradient
       id="linearGradient11746-5"
       x1="0.22078557"
       y1="0.047239967"
       x2="0.9022491"
       y2="0.90614605"
       gradientTransform="matrix(43.5,0,0,44,5,2)"
       gradientUnits="userSpaceOnUse"
       spreadMethod="pad">
      <stop
         offset="0.02608696"
         stop-opacity="1"
         style="stop-color:#e5f230;stop-opacity:1;"
         id="stop11742-6" />
      <stop
         offset="0.98695654"
         stop-opacity="1"
         style="stop-color:#24d864;stop-opacity:1;"
         id="stop11744-2" />
    </linearGradient>
    <linearGradient
       id="linearGradient18-7"
       x1="0.22078557"
       y1="0.047239967"
       x2="0.9022491"
       y2="0.90614605"
       gradientTransform="matrix(43.5,0,0,44,5,2)"
       gradientUnits="userSpaceOnUse"
       spreadMethod="pad">
      <stop
         offset="0"
         stop-opacity="1"
         style="stop-color:#e5f230;stop-opacity:1;"
         id="stop17-0" />
      <stop
         offset="1"
         stop-opacity="1"
         style="stop-color:#24d864;stop-opacity:1;"
         id="stop18-9" />
    </linearGradient>
    <linearGradient
       inkscape:collect="always"
       xlink:href="#linearGradient1"
       id="linearGradient22"
       x1="7.0004883"
       y1="46.000488"
       x2="42"
       y2="24.101807"
       gradientUnits="userSpaceOnUse" />
  </defs>
  <sodipodi:namedview
     pagecolor="#ffffff"
     bordercolor="#666666"
     borderopacity="1"
     objecttolerance="10"
     gridtolerance="10"
     guidetolerance="10"
     inkscape:pageopacity="0"
     inkscape:pageshadow="2"
     inkscape:window-width="1268"
     inkscape:window-height="693"
     id="namedview11"
     showgrid="false"
     showguides="false"
     inkscape:guide-bbox="true"
     inkscape:snap-to-guides="true"
     inkscape:snap-global="true"
     inkscape:zoom="7.9661235"
     inkscape:cx="1.1297841"
     inkscape:cy="42.30414"
     inkscape:window-x="8"
     inkscape:window-y="739"
     inkscape:window-maximized="0"
     inkscape:current-layer="svg9"
     inkscape:document-rotation="0"
     inkscape:showpageshadow="2"
     inkscape:pagecheckerboard="0"
     inkscape:deskcolor="#d1d1d1"
     inkscape:document-units="pt">
    <sodipodi:guide
       position="7.2628256,50.156642"
       orientation="1,0"
       id="guide4525"
       inkscape:locked="false" />
    <sodipodi:guide
       position="2.5168207,52.349872"
       orientation="1,0"
       id="guide4527"
       inkscape:locked="false" />
    <sodipodi:guide
       position="35.7029,51.846507"
       orientation="1,0"
       id="guide4531"
       inkscape:locked="false" />
    <sodipodi:guide
       position="40.484859,50.983597"
       orientation="1,0"
       id="guide4533"
       inkscape:locked="false" />
    <sodipodi:guide
       position="-13.73465,43.86459"
       orientation="0,1"
       id="guide4535"
       inkscape:locked="false" />
    <sodipodi:guide
       position="4.6381411,56.161057"
       orientation="1,0"
       id="guide4537"
       inkscape:locked="false" />
    <sodipodi:guide
       position="38.255675,55.190284"
       orientation="1,0"
       id="guide4539"
       inkscape:locked="false" />
    <sodipodi:guide
       position="-9.6717826,4.0988224"
       orientation="0,1"
       id="guide4541"
       inkscape:locked="false" />
    <sodipodi:guide
       position="-13.914423,6.795416"
       orientation="0,1"
       id="guide4543"
       inkscape:locked="false" />
  </sodipodi:namedview>
  <linearGradient
     id="_lgradient_25"
     x1="0.22078557"
     y1="0.047239967"
     x2="0.9022491"
     y2="0.90614605"
     gradientTransform="matrix(43.5,0,0,44,5,2)"
     gradientUnits="userSpaceOnUse"
     xlink:href="#_lgradient_0">
    <stop
       offset="2.608695652173913%"
       stop-opacity="1"
       style="stop-color:#ea8bf3;stop-opacity:1"
       id="stop2" />
    <stop
       offset="98.69565217391305%"
       stop-opacity="1"
       style="stop-color:#826ef5;stop-opacity:1"
       id="stop4" />
  </linearGradient>
  <g
     id="g2"
     style="display:inline;isolation:isolate"
     transform="matrix(1.0858601,0,0,1.0858601,0.11134291,-2.1711904)">
    <path
       d="m 14.069588,14.053041 c -0.310502,0.01889 -0.644825,0 -1.010362,0.253824 -3.268481,1.406297 -1.076077,5.2654 3.089408,8.200388 0.02546,-0.553647 0.255466,-1.758692 0.249716,-2.28934 -3.554339,-2.437199 -5.633385,-4.808682 -3.368695,-5.749225 2.388725,-0.991474 3.130479,1.715156 3.172372,5.644081 0.222608,0.230824 1.763615,1.254332 1.997724,1.416155 -0.08707,-3.583101 -1.991152,-7.240131 -3.821305,-7.449597 -0.09775,-0.01889 -0.205358,-0.01889 -0.308858,-0.01889 m 3.327624,6.233873 -0.743397,-0.289967 -0.616075,0.415646 -0.124857,1.306904 0.778718,0.597183 0.323645,0.433718 c 2.397762,1.59112 4.439843,2.816702 7.128391,3.82871 l 1.675723,0.248895 h 1.102363 c 1.016933,-0.599648 0.410717,-0.830472 4.104698,-1.291296 l -4.16302,0.322823 c -3.21098,-1.244474 -6.487675,-3.032738 -9.468654,-4.983648 m 7.327179,5.215293 c 0.48136,0 4.237771,-0.326109 5.732778,-0.46411 1.478579,-0.230824 3.295588,-0.299824 2.951408,1.429297 0.391002,-0.921651 -0.500252,-2.487306 -1.768544,-2.763308 -1.96076,-0.438647 -5.071526,0.763113 -6.189495,1.131938 m 1.802223,0.478896 c -0.583217,0.230823 -1.915581,0.396753 -2.544799,0.604577 0.892076,0.461647 5.370527,2.115195 7.219571,1.76855 0.295716,0 1.544295,-0.897829 1.574688,-1.543477 -0.09611,1.175474 -5.570957,0.299002 -6.24946,-0.853472 m 1.218185,0.02054 C 27.988763,25.678 25.741323,25.6895 25.246822,25.505498 c -2.813407,0.98408 -6.598568,3.294777 -9.306832,4.85304 l -0.784468,0.230824 c -0.151965,1.07608 -0.814862,1.446547 -1.419436,2.143945 l 0.916719,0.922472 0.717111,-1.176295 c 3.17073,-1.913123 9.439904,-5.005827 13.0961,-6.490161 m -13.0961,6.490161 c -0.387716,0.230823 -0.758183,0.461647 -1.108934,0.691649 -0.813219,2.307411 -1.761152,3.861567 -2.666371,3.795031 1.3989,0.668648 4.410272,-2.626129 5.426385,-5.724583 m -5.426385,5.724583 c -2.1332601,-1.268296 2.382155,-3.578994 3.396625,-4.250107 0.227536,-0.644826 -0.395931,-1.715157 -0.192215,-2.475806 -3.184696,1.982945 -5.066597,4.850576 -3.998735,6.211694 0.257109,0.322824 0.529824,0.484647 0.800075,0.507647 m 3.098444,-4.831683 c 0.147858,-0.593897 2.115189,-1.945158 2.470048,-2.152982 0.475609,-3.746566 0.498609,-4.117033 0.902755,-7.029021 -0.241502,-0.230824 -1.729116,-1.389869 -1.959939,-1.55087 -0.285037,3.112419 -0.822253,7.329667 -1.582078,10.14719"
       id="path2"
       style="isolation:isolate;fill:url(#linearGradient22);fill-opacity:1;stroke-width:0.821434" />
    <path
       id="path4062"
       style="display:inline;isolation:isolate;fill:url(#linearGradient4074);fill-opacity:1"
       d="m 7.0004883,1.9995117 c -2.759995,0 -5.0009766,2.2409813 -5.0009766,5.0009766 V 40.999512 c 0,2.759994 2.2409816,5.000976 5.0009766,5.000976 H 22.000488 C 23.104486,46.000488 24,45.10351 24,43.999512 24,42.895514 23.104486,42 22.000488,42 H 9 C 7.3440037,42 6,40.655996 6,39 V 9 C 6,7.3440037 7.3440037,6 9,6 h 12.22998 c 0.552,0 1.306571,0.3274926 1.684571,0.7294922 0.07191,0.07653 0.143422,0.1534465 0.215332,0.2299805 0.326177,0.3471536 0.673438,0.6538409 0.978515,1.0415039 L 37.538086,25.064941 c 0.665933,0.714122 2.063386,0.492917 2.668945,-0.07178 0.605559,-0.564694 0.920816,-1.943103 0.254883,-2.657226 L 39.722168,21.509766 26.178223,4.5380859 25.835449,4.1762695 C 25.687365,4.0202617 25.518303,3.8689078 25.335938,3.722168 24.114389,2.7392624 22.210904,1.9995117 20.77002,1.9995117 Z m 23.9999997,0 c -1.103999,0 -2.000976,0.8969777 -2.000976,2.0009766 C 28.999512,5.1044872 29.896489,6 31.000488,6 h 3.999024 c 1.655998,0 3,1.3440017 3,3 v 4.000488 C 37.999512,14.104487 38.896489,15 40.000488,15 41.104487,15 42,14.104487 42,13.000488 V 7.0004883 C 42,4.240491 39.760486,1.9995117 37.000488,1.9995117 Z m 9,31.2055663 c -1.103999,0 -2.000976,0.895513 -2.000976,1.999512 v 4.000488 c 0,1.655998 -1.344002,3 -3,3 h -3.999024 c -1.103999,0 -2.000976,0.895513 -2.000976,1.999512 0,1.103999 0.896977,1.999512 2.000976,1.999512 h 6 C 39.760486,46.204102 42,43.964587 42,41.20459 v -6 c 0,-1.103999 -0.895513,-1.999512 -1.999512,-1.999512 z" />
  </g>
</svg>
