<?xml version="1.0" encoding="UTF-8" standalone="no"?>
<svg
   style="isolation:isolate"
   viewBox="0 0 48 48"
   width="48pt"
   height="48pt"
   version="1.1"
   id="svg9"
   sodipodi:docname="text-x-changelog.svg"
   inkscape:version="1.3.2 (091e20ef0f, 2023-11-25, custom)"
   xmlns:inkscape="http://www.inkscape.org/namespaces/inkscape"
   xmlns:sodipodi="http://sodipodi.sourceforge.net/DTD/sodipodi-0.dtd"
   xmlns:xlink="http://www.w3.org/1999/xlink"
   xmlns="http://www.w3.org/2000/svg"
   xmlns:svg="http://www.w3.org/2000/svg"
   xmlns:rdf="http://www.w3.org/1999/02/22-rdf-syntax-ns#"
   xmlns:cc="http://creativecommons.org/ns#"
   xmlns:dc="http://purl.org/dc/elements/1.1/">
  <metadata
     id="metadata15">
    <rdf:RDF>
      <cc:Work
         rdf:about="">
        <dc:format>image/svg+xml</dc:format>
        <dc:type
           rdf:resource="http://purl.org/dc/dcmitype/StillImage" />
      </cc:Work>
    </rdf:RDF>
  </metadata>
  <defs
     id="defs13">
    <linearGradient
       id="linearGradient1"
       inkscape:collect="always">
      <stop
         style="stop-color:#00f1fa;stop-opacity:1;"
         offset="0"
         id="stop19" />
      <stop
         style="stop-color:#006cff;stop-opacity:1;"
         offset="1"
         id="stop20" />
    </linearGradient>
    <linearGradient
       id="linearGradient18"
       x1="0.22078557"
       y1="0.047239967"
       x2="0.9022491"
       y2="0.90614605"
       gradientTransform="matrix(43.5,0,0,44,5,2)"
       gradientUnits="userSpaceOnUse"
       spreadMethod="pad">
      <stop
         offset="0"
         stop-opacity="1"
         style="stop-color:#00f1fa;stop-opacity:1;"
         id="stop17" />
      <stop
         offset="1"
         stop-opacity="1"
         style="stop-color:#006cff;stop-opacity:1;"
         id="stop18" />
    </linearGradient>
    <linearGradient
       id="linearGradient15"
       x1="0.22078557"
       y1="0.047239967"
       x2="0.9022491"
       y2="0.90614605"
       gradientTransform="matrix(43.5,0,0,44,5,2)"
       gradientUnits="userSpaceOnUse"
       spreadMethod="pad">
      <stop
         offset="0"
         stop-opacity="1"
         style="stop-color:#00f1fa;stop-opacity:1;"
         id="stop13" />
      <stop
         offset="1"
         stop-opacity="1"
         style="stop-color:#006cff;stop-opacity:1;"
         id="stop15" />
    </linearGradient>
    <linearGradient
       id="linearGradient12"
       x1="0.22078557"
       y1="0.047239967"
       x2="0.9022491"
       y2="0.90614605"
       gradientTransform="matrix(43.5,0,0,44,5,2)"
       gradientUnits="userSpaceOnUse"
       spreadMethod="pad">
      <stop
         offset="0"
         stop-opacity="1"
         style="stop-color:#00f1fa;stop-opacity:1;"
         id="stop11" />
      <stop
         offset="1"
         stop-opacity="1"
         style="stop-color:#006cff;stop-opacity:1;"
         id="stop12" />
    </linearGradient>
    <linearGradient
       id="linearGradient10"
       x1="0.22078557"
       y1="0.047239967"
       x2="0.9022491"
       y2="0.90614605"
       gradientTransform="matrix(43.5,0,0,44,5,2)"
       gradientUnits="userSpaceOnUse"
       spreadMethod="pad">
      <stop
         offset="0"
         stop-opacity="1"
         style="stop-color:#00f1fa;stop-opacity:1;"
         id="stop8" />
      <stop
         offset="1"
         stop-opacity="1"
         style="stop-color:#006cff;stop-opacity:1;"
         id="stop10" />
    </linearGradient>
    <linearGradient
       id="linearGradient6"
       x1="0.22078557"
       y1="0.047239967"
       x2="0.9022491"
       y2="0.90614605"
       gradientTransform="matrix(43.5,0,0,44,5,2)"
       gradientUnits="userSpaceOnUse"
       spreadMethod="pad">
      <stop
         offset="0"
         stop-opacity="1"
         style="stop-color:#00f1fa;stop-opacity:1;"
         id="stop5" />
      <stop
         offset="1"
         stop-opacity="1"
         style="stop-color:#006cff;stop-opacity:1;"
         id="stop6" />
    </linearGradient>
    <linearGradient
       id="linearGradient3"
       x1="0.22078557"
       y1="0.047239967"
       x2="0.9022491"
       y2="0.90614605"
       gradientTransform="matrix(43.5,0,0,44,5,2)"
       gradientUnits="userSpaceOnUse"
       spreadMethod="pad">
      <stop
         offset="0"
         stop-opacity="1"
         style="stop-color:#00f1fa;stop-opacity:1;"
         id="stop1" />
      <stop
         offset="1"
         stop-opacity="1"
         style="stop-color:#006cff;stop-opacity:1;"
         id="stop3" />
    </linearGradient>
    <linearGradient
       id="linearGradient11746"
       x1="0.22078557"
       y1="0.047239967"
       x2="0.9022491"
       y2="0.90614605"
       gradientTransform="matrix(43.5,0,0,44,5,2)"
       gradientUnits="userSpaceOnUse"
       spreadMethod="pad">
      <stop
         offset="0"
         stop-opacity="1"
         style="stop-color:#00f1fa;stop-opacity:1;"
         id="stop11742" />
      <stop
         offset="1"
         stop-opacity="1"
         style="stop-color:#006cff;stop-opacity:1;"
         id="stop11744" />
    </linearGradient>
    <linearGradient
       id="linearGradient8325"
       x1="0.22078557"
       y1="0.047239967"
       x2="0.9022491"
       y2="0.90614605"
       gradientTransform="matrix(43.5,0,0,44,5,2)"
       gradientUnits="userSpaceOnUse"
       spreadMethod="pad">
      <stop
         offset="0.02608696"
         stop-opacity="1"
         style="stop-color:#00f1fa;stop-opacity:1;"
         id="stop8321" />
      <stop
         offset="0.98695654"
         stop-opacity="1"
         style="stop-color:#54d864;stop-opacity:1;"
         id="stop8323" />
    </linearGradient>
    <linearGradient
       id="_lgradient_0"
       x1="0"
       y1="0.5"
       x2="0.90748805"
       y2="0.92007786"
       gradientTransform="matrix(20,0,0,20,-95.90834,50.970339)"
       gradientUnits="userSpaceOnUse">
      <stop
         offset="0%"
         stop-opacity="1"
         style="stop-color:rgb(0,196,255)"
         id="stop2-3" />
      <stop
         offset="83.88839793817618%"
         stop-opacity="1"
         style="stop-color:rgb(0,114,255)"
         id="stop4-6" />
    </linearGradient>
    <linearGradient
       id="_lgradient_1"
       x1="24.624671"
       y1="35.999638"
       x2="43.681728"
       y2="44.821184"
       gradientTransform="scale(0.99998993,1.0000101)"
       gradientUnits="userSpaceOnUse">
      <stop
         offset="0%"
         stop-opacity="1"
         style="stop-color:rgb(0,196,255)"
         id="stop7" />
      <stop
         offset="83.88839793817618%"
         stop-opacity="1"
         style="stop-color:rgb(0,114,255)"
         id="stop9" />
    </linearGradient>
    <linearGradient
       id="_lgradient_2"
       x1="0"
       y1="0.5"
       x2="0.90748805"
       y2="0.92007786"
       gradientTransform="matrix(40,0,0,44,2,2)"
       gradientUnits="userSpaceOnUse">
      <stop
         offset="0%"
         stop-opacity="1"
         style="stop-color:rgb(0,196,255)"
         id="stop14" />
      <stop
         offset="83.88839793817618%"
         stop-opacity="1"
         style="stop-color:rgb(0,114,255)"
         id="stop16" />
    </linearGradient>
    <linearGradient
       id="linearGradient921"
       x1="0.22078557"
       y1="0.047239967"
       x2="0.9022491"
       y2="0.90614605"
       gradientTransform="matrix(43.5,0,0,44,5,2)"
       gradientUnits="userSpaceOnUse"
       spreadMethod="pad">
      <stop
         offset="2.608695652173913%"
         stop-opacity="1"
         style="stop-color:#ea8bf3;stop-opacity:1"
         id="stop2-7" />
      <stop
         offset="98.69565217391305%"
         stop-opacity="1"
         style="stop-color:#826ef5;stop-opacity:1"
         id="stop4-5" />
    </linearGradient>
    <linearGradient
       inkscape:collect="always"
       xlink:href="#linearGradient15"
       id="linearGradient4074"
       gradientUnits="userSpaceOnUse"
       gradientTransform="matrix(40,0,0,-44,2.0000007,46.204584)"
       x1="0.12499999"
       y1="0.0046496363"
       x2="0.99994767"
       y2="0.50464964" />
    <linearGradient
       inkscape:collect="always"
       xlink:href="#linearGradient12"
       id="linearGradient5043"
       gradientUnits="userSpaceOnUse"
       gradientTransform="matrix(49.320645,0,0,44,0.26827747,17.66787)"
       x1="0.13654295"
       y1="-0.36363637"
       x2="0.89026016"
       y2="0.18181819" />
    <linearGradient
       inkscape:collect="always"
       xlink:href="#linearGradient10"
       id="linearGradient6491"
       gradientUnits="userSpaceOnUse"
       gradientTransform="matrix(49.320645,0,0,44,0.26827747,10)"
       x1="0.13654295"
       y1="-0.18936659"
       x2="0.89026016"
       y2="0.35608795" />
    <linearGradient
       inkscape:collect="always"
       xlink:href="#linearGradient6"
       id="linearGradient8260"
       gradientUnits="userSpaceOnUse"
       gradientTransform="matrix(40,0,0,44,2,2)"
       x1="0.12506659"
       y1="-0.007548409"
       x2="1.054412"
       y2="0.53790611" />
    <linearGradient
       inkscape:collect="always"
       xlink:href="#linearGradient3"
       id="linearGradient8266"
       gradientUnits="userSpaceOnUse"
       gradientTransform="matrix(40,0,0,44,2,2)"
       x1="0.12506659"
       y1="-0.007548409"
       x2="1.054412"
       y2="0.53790611" />
    <linearGradient
       id="linearGradient18-6"
       x1="0.22078557"
       y1="0.047239967"
       x2="0.9022491"
       y2="0.90614605"
       gradientTransform="matrix(43.5,0,0,44,5,2)"
       gradientUnits="userSpaceOnUse"
       spreadMethod="pad">
      <stop
         offset="0"
         stop-opacity="1"
         style="stop-color:#00f1fa;stop-opacity:1;"
         id="stop17-7" />
      <stop
         offset="1"
         stop-opacity="1"
         style="stop-color:#006cff;stop-opacity:1;"
         id="stop18-5" />
    </linearGradient>
    <linearGradient
       id="linearGradient11746-5"
       x1="0.22078557"
       y1="0.047239967"
       x2="0.9022491"
       y2="0.90614605"
       gradientTransform="matrix(43.5,0,0,44,5,2)"
       gradientUnits="userSpaceOnUse"
       spreadMethod="pad">
      <stop
         offset="0.02608696"
         stop-opacity="1"
         style="stop-color:#00f1fa;stop-opacity:1;"
         id="stop11742-6" />
      <stop
         offset="0.98695654"
         stop-opacity="1"
         style="stop-color:#006cff;stop-opacity:1;"
         id="stop11744-2" />
    </linearGradient>
    <linearGradient
       inkscape:collect="always"
       xlink:href="#linearGradient18-7"
       id="linearGradient8262-2"
       gradientUnits="userSpaceOnUse"
       gradientTransform="matrix(40,0,0,44,2.0004883,2.0000003)"
       x1="0.125"
       y1="1"
       x2="0.99973547"
       y2="0.49982473" />
    <linearGradient
       id="linearGradient18-7"
       x1="0.22078557"
       y1="0.047239967"
       x2="0.9022491"
       y2="0.90614605"
       gradientTransform="matrix(43.5,0,0,44,5,2)"
       gradientUnits="userSpaceOnUse"
       spreadMethod="pad">
      <stop
         offset="0"
         stop-opacity="1"
         style="stop-color:#00f1fa;stop-opacity:1;"
         id="stop17-0" />
      <stop
         offset="1"
         stop-opacity="1"
         style="stop-color:#006cff;stop-opacity:1;"
         id="stop18-9" />
    </linearGradient>
    <linearGradient
       inkscape:collect="always"
       xlink:href="#linearGradient1"
       id="linearGradient20"
       x1="7.000977"
       y1="46.000488"
       x2="40.834587"
       y2="24"
       gradientUnits="userSpaceOnUse" />
    <linearGradient
       inkscape:collect="always"
       xlink:href="#linearGradient1-7"
       id="linearGradient2"
       gradientTransform="scale(0.94156543,1.0620611)"
       x1="8.6061716"
       y1="45.195141"
       x2="48.087036"
       y2="22.59757"
       gradientUnits="userSpaceOnUse" />
    <linearGradient
       id="linearGradient1-7"
       inkscape:collect="always">
      <stop
         style="stop-color:#00f1fa;stop-opacity:1;"
         offset="0"
         id="stop11-5" />
      <stop
         style="stop-color:#006cff;stop-opacity:1;"
         offset="1"
         id="stop13-3" />
    </linearGradient>
  </defs>
  <sodipodi:namedview
     pagecolor="#ffffff"
     bordercolor="#666666"
     borderopacity="1"
     objecttolerance="10"
     gridtolerance="10"
     guidetolerance="10"
     inkscape:pageopacity="0"
     inkscape:pageshadow="2"
     inkscape:window-width="1268"
     inkscape:window-height="693"
     id="namedview11"
     showgrid="false"
     showguides="false"
     inkscape:guide-bbox="true"
     inkscape:snap-to-guides="true"
     inkscape:snap-global="true"
     inkscape:zoom="7.9661235"
     inkscape:cx="31.257361"
     inkscape:cy="22.093557"
     inkscape:window-x="8"
     inkscape:window-y="739"
     inkscape:window-maximized="0"
     inkscape:current-layer="svg9"
     inkscape:document-rotation="0"
     inkscape:showpageshadow="2"
     inkscape:pagecheckerboard="0"
     inkscape:deskcolor="#d1d1d1"
     inkscape:document-units="pt">
    <sodipodi:guide
       position="7.2628256,50.156642"
       orientation="1,0"
       id="guide4525"
       inkscape:locked="false" />
    <sodipodi:guide
       position="2.5168207,52.349872"
       orientation="1,0"
       id="guide4527"
       inkscape:locked="false" />
    <sodipodi:guide
       position="35.7029,51.846507"
       orientation="1,0"
       id="guide4531"
       inkscape:locked="false" />
    <sodipodi:guide
       position="40.484859,50.983597"
       orientation="1,0"
       id="guide4533"
       inkscape:locked="false" />
    <sodipodi:guide
       position="-13.73465,43.86459"
       orientation="0,1"
       id="guide4535"
       inkscape:locked="false" />
    <sodipodi:guide
       position="4.6381411,56.161057"
       orientation="1,0"
       id="guide4537"
       inkscape:locked="false" />
    <sodipodi:guide
       position="38.255675,55.190284"
       orientation="1,0"
       id="guide4539"
       inkscape:locked="false" />
    <sodipodi:guide
       position="-9.6717826,4.0988224"
       orientation="0,1"
       id="guide4541"
       inkscape:locked="false" />
    <sodipodi:guide
       position="-13.914423,6.795416"
       orientation="0,1"
       id="guide4543"
       inkscape:locked="false" />
  </sodipodi:namedview>
  <linearGradient
     id="_lgradient_25"
     x1="0.22078557"
     y1="0.047239967"
     x2="0.9022491"
     y2="0.90614605"
     gradientTransform="matrix(43.5,0,0,44,5,2)"
     gradientUnits="userSpaceOnUse"
     xlink:href="#_lgradient_0">
    <stop
       offset="2.608695652173913%"
       stop-opacity="1"
       style="stop-color:#ea8bf3;stop-opacity:1"
       id="stop2" />
    <stop
       offset="98.69565217391305%"
       stop-opacity="1"
       style="stop-color:#826ef5;stop-opacity:1"
       id="stop4" />
  </linearGradient>
  <g
     id="g1"
     transform="matrix(1,0,0,-1,1.1006095,48.833935)">
    <path
       style="display:inline;isolation:isolate;fill:url(#linearGradient5043);fill-opacity:1;stroke-width:1.11042"
       d="m 10.748916,34.66787 h 22.500078 c 1.020938,0 1.849524,0.672 1.849524,1.5 v 1 c 0,0.828 -0.828586,1.5 -1.849524,1.5 H 10.748916 c -1.020938,0 -1.8495255,-0.672 -1.8495255,-1.5 v -1 c 0,-0.828 0.8285875,-1.5 1.8495255,-1.5 z"
       id="path4072" />
    <path
       style="display:inline;isolation:isolate;fill:url(#linearGradient6491);fill-opacity:1;stroke-width:1.11042"
       d="m 10.748916,27 h 22.500078 c 1.020938,0 1.849524,0.672 1.849524,1.5 v 1 c 0,0.828 -0.828586,1.5 -1.849524,1.5 H 10.748916 C 9.727978,31 8.8993905,30.328 8.8993905,29.5 v -1 c 0,-0.828 0.8285875,-1.5 1.8495255,-1.5 z"
       id="path6489" />
    <path
       style="display:inline;isolation:isolate;fill:url(#linearGradient8266);fill-opacity:1"
       d="m 10.5,19 h 17.75 c 0.828,0 1.5,0.672 1.5,1.5 v 1 c 0,0.828 -0.672,1.5 -1.5,1.5 H 10.5 C 9.672,23 9,22.328 9,21.5 v -1 C 9,19.672 9.672,19 10.5,19 Z"
       id="path6485"
       sodipodi:nodetypes="sssssssss" />
    <path
       style="display:inline;isolation:isolate;fill:url(#linearGradient8260);fill-opacity:1"
       d="m 10.5,11 h 10.248 c 0.828,0 1.5,0.672 1.5,1.5 v 1 c 0,0.828 -0.672,1.5 -1.5,1.5 H 10.5 C 9.672,15 9,14.328 9,13.5 v -1 C 9,11.672 9.672,11 10.5,11 Z"
       id="path6481" />
  </g>
  <g
     id="g2"
     style="display:none;isolation:isolate">
    <path
       id="path6479-6"
       style="display:inline;isolation:isolate;fill:url(#linearGradient8262-2);fill-opacity:1"
       d="M 7.000977,1.999512 C 4.2409793,1.999512 2,4.2404909 2,7.0004889 V 40.999512 c 0,2.759997 2.2409793,5.000976 5.000977,5.000976 h 14.999999 c 1.103999,0 1.999512,-0.896977 1.999512,-2.000976 C 24.000488,42.895513 23.104975,42 22.000976,42 H 9.000488 c -1.655998,0 -3,-1.344002 -3,-3 V 8.9999999 c 0,-1.655998 1.344002,-3 3,-3 h 12.22998 c 0.552,0 1.306571,0.327493 1.684571,0.729493 0.07191,0.07653 0.143422,0.153446 0.215332,0.22998 0.326178,0.347154 0.673437,0.6538406 0.978515,1.041504 L 37.537354,25.064589 c 0.665934,0.714122 2.063386,0.492915 2.668946,-0.07178 0.605559,-0.564695 0.92228,-1.943103 0.256346,-2.657227 L 39.721436,21.50941 26.178711,4.5380829 25.835937,4.1762699 C 25.687853,4.0202619 25.518792,3.8689079 25.336426,3.7221679 24.114876,2.7392613 22.211394,1.999512 20.770508,1.999512 Z"
       sodipodi:nodetypes="sssssssssssscsscsccccsss" />
    <path
       style="display:inline;isolation:isolate;fill:url(#linearGradient4074);fill-opacity:1"
       d="m 31,42.204584 v 0 c -1.104,0 -2,0.896 -2,2 v 0 c 0,1.104 0.896,2 2,2 v 0 h 6 c 2.76,0 5,-2.24 5,-5 v -6 0 c 0,-1.104 -0.896,-2 -2,-2 v 0 c -1.104,0 -2,0.896 -2,2 v 0 4 c 0,1.656 -1.344,3 -3,3 z"
       id="path4062" />
    <path
       d="M 31,6 V 6 C 29.896,6 29,5.104 29,4 v 0 c 0,-1.104 0.896,-2 2,-2 v 0 h 6 c 2.76,0 5,2.24 5,5 v 6 0 c 0,1.104 -0.896,2 -2,2 v 0 c -1.104,0 -2,-0.896 -2,-2 V 13 9 C 38,7.344 36.656,6 35,6 Z"
       fill-rule="evenodd"
       id="path4"
       style="display:inline;isolation:isolate;fill:url(#linearGradient20);fill-opacity:1"
       sodipodi:nodetypes="csssscsscsssscssc" />
  </g>
  <path
     d="M 8.103273,0 C 5.133818,0 2.722909,2.410909 2.722909,5.380364 v 22.048364 0 c 0,1.26109 0.907636,2.285454 2.025818,2.285454 v 0 c 1.118182,0 2.026909,-1.024364 2.026909,-2.285454 v 0 0 0 V 7.8 c 0,-1.782545 1.446546,-3.729 3.228001,-3.729 h 27.992726 c 1.781456,0 3.228,1.946455 3.228,3.729 v 3.628364 0 c 0,1.262182 0.908728,2.285454 2.02691,2.285454 v 0 c 1.118182,0 2.025818,-1.023272 2.025818,-2.285454 v 0 -6.048 C 45.277091,2.410909 42.866181,0 39.896727,0 Z m 4.939313,43.928955 c 0.737617,0.0049 1.838505,0.523409 1.838505,1.785591 v 0 C 14.881091,46.975636 13.973455,48 12.854181,48 v 0 H 8.103273 C 5.133818,48 2.722909,45.58909 2.722909,42.619636 v -6.048 0 c 0,-1.262182 0.907636,-2.285454 2.025818,-2.285454 v 0 c 1.118182,0 2.026909,1.023272 2.026909,2.285454 v 0 V 40.2 c 0,1.782546 1.446546,3.729045 3.228001,3.729045 1.012711,0.0042 2.301332,-0.005 3.038949,-9e-5 z M 41.224363,21.714546 v 0 c 0,-1.262182 0.908728,-2.285456 2.02691,-2.285456 v 0 c 1.118182,0 2.025818,1.023274 2.025818,2.285456 v 0 20.90509 C 45.277091,45.58909 42.866181,48 39.896727,48 H 21.973091 v 0 c -1.118182,0 -2.025818,-1.024364 -2.025818,-2.285454 v 0 c 0,-1.262182 2.025818,-1.785501 2.025818,-1.785501 v 0 h 16.023272 c 1.781456,0 3.228,-1.946499 3.228,-3.729045 z"
     fill-rule="evenodd"
     id="path3"
     sodipodi:nodetypes="sscsssscccsssscsssscssszssscsscsssscsszscsssscsscsssscss"
     style="isolation:isolate;fill:url(#linearGradient2);fill-opacity:1;stroke-width:1.0909" />
</svg>
