<?xml version="1.0" encoding="UTF-8" standalone="no"?>
<svg
   width="16"
   height="16"
   viewBox="0 0 16 16"
   fill="none"
   version="1.1"
   id="svg14303"
   sodipodi:docname="user-desktop.svg"
   inkscape:version="1.3.2 (091e20ef0f, 2023-11-25, custom)"
   xmlns:inkscape="http://www.inkscape.org/namespaces/inkscape"
   xmlns:sodipodi="http://sodipodi.sourceforge.net/DTD/sodipodi-0.dtd"
   xmlns:xlink="http://www.w3.org/1999/xlink"
   xmlns="http://www.w3.org/2000/svg"
   xmlns:svg="http://www.w3.org/2000/svg">
  <sodipodi:namedview
     id="namedview14305"
     pagecolor="#ffffff"
     bordercolor="#666666"
     borderopacity="1.0"
     inkscape:showpageshadow="2"
     inkscape:pageopacity="0.0"
     inkscape:pagecheckerboard="0"
     inkscape:deskcolor="#d1d1d1"
     showgrid="false"
     inkscape:zoom="29.5"
     inkscape:cx="3.6949153"
     inkscape:cy="10.508475"
     inkscape:current-layer="svg14303" />
  <g
     id="path14282"
     transform="matrix(0.22764453,0,0,0.22764453,0.65819985,0.73244759)">
    <path
       id="path12826"
       style="color:#000000;fill:url(#linearGradient430);-inkscape-stroke:none"
       d="M 11.78125,3.4960938 C 10.4841,3.4853384 9.169178,3.5321989 7.8574219,3.8144531 l -0.00977,0.00195 -0.00977,0.00195 C 4.4623973,4.6903656 1.8239175,7.6264324 1.5664062,10.970703 v 0.002 0.0039 c -0.1086307,1.717421 -0.047369,3.416146 -0.050781,5.087891 v 0.002 c -0.047549,0.929429 0.3008887,1.966119 1.2070312,2.539063 1.5840766,1.143399 4.0361146,0.255088 4.3925782,-1.632813 l 0.00391,-0.01953 0.00195,-0.01953 C 7.3316601,15.037554 7.0957104,13.203152 7.234375,11.455078 7.3315563,10.207261 8.5612183,9.0571799 9.9394531,8.9882812 12.619329,8.8775597 15.351636,9.0678549 18.115234,8.90625 h 0.01953 l 0.01758,-0.00391 C 20.281586,8.6115061 21.218638,5.8707645 19.716797,4.4042969 19.141822,3.777638 18.36611,3.5748066 17.648438,3.5253906 c -0.724085,-0.049857 -1.433296,0.025972 -2,-0.00391 L 15.625,3.5195312 H 15.60156 C 14.358455,3.5744382 13.0784,3.5068486 11.78125,3.4960938 Z M 27.09375,4.03125 c -1.321999,-0.0893 -2.509831,1.0602956 -2.394531,2.3027344 0.0082,1.1880888 1.186967,2.2162105 2.447265,2.1191406 9.212991,0.03495 18.425875,-0.00762 27.634766,0.023437 1.886298,-0.05824 3.563072,1.522553 3.513672,3.300781 0.0329,5.882194 -0.005,11.76429 0.01563,17.646485 -8.603492,0.0388 -17.210768,0.02762 -25.818359,0.07422 -1.227299,-0.0505 -2.339263,0.958229 -2.351563,2.111328 -0.1071,1.215298 1.021061,2.349352 2.318359,2.314452 8.611692,0.0893 17.228153,-0.08175 25.839844,-0.03125 -0.0206,2.069499 0.08248,4.143387 -0.04102,6.208984 -0.189499,1.770399 -2.075211,3.028211 -3.912109,2.84961 -14.690485,-0.0155 -29.381874,0.0155 -44.068359,0 -1.8615484,0.0699 -3.5787665,-1.440427 -3.5664065,-3.203125 -0.06178,-4.791095 0.041354,-9.581846 -0.041016,-14.369141 0.04942,-1.665698 -2.2203977,-2.765258 -3.6289063,-1.755859 -0.934899,0.528099 -1.0785031,1.618988 -1.0332031,2.554687 0.04119,4.659196 -0.053918,9.319322 0.044922,13.978516 0.1359098,3.816596 3.7479915,7.170085 7.8046875,7.208984 5.6052744,0.0038 11.2092594,0.03878 16.8144534,-0.01563 -3.282397,2.756698 -6.415147,5.669353 -9.652344,8.46875 -0.667199,0.594 -1.479012,1.226423 -1.507812,2.169922 -0.1318,1.312299 1.157023,2.485522 2.544922,2.357422 9.62489,0.0117 19.253922,0.0117 28.882812,0 1.387999,0.1243 2.636194,-1.080261 2.496094,-2.380859 -0.0617,-1.114399 -1.121107,-1.765963 -1.878906,-2.476563 -3.125897,-2.694497 -6.089657,-5.564593 -9.314453,-8.15039 5.650594,0.0854 11.304483,0.03516 16.955078,0.03516 4.208995,-0.0543 7.862968,-3.67251 7.792968,-7.628906 0.0083,-9.450391 0.02079,-18.909085 -0.0039,-28.359375 -0.0783,-3.863246 -3.694491,-7.3069255 -7.804687,-7.3535155 -9.361291,-0.01553 -18.7266,-0.01165 -28.087891,0 z m 5.410156,44.205078 c 2.907597,2.535298 5.757738,5.136465 8.677735,7.664063 -5.802895,0.0155 -11.601403,0.01551 -17.404297,0.0039 2.936397,-2.527598 5.794165,-5.136471 8.726562,-7.667969 z" />
  </g>
  <defs
     id="defs14301">
    <linearGradient
       id="linearGradient998"
       x1="0.22078557"
       y1="0.047239967"
       x2="0.9022491"
       y2="0.90614605"
       gradientTransform="matrix(43.5,0,0,44,5,2)"
       gradientUnits="userSpaceOnUse"
       spreadMethod="pad">
      <stop
         offset="0.0001"
         stop-opacity="1"
         style="stop-color:#00f1fa;stop-opacity:1;"
         id="stop994" />
      <stop
         offset="0.99993777"
         stop-opacity="1"
         style="stop-color:#006cff;stop-opacity:1;"
         id="stop996" />
    </linearGradient>
    <linearGradient
       id="linearGradient436"
       x1="0.22078557"
       y1="0.047239967"
       x2="0.9022491"
       y2="0.90614605"
       gradientTransform="matrix(43.5,0,0,44,5,2)"
       gradientUnits="userSpaceOnUse"
       spreadMethod="pad">
      <stop
         offset="0.00000001"
         stop-opacity="1"
         style="stop-color:#00f1fa;stop-opacity:1;"
         id="stop432" />
      <stop
         offset="0.99993777"
         stop-opacity="1"
         style="stop-color:#006cff;stop-opacity:1;"
         id="stop434" />
    </linearGradient>
    <linearGradient
       id="linearGradient428"
       x1="0.22078557"
       y1="0.047239967"
       x2="0.9022491"
       y2="0.90614605"
       gradientTransform="matrix(43.5,0,0,44,5,2)"
       gradientUnits="userSpaceOnUse"
       spreadMethod="pad">
      <stop
         offset="0.0001"
         stop-opacity="1"
         style="stop-color:#00f1fa;stop-opacity:1;"
         id="stop424" />
      <stop
         offset="0.99993777"
         stop-opacity="1"
         style="stop-color:#006cff;stop-opacity:1;"
         id="stop426" />
    </linearGradient>
    <linearGradient
       id="linearGradient14839"
       x1="3.134865"
       y1="32"
       x2="4.5678296"
       y2="32.39473"
       gradientUnits="userSpaceOnUse">
      <stop
         stop-color="#00f1fa"
         id="stop14835"
         offset="0"
         style="stop-color:#00f1fa;stop-opacity:1;" />
      <stop
         offset="1"
         stop-color="#006cff"
         id="stop14837" />
    </linearGradient>
    <linearGradient
       id="paint0_linear"
       x1="3.134865"
       y1="32"
       x2="63.000008"
       y2="32.18811"
       gradientUnits="userSpaceOnUse"
       xlink:href="#linearGradient8325">
      <stop
         stop-color="#00f1fa"
         id="stop14286"
         offset="0"
         style="stop-color:#00f1fa;stop-opacity:1;" />
      <stop
         offset="1"
         stop-color="#006cff"
         id="stop14288" />
    </linearGradient>
    <linearGradient
       id="paint1_linear"
       x1="3.134865"
       y1="32"
       x2="63.000008"
       y2="32.18811"
       gradientUnits="userSpaceOnUse">
      <stop
         stop-color="#00f1fa"
         id="stop14291"
         offset="0"
         style="stop-color:#00f1fa;stop-opacity:1;" />
      <stop
         offset="1"
         stop-color="#006cff"
         id="stop14293" />
    </linearGradient>
    <linearGradient
       id="paint2_linear"
       x1="3.134865"
       y1="32"
       x2="4.5678296"
       y2="32.39473"
       gradientUnits="userSpaceOnUse">
      <stop
         stop-color="#00f1fa"
         id="stop14296" />
      <stop
         offset="1"
         stop-color="#006cff"
         id="stop14298" />
    </linearGradient>
    <linearGradient
       inkscape:collect="always"
       xlink:href="#linearGradient8325"
       id="linearGradient14424"
       gradientUnits="userSpaceOnUse"
       x1="1.9999987"
       y1="32.18811"
       x2="63.000008"
       y2="32.18811" />
    <linearGradient
       inkscape:collect="always"
       xlink:href="#linearGradient8325"
       id="linearGradient5043"
       gradientUnits="userSpaceOnUse"
       gradientTransform="matrix(65.760858,0,0,58.666665,3.5257676,-2.7347745)"
       x1="-0.02320178"
       y1="0.59527647"
       x2="0.90440184"
       y2="0.59527647" />
    <linearGradient
       id="linearGradient8325"
       x1="0.22078557"
       y1="0.047239967"
       x2="0.9022491"
       y2="0.90614605"
       gradientTransform="matrix(43.5,0,0,44,5,2)"
       gradientUnits="userSpaceOnUse"
       spreadMethod="pad">
      <stop
         offset="0.00018442"
         stop-opacity="1"
         style="stop-color:#00f1fa;stop-opacity:1;"
         id="stop8321" />
      <stop
         offset="0.99993777"
         stop-opacity="1"
         style="stop-color:#006cff;stop-opacity:1;"
         id="stop8323" />
    </linearGradient>
    <linearGradient
       inkscape:collect="always"
       xlink:href="#linearGradient436"
       id="linearGradient430"
       gradientUnits="userSpaceOnUse"
       gradientTransform="matrix(43.5,0,0,44,5,2)"
       x1="0.30015266"
       y1="1.3260387"
       x2="1.333019"
       y2="0.21329014"
       spreadMethod="pad" />
  </defs>
</svg>
