<?xml version="1.0" encoding="UTF-8" standalone="no"?>
<!-- Generator: Gravit.io -->

<svg
   style="isolation:isolate"
   viewBox="0 0 22 22"
   width="22pt"
   height="22pt"
   version="1.1"
   id="svg9"
   sodipodi:docname="folder-games.svg"
   inkscape:version="1.3.2 (091e20ef0f, 2023-11-25, custom)"
   xmlns:inkscape="http://www.inkscape.org/namespaces/inkscape"
   xmlns:sodipodi="http://sodipodi.sourceforge.net/DTD/sodipodi-0.dtd"
   xmlns:xlink="http://www.w3.org/1999/xlink"
   xmlns="http://www.w3.org/2000/svg"
   xmlns:svg="http://www.w3.org/2000/svg">
  <defs
     id="defs13">
    <linearGradient
       id="linearGradient7298"
       x1="0"
       y1="0.49999997"
       x2="1"
       y2="0.49999997"
       gradientTransform="matrix(46.1,0,0,37.1,0.95,9.95)"
       gradientUnits="userSpaceOnUse">
      <stop
         offset="0"
         stop-opacity="1"
         style="stop-color:#e5f230;stop-opacity:1;"
         id="stop7294" />
      <stop
         offset="1"
         stop-opacity="1"
         style="stop-color:#24d864;stop-opacity:1;"
         id="stop7296" />
    </linearGradient>
    <linearGradient
       id="linearGradient1135"
       x1="0"
       y1="0.49999997"
       x2="1"
       y2="0.49999997"
       gradientTransform="matrix(46.1,0,0,37.1,0.95,9.95)"
       gradientUnits="userSpaceOnUse">
      <stop
         offset="0"
         stop-opacity="1"
         style="stop-color:#e5f230;stop-opacity:1;"
         id="stop1131" />
      <stop
         offset="1"
         stop-opacity="1"
         style="stop-color:#54d864;stop-opacity:1;"
         id="stop1133" />
    </linearGradient>
    <linearGradient
       id="linearGradient9689"
       x1="-191.17393"
       y1="249.12497"
       x2="255.24251"
       y2="54.070564"
       gradientUnits="userSpaceOnUse"
       gradientTransform="matrix(0.09766906,0,0,0.09766906,22.620997,18.718979)"
       spreadMethod="pad">
      <stop
         id="stop244"
         offset="0"
         style="stop-color:#e5f230;stop-opacity:1;" />
      <stop
         offset="1"
         id="stop246"
         style="stop-color:#24d864;stop-opacity:1;" />
    </linearGradient>
    <linearGradient
       id="_lgradient_4"
       x1="0.07809598"
       y1="1"
       x2="1.00001"
       y2="0.5"
       gradientTransform="matrix(16.000041,0,0,11.463657,-1.9985843e-4,2.2681711)"
       gradientUnits="userSpaceOnUse"
       xlink:href="#linearGradient9689">
      <stop
         offset="0"
         stop-opacity="1"
         style="stop-color:#e5f230;stop-opacity:1;"
         id="stop1" />
      <stop
         offset="1"
         stop-opacity="1"
         style="stop-color:#24d864;stop-opacity:1;"
         id="stop2" />
    </linearGradient>
    <linearGradient
       inkscape:collect="always"
       xlink:href="#_lgradient_4"
       id="linearGradient1"
       gradientUnits="userSpaceOnUse"
       gradientTransform="matrix(-21.000038,0,0,15.046038,21.000265,2.269137)"
       x1="0.33948129"
       y1="1.0000001"
       x2="1.2552511e-05"
       y2="0.50000006" />
    <linearGradient
       inkscape:collect="always"
       xlink:href="#_lgradient_4"
       id="linearGradient3"
       gradientUnits="userSpaceOnUse"
       gradientTransform="matrix(21.000038,0,0,15.046038,-2.6243935e-4,2.269137)"
       x1="0.31946519"
       y1="1.0000001"
       x2="1.00001"
       y2="0.5" />
    <linearGradient
       inkscape:collect="always"
       xlink:href="#_lgradient_4"
       id="linearGradient4"
       gradientUnits="userSpaceOnUse"
       gradientTransform="matrix(16.000041,0,0,11.463657,-1.9985843e-4,2.2681711)"
       x1="0.07809598"
       y1="1"
       x2="1.00001"
       y2="0.5" />
  </defs>
  <sodipodi:namedview
     id="namedview11"
     pagecolor="#ffffff"
     bordercolor="#666666"
     borderopacity="1.0"
     inkscape:showpageshadow="2"
     inkscape:pageopacity="0.0"
     inkscape:pagecheckerboard="0"
     inkscape:deskcolor="#d1d1d1"
     inkscape:document-units="pt"
     showgrid="false"
     inkscape:zoom="16"
     inkscape:cx="2.125"
     inkscape:cy="15.8125"
     inkscape:current-layer="svg9" />
  <g
     id="g4"
     transform="translate(0.49999968,1.2098718)">
    <path
       d="m 8.5990193,11.387036 v 0 c 0.3911964,0 0.7090433,0.317848 0.7090433,0.709044 v 0 c 0,0.391198 -0.3178469,0.708575 -0.7090433,0.708575 v 0 H 5.6622198 c -0.1955988,0 -0.4020113,0.151401 -0.4603146,0.338067 l -0.7800431,2.482125 c -0.293397,0.932856 -1.3254622,1.690329 -2.3034536,1.690329 H 1.639756 c -0.97799274,0 -1.71007684,-0.791328 -1.6343756,-1.7665 L 0.69702722,6.6550576 C 0.77272599,5.6798863 1.2259895,4.3017624 1.707933,3.578612 v 0 C 2.190347,2.8559321 3.3756923,2.269137 4.3536849,2.269137 h 6.7904661 v 0 c 0.391196,0 0.709044,0.3178471 0.709044,0.7090447 v 0 c 0,0.3911963 -0.317848,0.708574 -0.709044,0.708574 v 0 H 4.4030547 c -0.5867951,0 -1.3066548,0.3662768 -1.6071051,0.8171884 v 0 C 2.4959697,4.9548544 2.2086837,5.7950824 2.1550831,6.3795268 L 1.3501192,15.191803 c -0.035738,0.389788 0.2529622,0.705753 0.6441585,0.705753 h 0.2303932 c 0.3911964,0 0.8040227,-0.3028 0.9210988,-0.67613 l 0.8867761,-2.820193 c 0.1758514,-0.559524 0.795089,-1.014197 1.3818854,-1.014197 z M 4.0555853,7.0815177 V 8.00873 h 1.1641871 c 0.1894866,0 0.3432372,0.153752 0.3432372,0.3432386 V 9.5161558 H 6.4897527 V 8.351498 c 0,-0.1894866 0.1537506,-0.3432372 0.3432372,-0.3432372 H 7.9976477 V 7.0819884 H 6.8329899 c -0.1894866,0 -0.3432372,-0.1537519 -0.3432372,-0.3432372 V 5.5740934 H 5.5630096 v 1.1641871 c 0,0.1894867 -0.1537506,0.3432372 -0.3432372,0.3432372 z M 15.681472,7.4398023 c 0,-0.3893164 0.315966,-0.7052832 0.705283,-0.7052832 0.389316,0 0.705283,0.3159668 0.705283,0.7052832 0,0.3893162 -0.315967,0.7052831 -0.705283,0.7052831 -0.389317,0 -0.705283,-0.3159669 -0.705283,-0.7052831 z m -2.821134,0 c 0,-0.3893164 0.315967,-0.7052832 0.705284,-0.7052832 0.389316,0 0.705283,0.3159668 0.705283,0.7052832 0,0.3893162 -0.315967,0.7052831 -0.705283,0.7052831 -0.389317,0 -0.705284,-0.3159669 -0.705284,-0.7052831 z m 2.11585,-2.1158497 c 0.389317,0 0.705284,0.3159671 0.705284,0.7052833 0,0.3893162 -0.315967,0.7052832 -0.705284,0.7052832 -0.389316,0 -0.705283,-0.315967 -0.705283,-0.7052832 0,-0.3893162 0.315967,-0.7052833 0.705283,-0.7052833 z M 5.2197724,4.8871481 h 1.6132175 c 0.1894865,0 0.3432373,0.1537507 0.3432373,0.3432374 v 1.1646578 h 1.1646577 c 0.1894867,0 0.3432374,0.1537507 0.3432374,0.3432372 V 8.351498 l -4.695e-4,4.706e-4 v 0 c 0,0.1894853 -0.1537519,0.3432373 -0.3432384,0.3427667 H 7.1757578 V 9.859393 c 0,0.189487 -0.1537519,0.343237 -0.3427679,0.343237 H 5.2197724 c -0.1894852,0 -0.3432373,-0.15375 -0.3432373,-0.343237 V 8.6947353 H 3.712348 c -0.1894866,0 -0.3432385,-0.1532814 -0.3432385,-0.3427667 V 6.7387512 c 0,-0.1894867 0.1537519,-0.3432386 0.3432385,-0.3432386 H 4.8765351 V 5.2303855 c 0,-0.1894867 0.1537521,-0.3432374 0.3432373,-0.3432374 z m 9.7564156,3.2579373 c 0.389317,0 0.705284,0.315967 0.705284,0.7052831 0,0.3893163 -0.315967,0.7052821 -0.705284,0.7052821 -0.389316,0 -0.705283,-0.3159658 -0.705283,-0.7052821 0,-0.3893161 0.315967,-0.7052831 0.705283,-0.7052831 z"
       fill-rule="evenodd"
       fill="url(#_lgradient_4)"
       id="path2"
       style="display:inline;isolation:isolate;fill:url(#linearGradient3);stroke-width:0.470188"
       sodipodi:nodetypes="csssscsccssccssscsssscsssccssccscccssccssccssccsscsssssssssssssssssscssccsccsssscsssscsssssss" />
    <path
       d="m 11.612745,11.387036 c -0.926055,0 -0.926708,1.417619 4.92e-4,1.417619 h 3.724544 c 0.195599,0 0.402012,0.151401 0.460315,0.338067 l 0.780043,2.482125 c 0.293397,0.932856 1.325462,1.690329 2.303454,1.690329 h 0.478652 c 0.977993,0 1.710078,-0.791328 1.634375,-1.7665 L 20.302974,6.6550576 C 20.227276,5.6798863 19.774012,4.3017624 19.292068,3.578612 v 0 C 18.809655,2.8559321 17.624301,2.2732186 16.646316,2.269137 14.502534,2.26019 14.59067,2.2688207 14.580329,2.2689123 c -0.292668,0.0026 -0.708596,0.3746768 -0.708601,0.7087495 -7e-6,0.3342236 0.31772,0.705076 0.708896,0.7090939 2.433753,0.024998 -0.222056,0.024407 2.016323,0 0.586759,-0.00639 1.306654,0.3662768 1.607105,0.8171884 v 0 c 0.299979,0.4509103 0.587266,1.2911383 0.640866,1.8755827 l 0.804964,8.8122762 c 0.03574,0.389788 -0.252963,0.705753 -0.644158,0.705753 H 18.77533 c -0.391197,0 -0.804022,-0.3028 -0.921098,-0.67613 l -0.886777,-2.820193 c -0.175851,-0.559524 -0.795088,-1.014197 -1.381886,-1.014197 z"
       fill-rule="evenodd"
       fill="url(#_lgradient_4)"
       id="path1"
       style="display:inline;isolation:isolate;fill:url(#linearGradient1);stroke-width:0.470188"
       sodipodi:nodetypes="sccccssccsssssssssccssccss" />
  </g>
  <path
     d="m 6.5516391,9.2151471 v 0 c 0.2980546,0 0.5402239,0.2421704 0.5402239,0.5402246 v 0 c 0,0.2980563 -0.2421693,0.5398673 -0.5402239,0.5398673 v 0 H 4.3140758 c -0.1490278,0 -0.3062946,0.115353 -0.3507162,0.257575 l -0.594319,1.891144 C 3.1454998,13.154706 2.3591638,13.731829 1.6140269,13.731829 H 1.249339 c -0.74513792,0 -1.30291673,-0.602917 -1.24523955,-1.345906 L 0.53106888,5.6098276 C 0.58874418,4.8668394 0.93408808,3.8168394 1.3012834,3.2658672 v 0 C 1.6688372,2.7152535 2.5719582,2.2681712 3.317096,2.2681712 h 5.1736922 v 0 c 0.2980546,0 0.5402249,0.2421694 0.5402249,0.5402249 v 0 c 0,0.2980546 -0.2421703,0.5398664 -0.5402249,0.5398664 v 0 H 3.3547111 c -0.4470823,0 -0.9955473,0.2790682 -1.224462,0.6226202 v 0 C 1.9016928,4.3144337 1.6828081,4.9546079 1.6419695,5.3998992 L 1.0286632,12.11402 c -0.027229,0.296981 0.1927332,0.537717 0.4907878,0.537717 h 0.1755378 c 0.2980546,0 0.6125892,-0.230705 0.7017901,-0.515147 L 3.0724184,9.9878697 C 3.2064005,9.5615649 3.678201,9.2151471 4.1252843,9.2151471 Z M 11.117398,3.3482625 v 0 c -0.298054,0 -0.539867,-0.2418118 -0.539867,-0.5398664 v 0 c 0,-0.2980555 0.241813,-0.5402249 0.539867,-0.5402249 v 0 h 1.565506 c 0.745138,0 1.648259,0.4470823 2.015813,0.997696 v 0 c 0.367195,0.5509722 0.712538,1.6009722 0.770215,2.3439604 0.06365,0.8199538 0.351313,4.5173974 0.526969,6.7760954 0.05778,0.74298 -0.500102,1.345906 -1.245239,1.345906 H 14.17533 c -0.745139,0 -1.608137,-0.547031 -1.925895,-1.221237 l -0.929273,-1.971034 c -0.0634,-0.134697 -0.23608,-0.244319 -0.385108,-0.244319 H 8.8099788 v 0 c -0.2980546,0 -0.5398663,-0.241811 -0.5398663,-0.5398673 v 0 c 0,-0.2980542 0.2418117,-0.5402246 0.5398663,-0.5402246 v 0 h 2.4654032 c 0.298055,0 0.64304,0.2188847 0.770215,0.4886386 l 1.159621,2.4596713 c 0.127174,0.269395 0.472159,0.488279 0.770213,0.488279 h 0.505119 c 0.298054,0 0.518014,-0.240736 0.490787,-0.537717 L 14.358031,5.3998992 C 14.317194,4.9546079 14.098308,4.3144337 13.869751,3.9708827 v 0 C 13.640837,3.6273307 13.092372,3.3482625 12.645289,3.3482625 Z M 3.0899723,5.9347499 v 0.706448 h 0.8870004 c 0.1443709,0 0.2615143,0.1171445 0.2615143,0.2615153 v 0.8870005 h 0.7060905 v -0.887359 c 0,-0.1443709 0.1171434,-0.2615143 0.2615143,-0.2615143 h 0.887359 V 5.9351085 h -0.887359 c -0.1443709,0 -0.2615143,-0.1171444 -0.2615143,-0.2615143 V 4.7862352 H 4.238487 v 0.8870004 c 0,0.1443709 -0.1171434,0.2615143 -0.2615143,0.2615143 z m 8.8578257,0.2729789 c 0,-0.2966222 0.240736,-0.537359 0.537359,-0.537359 0.296622,0 0.537359,0.2407368 0.537359,0.537359 0,0.2966221 -0.240737,0.537359 -0.537359,0.537359 -0.296623,0 -0.537359,-0.2407369 -0.537359,-0.537359 z m -2.1494375,0 c 0,-0.2966222 0.2407375,-0.537359 0.5373595,-0.537359 0.296622,0 0.537359,0.2407368 0.537359,0.537359 0,0.2966221 -0.240737,0.537359 -0.537359,0.537359 -0.296622,0 -0.5373595,-0.2407369 -0.5373595,-0.537359 z M 11.410438,4.5956516 c 0.296623,0 0.53736,0.240737 0.53736,0.5373591 0,0.2966221 -0.240737,0.5373591 -0.53736,0.5373591 -0.296622,0 -0.537359,-0.240737 -0.537359,-0.5373591 0,-0.2966221 0.240737,-0.5373591 0.537359,-0.5373591 z M 3.9769727,4.2628479 h 1.2291191 c 0.1443708,0 0.2615143,0.1171435 0.2615143,0.2615144 v 0.887359 h 0.887359 c 0.1443709,0 0.2615144,0.1171435 0.2615144,0.2615143 v 1.2291191 l -3.577e-4,3.585e-4 v 0 c 0,0.1443699 -0.1171444,0.2615144 -0.2615152,0.2611558 H 5.4672485 v 0.887359 c 0,0.1443709 -0.1171444,0.2615144 -0.2611567,0.2615144 H 3.9769727 c -0.1443698,0 -0.2615143,-0.1171435 -0.2615143,-0.2615144 V 7.163869 H 2.828458 c -0.1443709,0 -0.2615153,-0.1167859 -0.2615153,-0.2611558 v -1.229119 c 0,-0.1443709 0.1171444,-0.2615153 0.2615153,-0.2615153 H 3.7154584 V 4.5243623 c 0,-0.1443709 0.1171445,-0.2615144 0.2615143,-0.2615144 z m 7.4334653,2.4822399 c 0.296623,0 0.53736,0.240737 0.53736,0.537359 0,0.2966222 -0.240737,0.5373582 -0.53736,0.5373582 -0.296622,0 -0.537359,-0.240736 -0.537359,-0.5373582 0,-0.296622 0.240737,-0.537359 0.537359,-0.537359 z"
     fill-rule="evenodd"
     fill="url(#_lgradient_4)"
     id="path3"
     style="display:none;isolation:isolate;fill:url(#linearGradient4);stroke-width:0.358239"
     sodipodi:nodetypes="csssscsccssccssscsssscsssccssccsccsssscsssssssccscsssscsccssccssscccssccssccssccsscsssssssssssssssssscssccsccsssscsssscsssssss" />
</svg>
