<?xml version="1.0" encoding="UTF-8" standalone="no"?>
<svg
   width="128"
   height="128"
   viewBox="0 0 128 128"
   fill="none"
   version="1.1"
   id="svg2"
   sodipodi:docname="document-print.svg"
   inkscape:version="1.3.2 (091e20ef0f, 2023-11-25, custom)"
   xmlns:inkscape="http://www.inkscape.org/namespaces/inkscape"
   xmlns:sodipodi="http://sodipodi.sourceforge.net/DTD/sodipodi-0.dtd"
   xmlns="http://www.w3.org/2000/svg"
   xmlns:svg="http://www.w3.org/2000/svg">
  <sodipodi:namedview
     id="namedview2"
     pagecolor="#ffffff"
     bordercolor="#666666"
     borderopacity="1.0"
     inkscape:showpageshadow="2"
     inkscape:pageopacity="0.0"
     inkscape:pagecheckerboard="0"
     inkscape:deskcolor="#d1d1d1"
     inkscape:zoom="4.5796213"
     inkscape:cx="42.034043"
     inkscape:cy="66.490214"
     inkscape:current-layer="svg2" />
  <path
     d="M 114.83594,42.0625 H 98.804685 V 25.820313 c 0,-1.05781 -0.528185,-2.045841 -1.409065,-2.632669 L 78.41125,10.531352 C 77.8915,10.184781 77.280794,10 76.65625,10 H 32.148437 c -1.747406,0 -3.164063,1.416656 -3.164063,3.164063 V 42.0625 H 13.164063 C 11.416656,42.0625 10,43.479156 10,45.226563 v 44.296874 c 0,1.747407 1.416656,3.164063 3.164063,3.164063 h 15.820311 v 22.14844 c 0,1.74741 1.416657,3.16406 3.164063,3.16406 h 63.492187 c 1.747408,0 3.164061,-1.41665 3.164061,-3.16406 V 92.6875 H 114.83594 C 116.58335,92.6875 118,91.270844 118,89.523437 V 45.226563 C 118,43.479156 116.58335,42.0625 114.83594,42.0625 Z M 79.820313,19.076219 85.19036,22.65625 H 79.820313 Z M 35.3125,16.328126 h 38.179687 v 9.492187 c 0,1.747406 1.416657,3.164061 3.164063,3.164061 h 15.820313 v 16.242189 c 0,1.744622 -1.419441,3.164061 -3.164063,3.164061 H 38.476563 c -1.744623,0 -3.164063,-1.419439 -3.164063,-3.164061 z M 92.476563,111.67187 H 35.3125 V 83.195313 c 0,-1.744623 1.41944,-3.164063 3.164063,-3.164063 H 89.3125 c 1.744622,0 3.164063,1.41944 3.164063,3.164063 z M 111.67187,86.359374 H 98.804685 v -3.164061 c 0,-5.23395 -4.258404,-9.492189 -9.492185,-9.492189 H 38.476563 c -5.23395,0 -9.492189,4.258239 -9.492189,9.492189 v 3.164061 H 16.328126 v -37.96875 h 13.200468 c 1.306125,3.682716 4.823043,6.328126 8.947969,6.328126 H 89.3125 c 4.124926,0 7.641847,-2.64541 8.947968,-6.328126 h 13.411402 z m -28.687496,0 H 44.804687 c -1.747406,0 -3.164063,1.416657 -3.164063,3.164063 0,1.747407 1.416657,3.164063 3.164063,3.164063 h 38.179687 c 1.747407,0 3.164063,-1.416656 3.164063,-3.164063 0,-1.747406 -1.416656,-3.164063 -3.164063,-3.164063 z m 0,12.656256 H 44.804687 c -1.747406,0 -3.164063,1.41665 -3.164063,3.16406 0,1.74741 1.416657,3.16407 3.164063,3.16407 h 38.179687 c 1.747407,0 3.164063,-1.41666 3.164063,-3.16407 0,-1.74741 -1.416656,-3.16406 -3.164063,-3.16406 z"
     fill="url(#paint0_linear)"
     id="path1"
     style="fill:url(#paint0_linear);stroke-width:0.84375"
     sodipodi:nodetypes="scsccssscsssscsssscssssccccccsscsssscccsssscccssssccccsscccssssssssssssss" />
  <defs
     id="defs2">
    <linearGradient
       id="paint0_linear"
       x1="65.734047"
       y1="151.03279"
       x2="128"
       y2="64"
       gradientUnits="userSpaceOnUse"
       gradientTransform="matrix(0.84375003,0,0,0.84375003,10,10)">
      <stop
         id="stop1"
         offset="0"
         style="stop-color:#e5f230;stop-opacity:1;" />
      <stop
         offset="1"
         id="stop2"
         style="stop-color:#24d864;stop-opacity:1;" />
    </linearGradient>
  </defs>
</svg>
