<?xml version="1.0" encoding="UTF-8" standalone="no"?>
<!-- Generator: Gravit.io -->

<svg
   style="isolation:isolate"
   viewBox="0 0 48 48"
   width="48pt"
   height="48pt"
   version="1.1"
   id="svg6812"
   sodipodi:docname="folder-3.svg"
   inkscape:version="1.4 (e7c3feb100, 2024-10-09)"
   xmlns:inkscape="http://www.inkscape.org/namespaces/inkscape"
   xmlns:sodipodi="http://sodipodi.sourceforge.net/DTD/sodipodi-0.dtd"
   xmlns:xlink="http://www.w3.org/1999/xlink"
   xmlns="http://www.w3.org/2000/svg"
   xmlns:svg="http://www.w3.org/2000/svg">
  <defs
     id="defs6816">
    <linearGradient
       id="linearGradient2909"
       x1="0"
       y1="0.5"
       x2="1"
       y2="0.5"
       gradientTransform="matrix(46.1,0,0,37.1,0.95,5.45)"
       gradientUnits="userSpaceOnUse">
      <stop
         offset="0"
         stop-opacity="1"
         style="stop-color:#ff69ff;stop-opacity:1;"
         id="stop2903" />
      <stop
         offset="1"
         stop-opacity="1"
         style="stop-color:#9033dd;stop-opacity:1;"
         id="stop2907" />
    </linearGradient>
    <linearGradient
       inkscape:collect="always"
       xlink:href="#linearGradient2909"
       id="linearGradient388"
       gradientUnits="userSpaceOnUse"
       gradientTransform="matrix(17.230803,0,0,13.866872,-0.3152386,1.3636642)"
       x1="0.18724659"
       y1="1.0292805"
       x2="1.0108523"
       y2="0.5" />
  </defs>
  <sodipodi:namedview
     id="namedview6814"
     pagecolor="#ffffff"
     bordercolor="#666666"
     borderopacity="1.0"
     inkscape:showpageshadow="2"
     inkscape:pageopacity="0.0"
     inkscape:pagecheckerboard="0"
     inkscape:deskcolor="#d1d1d1"
     inkscape:document-units="pt"
     showgrid="true"
     inkscape:zoom="7.375"
     inkscape:cx="14.305085"
     inkscape:cy="24.271186"
     inkscape:current-layer="svg6812" />
  <g
     id="path6810"
     transform="matrix(2.547739,0,0,2.547739,2.854264,2.854264)"
     style="stroke-width:0.392505">
    <path
       id="path13583"
       style="color:#000000;fill:url(#linearGradient388);fill-opacity:1;fill-rule:evenodd;stroke-width:0.392503;-inkscape-stroke:none"
       d="m 0.66050587,0.96405136 c -0.80413004,0.058164 -1.4505232,0.83237834 -1.38265749,1.63276224 0.007466,1.5070237 -0.0147574,3.0157652 0.0107936,4.5217459 0.0704384,0.561257 0.8035996,0.874416 1.25068059,0.520063 0.3592355,-0.230206 0.3606039,-0.684376 0.3372691,-1.060865 0.00937,-1.3095369 0.00745,-2.3522117 0.01387,-3.6515861 C 0.88897547,2.5079645 1.3576181,2.5525988 1.5677745,2.5554945 H 5.3545332 C 5.7221208,2.8883857 6.0278035,3.2979643 6.4335022,3.5840924 6.9263858,3.8662343 7.6140058,3.4692093 7.6008039,2.8978738 7.6236229,2.3776443 7.1092864,2.1062168 6.8143672,1.7581076 6.4702412,1.395735 6.0914054,0.97340476 5.5508201,0.96051796 3.9210299,0.95663486 2.2901315,0.94944516 0.66050587,0.96405136 Z M 9.6054389,2.829982 C 8.9029876,2.8811896 8.4266864,3.4637014 7.8731063,3.8264651 7.3449209,4.2037117 6.8473319,4.6320549 6.3008478,4.9788459 5.8625739,5.1538559 5.3763558,5.0321508 4.9168133,5.0682226 4.4859389,5.0935642 4.0429439,5.0165522 3.6192759,5.1076437 3.0770995,5.2630674 2.8785061,6.0237853 3.2885772,6.4165692 3.6400052,6.8012005 4.197468,6.6294605 4.6524001,6.6669655 5.2771983,6.6470105 5.9079033,6.7073345 6.5291623,6.6364175 7.1481253,6.5107293 7.5744217,5.9972406 8.0847342,5.6660126 8.6139777,5.287971 9.1122066,4.8582878 9.6606509,4.512109 10.097815,4.3395312 10.582317,4.460257 11.040365,4.424346 c 1.519927,0.00292 2.835108,-0.00584 4.354676,0.00438 0.378779,0.00534 0.329072,0.3592376 0.328693,0.6120486 -0.0029,2.9581139 -0.01,5.8434904 -0.0044,8.8012464 -0.05356,0.207185 -0.401161,0.191936 -0.612049,0.196685 -4.702375,-0.0029 -9.2146736,0.0058 -13.9166907,-0.0044 -0.33332593,-2.51e-4 -0.30964903,-0.398335 -0.31402293,-0.612048 -0.00989,-1.197291 -0.003,-2.385831 -0.01387,-3.5928655 -0.086127,-0.56706 -0.84519451,-0.859329 -1.27917714,-0.475334 -0.40807123,0.293408 -0.29266398,0.8318035 -0.30569556,1.2603955 0.0104962,1.232532 -0.020742,2.467174 0.0151266,3.698437 0.0861574,0.795808 0.87201672,1.403408 1.6623129,1.324538 4.98757823,-0.0041 9.97560283,0.0082 14.96290183,-0.0061 0.812953,-0.04505 1.473292,-0.826246 1.404288,-1.633944 -0.0054,-3.266617 0.01077,-6.5338345 -0.008,-9.8000773 -0.06461,-0.8155511 -0.861172,-1.4539632 -1.66941,-1.3717072 -2.013162,0.00296 -4.026595,-0.0059 -6.0395991,0.00438 z"
       sodipodi:nodetypes="cccccccccccccscccccccccccccccccccccccccss" />
  </g>
</svg>
