<?xml version="1.0" encoding="UTF-8" standalone="no"?>
<svg
   width="16"
   height="16"
   fill="none"
   version="1.1"
   viewBox="0 0 16 16"
   id="svg3371"
   sodipodi:docname="folder-sound.svg"
   inkscape:version="1.3.2 (091e20ef0f, 2023-11-25, custom)"
   xmlns:inkscape="http://www.inkscape.org/namespaces/inkscape"
   xmlns:sodipodi="http://sodipodi.sourceforge.net/DTD/sodipodi-0.dtd"
   xmlns="http://www.w3.org/2000/svg"
   xmlns:svg="http://www.w3.org/2000/svg">
  <sodipodi:namedview
     id="namedview3373"
     pagecolor="#ffffff"
     bordercolor="#666666"
     borderopacity="1.0"
     inkscape:showpageshadow="2"
     inkscape:pageopacity="0.0"
     inkscape:pagecheckerboard="0"
     inkscape:deskcolor="#d1d1d1"
     showgrid="false"
     inkscape:zoom="29.5"
     inkscape:cx="5.9491525"
     inkscape:cy="7.7288136"
     inkscape:current-layer="svg3371" />
  <g
     id="path3357"
     transform="matrix(0.88308296,0,0,0.88308296,0.9356536,0.93082561)">
    <path
       id="path3903"
       style="color:#000000;fill:url(#paint0_linear-5);stroke-width:0.172;-inkscape-stroke:none"
       d="m 14.103516,0.08007812 c -0.04114,0.0024122 -0.08051,0.0077984 -0.119141,0.01367188 -0.0391,0.0059371 -0.07411,0.0155463 -0.111328,0.0234375 l 0.0039,-0.003906 -0.292969,0.0546875 h -0.002 C 12.620265,0.35593319 11.653388,0.54155697 10.693359,0.7265625 9.1372228,1.0258196 7.5896719,1.324487 6.0332031,1.6367188 5.7550351,1.6534313 5.5332895,1.8155544 5.3925781,2.0195312 5.2523142,2.2228596 5.1799294,2.4761616 5.1953125,2.7167969 c 0.00159,1.027951 2.994e-4,2.0557233 0,3.09375 -3.974e-4,1.5599968 -2.757e-4,3.1120025 0.00586,4.6718751 C 4.5516329,10.159521 3.7936416,10.042949 3.09375,10.25 1.9785789,10.566998 1.1256322,11.587336 1.0214844,12.734375 v 0.002 c -0.11619585,1.003612 0.3465668,2.038684 1.1660156,2.626953 0.7369589,0.548032 1.7396131,0.719915 2.6171875,0.427735 0.8831425,-0.272725 1.5908594,-0.992632 1.8808594,-1.857422 0.1329633,-0.307083 0.1593062,-0.624145 0.15625,-0.927735 -0.00143,-0.139635 -0.00813,-0.278123 -0.015625,-0.412109 -7.089e-4,-0.01269 -0.00125,-0.02434 -0.00195,-0.03711 -0.00818,-0.1477 -0.014843,-0.291086 -0.013672,-0.429688 4.04e-4,-0.705035 5.2e-5,-1.41133 0,-2.111328 C 6.8104675,8.8896748 6.8107544,7.7644824 6.8125,6.6386719 7.1884307,6.5608062 7.5681543,6.4988766 7.9492188,6.4394531 h 0.00391 C 8.384562,6.3725399 8.8201064,6.3025554 9.2558594,6.2070312 h 0.00391 C 9.5371082,6.1446543 9.819474,6.0996794 10.107422,6.0546875 c 0.03366,-0.00528 0.06785,-0.010291 0.101562,-0.015625 0.321873,-0.05038 0.648179,-0.1044005 0.972657,-0.1894531 h 0.0059 l 0.002,-0.00195 c 0.192255,-0.059241 0.363281,-0.1888789 0.476563,-0.3554687 0.113376,-0.1689524 0.170371,-0.3864551 0.101562,-0.6074219 h 0.002 l -0.0059,-0.015625 -0.0078,-0.013672 C 11.672186,4.6956803 11.544525,4.5387405 11.378906,4.4316406 11.213485,4.3241172 11.003017,4.2655755 10.78125,4.328125 10.664989,4.351299 10.548653,4.374836 10.433594,4.398437 9.9505923,4.497337 9.4746336,4.5941112 8.9921875,4.6445307 h -0.00391 l -0.00586,0.00195 C 8.6627061,4.6984677 8.3464036,4.7582823 8.03125,4.8203125 7.950871,4.836028 7.8707727,4.8518342 7.7910156,4.8671875 7.4614913,4.9309077 7.1334375,4.9889271 6.8027344,5.0351562 c 0.00161,-0.3044901 0.00222,-0.6087114 0.00195,-0.9082031 V 4.0859375 C 6.8043447,3.749433 6.8042016,3.4141878 6.8066406,3.078125 6.9620143,3.048747 7.118194,3.0195387 7.2734375,2.9902344 9.3189484,2.6047343 11.363308,2.215717 13.400391,1.7890625 c 0.0072,1.3151361 0.0069,2.6317626 0.0059,3.9472656 -9.71e-4,1.1262433 -0.0024,2.2616085 0.002,3.3886719 C 12.615966,8.807 11.67911,8.8681963 10.97665,9.3847656 10.132773,9.9750638 9.7312153,11.09986 10.021572,12.078125 c 0.237405,0.89799 1.008866,1.624251 1.925782,1.800781 0.815636,0.171537 1.696384,-0.09853 2.277343,-0.689453 0.591032,-0.584636 0.82127,-1.435974 0.761719,-2.226562 -0.004,-1.8478854 -0.003,-3.6951537 -0.002,-5.5332035 9.45e-4,-1.4973964 0.0019,-2.9946903 0,-4.4921875 0.03048,-0.36434489 -0.239896,-0.63145301 -0.470703,-0.77929688 l -0.0098,-0.005859 -0.01172,-0.005859 C 14.360542,0.0864383 14.226928,0.07284165 14.103516,0.08007812 Z M 12.421875,10.458984 c 0.179408,-0.0049 0.361475,0.04486 0.521484,0.138672 0.255984,0.149709 0.438426,0.402355 0.460938,0.691406 v 0.0098 l 0.002,0.01172 c 0.05692,0.287294 -0.05409,0.579494 -0.263672,0.791015 -0.209907,0.212681 -0.502956,0.330207 -0.794922,0.283204 h -0.0059 -0.0059 c -0.535139,-0.05198 -0.950657,-0.634405 -0.822266,-1.154297 l 0.002,-0.0059 c 0.06286,-0.30343 0.294268,-0.570718 0.585937,-0.693359 l 0.002,-0.002 h 0.0039 c 0.09978,-0.04465 0.206808,-0.06735 0.314453,-0.07031 z m -8.5175781,1.238282 c 0.546862,-0.0019 1.0987105,0.332106 1.2714843,0.851562 0.045768,0.324698 0.041327,0.662921 0.00977,1.003906 -0.2200181,0.627133 -0.9790554,1.006089 -1.6308594,0.810547 h -0.00195 -0.00391 l -0.00195,-0.002 C 2.8957666,14.18947 2.4427278,13.466393 2.5820312,12.814453 v -0.002 -0.002 -0.002 c 0.086276,-0.477231 0.4520146,-0.895188 0.9140626,-1.042969 l 0.035156,-0.01172 c 0.1209536,-0.03809 0.2468479,-0.0562 0.3730469,-0.05664 z" />
  </g>
  <defs
     id="defs3369">
    <linearGradient
       id="paint0_linear-5"
       x1="81.028419"
       x2="176"
       y1="165.0824"
       y2="13.9"
       gradientTransform="matrix(0.0861,0,0,0.0861,-0.291,-0.28)"
       gradientUnits="userSpaceOnUse">
      <stop
         offset="0"
         id="stop3359"
         style="stop-color:#b900ff;stop-opacity:1;" />
      <stop
         offset="1"
         id="stop3361"
         style="stop-color:#6444ff;stop-opacity:1;" />
    </linearGradient>
    <linearGradient
       id="paint1_linear-6"
       x1="29.3"
       x2="176"
       y1="181"
       y2="13.9"
       gradientTransform="matrix(.0861 0 0 .0861 -.291 -.28)"
       gradientUnits="userSpaceOnUse">
      <stop
         stop-color="#b900ff"
         offset="0"
         id="stop3364" />
      <stop
         stop-color="#6444ff"
         offset="1"
         id="stop3366" />
    </linearGradient>
  </defs>
</svg>
