<?xml version="1.0" encoding="UTF-8" standalone="no"?>
<svg
   width="22"
   height="22"
   viewBox="0 0 22 22"
   fill="none"
   version="1.1"
   id="svg4"
   sodipodi:docname="document-edit-sign.svg"
   inkscape:version="1.3.2 (091e20ef0f, 2023-11-25, custom)"
   xmlns:inkscape="http://www.inkscape.org/namespaces/inkscape"
   xmlns:sodipodi="http://sodipodi.sourceforge.net/DTD/sodipodi-0.dtd"
   xmlns="http://www.w3.org/2000/svg"
   xmlns:svg="http://www.w3.org/2000/svg">
  <sodipodi:namedview
     id="namedview4"
     pagecolor="#ffffff"
     bordercolor="#666666"
     borderopacity="1.0"
     inkscape:showpageshadow="2"
     inkscape:pageopacity="0.0"
     inkscape:pagecheckerboard="0"
     inkscape:deskcolor="#d1d1d1"
     inkscape:zoom="34.181818"
     inkscape:cx="11"
     inkscape:cy="13.340426"
     inkscape:current-layer="svg4" />
  <path
     d="M14.8202 14.0973L15.8897 13.0447C16.0568 12.8803 16.3475 12.9954 16.3475 13.2322V18.0149C16.3475 18.8866 15.629 19.5938 14.7434 19.5938H2.97919C2.09355 19.5938 1.375 18.8866 1.375 18.0149V6.43648C1.375 5.56483 2.09355 4.8576 2.97919 4.8576H12.1198C12.3571 4.8576 12.4774 5.14051 12.3103 5.30826L11.2409 6.36085C11.1907 6.41018 11.1239 6.43648 11.0504 6.43648H2.97919V18.0149H14.7434V14.2815C14.7434 14.2124 14.7701 14.1466 14.8202 14.0973ZM20.0539 7.45948L11.2776 16.0972L8.25636 16.4261C7.38076 16.5215 6.63544 15.7946 6.73234 14.9262L7.06657 11.9527L15.8429 3.31495C16.6082 2.56168 17.8448 2.56168 18.6068 3.31495L20.0506 4.73595C20.8159 5.48917 20.8159 6.70952 20.0539 7.45948ZM16.7519 8.47588L14.8102 6.5648L8.60059 12.6796L8.3566 14.8275L10.539 14.5874L16.7519 8.47588ZM18.9176 5.85427L17.4738 4.43331C17.3368 4.29842 17.1129 4.29842 16.9792 4.43331L15.9465 5.44971L17.8882 7.36079L18.921 6.34439C19.0546 6.20627 19.0546 5.98916 18.9176 5.85427Z"
     fill="url(#paint0_linear_451_3188)"
     stroke="url(#paint1_linear_451_3188)"
     stroke-width="0.6"
     id="path1"
     style="stroke:url(#paint1_linear_451_3188);fill:url(#paint0_linear_451_3188)" />
  <defs
     id="defs4">
    <linearGradient
       id="paint0_linear_451_3188"
       x1="1.0749999"
       y1="19.893801"
       x2="20.922205"
       y2="11.172469"
       gradientUnits="userSpaceOnUse">
      <stop
         offset="0"
         id="stop2"
         style="stop-color:#e5f230;stop-opacity:1;" />
      <stop
         id="stop1"
         offset="1"
         style="stop-color:#24d864;stop-opacity:1;" />
    </linearGradient>
    <linearGradient
       id="paint1_linear_451_3188"
       x1="1.0749999"
       y1="19.893801"
       x2="20.922205"
       y2="11.172469"
       gradientUnits="userSpaceOnUse">
      <stop
         offset="0"
         id="stop4"
         style="stop-color:#e5f230;stop-opacity:1;" />
      <stop
         id="stop3"
         offset="1"
         style="stop-color:#24d864;stop-opacity:1;" />
    </linearGradient>
  </defs>
</svg>
