<?xml version="1.0" encoding="UTF-8" standalone="no"?>
<!-- Generator: Gravit.io -->

<svg
   style="isolation:isolate"
   viewBox="0 0 48 48"
   width="48pt"
   height="48pt"
   version="1.1"
   id="svg2"
   sodipodi:docname="ark.svg"
   inkscape:version="1.3.2 (091e20ef0f, 2023-11-25, custom)"
   xmlns:inkscape="http://www.inkscape.org/namespaces/inkscape"
   xmlns:sodipodi="http://sodipodi.sourceforge.net/DTD/sodipodi-0.dtd"
   xmlns:xlink="http://www.w3.org/1999/xlink"
   xmlns="http://www.w3.org/2000/svg"
   xmlns:svg="http://www.w3.org/2000/svg">
  <defs
     id="defs2">
    <linearGradient
       id="linearGradient8"
       inkscape:collect="always">
      <stop
         style="stop-color:#00f1fa;stop-opacity:1;"
         offset="0"
         id="stop8" />
      <stop
         style="stop-color:#006cff;stop-opacity:1;"
         offset="1"
         id="stop9" />
    </linearGradient>
    <linearGradient
       id="linearGradient6"
       inkscape:collect="always">
      <stop
         style="stop-color:#00f1fa;stop-opacity:1;"
         offset="0"
         id="stop6" />
      <stop
         style="stop-color:#006cff;stop-opacity:1;"
         offset="1"
         id="stop7" />
    </linearGradient>
    <linearGradient
       id="linearGradient2"
       inkscape:collect="always">
      <stop
         style="stop-color:#00f1fa;stop-opacity:1;"
         offset="0"
         id="stop3" />
      <stop
         style="stop-color:#006cff;stop-opacity:1;"
         offset="1"
         id="stop4" />
    </linearGradient>
    <linearGradient
       id="paint0_linear_451_2434"
       x1="11.019254"
       y1="29.837141"
       x2="29.891476"
       y2="10.994328"
       gradientUnits="userSpaceOnUse"
       gradientTransform="matrix(1.2467509,0,0,1.2467509,10.285723,10.344156)">
      <stop
         id="stop1-8"
         offset="0"
         style="stop-color:#67ff80;stop-opacity:1;" />
      <stop
         offset="1"
         id="stop2-4"
         style="stop-color:#009984;stop-opacity:1;" />
    </linearGradient>
    <linearGradient
       inkscape:collect="always"
       xlink:href="#linearGradient1"
       id="linearGradient4"
       x1="12.351125"
       y1="47.543636"
       x2="47.552948"
       y2="24.051344"
       gradientUnits="userSpaceOnUse" />
    <linearGradient
       id="linearGradient1"
       inkscape:collect="always">
      <stop
         style="stop-color:#67ff80;stop-opacity:1;"
         offset="0"
         id="stop11" />
      <stop
         style="stop-color:#009984;stop-opacity:1;"
         offset="1"
         id="stop13" />
    </linearGradient>
    <linearGradient
       inkscape:collect="always"
       xlink:href="#linearGradient2"
       id="linearGradient5"
       x1="51.178082"
       y1="282.97705"
       x2="265.3923"
       y2="145.93852"
       gradientUnits="userSpaceOnUse" />
    <linearGradient
       inkscape:collect="always"
       xlink:href="#linearGradient6"
       id="linearGradient7"
       x1="51.178082"
       y1="282.97705"
       x2="265.3923"
       y2="145.93852"
       gradientUnits="userSpaceOnUse" />
    <linearGradient
       inkscape:collect="always"
       xlink:href="#linearGradient8"
       id="linearGradient9"
       x1="51.110279"
       y1="282.97705"
       x2="265.3923"
       y2="145.93852"
       gradientUnits="userSpaceOnUse" />
  </defs>
  <sodipodi:namedview
     id="namedview2"
     pagecolor="#ffffff"
     bordercolor="#666666"
     borderopacity="1.0"
     inkscape:showpageshadow="2"
     inkscape:pageopacity="0.0"
     inkscape:pagecheckerboard="0"
     inkscape:deskcolor="#d1d1d1"
     inkscape:document-units="pt"
     inkscape:zoom="181.01934"
     inkscape:cx="30.22329"
     inkscape:cy="16.628058"
     inkscape:current-layer="svg2" />
  <linearGradient
     id="_lgradient_38"
     x1="0.77733624"
     y1="0.99999231"
     x2="5.6007235e-07"
     y2="0.49999669"
     gradientTransform="matrix(-47.058,0,0,46.985,47.552974,0.559)"
     gradientUnits="userSpaceOnUse">
    <stop
       offset="0"
       stop-opacity="1"
       style="stop-color:#00f1fa;stop-opacity:1;"
       id="stop1" />
    <stop
       offset="1"
       stop-opacity="1"
       style="stop-color:#006cff;stop-opacity:1;"
       id="stop2" />
  </linearGradient>
  <path
     d="m 25.630974,43.272 v 0 c -1.174,0.099 -2.049,1.135 -1.953,2.312 v 0 c 0.097,1.176 1.133,2.051 2.312,1.952 v 0 c 5.91,-0.492 11.426,-3.205 15.429,-7.594 3.993,-4.389 6.187,-10.131 6.133,-16.067 -0.056,-6.235 -2.592,-12.201 -7.038,-16.578 -4.456,-4.367 -10.468,-6.793 -16.703,-6.737 -6.235,0.056 -12.201,2.592 -16.5779996,7.038 -4.366,4.456 -6.79300002,10.468 -6.73700002,16.703 v 0 c 0.011,1.18 0.97800002,2.13 2.15800002,2.119 v 0 c 1.181,-0.01 2.131,-0.977 2.12,-2.158 v 0 c -0.046,-5.101 1.941,-10.018 5.5129996,-13.665 3.582,-3.637 8.462,-5.713 13.563,-5.759 5.101,-0.046 10.018,1.941 13.665,5.513 3.637,3.582 5.713,8.462 5.759,13.563 0.044,4.855 -1.742,9.556 -5.015,13.147 -3.272,3.591 -7.787,5.803 -12.628,6.211 z M 7.0579744,33.194 v 0 c -0.558,-1.04 -1.856,-1.431 -2.896,-0.873 v 0 c -1.039,0.559 -1.43,1.856 -0.872,2.896 v 0 c 2.382,4.428 6.126,7.988 10.6699996,10.139 v 0 c 1.067,0.51 2.345,0.057 2.851,-1.01 v 0 c 0.507,-1.067 0.052,-2.347 -1.015,-2.857 v 0 c -3.727,-1.763 -6.7799996,-4.666 -8.7379996,-8.295 z"
     fill-rule="evenodd"
     id="path2"
     style="fill:url(#_lgradient_38)"
     sodipodi:nodetypes="sssssscccscsssssscscccssssssssssssss" />
  <path
     fill-rule="evenodd"
     clip-rule="evenodd"
     d="m 32.764665,12.000092 c -0.858035,0 -1.680847,0.340847 -2.287658,0.947547 -0.01416,0.01416 -0.02796,0.02872 -0.04137,0.04363 L 19.397291,25.284537 c -0.26781,0.298374 -0.355589,0.717141 -0.229791,1.09789 0.125798,0.380748 0.445791,0.664958 0.838653,0.74491 0.348507,0.07101 0.76336,0.298374 1.113731,0.646694 0.354843,0.352607 0.539906,0.72441 0.578111,0.991474 0.06038,0.422867 0.35652,0.774356 0.762987,0.905745 0.406281,0.131389 0.852071,0.01994 1.148768,-0.287565 L 35.06015,17.515259 C 35.66193,16.909193 36,16.089736 36,15.235242 36,14.377394 35.65914,13.554396 35.05233,12.947677 L 34.254861,13.745236 35.05233,12.94764 C 34.445511,12.340939 33.6227,12.000092 32.764665,12.000092 Z m 0.706332,2.529004 v 0 c -0.187299,-0.187299 -0.441504,-0.292597 -0.706332,-0.292597 -0.256814,0 -0.503378,0.09877 -0.688814,0.275451 L 22.067557,25.658016 c 0.226995,0.161208 0.437963,0.34012 0.628803,0.529656 0.148908,0.147976 0.292038,0.309183 0.424731,0.481387 L 33.457019,15.955923 c 0.0045,-0.0048 0.0091,-0.0095 0.01398,-0.01435 0.187299,-0.187299 0.292596,-0.441318 0.292596,-0.706332 0,-0.264828 -0.105297,-0.518846 -0.292596,-0.706145 z M 17.824068,27.07068 c -2.19645,0 -3.941723,1.798444 -3.941723,3.986769 0,0.268928 -0.106081,0.448586 -0.257933,0.579788 -0.178092,0.154126 -0.391837,0.214136 -0.506211,0.214136 -0.422531,0 -0.809001,0.238178 -0.998909,0.615571 -0.18989,0.37758 -0.150809,0.829707 0.101029,1.169082 1.073737,1.446583 2.882356,2.363882 4.662574,2.363882 2.713991,0 4.882933,-2.228579 4.882933,-4.942459 0,-2.188325 -1.745329,-3.986769 -3.94176,-3.986769 z m -1.705316,3.986769 c 0,-0.986628 0.777076,-1.750362 1.705316,-1.750362 0.928202,0 1.705353,0.763734 1.705353,1.750362 0,1.511997 -1.200596,2.706052 -2.646526,2.706052 -0.586945,0 -1.199721,-0.175185 -1.741565,-0.481759 0.566184,-0.504869 0.977422,-1.246797 0.977422,-2.224293 z"
     id="path2-6"
     style="display:none;isolation:isolate;fill:url(#linearGradient4);fill-opacity:1;stroke-width:0.186367" />
  <g
     id="g10944"
     transform="matrix(0.17142839,0,0,0.17142839,2.0571718,-0.96666184)">
    <path
       d="m 128.01747,113.78315 c 5.04592,-0.0149 7.21639,-0.033 13.00453,8.5e-4 l -0.014,1.795 c -0.056,4.245 -0.097,8.49 -0.167,12.751 -4.275,-0.015 -8.565,-0.015 -12.854,0 -0.014,4.777 -0.084,9.553 0.07,14.329 0.696,0.047 2.075,0.125 2.771,0.156 2.618,0.203 5.334,-0.187 7.882,0.733 2.632,1.171 3.51,4.465 4.345,7.196 3.524,12.845 6.922,25.753 10.64,38.552 1.463,8.522 -2.465,17.325 -9.052,21.664 -10.445,6.54 -23.675,6.009 -34.134,-0.25 -6.629,-4.87 -10.333,-14.718 -7.604,-23.287 3.733,-13.455 7.34,-26.924 10.96,-40.409 1.755,-5.994 0.947,-12.378 1.045,-18.559 4.359,-0.14 8.732,-0.156 13.105,-0.187 -0.015,-4.56267 0.006,-10.27467 0.002,-14.48485 z M 114.492,195.773 c 4.206,7.617 13.411,8.054 20.361,5.853 2.799,-0.889 6.81,-3.293 5.835,-7.226 -1.295,-3.606 -5.125,-4.87 -8.231,-5.572 -6.42,-1.202 -14.692,-0.406 -17.965,6.945 z"
       id="path10028"
       style="fill:url(#linearGradient9);fill-opacity:1"
       sodipodi:nodetypes="cccccccccccccccccccccc" />
    <path
       d="m 114.068,77.674 c 4.66,-0.0448 9.336,-0.1042 13.981,0.2386 -0.06,4.593 -0.06,9.171 -0.045,13.7492 4.66,0.0298 9.321,-0.015 13.996,-0.1194 l -0.03,1.4912 c -0.075,4.1606 -0.09,8.3214 -0.134,12.4964 -4.631,0.015 -9.246,0 -13.862,0 -0.015,4.265 0.026,9.56715 0.16013,13.89982 -5.82394,0.0969 -8.93138,0.0291 -14.09613,-0.002 -0.059,-4.652 -0.06,-9.32 0.075,-13.972 4.601,0.044 9.201,0.044 13.817,0.029 0.074,-4.637 0.044,-9.26 -0.105,-13.883 -4.571,0 -9.141,0 -13.697,0.0448 z"
       stroke-width="4"
       id="path10030"
       style="fill:url(#linearGradient5);stroke:url(#linearGradient7);stroke-opacity:1"
       sodipodi:nodetypes="cccccccccccccc" />
  </g>
</svg>
