<?xml version="1.0" encoding="UTF-8" standalone="no"?>
<svg
   width="192"
   height="192"
   viewBox="0 0 192 192"
   fill="none"
   version="1.1"
   id="svg39"
   sodipodi:docname="chromium.svg"
   inkscape:version="1.3.2 (091e20ef0f, 2023-11-25, custom)"
   xmlns:inkscape="http://www.inkscape.org/namespaces/inkscape"
   xmlns:sodipodi="http://sodipodi.sourceforge.net/DTD/sodipodi-0.dtd"
   xmlns="http://www.w3.org/2000/svg"
   xmlns:svg="http://www.w3.org/2000/svg">
  <sodipodi:namedview
     id="namedview41"
     pagecolor="#ffffff"
     bordercolor="#666666"
     borderopacity="1.0"
     inkscape:showpageshadow="2"
     inkscape:pageopacity="0.0"
     inkscape:pagecheckerboard="0"
     inkscape:deskcolor="#d1d1d1"
     showgrid="false"
     inkscape:zoom="3.4766083"
     inkscape:cx="112.03448"
     inkscape:cy="101.53574"
     inkscape:current-layer="svg39" />
  <path
     id="path2"
     style="fill:url(#paint0_linear)"
     d="M 97.703125 9.0644531 C 94.43723 8.9921276 91.166403 9.1109378 87.910156 9.4296875 C 66.740177 11.259736 46.530689 21.420094 32.220703 37.080078 C 41.200694 60.080055 50.620087 82.909945 59.580078 105.91992 L 59.589844 104.93945 C 62.399841 113.56944 67.43907 121.78071 75.039062 126.9707 C 82.439055 132.1807 91.920087 134.11922 100.83008 132.94922 C 93.110086 144.67921 85.199836 156.29939 77.589844 168.10938 C 65.409856 164.97938 54.039288 158.72069 44.779297 150.2207 C 24.569317 130.93072 16.270712 99.930755 25.220703 73.300781 C 26.120702 68.850786 30.209139 64.57062 28.119141 59.890625 C 26.149143 55.35063 18.790233 55.390552 16.990234 60.060547 C 9.6902317 75.870531 7.530003 93.940095 10.5 111.08008 C 13.719997 129.78006 23.429858 147.19056 37.339844 160.06055 C 49.739831 171.34054 65.370251 179.24953 81.990234 181.76953 C 83.510233 182.36953 84.110782 180.66023 84.800781 179.74023 C 97.750768 159.96025 111.21025 140.48959 123.99023 120.59961 C 129.61023 113.33962 133.37016 104.29046 132.91016 94.980469 C 132.93016 86.220478 129.0207 77.989212 123.7207 71.199219 C 137.69069 71.349219 151.64939 71.090078 165.60938 71.330078 C 168.94937 80.820069 170.28031 90.989307 169.82031 101.0293 C 169.08031 115.93928 163.08991 130.30025 153.91992 141.99023 C 148.75993 148.38023 143.27093 154.68086 136.46094 159.38086 C 129.51094 164.32085 121.2296 167.10063 112.84961 168.39062 C 109.98961 169.00062 106.49047 169.00024 104.73047 171.74023 C 102.15047 175.02023 104.05024 180.35047 107.99023 181.48047 C 111.00023 182.13047 113.97086 180.96961 116.88086 180.34961 C 146.34083 173.07962 170.85056 149.17021 179.06055 119.99023 C 184.82054 99.870254 183.10976 77.62045 174.00977 58.730469 C 150.09979 58.820469 126.17951 58.579141 102.26953 58.869141 C 95.489538 58.539141 88.479603 58.689065 82.099609 61.289062 C 74.389617 64.21906 68.279058 70.219772 63.789062 77.009766 C 63.259063 77.129766 62.199687 77.38 61.679688 77.5 C 57.109692 64.840013 51.269371 52.629597 47.109375 39.849609 C 58.039364 30.479619 71.610014 23.930858 86 22.380859 C 96.909989 21.020861 108.24962 20.739378 118.84961 24.109375 C 129.8096 27.589372 139.18001 34.740008 147.25 42.75 C 149.08 44.529998 151.10922 46.87 153.94922 46.5 C 158.88921 46.79 161.84039 40.000621 158.65039 36.390625 C 143.17166 19.485642 120.56439 9.5707317 97.703125 9.0644531 z M 95.496094 71.164062 C 106.8905 71.021055 117.84649 79.653293 119.99023 91.019531 C 122.69023 103.08952 114.81944 116.27039 102.93945 119.65039 C 94.229462 122.50039 84.149213 119.75054 77.949219 113.06055 C 70.799226 105.74055 68.989146 93.750694 73.869141 84.720703 C 77.069137 78.11071 83.469382 73.309295 90.609375 71.779297 C 92.230623 71.383047 93.868322 71.184492 95.496094 71.164062 z " />
  <defs
     id="defs37">
    <linearGradient
       id="paint0_linear"
       x1="44.779999"
       y1="150.22"
       x2="158.64999"
       y2="36.389999"
       gradientUnits="userSpaceOnUse">
      <stop
         id="stop12"
         offset="0"
         style="stop-color:#00f1fa;stop-opacity:1;" />
      <stop
         offset="1"
         id="stop14"
         style="stop-color:#006cff;stop-opacity:1;" />
    </linearGradient>
    <linearGradient
       id="paint1_linear"
       x1="44.779999"
       y1="150.22"
       x2="158.64999"
       y2="36.389999"
       gradientUnits="userSpaceOnUse">
      <stop
         id="stop17"
         offset="0"
         style="stop-color:#00f1fa;stop-opacity:1;" />
      <stop
         offset="1"
         id="stop19"
         style="stop-color:#006cff;stop-opacity:1;" />
    </linearGradient>
    <linearGradient
       id="paint2_linear"
       x1="44.779999"
       y1="150.22"
       x2="158.64999"
       y2="36.389999"
       gradientUnits="userSpaceOnUse">
      <stop
         id="stop22"
         offset="0"
         style="stop-color:#00f1fa;stop-opacity:1;" />
      <stop
         offset="1"
         id="stop24"
         style="stop-color:#006cff;stop-opacity:1;" />
    </linearGradient>
    <linearGradient
       id="paint3_linear"
       x1="44.779999"
       y1="150.22"
       x2="158.64999"
       y2="36.389999"
       gradientUnits="userSpaceOnUse">
      <stop
         id="stop27"
         offset="0"
         style="stop-color:#00f1fa;stop-opacity:1;" />
      <stop
         offset="1"
         id="stop29"
         style="stop-color:#006cff;stop-opacity:1;" />
    </linearGradient>
    <linearGradient
       id="paint4_linear"
       x1="44.779999"
       y1="150.22"
       x2="158.64999"
       y2="36.389999"
       gradientUnits="userSpaceOnUse">
      <stop
         id="stop32"
         offset="0"
         style="stop-color:#00f1fa;stop-opacity:1;" />
      <stop
         offset="1"
         id="stop34"
         style="stop-color:#006cff;stop-opacity:1;" />
    </linearGradient>
  </defs>
</svg>
