<?xml version="1.0" encoding="UTF-8" standalone="no"?>
<svg
   width="64"
   height="64"
   viewBox="0 0 64 64"
   fill="none"
   version="1.1"
   id="svg14"
   sodipodi:docname="spectacle.svg"
   inkscape:version="1.3.2 (091e20ef0f, 2023-11-25, custom)"
   xmlns:inkscape="http://www.inkscape.org/namespaces/inkscape"
   xmlns:sodipodi="http://sodipodi.sourceforge.net/DTD/sodipodi-0.dtd"
   xmlns:xlink="http://www.w3.org/1999/xlink"
   xmlns="http://www.w3.org/2000/svg"
   xmlns:svg="http://www.w3.org/2000/svg">
  <sodipodi:namedview
     id="namedview14"
     pagecolor="#ffffff"
     bordercolor="#666666"
     borderopacity="1.0"
     inkscape:showpageshadow="2"
     inkscape:pageopacity="0.0"
     inkscape:pagecheckerboard="0"
     inkscape:deskcolor="#d1d1d1"
     inkscape:zoom="8.3085047"
     inkscape:cx="42.065331"
     inkscape:cy="32.557002"
     inkscape:current-layer="svg14" />
  <path
     d="M42.2673 29.8817C49.9511 27.7125 58.7308 31.6931 62.1702 38.8851C64.5138 43.5009 64.6077 49.1766 62.443 53.8774C60.7837 57.5271 57.8139 60.555 54.2001 62.2904C49.7633 64.4507 44.3918 64.5715 39.8656 62.608C35.97 60.962 32.7408 57.8178 30.9697 53.9758C28.9257 49.6329 28.8228 44.4401 30.67 40.0122C32.6871 35.0789 37.106 31.2101 42.2673 29.8817ZM44.8838 34.6629C39.9416 35.3472 35.7106 39.386 34.7892 44.2925C33.7605 49.0827 36.0281 54.3291 40.1876 56.9054C44.9643 60.0899 51.9012 59.1283 55.6581 54.7943C59.5224 50.6839 59.8444 43.8408 56.3648 39.395C53.7752 35.875 49.1998 33.9741 44.8838 34.6629Z"
     id="path5"
     style="fill:url(#linearGradient4);fill-opacity:1" />
  <defs
     id="defs14">
    <linearGradient
       id="linearGradient2"
       inkscape:collect="always">
      <stop
         style="stop-color:#00f1fa;stop-opacity:1;"
         offset="0"
         id="stop3" />
      <stop
         style="stop-color:#006cff;stop-opacity:1;"
         offset="1"
         id="stop4" />
    </linearGradient>
    <linearGradient
       id="linearGradient19"
       inkscape:collect="always">
      <stop
         style="stop-color:#00f1fa;stop-opacity:1;"
         offset="0"
         id="stop19" />
      <stop
         style="stop-color:#006cff;stop-opacity:1;"
         offset="1"
         id="stop20" />
    </linearGradient>
    <linearGradient
       inkscape:collect="always"
       xlink:href="#linearGradient19"
       id="linearGradient1"
       gradientUnits="userSpaceOnUse"
       gradientTransform="matrix(0,-2.1549922,2.1549922,0,14.300445,42.224271)"
       x1="-10.10478"
       y1="6.9867072"
       x2="7.7951512"
       y2="20.272852" />
    <linearGradient
       inkscape:collect="always"
       xlink:href="#linearGradient2"
       id="linearGradient4"
       x1="29.356745"
       y1="63.999992"
       x2="57.988281"
       y2="25.425781"
       gradientUnits="userSpaceOnUse" />
  </defs>
  <path
     id="path1-9"
     style="fill:url(#linearGradient1);stroke-width:2.15499"
     d="M 9.5058594,0 C 6.9853837,0.0028 4.5692866,1.0049332 2.7871094,2.7871094 1.0049332,4.5692866 0.002802,6.9853839 0,9.5058594 v 9.0859376 c 0,0.687658 0.27360011,1.347732 0.75976562,1.833984 0.48616548,0.486252 1.14437398,0.759766 1.83203128,0.759766 0.6876573,0 1.3476028,-0.273514 1.8339843,-0.759766 0.4861656,-0.486253 0.7597657,-1.146325 0.7597657,-1.833984 V 9.5058594 c 0,-1.1460239 0.4553488,-2.2441953 1.265625,-3.0546875 0.8104912,-0.8102762 1.9086634,-1.265625 3.0546875,-1.265625 h 9.0859376 c 0.687593,0 1.347732,-0.2735991 1.833984,-0.7597657 0.486166,-0.4863815 0.759766,-1.146327 0.759766,-1.8339843 0,-0.6876573 -0.2736,-1.3458658 -0.759766,-1.83203128 C 19.939529,0.27360013 19.27939,0 18.591797,0 Z M 31.955078,0 C 31.267485,-1.9999969e-7 30.609299,0.27359981 30.123047,0.75976562 29.636881,1.2459313 29.363281,1.9041397 29.363281,2.5917969 c 0,0.6876576 0.2736,1.3476027 0.759766,1.8339843 0.486252,0.4861658 1.144438,0.7597657 1.832031,0.7597657 h 17.285156 c 1.146024,0 2.24615,0.4553485 3.056641,1.265625 0.810276,0.8104918 1.265625,1.9086635 1.265625,3.0546875 V 23.591797 c 0,0.687658 0.271647,1.347731 0.757812,1.833984 0.486382,0.486252 1.146328,0.759766 1.833985,0.759766 0.687657,0 1.347819,-0.273514 1.833984,-0.759766 0.486166,-0.486252 0.759766,-1.146327 0.759766,-1.833984 V 9.5058594 C 58.745245,6.985383 57.741161,4.5692861 55.958984,2.7871094 54.176807,1.0049328 51.76071,0.0028 49.240234,0 Z m -8.149383,14 c -2.520475,0.0028 -4.936572,1.004933 -6.71875,2.787109 -1.782176,1.782178 -2.784307,4.198275 -2.787109,6.71875 v 18.34375 c 0,0.687659 0.2736,1.345779 0.759766,1.832032 0.486165,0.486251 1.144374,0.759765 1.832031,0.759765 0.687657,0 1.347603,-0.273514 1.833984,-0.759765 0.486166,-0.486254 0.759766,-1.144372 0.759766,-1.832032 v -18.34375 c 0,-1.146023 0.455349,-2.244195 1.265625,-3.054687 0.810491,-0.810276 1.908664,-1.265625 3.054687,-1.265625 h 18.386719 c 0.687593,0 1.347732,-0.273599 1.833984,-0.759766 0.486166,-0.486381 0.759766,-1.146327 0.759766,-1.833984 0,-0.687657 -0.2736,-1.345866 -0.759766,-1.832031 C 43.540146,14.2736 42.880007,14 42.192414,14 Z M 2.5917969,29.441406 c -0.6876573,0 -1.3458658,0.2736 -1.83203128,0.759766 C 0.27360011,30.687424 0,31.347563 0,32.035156 v 17.283203 c 0.0028,2.520476 1.0049332,4.938526 2.7871094,6.720703 1.7821772,1.782177 4.1982745,2.784308 6.71875,2.78711 H 23.591797 c 0.687659,-4e-6 1.347733,-0.2736 1.833984,-0.759766 0.486252,-0.486165 0.759766,-1.146327 0.759766,-1.833984 0,-0.687657 -0.273514,-1.34565 -0.759766,-1.832031 -0.486253,-0.486166 -1.146324,-0.75977 -1.833984,-0.759766 H 9.5058594 C 8.3598355,53.640631 7.2616641,53.185276 6.4511719,52.375 5.6408957,51.564509 5.1855469,50.464383 5.1855469,49.318359 V 32.035156 c 0,-0.687593 -0.2735991,-1.347732 -0.7597657,-1.833984 -0.4863815,-0.486166 -1.146327,-0.759766 -1.8339843,-0.759766 z"
     sodipodi:nodetypes="cccssscsscsscscscscscsscsscssscscscscssscsscsscscscscscsccssccccsscs" />
</svg>
