<?xml version="1.0" encoding="UTF-8" standalone="no"?>
<!-- Generator: Gravit.io -->

<svg
   style="isolation:isolate"
   viewBox="0 0 48 48"
   width="48pt"
   height="48pt"
   version="1.1"
   id="svg2"
   sodipodi:docname="gitkraken.svg"
   inkscape:version="1.4 (e7c3feb100, 2024-10-09)"
   xmlns:inkscape="http://www.inkscape.org/namespaces/inkscape"
   xmlns:sodipodi="http://sodipodi.sourceforge.net/DTD/sodipodi-0.dtd"
   xmlns="http://www.w3.org/2000/svg"
   xmlns:svg="http://www.w3.org/2000/svg">
  <defs
     id="defs2" />
  <sodipodi:namedview
     id="namedview2"
     pagecolor="#505050"
     bordercolor="#ffffff"
     borderopacity="1"
     inkscape:showpageshadow="0"
     inkscape:pageopacity="0"
     inkscape:pagecheckerboard="1"
     inkscape:deskcolor="#505050"
     inkscape:document-units="pt"
     inkscape:zoom="11.402097"
     inkscape:cx="34.555048"
     inkscape:cy="34.642751"
     inkscape:current-layer="svg2" />
  <linearGradient
     id="_lgradient_10"
     x1="0.16837241"
     y1="1.0000042"
     x2="1"
     y2="0.5"
     gradientTransform="matrix(48,0,0,47.249,0,0.37540145)"
     gradientUnits="userSpaceOnUse">
    <stop
       offset="0"
       stop-opacity="1"
       style="stop-color:#b900ff;stop-opacity:1;"
       id="stop1" />
    <stop
       offset="1"
       stop-opacity="1"
       style="stop-color:#6444ff;stop-opacity:1;"
       id="stop2" />
  </linearGradient>
  <path
     d="m 20.813,27.390401 c 0.586,0 1.062,0.518 1.062,1.158 0,0.639 -0.476,1.158 -1.062,1.158 -0.587,0 -1.063,-0.519 -1.063,-1.158 0,-0.64 0.476,-1.158 1.063,-1.158 v 0 z m 6.375,0 c 0.586,0 1.062,0.518 1.062,1.158 0,0.639 -0.476,1.158 -1.062,1.158 -0.587,0 -1.063,-0.519 -1.063,-1.158 0,-0.64 0.476,-1.158 1.063,-1.158 v 0 z m -10e-4,8.872 c 2.522,-1.091 5.473,-3.399 6.949,-5.514 1.7,-2.42 2.614,-5.385 2.614,-8.431 0,-4.771 -2.263,-9.229 -5.982,-11.765 v 0 c -0.492,-0.339 -1.147,-0.176 -1.461,0.364 v 0 c -0.314,0.54 -0.164,1.254 0.335,1.593 v 0 0 c 3.092,2.119 4.983,5.836 4.983,9.82 0,2.536 -0.765,5.003 -2.178,7.018 -1.072,1.529 -2.469,2.738 -4.059,3.525 q 0.413,-1.096 0.924,-2.745 c 0.734,-0.772 0.775,-1.939 0.025,-2.82 l -0.419,-0.491 0.143,-0.9 c 0.212,-1.341 0.72,-2.349 1.471,-2.918 0.339,-0.257 0.683,-0.551 0.764,-0.656 0.182,-0.235 0.191,-1.411 0.017,-2.088 -0.478,-1.856 -2.981,-5.809 -4.829,-7.625 -1.05,-1.031 -1.873,-1.5 -2.667,-1.447 -0.477,0.032 -0.942,0.252 -1.442,0.651 -0.668,0.533 -2.38,2.492 -3.19,3.651 -1.729,2.475 -2.622,4.475 -2.622,5.864 0,0.922 0.075,1.07 0.807,1.599 0.809,0.587 1.278,1.445 1.523,2.798 l 0.195,1.082 -0.307,0.3 c -0.505,0.497 -0.717,1.053 -0.655,1.728 0.041,0.464 0.26,0.922 0.562,1.269 q 0.512,1.652 0.925,2.75 v 0 0 c -1.519,-0.75 -2.866,-1.884 -3.922,-3.319 -1.498,-2.061 -2.316,-4.609 -2.316,-7.226 0,-3.961 1.859,-7.643 4.909,-9.774 v 0 c 0.492,-0.339 0.638,-1.052 0.324,-1.592 v 0 c -0.314,-0.54 -0.969,-0.699 -1.461,-0.354 v 0 c -3.666,2.548 -5.897,6.972 -5.897,11.708 0,3.162 0.978,6.219 2.784,8.674 1.583,2.162 4.243,4.35 6.779,5.326 v 1.081 c -6.812,-1.629 -11.672,-8.197 -11.688,-15.798 0.002,-1.569 0.213,-3.13 0.213,-3.13 0.229,-0.829 -0.079,-1.503 -0.685,-1.503 v 0 c -0.607,0 -1.262,0.678 -1.462,1.513 0,0 -0.186,1.556 -0.191,3.12 0.003,9.781 6.981,17.874 15.938,18.486 v -8.184 c 0.366,0.062 0.729,0.111 1.084,0.12 0.369,-0.016 0.705,-0.065 1.041,-0.113 v 8.161 c 8.95,-0.611 15.926,-8.696 15.937,-18.47 -0.007,-1.564 -0.196,-3.121 -0.196,-3.121 -0.202,-0.834 -0.858,-1.512 -1.464,-1.512 v 0 c -0.606,0 -0.912,0.674 -0.682,1.503 0,0 0.213,1.56 0.217,3.13 -0.01,7.607 -4.871,14.184 -11.688,15.814 v -1.152 z m -8.377,7.433 v 0 c 1.065,0.287 1.697,1.385 1.41,2.45 v 0 c -0.287,1.065 -1.385,1.697 -2.45,1.41 v 0 c -5.1,-1.37 -9.61,-4.39 -12.82,-8.58 -3.21,-4.19 -4.95,-9.32 -4.95,-14.6 0,-6.36 2.53,-12.47 7.03,-16.9699996 4.5,-4.5 10.61,-7.02999995 16.97,-7.02999995 6.36,0 12.47,2.52999995 16.97,7.02999995 4.5,4.4999996 7.03,10.6099996 7.03,16.9699996 0,5.26 -1.73,10.37 -4.91,14.55 -3.19,4.18 -7.66,7.2 -12.73,8.6 v 0 c -1.065,0.293 -2.167,-0.335 -2.46,-1.4 v 0 c -0.293,-1.065 0.335,-2.167 1.4,-2.46 v 0 c 4.22,-1.16 7.95,-3.68 10.61,-7.16 2.65,-3.49 4.09,-7.75 4.09,-12.13 0,-5.3 -2.11,-10.39 -5.86,-14.14 C 34.39,6.4854014 29.3,4.3754014 24,4.3754014 c -5.3,0 -10.39,2.11 -14.14,5.8599996 -3.75,3.75 -5.86,8.84 -5.86,14.14 0,4.4 1.45,8.68 4.13,12.17 2.67,3.49 6.43,6.01 10.68,7.15 z"
     fill-rule="evenodd"
     fill="url(#_lgradient_10)"
     id="path2"
     style="fill:url(#_lgradient_10)" />
</svg>
