<?xml version="1.0" encoding="UTF-8" standalone="no"?>
<svg
   width="192"
   height="192"
   viewBox="0 0 192 192"
   fill="none"
   version="1.1"
   id="svg16"
   sodipodi:docname="audacious.svg"
   inkscape:version="1.3.2 (091e20ef0f, 2023-11-25, custom)"
   xmlns:inkscape="http://www.inkscape.org/namespaces/inkscape"
   xmlns:sodipodi="http://sodipodi.sourceforge.net/DTD/sodipodi-0.dtd"
   xmlns="http://www.w3.org/2000/svg"
   xmlns:svg="http://www.w3.org/2000/svg">
  <sodipodi:namedview
     id="namedview18"
     pagecolor="#ffffff"
     bordercolor="#666666"
     borderopacity="1.0"
     inkscape:pageshadow="2"
     inkscape:pageopacity="0.0"
     inkscape:pagecheckerboard="0"
     showgrid="true"
     inkscape:zoom="4.6256568"
     inkscape:cx="154.14027"
     inkscape:cy="76.962043"
     inkscape:current-layer="svg16"
     inkscape:showpageshadow="2"
     inkscape:deskcolor="#d1d1d1">
    <inkscape:grid
       type="xygrid"
       id="grid1113"
       originx="0"
       originy="0"
       spacingy="1"
       spacingx="1"
       units="px"
       visible="true" />
  </sodipodi:namedview>
  <g
     id="path2"
     transform="translate(0.00129264)">
    <path
       id="path2483"
       style="color:#000000;fill:url(#paint0_linear);stroke-width:2;-inkscape-stroke:none"
       d="m 166.9707,3.8457031 c -0.47803,0.027299 -0.94446,0.080115 -1.39453,0.1484375 -0.89835,0.136382 -1.76589,0.3355576 -2.57031,0.5253906 -0.0911,0.021425 -0.18071,0.041333 -0.26953,0.0625 -0.71338,0.1687718 -1.37262,0.3255781 -2.00195,0.4394532 h -0.002 l -0.0137,0.00195 -0.0137,0.00391 c -11.17699,2.1874468 -22.36368,4.3409999 -33.55664,6.4960942 -18.07535,3.480372 -36.16216,6.963241 -54.220706,10.589843 -3.171246,0.239448 -5.6909,2.090173 -7.304687,4.419922 -1.637186,2.363458 -2.474342,5.30825 -2.304688,8.095703 l -0.002,-0.05859 c 0.0191,11.989843 0.01482,23.98374 0.01172,35.978516 -0.0046,17.914416 -0.0048,35.832632 0.06445,53.750002 -7.532221,-3.7166 -16.389444,-4.60567 -24.458984,-2.20508 -12.916879,3.68745 -22.874952,15.53878 -24.033203,28.91602 -1.68e-4,0.002 1.66e-4,0.004 0,0.006 -1.353789,11.65972 4.019109,23.63167 13.513671,30.54102 8.562056,6.37699 20.206268,8.37185 30.40625,4.99024 h 0.002 c 10.285239,-3.17034 18.512525,-11.55099 21.84375,-21.6543 1.52637,-3.55542 1.83732,-7.22062 1.800781,-10.73242 -0.01682,-1.6164 -0.106261,-3.22319 -0.193359,-4.78516 -0.0083,-0.14905 -0.0172,-0.29561 -0.02539,-0.44336 -0.09472,-1.7108 -0.176838,-3.36807 -0.162109,-4.97461 v -0.004 -0.0137 c 0.0047,-8.18441 0.0045,-16.36684 0.0039,-24.54883 -8.81e-4,-13.08759 -8.87e-4,-26.170027 0.01953,-39.249995 4.367223,-0.904789 8.785177,-1.619701 13.261719,-2.314453 l 0.04492,-0.0059 c 5.000144,-0.776102 10.060574,-1.563453 15.091794,-2.675781 l 0.0273,-0.0039 0.0234,-0.0059 c 3.22263,-0.724943 6.51042,-1.238167 9.85743,-1.759766 0.39216,-0.06113 0.78433,-0.121931 1.17773,-0.183594 3.74069,-0.58639 7.54521,-1.214711 11.31641,-2.203125 l 0.043,-0.01172 0.0391,-0.01172 c 2.22915,-0.687631 4.22876,-2.182291 5.54101,-4.13086 1.31967,-1.960118 1.97554,-4.504824 1.18164,-7.074218 l -0.0547,-0.173828 -0.082,-0.160157 c -0.9714,-1.861469 -2.4666,-3.684456 -4.38281,-4.93164 -1.92012,-1.250066 -4.37155,-1.932261 -6.94531,-1.205079 l 0.0762,-0.01758 c -1.3767,0.273437 -2.74527,0.552811 -4.10937,0.832032 -5.61501,1.148399 -11.14806,2.27888 -16.74219,2.86914 l -0.0547,0.0059 -0.0566,0.0098 c -3.71504,0.603418 -7.39932,1.322916 -11.054686,2.03711 -0.932167,0.182192 -1.862722,0.363641 -2.791016,0.542968 -3.825346,0.739101 -7.624744,1.400687 -11.433594,1.931641 0.01856,-3.538178 0.01931,-7.073878 0.01563,-10.601562 v -0.462891 c -0.004,-3.911898 -0.0031,-7.817573 0.02539,-11.720703 1.80158,-0.340111 3.604252,-0.679543 5.40625,-1.019532 23.74364,-4.479725 47.5175,-8.97993 71.20898,-13.894531 0.0835,15.273567 0.0752,30.526619 0.0625,45.783203 -0.0116,13.037929 -0.0181,26.080742 0.0312,39.140626 -9.19941,-3.67176 -20.17535,-2.69417 -28.25781,3.30664 -9.79434,6.86128 -14.38459,19.89106 -11.07226,31.33203 v 0.002 c 2.75766,10.43192 11.72727,18.81859 22.37109,20.875 9.47622,1.99044 19.71368,-1.13764 26.48633,-7.99804 6.85575,-6.77341 9.51441,-16.67296 8.84179,-25.85352 v -0.008 c -0.047,-21.45487 -0.0354,-42.910987 -0.0234,-64.367188 v -0.002 c 0.011,-17.432953 0.022,-34.869003 0,-52.306641 l -0.004,0.08594 c 0.35394,-4.2355214 -2.76803,-7.3200897 -5.45508,-9.0390629 l -0.12109,-0.078125 -0.12695,-0.056641 -0.004,-0.00195 c -1.01788,-0.4631772 -2.04022,-0.6880295 -3.0332,-0.7617188 -0.49717,-0.036895 -0.98681,-0.035112 -1.46485,-0.00781 z M 147.23633,124.4082 c 0.41552,-0.0113 0.83199,0.002 1.24805,0.041 1.66754,0.15466 3.32027,0.70054 4.80859,1.57226 2.97722,1.7438 5.10555,4.67262 5.35742,8.02344 l 0.008,0.11914 0.0254,0.125 c 0.65918,3.33411 -0.62962,6.72928 -3.06054,9.19532 -2.43372,2.46791 -5.86338,3.84423 -9.24414,3.29882 l -0.0645,-0.01 -0.0605,-0.006 h -0.004 c -6.21231,-0.60627 -11.02235,-7.36623 -9.55664,-13.38086 l 0.002,-0.004 0.004,-0.0215 0.008,-0.0293 0.002,-0.0137 c 0.73208,-3.53865 3.42813,-6.65711 6.83008,-8.07227 l 0.002,-0.002 0.0332,-0.0117 0.0254,-0.0117 c 1.15618,-0.51663 2.39015,-0.77867 3.63672,-0.8125 z m -99.244142,14.22657 c 0.498705,-0.009 0.997776,0.008 1.496093,0.0469 5.958331,0.46811 11.725294,4.30491 13.544922,9.94727 0.535282,3.79079 0.472559,7.7394 0.101563,11.66406 -2.561795,7.25695 -11.407502,11.62935 -18.873047,9.39062 l -0.04102,-0.0137 -0.03906,-0.008 -0.0059,-0.002 c -7.577152,-1.98761 -12.849074,-10.40358 -11.25,-18.03321 l 0.002,-0.006 0.0039,-0.0215 0.0039,-0.0215 0.002,-0.006 c 1.001803,-5.53503 5.247308,-10.39926 10.611328,-12.15821 0.0022,-7.3e-4 0.0036,-0.003 0.0059,-0.004 h 0.0039 l 0.01563,-0.006 0.0059,-0.002 0.0059,-0.002 h 0.002 c 1.419739,-0.4908 2.908179,-0.73887 4.404297,-0.76562 z" />
  </g>
  <defs
     id="defs14">
    <linearGradient
       id="paint0_linear"
       x1="80.972382"
       y1="165.06827"
       x2="177.48605"
       y2="13.880759"
       gradientUnits="userSpaceOnUse"
       gradientTransform="translate(-0.3063622,-0.17568157)">
      <stop
         id="stop4"
         style="stop-color:#b900ff;stop-opacity:1;"
         offset="0" />
      <stop
         offset="1"
         id="stop6"
         style="stop-color:#6444ff;stop-opacity:1;" />
    </linearGradient>
    <linearGradient
       id="paint1_linear"
       x1="14.999117"
       y1="188.35028"
       x2="176.48601"
       y2="13.8827"
       gradientUnits="userSpaceOnUse"
       gradientTransform="translate(-0.3063622,-0.17568157)">
      <stop
         id="stop9"
         style="stop-color:#b900ff;stop-opacity:1;"
         offset="0" />
      <stop
         offset="1"
         id="stop11"
         style="stop-color:#6444ff;stop-opacity:1;" />
    </linearGradient>
  </defs>
</svg>
