<?xml version="1.0" encoding="UTF-8" standalone="no"?>
<svg
   id="Capa_1"
   enable-background="new 0 0 511.923 511.923"
   height="512"
   viewBox="0 0 511.923 511.923"
   width="512"
   version="1.1"
   sodipodi:docname="keepassxc.svg"
   inkscape:version="1.4 (e7c3feb100, 2024-10-09)"
   xmlns:inkscape="http://www.inkscape.org/namespaces/inkscape"
   xmlns:sodipodi="http://sodipodi.sourceforge.net/DTD/sodipodi-0.dtd"
   xmlns="http://www.w3.org/2000/svg"
   xmlns:svg="http://www.w3.org/2000/svg">
  <defs
     id="defs3" />
  <sodipodi:namedview
     id="namedview3"
     pagecolor="#505050"
     bordercolor="#ffffff"
     borderopacity="1"
     inkscape:showpageshadow="0"
     inkscape:pageopacity="0"
     inkscape:pagecheckerboard="1"
     inkscape:deskcolor="#505050"
     inkscape:zoom="0.71263105"
     inkscape:cx="284.15826"
     inkscape:cy="478.50848"
     inkscape:current-layer="g3" />
  <linearGradient
     id="SVGID_1_"
     gradientUnits="userSpaceOnUse"
     x1="4.393"
     x2="463.673"
     y1="507.529"
     y2="48.25"
     gradientTransform="matrix(0.97480908,0,0,0.97480908,6.4641365,6.431478)">
    <stop
       offset="0"
       stop-color="#e5f230"
       id="stop1" />
    <stop
       offset="1"
       stop-color="#24d864"
       id="stop2" />
  </linearGradient>
  <g
     id="g3">
    <g
       id="g2"
       transform="matrix(0.90820379,0,0,0.90820379,23.496466,23.496182)">
      <path
         id="path2"
         style="fill:url(#SVGID_1_);stroke-width:0.974809"
         d="m 342.79688,2.2070312 c -23.83355,0.2610018 -47.59083,5.7522199 -69.12305,15.9726568 -0.57419,0.275542 -1.43963,0.698868 -2.12556,1.031109 -29.33001,14.4301 -54.10671,37.873699 -70.25078,66.285313 -12.3761,21.74116 -19.6471,46.33654 -21.22522,71.29686 -0.0265,0.56221 -0.0794,1.4649 -0.11598,2.15767 -0.95198,19.06941 1.47326,38.2905 7.04566,56.54936 -18.75692,18.6885 -37.54451,37.34672 -56.25504,56.08015 -3.49681,3.88876 -5.05683,9.26838 -4.71761,14.44016 0,6.74714 0,13.49427 0,20.24141 -8.01851,0.0331 -16.04042,-0.0917 -24.05652,0.10304 -7.972553,0.72872 -15.083857,7.12856 -16.511649,15.02995 -0.677377,3.84227 -0.275475,7.75937 -0.375193,11.63654 0,5.04883 -10e-7,10.09766 0,15.14648 -8.014542,0.033 -16.032708,-0.0919 -24.044687,0.10413 -7.97001,0.72146 -15.074651,7.11123 -16.518922,15.00318 -0.686762,3.88401 -0.275396,7.84471 -0.377798,11.76418 0,4.69062 0,9.38125 0,14.07187 -8.347816,0.0365 -16.699846,-0.0999 -25.044784,0.10222 -7.924699,0.73648 -14.9937278,7.06229 -16.4741136,14.90502 -0.7140832,3.8805 -0.2934823,7.84356 -0.397703,11.76229 0.00556,25.40431 -0.035486,50.80967 0.046225,76.21329 0.4208054,8.06744 6.6680483,15.4538 14.5921483,17.11311 3.864489,0.82284 7.83444,0.37302 11.749712,0.4789 25.493983,-0.008 50.98916,0.0415 76.482374,-0.052 5.17978,-0.307 10.0327,-2.9974 13.42584,-6.86155 59.28945,-59.28945 118.5789,-118.5789 177.86835,-177.86835 12.20127,3.71259 24.82159,6.06067 37.55182,6.87373 7.15638,0.47926 14.34305,0.47173 21.50091,0.0247 0.63652,-0.0432 1.59615,-0.11514 2.35663,-0.16937 6.01262,-0.46657 11.99743,-1.27264 17.92462,-2.38336 0.55019,-0.11356 1.4389,-0.28605 2.11889,-0.42221 7.38167,-1.4973 14.6563,-3.51573 21.76588,-6.00162 0.72763,-0.26965 1.73786,-0.62057 2.57384,-0.93193 23.32854,-8.62984 44.67122,-22.59977 61.83538,-40.60986 7.96879,-8.31932 15.04913,-17.48563 21.11812,-27.27657 0.37019,-0.61772 0.96725,-1.5844 1.33577,-2.19779 9.11042,-15.2185 15.68013,-31.938 19.44744,-49.26706 0.11786,-0.5884 0.31224,-1.50155 0.45945,-2.21452 0.37442,-1.81324 0.74964,-3.8917 1.0775,-5.83375 2.78403,-16.75595 2.9978,-33.93627 0.61344,-50.75446 -0.0888,-0.55581 -0.22021,-1.45044 -0.32535,-2.13616 -4.36469,-28.15933 -16.15277,-55.151367 -33.99109,-77.386379 -6.2003,-7.753124 -13.09751,-14.947333 -20.58005,-21.471602 -0.57268,-0.496207 -1.37874,-1.184105 -2.04101,-1.753906 -0.49403,-0.403842 -1.23173,-1.021677 -1.81924,-1.507622 C 433.74892,26.713278 415.81837,16.818884 396.68016,10.532171 387.8825,7.6327847 378.84054,5.4803242 369.68359,4.0839844 368.5565,3.9211552 367.17317,3.7182403 365.94563,3.5634774 363.8824,3.2928416 361.45804,3.030953 359.40039,2.8476562 353.90477,2.364818 348.37593,2.1450439 342.79688,2.2070312 Z m 1.91601,37.6914068 c 19.11056,0.01305 38.22637,4.292327 55.43186,12.63481 27.25076,13.050666 49.47696,36.221262 61.41672,63.973522 9.16532,21.17351 12.41848,44.85501 9.31612,67.71662 -2.79526,21.13552 -10.99789,41.54368 -23.72118,58.65948 -11.53423,15.62014 -26.68589,28.55258 -43.959,37.43033 -19.34712,9.98974 -41.28696,14.86863 -63.04412,14.04395 -14.19435,-0.51339 -28.29423,-3.43825 -41.53415,-8.5759 -1.1976,-0.45421 -2.65282,-0.94345 -4.01619,-1.14851 -6.33594,-1.13575 -13.13518,1.29429 -17.37188,6.12807 -47.30804,47.25042 -94.56306,94.55622 -141.85105,141.82792 -13.12993,13.12993 -26.25986,26.25986 -39.389786,39.38979 -18.682291,0 -37.364583,0 -56.046875,0 0,-15.04753 0,-30.09506 0,-45.14258 8.319309,-0.0315 16.641756,0.0895 24.958865,-0.0932 7.892225,-0.69944 14.974637,-6.93621 16.518884,-14.73362 0.774013,-3.77608 0.334127,-7.64883 0.44022,-11.47086 0,-4.88125 0,-9.7625 0,-14.64375 8.019764,-0.0367 16.043186,0.10083 24.060362,-0.10364 7.87824,-0.72686 14.92286,-6.97815 16.45149,-14.76438 0.75989,-3.76398 0.32359,-7.62137 0.42955,-11.42963 0,-5.20612 0,-10.41224 0,-15.61836 8.01975,-0.0383 16.04318,0.097 24.06032,-0.10406 7.84522,-0.72433 14.86374,-6.92318 16.43226,-14.66583 0.78884,-3.79446 0.3422,-7.68799 0.44883,-11.52972 0,-8.5987 0,-17.1974 0,-25.7961 19.73717,-19.66936 39.51999,-39.29217 59.2002,-59.01758 4.73376,-5.33363 5.94805,-13.46664 3.02653,-19.96645 -6.60901,-17.27602 -9.48486,-35.9833 -8.19867,-54.44356 1.41494,-21.08692 8.16174,-41.79726 19.51312,-59.629533 13.37822,-21.083123 33.09378,-38.105578 55.97883,-48.120006 16.14828,-7.134701 33.80059,-10.797838 51.44874,-10.807243 z m -32.46094,22.589843 c -7.17707,0.48547 -13.83845,5.503078 -16.24804,12.28711 -0.12368,0.326391 -0.35777,0.99997 -0.4815,1.482729 -1.88603,6.734059 0.29442,14.467997 5.58772,19.083445 3.8164,3.432745 9.04484,5.132625 14.1488,4.830215 19.84429,0.24516 39.59825,6.66523 55.66931,18.33558 16.12594,11.60621 28.71593,28.14716 35.27118,46.92905 3.7306,10.5495 5.56883,21.74356 5.57447,32.92717 -0.009,5.32388 2.42529,10.55093 6.43491,14.03791 4.68821,4.22163 11.5826,5.72059 17.6212,3.93946 5.87956,-1.61995 10.76468,-6.31755 12.65818,-12.10948 0.93573,-2.57766 1.08439,-5.34298 0.97993,-8.05875 -0.0409,-2.7268 -0.14576,-5.22091 -0.34274,-7.94481 -0.51064,-7.10969 -1.58914,-14.17718 -3.19959,-21.12049 -0.307,-1.30596 -0.71159,-2.92886 -1.05469,-4.22265 -2.18508,-8.13527 -5.09777,-16.07843 -8.75586,-23.66797 -0.31982,-0.63035 -0.75119,-1.54477 -1.1312,-2.28004 -1.85342,-3.68599 -3.99429,-7.43688 -6.12465,-10.82934 -9.32929,-14.85038 -21.55858,-27.857585 -35.76758,-38.132811 -1.07135,-0.76458 -2.33412,-1.661021 -3.50448,-2.444267 -6.01617,-4.072478 -12.36609,-7.649808 -18.95841,-10.702217 -1.10566,-0.498807 -2.42896,-1.102938 -3.63639,-1.610556 C 349.81296,65.92532 331.10667,62.226184 312.44387,62.479607 l -0.0999,0.0045 z m 0.11328,58.417969 c -7.56652,0.47681 -14.55638,5.97416 -16.69346,13.26783 -2.01759,6.52751 -0.21803,14.12108 4.70228,18.90621 3.78529,3.78457 9.20741,5.79471 14.5407,5.52946 11.93522,0.26424 23.56732,6.35273 30.61316,15.9865 4.95869,6.62656 7.73372,14.84394 7.81036,23.11984 -0.0342,3.03441 0.53573,6.0961 1.93224,8.80828 2.5879,5.25843 7.68976,9.24946 13.49427,10.24602 6.6181,1.22658 13.8457,-1.32495 18.04685,-6.62712 1.99242,-2.45601 3.33409,-5.4214 3.9286,-8.52413 0.0515,-0.2786 0.16747,-0.97053 0.21798,-1.41809 0.27508,-2.47606 -0.003,-4.96843 -0.0967,-7.44765 -1.13427,-16.8875 -8.03528,-33.33408 -19.35018,-45.92947 -11.64388,-13.10502 -27.82234,-22.18537 -45.16937,-24.91726 -4.61349,-0.75701 -9.30245,-1.10778 -13.97678,-1.00042 z m 0.72852,58.45898 c -7.70587,0.16101 -14.99954,5.57822 -17.30778,12.946 -2.18189,6.5768 -0.4454,14.33316 4.53327,19.20156 4.7102,4.7563 12.04294,6.77267 18.49063,4.8665 6.37655,-1.79048 11.68076,-7.10999 13.19743,-13.59308 1.58642,-6.36594 -0.3377,-13.54399 -5.13599,-18.07394 -3.6334,-3.51805 -8.70894,-5.54993 -13.77756,-5.34704 z" />
    </g>
  </g>
</svg>
