<?xml version="1.0" encoding="UTF-8" standalone="no"?>
<svg
   width="180"
   height="192"
   viewBox="0 0 180 192"
   fill="none"
   version="1.1"
   id="svg8"
   sodipodi:docname="deepin-font-installer.svg"
   inkscape:version="1.3.2 (091e20ef0f, 2023-11-25, custom)"
   xmlns:inkscape="http://www.inkscape.org/namespaces/inkscape"
   xmlns:sodipodi="http://sodipodi.sourceforge.net/DTD/sodipodi-0.dtd"
   xmlns="http://www.w3.org/2000/svg"
   xmlns:svg="http://www.w3.org/2000/svg">
  <sodipodi:namedview
     id="namedview8"
     pagecolor="#ffffff"
     bordercolor="#666666"
     borderopacity="1.0"
     inkscape:showpageshadow="2"
     inkscape:pageopacity="0.0"
     inkscape:pagecheckerboard="0"
     inkscape:deskcolor="#d1d1d1"
     inkscape:zoom="3.0530808"
     inkscape:cx="12.446444"
     inkscape:cy="99.407784"
     inkscape:current-layer="svg8" />
  <path
     fill-rule="evenodd"
     clip-rule="evenodd"
     d="M56.9521 52.9598L56.9547 52.9497C57.645 50.2101 58.6226 46.3307 62.1804 46.4852C63.42 46.5371 64.7173 46.4575 66.0272 46.3771C69.1768 46.1837 72.3998 45.9859 75.0705 47.6012C77.0505 50.4055 77.7888 53.8646 78.5133 57.2592L78.5198 57.2899C78.7437 58.3387 78.9663 59.3813 79.2244 60.3961C80.7732 64.5613 81.8626 68.8823 82.9522 73.2043C83.7441 76.3457 84.5362 79.4877 85.505 82.571C86.5237 86.5314 87.6905 90.4553 88.8573 94.3787L88.858 94.381C90.7669 100.801 92.6755 107.219 93.934 113.795C89.451 115.088 84.5844 115.154 80.1561 113.607L79.7177 111.53C79.5829 110.88 79.4596 110.224 79.3362 109.567L79.336 109.566C78.8473 106.965 78.3559 104.35 77.1309 101.995C76.6334 101.982 76.1355 101.969 75.6374 101.956C75.3815 101.949 75.1254 101.942 74.8693 101.935L74.8648 101.934L74.8612 101.934C69.0748 101.775 63.2574 101.615 57.4999 102.172C56.7984 104.105 56.3709 106.126 55.9873 108.149C55.8887 108.635 55.7132 109.596 55.6256 110.082C55.4479 110.441 55.2887 110.821 55.1282 111.205L55.1277 111.206C54.6351 112.383 54.1299 113.589 53.0388 114.28C49.9078 114.88 46.7193 114.72 43.5489 114.561L43.5477 114.561C42.8007 114.523 42.0547 114.486 41.3106 114.458C40.3558 112.323 41.0005 110.087 41.6171 107.949C41.7437 107.51 41.8691 107.075 41.9792 106.646C42.4603 105.121 42.8769 103.579 43.2934 102.037L43.2954 102.029C43.8652 99.9206 44.4349 97.8124 45.1689 95.7523L45.5747 95.4868C47.5861 86.2344 50.1833 77.1066 52.7806 67.9782L52.7819 67.9738C54.204 62.9762 55.626 57.9784 56.9521 52.9598ZM67.5524 65.6505C67.9259 65.6152 68.3081 65.5791 68.5595 65.5556C69.1191 70.1579 70.3316 74.6204 71.5441 79.0823L71.5447 79.0845C72.5646 82.8378 73.5844 86.5908 74.2153 90.4268C69.7433 90.7251 65.2492 90.703 60.7881 90.4489C61.0974 88.0372 61.6845 85.6804 62.2715 83.3241L62.2824 83.2802C62.4824 82.4773 62.6824 81.6741 62.871 80.8691C64.3457 76.046 65.461 71.1298 66.5746 66.2205L66.6854 65.7322C66.9053 65.7116 67.2255 65.6814 67.5524 65.6505ZM118.929 60.0837C114.087 60.2351 108.683 60.4041 104.873 63.8208C101.256 67.2459 100.784 72.5936 101.036 77.3004C105.125 78.4936 111.198 80.2062 114.036 75.9524C114.245 74.8364 114.497 73.7427 114.804 72.6599C117.15 69.7651 121.742 70.4722 124.909 71.345C127.437 73.3627 127.256 76.8314 127.091 79.9841C127.046 80.8369 127.003 81.6665 127.014 82.438L125.984 82.5485C123.897 82.7244 121.775 82.7055 119.648 82.6866L119.647 82.6866C115.229 82.6474 110.8 82.6081 106.671 84.3164C102.516 85.9185 99.9738 90.349 99.9409 94.7244C99.9295 95.2153 99.9154 95.7087 99.9013 96.2037L99.9005 96.2341V96.2343C99.7653 100.965 99.6259 105.842 101.705 110.204C108.239 116.645 119.44 117.021 126.971 112.204C130.248 115.043 134.555 114.922 138.633 114.458C139.807 113.075 139.802 111.266 139.796 109.517L139.796 109.462C139.795 108.995 139.794 108.531 139.817 108.082C139.777 102.364 139.781 96.646 139.786 90.9279V90.9246C139.79 85.584 139.794 80.2433 139.761 74.9027C139.739 70.4059 138.545 65.2903 134.544 62.716C130.333 60.1258 125.259 60.1035 120.457 60.0825L120.4 60.0822C119.997 60.0804 119.597 60.0786 119.199 60.0752L118.929 60.0837L118.929 60.0837ZM112.948 97.1233L112.952 97.0557C112.765 95.1221 114.157 93.2991 116.053 93.0118C119.583 92.5588 123.178 92.6804 126.741 92.8682C127.321 96.1828 127.365 99.7295 126.148 102.9C123.981 105.304 120.475 104.938 117.431 104.62L117.428 104.62C116.933 104.568 116.45 104.518 115.987 104.481C112.477 103.932 112.76 99.8315 112.948 97.1233Z"
     fill="url(#paint0_linear_637_62)"
     id="path1"
     style="fill:url(#paint0_linear_637_62)" />
  <path
     fill-rule="evenodd"
     clip-rule="evenodd"
     d="m 111.657,9.18449 c 4.869,-0.21568 9.745,-0.18055 14.619,-0.14543 3.116,0.02245 6.231,0.04489 9.343,0.00181 1.493,0.03665 2.998,0.01287 4.505,-0.01094 v 0 c 4.399,-0.06951 8.816,-0.13916 13.021,1.29277 9.152,3.1046 15.697,11.7338 17.34,21.1916 0.241,3.2815 0.296,6.5742 0.241,9.8556 0.095,12.0423 0.084,24.0814 0.073,36.1208 v 0.0056 c -0.01,10.1837 -0.019,20.3676 0.036,30.5537 0.044,3.336 -0.219,6.684 -1.073,9.91 -3.409,3.801 -10.611,1.967 -10.786,-3.447 -0.144,-14.125 -0.118,-28.2534 -0.092,-42.3832 v -8e-4 -8e-4 -0.0054 -0.2528 -0.0041 c 0.024,-12.6614 0.047,-25.3245 -0.05,-37.9871 -0.526,-1.5801 -1.162,-3.1379 -1.94,-4.6074 -2.608,-5.6902 -9.099,-7.8226 -14.93,-7.3476 -9.056,0.1692 -18.112,0.1328 -27.168,0.0963 h -0.002 c -3.362,-0.0135 -6.724,-0.027 -10.086,-0.03 -12.7857,0.0816 -25.5818,0.0505 -38.3698,0.0192 l -3.2043,-0.0079 c -4.4282,0.0798 -8.8586,0.0537 -13.2891,0.0275 -5.3739,-0.0317 -10.7481,-0.0634 -16.119,0.094 -5.9737,0.1878 -10.7087,5.1484 -12.3529,10.6618 -0.1973,1.8783 -0.2851,3.7566 -0.318,5.6459 0,12.1445 0.0036,24.2902 0.0073,36.4367 v 0.0144 c 0.0073,24.3049 0.0146,48.6133 -0.0073,72.9213 0.0121,0.932 7e-4,1.87 -0.0108,2.81 -0.0403,3.312 -0.0808,6.643 0.9096,9.819 1.6441,5.027 6.2915,9.182 11.6514,9.447 5.9592,0.139 11.925,0.102 17.8914,0.064 h 0.0026 0.0663 c 7.3003,-0.045 14.6021,-0.09 21.8934,0.189 17.8882,-0.309 35.8102,-0.32 53.7082,-0.011 3.404,-0.249 6.817,-0.209 10.229,-0.169 h 0.001 c 3.092,0.036 6.185,0.072 9.27,-0.107 5.316,-0.364 9.712,-4.574 11.378,-9.513 1.106,-4.585 1.326,-9.48 0.328,-14.097 -5.366,-0.076 -10.733,-0.06 -16.1,-0.044 -4.816,0.015 -9.632,0.029 -14.448,-0.023 -15.751,0.067 -31.5014,0.067 -47.241,-0.022 -5.2377,0.082 -10.4718,0.07 -15.7043,0.057 l -0.2925,-0.001 c -3.7257,-0.009 -7.4506,-0.017 -11.1754,0.01 -0.8638,-0.002 -1.7294,0.005 -2.5959,0.012 h -0.0057 -0.0129 c -3.8005,0.031 -7.6169,0.062 -11.3608,-0.675 -1.6551,-2.044 -3.4636,-4.773 -2.3676,-7.491 0.5919,-3.503 4.2858,-5.303 7.5522,-4.972 5.4843,0.037 10.9717,0.015 16.4598,-0.008 h 0.0017 c 9.2637,-0.038 18.5304,-0.076 27.7876,0.173 15.9698,-0.331 31.9838,-0.198 47.9758,-0.065 7.971,-0.185 15.952,-0.131 23.925,-0.077 h 0.005 c 0.548,0.004 1.096,0.007 1.644,0.011 l 1.729,0.011 c 3.761,-0.189 6.72,3.237 6.697,6.883 -0.01,1.852 0.032,3.736 0.075,5.632 v 0.001 0.003 l 0.001,0.029 v 0.004 c 0.196,8.77 0.398,17.822 -4.427,25.444 -4.056,5.878 -10.26,10.596 -17.45,11.502 -3.342,0.405 -6.703,0.383 -10.06,0.36 l -0.187,-0.001 c -1.061,-0.007 -2.12,-0.013 -3.179,-0.005 l -15.437,-0.006 h -0.007 c -5.141,-0.003 -10.281,-0.005 -15.422,-0.007 -22.6166,-0.011 -45.2327,-0.021 -67.8488,-0.021 -1.9181,-0.022 -3.8364,-0.111 -5.7436,-0.32 -8.9331,-1.017 -16.4962,-7.756 -19.8063,-16.01 -0.1189,-0.277 -0.299,-0.695 -0.48,-1.114 l -0.1329,-0.308 -0.1052,-0.244 c -0.0986,-0.229 -0.1883,-0.437 -0.2574,-0.599 -1.49156,-4.747 -1.41845,-9.712 -1.34568,-14.653 0.02563,-1.74 0.05121,-3.477 0.00839,-5.201 0.05885,-5.741 0.02745,-11.488 -0.00396,-17.234 l -10e-6,-0.002 C 8.98706,118.027 8.93669,108.79 9.26102,99.575 8.9389,86.8846 8.98656,74.1818 9.03422,61.4792 9.06441,53.4343 9.09459,45.3896 9.03084,37.3482 8.76778,27.2385 14.0071,16.8857 22.995,12.0574 27.1931,9.53831 32.1693,8.88644 36.9702,9.03007 c 4.7448,0.05354 9.4914,0.0314 14.2383,0.00926 h 5e-4 C 58.2172,9.00665 65.2264,8.97407 72.2314,9.18486 85.3626,8.94179 98.5269,8.94142 111.657,9.18449 Z m 31.016,11.57121 c 0.231,-0.3913 0.462,-0.7892 0.693,-1.1901 l -0.001,0.001 -0.051,0.0885 -0.002,0.0031 c -0.214,0.3695 -0.427,0.7363 -0.639,1.0975 z m 0.735,-1.2628 0.001,-0.0021 0.005,-0.0081 0.052,-0.09 0.025,-0.0442 0.107,-0.1845 c -0.065,0.1114 -0.129,0.2226 -0.193,0.3337 z m 16.424,26.4803 c -0.055,2.6672 -0.11,5.336 0.185,7.9703 l 0.001,-8e-4 c -0.295,-2.6336 -0.24,-5.302 -0.185,-7.9685 z M 20.2348,150.86 c 0.0288,-0.555 0.0367,-1.113 0.0444,-1.664 l -3e-4,0.004 -10e-5,0.009 v 0.001 c -0.0077,0.546 -0.0155,1.099 -0.044,1.65 z"
     fill="url(#paint1_linear_637_62)"
     id="path2"
     style="display:inline;fill:url(#paint1_linear_637_62)" />
  <path
     d="m 126.276,9.03906 -0.014,1.99994 v 0 z m -14.619,0.14543 -0.037,1.99961 0.063,0.0012 0.063,-0.0028 z m 23.962,-0.14362 0.049,-1.9994 -0.038,-9.4e-4 -0.039,5.3e-4 z m 4.505,-0.01094 0.031,1.99977 0.006,-10e-5 z m 0,0 -0.032,-1.99976 -0.005,9e-5 z m 13.021,1.29277 -0.645,1.8932 0.003,8e-4 z m 17.34,21.1916 1.995,-0.1465 -0.008,-0.0985 -0.017,-0.0973 z m 0.241,9.8556 -2,-0.0335 v 0.0246 0.0247 z m 0.073,36.1208 -2,-0.0018 v 0.0018 z m 0,0.0056 2,0.002 v -0.002 z m 0.036,30.5537 -2,0.011 v 0.008 0.007 z m -1.073,9.91 1.489,1.335 c 0.18229,-0.3209 0.30048,-0.5208 0.444,-0.823 z m -10.786,-3.447 -2,0.02 v 0.023 l 0.001,0.022 z m -0.092,-42.3832 2,0.0037 v -0.0037 z m 0,-0.2639 -2,-0.0038 v 0.0038 z m -0.05,-37.9871 2,-0.0153 -0.002,-0.3163 -0.1,-0.3001 z m -1.94,-4.6074 -1.818,0.8333 0.024,0.052 0.026,0.0505 z m -14.93,-7.3476 0.037,1.9996 0.063,-0.0011 0.062,-0.0051 z m -27.168,0.0963 0.008,-2 h -0.008 z m -0.002,0 -0.008,2 h 0.008 z m -10.086,-0.03 0.002,-2 h -0.007 -0.008 z m -38.3698,0.0192 -0.0049,2 v 0 z m -3.2043,-0.0079 0.0049,-2 h -0.0205 l -0.0204,3e-4 z m -13.2891,0.0275 0.0118,-2 v 0 z m -16.119,0.094 -0.0586,-1.9991 -0.0042,10e-5 z m -12.3529,10.6618 -1.9166,-0.5716 -0.0531,0.178 -0.0194,0.1847 z m -0.318,5.6459 -1.9997,-0.0348 -3e-4,0.0174 v 0.0174 z m 0.0073,36.4367 h 2 v -6e-4 z m 0,0.0144 h -2 v 6e-4 z m -0.0073,72.9213 -2,-0.002 v 0.014 l 2e-4,0.014 z m -0.0108,2.81 -1.9998,-0.024 h -10e-5 z m 0.9096,9.819 -1.9093,0.595 0.0041,0.014 0.0043,0.013 z m 11.6514,9.447 -0.0988,1.998 0.0261,10e-4 h 0.0261 z m 17.8914,0.064 v -2 h -0.0127 z m 0.0689,0 v 2 h 0.0123 z m 21.8934,0.189 -0.0765,1.999 0.0555,0.002 0.0555,-0.001 z m 53.7082,-0.011 -0.035,2 0.091,0.001 0.09,-0.006 z m 10.229,-0.169 -0.023,2 h 0.011 0.012 z m 0.001,0 0.023,-2 h -0.012 -0.011 z m 9.27,-0.107 0.116,1.997 0.01,-0.001 0.011,-0.001 z m 11.378,-9.513 1.895,0.639 0.028,-0.084 0.021,-0.086 z m 0.328,-14.097 1.955,-0.423 -0.336,-1.554 -1.591,-0.023 z m -16.1,-0.044 -0.006,-2 v 0 z m -14.448,-0.023 0.022,-2 h -0.015 -0.016 z m -47.241,-0.022 0.0113,-2 H 80.574 80.5526 Z m -15.7043,0.057 -0.0069,2 h 0.0019 z m -0.2925,-0.001 0.0069,-2 h -0.002 z m -11.1754,0.01 -0.0047,2 h 0.0096 0.0095 z m -2.5959,0.012 v 2 h 0.0081 0.0081 z m -0.0186,0 v -2 H 50.7892 50.781 Z m -11.3608,-0.675 -1.5543,1.259 0.4564,0.563 0.7117,0.14 z m -2.3676,-7.491 1.8549,0.748 0.0811,-0.201 0.0361,-0.214 z m 7.5522,-4.972 -0.2016,1.99 0.0938,0.009 0.0944,0.001 z m 16.4598,-0.008 v -2 h -0.0083 z m 0.0017,0 v 2 h 0.0083 z m 27.7876,0.173 -0.0537,1.999 0.0476,0.002 0.0476,-0.001 z m 47.9758,-0.065 -0.016,2 h 0.031 l 0.032,-0.001 z m 23.925,-0.077 -0.014,2 h 0.014 z m 0.005,0 0.015,-2 h -0.008 -0.007 z m 1.644,0.011 -0.015,2 h 0.002 z m 1.729,0.011 -0.013,2 h 0.057 l 0.056,-0.003 z m 6.697,6.883 -2,-0.013 v 0.002 z m 0.075,5.632 h 2 v -0.023 l -0.001,-0.022 z m 0,0.004 h -2 v 0.034 l 0.001,0.034 z m 0.001,0.029 h 2 v -0.034 l -0.001,-0.034 z m 0,0.004 h -2 v 0.022 0.023 z m -4.427,25.444 1.646,1.136 0.023,-0.033 0.021,-0.033 z m -17.45,11.502 0.241,1.985 0.009,-0.001 z m -10.06,0.36 0.014,-2 h -0.003 z m -0.187,-0.001 -0.013,2 h 0.002 z m -3.179,-0.005 -0.001,2 h 0.008 0.008 z m -15.437,-0.006 0.001,-2 h -0.001 z m -0.007,0 -10e-4,2 h 10e-4 z m -15.422,-0.007 -0.001,2 v 0 z m -67.8488,-0.021 -0.0229,2 h 0.0114 0.0115 z m -5.7436,-0.32 -0.2262,1.987 0.0083,10e-4 z m -19.8063,-16.01 1.8563,-0.744 -0.009,-0.023 -0.0095,-0.022 z m -0.48,-1.114 -1.83634,0.792 3.2e-4,0.001 z m -0.1329,-0.308 -1.83673,0.791 3.9e-4,0.001 z m -0.1052,-0.244 1.8367,-0.792 h -10e-5 z m -0.2574,-0.599 -1.90803,0.6 0.02964,0.094 0.0388,0.091 z M 9.03312,149.701 7.03334,149.672 v 0 z m 0.00839,-5.201 -1.99989,-0.021 -3.6e-4,0.036 8.7e-4,0.035 z m -0.00396,-17.234 -1.99998,0.01 1e-5,0.001 z m -10e-6,-0.002 1.99996,-0.01 v -0.001 z m 0.22348,-27.689 1.99878,0.0703 0.0021,-0.0605 -0.0015,-0.0606 z M 9.03422,61.4792 7.03423,61.4717 v 0 z m -0.00338,-24.131 1.99996,-0.0159 -2e-4,-0.018 -4e-4,-0.0181 z M 22.995,12.0574 l 0.9465,1.7619 0.0418,-0.0225 0.0408,-0.0245 z m 13.9752,-3.02733 -0.0598,1.99913 0.0186,5e-4 0.0186,2e-4 z M 51.2085,9.03933 51.1992,7.03935 v 0 z m 5e-4,0 0.0093,1.99997 v 0 z m 21.0224,0.14553 -0.0602,1.99914 0.0486,0.0014 0.0486,-9e-4 z m 71.1346,10.38074 1.732,0.9992 -3.222,-2.3337 z m -0.693,1.1901 -1.724,-1.014 3.446,2.0317 z m 0.692,-1.1891 -1.49,-1.3345 -0.137,0.1535 -0.104,0.1785 z m -0.051,0.0885 1.73,1.003 v -5e-4 z m -0.002,0.0031 -1.73,-1.003 -0.001,6e-4 z m 0.097,-0.1674 -1.701,-1.0512 -0.059,0.0955 -0.048,0.1016 z m -0.001,0.0021 1.695,1.0617 0.063,-0.1004 0.05,-0.1072 z m 0.006,-0.0102 1.701,1.0512 0.016,-0.0251 0.015,-0.0255 z m 0.052,-0.09 1.732,1.0006 0.001,-0.0029 z m 0.025,-0.0442 -1.733,-0.9978 v 10e-5 z m 0.107,-0.1845 1.733,0.9978 -3.464,-1.9995 z m -0.193,0.3337 -1.734,-0.9972 3.429,2.0589 z m 16.612,34.4458 -1.988,0.2226 0.403,3.5939 2.83,-2.2513 z m -0.185,-7.9703 1.42,-1.4088 -3.322,-3.3475 -0.098,4.7151 z m 0.186,7.9695 1.245,1.5652 0.866,-0.6886 -0.123,-1.0992 z m -0.185,-7.9685 2,0.0412 0.017,-0.8479 -0.597,-0.6021 z M 20.2792,149.196 l 1.9998,0.028 -3.9942,-0.177 z m -0.0444,1.664 -1.9973,-0.103 3.9946,0.207 z m 0.0441,-1.66 -1.9944,-0.149 -0.0048,0.063 -7e-4,0.064 z m -10e-5,0.009 1.9998,0.027 10e-5,-0.005 z m 0,0.001 1.9998,0.028 v -0.001 z M 126.29,7.03911 c -4.865,-0.03506 -9.792,-0.071 -14.722,0.14734 l 0.178,3.99605 c 4.808,-0.213 9.633,-0.1787 14.516,-0.1435 z m 9.301,0.00195 C 132.504,7.0838 129.41,7.06159 126.29,7.03911 l -0.028,3.99989 c 3.112,0.0224 6.248,0.0451 9.385,0.0017 z m 4.501,-0.01088 c -1.514,0.02392 -2.978,0.04678 -4.424,0.01129 l -0.098,3.99883 c 1.54,0.0378 3.086,0.0131 4.585,-0.0106 z m -0.005,8e-5 v 10e-6 l 0.074,3.99933 v 0 z m 13.703,1.3992 c -4.589,-1.5625 -9.359,-1.46783 -13.698,-1.39928 l 0.064,3.99952 c 4.459,-0.0705 8.523,-0.1151 12.344,1.1862 z M 172.455,31.172 C 170.705,21.0951 163.726,11.8 153.787,8.42871 l -1.284,3.78799 c 8.365,2.8379 14.476,10.8012 16.012,19.6399 z m 0.271,10.2314 c 0.055,-3.3251 0,-6.6798 -0.246,-10.0356 l -3.99,0.293 c 0.236,3.2072 0.291,6.4379 0.236,9.6756 z m 0.073,36.0891 c 0.011,-12.0379 0.022,-24.0858 -0.073,-36.1384 l -4,0.0316 c 0.095,12.032 0.084,24.0623 0.073,36.1032 z m 0,0.0038 v -0.0056 h -4 v 0.0056 z m 0.036,30.5427 C 172.78,97.8605 172.789,87.6828 172.799,77.4983 l -4,-0.004 c -0.01,10.1829 -0.019,20.373 0.036,30.5667 z m -1.14,10.433 c 1.52297,-3.05991 1.185,-6.996 1.14,-10.448 l -4,0.052 c 0.043,3.22 -0.213,6.375 -1.006,9.372 z m -14.718,-3.894 c 0.121,3.736 2.71,6.18 5.616,7.033 2.859,0.839 6.355,0.252 8.658,-2.316 l -2.978,-2.67 c -1.106,1.233 -2.915,1.629 -4.553,1.148 -1.592,-0.467 -2.691,-1.647 -2.745,-3.325 z m -0.093,-42.4518 c -0.026,14.1277 -0.052,28.2678 0.092,42.4068 l 4,-0.04 c -0.144,-14.112 -0.118,-28.2277 -0.092,-42.3595 z m 0,0.0028 v 8e-4 h 4 v -8e-4 z m 0,-8e-4 v 8e-4 h 4 v -8e-4 z m 0,-0.0054 v 0.0054 h 4 v -0.0054 z m 0,-0.2528 v 0.2528 h 4 V 71.87 Z m 0,-0.0041 V 71.87 h 4 v -0.0041 z m -0.05,-37.9718 c 0.097,12.6515 0.074,25.3052 0.05,37.968 l 4,0.0076 c 0.024,-12.66 0.047,-25.3325 -0.05,-38.0062 z m -1.708,-3.6869 c 0.717,1.3531 1.312,2.8057 1.81,4.3033 l 3.796,-1.2634 c -0.554,-1.6626 -1.231,-3.3256 -2.07,-4.9115 z m -13,-6.29 c 5.389,-0.439 10.833,1.5694 12.95,6.1875 l 3.636,-1.6666 c -3.099,-6.7623 -10.637,-9.0187 -16.91,-8.5077 z m -27.338,0.1029 c 9.052,0.0365 18.131,0.073 27.213,-0.0967 l -0.074,-3.9993 c -9.03,0.1688 -18.063,0.1325 -27.123,0.096 z m 0.006,0 h 0.002 v -4 h -0.002 z m -10.088,-0.03 c 3.359,0.003 6.717,0.0165 10.08,0.03 l 0.016,-4 c -3.361,-0.0135 -6.727,-0.027 -10.092,-0.03 z m -38.3727,0.0192 c 12.7866,0.0313 25.5915,0.0624 38.3877,-0.0192 l -0.026,-4 c -12.7752,0.0816 -25.5625,0.0505 -38.3519,0.0192 z m -3.2043,-0.0079 3.2043,0.0079 0.0098,-4 -3.2043,-0.0079 z m -13.296,0.0275 c 4.4265,0.0261 8.8808,0.0525 13.3369,-0.0278 l -0.072,-3.9994 c -4.4003,0.0793 -8.8068,0.0535 -13.2413,0.0272 z M 33.7844,24.122 c 5.3298,-0.1562 10.6688,-0.1249 16.0486,-0.0931 l 0.0236,-4 c -5.368,-0.0316 -10.7774,-0.0637 -16.1894,0.0949 z m -10.4949,9.2343 c 1.4819,-4.9694 5.6471,-9.0819 10.4991,-9.2344 l -0.1256,-3.998 c -7.0954,0.223 -12.4002,6.0318 -14.2067,12.0892 z m -0.2349,5.1091 c 0.0322,-1.8518 0.118,-3.6688 0.3074,-5.4718 l -3.9782,-0.4178 c -0.2052,1.9536 -0.295,3.8932 -0.3286,5.82 z m 0.0076,36.4013 C 23.0585,62.7202 23.0549,50.5747 23.0549,38.4306 h -4 c 0,12.1448 0.0036,24.2908 0.0073,36.4373 z m 0,0.015 v -0.0144 h -4 v 0.0144 z m -0.0073,72.9233 c 0.0219,-24.31 0.0146,-48.6192 0.0073,-72.9239 l -4,0.0012 c 0.0073,24.3051 0.0146,48.6127 -0.0073,72.9187 z m -0.0109,2.832 c 0.0114,-0.935 0.0232,-1.899 0.0107,-2.86 l -3.9996,0.052 c 0.0117,0.903 7e-4,1.815 -0.0108,2.76 z m 0.819,9.2 c -0.8802,-2.823 -0.86,-5.831 -0.819,-9.2 l -3.9998,-0.048 c -0.0396,3.255 -0.1004,6.909 1.0002,10.438 z m 9.8409,8.044 c -4.3963,-0.217 -8.4178,-3.694 -9.8493,-8.071 l -3.8018,1.244 c 1.8567,5.677 7.13,10.51 13.4535,10.823 z m 17.7799,0.062 c -5.9711,0.038 -11.9074,0.075 -17.8321,-0.063 l -0.0932,3.998 c 5.9937,0.14 11.989,0.103 17.9507,0.065 z m 0.0153,0 h -0.0026 v 4 h 0.0026 z m 0.0663,0 h -0.0663 v 4 h 0.0663 z m 21.9699,0.19 c -7.3431,-0.281 -14.6894,-0.235 -21.9822,-0.19 l 0.0246,4 c 7.3078,-0.045 14.5651,-0.089 21.8046,0.188 z m 53.6667,-0.012 c -17.922,-0.309 -35.8673,-0.298 -53.7777,0.011 l 0.069,4 c 17.866,-0.309 35.7647,-0.32 53.6387,-0.011 z m 10.217,-0.169 c -3.397,-0.04 -6.895,-0.082 -10.398,0.174 l 0.292,3.99 c 3.305,-0.242 6.633,-0.204 10.06,-0.164 z m -0.022,0 h -0.001 v 4 h 0.001 z m 9.154,-0.104 c -3.004,0.175 -6.027,0.14 -9.131,0.104 l -0.047,4 c 3.081,0.036 6.244,0.073 9.41,-0.11 z m 9.599,-8.155 c -1.471,4.36 -5.29,7.86 -9.62,8.157 l 0.274,3.99 c 6.302,-0.431 11.275,-5.351 13.136,-10.869 z m 0.268,-13.035 c 0.925,4.279 0.729,8.866 -0.317,13.205 l 3.888,0.938 c 1.166,-4.831 1.41,-10.034 0.339,-14.989 z m -14.139,1.533 c 5.37,-0.016 10.72,-0.032 16.066,0.044 l 0.056,-4 c -5.386,-0.076 -10.77,-0.06 -16.134,-0.044 z m -14.476,-0.023 c 4.832,0.052 9.662,0.038 14.476,0.023 l -0.012,-4 c -4.818,0.015 -9.62,0.029 -14.42,-0.023 z m -47.2304,-0.022 c 15.7472,0.089 31.5044,0.089 47.2614,0.022 l -0.018,-4 c -15.745,0.067 -31.4886,0.067 -47.2207,-0.022 z m -15.6979,0.057 c 5.2299,0.013 10.4818,0.025 15.7406,-0.057 l -0.0627,-4 c -5.2166,0.082 -10.4329,0.07 -15.668,0.057 z m -0.2943,-0.001 0.2924,0.001 0.0137,-4 -0.2924,-0.001 z m -11.1542,0.01 c 3.7138,-0.027 7.4294,-0.019 11.1562,-0.01 l 0.0097,-4 c -3.7246,-0.009 -7.459,-0.017 -11.1948,0.01 z m -2.5941,0.012 c 0.8682,-0.007 1.7235,-0.014 2.575,-0.012 l 0.0093,-4 c -0.8759,-0.002 -1.7519,0.005 -2.6166,0.012 z m -0.0219,0 h 0.0057 v -4 h -0.0057 z m -0.0129,0 h 0.0129 v -4 h -0.0129 z m -11.747,-0.713 c 3.9765,0.783 7.9975,0.744 11.7634,0.713 l -0.0327,-4 c -3.8351,0.031 -7.4469,0.054 -10.9582,-0.637 z M 35.2141,137.31 c -0.8018,1.988 -0.4942,3.913 0.1556,5.503 0.6365,1.557 1.6552,2.936 2.5125,3.995 l 3.1087,-2.518 c -0.7978,-0.985 -1.5109,-1.993 -1.9184,-2.99 -0.3942,-0.965 -0.4429,-1.764 -0.1487,-2.494 z m 9.6087,-6.214 c -3.895,-0.395 -8.8961,1.718 -9.7259,6.629 l 3.9441,0.666 c 0.354,-2.095 2.7407,-3.583 5.3785,-3.315 z m 16.2498,-0.018 c -5.4897,0.023 -10.9663,0.045 -16.438,0.008 l -0.0269,4 c 5.4969,0.037 10.9949,0.015 16.4816,-0.008 z m 0.01,0 h -0.0017 v 4 h 0.0017 z m 27.8414,0.174 c -9.2933,-0.25 -18.591,-0.212 -27.8496,-0.174 l 0.0165,4 c 9.2688,-0.038 18.5045,-0.076 27.7256,0.172 z m 47.939,-0.066 c -15.987,-0.133 -32.03,-0.266 -48.0342,0.065 l 0.0829,4 c 15.9363,-0.331 31.9213,-0.198 47.9183,-0.065 z m 23.922,-0.077 c -7.968,-0.054 -15.979,-0.108 -23.985,0.078 l 0.093,3.998 c 7.936,-0.184 15.887,-0.13 23.864,-0.076 z m -0.009,0 h -0.005 v 4 h 0.005 z m 1.659,0.011 c -0.275,-0.002 -0.55,-0.004 -0.824,-0.005 -0.274,-0.002 -0.547,-0.004 -0.82,-0.006 l -0.03,4 c 0.275,0.002 0.55,0.004 0.824,0.005 0.274,0.002 0.547,0.004 0.82,0.006 z m 1.727,0.011 -1.729,-0.011 -0.026,4 1.729,0.011 z m 8.684,8.896 c 0.029,-4.578 -3.683,-9.151 -8.797,-8.893 l 0.2,3.994 c 2.408,-0.12 4.614,2.159 4.597,4.873 z m 0.074,5.574 c -0.043,-1.901 -0.084,-3.757 -0.074,-5.576 l -4,-0.022 c -0.01,1.885 0.033,3.797 0.076,5.688 z m 0.001,0.046 v -0.001 h -4 v 0.001 z m 0,0.003 v -0.003 h -4 v 0.003 z m 0,-0.039 -0.001,-0.029 -3.998,0.136 0.001,0.029 z m 0.001,0.072 v -0.004 h -4 v 0.004 z m -4.737,26.514 c 5.202,-8.218 4.93,-17.911 4.736,-26.559 l -3.999,0.09 c 0.199,8.892 0.331,17.303 -4.117,24.329 z m -18.89,12.416 c 7.905,-0.996 14.564,-6.144 18.846,-12.35 l -3.292,-2.272 c -3.83,5.55 -9.579,9.838 -16.054,10.654 z m -10.324,0.376 c 3.337,0.023 6.825,0.048 10.315,-0.375 l -0.482,-3.97 c -3.194,0.387 -6.428,0.368 -9.805,0.345 z m -0.184,-0.001 0.187,0.001 0.022,-4 -0.187,-0.001 z m -3.153,-0.005 c 1.043,-0.008 2.089,-0.002 3.151,0.005 l 0.026,-4 c -1.06,-0.007 -2.132,-0.013 -3.207,-0.005 z m -15.453,-0.006 15.437,0.006 0.002,-4 -15.437,-0.006 z m -0.006,0 h 0.007 v -4 h -0.007 z m -15.423,-0.007 c 5.141,0.002 10.281,0.004 15.422,0.007 l 0.002,-4 c -5.141,-0.003 -10.281,-0.005 -15.422,-0.007 z m -67.8478,-0.021 c 22.6156,0 45.2312,0.01 67.8478,0.021 l 0.002,-4 c -22.6166,-0.011 -45.2332,-0.021 -67.8498,-0.021 z m -5.9615,-0.332 c 1.9892,0.218 3.9753,0.309 5.9386,0.332 l 0.0458,-4 c -1.8729,-0.021 -3.7234,-0.108 -5.5486,-0.308 z M 9.49801,167.363 c 3.53339,8.811 11.64759,16.139 21.43639,17.253 l 0.4524,-3.974 c -8.0774,-0.92 -15.0894,-7.07 -18.1762,-14.767 z m -0.45973,-1.065 c 0.18065,0.418 0.3601,0.835 0.47818,1.11 l 3.67564,-1.578 c -0.1197,-0.279 -0.3004,-0.698 -0.4818,-1.118 z m -0.13322,-0.309 0.1329,0.308 3.67264,-1.584 -0.1329,-0.308 z m -0.10564,-0.245 0.10525,0.244 3.67343,-1.582 -0.1052,-0.245 z m -0.26021,-0.605 c 0.07083,0.166 0.16224,0.378 0.26028,0.605 l 3.67331,-1.583 c -0.0991,-0.23 -0.1871,-0.434 -0.2544,-0.592 z M 7.03334,149.672 c -0.07194,4.884 -0.16669,10.176 1.43743,15.282 l 3.81603,-1.2 c -1.379,-4.388 -1.3275,-9.026 -1.2539,-14.024 z m 0.00879,-5.122 c 0.04167,1.677 0.01694,3.375 -0.00879,5.122 l 3.99956,0.058 c 0.0255,-1.733 0.052,-3.509 0.008,-5.28 z M 7.03758,127.277 c 0.03143,5.749 0.0627,11.48 0.00404,17.202 l 3.99978,0.042 c 0.059,-5.76 0.0275,-11.523 -0.0039,-17.266 z m -2e-5,-0.003 10e-6,0.002 3.99993,-0.02 v -0.002 z m 0.2247,-27.7694 c -0.326,9.2624 -0.27513,18.5404 -0.22469,27.7704 l 3.99993,-0.022 c -0.0505,-9.244 -0.1004,-18.44 0.2223,-27.6077 z M 7.03423,61.4717 C 6.98659,74.1694 6.93868,86.9014 7.26166,99.6257 L 11.2604,99.5242 C 10.9391,86.8678 10.9865,74.1942 11.0342,61.4867 Z M 7.0309,37.3641 c 0.06365,8.0277 0.03353,16.0607 0.00333,24.1076 l 3.99997,0.015 C 11.0644,53.4438 11.0946,45.3874 11.0308,37.3323 Z M 22.0485,10.2955 C 12.3101,15.527 6.75147,26.6375 7.03152,37.4002 l 3.99868,-0.104 C 10.7841,27.8395 15.7041,18.2444 23.9415,13.8193 Z M 37.03,7.03096 C 32.0419,6.88173 26.6272,7.54545 21.9659,10.3425 l 2.0582,3.4298 c 3.7349,-2.2411 8.2726,-2.8812 12.8863,-2.7431 z M 51.1992,7.03935 C 46.4496,7.0615 41.719,7.08352 36.9928,7.0302 l -0.0452,3.9997 c 4.7635,0.0538 9.526,0.0315 14.2702,0.0094 z m 5e-4,0 h -5e-4 l 0.0186,3.99995 h 5e-4 z M 72.2916,7.18576 C 65.246,6.97375 58.2021,7.0067 51.1997,7.03935 l 0.0186,3.99995 c 7.014,-0.0327 13.9885,-0.0649 20.9529,0.1447 z M 111.694,7.18483 C 98.5392,6.9413 85.3502,6.94168 72.1944,7.1852 l 0.074,3.9993 c 13.1066,-0.2426 26.2462,-0.243 39.3516,-4e-4 z m 29.939,11.38167 c -0.23,0.3996 -0.456,0.7899 -0.682,1.1715 l 3.444,2.0354 c 0.237,-0.4009 0.471,-0.8064 0.703,-1.2086 z m 3.222,2.3346 0.001,-9e-4 -2.98,-2.6691 -0.001,10e-4 z m 0.189,-0.2435 0.052,-0.0885 -3.462,-2.005 -0.051,0.0884 z m -0.002,0.0037 0.002,-0.0032 -3.461,-2.0061 -0.001,0.0032 z m -0.645,1.1084 c 0.216,-0.3679 0.432,-0.7406 0.646,-1.109 l -3.462,-2.0049 c -0.214,0.3706 -0.423,0.7315 -0.632,1.0859 z m -2.796,-3.133 -0.001,0.0021 3.616,1.7082 0.001,-0.0021 z m 0.112,-0.2052 -0.005,0.0081 3.402,2.1024 0.005,-0.0081 z m 0.021,-0.0394 -0.052,0.09 3.464,2.0012 0.052,-0.09 z m 0.024,-0.0413 -0.025,0.0442 3.466,1.9954 0.026,-0.0443 z m 0.106,-0.1846 -0.106,0.1845 3.467,1.9956 0.106,-0.1845 z m 3.275,2.3287 c 0.062,-0.1087 0.125,-0.2181 0.19,-0.3292 l -3.462,-2.0034 c -0.065,0.1116 -0.13,0.2248 -0.196,0.3382 z m -3.426,-2.0637 -0.003,0.0048 3.39,2.1234 0.003,-0.0048 z m 20.292,35.2897 c -0.278,-2.4806 -0.229,-5.0163 -0.173,-7.7065 l -4,-0.0824 c -0.054,2.6442 -0.115,5.4461 0.197,8.2341 z m -3.232,-1.3434 -0.001,8e-4 2.49,3.1304 0.001,-8e-4 z m -0.94,-6.4445 c -0.054,2.6435 -0.115,5.445 0.197,8.2323 l 3.976,-0.4452 c -0.278,-2.4799 -0.229,-5.0152 -0.173,-7.7047 z m 0.579,1.449 0.001,0.001 2.84,-2.8176 -10e-4,-10e-4 z M 18.2794,149.168 c -0.0078,0.557 -0.0154,1.077 -0.0419,1.588 l 3.9946,0.208 c 0.0311,-0.599 0.0393,-1.195 0.0469,-1.74 z m 3.9939,0.181 3e-4,-0.004 -3.9888,-0.298 -3e-4,0.004 z m 0.0054,-0.118 10e-5,-0.009 -3.9998,-0.044 -10e-5,0.009 z m -10e-5,0.006 v -0.001 l -3.9996,-0.054 v 0.001 z m -0.0465,1.726 c 0.0308,-0.594 0.0389,-1.185 0.0465,-1.725 l -3.9996,-0.056 c -0.0078,0.552 -0.0153,1.068 -0.0415,1.575 z"
     fill="url(#paint2_linear_637_62)"
     id="path3"
     style="fill:url(#paint2_linear_637_62)"/>
  <defs
     id="defs8">
    <linearGradient
       id="paint0_linear_637_62"
       x1="6.9999905"
       y1="184.99971"
       x2="173.00235"
       y2="95.99939"
       gradientUnits="userSpaceOnUse">
      <stop
         id="stop3"
         offset="0"
         style="stop-color:#00f1fa;stop-opacity:1;" />
      <stop
         offset="1"
         id="stop4"
         style="stop-color:#006cff;stop-opacity:1;" />
    </linearGradient>
    <linearGradient
       id="paint1_linear_637_62"
       x1="6.9999905"
       y1="184.99971"
       x2="173.00235"
       y2="95.99939"
       gradientUnits="userSpaceOnUse">
      <stop
         id="stop5"
         offset="0"
         style="stop-color:#00f1fa;stop-opacity:1;" />
      <stop
         offset="1"
         id="stop6"
         style="stop-color:#006cff;stop-opacity:1;" />
    </linearGradient>
    <linearGradient
       id="paint2_linear_637_62"
       x1="6.9999905"
       y1="184.99971"
       x2="173.00235"
       y2="95.99939"
       gradientUnits="userSpaceOnUse">
      <stop
         id="stop7"
         offset="0"
         style="stop-color:#00f1fa;stop-opacity:1;" />
      <stop
         offset="1"
         id="stop8"
         style="stop-color:#006cff;stop-opacity:1;" />
    </linearGradient>
  </defs>
</svg>
