<?xml version="1.0" encoding="UTF-8" standalone="no"?>
<svg
   width="128"
   height="128"
   viewBox="0 0 128 128"
   fill="none"
   version="1.1"
   id="svg19"
   sodipodi:docname="kwalletmanager.svg"
   inkscape:version="1.3.2 (091e20ef0f, 2023-11-25, custom)"
   xmlns:inkscape="http://www.inkscape.org/namespaces/inkscape"
   xmlns:sodipodi="http://sodipodi.sourceforge.net/DTD/sodipodi-0.dtd"
   xmlns="http://www.w3.org/2000/svg"
   xmlns:svg="http://www.w3.org/2000/svg">
  <sodipodi:namedview
     id="namedview19"
     pagecolor="#ffffff"
     bordercolor="#666666"
     borderopacity="1.0"
     inkscape:showpageshadow="2"
     inkscape:pageopacity="0.0"
     inkscape:pagecheckerboard="0"
     inkscape:deskcolor="#d1d1d1"
     inkscape:zoom="3.2382813"
     inkscape:cx="36.593486"
     inkscape:cy="69.018094"
     inkscape:current-layer="svg19" />
  <path
     d="m 40.646133,22.874508 c -1.9722,0.0063 -3.9508,0.0188 -5.923,0.025 -1.5917,0.0063 -3.1771,0 -4.7688,-0.0124 -3.8684,0.1188 -7.9904,-0.6505 -11.6051,1.0945 -4.4707,1.9889 -7.3752,6.7798 -7.1152,11.602 0.0951,19.7018 -0.1902,39.4155 0.1332,59.1171 0.3678,3.227 2.2893,6.092002 4.7879,8.137002 0.1966,0.106 0.5897,0.331 0.7863,0.438 4.1284,2.627 9.1699,1.745 13.7992,1.882 5.0479,-0.006 10.0957,0.007 15.15,0 h 15.226 c 5.4664,0 10.9325,0.007 16.3993,-0.006 9.1633,-0.025 18.3267,0.063 27.490997,-0.037 6.1,-0.113 11.547,-5.361002 11.732,-11.390002 0.082,-5.473 0.031,-10.9516 0.012,-16.4242 -0.412,-1.4134 -1.611,-2.3703 -2.968,-2.8516 -7.857,0 -15.714197,0.0312 -23.564697,-0.0065 -3.2471,-0.5002 -6.2847,-2.2826 -8.0159,-5.0725 -0.2984,-0.5066 -0.5773,-1.0192 -0.8433,-1.5446 -1.9154,-4.6782 0.1265,-10.4827 4.6229,-12.9092 3.4054,-2.089 7.5398,-1.1696 11.3071,-1.5011 1.6677,-0.1313 2.713897,-1.6011 3.233897,-3.0334 0.165,-2.0827 -1.483797,-4.2343 -3.703497,-4.1655 -3.8555,-0.0375 -7.8635,-0.3439 -11.5413,1.0508 -6.1322,2.1077 -10.9711,7.5992 -11.9797,13.96 -0.805,4.4405 0.3113,9.0999 2.8099,12.8465 0.9191,1.1699 1.8642,2.3333 2.974,3.3401 2.8281,2.2767 6.1958,3.9526 9.8548,4.3781 6.3924,0.3248 12.803797,0.0559 19.207797,0.1436 l 0.73,0.0312 0.323,0.0129 c -0.076,3.8961 0.096,7.8054 -0.076,11.7024 -0.19,2.345 -2.409,4.209 -4.769,4.146 -7.323997,0.05 -14.648397,0 -21.972897,0.025 -5.4791,-0.012 -10.9646,-0.006 -16.4502,0 -5.0668,-0.012 -10.1338,-0.006 -15.2006,0 -4.9021,-0.012 -9.8041,-0.006 -14.7061,-0.006 -4.0776,-0.025 -8.1489,0.037 -12.2201,-0.013 -1.1732,0.044 -2.2322,-0.481 -3.2659,-0.957 -0.501,-0.706 -1.0717,-1.382 -1.4395,-2.17 -0.2664,-1.132 -0.3425,-2.295 -0.3362,-3.452 0.0318,-10.4641 0.0064,-20.9279 0.0127,-31.3912 0.0761,-8.4499 -0.1522,-16.9059 0.1142,-25.3494 v -0.0063 c 0.2726,-2.0139 1.9341,-3.7839 4.0205,-4.0028 2.1688,-0.1939 4.3567,-0.0438 6.5318,-0.0751 5.4664,-0.0125 10.9392,0.0063 16.4119,-0.0062 4.6293,0 9.2523,0.0125 13.8816,0 4.8576,0 9.7088,0.0125 14.5665,0 5.3272,0 10.6603,0.0062 15.9935,0 4.2933,-0.0063 8.5802,0.0187 12.873797,-0.0126 1.255,-0.0375 2.498,0.1752 3.684,0.5692 1.199,1.0445 2.365,2.3579 2.314,4.0466 0.064,5.2663 -0.012,10.5388 0.026,15.8113 0.006,4.5154 -0.032,9.0312 0.006,13.547 -0.05,1.0445 0.444,2.0013 1.046,2.8269 2.157,1.9331 6.196,0.8697 6.456,-2.1702 0.178,-7.8241 0.026,-15.661 0.064,-23.4853 -0.019,-3.1272 0.171,-6.267 -0.235,-9.3755 -0.805,-3.0333 -2.771,-5.6727 -5.371,-7.4552 -3.748,-2.408 -8.32,-1.8638 -12.556597,-1.8764 -0.9957,0.0126 -1.9914,0.0313 -2.9805,0.0438 -1.9402,0.0125 -3.8809,-0.0125 -5.8151,-0.0375 -3.5637,-0.0313 -7.1279,-0.0188 -10.6916,-0.0125 -0.8056,0.0062 -1.6047,0.0062 -2.4097,0.0125 -3.2536,0.0187 -6.5065,0.0313 -9.7663,0 -0.7927,0 -1.5917,-0.0063 -2.3907,-0.0063 -4.6293,-0.0125 -9.2523,-0.0312 -13.8817,0.0063 -2.5746,0.0063 -5.1493,0 -7.7239,0.0125 -0.5771,0 -1.725,0.0062 -2.2957,0.0062 z"
     fill="url(#paint2_linear_617_2)"
     id="path2"
     style="display:none;fill:url(#paint2_linear_617_2)" />
  <path
     d="m 40.646133,22.874508 c -1.9722,0.0063 -3.9508,0.0188 -5.923,0.025 -1.5917,0.0063 -3.1771,0 -4.7688,-0.0124 -3.8684,0.1188 -7.9904,-0.6505 -11.6051,1.0945 -4.4707,1.9889 -7.3752,6.7798 -7.1152,11.602 0.0951,19.7018 -0.1902,39.4155 0.1332,59.1171 0.3678,3.227 2.2893,6.092002 4.7879,8.137002 0.1966,0.106 0.5897,0.331 0.7863,0.438 4.1284,2.627 9.1699,1.745 13.7992,1.882 5.0479,-0.006 10.0957,0.007 15.15,0 h 15.226 c 5.4664,0 10.9325,0.007 16.3993,-0.006 9.1633,-0.025 18.3267,0.063 27.490997,-0.037 6.1,-0.113 11.547,-5.361002 11.732,-11.390002 0.082,-5.473 0.031,-10.9516 0.012,-16.4242 -0.412,-1.4134 -1.611,-2.3703 -2.968,-2.8516 -7.857,0 -15.714197,0.0312 -23.564697,-0.0065 -3.2471,-0.5002 -6.2847,-2.2826 -8.0159,-5.0725 -0.2984,-0.5066 -0.5773,-1.0192 -0.8433,-1.5446 -1.9154,-4.6782 0.1265,-10.4827 4.6229,-12.9092 3.4054,-2.089 7.5398,-1.1696 11.3071,-1.5011 1.6677,-0.1313 2.713897,-1.6011 3.233897,-3.0334 0.165,-2.0827 -1.483797,-4.2343 -3.703497,-4.1655 -3.8555,-0.0375 -7.8635,-0.3439 -11.5413,1.0508 -6.1322,2.1077 -10.9711,7.5992 -11.9797,13.96 -0.805,4.4405 0.3113,9.0999 2.8099,12.8465 0.9191,1.1699 1.8642,2.3333 2.974,3.3401 2.8281,2.2767 6.1958,3.9526 9.8548,4.3781 6.3924,0.3248 12.803797,0.0559 19.207797,0.1436 l 0.73,0.0312 0.323,0.0129 c -0.076,3.8961 0.096,7.8054 -0.076,11.7024 -0.19,2.345 -2.409,4.209 -4.769,4.146 -7.323997,0.05 -14.648397,0 -21.972897,0.025 -5.4791,-0.012 -10.9646,-0.006 -16.4502,0 -5.0668,-0.012 -10.1338,-0.006 -15.2006,0 -4.9021,-0.012 -9.8041,-0.006 -14.7061,-0.006 -4.0776,-0.025 -8.1489,0.037 -12.2201,-0.013 -1.1732,0.044 -2.2322,-0.481 -3.2659,-0.957 -0.501,-0.706 -1.0717,-1.382 -1.4395,-2.17 -0.2664,-1.132 -0.3425,-2.295 -0.3362,-3.452 0.0318,-10.4641 0.0064,-20.9279 0.0127,-31.3912 0.0761,-8.4499 -0.1522,-16.9059 0.1142,-25.3494 v -0.0063 c 0.2726,-2.0139 1.9341,-3.7839 4.0205,-4.0028 2.1688,-0.1939 4.3567,-0.0438 6.5318,-0.0751 5.4664,-0.0125 10.9392,0.0063 16.4119,-0.0062 4.6293,0 9.2523,0.0125 13.8816,0 4.8576,0 9.7088,0.0125 14.5665,0 5.3272,0 10.6603,0.0062 15.9935,0 4.2933,-0.0063 8.5802,0.0187 12.873797,-0.0126 1.255,-0.0375 2.498,0.1752 3.684,0.5692 1.199,1.0445 2.365,2.3579 2.314,4.0466 0.064,5.2663 -0.012,10.5388 0.026,15.8113 0.006,4.5154 -0.032,9.0312 0.006,13.547 -0.05,1.0445 0.444,2.0013 1.046,2.8269 2.157,1.9331 6.196,0.8697 6.456,-2.1702 0.178,-7.8241 0.026,-15.661 0.064,-23.4853 -0.019,-3.1272 0.171,-6.267 -0.235,-9.3755 -0.805,-3.0333 -2.771,-5.6727 -5.371,-7.4552 -3.748,-2.408 -8.32,-1.8638 -12.556597,-1.8764 -0.9957,0.0126 -1.9914,0.0313 -2.9805,0.0438 -1.9402,0.0125 -3.8809,-0.0125 -5.8151,-0.0375 -3.5637,-0.0313 -7.1279,-0.0188 -10.6916,-0.0125 -0.8056,0.0062 -1.6047,0.0062 -2.4097,0.0125 -3.2536,0.0187 -6.5065,0.0313 -9.7663,0 -0.7927,0 -1.5917,-0.0063 -2.3907,-0.0063 -4.6293,-0.0125 -9.2523,-0.0312 -13.8817,0.0063 -2.5746,0.0063 -5.1493,0 -7.7239,0.0125 -0.5771,0 -1.725,0.0062 -2.2957,0.0062 z"
     fill="url(#paint3_linear_617_2)"
     id="path3"
     style="display:inline;fill:url(#paint3_linear_617_2)" />
  <path
     d="m 40.644184,22.868731 c -1.9722,0.0063 -3.9508,0.0188 -5.923,0.025 -1.5917,0.0063 -3.1771,0 -4.7688,-0.0124 -3.8684,0.1188 -7.9904,-0.6505 -11.6051,1.0945 -4.4707,1.9889 -7.3752,6.7798 -7.1152,11.602 0.0951,19.7018 -0.1902,39.4155 0.1332,59.1171 0.3678,3.227 2.2893,6.091999 4.7879,8.136999 0.1966,0.106 0.5897,0.331 0.7863,0.438 4.1284,2.627 9.1699,1.745 13.7992,1.882 5.0479,-0.006 10.0957,0.007 15.15,0 h 15.226 c 5.4664,0 10.9325,0.007 16.3993,-0.006 9.1633,-0.025 18.3267,0.063 27.490996,-0.037 6.1,-0.113 11.547,-5.360999 11.732,-11.389999 0.082,-5.473 0.031,-10.9516 0.012,-16.4242 -0.412,-1.4134 -1.611,-2.3703 -2.968,-2.8516 -7.857,0 -15.714196,0.0312 -23.564696,-0.0065 -3.2471,-0.5002 -6.2847,-2.2826 -8.0159,-5.0725 -0.2984,-0.5066 -0.5773,-1.0192 -0.8433,-1.5446 -1.9154,-4.6782 0.1265,-10.4827 4.6229,-12.9092 3.4054,-2.089 7.5398,-1.1696 11.3071,-1.5011 1.6677,-0.1313 2.713896,-1.6011 3.233896,-3.0334 0.165,-2.0827 -1.483796,-4.2343 -3.703496,-4.1655 -3.8555,-0.0375 -7.8635,-0.3439 -11.5413,1.0508 -6.1322,2.1077 -10.9711,7.5992 -11.9797,13.96 -0.805,4.4405 0.3113,9.0999 2.8099,12.8465 0.9191,1.1699 1.8642,2.3333 2.974,3.3401 2.8281,2.2767 6.1958,3.9526 9.8548,4.3781 6.3924,0.3248 12.803796,0.0559 19.207796,0.1436 l 0.73,0.0312 0.323,0.0129 c -0.076,3.8961 0.096,7.8054 -0.076,11.7024 -0.19,2.345 -2.409,4.209 -4.769,4.146 -7.323996,0.05 -14.648396,0 -21.972896,0.025 -5.4791,-0.012 -10.9646,-0.006 -16.4502,0 -5.0668,-0.012 -10.1338,-0.006 -15.2006,0 -4.9021,-0.012 -9.8041,-0.006 -14.7061,-0.006 -4.0776,-0.025 -8.1489,0.037 -12.2201,-0.013 -1.1732,0.044 -2.2322,-0.481 -3.2659,-0.957 -0.501,-0.706 -1.0717,-1.382 -1.4395,-2.17 -0.2664,-1.132 -0.3425,-2.295 -0.3362,-3.452 0.0318,-10.4641 0.0064,-20.9279 0.0127,-31.3912 0.0761,-8.4499 -0.1522,-16.9059 0.1142,-25.3494 v -0.0063 c 0.2726,-2.0139 1.9341,-3.7839 4.0205,-4.0028 2.1688,-0.1939 4.3567,-0.0438 6.5318,-0.0751 5.4664,-0.0125 10.9392,0.0063 16.4119,-0.0062 4.6293,0 9.2523,0.0125 13.8816,0 4.8576,0 9.7088,0.0125 14.5665,0 5.3272,0 10.6603,0.0062 15.9935,0 4.2933,-0.0063 8.5802,0.0187 12.873796,-0.0126 1.255,-0.0375 2.498,0.1752 3.684,0.5692 1.199,1.0445 2.365,2.3579 2.314,4.0466 0.064,5.2663 -0.012,10.5388 0.026,15.8113 0.006,4.5154 -0.032,9.0312 0.006,13.547 -0.05,1.0445 0.444,2.0013 1.046,2.8269 2.157,1.9331 6.196,0.8697 6.456,-2.1702 0.178,-7.8241 0.026,-15.661 0.064,-23.4853 -0.019,-3.1272 0.171,-6.267 -0.235,-9.3755 -0.805,-3.0333 -2.771,-5.6727 -5.371,-7.4552 -3.748,-2.408 -8.32,-1.8638 -12.556596,-1.8764 -0.9957,0.0126 -1.9914,0.0313 -2.9805,0.0438 -1.9402,0.0125 -3.8809,-0.0125 -5.8151,-0.0375 -3.5637,-0.0313 -7.1279,-0.0188 -10.6916,-0.0125 -0.8056,0.0062 -1.6047,0.0062 -2.4097,0.0125 -3.2536,0.0187 -6.5065,0.0313 -9.7663,0 -0.7927,0 -1.5917,-0.0063 -2.3907,-0.0063 -4.6293,-0.0125 -9.2523,-0.0312 -13.8817,0.0063 -2.5746,0.0063 -5.1493,0 -7.7239,0.0125 -0.5771,0 -1.725,0.0062 -2.2957,0.0062 z"
     stroke="url(#paint4_linear_617_2)"
     stroke-width="4"
     id="path4"
     style="display:none;stroke:url(#paint4_linear_617_2)" />
  <path
     d="m 40.644184,22.868731 c -1.9722,0.0063 -3.9508,0.0188 -5.923,0.025 -1.5917,0.0063 -3.1771,0 -4.7688,-0.0124 -3.8684,0.1188 -7.9904,-0.6505 -11.6051,1.0945 -4.4707,1.9889 -7.3752,6.7798 -7.1152,11.602 0.0951,19.7018 -0.1902,39.4155 0.1332,59.1171 0.3678,3.227 2.2893,6.091999 4.7879,8.136999 0.1966,0.106 0.5897,0.331 0.7863,0.438 4.1284,2.627 9.1699,1.745 13.7992,1.882 5.0479,-0.006 10.0957,0.007 15.15,0 h 15.226 c 5.4664,0 10.9325,0.007 16.3993,-0.006 9.1633,-0.025 18.3267,0.063 27.490996,-0.037 6.1,-0.113 11.547,-5.360999 11.732,-11.389999 0.082,-5.473 0.031,-10.9516 0.012,-16.4242 -0.412,-1.4134 -1.611,-2.3703 -2.968,-2.8516 -7.857,0 -15.714196,0.0312 -23.564696,-0.0065 -3.2471,-0.5002 -6.2847,-2.2826 -8.0159,-5.0725 -0.2984,-0.5066 -0.5773,-1.0192 -0.8433,-1.5446 -1.9154,-4.6782 0.1265,-10.4827 4.6229,-12.9092 3.4054,-2.089 7.5398,-1.1696 11.3071,-1.5011 1.6677,-0.1313 2.713896,-1.6011 3.233896,-3.0334 0.165,-2.0827 -1.483796,-4.2343 -3.703496,-4.1655 -3.8555,-0.0375 -7.8635,-0.3439 -11.5413,1.0508 -6.1322,2.1077 -10.9711,7.5992 -11.9797,13.96 -0.805,4.4405 0.3113,9.0999 2.8099,12.8465 0.9191,1.1699 1.8642,2.3333 2.974,3.3401 2.8281,2.2767 6.1958,3.9526 9.8548,4.3781 6.3924,0.3248 12.803796,0.0559 19.207796,0.1436 l 0.73,0.0312 0.323,0.0129 c -0.076,3.8961 0.096,7.8054 -0.076,11.7024 -0.19,2.345 -2.409,4.209 -4.769,4.146 -7.323996,0.05 -14.648396,0 -21.972896,0.025 -5.4791,-0.012 -10.9646,-0.006 -16.4502,0 -5.0668,-0.012 -10.1338,-0.006 -15.2006,0 -4.9021,-0.012 -9.8041,-0.006 -14.7061,-0.006 -4.0776,-0.025 -8.1489,0.037 -12.2201,-0.013 -1.1732,0.044 -2.2322,-0.481 -3.2659,-0.957 -0.501,-0.706 -1.0717,-1.382 -1.4395,-2.17 -0.2664,-1.132 -0.3425,-2.295 -0.3362,-3.452 0.0318,-10.4641 0.0064,-20.9279 0.0127,-31.3912 0.0761,-8.4499 -0.1522,-16.9059 0.1142,-25.3494 v -0.0063 c 0.2726,-2.0139 1.9341,-3.7839 4.0205,-4.0028 2.1688,-0.1939 4.3567,-0.0438 6.5318,-0.0751 5.4664,-0.0125 10.9392,0.0063 16.4119,-0.0062 4.6293,0 9.2523,0.0125 13.8816,0 4.8576,0 9.7088,0.0125 14.5665,0 5.3272,0 10.6603,0.0062 15.9935,0 4.2933,-0.0063 8.5802,0.0187 12.873796,-0.0126 1.255,-0.0375 2.498,0.1752 3.684,0.5692 1.199,1.0445 2.365,2.3579 2.314,4.0466 0.064,5.2663 -0.012,10.5388 0.026,15.8113 0.006,4.5154 -0.032,9.0312 0.006,13.547 -0.05,1.0445 0.444,2.0013 1.046,2.8269 2.157,1.9331 6.196,0.8697 6.456,-2.1702 0.178,-7.8241 0.026,-15.661 0.064,-23.4853 -0.019,-3.1272 0.171,-6.267 -0.235,-9.3755 -0.805,-3.0333 -2.771,-5.6727 -5.371,-7.4552 -3.748,-2.408 -8.32,-1.8638 -12.556596,-1.8764 -0.9957,0.0126 -1.9914,0.0313 -2.9805,0.0438 -1.9402,0.0125 -3.8809,-0.0125 -5.8151,-0.0375 -3.5637,-0.0313 -7.1279,-0.0188 -10.6916,-0.0125 -0.8056,0.0062 -1.6047,0.0062 -2.4097,0.0125 -3.2536,0.0187 -6.5065,0.0313 -9.7663,0 -0.7927,0 -1.5917,-0.0063 -2.3907,-0.0063 -4.6293,-0.0125 -9.2523,-0.0312 -13.8817,0.0063 -2.5746,0.0063 -5.1493,0 -7.7239,0.0125 -0.5771,0 -1.725,0.0062 -2.2957,0.0062 z"
     stroke="url(#paint5_linear_617_2)"
     stroke-width="4"
     id="path5"
     style="display:inline;stroke:url(#paint5_linear_617_2)" />
  <path
     d="m 93.439817,58.961735 c 3.5007,-1.3323 7.527503,2.0948 6.664803,5.7038 -0.4502,3.7779 -5.719803,5.5168 -8.440203,2.8646 -2.9428,-2.3514 -1.8518,-7.5304 1.7754,-8.5684 z"
     fill="url(#paint6_linear_617_2)"
     id="path6"
     style="fill:url(#paint6_linear_617_2)" />
  <defs
     id="defs19">
    <linearGradient
       id="paint0_linear_617_2"
       x1="40.327"
       y1="31.7593"
       x2="54.094"
       y2="-6.0785"
       gradientUnits="userSpaceOnUse">
      <stop
         stop-color="#FE0844"
         id="stop6" />
      <stop
         offset="1"
         stop-color="#FEB302"
         id="stop7" />
    </linearGradient>
    <linearGradient
       id="paint1_linear_617_2"
       x1="40.327"
       y1="31.7593"
       x2="54.094"
       y2="-6.0785"
       gradientUnits="userSpaceOnUse">
      <stop
         stop-color="#FE0844"
         id="stop8" />
      <stop
         offset="1"
         stop-color="#FEB302"
         id="stop9" />
    </linearGradient>
    <linearGradient
       id="paint2_linear_617_2"
       x1="8.9979057"
       y1="119.03171"
       x2="118.58623"
       y2="75.80529"
       gradientUnits="userSpaceOnUse"
       gradientTransform="translate(0.20793311,-11.805292)">
      <stop
         stop-color="#0072FF"
         id="stop10" />
      <stop
         offset="1"
         stop-color="#00E5A1"
         id="stop11" />
    </linearGradient>
    <linearGradient
       id="paint3_linear_617_2"
       x1="61.630424"
       y1="129.37671"
       x2="118.58623"
       y2="75.80529"
       gradientUnits="userSpaceOnUse"
       gradientTransform="translate(0.20793311,-11.805292)">
      <stop
         id="stop12"
         offset="0"
         style="stop-color:#00f1fa;stop-opacity:1;" />
      <stop
         offset="1"
         id="stop13"
         style="stop-color:#006cff;stop-opacity:1;" />
    </linearGradient>
    <linearGradient
       id="paint4_linear_617_2"
       x1="8.999855"
       y1="119.03749"
       x2="118.58817"
       y2="75.811066"
       gradientUnits="userSpaceOnUse"
       gradientTransform="translate(0.20598356,-11.811069)">
      <stop
         stop-color="#0072FF"
         id="stop14" />
      <stop
         offset="1"
         stop-color="#00E5A1"
         id="stop15" />
    </linearGradient>
    <linearGradient
       id="paint5_linear_617_2"
       x1="61.786777"
       y1="129.07368"
       x2="118.58817"
       y2="75.811066"
       gradientUnits="userSpaceOnUse"
       gradientTransform="translate(0.20598356,-11.811069)">
      <stop
         id="stop16"
         offset="0"
         style="stop-color:#00f1fa;stop-opacity:1;" />
      <stop
         offset="1"
         id="stop17"
         style="stop-color:#006cff;stop-opacity:1;" />
    </linearGradient>
    <linearGradient
       id="paint6_linear_617_2"
       x1="58.583549"
       y1="129.30867"
       x2="118.79416"
       y2="76.200462"
       gradientUnits="userSpaceOnUse"
       gradientTransform="translate(3.1004068,-12.200465)">
      <stop
         id="stop18"
         offset="0"
         style="stop-color:#00f1fa;stop-opacity:1;" />
      <stop
         offset="1"
         id="stop19"
         style="stop-color:#006cff;stop-opacity:1;" />
    </linearGradient>
  </defs>
</svg>
