<?xml version="1.0" encoding="UTF-8" standalone="no"?>
<!-- Generator: Gravit.io -->

<svg
   style="isolation:isolate"
   viewBox="0 0 128 128"
   width="128pt"
   height="128pt"
   version="1.1"
   id="svg2"
   sodipodi:docname="libreoffice-draw.svg"
   inkscape:version="1.3.2 (091e20ef0f, 2023-11-25, custom)"
   xmlns:inkscape="http://www.inkscape.org/namespaces/inkscape"
   xmlns:sodipodi="http://sodipodi.sourceforge.net/DTD/sodipodi-0.dtd"
   xmlns:xlink="http://www.w3.org/1999/xlink"
   xmlns="http://www.w3.org/2000/svg"
   xmlns:svg="http://www.w3.org/2000/svg">
  <defs
     id="defs2">
    <linearGradient
       inkscape:collect="always"
       xlink:href="#linearGradient1"
       id="linearGradient4"
       x1="16.314745"
       y1="41.883053"
       x2="36.768456"
       y2="21.796356"
       gradientUnits="userSpaceOnUse"
       gradientTransform="matrix(3.0952546,0,0,3.0952546,12.93367,-2.9950192)" />
    <linearGradient
       id="linearGradient1"
       inkscape:collect="always">
      <stop
         style="stop-color:#b900ff;stop-opacity:1;"
         offset="0"
         id="stop11" />
      <stop
         style="stop-color:#6444ff;stop-opacity:1;"
         offset="1"
         id="stop13" />
    </linearGradient>
    <linearGradient
       inkscape:collect="always"
       xlink:href="#_lgradient_38"
       id="linearGradient2"
       gradientUnits="userSpaceOnUse"
       gradientTransform="matrix(125.48821,0,0,125.29354,1.2559285,1.3536383)"
       x1="0.99999887"
       y1="0.49999669"
       x2="0.49999973"
       y2="0.99999231" />
    <linearGradient
       inkscape:collect="always"
       xlink:href="#_lgradient_38"
       id="linearGradient3"
       gradientUnits="userSpaceOnUse"
       gradientTransform="matrix(47.058,0,0,46.985,0.495,0.559)"
       x1="0.99999887"
       y1="0.49999669"
       x2="0.49999973"
       y2="0.99999231" />
    <linearGradient
       inkscape:collect="always"
       xlink:href="#linearGradient1"
       id="linearGradient6"
       x1="34"
       y1="128"
       x2="128"
       y2="64"
       gradientUnits="userSpaceOnUse" />
    <linearGradient
       inkscape:collect="always"
       xlink:href="#linearGradient1"
       id="linearGradient8"
       x1="37.269855"
       y1="95.364777"
       x2="61.827827"
       y2="38.011112"
       gradientUnits="userSpaceOnUse"
       gradientTransform="translate(-7.9316871,-5.7409073)" />
  </defs>
  <sodipodi:namedview
     id="namedview2"
     pagecolor="#ffffff"
     bordercolor="#666666"
     borderopacity="1.0"
     inkscape:showpageshadow="2"
     inkscape:pageopacity="0.0"
     inkscape:pagecheckerboard="0"
     inkscape:deskcolor="#d1d1d1"
     inkscape:document-units="pt"
     inkscape:zoom="3.2382812"
     inkscape:cx="37.519904"
     inkscape:cy="65.00362"
     inkscape:current-layer="svg2" />
  <linearGradient
     id="_lgradient_38"
     x1="0.99999887"
     y1="0.49999669"
     x2="0.49999973"
     y2="0.99999231"
     gradientTransform="matrix(47.058,0,0,46.985,0.495,0.559)"
     gradientUnits="userSpaceOnUse">
    <stop
       offset="0"
       stop-opacity="1"
       style="stop-color:#6444ff;stop-opacity:1;"
       id="stop1" />
    <stop
       offset="1"
       stop-opacity="1"
       style="stop-color:#b900ff;stop-opacity:1;"
       id="stop2" />
  </linearGradient>
  <path
     d="m 22.417,43.272 v 0 c 1.174,0.099 2.049,1.135 1.953,2.312 v 0 c -0.097,1.176 -1.133,2.051 -2.312,1.952 v 0 C 16.148,47.044 10.632,44.331 6.629,39.942 2.636,35.553 0.442,29.811 0.496,23.875 0.552,17.64 3.088,11.674 7.534,7.297 11.99,2.93 18.002,0.504 24.237,0.56 c 6.235,0.056 12.201,2.592 16.578,7.038 4.366,4.456 6.793,10.468 6.737,16.703 v 0 c -0.011,1.18 -0.978,2.13 -2.158,2.119 v 0 c -1.181,-0.01 -2.131,-0.977 -2.12,-2.158 v 0 C 43.32,19.161 41.333,14.244 37.761,10.597 34.179,6.96 29.299,4.884 24.198,4.838 19.097,4.792 14.18,6.779 10.533,10.351 6.896,13.933 4.82,18.813 4.774,23.914 4.73,28.769 6.516,33.47 9.789,37.061 c 3.272,3.591 7.787,5.803 12.628,6.211 z M 40.99,33.194 v 0 c 0.558,-1.04 1.856,-1.431 2.896,-0.873 v 0 c 1.039,0.559 1.43,1.856 0.872,2.896 v 0 c -2.382,4.428 -6.126,7.988 -10.67,10.139 v 0 c -1.067,0.51 -2.345,0.057 -2.851,-1.01 v 0 c -0.507,-1.067 -0.052,-2.347 1.015,-2.857 v 0 c 3.727,-1.763 6.78,-4.666 8.738,-8.295 z M 17.02,18.03 c 0,2.87 1.14,5.62 3.17,7.64 2.03,2.03 4.78,3.17 7.64,3.17 1.93,0 3.81,-0.51 5.47,-1.49 -0.74,1.86 -2.02,3.46 -3.68,4.59 C 27.96,33.07 26,33.67 24,33.67 v 0 0 c -2.65,0 -5.2,-1.06 -7.07,-2.93 C 15.05,28.86 14,26.32 14,23.67 c 0,-2.76 1.14,-5.4 3.15,-7.29 -0.09,0.55 -0.13,1.1 -0.13,1.65 z M 21,13.47 c -0.98,1.31 -0.98,2.91 -0.98,4.55 0,0.01 0,0.01 0,0.01 v 0 0 c 0,2.07 0.83,4.06 2.29,5.52 1.47,1.47 3.45,2.29 5.52,2.29 2.57,0 4.98,-1.28 6.42,-3.41 0.36,-0.54 1.04,-0.79 1.67,-0.6 0.63,0.19 1.06,0.76 1.07,1.41 l 0.01,0.4 c 0,0.01 0,0.02 0,0.03 0,3.44 -1.37,6.75 -3.81,9.19 -2.43,2.44 -5.74,3.81 -9.19,3.81 v 0 0 c -3.45,0 -6.76,-1.37 -9.19,-3.81 C 12.37,30.42 11,27.11 11,23.67 c 0,-3.71 1.58,-7.24 4.35,-9.71 2.76,-2.46 6.64,-1.8 5.65,-0.49 z"
     fill-rule="evenodd"
     id="path2"
     style="display:none;fill:url(#linearGradient3)" />
  <path
     fill-rule="evenodd"
     clip-rule="evenodd"
     d="m 113.51379,35.291371 c -2.57412,0 -5.04254,1.022542 -6.86298,2.842641 -0.0425,0.04248 -0.0838,0.08613 -0.12413,0.13088 L 73.411564,75.144693 c -0.803433,0.895119 -1.066751,2.151419 -0.689356,3.293666 0.377392,1.142246 1.337354,1.994879 2.515949,2.234732 1.045528,0.213021 2.290072,0.895121 3.341184,1.940081 1.064541,1.057826 1.619727,2.173233 1.73434,2.974426 0.181114,1.268592 1.069559,2.323066 2.288973,2.717232 1.218827,0.394167 2.556199,0.05986 3.446306,-0.862693 l 34.35121,-35.605274 c 1.80541,-1.818193 2.81963,-4.276561 2.81963,-6.840046 0,-2.573541 -1.02259,-5.042534 -2.84302,-6.862692 l -2.39239,2.392678 2.39239,-2.392786 c -1.82045,-1.820104 -4.28887,-2.842646 -6.86299,-2.842646 z m 2.11898,7.587012 v 0 c -0.56189,-0.561896 -1.32451,-0.877794 -2.11898,-0.877794 -0.77045,0 -1.51013,0.296311 -2.06645,0.826355 L 81.422461,76.265139 c 0.680987,0.483627 1.313886,1.02036 1.886399,1.588967 0.446741,0.443926 0.876127,0.927552 1.274201,1.444159 L 115.59085,47.158862 c 0.0135,-0.0144 0.0273,-0.02848 0.0418,-0.04305 0.56189,-0.5619 0.8778,-1.323956 0.8778,-2.118997 0,-0.794484 -0.31587,-1.556536 -0.8778,-2.118436 z M 68.691983,80.503132 c -6.589349,0 -11.825166,5.395326 -11.825166,11.960312 0,0.806772 -0.318236,1.345745 -0.773797,1.739352 -0.534263,0.46238 -1.175513,0.642413 -1.51864,0.642413 -1.267578,0 -2.426982,0.714533 -2.996705,1.846714 -0.569676,1.13274 -0.45243,2.489118 0.303086,3.507237 3.221204,4.33975 8.647056,7.09164 13.987723,7.09164 8.141962,0 14.648777,-6.68573 14.648777,-14.827356 0,-6.564986 -5.235971,-11.960312 -11.825278,-11.960312 z m -5.115938,11.960312 c 0,-2.959887 2.331229,-5.251087 5.115938,-5.251087 2.784625,0 5.116074,2.2912 5.116074,5.251087 0,4.535985 -3.601803,8.118146 -7.939573,8.118146 -1.760853,0 -3.599169,-0.52556 -5.224704,-1.445279 1.69855,-1.514609 2.932265,-3.740381 2.932265,-6.672867 z"
     id="path2-6"
     style="display:inline;isolation:isolate;fill:url(#linearGradient4);fill-opacity:1;stroke-width:0.559101" />
  <path
     d="m 68.285303,12.744828 v 0 C 65.154631,12.480838 62.821294,9.7181583 63.077294,6.5794883 v 0 c 0.258667,-3.13601 3.021339,-5.46935 6.165343,-5.20534 v 0 c 15.760027,1.312 30.469385,8.54668 41.144073,20.2506997 10.64802,11.70402 16.49869,27.016045 16.35469,42.845404 -0.14933,16.626694 -6.91201,32.536054 -18.76803,44.208078 C 96.090682,120.32368 80.058656,126.79302 63.431962,126.64369 46.805267,126.49436 30.895907,119.73168 19.223888,107.87566 7.5812085,95.992972 1.1091985,79.960945 1.2585285,63.33425 v 0 c 0.0293,-3.146671 2.608,-5.680009 5.75467,-5.650675 v 0 c 3.1493495,0.02667 5.6826895,2.605337 5.6533495,5.754675 v 0 c -0.12267,13.60269 5.17601,26.714711 14.70135,36.440061 9.552019,9.698679 22.565374,15.234689 36.168064,15.357359 13.602689,0.12267 26.714711,-5.17601 36.44006,-14.70136 C 109.67471,90.982297 115.21071,77.968941 115.33338,64.366252 115.45072,51.419564 110.68804,38.883543 101.96003,29.307527 93.234677,19.731508 81.194658,13.832828 68.285303,12.744828 Z M 18.757218,39.619545 v 0 c -1.48799,2.773337 -4.94933,3.816005 -7.72268,2.328003 v 0 C 8.2638785,40.456879 7.2212085,36.998206 8.7092085,34.224869 v 0 C 15.061218,22.416848 25.045238,12.923498 37.162584,7.1874883 v 0 c 2.845339,-1.36 6.253344,-0.152 7.60268,2.69334 v 0 c 1.352002,2.8453297 0.138667,6.2586797 -2.706671,7.6186797 v 0 C 32.11991,22.200848 23.978568,29.942194 18.757218,39.619545 Z"
     fill-rule="evenodd"
     id="path1"
     style="display:none;fill:url(#linearGradient2);stroke-width:2.66667"
     sodipodi:nodetypes="sssssscccscsssssscscccssssssssssssss" />
  <path
     d="m 124.25,7.75 h -56.5 v -4 C 67.75,1.677251 66.0728,0 64,0 61.9272,0 60.25,1.677251 60.25,3.75 v 4 H 3.75 C 1.677253,7.75 0,9.427251 0,11.5 v 15 c 0,2.0728 1.677253,3.75 3.75,3.75 H 7.5 v 71.5 c 0,2.073 1.677253,3.75 3.75,3.75 h 32.548493 l -4.999693,15 H 34 c -2.0728,0 -3.75,1.677 -3.75,3.75 0,2.073 1.6772,3.75 3.75,3.75 h 7.5 c 1.378693,0 2.9572,-1.003 3.494,-2.48 0.357493,-0.983 6.511693,-19.344 6.710493,-20.02 H 60.25 v 18.75 c 0,2.073 1.6772,3.75 3.75,3.75 2.0728,0 3.75,-1.677 3.75,-3.75 V 105.5 h 8.5488 c 0.685693,2.047 -2.482107,-7.4165 6.7072,20.02 0.534,1.469 2.11029,2.48 3.494,2.48 H 94 c 2.0728,0 3.75,-1.677 3.75,-3.75 0,-2.073 -1.6772,-3.75 -3.75,-3.75 h -4.7988 l -4.99971,-15 H 116.75 c 2.073,0 3.75,-1.677 3.75,-3.75 v -71.5 h 3.75 c 2.073,0 3.75,-1.6772 3.75,-3.75 v -15 c 0,-2.072749 -1.677,-3.75 -3.75,-3.75 z M 113,98 H 15 V 30.25 h 98 z m 7.5,-75.25 H 7.5 v -7.5 h 113 z"
     id="path2-62"
     style="display:none;fill:url(#linearGradient6);stroke-width:1"
     sodipodi:nodetypes="scssscsssscssccsssscccssscccssssccsscsssscccccccccc" />
  <path
     d="m 86.5,90.25 h 15 c 2.073,0 3.75,-1.6772 3.75,-3.75 v -45 c 0,-2.0728 -1.677,-3.75 -3.75,-3.75 h -15 c -2.0728,0 -3.75,1.6772 -3.75,3.75 v 45 c 0,2.0728 1.6772,3.75 3.75,3.75 z m 3.75,-45 h 7.5 v 37.5 h -7.5 z m 34,-37.5 h -56.5 v -4 C 67.75,1.677251 66.0728,0 64,0 61.9272,0 60.25,1.677251 60.25,3.75 v 4 H 3.75 C 1.677253,7.75 0,9.427251 0,11.5 v 15 c 0,2.0728 1.677253,3.75 3.75,3.75 H 7.5 v 71.5 c 0,2.073 1.677253,3.75 3.75,3.75 h 32.548493 l -4.999693,15 H 34 c -2.0728,0 -3.75,1.677 -3.75,3.75 0,2.073 1.6772,3.75 3.75,3.75 h 7.5 c 1.378693,0 2.9572,-1.003 3.494,-2.48 0.357493,-0.983 6.511693,-19.344 6.710493,-20.02 H 60.25 v 18.75 c 0,2.073 1.6772,3.75 3.75,3.75 2.0728,0 3.75,-1.677 3.75,-3.75 V 105.5 h 8.5488 c 0.685693,2.047 -2.482107,-7.4165 6.7072,20.02 0.534,1.469 2.11029,2.48 3.494,2.48 H 94 c 2.0728,0 3.75,-1.677 3.75,-3.75 0,-2.073 -1.6772,-3.75 -3.75,-3.75 h -4.7988 l -4.99971,-15 H 116.75 c 2.073,0 3.75,-1.677 3.75,-3.75 v -71.5 h 3.75 c 2.073,0 3.75,-1.6772 3.75,-3.75 v -15 c 0,-2.072749 -1.677,-3.75 -3.75,-3.75 z M 113,98 H 15 V 30.25 h 98 z m 7.5,-75.25 H 7.5 v -7.5 h 113 z m -64,67.5 h 15 c 2.0728,0 3.75,-1.6772 3.75,-3.75 v -30 c 0,-2.0728 -1.6772,-3.75 -3.75,-3.75 h -15 c -2.0728,0 -3.75,1.6772 -3.75,3.75 v 30 c 0,2.0728 1.6772,3.75 3.75,3.75 z m 3.75,-30 h 7.5 v 22.5 h -7.5 z m -33.75,30 h 15 c 2.0728,0 3.75,-1.6772 3.75,-3.75 v -15 c 0,-2.0728 -1.6772,-3.75 -3.75,-3.75 h -15 c -2.0728,0 -3.75,1.6772 -3.75,3.75 v 15 c 0,2.0728 1.6772,3.75 3.75,3.75 z m 3.75,-15 h 7.5 v 7.5 h -7.5 z"
     id="path3"
     style="display:none;fill:#000000;fill-opacity:1;stroke-width:1" />
  <path
     d="m 42.929818,85.736917 v 0 c 0.25866,2.389342 2.41067,4.120015 4.80268,3.861348 v 0 c 2.39201,-0.258668 4.12802,-2.424009 3.87201,-4.829351 v 0 c -0.04,-0.389335 -0.0187,-0.784003 0.096,-1.176005 0.224,-0.941336 0.47733,-1.872007 0.784,-2.781344 0.33867,-0.992004 0.61067,-1.976007 0.89333,-2.989344 0.30667,-1.157338 0.46401,-2.338676 0.51467,-3.56268 0.0427,-1.536006 -0.29066,-3.056011 -1.02667,-4.416016 -0.83467,-1.520006 -2.15467,-2.722677 -3.73068,-3.493346 -0.688,-0.320002 -1.40534,-0.648003 -2.12534,-0.88267 -1.36267,-0.506669 -2.75734,-0.93067 -4.14935,-1.354672 -1.40534,-0.397335 -2.77067,-0.813336 -4.13601,-1.320005 -1.01867,-0.346668 -1.99734,-0.802669 -2.90935,-1.357338 -0.55733,-0.333335 -1.02133,-0.75467 -1.392,-1.264005 -0.24534,-0.338668 -0.38134,-0.730669 -0.41334,-1.144004 -0.0453,-1.04267 0.15467,-2.085341 0.57334,-3.048011 0.32533,-0.872003 0.704,-1.72534 1.16267,-2.546676 1.86667,-1.850674 3.61068,-3.872014 5.14669,-6.002689 1.4,-1.930674 2.55734,-4.045348 3.42401,-6.29869 0.75733,-1.954673 1.16,-4.040014 1.20267,-6.162689 0.0213,-1.978674 -0.38934,-3.962681 -1.20267,-5.784022 -1.64267,-3.434679 -4.61069,-6.056019 -8.21337,-7.301359 -2.21867,-0.79467 -4.55201,-1.19467 -6.91735,-1.17334 -2.57868,0.005 -5.14136,0.38667 -7.5867,1.12534 -2.75201,0.808 -5.41335,1.96001 -7.86669,3.46935 -2.792011,1.664 -5.3626906,3.658679 -7.6560306,5.909351 v 0 c -1.70934,1.696006 -1.73068,4.466683 -0.048,6.189356 v 0 c 1.68,1.720006 4.4453496,1.744006 6.1680196,0.056 v 0 c 1.821341,-1.808007 3.861351,-3.376012 6.024021,-4.685351 1.84001,-1.11467 3.80268,-1.968007 5.85602,-2.570676 1.67468,-0.496002 3.41335,-0.752002 5.15469,-0.757336 1.37067,-0.01867 2.71734,0.202668 3.99735,0.680003 1.384,0.450668 2.51201,1.426672 3.17601,2.730676 0.264,0.624003 0.38933,1.290672 0.384,1.973341 -0.0267,1.074671 -0.23733,2.144008 -0.61334,3.154678 -0.60266,1.544006 -1.38933,2.989344 -2.35467,4.338683 -1.47734,2.056007 -3.17068,3.941348 -5.01335,5.64802 -0.93601,1.514673 -1.72801,3.144012 -2.35468,4.834685 -0.872,2.096008 -1.24267,4.349349 -1.16267,6.642691 0.12267,2.093341 0.82667,4.125348 2.02934,5.813355 1.09067,1.490672 2.45868,2.74401 4.03735,3.672013 1.40001,0.829336 2.87468,1.530672 4.44002,2.082674 1.536,0.538669 3.08534,1.050671 4.68001,1.520006 1.21334,0.325334 2.40535,0.706669 3.57868,1.141337 0.38134,0.141334 0.73601,0.274668 1.10667,0.442669 -0.024,0.488002 -0.088,0.992003 -0.232,1.466672 -0.21333,0.818669 -0.45066,1.632006 -0.728,2.458675 -0.37867,1.101338 -0.712,2.250675 -0.97867,3.392013 -0.37067,1.413339 -0.47467,2.864011 -0.29333,4.298683 z"
     id="path9"
     style="isolation:isolate;fill:url(#linearGradient8);stroke-width:2.66668" />
</svg>
