<?xml version="1.0" encoding="UTF-8" standalone="no"?>
<!-- Generator: Gravit.io -->

<svg
   style="isolation:isolate"
   viewBox="0 0 128 128"
   width="128pt"
   height="128pt"
   version="1.1"
   id="svg2"
   sodipodi:docname="libreoffice-math.svg"
   inkscape:version="1.3.2 (091e20ef0f, 2023-11-25, custom)"
   xmlns:inkscape="http://www.inkscape.org/namespaces/inkscape"
   xmlns:sodipodi="http://sodipodi.sourceforge.net/DTD/sodipodi-0.dtd"
   xmlns:xlink="http://www.w3.org/1999/xlink"
   xmlns="http://www.w3.org/2000/svg"
   xmlns:svg="http://www.w3.org/2000/svg">
  <defs
     id="defs2">
    <linearGradient
       inkscape:collect="always"
       xlink:href="#linearGradient1"
       id="linearGradient4"
       x1="24"
       y1="49.627758"
       x2="49.667763"
       y2="24"
       gradientUnits="userSpaceOnUse"
       gradientTransform="matrix(0.91667368,0,0,0.91667368,2.0238186,2.0511767)" />
    <linearGradient
       id="linearGradient1"
       inkscape:collect="always">
      <stop
         style="stop-color:#b900ff;stop-opacity:1;"
         offset="0"
         id="stop11" />
      <stop
         style="stop-color:#6444ff;stop-opacity:1;"
         offset="1"
         id="stop13" />
    </linearGradient>
    <linearGradient
       inkscape:collect="always"
       xlink:href="#linearGradient1"
       id="linearGradient5"
       x1="47.833466"
       y1="82.106705"
       x2="88.203964"
       y2="63.959522"
       gradientUnits="userSpaceOnUse" />
    <linearGradient
       inkscape:collect="always"
       xlink:href="#linearGradient1"
       id="linearGradient7"
       x1="47.833466"
       y1="82.106705"
       x2="88.203964"
       y2="63.959522"
       gradientUnits="userSpaceOnUse" />
    <linearGradient
       inkscape:collect="always"
       xlink:href="#linearGradient1"
       id="linearGradient9"
       x1="47.6548"
       y1="82.106705"
       x2="88.203964"
       y2="63.959522"
       gradientUnits="userSpaceOnUse" />
    <linearGradient
       inkscape:collect="always"
       xlink:href="#linearGradient1"
       id="linearGradient12"
       x1="47.6548"
       y1="82.106705"
       x2="88.203964"
       y2="63.959522"
       gradientUnits="userSpaceOnUse" />
    <linearGradient
       inkscape:collect="always"
       xlink:href="#_lgradient_38"
       id="linearGradient2"
       gradientUnits="userSpaceOnUse"
       gradientTransform="matrix(47.058,0,0,46.985,0.495,0.559)"
       x1="0.99999887"
       y1="0.49999669"
       x2="0.49999973"
       y2="0.99999231" />
    <linearGradient
       inkscape:collect="always"
       xlink:href="#_lgradient_38"
       id="linearGradient3"
       gradientUnits="userSpaceOnUse"
       gradientTransform="matrix(125.48821,0,0,125.29354,1.2559272,1.3536445)"
       x1="0.99999887"
       y1="0.49999669"
       x2="0.49999973"
       y2="0.99999231" />
  </defs>
  <sodipodi:namedview
     id="namedview2"
     pagecolor="#ffffff"
     bordercolor="#666666"
     borderopacity="1.0"
     inkscape:showpageshadow="2"
     inkscape:pageopacity="0.0"
     inkscape:pagecheckerboard="0"
     inkscape:deskcolor="#d1d1d1"
     inkscape:document-units="pt"
     inkscape:zoom="3.2382812"
     inkscape:cx="90.016888"
     inkscape:cy="86.002413"
     inkscape:current-layer="svg2" />
  <linearGradient
     id="_lgradient_38"
     x1="0.99999887"
     y1="0.49999669"
     x2="0.49999973"
     y2="0.99999231"
     gradientTransform="matrix(47.058,0,0,46.985,0.495,0.559)"
     gradientUnits="userSpaceOnUse">
    <stop
       offset="0"
       stop-opacity="1"
       style="stop-color:#6444ff;stop-opacity:1;"
       id="stop1" />
    <stop
       offset="1"
       stop-opacity="1"
       style="stop-color:#b900ff;stop-opacity:1;"
       id="stop2" />
  </linearGradient>
  <path
     d="m 22.417,43.272 v 0 c 1.174,0.099 2.049,1.135 1.953,2.312 v 0 c -0.097,1.176 -1.133,2.051 -2.312,1.952 v 0 C 16.148,47.044 10.632,44.331 6.629,39.942 2.636,35.553 0.442,29.811 0.496,23.875 0.552,17.64 3.088,11.674 7.534,7.297 11.99,2.93 18.002,0.504 24.237,0.56 c 6.235,0.056 12.201,2.592 16.578,7.038 4.366,4.456 6.793,10.468 6.737,16.703 v 0 c -0.011,1.18 -0.978,2.13 -2.158,2.119 v 0 c -1.181,-0.01 -2.131,-0.977 -2.12,-2.158 v 0 C 43.32,19.161 41.333,14.244 37.761,10.597 34.179,6.96 29.299,4.884 24.198,4.838 19.097,4.792 14.18,6.779 10.533,10.351 6.896,13.933 4.82,18.813 4.774,23.914 4.73,28.769 6.516,33.47 9.789,37.061 c 3.272,3.591 7.787,5.803 12.628,6.211 z M 40.99,33.194 v 0 c 0.558,-1.04 1.856,-1.431 2.896,-0.873 v 0 c 1.039,0.559 1.43,1.856 0.872,2.896 v 0 c -2.382,4.428 -6.126,7.988 -10.67,10.139 v 0 c -1.067,0.51 -2.345,0.057 -2.851,-1.01 v 0 c -0.507,-1.067 -0.052,-2.347 1.015,-2.857 v 0 c 3.727,-1.763 6.78,-4.666 8.738,-8.295 z M 17.02,18.03 c 0,2.87 1.14,5.62 3.17,7.64 2.03,2.03 4.78,3.17 7.64,3.17 1.93,0 3.81,-0.51 5.47,-1.49 -0.74,1.86 -2.02,3.46 -3.68,4.59 C 27.96,33.07 26,33.67 24,33.67 v 0 0 c -2.65,0 -5.2,-1.06 -7.07,-2.93 C 15.05,28.86 14,26.32 14,23.67 c 0,-2.76 1.14,-5.4 3.15,-7.29 -0.09,0.55 -0.13,1.1 -0.13,1.65 z M 21,13.47 c -0.98,1.31 -0.98,2.91 -0.98,4.55 0,0.01 0,0.01 0,0.01 v 0 0 c 0,2.07 0.83,4.06 2.29,5.52 1.47,1.47 3.45,2.29 5.52,2.29 2.57,0 4.98,-1.28 6.42,-3.41 0.36,-0.54 1.04,-0.79 1.67,-0.6 0.63,0.19 1.06,0.76 1.07,1.41 l 0.01,0.4 c 0,0.01 0,0.02 0,0.03 0,3.44 -1.37,6.75 -3.81,9.19 -2.43,2.44 -5.74,3.81 -9.19,3.81 v 0 0 c -3.45,0 -6.76,-1.37 -9.19,-3.81 C 12.37,30.42 11,27.11 11,23.67 c 0,-3.71 1.58,-7.24 4.35,-9.71 2.76,-2.46 6.64,-1.8 5.65,-0.49 z"
     fill-rule="evenodd"
     id="path2"
     style="display:none;fill:url(#linearGradient2)" />
  <path
     fill-rule="evenodd"
     clip-rule="evenodd"
     d="m 32.058325,13.051345 c -0.786539,0 -1.540788,0.312446 -2.097035,0.868591 -0.01299,0.01298 -0.02564,0.02632 -0.03795,0.03999 L 19.804775,25.228844 c -0.245495,0.273511 -0.325954,0.657383 -0.210638,1.006405 0.115315,0.349022 0.408639,0.609552 0.768768,0.682841 0.31947,0.06509 0.69975,0.273511 1.020925,0.592806 0.325279,0.323227 0.494921,0.664048 0.529943,0.908859 0.05534,0.38763 0.326812,0.709832 0.699413,0.830272 0.372421,0.120442 0.781067,0.01829 1.053045,-0.263603 l 10.49628,-10.879473 c 0.551659,-0.555563 0.861559,-1.306737 0.861559,-2.09003 0,-0.786366 -0.312457,-1.540786 -0.868703,-2.09695 l -0.731017,0.731102 0.731017,-0.731135 c -0.556255,-0.556147 -1.310501,-0.868593 -2.097042,-0.868593 z m 0.647471,2.318272 v 0 C 32.534106,15.197925 32.301083,15.1014 32.058325,15.1014 c -0.235416,0 -0.461432,0.09054 -0.631418,0.252499 l -9.174339,10.217306 c 0.208081,0.147775 0.401469,0.311779 0.576405,0.48552 0.136504,0.135646 0.267708,0.283421 0.389341,0.441275 l 9.474675,-9.820449 c 0.0041,-0.0044 0.0083,-0.0087 0.01279,-0.01315 0.171691,-0.171693 0.268216,-0.404545 0.268216,-0.647476 0,-0.242761 -0.09652,-0.475612 -0.268216,-0.647305 z M 18.36267,26.866156 c -2.013428,0 -3.613273,1.648586 -3.613273,3.654568 0,0.246517 -0.09724,0.411205 -0.23644,0.531474 -0.163248,0.141284 -0.359187,0.196293 -0.464032,0.196293 -0.387319,0 -0.741584,0.218333 -0.915667,0.564279 -0.17407,0.346117 -0.138244,0.760571 0.09261,1.071667 0.984264,1.326044 2.642176,2.166908 4.274059,2.166908 2.487841,0 4.476051,-2.042879 4.476051,-4.530621 0,-2.005982 -1.599893,-3.654568 -3.613308,-3.654568 z m -1.563215,3.654568 c 0,-0.904416 0.712325,-1.604511 1.563215,-1.604511 0.850864,0 1.563257,0.700095 1.563257,1.604511 0,1.386007 -1.100559,2.480564 -2.426,2.480564 -0.538042,0 -1.099754,-0.160586 -1.596449,-0.441614 0.519005,-0.462802 0.895977,-1.142906 0.895977,-2.03895 z"
     id="path2-6"
     style="display:none;isolation:isolate;fill:url(#linearGradient4);fill-opacity:1;stroke-width:0.170837" />
  <path
     d="m 68.285304,115.25517 v 0 c -3.130672,0.264 -5.464009,3.02667 -5.208009,6.16534 v 0 c 0.258667,3.13601 3.021339,5.46934 6.165344,5.20534 v 0 c 15.760026,-1.312 30.469384,-8.54668 41.144071,-20.2507 C 121.03473,94.671134 126.8854,79.359108 126.7414,63.529749 126.59207,46.903054 119.82939,30.993694 107.97337,19.321675 96.090684,7.6763218 80.058657,1.2069776 63.431963,1.3563112 46.805268,1.5056448 30.895908,8.2683228 19.223887,20.124343 7.5812072,32.007029 1.1091972,48.039056 1.2585272,64.66575 v 0 c 0.0293,3.146672 2.60801,5.68001 5.75468,5.650676 v 0 c 3.1493398,-0.02667 5.6826698,-2.605337 5.6533398,-5.754676 v 0 c -0.12267,-13.602689 5.17601,-26.714711 14.70136,-36.44006 9.552011,-9.698683 22.565366,-15.234692 36.168056,-15.357359 13.602689,-0.122667 26.714711,5.176008 36.44006,14.701357 9.698687,9.552016 15.234697,22.565371 15.357357,36.168061 0.11734,12.946688 -4.64534,25.482709 -13.37335,35.058725 -8.725351,9.576016 -20.765371,15.474696 -33.674726,16.562696 z M 18.757227,88.380457 v 0 c -1.488,-2.773338 -4.94934,-3.816007 -7.72268,-2.328004 v 0 c -2.7706698,1.490669 -3.8133398,4.949341 -2.3253398,7.722679 v 0 C 15.061217,105.58315 25.045237,115.0765 37.162585,120.81251 v 0 c 2.845339,1.36 6.253344,0.152 7.60268,-2.69334 v 0 c 1.352002,-2.84534 0.138667,-6.25868 -2.706671,-7.61868 v 0 C 32.11991,105.79915 23.978567,98.057806 18.757227,88.380457 Z"
     fill-rule="evenodd"
     id="path1"
     style="display:none;fill:url(#linearGradient3);stroke-width:2.66667"
     sodipodi:nodetypes="sssssscccscsssssscscccssssssssssssss" />
  <g
     id="g11"
     transform="matrix(2.5925955,0,0,2.5925955,-101.93321,-101.82117)"
     style="stroke-width:0;stroke-dasharray:none">
    <path
       id="path3"
       style="fill:url(#linearGradient9);fill-opacity:1;stroke:url(#linearGradient12);stroke-width:0.792345;stroke-dasharray:none;stroke-opacity:1"
       d="m 68.291016,46.216797 c -2.171473,0.04625 -4.355575,-0.05402 -6.519532,0.08008 -1.351395,0.3427 -1.700403,1.81165 -2.126377,2.941097 -3.07035,7.996703 -6.135727,15.974314 -9.14706,23.996403 -1.457926,-1.740002 -3.214733,-4.767988 -3.214733,-4.767988 0,0 -2.400308,-4.11938 -3.895796,-5.214885 -1.502025,-0.922352 -4.085567,1.532551 -2.880726,3.240009 2.703823,4.889199 5.500845,9.71793 8.372114,14.494817 1.046091,1.216279 3.483018,0.866649 3.853593,-0.805776 3.840619,-9.734581 7.490372,-19.553819 11.277267,-29.327036 7.396508,-0.06459 14.799601,0.165949 22.191406,-0.111328 1.654122,-0.350678 2.12793,-2.917673 0.957277,-3.852056 -1.039566,-0.829753 -2.049807,-0.662908 -3.308545,-0.673711 -5.232766,0.0076 -10.367583,-0.02076 -15.558888,3.78e-4 z"
       sodipodi:nodetypes="sccccccccccscss" />
    <path
       id="path4"
       style="fill:url(#linearGradient5);fill-opacity:1;stroke:url(#linearGradient7);stroke-width:0.52823;stroke-dasharray:none;stroke-opacity:1"
       d="m 67.408203,58.710938 c -1.363767,0.134057 -2.749842,1.699041 -2.062813,3.051714 1.990713,3.006312 4.834287,5.302009 7.075789,8.107172 0.699419,0.47364 -0.35108,0.938586 -0.598913,1.40752 -2.125922,2.489552 -4.618158,4.681324 -6.486328,7.380859 -0.776513,1.76786 1.630728,3.896186 3.25383,2.812561 2.623866,-2.187815 4.59699,-5.018305 7.023573,-7.407321 0.426545,-0.755177 0.857922,0.418749 1.286997,0.67379 2.144945,2.139055 3.914949,4.641809 6.236381,6.604564 0.165922,0.228589 0.824966,0.506471 1.273552,0.418355 1.551186,-0.09724 3.001021,-2.093547 1.905091,-3.460945 -2.164741,-2.871911 -4.859677,-5.283314 -7.1513,-8.049207 2.14164,-2.763865 4.856525,-5.026244 6.929688,-7.84375 0.528245,-0.587002 0.83403,-1.417045 0.433594,-2.164062 -0.54965,-1.327676 -2.532929,-2.153847 -3.607422,-0.945313 -2.48012,2.317152 -4.55582,5.021124 -6.982422,7.392578 -2.465352,-2.409964 -4.552288,-5.181985 -7.100975,-7.506881 -0.361793,-0.381501 -0.916205,-0.526818 -1.428322,-0.471634 z" />
  </g>
</svg>
