<?xml version="1.0" encoding="UTF-8" standalone="no"?>
<svg
   width="128"
   height="128"
   viewBox="0 0 128 128"
   fill="none"
   version="1.1"
   id="svg5"
   sodipodi:docname="line.svg"
   inkscape:version="1.4 (e7c3feb100, 2024-10-09)"
   xmlns:inkscape="http://www.inkscape.org/namespaces/inkscape"
   xmlns:sodipodi="http://sodipodi.sourceforge.net/DTD/sodipodi-0.dtd"
   xmlns="http://www.w3.org/2000/svg"
   xmlns:svg="http://www.w3.org/2000/svg">
  <sodipodi:namedview
     id="namedview5"
     pagecolor="#ffffff"
     bordercolor="#666666"
     borderopacity="1.0"
     inkscape:showpageshadow="2"
     inkscape:pageopacity="0.0"
     inkscape:pagecheckerboard="0"
     inkscape:deskcolor="#d1d1d1"
     inkscape:zoom="4.5796213"
     inkscape:cx="68.455442"
     inkscape:cy="91.710641"
     inkscape:current-layer="svg5" />
  <path
     fill-rule="evenodd"
     clip-rule="evenodd"
     d="m 64,106.85938 c 27.615,0 50,-18.939399 50,-45.239099 0,-26.2973 -22.385,-45.2345 -50,-45.2369 -27.615,0 -50,18.9396 -50,45.2369 0,14.4012 6.712,26.5954 17.3193,34.6816 0.6349,0.484 -0.8061,9.958499 -4.9178,13.090499 -1.0125,0.771 -0.36,2.354 0.905,2.221 4.8366,-0.507 11.9388,-2.321 16.863,-8.26 6.0798,2.273 12.7849,3.506 19.8305,3.506 z"
     stroke="url(#paint0_linear_719_33)"
     stroke-width="10"
     id="path1"
     style="stroke:url(#paint0_linear_719_33)" />
  <path
     fill-rule="evenodd"
     clip-rule="evenodd"
     d="m 37.78245,58.6429 h 52.4351 c 1.5466,0 4.586,2.3984 4.586,5.3571 0,2.9587 -3.0394,5.3571 -4.586,5.3571 h -52.4351 c -1.5465,0 -4.586,-2.3984 -4.586,-5.3571 0,-2.9587 3.0395,-5.3571 4.586,-5.3571 z"
     fill="url(#paint1_linear_719_33)"
     id="path2"
     style="fill:url(#paint1_linear_719_33)"
     sodipodi:nodetypes="sssssss" />
  <defs
     id="defs5">
    <linearGradient
       id="paint0_linear_719_33"
       x1="119"
       y1="63.616619"
       x2="9"
       y2="116.23324"
       gradientUnits="userSpaceOnUse"
       gradientTransform="translate(0,0.38338068)">
      <stop
         id="stop2"
         offset="0"
         style="stop-color:#006cff;stop-opacity:1;" />
      <stop
         offset="1"
         id="stop3"
         style="stop-color:#00f1fa;stop-opacity:1;" />
    </linearGradient>
    <linearGradient
       id="paint1_linear_719_33"
       x1="9"
       y1="116.23324"
       x2="119"
       y2="63.616619"
       gradientUnits="userSpaceOnUse"
       gradientTransform="translate(0.44645,13.1785)">
      <stop
         id="stop4"
         offset="0"
         style="stop-color:#00f1fa;stop-opacity:1;" />
      <stop
         offset="1"
         id="stop5"
         style="stop-color:#006cff;stop-opacity:1;" />
    </linearGradient>
  </defs>
</svg>
