<?xml version="1.0" encoding="UTF-8" standalone="no"?>
<svg
   width="48"
   height="48"
   viewBox="0 0 48 48"
   fill="none"
   version="1.1"
   id="svg2"
   sodipodi:docname="multimedia-photo-viewer.svg"
   inkscape:version="1.3.2 (091e20ef0f, 2023-11-25, custom)"
   xmlns:inkscape="http://www.inkscape.org/namespaces/inkscape"
   xmlns:sodipodi="http://sodipodi.sourceforge.net/DTD/sodipodi-0.dtd"
   xmlns="http://www.w3.org/2000/svg"
   xmlns:svg="http://www.w3.org/2000/svg">
  <sodipodi:namedview
     id="namedview2"
     pagecolor="#ffffff"
     bordercolor="#666666"
     borderopacity="1.0"
     inkscape:showpageshadow="2"
     inkscape:pageopacity="0.0"
     inkscape:pagecheckerboard="0"
     inkscape:deskcolor="#d1d1d1"
     inkscape:zoom="12.212323"
     inkscape:cx="12.855867"
     inkscape:cy="27.062828"
     inkscape:current-layer="svg2" />
  <path
     fill-rule="evenodd"
     clip-rule="evenodd"
     d="M29.375 14.862C29.375 12.786 31.061 11.1 33.138 11.1C35.214 11.1 36.9 12.786 36.9 14.862C36.9 16.939 35.214 18.625 33.138 18.625C31.061 18.625 29.375 16.939 29.375 14.862ZM6.8 28.193L16.527 20.079C18.349 18.558 21.191 18.688 22.868 20.367L27.135 24.64C27.974 25.479 29.491 25.683 30.521 25.094L40.267 19.524C40.782 19.23 41.2 18.509 41.2 17.916V11.638C41.2 9.858 39.755 8.412 37.975 8.412H10.025C8.245 8.412 6.8 9.858 6.8 11.638V28.193ZM41.2 28.838C41.2 27.651 42.163 26.688 43.35 26.688C44.537 26.688 45.5 27.651 45.5 28.838V38.513C45.5 41.479 43.092 43.888 40.125 43.888H7.875C4.908 43.888 2.5 41.479 2.5 38.513V9.487C2.5 6.521 4.908 4.112 7.875 4.112H40.125C43.092 4.112 45.5 6.521 45.5 9.487V19.334C45.5 20.521 44.664 21.962 43.633 22.551L31.679 29.381C29.618 30.558 26.582 30.153 24.903 28.476L21.092 24.67C20.253 23.832 18.831 23.767 17.919 24.527L8.176 32.643L6.8 33.782V36.363C6.8 38.142 8.245 39.588 10.025 39.588H37.975C39.755 39.588 41.2 38.142 41.2 36.363V28.838Z"
     id="path1"
     style="fill:url(#paint0_linear)" />
  <defs
     id="defs2">
    <linearGradient
       id="paint0_linear"
       x1="7.875"
       y1="43.888"
       x2="45.5"
       y2="24"
       gradientUnits="userSpaceOnUse">
      <stop
         id="stop1"
         offset="0"
         style="stop-color:#00f1fa;stop-opacity:1;" />
      <stop
         offset="1"
         id="stop2"
         style="stop-color:#006cff;stop-opacity:1;" />
    </linearGradient>
  </defs>
</svg>
