<?xml version="1.0" encoding="UTF-8" standalone="no"?>
<!-- Generator: Gravit.io -->

<svg
   style="isolation:isolate"
   viewBox="0 0 48 48"
   width="48pt"
   height="48pt"
   version="1.1"
   id="svg5"
   sodipodi:docname="karp.svg"
   inkscape:version="1.4 (e7c3feb100, 2024-10-09)"
   xmlns:inkscape="http://www.inkscape.org/namespaces/inkscape"
   xmlns:sodipodi="http://sodipodi.sourceforge.net/DTD/sodipodi-0.dtd"
   xmlns="http://www.w3.org/2000/svg"
   xmlns:svg="http://www.w3.org/2000/svg">
  <defs
     id="defs5" />
  <sodipodi:namedview
     id="namedview5"
     pagecolor="#505050"
     bordercolor="#ffffff"
     borderopacity="1"
     inkscape:showpageshadow="0"
     inkscape:pageopacity="0"
     inkscape:pagecheckerboard="1"
     inkscape:deskcolor="#505050"
     inkscape:document-units="pt"
     inkscape:zoom="11.402097"
     inkscape:cx="29.424412"
     inkscape:cy="25.433918"
     inkscape:current-layer="svg5" />
  <linearGradient
     id="_lgradient_2"
     x1="-5.3961808e-06"
     y1="-2.1809661e-05"
     x2="0.51102519"
     y2="1.0000218"
     gradientTransform="matrix(0,-45.001,27.74,0,10.13,46.996812)"
     gradientUnits="userSpaceOnUse">
    <stop
       offset="0"
       stop-opacity="1"
       style="stop-color:#b900ff;stop-opacity:1;"
       id="stop1" />
    <stop
       offset="1"
       stop-opacity="1"
       style="stop-color:#6444ff;stop-opacity:1;"
       id="stop3" />
  </linearGradient>
  <path
     id="path3"
     style="fill:url(#_lgradient_2)"
     d="M 29.11377 1.003418 C 28.470713 0.99586914 27.836563 1.2957813 27.445313 1.8632813 C 26.819313 2.7712813 27.045684 4.0151602 27.950684 4.6391602 L 32.840332 7.7988281 C 32.850332 7.7988281 32.859629 7.8093359 32.869629 7.8193359 C 33.139629 7.9993359 33.370527 8.2292773 33.540527 8.5092773 C 33.620527 8.6492773 33.669434 8.8094922 33.669434 8.9794922 C 33.669434 9.1394922 33.620527 9.2994531 33.540527 9.4394531 C 33.360527 9.7194531 33.129375 9.9493941 32.859375 10.129395 C 32.849375 10.139395 32.840078 10.148438 32.830078 10.148438 L 13.110352 27.528809 C 12.260352 28.098809 11.55957 28.859258 11.05957 29.739258 C 10.56957 30.609258 10.319824 31.588379 10.319824 32.588379 C 10.349824 34.238379 11.039727 35.819473 12.219727 36.959473 L 16.680176 41.408203 C 17.458176 42.191203 18.723395 42.195062 19.504395 41.414063 C 20.285395 40.633063 20.284 39.366379 19.5 38.588379 L 15.039551 34.119141 L 15.010254 34.088379 C 14.590254 33.688379 14.340312 33.128828 14.320313 32.548828 C 14.330313 32.248828 14.400293 31.959219 14.550293 31.699219 C 14.740293 31.359219 15.00959 31.068398 15.32959 30.858398 C 15.33959 30.858398 15.340098 30.848145 15.350098 30.848145 L 35.05957 13.469238 C 35.81957 12.969238 36.470684 12.30832 36.950684 11.52832 C 37.420684 10.75832 37.669922 9.8794922 37.669922 8.9794922 C 37.669922 8.0794922 37.419473 7.2094531 36.959473 6.4394531 C 36.489473 5.6694531 35.860586 5.0085352 35.100586 4.4985352 L 30.22998 1.359375 C 29.888355 1.1235 29.499604 1.0079473 29.11377 1.003418 z M 16.054688 2.0053711 C 15.544188 1.9582461 15.014844 2.1059727 14.589844 2.4594727 L 12.439453 4.2583008 C 11.719453 4.8383008 11.13998 5.5684375 10.72998 6.3984375 C 10.33998 7.1984375 10.129395 8.0792383 10.129395 8.9692383 C 10.129395 9.8692383 10.340234 10.759336 10.740234 11.569336 C 11.160234 12.399336 11.750469 13.128262 12.480469 13.718262 L 18.600586 18.549316 C 19.455586 19.244316 20.716551 19.115672 21.414551 18.263672 C 22.112551 17.410672 21.990625 16.149242 21.140625 15.448242 L 15.010254 10.618652 C 15.000254 10.608652 14.999746 10.608398 14.989746 10.608398 C 14.709746 10.378398 14.480313 10.099297 14.320313 9.7792969 C 14.200313 9.5292969 14.129883 9.2492383 14.129883 8.9692383 C 14.129883 8.6992383 14.200313 8.4194336 14.320313 8.1694336 C 14.480312 7.8494336 14.699492 7.5691211 14.979492 7.3491211 C 14.979492 7.3391211 14.989746 7.3388672 14.989746 7.3388672 L 17.150391 5.5385742 C 18.000391 4.8315742 18.115668 3.56875 17.409668 2.71875 C 17.056668 2.29375 16.565188 2.0524961 16.054688 2.0053711 z M 27.93457 22.004883 C 27.42407 22.044758 26.927836 22.279719 26.569336 22.699219 C 25.852336 23.538219 25.951527 24.801043 26.790527 25.519043 L 32.989746 30.259277 L 33.020508 30.288574 C 33.540508 30.718574 33.850117 31.348555 33.870117 32.018555 C 33.850117 32.678555 33.539297 33.308281 33.029297 33.738281 C 33.019297 33.748281 33.01 33.758789 33 33.758789 L 21.779297 43.488281 C 20.946297 44.211281 20.857078 45.474105 21.580078 46.308105 C 22.303078 47.141105 23.566902 47.231789 24.399902 46.508789 L 35.610352 36.79834 C 37.020352 35.60834 37.850605 33.858555 37.870605 32.018555 C 37.850605 30.158555 37.00959 28.398262 35.57959 27.218262 L 29.390625 22.479492 C 28.971125 22.120492 28.44507 21.965008 27.93457 22.004883 z " />
  <linearGradient
     id="_lgradient_3"
     x1="0"
     y1="0.5"
     x2="0.9074880558539661"
     y2="0.9200778838291643"
     gradientTransform="matrix(0,-42.61,27.35,0,10.32,42.828812)"
     gradientUnits="userSpaceOnUse">
    <stop
       offset="0%"
       stop-opacity="1"
       style="stop-color:rgb(78,84,200)"
       id="stop4" />
    <stop
       offset="83.88839793817618%"
       stop-opacity="1"
       style="stop-color:rgb(0,114,255)"
       id="stop5" />
  </linearGradient>
</svg>
