<?xml version="1.0" encoding="UTF-8" standalone="no"?>
<svg
   width="64"
   height="64"
   viewBox="0 0 64 64"
   fill="none"
   version="1.1"
   id="svg3"
   sodipodi:docname="preferences-kde-connect.svg"
   inkscape:version="1.4 (e7c3feb100, 2024-10-09)"
   xmlns:inkscape="http://www.inkscape.org/namespaces/inkscape"
   xmlns:sodipodi="http://sodipodi.sourceforge.net/DTD/sodipodi-0.dtd"
   xmlns:xlink="http://www.w3.org/1999/xlink"
   xmlns="http://www.w3.org/2000/svg"
   xmlns:svg="http://www.w3.org/2000/svg">
  <defs
     id="defs3">
    <linearGradient
       id="linearGradient3"
       inkscape:collect="always">
      <stop
         style="stop-color:#ff69ff;stop-opacity:1;"
         offset="0"
         id="stop3" />
      <stop
         style="stop-color:#9033dd;stop-opacity:1;"
         offset="1"
         id="stop4" />
    </linearGradient>
    <linearGradient
       inkscape:collect="always"
       xlink:href="#linearGradient3"
       id="linearGradient4"
       x1="10"
       y1="63.999977"
       x2="53.999995"
       y2="31.999989"
       gradientUnits="userSpaceOnUse" />
    <linearGradient
       inkscape:collect="always"
       xlink:href="#linearGradient3"
       id="linearGradient7"
       x1="10"
       y1="63.999977"
       x2="53.999996"
       y2="31.999989"
       gradientUnits="userSpaceOnUse" />
    <linearGradient
       inkscape:collect="always"
       xlink:href="#linearGradient3"
       id="linearGradient9"
       x1="10"
       y1="63.999977"
       x2="53.999996"
       y2="31.999989"
       gradientUnits="userSpaceOnUse" />
  </defs>
  <sodipodi:namedview
     id="namedview3"
     pagecolor="#ffffff"
     bordercolor="#666666"
     borderopacity="1.0"
     inkscape:showpageshadow="2"
     inkscape:pageopacity="0.0"
     inkscape:pagecheckerboard="0"
     inkscape:deskcolor="#d1d1d1"
     inkscape:zoom="9.1592425"
     inkscape:cx="33.736414"
     inkscape:cy="47.274652"
     inkscape:current-layer="svg3" />
  <path
     d="m 13.7556,2.096694 c 0.5127,-0.070593 1.0335,-0.1038141 1.5544,-0.095509 11.4015,0.024915 22.807,-0.0083 34.2085,0.016611 2.5065,0.012458 4.6428,2.4416895 4.4719,4.9830495 -0.0122,18.00129 0,32.002455 -0.0041,50.003755 0.0814,1.8313 -0.9481,3.6335 -2.5472,4.4557 -1.2126,0.6769 -2.6367,0.5149 -3.9633,0.5357 -2.4536,-0.0499 -4.9113,0.0664 -7.3609,-0.0499 -1.3712,-0.0706 -2.3641,-1.6361 -1.9531,-2.9524 0.2279,-0.9177 1.0579,-1.6652 1.9938,-1.715 2.417,-0.1204 4.8422,0.0249 7.2633,-0.0582 1.1637,0.0167 2.0549,-1.1585 1.9328,-2.3005 0.004,-16.6184 0.0041,-29.232765 -0.0041,-45.851185 0.1424,-1.29144 -0.9969,-2.46661 -2.2664,-2.30882 h -30.168 c -1.2696,-0.1661 -2.413,1.00907 -2.2705,2.30051 -0.0082,16.63093 -0.0082,29.257695 -0.0041,45.884495 -0.118,1.1419 0.7853,2.3005 1.945,2.2797 2.9582,0.0664 5.9205,-0.0415 8.8787,0.0415 1.6195,-0.0457 2.7832,1.9434 2.0101,3.3885 -0.4069,0.9385 -1.4323,1.3953 -2.4008,1.333 -3.536,-0.0083 -7.076,0.0373 -10.6121,-0.0249 C 11.9611,61.9254 9.86558,59.5211 10.0121,56.9922 10.008,39.0033 10.008,25.010435 10.008,7.017455 9.86965,4.729405 11.542,2.511948 13.7556,2.096694 Z"
     id="path1"
     style="fill:url(#linearGradient4)"
     sodipodi:nodetypes="ccccccccccccccccccccccccc" />
  <path
     d="M29.5395 20.7182C29.5232 19.4185 30.7602 18.3098 32.0175 18.4509C33.1731 18.5091 34.1782 19.5804 34.1334 20.7722C34.1782 22.5038 34.1334 24.2396 34.1497 25.9712C35.9564 23.7662 37.7467 21.5446 39.5778 19.3603C40.4893 18.0938 42.5889 18.2226 43.3539 19.5846C43.9073 20.4898 43.7608 21.7231 43.0569 22.4997C41.5595 24.3725 39.9929 26.1871 38.5158 28.0765C40.0905 29.9992 41.6978 31.8927 43.2278 33.8527C44.2979 35.1608 43.4109 37.453 41.7263 37.5983C40.7863 37.7852 39.9196 37.2578 39.3703 36.5187C37.6369 34.3801 35.8709 32.2706 34.1497 30.1237C34.1212 32.0007 34.2148 33.8818 34.0968 35.7546C33.8445 37.3533 31.7815 38.2046 30.5201 37.2038C29.6168 36.6349 29.4662 35.4764 29.5069 34.4881C29.5435 29.8995 29.4744 25.3068 29.5395 20.7182Z"
     id="path2"
     style="fill:url(#linearGradient7)" />
  <path
     d="M19.5173 31.1454C18.8948 29.501 20.5468 27.6116 22.2151 28.114C23.5457 28.5708 24.8234 29.1688 26.1255 29.7003C27.1753 30.1155 27.8101 31.3198 27.4967 32.4451C27.1183 33.8736 26.9271 35.4599 27.7043 36.7928C28.5832 38.9438 31.0246 40.1315 33.23 39.7868C34.2025 39.6207 35.0326 38.8483 36.0662 39.0061C37.4171 38.9895 37.9705 40.4138 38.6052 41.3814C39.1546 42.378 40.0335 43.2459 40.2125 44.4086C40.42 45.9575 38.8168 47.3901 37.3438 46.9209C36.0906 46.6136 35.6023 45.2557 34.8983 44.3048C33.9136 44.4833 32.9167 44.6121 31.9157 44.6453C31.6472 45.6917 31.5983 46.979 30.638 47.6476C29.5638 48.4781 27.8141 48.0794 27.2445 46.8129C26.6585 45.6834 27.2689 44.4293 27.4683 43.2791C26.569 42.6894 25.743 41.9877 24.9902 41.2111C24.0258 41.7468 23.0208 42.5981 21.8448 42.2908C20.4858 42.0292 19.676 40.3474 20.2538 39.0809C20.6974 37.9971 21.8937 37.6026 22.7888 37.0005C22.5569 35.7879 22.4755 34.5546 22.5122 33.3213C21.4054 32.823 19.8917 32.5074 19.5173 31.1454Z"
     id="path3"
     style="fill:url(#linearGradient9)" />
</svg>
