<?xml version="1.0" encoding="UTF-8" standalone="no"?>
<svg
   width="128"
   height="128"
   viewBox="0 0 128 128"
   fill="none"
   version="1.1"
   id="svg3"
   sodipodi:docname="software-store.svg"
   inkscape:version="1.4 (e7c3feb100, 2024-10-09)"
   xmlns:inkscape="http://www.inkscape.org/namespaces/inkscape"
   xmlns:sodipodi="http://sodipodi.sourceforge.net/DTD/sodipodi-0.dtd"
   xmlns="http://www.w3.org/2000/svg"
   xmlns:svg="http://www.w3.org/2000/svg">
  <sodipodi:namedview
     id="namedview3"
     pagecolor="#505050"
     bordercolor="#ffffff"
     borderopacity="1"
     inkscape:showpageshadow="0"
     inkscape:pageopacity="0"
     inkscape:pagecheckerboard="1"
     inkscape:deskcolor="#505050"
     inkscape:zoom="4.03125"
     inkscape:cx="75.906977"
     inkscape:cy="68.465117"
     inkscape:current-layer="svg3" />
  <path
     d="m 118.01191,39.156232 h -15.02877 c -1.64331,0 -2.9752,-1.332 -2.9752,-2.975207 V 21.578116 c 0,-0.911703 -0.459971,-1.815273 -1.318715,-2.486083 L 80.685258,5.0296099 C 79.84149,4.3703141 78.696828,4 77.502878,4 H 50.497126 c -1.193554,0 -2.338413,0.3703141 -3.18238,1.0296099 L 29.310779,19.092033 c -0.823042,0.642942 -1.318314,1.535901 -1.318314,2.486083 v 14.602909 c 0,1.643207 -1.3321,2.975207 -2.975207,2.975207 H 9.9885273 c -2.4857058,0 -4.5009223,1.574082 -4.5009223,3.515603 V 120.4843 c 0,1.94182 2.0152165,3.5157 4.5009223,3.5157 H 118.01191 c 2.4843,0 4.50048,-1.57388 4.50048,-3.5157 V 42.671835 c 0,-1.941521 -2.01618,-3.515603 -4.50048,-3.515603 z M 51.554217,11.661752 c 0.523041,-0.408595 1.167669,-0.630545 1.831438,-0.630545 H 74.61425 c 0.663768,0 1.308397,0.22195 1.831438,0.630545 l 1.383768,1.080793 c 2.230116,1.741885 0.998381,5.319967 -1.831438,5.319967 H 52.001886 c -2.829818,0 -4.061554,-3.577983 -1.831438,-5.319967 z m 36.47633,13.431967 c 1.643108,0 2.975207,1.332099 2.975207,2.975207 v 22.174611 c 0,1.643207 -1.332099,2.975207 -2.975207,2.975207 h -3.05157 c -1.643107,0 -2.975206,-1.332 -2.975206,-2.975207 V 28.068926 c 0,-1.643108 1.332099,-2.975207 2.975206,-2.975207 z m -18.003768,0 c 1.643107,0 2.975206,1.332099 2.975206,2.975207 v 8.112099 c 0,1.643207 -1.332099,2.975207 -2.975206,2.975207 H 57.973225 c -1.643107,0 -2.975207,-1.332 -2.975207,-2.975207 v -8.112099 c 0,-1.643108 1.3321,-2.975207 2.975207,-2.975207 z M 36.99425,28.068926 c 0,-1.643108 1.332099,-2.975207 2.975206,-2.975207 h 3.051571 c 1.643107,0 2.975206,1.332099 2.975206,2.975207 v 22.174611 c 0,1.643207 -1.332099,2.975207 -2.975206,2.975207 h -3.051571 c -1.643107,0 -2.975206,-1.332 -2.975206,-2.975207 z m 76.51715,85.924464 c 0,1.6433 -1.33289,2.97521 -2.9752,2.97521 H 17.464795 c -1.643206,0 -2.975206,-1.33191 -2.975206,-2.97521 V 49.162744 c 0,-1.643207 1.332,-2.975207 2.975206,-2.975207 h 7.552463 c 1.643107,0 2.975207,1.332 2.975207,2.975207 v 7.571603 c 0,1.94162 2.015206,3.515703 4.500892,3.515703 h 18.003769 c 2.485686,0 4.500892,-1.574083 4.500892,-3.515703 v -7.571603 c 0,-1.643207 1.3321,-2.975207 2.975207,-2.975207 h 12.053554 c 1.643107,0 2.975206,1.332 2.975206,2.975207 v 7.571603 c 0,1.94162 2.015207,3.515703 4.500893,3.515703 h 18.003769 c 2.485686,0 4.501293,-1.574083 4.501293,-3.515703 v -7.571603 c 0,-1.643207 1.3319,-2.975207 2.97521,-2.975207 h 7.55306 c 1.64231,0 2.9752,1.332 2.9752,2.975207 z"
     fill="url(#paint0_linear)"
     id="path1"
     style="fill:url(#paint0_linear);stroke-width:0.999997" />
  <defs
     id="defs3">
    <linearGradient
       id="paint0_linear"
       x1="64"
       y1="128"
       x2="64"
       y2="7"
       gradientUnits="userSpaceOnUse"
       gradientTransform="matrix(0.99173554,0,0,0.99173554,0.52892731,-2.9421488)">
      <stop
         stop-color="#A93AFF"
         id="stop1" />
      <stop
         offset="0.9999"
         stop-color="#7452FF"
         id="stop2" />
    </linearGradient>
  </defs>
</svg>
