<?xml version="1.0" encoding="UTF-8" standalone="no"?>
<!-- Generator: Gravit.io -->

<svg
   style="isolation:isolate"
   viewBox="0 0 48 48"
   width="48pt"
   height="48pt"
   version="1.1"
   id="svg2"
   sodipodi:docname="system-log-out.svg"
   inkscape:version="1.4 (e7c3feb100, 2024-10-09)"
   xmlns:inkscape="http://www.inkscape.org/namespaces/inkscape"
   xmlns:sodipodi="http://sodipodi.sourceforge.net/DTD/sodipodi-0.dtd"
   xmlns:xlink="http://www.w3.org/1999/xlink"
   xmlns="http://www.w3.org/2000/svg"
   xmlns:svg="http://www.w3.org/2000/svg">
  <defs
     id="defs2">
    <linearGradient
       id="linearGradient7"
       inkscape:collect="always">
      <stop
         style="stop-color:#b900ff;stop-opacity:1;"
         offset="0"
         id="stop7" />
      <stop
         style="stop-color:#6444ff;stop-opacity:1;"
         offset="1"
         id="stop8" />
    </linearGradient>
    <linearGradient
       id="linearGradient6"
       x1="0.12090235"
       y1="1.0000116"
       x2="0.99997759"
       y2="0.50000948"
       gradientTransform="matrix(46.864,0,0,47.058,0.532,0.524)"
       gradientUnits="userSpaceOnUse"
       spreadMethod="pad">
      <stop
         offset="0"
         stop-opacity="1"
         style="stop-color:#bbbbbb;stop-opacity:1;"
         id="stop5" />
      <stop
         offset="1"
         stop-opacity="1"
         style="stop-color:#02aa93;stop-opacity:1;"
         id="stop6" />
    </linearGradient>
    <linearGradient
       id="linearGradient4"
       x1="0.12090235"
       y1="1.0000116"
       x2="0.99997759"
       y2="0.50000948"
       gradientTransform="matrix(46.864,0,0,47.058,0.532,0.524)"
       gradientUnits="userSpaceOnUse">
      <stop
         offset="0"
         stop-opacity="1"
         style="stop-color:#bbbbbb;stop-opacity:1;"
         id="stop3" />
      <stop
         offset="1"
         stop-opacity="1"
         style="stop-color:#02aa93;stop-opacity:1;"
         id="stop4" />
    </linearGradient>
    <linearGradient
       inkscape:collect="always"
       xlink:href="#linearGradient7"
       id="linearGradient1"
       gradientUnits="userSpaceOnUse"
       gradientTransform="matrix(40.456258,0,0,40.623733,3.6940869,3.7698647)"
       x1="0.12090235"
       y1="1.0000116"
       x2="0.99997759"
       y2="0.50000948" />
    <linearGradient
       inkscape:collect="always"
       xlink:href="#linearGradient7"
       id="linearGradient8"
       x1="5.1989574"
       y1="47.582546"
       x2="47.394949"
       y2="24.053445"
       gradientUnits="userSpaceOnUse" />
  </defs>
  <sodipodi:namedview
     id="namedview2"
     pagecolor="#ffffff"
     bordercolor="#666666"
     borderopacity="1.0"
     inkscape:showpageshadow="2"
     inkscape:pageopacity="0.0"
     inkscape:pagecheckerboard="0"
     inkscape:deskcolor="#d1d1d1"
     inkscape:document-units="pt"
     inkscape:zoom="9.1592425"
     inkscape:cx="16.32231"
     inkscape:cy="36.465898"
     inkscape:current-layer="svg2" />
  <linearGradient
     id="_lgradient_56"
     x1="0.12090235"
     y1="1.0000116"
     x2="0.99997759"
     y2="0.50000948"
     gradientTransform="matrix(46.864,0,0,47.058,0.532,0.524)"
     gradientUnits="userSpaceOnUse"
     xlink:href="#linearGradient6">
    <stop
       offset="0"
       stop-opacity="1"
       style="stop-color:#b900ff;stop-opacity:1;"
       id="stop1" />
    <stop
       offset="1"
       stop-opacity="1"
       style="stop-color:#6444ff;stop-opacity:1;"
       id="stop2" />
  </linearGradient>
  <path
     d="m 43.135,26.652 v 0 c 0.16,-1.168 1.24,-1.988 2.41,-1.83 v 0 c 1.17,0.157 1.99,1.236 1.83,2.409 v 0 C 46.578,33.108 43.583,38.476 38.992,42.246 34.402,46.006 28.554,47.9 22.629,47.539 16.405,47.159 10.578,44.318 6.437,39.651 2.308,34.975 0.196,28.845 0.575,22.622 0.954,16.398 3.795,10.571 8.462,6.43 13.139,2.301 19.268,0.188 25.492,0.568 v 0 c 1.178,0.072 2.077,1.087 2.005,2.265 v 0 C 27.425,4.011 26.41,4.91 25.232,4.838 v 0 C 20.14,4.527 15.127,6.258 11.299,9.635 7.482,13.024 5.155,17.79 4.845,22.882 c -0.31,5.092 1.42,10.105 4.798,13.932 3.389,3.818 8.154,6.144 13.246,6.455 4.847,0.295 9.634,-1.246 13.39,-4.327 3.756,-3.082 6.199,-7.477 6.856,-12.29 z M 34.033,7.582 v 0 C 33.023,6.97 32.7,5.654 33.312,4.645 v 0 c 0.611,-1.01 1.927,-1.333 2.937,-0.721 v 0 c 4.298,2.608 7.659,6.531 9.572,11.18 v 0 c 0.454,1.092 -0.064,2.345 -1.156,2.796 v 0 c -1.092,0.451 -2.347,-0.07 -2.801,-1.162 v 0 C 40.297,12.924 37.556,9.725 34.033,7.582 Z"
     fill-rule="evenodd"
     id="path2"
     style="display:inline;fill:url(#linearGradient8);fill-opacity:1"
     sodipodi:nodetypes="sssssscccccsssssscscccssssssssssssss" />
  <path
     d="m 15.708208,29.394293 1.622947,1.891423 10.599223,-9.060013 2.570816,3.006768 c 0.290922,0.340127 0.597383,0.259843 0.685436,-0.178698 l 1.575467,-7.898052 c 0.08719,-0.439404 -0.204595,-0.780395 -0.651769,-0.762266 l -8.047398,0.327178 c -0.446311,0.01814 -0.574073,0.309051 -0.283152,0.649179 l 2.570817,3.006768 -5.853831,5.004373 v 0 c -0.510192,0.435951 -1.278502,0.375521 -1.714453,-0.13467 v 0 C 18.34636,24.736091 18.405926,23.96778 18.916118,23.531829 v 0 l 4.005571,-3.423726 -2.696855,-3.154387 c -1.453745,-1.700641 -0.817515,-3.055974 1.419215,-3.024032 l 9.836093,0.139849 c 2.236731,0.03194 3.795795,1.855166 3.478975,4.070315 l -1.392453,9.73768 c -0.31682,2.215149 -1.754164,2.632109 -3.20791,0.931468 l -2.696853,-3.15525 -9.589198,8.197606 v 0 c -0.327178,0.279701 -0.821832,0.283154 -1.297494,0.06129 -0.312503,-0.09669 -0.605151,-0.276246 -0.833055,-0.542134 l -2.483625,-2.892815 c -0.246033,-0.287469 -0.381566,-0.631913 -0.410917,-0.980674 -0.113951,-0.476525 -0.02504,-0.927151 0.284879,-1.191313 v 0 l 2.512977,-2.399888 v 0 c 0.510193,-0.435951 1.278503,-0.375523 1.714454,0.13467 v 0 c 0.435951,0.510192 0.375521,1.278502 -0.133807,1.714453 v 0 z"
     fill-rule="evenodd"
     id="path1"
     style="display:inline;fill:url(#linearGradient1);stroke-width:0.86327"
     sodipodi:nodetypes="cccccccccccssssccccccccccsccccsccsssscc" />
</svg>
