<?xml version="1.0" encoding="UTF-8" standalone="no"?>
<!-- Generator: Gravit.io -->

<svg
   style="isolation:isolate"
   viewBox="0 0 48 48"
   width="48pt"
   height="48pt"
   version="1.1"
   id="svg3"
   sodipodi:docname="preferences-system-login.svg"
   inkscape:version="1.3.2 (091e20ef0f, 2023-11-25, custom)"
   xmlns:inkscape="http://www.inkscape.org/namespaces/inkscape"
   xmlns:sodipodi="http://sodipodi.sourceforge.net/DTD/sodipodi-0.dtd"
   xmlns="http://www.w3.org/2000/svg"
   xmlns:svg="http://www.w3.org/2000/svg">
  <defs
     id="defs3" />
  <sodipodi:namedview
     id="namedview3"
     pagecolor="#ffffff"
     bordercolor="#666666"
     borderopacity="1.0"
     inkscape:showpageshadow="2"
     inkscape:pageopacity="0.0"
     inkscape:pagecheckerboard="0"
     inkscape:deskcolor="#d1d1d1"
     inkscape:document-units="pt"
     inkscape:zoom="9.1592425"
     inkscape:cx="17.359514"
     inkscape:cy="35.537873"
     inkscape:current-layer="svg3" />
  <linearGradient
     id="_lgradient_58"
     x1="0.71973497"
     y1="0.49998072"
     x2="0.28172103"
     y2="0.73933685"
     gradientTransform="matrix(91.321302,0,0,91.695894,-21.727132,-21.84618)"
     gradientUnits="userSpaceOnUse">
    <stop
       offset="0"
       stop-opacity="1"
       style="stop-color:#24d863;stop-opacity:1;"
       id="stop1" />
    <stop
       offset="1"
       stop-opacity="1"
       style="stop-color:#e5f230;stop-opacity:1;"
       id="stop3" />
  </linearGradient>
  <path
     id="path3"
     style="fill:url(#_lgradient_58);stroke-width:1.95098"
     d="m 23.73874,2.0685234 c -1.431416,0.1120978 -2.39232,1.5812841 -2.181512,2.9512327 0.0102,6.4129409 -0.02034,12.8269259 0.0152,19.2392159 0.11082,1.699642 2.231956,2.772034 3.661112,1.838844 1.083406,-0.581534 1.314546,-1.894746 1.201082,-3.014002 -0.0102,-6.282877 0.02034,-12.566796 -0.0152,-18.8490211 C 26.300602,2.9265621 25.04501,1.9090366 23.738734,2.0685234 Z m 12.803282,9.3357256 c -1.705016,0.04943 -2.846282,2.131652 -1.970218,3.594706 0.838236,1.109405 1.822992,2.126395 2.49127,3.364045 2.870928,4.783 2.69546,11.16007 -0.388166,15.800338 -2.797892,4.436998 -8.048424,7.166984 -13.288762,6.892064 C 17.57861,40.879404 12.092771,37.020452 9.9694974,31.611332 7.8642866,26.518628 8.8711762,20.326746 12.474006,16.158305 c 0.78818,-0.741364 1.490516,-1.796026 1.137501,-2.925788 -0.364972,-1.694265 -2.68416,-2.406785 -3.9468496,-1.226209 -5.02139,5.058373 -6.9338931,12.925242 -4.8068416,19.727636 1.822831,6.207298 6.8645562,11.332906 13.0410342,13.258112 6.206768,2.04953 13.3621,0.741464 18.468648,-3.330054 5.320608,-4.127294 8.264978,-11.074678 7.51763,-17.768438 C 43.417584,19.42107 41.416446,15.083141 38.21539,11.914752 37.748308,11.542664 37.136408,11.361878 36.542022,11.404249 Z" />
</svg>
