<?xml version="1.0" encoding="UTF-8" standalone="no"?>
<svg
   width="192"
   height="192"
   viewBox="0 0 192 192"
   fill="none"
   version="1.1"
   id="svg56"
   sodipodi:docname="teams-for-linux.svg"
   inkscape:version="1.4 (e7c3feb100, 2024-10-09)"
   xmlns:inkscape="http://www.inkscape.org/namespaces/inkscape"
   xmlns:sodipodi="http://sodipodi.sourceforge.net/DTD/sodipodi-0.dtd"
   xmlns:xlink="http://www.w3.org/1999/xlink"
   xmlns="http://www.w3.org/2000/svg"
   xmlns:svg="http://www.w3.org/2000/svg">
  <sodipodi:namedview
     id="namedview56"
     pagecolor="#505050"
     bordercolor="#ffffff"
     borderopacity="1"
     inkscape:showpageshadow="0"
     inkscape:pageopacity="0"
     inkscape:pagecheckerboard="1"
     inkscape:deskcolor="#505050"
     inkscape:zoom="3.8006989"
     inkscape:cx="87.747018"
     inkscape:cy="119.45171"
     inkscape:current-layer="svg56" />
  <path
     id="path1"
     d="M 96.515625 10 C 83.561497 9.9916274 70.705381 18.682684 66.601562 31.357422 L 67.023438 31.671875 L 66.203125 32.113281 C 63.880025 37.939781 63.914672 44.476331 65.076172 50.582031 C 52.378872 50.954231 39.670375 50.534978 26.984375 50.767578 C 21.552475 50.779178 16.654238 54.232628 13.898438 58.861328 C 12.315537 62.524728 12.180384 66.573006 12.271484 70.503906 C 12.328484 77.167806 12.304688 83.820475 12.304688 90.484375 C 12.304688 96.008575 12.293287 101.53264 12.304688 107.05664 C 12.384388 112.35964 12.088088 117.67356 12.429688 122.97656 C 12.987688 130.40856 19.717759 136.64242 27.005859 136.60742 C 35.444159 136.78142 43.893731 136.59602 52.332031 136.66602 C 52.457331 137.42202 52.708684 138.94517 52.833984 139.70117 C 54.633284 151.14517 61.044775 161.63441 70.109375 168.56641 C 85.380275 180.46341 108.14422 180.51072 123.44922 168.63672 C 129.30322 164.17072 134.1078 158.26214 137.2168 151.49414 C 137.5358 150.78414 138.18491 149.37697 138.50391 148.66797 C 149.50391 153.08697 162.81786 150.65616 171.13086 141.91016 C 174.75186 138.07216 177.35833 133.30506 178.73633 128.16406 C 180.18233 120.62806 179.45444 112.88291 179.64844 105.25391 C 179.76244 100.31091 179.92164 95.3453 179.30664 90.4375 C 176.45964 85.1575 167.62122 85.995034 166.69922 92.240234 C 166.27722 100.14853 166.51794 108.08 166.46094 116 C 166.38094 120.186 166.41575 124.46577 164.71875 128.38477 C 160.36875 136.68877 149.40212 140.06155 141.45312 135.06055 C 141.45312 132.50155 141.45284 129.95448 141.46484 127.39648 C 141.56684 120.34848 141.49877 113.30091 141.50977 106.25391 C 141.44177 101.69491 141.70448 97.123353 141.39648 92.564453 C 141.11248 89.052253 137.6163 86.553188 134.2793 86.867188 C 128.0393 87.088188 121.69572 86.472062 115.51172 87.414062 C 109.89772 89.181762 109.90944 98.263531 115.52344 100.01953 C 119.69144 100.86853 124.00742 100.24055 128.23242 100.31055 C 128.24442 102.35755 128.26534 104.39245 128.27734 106.43945 C 128.31134 113.54545 128.1637 120.65181 128.2207 127.75781 C 128.3347 132.39881 128.09416 137.06122 126.91016 141.57422 C 125.81716 144.46922 124.4967 147.2727 122.9707 149.9707 C 118.7917 155.8907 112.90462 160.60036 106.01562 162.69336 C 92.326825 167.26436 76.3157 160.58733 69.4375 147.73633 C 68.1052 145.18933 67.011644 142.49173 66.339844 139.67773 C 66.169044 138.92173 65.82705 137.42273 65.65625 136.67773 C 72.23835 136.39873 78.900262 137.2593 85.414062 136.1543 C 93.100763 134.3753 97.666919 126.11753 96.824219 118.39453 C 96.778619 112.06853 96.779616 105.7426 96.791016 99.404297 C 96.791016 93.147397 96.777981 86.889594 96.800781 80.621094 C 96.800781 79.178994 96.812819 77.737141 96.824219 76.306641 C 111.00282 76.283341 124.4405 66.154487 128.1875 52.117188 C 127.043 51.968913 125.89452 51.84167 124.74414 51.738281 C 123.59377 51.634892 122.44086 51.555009 121.28711 51.501953 C 120.13336 51.448897 118.97884 51.423058 117.82422 51.425781 C 116.66959 51.428505 115.51433 51.459488 114.36133 51.523438 C 111.07033 58.338538 104.10244 62.652422 96.710938 62.919922 C 94.718138 56.081522 88.66025 50.465059 81.40625 50.755859 C 80.76855 50.720959 79.481131 50.675425 78.832031 50.640625 C 78.684031 50.093925 78.388334 48.988006 78.240234 48.441406 C 76.611834 42.859106 77.773634 36.812609 80.802734 31.974609 C 84.879534 26.252709 91.835806 22.670769 98.816406 23.542969 C 105.02321 24.101269 110.54609 28.054734 113.74609 33.427734 C 115.97809 37.812234 116.7988 42.941178 115.5918 47.767578 C 115.2618 49.046878 114.85133 50.302338 114.36133 51.523438 C 115.51433 51.459487 116.66959 51.428505 117.82422 51.425781 C 118.97884 51.423058 120.13336 51.448897 121.28711 51.501953 C 122.44086 51.555009 123.59377 51.634892 124.74414 51.738281 C 125.89452 51.84167 127.043 51.968913 128.1875 52.117188 C 129.8045 45.918487 129.71334 39.289037 127.90234 33.148438 C 126.72659 33.238563 125.54936 33.315717 124.37109 33.376953 C 123.19283 33.438189 122.01405 33.482872 120.83398 33.509766 C 119.65392 33.536659 118.47216 33.546105 117.29102 33.533203 C 118.47216 33.546105 119.65392 33.536659 120.83398 33.509766 C 122.01405 33.482872 123.19283 33.438189 124.37109 33.376953 C 125.54936 33.315717 126.72659 33.238563 127.90234 33.148438 C 126.95734 30.415438 125.74989 27.787391 124.33789 25.275391 C 118.57489 16.204091 108.40593 10.190244 97.769531 10.027344 C 97.351744 10.008811 96.9335 10.00027 96.515625 10 z M 154.33789 45.376953 C 147.32718 45.336846 140.78492 50.286547 138.43555 57.013672 C 138.08255 58.816272 137.80852 60.640916 137.60352 62.478516 C 137.67252 71.654416 145.62055 79.795791 154.68555 79.400391 C 163.59055 79.516691 171.25427 71.387981 171.19727 62.363281 C 171.08327 61.351481 170.86863 59.337972 170.76562 58.326172 C 168.97763 51.406372 162.82714 45.871825 155.74414 45.453125 C 155.2737 45.405156 154.80527 45.379627 154.33789 45.376953 z M 30.525391 64.130859 C 46.468191 64.165759 62.422434 64.177359 78.365234 64.130859 C 80.062034 64.305359 82.248597 63.665894 83.341797 65.433594 C 83.797297 70.480994 83.409638 75.562213 83.523438 80.632812 C 83.512137 86.598912 83.523438 92.553431 83.523438 98.519531 C 83.512137 105.14873 83.513094 111.79092 83.558594 118.41992 C 83.638294 120.40792 83.694656 123.55994 80.847656 123.21094 C 64.084956 123.37394 47.299809 123.18702 30.537109 123.29102 C 28.885909 123.12902 26.801866 123.68688 25.697266 122.04688 C 25.196266 117.06888 25.629206 112.04564 25.503906 107.05664 C 25.492606 101.05564 25.503487 95.053734 25.492188 89.052734 C 25.492188 82.528434 25.513931 76.00475 25.457031 69.46875 C 25.434231 68.14295 25.514747 66.804434 25.685547 65.490234 C 26.653547 63.641034 28.862791 64.328559 30.525391 64.130859 z "
     style="fill:url(#linearGradient58);fill-opacity:1" />
  <defs
     id="defs56">
    <linearGradient
       id="linearGradient56"
       inkscape:collect="always">
      <stop
         style="stop-color:#b900ff;stop-opacity:1;"
         offset="0"
         id="stop57" />
      <stop
         style="stop-color:#6444ff;stop-opacity:1;"
         offset="1"
         id="stop58" />
    </linearGradient>
    <linearGradient
       id="paint0_linear"
       x1="96.0017"
       y1="177.516"
       x2="96.0017"
       y2="10"
       gradientUnits="userSpaceOnUse">
      <stop
         stop-color="#5A92FF"
         id="stop19" />
      <stop
         offset="0.635417"
         stop-color="#960EFF"
         id="stop20" />
    </linearGradient>
    <linearGradient
       id="paint1_linear"
       x1="96.0017"
       y1="177.516"
       x2="96.0017"
       y2="10"
       gradientUnits="userSpaceOnUse">
      <stop
         stop-color="#5A92FF"
         id="stop21" />
      <stop
         offset="0.635417"
         stop-color="#960EFF"
         id="stop22" />
    </linearGradient>
    <linearGradient
       id="paint2_linear"
       x1="96.0017"
       y1="177.516"
       x2="96.0017"
       y2="10"
       gradientUnits="userSpaceOnUse">
      <stop
         stop-color="#5A92FF"
         id="stop23" />
      <stop
         offset="0.635417"
         stop-color="#960EFF"
         id="stop24" />
    </linearGradient>
    <linearGradient
       id="paint3_linear"
       x1="96.0017"
       y1="177.516"
       x2="96.0017"
       y2="10"
       gradientUnits="userSpaceOnUse">
      <stop
         stop-color="#5A92FF"
         id="stop25" />
      <stop
         offset="0.635417"
         stop-color="#960EFF"
         id="stop26" />
    </linearGradient>
    <linearGradient
       id="paint4_linear"
       x1="96.0017"
       y1="177.516"
       x2="96.0017"
       y2="10"
       gradientUnits="userSpaceOnUse">
      <stop
         stop-color="#5A92FF"
         id="stop27" />
      <stop
         offset="0.635417"
         stop-color="#960EFF"
         id="stop28" />
    </linearGradient>
    <linearGradient
       id="paint5_linear"
       x1="96.0017"
       y1="177.516"
       x2="96.0017"
       y2="10"
       gradientUnits="userSpaceOnUse">
      <stop
         stop-color="#5A92FF"
         id="stop29" />
      <stop
         offset="0.635417"
         stop-color="#960EFF"
         id="stop30" />
    </linearGradient>
    <linearGradient
       id="paint6_linear"
       x1="96.0017"
       y1="177.516"
       x2="96.0017"
       y2="10"
       gradientUnits="userSpaceOnUse">
      <stop
         stop-color="#5A92FF"
         id="stop31" />
      <stop
         offset="0.635417"
         stop-color="#960EFF"
         id="stop32" />
    </linearGradient>
    <linearGradient
       id="paint7_linear"
       x1="96.0017"
       y1="177.516"
       x2="96.0017"
       y2="10"
       gradientUnits="userSpaceOnUse">
      <stop
         stop-color="#5A92FF"
         id="stop33" />
      <stop
         offset="0.635417"
         stop-color="#960EFF"
         id="stop34" />
    </linearGradient>
    <linearGradient
       id="paint8_linear"
       x1="96.0017"
       y1="177.516"
       x2="96.0017"
       y2="10"
       gradientUnits="userSpaceOnUse">
      <stop
         stop-color="#5A92FF"
         id="stop35" />
      <stop
         offset="0.635417"
         stop-color="#960EFF"
         id="stop36" />
    </linearGradient>
    <linearGradient
       id="paint9_linear"
       x1="96.0017"
       y1="177.516"
       x2="96.0017"
       y2="10"
       gradientUnits="userSpaceOnUse">
      <stop
         stop-color="#5A92FF"
         id="stop37" />
      <stop
         offset="0.635417"
         stop-color="#960EFF"
         id="stop38" />
    </linearGradient>
    <linearGradient
       id="paint10_linear"
       x1="96.0017"
       y1="177.516"
       x2="96.0017"
       y2="10"
       gradientUnits="userSpaceOnUse">
      <stop
         stop-color="#5A92FF"
         id="stop39" />
      <stop
         offset="0.635417"
         stop-color="#960EFF"
         id="stop40" />
    </linearGradient>
    <linearGradient
       id="paint11_linear"
       x1="96.0017"
       y1="177.516"
       x2="96.0017"
       y2="10"
       gradientUnits="userSpaceOnUse">
      <stop
         stop-color="#5A92FF"
         id="stop41" />
      <stop
         offset="0.635417"
         stop-color="#960EFF"
         id="stop42" />
    </linearGradient>
    <linearGradient
       id="paint12_linear"
       x1="96.0017"
       y1="177.516"
       x2="96.0017"
       y2="10"
       gradientUnits="userSpaceOnUse">
      <stop
         stop-color="#5A92FF"
         id="stop43" />
      <stop
         offset="0.635417"
         stop-color="#960EFF"
         id="stop44" />
    </linearGradient>
    <linearGradient
       id="paint13_linear"
       x1="96.0017"
       y1="177.516"
       x2="96.0017"
       y2="10"
       gradientUnits="userSpaceOnUse">
      <stop
         stop-color="#5A92FF"
         id="stop45" />
      <stop
         offset="0.635417"
         stop-color="#960EFF"
         id="stop46" />
    </linearGradient>
    <linearGradient
       id="paint14_linear"
       x1="96.0017"
       y1="177.516"
       x2="96.0017"
       y2="10"
       gradientUnits="userSpaceOnUse">
      <stop
         stop-color="#5A92FF"
         id="stop47" />
      <stop
         offset="0.635417"
         stop-color="#960EFF"
         id="stop48" />
    </linearGradient>
    <linearGradient
       id="paint15_linear"
       x1="96.0017"
       y1="177.516"
       x2="96.0017"
       y2="10"
       gradientUnits="userSpaceOnUse">
      <stop
         stop-color="#5A92FF"
         id="stop49" />
      <stop
         offset="0.635417"
         stop-color="#960EFF"
         id="stop50" />
    </linearGradient>
    <linearGradient
       id="paint16_linear"
       x1="96.0017"
       y1="177.516"
       x2="96.0017"
       y2="10"
       gradientUnits="userSpaceOnUse">
      <stop
         stop-color="#5A92FF"
         id="stop51" />
      <stop
         offset="0.635417"
         stop-color="#960EFF"
         id="stop52" />
    </linearGradient>
    <linearGradient
       id="paint17_linear"
       x1="96.0017"
       y1="177.516"
       x2="96.0017"
       y2="10"
       gradientUnits="userSpaceOnUse">
      <stop
         stop-color="#5A92FF"
         id="stop53" />
      <stop
         offset="0.635417"
         stop-color="#960EFF"
         id="stop54" />
    </linearGradient>
    <linearGradient
       id="paint18_linear"
       x1="96.0017"
       y1="177.516"
       x2="96.0017"
       y2="10"
       gradientUnits="userSpaceOnUse">
      <stop
         stop-color="#5A92FF"
         id="stop55" />
      <stop
         offset="0.635417"
         stop-color="#960EFF"
         id="stop56" />
    </linearGradient>
    <linearGradient
       inkscape:collect="always"
       xlink:href="#linearGradient56"
       id="linearGradient58"
       x1="12.24985"
       y1="177.51575"
       x2="179.75543"
       y2="93.757869"
       gradientUnits="userSpaceOnUse" />
  </defs>
</svg>
