<?xml version="1.0" encoding="UTF-8" standalone="no"?>
<!-- Generator: Gravit.io -->

<svg
   style="isolation:isolate"
   viewBox="0 0 128 128"
   width="128pt"
   height="128pt"
   version="1.1"
   id="svg3"
   sodipodi:docname="terminal.svg"
   inkscape:version="1.3.2 (091e20ef0f, 2023-11-25, custom)"
   xmlns:inkscape="http://www.inkscape.org/namespaces/inkscape"
   xmlns:sodipodi="http://sodipodi.sourceforge.net/DTD/sodipodi-0.dtd"
   xmlns:xlink="http://www.w3.org/1999/xlink"
   xmlns="http://www.w3.org/2000/svg"
   xmlns:svg="http://www.w3.org/2000/svg">
  <defs
     id="defs3">
    <linearGradient
       id="linearGradient21"
       inkscape:collect="always">
      <stop
         style="stop-color:#9033dd;stop-opacity:1;"
         offset="0"
         id="stop22" />
      <stop
         style="stop-color:#ff69ff;stop-opacity:1;"
         offset="1"
         id="stop21" />
    </linearGradient>
    <linearGradient
       id="linearGradient1"
       inkscape:collect="always">
      <stop
         style="stop-color:#00f1fa;stop-opacity:1;"
         offset="0"
         id="stop17" />
      <stop
         style="stop-color:#006cff;stop-opacity:1;"
         offset="1"
         id="stop18" />
    </linearGradient>
    <linearGradient
       inkscape:collect="always"
       xlink:href="#linearGradient1"
       id="linearGradient18"
       x1="30.474607"
       y1="120.73828"
       x2="128"
       y2="69.405334"
       gradientUnits="userSpaceOnUse" />
    <linearGradient
       inkscape:collect="always"
       xlink:href="#linearGradient21"
       id="linearGradient23"
       x1="28.000006"
       y1="63.779218"
       x2="52.000217"
       y2="63.779217"
       gradientUnits="userSpaceOnUse" />
  </defs>
  <sodipodi:namedview
     id="namedview3"
     pagecolor="#ffffff"
     bordercolor="#666666"
     borderopacity="1.0"
     inkscape:showpageshadow="2"
     inkscape:pageopacity="0.0"
     inkscape:pagecheckerboard="0"
     inkscape:deskcolor="#d1d1d1"
     inkscape:document-units="pt"
     inkscape:zoom="3.4535896"
     inkscape:cx="99.461731"
     inkscape:cy="77.455642"
     inkscape:current-layer="svg3" />
  <linearGradient
     id="_lgradient_2"
     x1="5.5516034e-06"
     y1="0.23516436"
     x2="0.49998933"
     y2="0.99999619"
     gradientTransform="matrix(0,-113.48073,128,0,0,120.73891)"
     gradientUnits="userSpaceOnUse"
     spreadMethod="pad">
    <stop
       offset="0"
       stop-opacity="1"
       style="stop-color:#00f1fa;stop-opacity:1;"
       id="stop1" />
    <stop
       offset="1"
       stop-opacity="1"
       style="stop-color:#006cff;stop-opacity:1;"
       id="stop3" />
  </linearGradient>
  <path
     id="path1"
     style="isolation:isolate;fill:url(#_lgradient_2);stroke-width:2.90907"
     d="M 14.34815,120.73828 C 6.42961,120.73828 0,114.30867 0,106.39014 V 21.607911 C 0,13.689371 6.42961,7.2612305 14.34815,7.2612305 h 43.176264 15.618164 24.382324 16.127928 c 0.49491,0 0.98424,0.0242 1.46631,0.0732 7.231,0.73532 12.88037,6.8498105 12.88037,14.2734405 v 12.669472 c 0,0.373092 -0.0418,0.738013 -0.12305,1.089844 -0.0813,0.351828 -0.20163,0.690354 -0.35595,1.013672 -0.15432,0.323318 -0.34333,0.630899 -0.5625,0.918458 -0.21917,0.287554 -0.46832,0.555257 -0.74414,0.799802 -0.27582,0.244546 -0.57809,0.46636 -0.90235,0.660646 -0.32426,0.194283 -0.67114,0.361273 -1.03564,0.498047 -0.3645,0.13677 -0.74605,0.24293 -1.14258,0.314939 -0.39653,0.07201 -0.80718,0.109864 -1.22754,0.109864 -0.42073,0 -0.81046,-0.04626 -1.17041,-0.130371 -0.35995,-0.08411 -0.69012,-0.205909 -0.9917,-0.358885 -0.30157,-0.152979 -0.57472,-0.33687 -0.82031,-0.543458 -0.24559,-0.20659 -0.46424,-0.436204 -0.65625,-0.681151 -0.19201,-0.244951 -0.35723,-0.505381 -0.49805,-0.773438 -0.42246,-0.804174 -0.62057,-1.677913 -0.62549,-2.41553 -0.0131,-1.966976 0.0112,-5.402957 0,-8.103512 0,-1.781459 -0.72948,-3.43806 -1.89257,-4.81201 -0.3877,-0.457989 -0.82343,-0.88487 -1.29639,-1.27442 -0.47296,-0.38954 -0.9828,-0.74076 -1.51904,-1.05029 -0.53625,-0.30953 -1.09825,-0.57748 -1.67578,-0.79541 -0.57754,-0.21793 -1.17122,-0.38622 -1.76807,-0.50098 -0.59685,-0.11475 -1.19732,-0.17578 -1.7915,-0.17578 H 97.524902 73.142578 57.524414 20.79932 c -4.75345,0 -9.94336,3.85834 -9.94336,8.60889 v 74.64697 c 0,4.75055 5.18991,8.60742 9.94336,8.60742 H 70.4764 c 3.365817,0 6.093749,2.42346 6.093749,5.40528 0,2.98181 -2.727932,5.40234 -6.093749,5.40234 z m 83.55745,0 c -3.365816,0 -6.093751,-2.42053 -6.093751,-5.40234 0,-2.98182 2.727935,-5.40528 6.093751,-5.40528 h 9.2946 c 4.75345,0 9.94335,-3.85687 9.94335,-8.60742 V 58.593749 c 0,-2.40032 1.3964,-5.40088 4.76221,-5.40088 3.45639,-0.299165 6.09375,0.848447 6.09375,5.40088 v 47.796391 c 0,7.91853 -6.42814,14.34814 -14.34668,14.34814 z"
     sodipodi:nodetypes="sssscccscsscssssssssssssscsssssscccsssssssssssssscssss" />
  <path
     id="path4"
     style="fill:url(#linearGradient18);fill-opacity:1;stroke-width:1.00001"
     d="m 69.380724,80.779 c -0.1921,0.0088 -0.389778,0.01133 -0.60938,0.01367 -0.762638,0.008 -1.829218,0.0061 -2.820338,0.527349 l -0.002,-0.0039 c -0.0081,0.004 -0.01532,0.0096 -0.02344,0.01367 -0.0045,0.0024 -0.0091,0.0033 -0.01367,0.0059 l 0.002,0.002 c -1.79129,0.89715 -2.881557,3.013206 -2.90823,5.093797 h -0.002 c -2.77e-4,0.0067 0.0023,0.01293 0.002,0.01953 -5e-5,0.0052 -0.0019,0.0104 -0.002,0.01563 h 0.002 c -0.05539,1.551484 0.520616,3.059132 1.437512,4.152384 0.893455,1.06535 2.216418,1.841126 3.70316,1.714858 v 0.002 c 6.423154,0.02151 12.849209,0.01652 19.271663,0.01173 2.748617,-0.0021 5.496896,-0.0039 8.244216,-0.0039 1.531598,0.182574 2.920335,-0.55286 3.863317,-1.64064 0.965986,-1.11448 1.550946,-2.67858 1.459006,-4.318399 h 0.004 c -1.1e-4,-0.0093 -0.002,-0.01805 -0.002,-0.02733 -5.2e-4,-0.0085 5.6e-4,-0.0168 0,-0.02539 h -0.004 c -0.0326,-1.545433 -0.65049,-2.964568 -1.597673,-3.976598 -0.932745,-0.99633 -2.243039,-1.644072 -3.664096,-1.544937 v -0.0079 c -4.543137,-0.0238 -9.088595,-0.01867 -13.629031,-0.01367 -4.223635,0.0045 -8.443893,0.0087 -12.662227,-0.0099 h -0.02539 z"
     sodipodi:nodetypes="cscccccccccccccccccccccccccccc" />
  <path
     d="M 34.000056,45.779056 52.000218,63.779216 34.000056,81.779379"
     stroke-width="12.0001"
     stroke-linecap="round"
     stroke-linejoin="round"
     id="path6"
     style="fill:#000000;fill-opacity:0;stroke:url(#linearGradient23);stroke-opacity:1" />
</svg>
