<?xml version="1.0" encoding="UTF-8" standalone="no"?>
<svg
   width="64"
   height="64"
   viewBox="0 0 64 64"
   fill="none"
   version="1.1"
   id="svg2"
   sodipodi:docname="xorg.svg"
   inkscape:version="1.3.2 (091e20ef0f, 2023-11-25, custom)"
   xmlns:inkscape="http://www.inkscape.org/namespaces/inkscape"
   xmlns:sodipodi="http://sodipodi.sourceforge.net/DTD/sodipodi-0.dtd"
   xmlns:xlink="http://www.w3.org/1999/xlink"
   xmlns="http://www.w3.org/2000/svg"
   xmlns:svg="http://www.w3.org/2000/svg">
  <sodipodi:namedview
     id="namedview2"
     pagecolor="#ffffff"
     bordercolor="#666666"
     borderopacity="1.0"
     inkscape:showpageshadow="2"
     inkscape:pageopacity="0.0"
     inkscape:pagecheckerboard="0"
     inkscape:deskcolor="#d1d1d1"
     inkscape:zoom="7.7395833"
     inkscape:cx="23.257066"
     inkscape:cy="38.309556"
     inkscape:current-layer="svg2" />
  <path
     d="m 39.340893,17.136946 c -0.212308,-0.0044 -0.423002,0.03747 -0.617449,0.122876 -0.194408,0.08539 -0.367858,0.2122 -0.508197,0.371553 l -6.215291,6.843662 -6.215318,-6.843662 c -0.129082,-0.146552 -0.286275,-0.265702 -0.462253,-0.350383 -0.175975,-0.08469 -0.367163,-0.133184 -0.562233,-0.142625 -0.289939,-0.01376 -0.577402,0.05923 -0.82563,0.209701 -0.248229,0.150466 -0.445943,0.371541 -0.567866,0.634963 -0.121919,0.263421 -0.162508,0.557224 -0.116574,0.843833 0.04594,0.286612 0.176307,0.553012 0.374448,0.765137 l 6.404813,7.053142 -6.404813,7.051702 c -0.131865,0.14129 -0.23434,0.307381 -0.30148,0.488644 -0.06713,0.181221 -0.0976,0.374016 -0.08962,0.567141 0.008,0.193086 0.05424,0.382698 0.136103,0.557801 0.08186,0.175063 0.197689,0.332142 0.340756,0.462105 0.143072,0.129963 0.310527,0.230164 0.492658,0.294898 0.182126,0.0647 0.37529,0.09255 0.568279,0.08197 0.192985,-0.01057 0.381953,-0.05936 0.55592,-0.143562 0.17397,-0.0842 0.32948,-0.202137 0.457495,-0.346941 l 6.215318,-6.843696 6.215291,6.843696 c 0.12802,0.144804 0.28353,0.262737 0.457476,0.346941 0.173986,0.0842 0.362937,0.132981 0.55594,0.143562 0.193001,0.01058 0.386169,-0.01728 0.568299,-0.08197 0.18213,-0.06473 0.349585,-0.164935 0.492653,-0.294898 0.143068,-0.129963 0.258893,-0.287042 0.34074,-0.462105 0.08185,-0.175103 0.128145,-0.364715 0.136124,-0.557801 0.0081,-0.193125 -0.02249,-0.38592 -0.08966,-0.567141 -0.06713,-0.181263 -0.169606,-0.347354 -0.301469,-0.488644 l -6.404823,-7.051702 6.404823,-7.053142 c 0.192298,-0.205825 0.320938,-0.462907 0.370336,-0.740219 0.0494,-0.277315 0.01748,-0.562997 -0.09189,-0.822578 -0.109378,-0.259573 -0.291508,-0.481949 -0.524484,-0.640277 -0.232974,-0.158329 -0.50679,-0.245845 -0.788418,-0.251981 z"
     fill="url(#paint0_linear)"
     id="path1"
     style="fill:url(#paint0_linear);stroke-width:0.413368" />
  <defs
     id="defs2">
    <linearGradient
       id="paint0_linear"
       x1="2.9999974"
       y1="47.000004"
       x2="45.423611"
       y2="24.000006"
       gradientUnits="userSpaceOnUse"
       gradientTransform="matrix(0.41336898,0,0,0.41336898,21.991588,16.723254)"
       xlink:href="#paint0_linear-5">
      <stop
         id="stop1"
         offset="0"
         style="stop-color:#a93aff;stop-opacity:1;" />
      <stop
         offset="1"
         id="stop2"
         style="stop-color:#ff81ff;stop-opacity:1;" />
    </linearGradient>
    <linearGradient
       id="paint0_linear-3"
       x1="10.9789"
       y1="18.6024"
       x2="10.9789"
       y2="4"
       gradientUnits="userSpaceOnUse"
       gradientTransform="translate(0.99814826,1.0509084)">
      <stop
         stop-color="#A93AFF"
         id="stop2-6" />
      <stop
         offset="1"
         stop-color="#FF81FF"
         id="stop3" />
    </linearGradient>
    <linearGradient
       id="paint2_linear"
       x1="32.5"
       y1="60.3549"
       x2="32.5"
       y2="4.0213199"
       gradientUnits="userSpaceOnUse"
       gradientTransform="translate(0.49907426,0.52545444)">
      <stop
         stop-color="#A93AFF"
         id="stop6" />
      <stop
         offset="1"
         stop-color="#FF81FF"
         id="stop7" />
    </linearGradient>
    <linearGradient
       id="paint0_linear-5"
       x1="10.9789"
       y1="18.6024"
       x2="10.9789"
       y2="4"
       gradientUnits="userSpaceOnUse"
       gradientTransform="translate(-0.49991129,9.084197e-4)">
      <stop
         stop-color="#A93AFF"
         id="stop2-3" />
      <stop
         offset="1"
         stop-color="#FF81FF"
         id="stop3-5" />
    </linearGradient>
    <linearGradient
       id="paint2_linear-6"
       x1="1.9999987"
       y1="60.354908"
       x2="63.000008"
       y2="32.18811"
       gradientUnits="userSpaceOnUse"
       gradientTransform="translate(-0.50000315,-0.18811086)">
      <stop
         stop-color="#A93AFF"
         id="stop6-2" />
      <stop
         offset="1"
         stop-color="#FF81FF"
         id="stop7-9" />
    </linearGradient>
  </defs>
  <path
     d="m 7.4624112,4.3037944 c 2.5081704,-0.53969 5.1110708,-0.17084 7.6603708,-0.28344 1.252,0.06601 2.8129,-0.29896 3.7396,0.72994 1.2149,1.16867 0.4571,3.4205995 -1.2768,3.6574395 -2.7223,0.15919 -5.4528,-0.03106 -8.1710208,0.08154 -1.63091,0.08153 -3.06002,1.39386 -3.17946,2.9274801 -0.14414,1.8171 0.09061,3.6458 -0.1112,5.4629 -0.28005,1.4832 -2.35576,2.248 -3.62425,1.3162 -0.73309,-0.4543 -1.0255,-1.3084 -0.98432,-2.1044 0.0041,-1.6928 -0.05765,-3.3895 0.04943,-5.0824 0.23887,-3.1021796 2.72642,-5.8860296 5.89765,-6.7052596 z"
     id="path1-1"
     style="fill:url(#paint0_linear-5);stroke:url(#paint0_linear-5)" />
  <path
     d="m 24.200097,6.1458491 c -0.1153,-1.24244 1.0708,-2.3917 2.3928,-2.3024 9.3613,-0.01165 18.7267,-0.01553 28.088,0 4.1102,0.04659 7.7262,3.49049 7.8045,7.3537399 0.0247,9.4503 0.0124,18.9084 0.0041,28.3588 0.07,3.9564 -3.5831,7.575 -7.7921,7.6293 -5.6506,0 -11.3052,0.0505 -16.9558,-0.0349 3.2248,2.5858 6.1901,5.4551 9.316,8.1496 0.7578,0.7106 1.8163,1.3628 1.878,2.4772 0.1401,1.3006 -1.1078,2.5043 -2.4958,2.38 -9.6289,0.0117 -19.2579,0.0117 -28.8828,0 -1.3879,0.1281 -2.677,-1.0444 -2.5452,-2.3567 0.0288,-0.9435 0.8401,-1.5764 1.5073,-2.1704 3.2372,-2.7994 6.3713,-5.7114 9.6537,-8.4681 -5.6052,0.0544 -11.2104,0.0194 -16.8156801,0.0156 -4.0567,-0.0389 -7.6686,-3.3935 -7.80451,-7.2101 -0.09884,-4.6592 -0.0041,-9.3183 -0.0453,-13.9775 -0.0453,-0.9357 0.09884,-2.0267 1.03374,-2.5548 1.40851,-1.0094 3.67779,0.0893 3.62837,1.755 0.08237,4.7873 -0.02059,9.5785 0.04119,14.3696 -0.01236,1.7627 1.70504,3.2731 3.5665904,3.2032 14.6864997,0.0155 29.3770997,-0.0155 44.0675997,0 1.8369,0.1786 3.7231,-1.0794 3.9126,-2.8498 0.1235,-2.0656 0.0412,-6.2084 0.0412,-6.2084 l 0.0123,-4.4689 c 0,0 0.0165,-11.7644 -0.0164,-17.6466 0.0494,-1.7782304 -1.6268,-3.3584604 -3.5131,-3.3002204 -9.2089,-0.03106 -18.4219,0.01165 -27.6349,-0.0233 -1.2603,0.09707 -2.4382,-0.9318295 -2.4464,-2.1199195 z m -0.9225,49.5696399 c 5.8029,0.0116 11.6017,0.0116 17.4046,-0.0039 -2.92,-2.5276 -5.77,-5.129 -8.6776,-7.6643 -2.9324,2.5315 -5.7906,5.1406 -8.727,7.6682 z"
     id="path2"
     style="fill:url(#paint2_linear-6)"
     sodipodi:nodetypes="ccccccccccccccccccccccccccccccccc" />
</svg>
