<?xml version="1.0" encoding="UTF-8" standalone="no"?>
<svg
   width="24"
   height="24"
   viewBox="0 0 24 24"
   fill="none"
   version="1.1"
   id="svg18"
   sodipodi:docname="audio-volume-low-symbolic.svg"
   inkscape:version="1.3.2 (091e20ef0f, 2023-11-25, custom)"
   xmlns:inkscape="http://www.inkscape.org/namespaces/inkscape"
   xmlns:sodipodi="http://sodipodi.sourceforge.net/DTD/sodipodi-0.dtd"
   xmlns="http://www.w3.org/2000/svg"
   xmlns:svg="http://www.w3.org/2000/svg">
  <sodipodi:namedview
     id="namedview20"
     pagecolor="#4a4a4a"
     bordercolor="#666666"
     borderopacity="1.0"
     inkscape:showpageshadow="2"
     inkscape:pageopacity="0.0"
     inkscape:pagecheckerboard="0"
     inkscape:deskcolor="#d1d1d1"
     showgrid="false"
     inkscape:zoom="19.666667"
     inkscape:cx="13.347457"
     inkscape:cy="14.466101"
     inkscape:current-layer="svg18" />
  <style
    type="text/css"
    id="current-color-scheme">.ColorScheme-Text{color:#dddddd;}.ColorScheme-Background{color:#1a1a1a;}.ColorScheme-Highlight{color:#aaaaac30;}.ColorScheme-ViewText{color:#dddddd;}.ColorScheme-ViewBackground{color:#1a1a1a01;}.ColorScheme-ViewHover{color:#aaaaac30;}.ColorScheme-ViewFocus{color:#aaaaac30;}.ColorScheme-ButtonText{color:#bbbbbb;}.ColorScheme-ButtonBackground{color:#aaaaac20;}.ColorScheme-ButtonHover{color:#aaaaac30;}.ColorScheme-ButtonFocus{color:#aaaaac30;}.ColorScheme-NegativeText { color: #8500ff; } </style>
  <defs
     id="defs16">
    <linearGradient
       id="linearGradient9689"
       x1="7.4274006"
       y1="21.325018"
       x2="20.555401"
       y2="5.5247698"
       gradientUnits="userSpaceOnUse"
       gradientTransform="translate(0.30000015,-0.06250654)">
      <stop
         id="stop6"
         offset="0"
         style="stop-color:#b900ff;stop-opacity:1;" />
      <stop
         offset="1"
         id="stop8"
         style="stop-color:#6444ff;stop-opacity:1;" />
    </linearGradient>
    <linearGradient
       id="linearGradient1135"
       x1="17.296173"
       y1="2.7374878"
       x2="12.8548"
       y2="5.393187"
       gradientUnits="userSpaceOnUse"
       gradientTransform="translate(0.30000015)">
      <stop
         id="stop11"
         offset="0"
         style="stop-color:#000000;stop-opacity:0;" />
      <stop
         offset="1"
         id="stop13"
         style="stop-color:#000000;stop-opacity:0" />
    </linearGradient>
    <linearGradient
       id="paint0_linear"
       x1="28.999437"
       y1="113.15477"
       x2="92.128899"
       y2="28.7416"
       gradientUnits="userSpaceOnUse">
      <stop
         id="stop1661"
         offset="0"
         style="stop-color:#b900ff;stop-opacity:1;" />
      <stop
         offset="1"
         id="stop1663"
         style="stop-color:#6444ff;stop-opacity:1;" />
    </linearGradient>
  </defs>
  <path
    class="ColorScheme-Text"
     fill-rule="evenodd"
     clip-rule="evenodd"
     d="m 15.191497,2.9075837 c -0.261562,-0.132 -0.554597,-0.188974 -0.846574,-0.16457 -0.291996,0.02439 -0.571497,0.129202 -0.80754,0.302808 -0.0158,0.01163 -0.0313,0.02367 -0.04648,0.0361 L 8.3965375,7.2528687 H 4.5413482 c -0.4205728,0 -0.8239306,0.167065 -1.1213272,0.464467 -0.2973961,0.297408 -0.464471,0.700762 -0.464471,1.121336 v 6.3226663 c 0,0.420593 0.1670749,0.823947 0.4644714,1.121331 0.2973966,0.297402 0.7007544,0.464486 1.1213272,0.464486 H 8.3965379 L 13.4909,20.918064 c 0.01518,0.01248 0.03068,0.02438 0.04648,0.0361 0.236043,0.17353 0.515544,0.278442 0.80754,0.302827 0.291977,0.02438 0.585013,-0.03251 0.846575,-0.164646 0.261561,-0.131943 0.481461,-0.333828 0.635257,-0.583349 0.153795,-0.249331 0.235494,-0.536469 0.236023,-0.829467 v -0.0021 -15.3549753 -0.0021 c -5.26e-4,-0.292997 -0.08223,-0.580135 -0.23602,-0.829505 -0.153796,-0.249407 -0.373677,-0.451311 -0.635258,-0.58333 z M 9.7694878,9.0604427 13.794408,5.7650877 V 18.234922 l -4.0302131,-3.299684 -0.00558,-0.0045 C 9.3938799,14.635964 8.9385236,14.476346 8.4696893,14.478822 H 5.22392 V 9.5212807 h 3.2658101 c 0.4676434,0.0022 0.9209772,-0.160998 1.2797577,-0.460801 z"
     id="path1"
     style="fill:currentColor;stroke:none;stroke-width:0.189031;stroke-opacity:1;fill-opacity:1"
     sodipodi:nodetypes="ccsccsssscscccsccsccccccccccccccc" />
  <path
    class="ColorScheme-Text"
     fill-rule="evenodd"
     clip-rule="evenodd"
     d="m 20.06885,8.120539 c -0.2698,-0.52315 -0.9126,-0.72851 -1.4358,-0.45865 -0.5232,0.26983 -0.7286,0.9127 -0.4586,1.43586 0.4703,0.91185 0.7383,1.85215 0.7383,2.90225 0,1.0292 -0.2799,1.9983 -0.7416,2.9086 -0.2664,0.5249 -0.0567,1.1664 0.4683,1.4327 0.5249,0.2663 1.1664,0.0567 1.4328,-0.4683 0.5816,-1.1465 0.9722,-2.4449 0.9722,-3.873 0,-1.4411 -0.3746,-2.71439 -0.9756,-3.87946 z"
     id="path3"
     style="display:inline;fill:currentColor;fill-opacity:1"
     sodipodi:nodetypes="cccscccsc" />
</svg>
