<?xml version="1.0" encoding="UTF-8" standalone="no"?>
<svg
   width="32"
   height="32"
   viewBox="0 0 32 32"
   fill="none"
   version="1.1"
   id="svg26"
   sodipodi:docname="brightness copy.svg"
   inkscape:version="1.3.2 (091e20ef0f, 2023-11-25, custom)"
   xmlns:inkscape="http://www.inkscape.org/namespaces/inkscape"
   xmlns:sodipodi="http://sodipodi.sourceforge.net/DTD/sodipodi-0.dtd"
   xmlns:xlink="http://www.w3.org/1999/xlink"
   xmlns="http://www.w3.org/2000/svg"
   xmlns:svg="http://www.w3.org/2000/svg">
  <style
    type="text/css"
    id="current-color-scheme">.ColorScheme-Text{color:#dddddd;}.ColorScheme-Background{color:#1a1a1a;}.ColorScheme-Highlight{color:#aaaaac30;}.ColorScheme-ViewText{color:#dddddd;}.ColorScheme-ViewBackground{color:#1a1a1a01;}.ColorScheme-ViewHover{color:#aaaaac30;}.ColorScheme-ViewFocus{color:#aaaaac30;}.ColorScheme-ButtonText{color:#bbbbbb;}.ColorScheme-ButtonBackground{color:#aaaaac20;}.ColorScheme-ButtonHover{color:#aaaaac30;}.ColorScheme-ButtonFocus{color:#aaaaac30;}.ColorScheme-NegativeText { color: #8500ff; } </style>
  <path
    class="ColorScheme-Text"
     id="path14"
     style="display:none;isolation:isolate;fill:url(#linearGradient10);stroke-width:1.08552"
     d="m 16.005173,1.0000932 c -0.675877,-0.008253 -1.2935,0.5324162 -1.355468,1.2148081 -0.01966,3.4953713 -0.0021,0.086196 -0.0078,3.5819258 -0.06313,0.6227439 0.06515,1.3541265 0.667969,1.6776851 0.795193,0.5192199 1.975409,-0.077743 2.037109,-1.0234074 0.01966,-3.5677351 0.0021,-0.2325723 0.0078,-3.8006695 0.117296,-0.7622244 -0.416441,-1.5782106 -1.212891,-1.6405768 -0.04543,-0.00555 -0.09166,-0.00922 -0.136719,-0.00977 z M 6.3411105,4.9999756 C 5.9450035,5.0047107 5.5499837,5.1755842 5.2961886,5.4999609 4.7771134,6.1072192 4.9769919,7.063397 5.598923,7.5194327 8.1260304,10.038452 5.7555091,7.6921532 8.2922824,10.200994 9.0045862,10.826083 10.261213,10.413633 10.456345,9.4842187 10.653802,8.8291857 10.228454,8.2217715 9.7434542,7.8260644 7.2675199,5.3582176 9.6899923,7.7564694 7.2043917,5.2987949 6.958758,5.0940657 6.6491937,4.9962927 6.3411105,4.9999756 Z m 19.3222655,0.00781 c -0.308082,-0.00368 -0.617647,0.09409 -0.863281,0.2988194 -2.485603,2.4576745 -0.06313,0.059423 -2.539062,2.5272694 -0.485,0.3957072 -0.910349,1.0031223 -0.712891,1.6581544 0.195132,0.9294142 1.449805,1.3418652 2.16211,0.7167752 2.536772,-2.5088395 0.166252,-0.162542 2.693359,-2.6815611 0.621931,-0.4560358 0.82181,-1.4122136 0.302734,-2.019472 C 26.452551,5.1833965 26.059483,5.012523 25.663376,5.0077878 Z M 2.364548,14.628598 c -0.6679675,0.03464 -1.3008968,0.531607 -1.3554688,1.22848 -0.0887389,0.726799 0.4771722,1.426045 1.2050782,1.492143 3.4954741,0.01966 0.086199,0.0021 3.5820312,0.0078 0.6227622,0.06313 1.3541663,-0.06515 1.6777344,-0.667949 0.5192352,-0.79517 -0.077745,-1.975391 -1.0234375,-2.037049 -3.56784,-0.01966 -0.2325791,-0.0021 -3.8007813,-0.0078 -0.095281,-0.01466 -0.1897323,-0.02057 -0.2851562,-0.01563 z m 23.332032,0 c -0.667968,0.03464 -1.300895,0.531607 -1.355469,1.22848 -0.08874,0.726799 0.479125,1.426045 1.207031,1.492143 3.495477,0.01966 0.0862,0.0021 3.582031,0.0078 0.622763,0.06313 1.354166,-0.06515 1.677735,-0.667949 0.519234,-0.79517 -0.07775,-1.975391 -1.023438,-2.037049 -3.567839,-0.01966 -0.232579,-0.0021 -3.800781,-0.0078 -0.09528,-0.01466 -0.191685,-0.02057 -0.287109,-0.01563 z M 9.1438448,21.481913 c -0.3080831,-0.0037 -0.6176476,0.09409 -0.8632812,0.298819 -2.4856003,2.45768 -0.063129,0.05942 -2.5390625,2.52727 -0.4849998,0.395706 -0.912301,1.003123 -0.7148437,1.658154 0.1951315,0.929415 1.451758,1.341865 2.1640624,0.716776 2.5367729,-2.50884 0.1662517,-0.160591 2.6933594,-2.679609 C 10.50601,23.547287 10.705888,22.591109 10.186814,21.983851 9.9330185,21.659474 9.5399518,21.486648 9.1438448,21.481913 Z m 13.6992192,0 c -0.396107,0.0047 -0.791127,0.177561 -1.044922,0.501938 -0.519075,0.607258 -0.317244,1.563436 0.304688,2.019472 2.527107,2.519018 0.154632,0.170769 2.691406,2.679609 0.712304,0.625089 1.968932,0.212639 2.164062,-0.716776 0.197458,-0.655031 -0.22789,-1.262448 -0.71289,-1.658154 -2.475934,-2.467848 -0.05346,-0.06959 -2.539063,-2.52727 -0.245633,-0.204729 -0.555198,-0.302502 -0.863281,-0.298819 z m -6.837891,2.851478 c -0.675877,-0.0083 -1.2935,0.532416 -1.355468,1.214808 -0.01966,3.495374 -0.0021,0.0862 -0.0078,3.581926 -0.06313,0.622744 0.06515,1.354126 0.667969,1.677685 0.795193,0.519219 1.975449,-0.07774 2.037109,-1.023407 0.01966,-3.567735 0.0021,-0.232573 0.0078,-3.80067 0.117296,-0.762224 -0.41644,-1.580161 -1.212891,-1.642529 -0.04543,-0.0055 -0.09166,-0.0073 -0.136719,-0.0078 z" />
  <path
    class="ColorScheme-Text"
     id="path2"
     style="display:none;isolation:isolate;fill:#000000;fill-opacity:1;stroke-width:1.08554"
     d="m 24.342814,15.857671 c 0.06237,-0.796451 0.87984,-1.331105 1.642088,-1.213809 3.568205,0.0057 -0.737385,-0.01126 2.830458,0.0084 0.945694,0.06166 1.542381,1.241874 1.023146,2.037068 -0.323569,0.602815 -1.05425,0.731422 -1.677013,0.668291 -3.495836,-0.0057 0.882129,0.01126 -2.613351,-0.0084 -0.727907,-0.0661 -1.294066,-0.764733 -1.205328,-1.491554 z"
     sodipodi:nodetypes="cccccccc" />
  <sodipodi:namedview
     id="namedview26"
     pagecolor="#505050"
     bordercolor="#ffffff"
     borderopacity="1"
     inkscape:showpageshadow="0"
     inkscape:pageopacity="0"
     inkscape:pagecheckerboard="1"
     inkscape:deskcolor="#505050"
     inkscape:zoom="22.627417"
     inkscape:cx="12.462757"
     inkscape:cy="16.815883"
     inkscape:current-layer="svg26" />
  <path
    class="ColorScheme-Text"
     d="m 15.999314,9.0552314 c -3.835377,0 -6.9446252,3.1091566 -6.9446252,6.9444206 0,3.834764 3.1092482,6.94442 6.9446252,6.94442 3.834877,0 6.944624,-3.109656 6.944624,-6.94442 0,-3.835264 -3.109747,-6.9444206 -6.944624,-6.9444206 z m -0.691351,2.8354906 c 0.378343,-0.06362 0.691351,0.253198 0.691351,0.63672 v 6.94442 c 0,0.383443 -0.313008,0.700442 -0.691351,0.636664 -0.848589,-0.142777 -1.638454,-0.546109 -2.255003,-1.162663 -0.781421,-0.78133 -1.220421,-1.841216 -1.220421,-2.946211 0,-1.105108 0.439,-2.16487 1.220421,-2.946267 0.616549,-0.616532 1.406414,-1.019886 2.255003,-1.162663 z"
     id="path1"
     style="fill:currentColor;fill-opacity:1;stroke-width:1.11112" />
  <defs
     id="defs26">
    <linearGradient
       id="paint0_linear_451_3506"
       x1="11.000618"
       y1="24.50036"
       x2="24.50036"
       y2="11.000313"
       gradientUnits="userSpaceOnUse"
       gradientTransform="matrix(1.1111399,0,0,1.1111399,3.777461,3.777461)"
       xlink:href="#_lgradient_58">
      <stop
         stop-color="#8D01A2"
         id="stop9"
         offset="0"
         style="stop-color:#e5f230;stop-opacity:1;" />
      <stop
         offset="1"
         stop-color="#FF00D2"
         id="stop10"
         style="stop-color:#24d864;stop-opacity:1;" />
    </linearGradient>
    <linearGradient
       id="paint1_linear_451_3506"
       x1="4.625"
       y1="18.638901"
       x2="22.660299"
       y2="2.9028001"
       gradientUnits="userSpaceOnUse"
       gradientTransform="translate(4.9999998,4.9999999)">
      <stop
         stop-color="#FE0844"
         id="stop11" />
      <stop
         offset="1"
         stop-color="#FEB302"
         id="stop12" />
    </linearGradient>
    <linearGradient
       id="paint2_linear_451_3506"
       x1="4.6249199"
       y1="18.6388"
       x2="22.6602"
       y2="2.90272"
       gradientUnits="userSpaceOnUse"
       gradientTransform="translate(4.9999998,4.9999999)">
      <stop
         stop-color="#FE0844"
         id="stop13" />
      <stop
         offset="1"
         stop-color="#FEB302"
         id="stop14" />
    </linearGradient>
    <linearGradient
       id="paint3_linear_451_3506"
       x1="4.6251101"
       y1="18.6388"
       x2="22.6604"
       y2="2.9026899"
       gradientUnits="userSpaceOnUse"
       gradientTransform="translate(4.9999998,4.9999999)">
      <stop
         stop-color="#FE0844"
         id="stop15" />
      <stop
         offset="1"
         stop-color="#FEB302"
         id="stop16" />
    </linearGradient>
    <linearGradient
       id="paint4_linear_451_3506"
       x1="4.625"
       y1="18.638901"
       x2="22.660299"
       y2="2.9028001"
       gradientUnits="userSpaceOnUse"
       gradientTransform="translate(4.9999998,4.9999999)">
      <stop
         stop-color="#FE0844"
         id="stop17" />
      <stop
         offset="1"
         stop-color="#FEB302"
         id="stop18" />
    </linearGradient>
    <linearGradient
       id="paint5_linear_451_3506"
       x1="4.625"
       y1="18.638901"
       x2="22.660299"
       y2="2.9028001"
       gradientUnits="userSpaceOnUse"
       gradientTransform="translate(4.9999998,4.9999999)">
      <stop
         stop-color="#FE0844"
         id="stop19" />
      <stop
         offset="1"
         stop-color="#FEB302"
         id="stop20" />
    </linearGradient>
    <linearGradient
       id="paint6_linear_451_3506"
       x1="4.6248999"
       y1="18.639"
       x2="22.6602"
       y2="2.90292"
       gradientUnits="userSpaceOnUse"
       gradientTransform="translate(4.9999998,4.9999999)">
      <stop
         stop-color="#FE0844"
         id="stop21" />
      <stop
         offset="1"
         stop-color="#FEB302"
         id="stop22" />
    </linearGradient>
    <linearGradient
       id="paint7_linear_451_3506"
       x1="4.6250701"
       y1="18.638901"
       x2="22.660299"
       y2="2.9028699"
       gradientUnits="userSpaceOnUse"
       gradientTransform="translate(4.9999998,4.9999999)">
      <stop
         stop-color="#FE0844"
         id="stop23" />
      <stop
         offset="1"
         stop-color="#FEB302"
         id="stop24" />
    </linearGradient>
    <linearGradient
       id="paint8_linear_451_3506"
       x1="4.625"
       y1="18.638901"
       x2="22.660299"
       y2="2.9028001"
       gradientUnits="userSpaceOnUse"
       gradientTransform="translate(4.9999998,4.9999999)">
      <stop
         stop-color="#FE0844"
         id="stop25" />
      <stop
         offset="1"
         stop-color="#FEB302"
         id="stop26" />
    </linearGradient>
    <linearGradient
       inkscape:collect="always"
       xlink:href="#_lgradient_58"
       id="linearGradient10"
       gradientUnits="userSpaceOnUse"
       gradientTransform="matrix(-3.160955e-8,50.810324,51.020243,9.0383558e-8,6.3533569,-9.4395636)"
       x1="0.50067705"
       y1="0.48307776"
       x2="0.79589266"
       y2="0.18907483" />
    <linearGradient
       id="_lgradient_58"
       x1="0.73568618"
       y1="0.5"
       x2="0.26568109"
       y2="0.75531918"
       gradientTransform="matrix(-70.592531,70.592531,70.882095,70.882095,66.415874,-2.5489864)"
       gradientUnits="userSpaceOnUse">
      <stop
         offset="0"
         stop-opacity="1"
         style="stop-color:#24d863;stop-opacity:1;"
         id="stop1-3" />
      <stop
         offset="1"
         stop-opacity="1"
         style="stop-color:#e5f230;stop-opacity:1;"
         id="stop3" />
    </linearGradient>
    <linearGradient
       id="_lgradient_38"
       x1="0.99999887"
       y1="0.49999669"
       x2="0.49999973"
       y2="0.99999231"
       gradientTransform="matrix(47.058,0,0,46.985,0.495,0.559)"
       gradientUnits="userSpaceOnUse">
      <stop
         offset="0"
         stop-opacity="1"
         style="stop-color:#6444ff;stop-opacity:1;"
         id="stop1" />
      <stop
         offset="1"
         stop-opacity="1"
         style="stop-color:#b900ff;stop-opacity:1;"
         id="stop2" />
    </linearGradient>
  </defs>
  <path
    class="ColorScheme-Text"
     id="path3"
     style="isolation:isolate;fill:currentColor;fill-opacity:1;stroke-width:1.08554"
     d="M 15.9375 1 C 15.288423 1.0269345 14.710294 1.5532256 14.650391 2.2128906 C 14.646137 2.9690971 14.644004 3.2393103 14.642578 3.4179688 C 14.642063 3.369923 14.641068 3.4283031 14.640625 3.5195312 C 14.640712 3.509456 14.642481 3.4475767 14.642578 3.4355469 C 14.643059 3.5713313 14.64205 3.9522137 14.640625 4.8261719 C 14.577494 5.4489343 14.705779 6.1803376 15.308594 6.5039062 C 16.103787 7.0231407 17.284043 6.4261618 17.345703 5.4804688 C 17.354786 3.8320613 17.356173 4.0139331 17.355469 4.1738281 C 17.354359 4.2198358 17.353331 3.9884662 17.355469 2.6503906 C 17.472765 1.8881434 16.937075 1.0701824 16.140625 1.0078125 C 16.072486 0.99949332 16.004646 0.99721367 15.9375 1 z M 14.640625 3.5195312 C 14.640057 3.6366252 14.639101 3.6968812 14.640625 3.5195312 z M 6.3417969 5 C 5.9456897 5.0047353 5.5506708 5.177567 5.296875 5.5019531 C 4.7778015 6.1092305 4.977678 7.0654348 5.5996094 7.5214844 C 6.5472829 8.4661355 6.7110513 8.6294041 6.6777344 8.5976562 C 6.5645325 8.4854423 6.4368105 8.3578439 7.6074219 9.515625 C 8.3197272 10.140731 9.5763516 9.7282678 9.7714844 8.7988281 C 9.9689402 8.1437758 9.5435941 7.5363446 9.0585938 7.140625 C 8.5152114 6.5990117 8.3189747 6.4014376 8.1953125 6.2773438 C 8.322339 6.4020268 8.1550366 6.2376918 8.0742188 6.1582031 C 8.0638832 6.147794 8.0728928 6.1569652 8.0664062 6.1503906 C 7.9399925 6.0259869 7.745715 5.8334175 7.2050781 5.2988281 C 6.9594449 5.0940919 6.6498802 4.996317 6.3417969 5 z M 25.662109 5.0078125 C 25.354026 5.0041295 25.044461 5.0999513 24.798828 5.3046875 C 24.268054 5.8295241 24.082629 6.0131514 23.953125 6.140625 C 23.953507 6.1405749 23.961579 6.1319444 23.929688 6.1640625 C 23.849132 6.243284 23.681255 6.4081931 23.808594 6.2832031 C 23.684931 6.407297 23.488695 6.6048711 22.945312 7.1464844 C 22.460313 7.542204 22.034966 8.1515883 22.232422 8.8066406 C 22.427555 9.7360803 23.684179 10.148543 24.396484 9.5234375 C 26.93323 7.0144954 23.877167 10.046413 26.404297 7.5273438 C 27.026228 7.0712942 27.226105 6.1150899 26.707031 5.5078125 C 26.453235 5.1834264 26.058217 5.0125478 25.662109 5.0078125 z M 2.4355469 14.626953 C 1.7418312 14.628327 1.0662884 15.135639 1.0097656 15.857422 C 0.92102771 16.584242 1.4869375 17.283509 2.2148438 17.349609 C 2.9819373 17.353924 3.2603889 17.356008 3.4355469 17.357422 C 3.5479969 17.35837 3.7844933 17.359089 3.6054688 17.357422 C 3.7806228 17.357116 4.0608069 17.356171 4.828125 17.357422 C 5.4508874 17.420553 6.1803376 17.292268 6.5039062 16.689453 C 7.0231407 15.89426 6.4261618 14.714004 5.4804688 14.652344 C 1.9126293 14.632684 6.2185921 14.650231 2.6503906 14.644531 C 2.5789299 14.633535 2.5073106 14.626811 2.4355469 14.626953 z M 26.769531 14.626953 C 26.075816 14.628327 25.400273 15.135639 25.34375 15.857422 C 25.255012 16.584242 25.820922 17.283509 26.548828 17.349609 C 27.315922 17.353924 27.594373 17.356008 27.769531 17.357422 C 27.881981 17.35837 28.118478 17.359089 27.939453 17.357422 C 28.114607 17.357116 28.394791 17.356171 29.162109 17.357422 C 29.784872 17.420553 30.516275 17.292268 30.839844 16.689453 C 31.359078 15.89426 30.762099 14.714004 29.816406 14.652344 C 26.248567 14.632684 30.552576 14.650231 26.984375 14.644531 C 26.912914 14.633535 26.841295 14.626811 26.769531 14.626953 z M 8.4589844 22.167969 C 8.150901 22.164286 7.8413364 22.262061 7.5957031 22.466797 C 7.0724234 22.984223 6.8934863 23.15934 6.7617188 23.289062 C 6.7792211 23.272083 6.7743994 23.276042 6.7265625 23.324219 C 6.6461687 23.403275 6.4779406 23.568535 6.6054688 23.443359 C 6.4818312 23.567429 6.2856454 23.766905 5.7421875 24.308594 C 5.257188 24.704313 4.8298879 25.311745 5.0273438 25.966797 C 5.2224766 26.896237 6.479101 27.308699 7.1914062 26.683594 C 8.3632636 25.52458 8.2365656 25.653101 8.1230469 25.765625 C 8.0897299 25.797373 8.2515452 25.632151 9.1992188 24.6875 C 9.8211505 24.23145 10.021027 23.275246 9.5019531 22.667969 C 9.2481571 22.343583 8.8550916 22.172704 8.4589844 22.167969 z M 23.529297 22.167969 C 23.13319 22.172704 22.738171 22.343583 22.484375 22.667969 C 21.965302 23.275246 22.165178 24.23145 22.787109 24.6875 C 23.734783 25.632151 23.896598 25.797373 23.863281 25.765625 C 23.749763 25.653101 23.623065 25.524581 24.794922 26.683594 C 25.507227 27.308699 26.763852 26.896236 26.958984 25.966797 C 27.15644 25.311745 26.731093 24.704313 26.246094 24.308594 C 25.702561 23.766831 25.504473 23.567405 25.380859 23.443359 C 25.569081 23.628108 25.107548 23.170533 25.255859 23.320312 C 25.130213 23.19667 24.93365 23.003748 24.390625 22.466797 C 24.144992 22.262061 23.83738 22.164286 23.529297 22.167969 z M 16.005859 25.302734 C 15.329982 25.294482 14.712359 25.835166 14.650391 26.517578 C 14.646249 27.253983 14.644024 27.504705 14.642578 27.689453 C 14.642948 27.665071 14.642338 27.670389 14.642578 27.738281 C 14.642569 27.739402 14.642587 27.74499 14.642578 27.746094 C 14.643051 27.88387 14.643995 28.261804 14.642578 29.130859 C 14.579447 29.753622 14.707732 30.483072 15.310547 30.806641 C 16.10574 31.325875 17.285996 30.730849 17.347656 29.785156 C 17.356741 28.136564 17.356174 28.316621 17.355469 28.476562 C 17.354359 28.52257 17.353331 28.291201 17.355469 26.953125 C 17.472765 26.190878 16.937075 25.37487 16.140625 25.3125 C 16.095199 25.306954 16.050918 25.303285 16.005859 25.302734 z " />
</svg>
