<?xml version="1.0" encoding="UTF-8" standalone="no"?>
<!-- Generator: Gravit.io -->

<svg
   style="isolation:isolate"
   viewBox="0 0 48 48"
   width="48pt"
   height="48pt"
   version="1.1"
   id="svg6812"
   sodipodi:docname="preferences-desktop-filetype-association.svg"
   inkscape:version="1.3.2 (091e20ef0f, 2023-11-25, custom)"
   xmlns:inkscape="http://www.inkscape.org/namespaces/inkscape"
   xmlns:sodipodi="http://sodipodi.sourceforge.net/DTD/sodipodi-0.dtd"
   xmlns:xlink="http://www.w3.org/1999/xlink"
   xmlns="http://www.w3.org/2000/svg"
   xmlns:svg="http://www.w3.org/2000/svg">
  <defs
     id="defs6816">
    <linearGradient
       id="linearGradient2186"
       x1="0"
       y1="0.5"
       x2="1"
       y2="0.5"
       gradientTransform="matrix(46.1,0,0,37.1,0.95,5.45)"
       gradientUnits="userSpaceOnUse">
      <stop
         offset="0"
         stop-opacity="1"
         style="stop-color:#e5f230;stop-opacity:1;"
         id="stop2182" />
      <stop
         offset="1"
         stop-opacity="1"
         style="stop-color:#54d864;stop-opacity:1;"
         id="stop2184" />
    </linearGradient>
    <linearGradient
       id="linearGradient2180"
       x1="0"
       y1="0.5"
       x2="1"
       y2="0.5"
       gradientTransform="matrix(46.1,0,0,37.1,0.95,5.45)"
       gradientUnits="userSpaceOnUse">
      <stop
         offset="0"
         stop-opacity="1"
         style="stop-color:#e5f230;stop-opacity:1;"
         id="stop2176" />
      <stop
         offset="1"
         stop-opacity="1"
         style="stop-color:#24d864;stop-opacity:1;"
         id="stop2178" />
    </linearGradient>
    <linearGradient
       inkscape:collect="always"
       xlink:href="#_lgradient_0"
       id="linearGradient11734"
       x1="0.94999999"
       y1="24"
       x2="47.049999"
       y2="24"
       gradientUnits="userSpaceOnUse" />
    <linearGradient
       inkscape:collect="always"
       xlink:href="#linearGradient2180"
       id="linearGradient1811"
       gradientUnits="userSpaceOnUse"
       gradientTransform="matrix(46.1,0,0,37.1,0.95,5.45)"
       x1="0.5"
       y1="1.013485"
       x2="1.0108523"
       y2="0.5" />
    <linearGradient
       inkscape:collect="always"
       xlink:href="#linearGradient8"
       id="linearGradient10"
       x1="5.9999981"
       y1="162.09029"
       x2="166.69612"
       y2="32.100052"
       gradientUnits="userSpaceOnUse"
       gradientTransform="matrix(0.14655172,0,0,0.14655172,22.12069,18.29569)" />
    <linearGradient
       id="linearGradient8"
       inkscape:collect="always">
      <stop
         style="stop-color:#e5f230;stop-opacity:1;"
         offset="0"
         id="stop9" />
      <stop
         style="stop-color:#24d864;stop-opacity:1;"
         offset="1"
         id="stop10" />
    </linearGradient>
  </defs>
  <sodipodi:namedview
     id="namedview6814"
     pagecolor="#ffffff"
     bordercolor="#666666"
     borderopacity="1.0"
     inkscape:showpageshadow="2"
     inkscape:pageopacity="0.0"
     inkscape:pagecheckerboard="0"
     inkscape:deskcolor="#d1d1d1"
     inkscape:document-units="pt"
     showgrid="true"
     inkscape:zoom="5.2149125"
     inkscape:cx="8.3414631"
     inkscape:cy="36.050461"
     inkscape:current-layer="svg6812" />
  <linearGradient
     id="_lgradient_0"
     x1="0"
     y1="0.5"
     x2="1"
     y2="0.5"
     gradientTransform="matrix(46.1,0,0,37.1,0.95,5.45)"
     gradientUnits="userSpaceOnUse">
    <stop
       offset="0"
       stop-opacity="1"
       style="stop-color:#e5f230;stop-opacity:1;"
       id="stop6805" />
    <stop
       offset="1"
       stop-opacity="1"
       style="stop-color:#54ff64;stop-opacity:1;"
       id="stop6807" />
  </linearGradient>
  <g
     id="path6810">
    <path
       id="path13033"
       style="color:#000000;fill:url(#linearGradient1811);fill-rule:evenodd;-inkscape-stroke:none"
       d="M 3.9492188 4.949707 C 2.0226912 4.949707 0.44970703 6.5226912 0.44970703 8.4492188 L 0.44970703 20.500488 C 0.44970703 21.350601 1.1493985 22.050293 1.9995117 22.050293 C 2.849625 22.050293 3.5507813 21.350601 3.5507813 20.500488 L 3.5507813 9.0512695 C 3.5507813 8.493802 3.9938021 8.0507813 4.5512695 8.0507813 L 16.36377 8.0507813 L 18.906738 10.59375 C 19.506534 11.193545 20.493955 11.193545 21.09375 10.59375 C 21.693545 9.9939543 21.693545 9.006534 21.09375 8.4067383 L 18.490723 5.8022461 C 17.965346 5.2768694 17.173112 4.949707 16.429688 4.949707 L 3.9492188 4.949707 z M 24.650391 9.9492188 C 23.935952 9.9492188 23.122672 10.222973 22.55127 10.650879 L 16.149902 15.449707 C 15.837306 15.683801 15.039462 15.949219 14.649902 15.949219 L 9 15.949219 C 8.1498868 15.949219 7.4487306 16.650375 7.4487305 17.500488 C 7.4487305 18.350601 8.1498868 19.050293 9 19.050293 L 15.350098 19.050293 C 16.064536 19.050293 16.877816 18.778003 17.449219 18.350098 L 23.849121 13.55127 C 24.161718 13.317176 24.959561 13.050293 25.349121 13.050293 L 43.44873 13.050293 C 44.006198 13.050293 44.449219 13.493314 44.449219 14.050781 L 44.449219 38.94873 C 44.449219 39.506198 44.006198 39.949219 43.44873 39.949219 L 4.5512695 39.949219 C 3.9938021 39.949219 3.5507812 39.506198 3.5507813 38.94873 L 3.5507813 28.5 C 3.5507813 27.649887 2.849625 26.94873 1.9995117 26.94873 C 1.1493985 26.94873 0.44970703 27.649887 0.44970703 28.5 L 0.44970703 39.550781 C 0.44970703 41.477309 2.0226912 43.050293 3.9492188 43.050293 L 44.050781 43.050293 C 45.977309 43.050293 47.550293 41.477309 47.550293 39.550781 L 47.550293 13.44873 C 47.550293 11.522202 45.977309 9.9492187 44.050781 9.9492188 L 24.650391 9.9492188 z " />
  </g>
  <path
     fill-rule="evenodd"
     clip-rule="evenodd"
     d="m 24.700015,19.175 c -0.450881,0 -0.883282,0.179107 -1.202094,0.497921 C 23.179107,19.991733 23,20.424134 23,20.875 v 4.250015 c 0,0.450895 0.179107,0.883282 0.497921,1.202076 0.318812,0.318823 0.751213,0.497939 1.202094,0.497939 h 4.25 c 0.450895,0 0.883296,-0.179115 1.202076,-0.497939 0.318852,-0.318794 0.497938,-0.75118 0.497938,-1.202075 V 20.875 c 0,-0.450866 -0.179086,-0.883267 -0.497938,-1.202077 -0.31878,-0.318815 -0.751181,-0.497922 -1.202076,-0.497922 z m 0,1.7 h 4.25 v 4.250015 h -4.25 z m 0,7.650015 c -0.450881,0 -0.883282,0.179116 -1.202094,0.497938 C 23.179107,29.341762 23,29.774148 23,30.225029 v 4.250118 c 0,0.450794 0.179107,0.883267 0.497921,1.202017 0.318812,0.318896 0.751213,0.497837 1.202094,0.497837 h 4.25 c 0.450895,0 0.883296,-0.17894 1.202076,-0.497836 0.318852,-0.318751 0.497938,-0.751224 0.497938,-1.202018 v -4.250118 c 0,-0.45088 -0.179086,-0.883267 -0.497938,-1.202076 -0.31878,-0.318822 -0.751181,-0.497938 -1.202076,-0.497938 z m 0,1.700014 h 4.25 v 4.250118 h -4.25 z m 8.147938,-10.552107 c 0.318809,-0.318815 0.75121,-0.497921 1.202076,-0.497921 H 38.3 c 0.45094,0 0.883413,0.179106 1.202163,0.497921 C 39.820913,19.991733 40,20.424134 40,20.875 v 4.250015 c 0,0.450895 -0.179087,0.883282 -0.497837,1.202076 C 39.183413,26.645914 38.75094,26.82503 38.3,26.82503 h -4.249971 c -0.450866,0 -0.883267,-0.179115 -1.202076,-0.497939 -0.318822,-0.318794 -0.497909,-0.75118 -0.497909,-1.202075 V 20.875 c 0,-0.450866 0.179087,-0.883267 0.497909,-1.202078 z M 38.3,20.875 h -4.249971 v 4.250015 H 38.3 Z m -4.249971,7.650015 c -0.450866,0 -0.883267,0.179116 -1.202076,0.497938 -0.318822,0.318809 -0.497909,0.751195 -0.497909,1.202076 v 4.250118 c 0,0.450794 0.179087,0.883267 0.497909,1.202017 0.318809,0.318896 0.75121,0.497837 1.202076,0.497837 H 38.3 c 0.45094,0 0.883413,-0.17894 1.202163,-0.497836 C 39.820913,35.358414 40,34.925941 40,34.475147 V 30.225029 C 40,29.774149 39.820913,29.341762 39.502163,29.022953 39.183413,28.704131 38.75094,28.525015 38.3,28.525015 Z m 0,1.700014 H 38.3 v 4.250118 h -4.249971 z"
     stroke-width="0.293103"
     id="path1"
     style="fill:url(#linearGradient10);fill-opacity:1;stroke:none;stroke-opacity:1" />
</svg>
