<?xml version="1.0" encoding="UTF-8" standalone="no"?>
<!-- Generator: Gravit.io -->

<svg
   style="isolation:isolate"
   viewBox="0 0 48 48"
   width="48pt"
   height="48pt"
   version="1.1"
   id="svg10456"
   sodipodi:docname="folder-public.svg"
   inkscape:version="1.3.2 (091e20ef0f, 2023-11-25, custom)"
   xmlns:inkscape="http://www.inkscape.org/namespaces/inkscape"
   xmlns:sodipodi="http://sodipodi.sourceforge.net/DTD/sodipodi-0.dtd"
   xmlns:xlink="http://www.w3.org/1999/xlink"
   xmlns="http://www.w3.org/2000/svg"
   xmlns:svg="http://www.w3.org/2000/svg">
  <defs
     id="defs10460">
    <linearGradient
       inkscape:collect="always"
       id="linearGradient4">
      <stop
         style="stop-color:#ff69ff;stop-opacity:1;"
         offset="0"
         id="stop3" />
      <stop
         style="stop-color:#9033dd;stop-opacity:1;"
         offset="1"
         id="stop4" />
    </linearGradient>
    <linearGradient
       inkscape:collect="always"
       id="linearGradient2">
      <stop
         style="stop-color:#ff69ff;stop-opacity:1;"
         offset="0"
         id="stop1" />
      <stop
         style="stop-color:#9033dd;stop-opacity:1;"
         offset="1"
         id="stop2" />
    </linearGradient>
    <linearGradient
       inkscape:collect="always"
       id="linearGradient12107">
      <stop
         style="stop-color:#00ddff;stop-opacity:1;"
         offset="0"
         id="stop12103" />
      <stop
         style="stop-color:#5558ff;stop-opacity:1;"
         offset="1"
         id="stop12105" />
    </linearGradient>
    <linearGradient
       inkscape:collect="always"
       xlink:href="#linearGradient12107"
       id="linearGradient12109"
       x1="0.95"
       y1="24"
       x2="47.05"
       y2="24"
       gradientUnits="userSpaceOnUse" />
    <linearGradient
       inkscape:collect="always"
       xlink:href="#linearGradient12107"
       id="linearGradient12117"
       x1="28.465908"
       y1="23.53409"
       x2="36.534092"
       y2="23.53409"
       gradientUnits="userSpaceOnUse"
       gradientTransform="translate(0,-0.36399905)" />
    <linearGradient
       inkscape:collect="always"
       xlink:href="#linearGradient12107"
       id="linearGradient12274"
       gradientTransform="matrix(1.2362149,0,0,0.80892085,0,-0.36399905)"
       x1="19.4141"
       y1="31.820173"
       x2="33.165755"
       y2="31.820173"
       gradientUnits="userSpaceOnUse" />
    <linearGradient
       id="linearGradient12121"
       x1="6.6590457"
       y1="85.016495"
       x2="88.433891"
       y2="18.867222"
       gradientUnits="userSpaceOnUse"
       gradientTransform="matrix(0.28798946,0,0,0.28798946,22.082265,18.566439)"
       xlink:href="#linearGradient2">
      <stop
         stop-color="#5558ff"
         id="stop11"
         offset="0"
         style="stop-color:#ff69ff;stop-opacity:1;" />
      <stop
         offset="0.99989998"
         stop-color="#00E0FF"
         id="stop13"
         style="stop-color:#9033dd;stop-opacity:1;" />
    </linearGradient>
    <linearGradient
       inkscape:collect="always"
       xlink:href="#linearGradient4"
       id="linearGradient749"
       gradientTransform="scale(1.1147141,0.89709098)"
       x1="21.530184"
       y1="47.98877"
       x2="42.65694"
       y2="26.753139"
       gradientUnits="userSpaceOnUse" />
  </defs>
  <sodipodi:namedview
     id="namedview10458"
     pagecolor="#ffffff"
     bordercolor="#666666"
     borderopacity="1.0"
     inkscape:showpageshadow="2"
     inkscape:pageopacity="0.0"
     inkscape:pagecheckerboard="0"
     inkscape:deskcolor="#d1d1d1"
     inkscape:document-units="pt"
     showgrid="false"
     inkscape:zoom="7.375"
     inkscape:cx="16.40678"
     inkscape:cy="34.576271"
     inkscape:current-layer="svg10456" />
  <g
     id="path10443">
    <path
       id="path390"
       style="color:#000000;fill:url(#linearGradient749);fill-rule:evenodd;-inkscape-stroke:none"
       d="M 3.9492188 4.949707 C 2.0226912 4.949707 0.44970703 6.5226912 0.44970703 8.4492188 L 0.44970703 20.500488 C 0.44970703 21.350601 1.1493985 22.050293 1.9995117 22.050293 C 2.849625 22.050293 3.5507813 21.350601 3.5507813 20.500488 L 3.5507813 9.0512695 C 3.5507813 8.493802 3.9938021 8.0507813 4.5512695 8.0507813 L 16.36377 8.0507813 L 18.906738 10.59375 C 19.506534 11.193545 20.493955 11.193545 21.09375 10.59375 C 21.693545 9.9939543 21.693545 9.006534 21.09375 8.4067383 L 18.490723 5.8022461 C 17.965346 5.2768694 17.173112 4.949707 16.429688 4.949707 L 3.9492188 4.949707 z M 24.650391 9.9492188 C 23.935952 9.9492188 23.122672 10.222973 22.55127 10.650879 L 16.149902 15.449707 C 15.837306 15.683801 15.039462 15.949219 14.649902 15.949219 L 9 15.949219 C 8.1498868 15.949219 7.4487306 16.650375 7.4487305 17.500488 C 7.4487305 18.350601 8.1498868 19.050293 9 19.050293 L 15.350098 19.050293 C 16.064536 19.050293 16.877816 18.778003 17.449219 18.350098 L 23.849121 13.55127 C 24.161718 13.317176 24.959561 13.050293 25.349121 13.050293 L 43.44873 13.050293 C 44.006198 13.050293 44.449219 13.493314 44.449219 14.050781 L 44.449219 38.94873 C 44.449219 39.506198 44.006198 39.949219 43.44873 39.949219 L 4.5512695 39.949219 C 3.9938021 39.949219 3.5507812 39.506198 3.5507813 38.94873 L 3.5507813 28.5 C 3.5507813 27.649887 2.849625 26.94873 1.9995117 26.94873 C 1.1493985 26.94873 0.44970703 27.649887 0.44970703 28.5 L 0.44970703 39.550781 C 0.44970703 41.477309 2.0226912 43.050293 3.9492188 43.050293 L 44.050781 43.050293 C 45.977309 43.050293 47.550293 41.477309 47.550293 39.550781 L 47.550293 13.44873 C 47.550293 11.522202 45.977309 9.9492187 44.050781 9.9492188 L 24.650391 9.9492188 z " />
  </g>
  <g
     id="g2965"
     style="display:none">
    <path
       d="m 31.036,27.084002 -0.63,-0.444 0.889,-1.264 0.633,0.448 8.125,5.741 c 0.523,0.369 0.947,1.189 0.947,1.828 v 1.948 c 0,0.639 -0.519,1.159 -1.159,1.159 H 25.159 c -0.64,0 -1.159,-0.52 -1.159,-1.159 v -1.975 c 0,-0.639 0.44,-1.435 0.982,-1.775 l 4.296,-2.699 v 0 c 0.362,-0.228 0.84,-0.12 1.066,0.242 v 0 c 0.226,0.361 0.117,0.838 -0.243,1.064 v 0 l -4.229,2.661 c -0.18,0.114 -0.327,0.379 -0.327,0.592 v 1.117 c 0,0.213 0.174,0.386 0.387,0.386 h 13.136 c 0.213,0 0.387,-0.173 0.387,-0.386 v -1.144 c 0,-0.213 -0.142,-0.486 -0.316,-0.609 z"
       fill="url(#linearGradient12107)"
       id="path10452"
       style="fill:url(#linearGradient12274);fill-opacity:1" />
    <circle
       vector-effect="non-scaling-stroke"
       cx="32.5"
       cy="23.170092"
       r="3.284091"
       fill="none"
       stroke-width="1.5"
       stroke="#fd7c40"
       stroke-linejoin="miter"
       stroke-linecap="square"
       stroke-miterlimit="3"
       id="circle10454"
       style="stroke:url(#linearGradient12117)" />
  </g>
  <path
     d="m 26.310987,20.750837 c 1.436578,-1.096641 3.219636,-1.723617 5.01957,-1.748698 1.804427,-0.04104 3.61899,0.509562 5.098306,1.560603 1.860671,1.298412 3.192622,3.369719 3.562746,5.632538 0.04838,0.475356 -0.516365,0.851556 -0.92698,0.614426 -0.26999,-0.113987 -0.345357,-0.418363 -0.395986,-0.679396 -0.25199,-1.232307 -0.853831,-2.371133 -1.659309,-3.321843 -0.26999,0.270162 -0.556856,0.523248 -0.858323,0.760349 -0.158625,0.07865 -0.07203,0.263338 -0.03038,0.386453 0.994456,2.525006 0.969718,5.436464 -0.04614,7.95234 0.311633,0.242804 0.607485,0.506141 0.888735,0.783158 0.898844,-1.008884 1.509699,-2.270797 1.760537,-3.604562 0.04951,-0.330583 0.374617,-0.589342 0.705373,-0.536928 0.381356,0.02851 0.655838,0.450301 0.546719,0.819647 -0.34311,1.871816 -1.328582,3.609113 -2.733653,4.871025 -1.435455,1.296154 -3.30851,2.092963 -5.232193,2.191024 -2.078911,0.13907 -4.198341,-0.531226 -5.835158,-1.83648 -1.624433,-1.28475 -2.780889,-3.174796 -3.151002,-5.232423 -0.120371,-0.410385 0.232866,-0.857229 0.65585,-0.815068 0.32849,0.0091 0.572604,0.302101 0.609729,0.619005 0.247492,1.2893 0.847106,2.5045 1.707676,3.48712 0.334126,-0.326004 0.68625,-0.63493 1.069852,-0.89942 -0.320615,-1.031664 -0.61759,-2.083834 -0.662603,-3.172492 -0.106873,-1.60963 0.148488,-3.238614 0.743589,-4.735382 -0.429738,-0.294123 -0.823448,-0.636111 -1.198065,-0.996328 -0.776218,0.929054 -1.361208,2.033666 -1.612073,3.229485 -0.05962,0.275894 -0.119245,0.613302 -0.413985,0.730716 -0.431984,0.243956 -1.012464,-0.186934 -0.905591,-0.679396 0.36786,-2.130604 1.585065,-4.086772 3.292759,-5.379473 z m 2.525524,2.555794 c 1.72906,0.791136 3.79786,0.742091 5.493168,-0.117414 -0.646853,-1.124022 -1.52093,-2.108932 -2.551385,-2.885245 -0.07989,-0.0011 -0.238513,-0.0034 -0.318372,-0.0057 -1.067577,0.80481 -1.974312,1.829647 -2.623411,3.008359 z m -1.950668,-1.361125 c 0.260976,0.25536 0.536611,0.493614 0.829093,0.710211 0.393739,-0.699958 0.854954,-1.361122 1.388195,-1.959598 -0.799862,0.291828 -1.556957,0.704494 -2.217288,1.249387 z m 7.353839,-1.123994 c 0.440999,0.519821 0.838107,1.078405 1.182341,1.668899 0.221608,-0.186963 0.435354,-0.383026 0.641237,-0.587067 -0.556856,-0.443446 -1.176725,-0.794562 -1.823578,-1.081832 z m -5.956658,3.668381 c -0.799833,2.09639 -0.82797,4.480051 -0.06411,6.590092 2.121676,-0.99175 4.661829,-0.926779 6.751999,0.121992 0.809971,-2.186445 0.794218,-4.671564 -0.072,-6.837475 -2.046303,1.025963 -4.532458,1.070428 -6.615889,0.125391 z m 0.465736,7.777933 c 0.573733,1.104641 1.38258,2.071307 2.323038,2.872695 0.366755,0.02166 0.735727,0.01368 1.102481,-0.0148 0.883091,-0.776333 1.714431,-1.671174 2.212796,-2.751854 -1.739197,-0.89375 -3.869887,-0.939338 -5.638315,-0.106041 z m -1.815687,1.282475 c 0.555733,0.445721 1.175602,0.801388 1.828071,1.08068 -0.426369,-0.52895 -0.79871,-1.100062 -1.124973,-1.696258 -0.245223,0.192636 -0.480338,0.397829 -0.703098,0.615578 z m 8.56544,-0.437744 c -0.26999,0.470776 -0.564719,0.929054 -0.902213,1.35427 0.501735,-0.248535 0.983224,-0.536927 1.424194,-0.885769 -0.170979,-0.159575 -0.345357,-0.315752 -0.521981,-0.468501 z"
     fill="url(#linearGradient12121)"
     id="path4"
     style="display:inline;fill:url(#linearGradient12121);fill-opacity:1;stroke-width:0.287989" />
</svg>
