<?xml version="1.0" encoding="UTF-8" standalone="no"?>
<!-- Generator: Gravit.io -->

<svg
   style="isolation:isolate"
   viewBox="0 0 48 48"
   width="48pt"
   height="48pt"
   version="1.1"
   id="svg4855"
   sodipodi:docname="folder-videos.svg"
   inkscape:version="1.3.2 (091e20ef0f, 2023-11-25, custom)"
   xmlns:inkscape="http://www.inkscape.org/namespaces/inkscape"
   xmlns:sodipodi="http://sodipodi.sourceforge.net/DTD/sodipodi-0.dtd"
   xmlns:xlink="http://www.w3.org/1999/xlink"
   xmlns="http://www.w3.org/2000/svg"
   xmlns:svg="http://www.w3.org/2000/svg">
  <defs
     id="defs4859">
    <linearGradient
       inkscape:collect="always"
       id="linearGradient2960">
      <stop
         style="stop-color:#e5f230;stop-opacity:1;"
         offset="0"
         id="stop2956" />
      <stop
         style="stop-color:#24d864;stop-opacity:1;"
         offset="1"
         id="stop2958" />
    </linearGradient>
    <linearGradient
       inkscape:collect="always"
       id="linearGradient2339">
      <stop
         style="stop-color:#e5f230;stop-opacity:1;"
         offset="0"
         id="stop2335" />
      <stop
         style="stop-color:#24d864;stop-opacity:1;"
         offset="1"
         id="stop2337" />
    </linearGradient>
    <linearGradient
       inkscape:collect="always"
       xlink:href="#linearGradient2339"
       id="linearGradient5724"
       gradientUnits="userSpaceOnUse"
       gradientTransform="matrix(46.1,0,0,37.1,0.95,5.45)"
       x1="0.5"
       y1="1.013485"
       x2="1.0108523"
       y2="0.5" />
    <linearGradient
       inkscape:collect="always"
       xlink:href="#linearGradient2960"
       id="linearGradient5873"
       gradientUnits="userSpaceOnUse"
       gradientTransform="matrix(46.1,0,0,37.127228,-0.55,3.9269676)"
       x1="0.53253794"
       y1="1.0537637"
       x2="1.0433903"
       y2="0.54065531" />
    <linearGradient
       id="linearGradient1"
       x1="13.764729"
       y1="159.53784"
       x2="182.77299"
       y2="22.82374"
       gradientUnits="userSpaceOnUse"
       gradientTransform="matrix(0.13934403,0,0,0.13934403,22.081967,20.819648)">
      <stop
         id="stop1"
         offset="0"
         style="stop-color:#e5f230;stop-opacity:1;" />
      <stop
         offset="1"
         id="stop2"
         style="stop-color:#24d864;stop-opacity:1;" />
    </linearGradient>
  </defs>
  <sodipodi:namedview
     id="namedview4857"
     pagecolor="#ffffff"
     bordercolor="#666666"
     borderopacity="1.0"
     inkscape:showpageshadow="2"
     inkscape:pageopacity="0.0"
     inkscape:pagecheckerboard="0"
     inkscape:deskcolor="#d1d1d1"
     inkscape:document-units="pt"
     showgrid="false"
     inkscape:zoom="7.375"
     inkscape:cx="19.389831"
     inkscape:cy="33.084746"
     inkscape:current-layer="svg4855" />
  <g
     id="path4853">
    <path
       id="path6240"
       style="color:#000000;fill:url(#linearGradient5724);fill-rule:evenodd;-inkscape-stroke:none"
       d="M 3.9492188 4.949707 C 2.0226912 4.949707 0.44970703 6.5226912 0.44970703 8.4492188 L 0.44970703 20.500488 C 0.44970703 21.350601 1.1493985 22.050293 1.9995117 22.050293 C 2.849625 22.050293 3.5507813 21.350601 3.5507813 20.500488 L 3.5507813 9.0512695 C 3.5507813 8.493802 3.9938021 8.0507813 4.5512695 8.0507813 L 16.36377 8.0507813 L 18.906738 10.59375 C 19.506534 11.193545 20.493955 11.193545 21.09375 10.59375 C 21.693545 9.9939543 21.693545 9.006534 21.09375 8.4067383 L 18.490723 5.8022461 C 17.965346 5.2768694 17.173112 4.949707 16.429688 4.949707 L 3.9492188 4.949707 z M 24.650391 9.9492188 C 23.935952 9.9492188 23.122672 10.222973 22.55127 10.650879 L 16.149902 15.449707 C 15.837306 15.683801 15.039462 15.949219 14.649902 15.949219 L 9 15.949219 C 8.1498868 15.949219 7.4487306 16.650375 7.4487305 17.500488 C 7.4487305 18.350601 8.1498868 19.050293 9 19.050293 L 15.350098 19.050293 C 16.064536 19.050293 16.877816 18.778003 17.449219 18.350098 L 23.849121 13.55127 C 24.161718 13.317176 24.959561 13.050293 25.349121 13.050293 L 43.44873 13.050293 C 44.006198 13.050293 44.449219 13.493314 44.449219 14.050781 L 44.449219 38.94873 C 44.449219 39.506198 44.006198 39.949219 43.44873 39.949219 L 4.5512695 39.949219 C 3.9938021 39.949219 3.5507812 39.506198 3.5507813 38.94873 L 3.5507813 28.5 C 3.5507813 27.649887 2.849625 26.94873 1.9995117 26.94873 C 1.1493985 26.94873 0.44970703 27.649887 0.44970703 28.5 L 0.44970703 39.550781 C 0.44970703 41.477309 2.0226912 43.050293 3.9492188 43.050293 L 44.050781 43.050293 C 45.977309 43.050293 47.550293 41.477309 47.550293 39.550781 L 47.550293 13.44873 C 47.550293 11.522202 45.977309 9.9492187 44.050781 9.9492188 L 24.650391 9.9492188 z " />
  </g>
  <path
     id="path5697"
     style="display:none;fill:url(#linearGradient5873);fill-opacity:1;stroke-width:1.00037"
     d="M 25.877441,21 C 24.565443,21 23.5,22.065945 23.5,23.378906 V 33.621093 C 23.5,34.934054 24.565443,36 25.877441,36 h 3.292969 c 0.192,0 0.37716,-0.06641 0.51416,-0.1875 0.134,-0.118087 0.210938,-0.282048 0.210938,-0.451172 0,-0.169124 -0.07694,-0.331621 -0.210938,-0.449707 -0.137,-0.121088 -0.32216,-0.1875 -0.51416,-0.1875 h -2.52539 c -0.937,0 -1.697754,-0.761532 -1.697754,-1.699219 v -9.04834 c 0,-0.938688 0.760754,-1.700683 1.697754,-1.700683 h 10.709472 c 0.936999,0 1.699219,0.761995 1.699219,1.700683 v 9.04834 c 0,0.937687 -0.76222,1.699219 -1.699219,1.699219 h -2.52539 c -0.192,0 -0.377161,0.06641 -0.514161,0.1875 -0.133999,0.118086 -0.209472,0.280583 -0.209472,0.449707 0,0.169124 0.07547,0.333085 0.209472,0.451172 0.137,0.121088 0.322161,0.1875 0.514161,0.1875 h 3.294433 c 1.311999,0 2.375977,-1.065946 2.375977,-2.378907 V 23.378906 C 40.499512,22.065945 39.435534,21 38.123535,21 Z m 3.464356,2.957519 c -0.516685,0.0083 -0.972656,0.243515 -0.972656,0.685547 v 3.829102 3.827636 c 0.0046,0.417524 0.724129,1.158383 1.883789,0.451172 l 6.276855,-3.829101 c 0.365785,-0.235422 0.367324,-0.664511 0,-0.900879 L 30.25293,24.193359 c -0.26916,-0.164151 -0.601122,-0.24081 -0.911133,-0.23584 z m 0.386719,1.294922 5.002441,3.219727 -5.002441,3.219726 v -3.219726 z" />
  <path
     d="m 23.172251,25.020035 c -0.360517,0.004 -0.669117,0.33051 -0.664219,0.693766 -0.0049,1.013351 -0.01763,2.027692 0.0049,3.040055 -0.01176,0.974642 0,1.949297 -0.0069,2.923925 -0.01371,0.565737 0.231204,1.101682 0.531967,1.565196 0.03527,0.04466 0.105806,0.135972 0.141074,0.180632 0.337985,0.368216 0.753383,0.662009 1.220687,0.834712 0.600894,0.220554 1.24575,0.215523 1.876978,0.210591 l 0.02359,-1.86e-4 c 0.714194,-0.002 1.428374,0.01588 2.14353,0 0.812138,0.003 1.624319,-0.0069 2.436472,-0.0069 0.731821,9.84e-4 1.462666,-0.01389 2.194487,-0.003 0.319363,0.03871 0.633848,-0.09627 0.841541,-0.342424 0.452617,-0.540906 0.237079,-1.30316 0.273337,-1.949284 -0.09406,-0.42578 -0.648563,-0.652074 -0.985567,-0.356303 -0.390887,0.34935 -0.18123,0.943875 -0.225319,1.404393 -0.419314,0 -0.838614,0.001 -1.257914,0 -0.816082,0.01292 -1.632165,0.003 -2.448233,0.01389 -0.7083,-0.0089 -1.417575,0.01391 -2.125888,0.003 -0.667165,-0.01889 -1.337256,0.02974 -2.001481,-0.04667 C 24.533976,33.071277 23.98046,32.643519 23.7953,32.030141 l -0.04899,-0.140947 c -0.03722,-1.105639 -0.0049,-2.214274 -0.01567,-3.320916 l -4.2e-5,-0.0067 c -0.0039,-0.770935 -0.0078,-1.540866 -0.0049,-2.310812 0.558407,-10e-4 1.116828,0 1.676225,-10e-4 0.785719,-0.004 1.571411,-0.0089 2.358092,-0.0069 0.655404,0 1.310809,9.85e-4 1.967189,0 0.675986,0.02182 1.361767,-0.05858 2.030883,0.07444 0.172411,0.06053 0.338969,0.140919 0.493752,0.238195 0.350729,0.22727 0.579978,0.599472 0.688722,1.000448 0.0676,0.778125 0.01176,1.560222 0.03527,2.340339 0.002,0.128029 0.04016,0.252087 0.09895,0.364245 0.07739,0.06649 0.154797,0.132001 0.234154,0.196517 0.414395,0.132001 0.862107,-0.03574 1.269647,0.09131 0.106793,0.191543 0.03233,0.432733 0.05877,0.644132 -0.002,0.175671 0.06958,0.340431 0.130301,0.502224 0.06074,0.07444 0.124406,0.147872 0.190051,0.219341 0.917971,0.711616 1.89186,1.345841 2.830203,2.030661 0.313663,0.222323 0.659376,0.504202 1.069883,0.428775 0.383057,-0.05657 0.658261,-0.432746 0.637778,-0.817824 0.01087,-2.413801 -0.0029,-4.827574 0.0039,-7.241347 0.002,-0.244158 -0.0088,-0.488317 -0.04306,-0.730497 -0.06262,-0.116119 -0.142048,-0.222313 -0.214367,-0.331503 -0.312688,-0.224302 -0.743679,-0.242166 -1.058179,-0.01091 -0.753294,0.552819 -1.482202,1.139388 -2.230731,1.699175 -0.16653,0.133004 -0.372271,0.257062 -0.430057,0.480375 -0.08524,0.24813 0.02351,0.51411 0.199847,0.690784 0.220428,0.09032 0.48783,0.181635 0.698518,0.01488 0.629974,-0.463486 1.234309,-0.961739 1.851603,-1.44111 v 1.53e-4 c -0.002,0.126984 -0.0039,0.253983 -0.0039,0.381956 0.0039,1.899663 -9.85e-4,3.800316 0,5.699979 -0.738663,-0.516102 -1.471613,-1.04214 -2.211111,-1.557253 -0.06669,-0.05458 -0.134286,-0.105191 -0.205784,-0.152833 0.01469,-0.268975 0.02645,-0.537951 0.03035,-0.807916 -0.01079,-0.192532 -0.04016,-0.383099 -0.08326,-0.570684 -0.101888,-0.172689 -0.264516,-0.332502 -0.476124,-0.331499 -0.385997,-0.02283 -0.77198,0 -1.157002,-0.01687 l 0.03429,-0.0407 c -0.01565,-0.947846 0.125418,-1.97013 -0.384024,-2.823682 -0.315461,-0.514137 -0.77591,-0.963745 -1.342176,-1.174154 l -0.07054,-0.04067 c -0.577999,-0.265005 -1.227523,-0.253091 -1.84766,-0.247141 -0.648549,0.0059 -1.297125,-0.01191 -1.944671,0 h -2.366894 c -1.024751,0.01685 -2.048511,-0.007 -3.072285,0.01586 z"
     id="path1"
     style="fill:url(#linearGradient1);stroke-width:0.139344" />
</svg>
