<?xml version="1.0" encoding="UTF-8" standalone="no"?>
<!-- Generator: Gravit.io -->

<svg
   style="isolation:isolate"
   viewBox="0 0 48 48"
   width="48pt"
   height="48pt"
   version="1.1"
   id="svg9"
   sodipodi:docname="folder-documents-2.svg"
   inkscape:version="1.3.2 (091e20ef0f, 2023-11-25, custom)"
   xmlns:inkscape="http://www.inkscape.org/namespaces/inkscape"
   xmlns:sodipodi="http://sodipodi.sourceforge.net/DTD/sodipodi-0.dtd"
   xmlns:xlink="http://www.w3.org/1999/xlink"
   xmlns="http://www.w3.org/2000/svg"
   xmlns:svg="http://www.w3.org/2000/svg">
  <defs
     id="defs13">
    <linearGradient
       id="linearGradient7298"
       x1="0"
       y1="0.4999999772727428"
       x2="1"
       y2="0.4999999772727428"
       gradientTransform="matrix(46.1,0,0,37.1,0.95,9.95)"
       gradientUnits="userSpaceOnUse">
      <stop
         offset="0"
         stop-opacity="1"
         style="stop-color:#e5f230;stop-opacity:1;"
         id="stop7294" />
      <stop
         offset="1"
         stop-opacity="1"
         style="stop-color:#24d864;stop-opacity:1;"
         id="stop7296" />
    </linearGradient>
    <linearGradient
       id="linearGradient1135"
       x1="0"
       y1="0.4999999772727428"
       x2="1"
       y2="0.4999999772727428"
       gradientTransform="matrix(46.1,0,0,37.1,0.95,9.95)"
       gradientUnits="userSpaceOnUse">
      <stop
         offset="0"
         stop-opacity="1"
         style="stop-color:#e5f230;stop-opacity:1;"
         id="stop1131" />
      <stop
         offset="1"
         stop-opacity="1"
         style="stop-color:#54d864;stop-opacity:1;"
         id="stop1133" />
    </linearGradient>
    <linearGradient
       inkscape:collect="always"
       xlink:href="#linearGradient1135"
       id="linearGradient291"
       gradientUnits="userSpaceOnUse"
       gradientTransform="matrix(46.099999,0,0,37.099998,0,4.7260022)"
       x1="0.0097444421"
       y1="0.5195148"
       x2="1.0314703"
       y2="0.5195148" />
    <linearGradient
       inkscape:collect="always"
       xlink:href="#linearGradient7298"
       id="linearGradient293"
       gradientUnits="userSpaceOnUse"
       gradientTransform="matrix(46.099999,0,0,37.099998,0.95,5.4500002)"
       x1="0.5"
       y1="1.0134851"
       x2="1.0108523"
       y2="0.5" />
    <linearGradient
       id="linearGradient9689"
       x1="-191.17393"
       y1="249.12497"
       x2="255.24251"
       y2="54.070564"
       gradientUnits="userSpaceOnUse"
       gradientTransform="matrix(0.09766906,0,0,0.09766906,22.620997,18.718979)"
       spreadMethod="pad">
      <stop
         id="stop244"
         offset="0"
         style="stop-color:#e5f230;stop-opacity:1;" />
      <stop
         offset="1"
         id="stop246"
         style="stop-color:#24d864;stop-opacity:1;" />
    </linearGradient>
    <linearGradient
       id="_lgradient_4"
       x1="0.058835909"
       y1="1.6495206"
       x2="1.4441437"
       y2="0.085474662"
       gradientTransform="matrix(17.000044,0,0,12.180136,22.999787,22.958907)"
       gradientUnits="userSpaceOnUse"
       xlink:href="#linearGradient9689">
      <stop
         offset="0"
         stop-opacity="1"
         style="stop-color:#e5f230;stop-opacity:1;"
         id="stop1" />
      <stop
         offset="1"
         stop-opacity="1"
         style="stop-color:#24d864;stop-opacity:1;"
         id="stop2" />
    </linearGradient>
    <linearGradient
       inkscape:collect="always"
       xlink:href="#linearGradient9689"
       id="linearGradient1"
       gradientUnits="userSpaceOnUse"
       gradientTransform="matrix(0.09766906,0,0,0.09766906,22.121015,19.718979)"
       x1="-191.17393"
       y1="249.12497"
       x2="255.24251"
       y2="54.070564"
       spreadMethod="pad" />
    <linearGradient
       inkscape:collect="always"
       xlink:href="#paint1_linear-7"
       id="linearGradient4417"
       gradientUnits="userSpaceOnUse"
       x1="1.8823526"
       y1="88.659927"
       x2="90.542282"
       y2="16.941177"
       gradientTransform="matrix(0.265625,0,0,0.2656252,22.793411,19.499378)" />
    <linearGradient
       id="paint1_linear-7"
       x1="0"
       y1="32"
       x2="64"
       y2="32"
       gradientUnits="userSpaceOnUse">
      <stop
         stop-color="#e5f230"
         id="stop1051-5" />
      <stop
         offset="1"
         stop-color="#54d863"
         id="stop1053-3"
         style="stop-color:#24d864;stop-opacity:1;" />
    </linearGradient>
  </defs>
  <sodipodi:namedview
     id="namedview11"
     pagecolor="#ffffff"
     bordercolor="#666666"
     borderopacity="1.0"
     inkscape:showpageshadow="2"
     inkscape:pageopacity="0.0"
     inkscape:pagecheckerboard="0"
     inkscape:deskcolor="#d1d1d1"
     inkscape:document-units="pt"
     showgrid="false"
     inkscape:zoom="7.375"
     inkscape:cx="18.711864"
     inkscape:cy="36.067797"
     inkscape:current-layer="svg9" />
  <g
     id="path7">
    <path
       id="path395"
       style="color:#000000;fill:url(#linearGradient293);fill-rule:evenodd;-inkscape-stroke:none"
       d="M 3.9492188 4.949707 C 2.0226911 4.949707 0.44970703 6.5226913 0.44970703 8.4492188 L 0.44970703 20.500488 C 0.44970703 21.350601 1.1493985 22.050293 1.9995117 22.050293 C 2.849625 22.050293 3.5507813 21.350601 3.5507813 20.500488 L 3.5507813 9.0512695 C 3.5507813 8.4938022 3.9938022 8.0507812 4.5512695 8.0507813 L 16.36377 8.0507813 L 18.906738 10.59375 C 19.506534 11.193545 20.493955 11.193546 21.09375 10.59375 C 21.693546 9.9939541 21.693547 9.0065338 21.09375 8.4067383 L 18.490723 5.8022461 C 17.965346 5.2768694 17.173112 4.949707 16.429688 4.949707 L 3.9492188 4.949707 z M 24.650391 9.9492188 C 23.935952 9.9492188 23.122671 10.222974 22.55127 10.650879 L 16.149902 15.449707 C 15.837305 15.683802 15.039462 15.949219 14.649902 15.949219 L 9 15.949219 C 8.1498874 15.949219 7.4487306 16.650374 7.4487305 17.500488 C 7.4487305 18.350601 8.1498862 19.050293 9 19.050293 L 15.350098 19.050293 C 16.064537 19.050293 16.877816 18.778003 17.449219 18.350098 L 23.849121 13.55127 C 24.161718 13.317176 24.959561 13.050293 25.349121 13.050293 L 43.44873 13.050293 C 44.006197 13.050293 44.449219 13.493314 44.449219 14.050781 L 44.449219 38.94873 C 44.449219 39.506198 44.006198 39.949219 43.44873 39.949219 L 4.5512695 39.949219 C 3.9938022 39.949219 3.5507812 39.506198 3.5507813 38.94873 L 3.5507813 28.5 C 3.5507813 27.649886 2.8496244 26.94873 1.9995117 26.94873 C 1.1493991 26.94873 0.44970703 27.649886 0.44970703 28.5 L 0.44970703 39.550781 C 0.44970703 41.47731 2.0226913 43.050293 3.9492188 43.050293 L 44.050781 43.050293 C 45.977309 43.050293 47.550293 41.47731 47.550293 39.550781 L 47.550293 13.44873 C 47.550293 11.522202 45.977309 9.9492188 44.050781 9.9492188 L 24.650391 9.9492188 z " />
    <path
       id="path1034-6"
       style="isolation:isolate;fill:url(#linearGradient4417);stroke-width:0.265625"
       d="m 30.482864,19.500843 c -0.491649,-0.01902 -0.983039,0.285165 -1.187988,0.770509 -0.258639,0.678201 -0.163145,1.465746 -0.467285,2.122559 0.0777,-0.0024 0.234289,-0.0093 0.312011,-0.01172 -1.761596,0.276755 -3.524315,0.582801 -5.283691,0.883303 -0.682666,0.09501 -1.182522,0.859339 -1.037109,1.579102 0.418478,2.850607 0.84528,5.699719 1.267089,8.550299 0.05328,0.520254 0.40204,0.986167 0.871582,1.138184 0.307477,0.115228 0.632902,0.03368 0.944825,-0.01025 0.01222,0.408585 -0.04841,0.848383 0.134765,1.226075 0.198688,0.434722 0.628863,0.737922 1.083985,0.742677 0.820302,0.01068 1.640635,0.0086 2.460937,0.0015 0.28305,0.01663 0.565454,-0.185261 0.634278,-0.4834 0.123196,-0.378887 -0.152149,-0.834022 -0.527344,-0.861328 -0.701542,-0.04396 -1.406369,0.01903 -2.10791,-0.0249 -0.287486,-0.03206 -0.441276,-0.36039 -0.405762,-0.643068 0.0044,-2.5394 -0.0045,-5.080721 0.0044,-7.620121 -0.01998,-0.290993 0.229029,-0.554318 0.500976,-0.53174 2.412085,-0.0059 4.825708,-0.0071 7.237793,0 0.266395,-0.01663 0.507002,0.244936 0.489258,0.52881 0.0089,2.541764 -4.2e-5,5.082725 0.0044,7.624516 0.03663,0.286238 -0.124067,0.619294 -0.416015,0.643068 -0.657129,0.04157 -1.318919,-0.02112 -1.976075,0.02637 -0.338538,0.02494 -0.595625,0.39752 -0.543457,0.751465 0.02664,0.336122 0.321964,0.606665 0.637207,0.588868 0.784789,0.0095 1.570681,0.01041 2.355469,-0.0015 0.639385,0 1.207381,-0.609046 1.208496,-1.291993 0.01442,-0.970382 -0.0019,-1.940536 0.0059,-2.912111 0.69931,0.22687 1.546225,-0.200489 1.681641,-1.003419 0.476213,-2.8981 0.939328,-5.799248 1.403322,-8.699714 0.143198,-0.716206 -0.355611,-1.476126 -1.032715,-1.574708 -2.680712,-0.496479 -5.360165,-0.988953 -8.041992,-1.479493 -0.06938,-0.01633 -0.140702,-0.02512 -0.210938,-0.02783 z m 0.461426,1.450196 c 0.06372,0.006 0.127206,0.01772 0.186035,0.0293 2.125715,0.391957 4.250776,0.787047 6.376465,1.171876 0.244215,0.05107 0.501932,0.07081 0.729492,0.186035 0.248651,0.157967 0.213219,0.492805 0.169922,0.752931 -0.402926,2.441996 -0.780251,4.889255 -1.186523,7.330083 -0.01222,0.317129 -0.294889,0.446235 -0.534668,0.531739 -0.0078,-1.5215 0.0012,-3.042957 -0.0044,-4.564457 0.02333,-0.496479 -0.21593,-0.991006 -0.621088,-1.239259 -0.381862,-0.249421 -0.848166,-0.172966 -1.274414,-0.186035 -0.750363,0.02494 -1.49961,-0.04081 -2.25,-0.03369 l -0.06006,-0.02344 c 0.39849,-0.07722 0.808473,-9.83e-4 1.211425,0.0073 -0.09879,-0.649689 -0.179733,-1.302109 -0.292969,-1.948241 -0.09767,-0.630674 -0.670611,-1.13003 -1.27002,-1.082521 -0.640501,0.05701 -1.269697,0.212665 -1.905762,0.301758 0.07214,-0.344459 0.07942,-0.71523 0.227051,-1.03711 0.111543,-0.187068 0.308347,-0.214161 0.499512,-0.196289 z m 0.70752,2.36426 c 0.216403,-0.01398 0.438503,0.03934 0.531738,0.275391 0.119876,0.454908 0.177861,0.929124 0.188965,1.401856 -1.709429,-0.06056 -3.422269,-0.01003 -5.132813,-0.02783 -0.682656,-0.0582 -1.33563,0.56759 -1.330078,1.305177 -0.01554,2.304243 0.0053,4.610121 -0.01025,6.915532 -0.281934,0 -0.615053,-0.133013 -0.632813,-0.483398 -0.376303,-2.494272 -0.745158,-4.989891 -1.110355,-7.485358 -0.09768,-0.320689 0.104364,-0.685302 0.426269,-0.703125 2.28555,-0.39671 4.574322,-0.774061 6.859864,-1.166017 0.06577,-0.01545 0.137338,-0.02757 0.209473,-0.03223 z m -2.525391,4.677249 c -0.208675,0.0095 -0.439801,-0.01969 -0.619629,0.115723 -0.33745,0.219725 -0.383133,0.780234 -0.08789,1.060548 0.18538,0.210241 0.473558,0.175986 0.717774,0.183105 1.551806,-0.01068 3.103467,0.0081 4.655273,-0.0073 0.418492,0.01187 0.724599,-0.511698 0.558106,-0.915527 -0.09767,-0.294578 -0.391868,-0.457369 -0.673829,-0.433595 -1.517407,-0.0047 -3.033512,0.0042 -4.549804,-0.0029 z m 0.0044,2.137209 c -0.210906,0.0095 -0.446734,-0.02418 -0.629883,0.117187 -0.331898,0.22092 -0.376142,0.775544 -0.08642,1.054689 0.184264,0.211411 0.470628,0.183041 0.714843,0.188965 1.518497,-0.0071 3.035327,-8.24e-4 4.552735,-0.0044 0.256407,0.02019 0.52358,-0.106175 0.640137,-0.360352 0.224213,-0.408585 -0.0851,-0.998909 -0.534668,-0.985841 -1.551807,-0.01782 -3.103817,4.52e-4 -4.656739,-0.01025 z m 0.634278,2.13135 c -0.344941,-0.0024 -0.689169,-0.0018 -1.032715,0.02197 -0.361861,0.0582 -0.608477,0.506033 -0.481934,0.873047 0.08104,0.292187 0.359668,0.486035 0.641602,0.465821 0.710413,0.0024 1.420934,0.01526 2.131347,-0.0073 0.445108,-0.0047 0.732666,-0.606978 0.495117,-1.004884 -0.134326,-0.280314 -0.446175,-0.366187 -0.719238,-0.347168 -0.344661,0.0071 -0.689239,9.03e-4 -1.034179,-0.0015 z" />
  </g>
  <path
     d="m 32.5,19.776 c -4.708999,0 -8.5,3.791001 -8.5,8.5 0,3.795999 2.465,6.990999 5.887,8.088999 v -1.766 c -2.150999,0.474999 -2.604,-0.946 -2.604,-0.946 -0.351999,-0.908 -0.858999,-1.150001 -0.858999,-1.150001 -0.703001,-0.486998 0.05201,-0.478999 0.05201,-0.478999 0.776,0.055 1.185,0.811 1.185,0.811 0.69,1.201 1.811,0.855 2.250999,0.654 0.071,-0.508001 0.271001,-0.856 0.492001,-1.052 C 28.687011,32.237998 27.19801,31.14 27.19801,28.128 c 0,-0.858 0.623,-1.984 1.118001,-2.533 -0.08,-0.199 -0.347,-1.423 0.075,-2.505 0,0 0.04,-0.013 0.124,-0.017 0.252,-0.011 0.818,0.466001 1.925999,1.229 0.669,-0.191999 1.525001,-0.281999 2.059001,-0.285999 0.602999,-0.005 1.3,0.098 1.929,0.285999 1.108,-0.762999 1.816,-1.241999 2.066999,-1.230999 h 0.002 c 0.08399,0.004 0.124999,0.01701 0.124999,0.01701 0.422001,1.081998 0.156,2.307999 0.076,2.506998 0.496,0.549001 1.114,1.675 1.114,2.533001 0,3.019999 -1.807999,4.107999 -3.53,4.302998 0.277,0.242 0.345999,0.723 0.345999,1.456001 0,0.885999 -0.002,1.461 -0.004,1.827 v 0.785999 c 3.672999,-0.94 6.375,-4.249999 6.375,-8.223998 0,-4.709 -3.791,-8.500001 -8.5,-8.500001 z"
     fill-rule="evenodd"
     fill="url(#linearGradient1135)"
     id="path242"
     style="display:none;fill:url(#linearGradient291);fill-opacity:1;stroke-width:1"
     sodipodi:nodetypes="csccccccccsccccccccccscsccscc" />
  <path
     d="m 27.627577,21.536298 c 1.455112,-0.756819 3.131318,-1.063927 4.758552,-0.891724 1.715362,0.173299 3.368704,0.898307 4.669168,2.036815 1.453999,1.260263 2.463603,3.028356 2.803492,4.930256 0.348483,1.89309 0.04786,3.902532 -0.857242,5.600412 -1.089107,2.070876 -3.05499,3.662296 -5.312805,4.245869 -0.364892,0.121695 -0.851772,-0.01973 -0.936744,-0.439804 -0.06095,-0.974054 0.01094,-1.955725 -0.03477,-2.93183 -0.02071,-0.315959 -0.199343,-0.581326 -0.391067,-0.819346 -0.266832,-0.296132 -0.13283,-0.835852 0.242903,-0.968584 0.377979,-0.135955 0.765628,-0.258822 1.102195,-0.483657 0.88664,-0.526436 1.542292,-1.596987 1.259052,-2.651041 -0.05772,-0.448603 -0.470473,-0.761203 -0.491177,-1.2109 0.101282,-0.531965 0.208034,-1.063929 0.229814,-1.607955 -0.48141,0.175492 -1.003061,0.304923 -1.400671,0.648229 -0.235188,0.227041 -0.569607,0.105297 -0.844057,0.04277 -0.700336,-0.173294 -1.43007,-0.114067 -2.124946,0.05595 -0.313674,0.09213 -0.539133,-0.190856 -0.792907,-0.315892 -0.376846,-0.18646 -0.776567,-0.320276 -1.178464,-0.438729 0.02288,0.544026 0.06753,1.086959 0.164465,1.622215 0.06208,0.257748 -0.120896,0.472727 -0.228722,0.687707 -0.344176,0.618616 -0.346354,1.407264 -0.01635,2.032444 0.406256,0.78858 1.193712,1.312867 2.023645,1.560751 0.264664,0.06036 0.509725,0.267614 0.533683,0.553881 0.06427,0.47936 -0.490113,0.728319 -0.510809,1.196641 -0.06753,0.980598 0.02723,1.968814 -0.0098,2.951657 -0.01852,0.314787 -0.324574,0.567067 -0.633891,0.542943 -0.303879,0.0077 -0.585966,-0.25228 -0.60339,-0.558374 -0.02614,-0.459533 -0.01198,-0.920239 -0.0207,-1.380846 -0.676358,-0.125016 -1.388668,-0.217216 -1.980074,-0.596659 -0.234172,-0.140449 -0.33437,-0.404741 -0.463977,-0.630747 -0.33437,-0.594414 -0.787456,-1.126418 -1.347286,-1.516899 0.645865,0.01973 1.476893,0.06475 1.823237,0.714059 0.340904,0.719528 1.230748,0.870915 1.944142,0.82042 0.0011,-0.391556 0.08495,-0.773246 0.199313,-1.146146 -1.056476,-0.477211 -1.963744,-1.371079 -2.305732,-2.50189 -0.286453,-0.907151 -0.164465,-1.923876 0.304962,-2.748691 -0.106743,-0.846752 -0.18734,-1.707763 -0.08059,-2.557807 0.05445,-0.363054 0.462883,-0.608741 0.807059,-0.484799 0.825577,0.21498 1.656604,0.459572 2.408118,0.875271 0.785279,-0.152461 1.596655,-0.152461 2.379766,0.01315 0.738475,-0.416793 1.554208,-0.667968 2.367888,-0.889531 0.363719,-0.130515 0.797175,0.151368 0.817881,0.541839 0.08712,0.805077 0.0044,1.621121 -0.152462,2.413031 0.499968,0.845658 0.655653,1.897563 0.352879,2.840753 -0.341939,1.138528 -1.2612,2.020382 -2.31339,2.512927 0.342037,0.903732 0.152559,1.887552 0.201589,2.829766 1.500783,-0.556128 2.806716,-1.625506 3.648623,-2.994338 0.897481,-1.437981 1.266671,-3.197294 1.024841,-4.877613 -0.231964,-1.713251 -1.100046,-3.32778 -2.391719,-4.466298 -1.083736,-0.966308 -2.461455,-1.592591 -3.898069,-1.765895 -1.73178,-0.221562 -3.534321,0.228145 -4.967644,1.229546 -1.41372,0.976183 -2.464757,2.470069 -2.900419,4.140543 -0.346344,1.288772 -0.318031,2.669685 0.05118,3.949737 0.140507,0.350924 -0.08277,0.794048 -0.459621,0.854408 -0.314758,0.07569 -0.65784,-0.130583 -0.735174,-0.44752 -0.592499,-1.967738 -0.453088,-4.152614 0.394271,-6.02491 0.7831,-1.75273 2.172862,-3.221389 3.871933,-4.095566 z"
     fill="url(#linearGradient9689)"
     id="path242-3"
     style="display:none;fill:url(#linearGradient1);fill-opacity:1;stroke-width:0.097669" />
  <path
     d="m 29.961116,30.340069 v 0 c 0.316683,0 0.573988,0.257306 0.573988,0.573989 v 0 c 0,0.316684 -0.257305,0.573609 -0.573988,0.573609 v 0 h -2.377411 c -0.158342,0 -0.325438,0.122562 -0.372636,0.273672 l -0.631464,2.009342 c -0.237512,0.755168 -1.072994,1.368362 -1.864702,1.368362 h -0.387481 c -0.791709,0 -1.384349,-0.640599 -1.323067,-1.430024 l 0.559905,-7.199602 c 0.06128,-0.789425 0.428208,-1.90505 0.818353,-2.490458 v 0 c 0.390526,-0.585027 1.350092,-1.060052 2.141801,-1.060052 h 5.497048 v 0 c 0.316683,0 0.573989,0.257305 0.573989,0.573989 v 0 c 0,0.316683 -0.257306,0.573608 -0.573989,0.573608 v 0 H 26.56438 c -0.475025,0 -1.057769,0.29651 -1.300991,0.661534 v 0 c -0.242841,0.365023 -0.475406,1.045208 -0.518797,1.51833 l -0.651638,7.133753 c -0.02893,0.315542 0.204779,0.571325 0.521462,0.571325 h 0.186509 c 0.316683,0 0.650876,-0.245125 0.745652,-0.547345 l 0.717867,-2.283014 c 0.142356,-0.452949 0.643644,-0.821018 1.11867,-0.821018 z m 4.851119,-6.233565 v 0 c -0.316683,0 -0.573608,-0.256925 -0.573608,-0.573608 v 0 c 0,-0.316684 0.256925,-0.573989 0.573608,-0.573989 v 0 h 1.66335 c 0.791709,0 1.751275,0.475025 2.141801,1.060052 v 0 c 0.390145,0.585408 0.757072,1.701033 0.818353,2.490458 l 0.559905,7.199602 c 0.06128,0.789425 -0.531358,1.430024 -1.323067,1.430024 h -0.61129 c -0.791709,0 -1.708645,-0.581221 -2.046263,-1.297565 l -0.987353,-2.094222 c -0.06737,-0.143117 -0.250834,-0.259589 -0.409176,-0.259589 h -2.257893 v 0 c -0.316683,0 -0.573608,-0.256925 -0.573608,-0.573609 v 0 c 0,-0.316683 0.256925,-0.573989 0.573608,-0.573989 v 0 h 2.619491 c 0.316683,0 0.683229,0.232565 0.818353,0.519179 l 1.232097,2.6134 c 0.135123,0.286233 0.501669,0.518798 0.818352,0.518798 h 0.536688 c 0.316683,0 0.55039,-0.255783 0.521462,-0.571325 l -0.651637,-7.133753 c -0.04339,-0.473122 -0.275957,-1.153307 -0.518798,-1.51833 v 0 c -0.243222,-0.365024 -0.825966,-0.661534 -1.300991,-0.661534 z m -8.52914,2.748143 v 0.750601 h 0.942438 c 0.153394,0 0.277859,0.124466 0.277859,0.27786 v 0.942438 h 0.750221 v -0.942819 c 0,-0.153394 0.124465,-0.277859 0.277859,-0.277859 h 0.942819 v -0.74984 h -0.942819 c -0.153394,0 -0.277859,-0.124466 -0.277859,-0.277859 V 25.63435 h -0.750221 v 0.942438 c 0,0.153394 -0.124465,0.277859 -0.277859,0.277859 z m 9.411439,0.29004 c 0,-0.315161 0.255783,-0.570944 0.570944,-0.570944 0.315161,0 0.570944,0.255783 0.570944,0.570944 0,0.315161 -0.255783,0.570944 -0.570944,0.570944 -0.315161,0 -0.570944,-0.255783 -0.570944,-0.570944 z m -2.283776,0 c 0,-0.315161 0.255783,-0.570944 0.570944,-0.570944 0.315161,0 0.570944,0.255783 0.570944,0.570944 0,0.315161 -0.255783,0.570944 -0.570944,0.570944 -0.315161,0 -0.570944,-0.255783 -0.570944,-0.570944 z m 1.712832,-1.712832 c 0.315161,0 0.570944,0.255783 0.570944,0.570944 0,0.315161 -0.255783,0.570944 -0.570944,0.570944 -0.315161,0 -0.570944,-0.255783 -0.570944,-0.570944 0,-0.315161 0.255783,-0.570944 0.570944,-0.570944 z m -7.898057,-0.353604 h 1.305939 c 0.153394,0 0.277859,0.124465 0.277859,0.277859 v 0.942819 h 0.942819 c 0.153394,0 0.277859,0.124465 0.277859,0.277859 v 1.305939 l -3.8e-4,3.81e-4 v 0 c 0,0.153393 -0.124466,0.277859 -0.27786,0.277478 h -0.942818 v 0.942819 c 0,0.153394 -0.124466,0.277859 -0.277479,0.277859 h -1.305939 c -0.153393,0 -0.277859,-0.124465 -0.277859,-0.277859 v -0.942819 h -0.942438 c -0.153394,0 -0.27786,-0.124085 -0.27786,-0.277478 v -1.305939 c 0,-0.153394 0.124466,-0.27786 0.27786,-0.27786 h 0.942438 V 25.35611 c 0,-0.153394 0.124466,-0.277859 0.277859,-0.277859 z m 7.898057,2.63738 c 0.315161,0 0.570944,0.255783 0.570944,0.570944 0,0.315161 -0.255783,0.570943 -0.570944,0.570943 -0.315161,0 -0.570944,-0.255782 -0.570944,-0.570943 0,-0.315161 0.255783,-0.570944 0.570944,-0.570944 z"
     fill-rule="evenodd"
     fill="url(#_lgradient_4)"
     id="path2"
     style="display:none;isolation:isolate;fill:url(#_lgradient_4);stroke-width:0.380629" />
</svg>
