<?xml version="1.0" encoding="UTF-8" standalone="no"?>
<!-- Generator: Gravit.io -->

<svg
   width="48pt"
   height="48pt"
   style="isolation:isolate"
   version="1.1"
   viewBox="0 0 48 48"
   id="svg1785"
   sodipodi:docname="user-desktop.svg"
   inkscape:version="1.3.2 (091e20ef0f, 2023-11-25, custom)"
   xmlns:inkscape="http://www.inkscape.org/namespaces/inkscape"
   xmlns:sodipodi="http://sodipodi.sourceforge.net/DTD/sodipodi-0.dtd"
   xmlns:xlink="http://www.w3.org/1999/xlink"
   xmlns="http://www.w3.org/2000/svg"
   xmlns:svg="http://www.w3.org/2000/svg">
  <sodipodi:namedview
     id="namedview1787"
     pagecolor="#ffffff"
     bordercolor="#666666"
     borderopacity="1.0"
     inkscape:showpageshadow="2"
     inkscape:pageopacity="0.0"
     inkscape:pagecheckerboard="0"
     inkscape:deskcolor="#d1d1d1"
     inkscape:document-units="pt"
     showgrid="false"
     inkscape:zoom="10.429825"
     inkscape:cx="23.106811"
     inkscape:cy="34.516399"
     inkscape:current-layer="svg1785" />
  <defs
     id="defs1775">
    <linearGradient
       id="linearGradient9696"
       x1="-242.73724"
       x2="65.464256"
       y1="63.105663"
       y2="-186.20456"
       gradientTransform="matrix(0.076412,0,0,0.076412,42.548038,38.228263)"
       gradientUnits="userSpaceOnUse"
       xlink:href="#linearGradient9689">
      <stop
         stop-color="#00f1fa"
         offset="0"
         id="stop1763" />
      <stop
         stop-color="#006cff"
         offset="1"
         id="stop1765" />
    </linearGradient>
    <linearGradient
       id="linearGradient9689"
       x1="32.5"
       x2="32.5"
       y1="60.355"
       y2="4.0213"
       gradientTransform="matrix(.27643 0 0 .27643 23.585 20.816)"
       gradientUnits="userSpaceOnUse">
      <stop
         stop-color="#00f1fa"
         offset="0"
         id="stop1768" />
      <stop
         stop-color="#006cff"
         offset="1"
         id="stop1770" />
    </linearGradient>
    <linearGradient
       id="linearGradient9682"
       x1="1.5012839"
       x2="86.695702"
       y1="80.433716"
       y2="11.518287"
       gradientTransform="matrix(.27643 0 0 .27643 23.585 20.816)"
       gradientUnits="userSpaceOnUse"
       xlink:href="#linearGradient9689" />
    <linearGradient
       id="linearGradient9686"
       x1="-71.03347"
       x2="-71.03347"
       y1="80.433716"
       y2="-57.397144"
       gradientTransform="matrix(.27643 0 0 .27643 23.585 20.816)"
       gradientUnits="userSpaceOnUse"
       xlink:href="#linearGradient9689" />
    <linearGradient
       inkscape:collect="always"
       xlink:href="#linearGradient9689"
       id="linearGradient1"
       gradientUnits="userSpaceOnUse"
       gradientTransform="matrix(.27643 0 0 .27643 23.585 20.816)"
       x1="14.438418"
       y1="56.728138"
       x2="28.633329"
       y2="-0.12299813" />
    <linearGradient
       inkscape:collect="always"
       xlink:href="#linearGradient962"
       id="linearGradient495"
       gradientUnits="userSpaceOnUse"
       gradientTransform="matrix(46.1,0,0,37.1,0.95,5.45)"
       x1="0.5"
       y1="1.013485"
       x2="1.010846"
       y2="0.5" />
    <linearGradient
       id="linearGradient962"
       x1="0"
       y1="0.5"
       x2="1"
       y2="0.5"
       gradientTransform="matrix(46.1,0,0,37.1,0.95,9.95)"
       gradientUnits="userSpaceOnUse"
       spreadMethod="pad">
      <stop
         offset="0"
         stop-opacity="1"
         style="stop-color:#00ddff;stop-opacity:1;"
         id="stop958" />
      <stop
         offset="1"
         stop-opacity="1"
         style="stop-color:#006cff;stop-opacity:1;"
         id="stop960" />
    </linearGradient>
  </defs>
  <g
     id="path1777"
     style="display:none">
    <path
       id="path2294"
       style="color:#000000;fill:url(#linearGradient9682);fill-rule:evenodd;-inkscape-stroke:none"
       d="m 3.9492188,4.949707 c -1.9265276,0 -3.49951177,1.5729842 -3.49951177,3.4995118 V 20.500488 c 0,0.850113 0.69969147,1.549805 1.54980467,1.549805 0.8501133,0 1.5512696,-0.699692 1.5512696,-1.549805 V 9.0512695 c 0,-0.5574675 0.4430208,-1.0004882 1.0004882,-1.0004882 H 16.36377 l 2.542968,2.5429687 c 0.599796,0.599795 1.587217,0.599795 2.187012,0 0.599795,-0.5997957 0.599795,-1.587216 0,-2.1870117 L 18.490723,5.8022461 C 17.965346,5.2768694 17.173112,4.949707 16.429688,4.949707 Z M 24.650391,9.9492188 c -0.714439,0 -1.527719,0.2737542 -2.099121,0.7016602 l -6.401368,4.798828 c -0.312596,0.234094 -1.11044,0.499512 -1.5,0.499512 H 9 c -0.8501132,0 -1.5512694,0.701156 -1.5512695,1.551269 0,0.850113 0.7011563,1.549805 1.5512695,1.549805 h 6.350098 c 0.714438,0 1.527718,-0.27229 2.099121,-0.700195 l 6.399902,-4.798828 c 0.312597,-0.234094 1.11044,-0.500977 1.5,-0.500977 H 43.44873 c 0.557468,0 1.000489,0.443021 1.000489,1.000488 V 38.94873 c 0,0.557468 -0.443021,1.000489 -1.000489,1.000489 H 4.5512695 c -0.5574674,0 -1.0004883,-0.443021 -1.0004882,-1.000489 V 28.5 c 0,-0.850113 -0.7011563,-1.55127 -1.5512696,-1.55127 -0.8501132,0 -1.54980467,0.701157 -1.54980467,1.55127 v 11.050781 c 0,1.926528 1.57298417,3.499512 3.49951177,3.499512 H 44.050781 c 1.926528,0 3.499512,-1.572984 3.499512,-3.499512 V 13.44873 c 0,-1.926528 -1.572984,-3.4995113 -3.499512,-3.4995112 z" />
  </g>
  <path
     id="path7874"
     style="color:#000000;isolation:isolate;fill:url(#linearGradient9696);stroke-width:0.27643;-inkscape-stroke:none"
     d="m 25.841835,20.78249 c -0.358108,-0.0033 -0.721379,0.0084 -1.083984,0.08643 l -0.0059,0.0029 -0.104004,0.02051 v 0.04395 c -0.874609,0.277205 -1.562291,1.027472 -1.630371,1.911621 v 0.0015 c -0.03001,0.474456 -0.0123,0.944369 -0.01318,1.40625 -0.01329,0.256822 0.08531,0.543086 0.335449,0.70166 0.437904,0.313963 1.113039,0.0714 1.211426,-0.449707 l 0.0015,-0.0059 v -0.0059 c 0.05821,-0.524098 -0.0076,-1.029967 0.03076,-1.513183 0.02687,-0.344927 0.367552,-0.662104 0.748535,-0.681152 0.74114,-0.03072 1.495953,0.02125 2.260254,-0.02344 h 0.0059 0.0059 c 0.588869,-0.08042 0.845206,-0.839895 0.429199,-1.245117 -0.15888,-0.17283 -0.371637,-0.229517 -0.569824,-0.243164 -0.200154,-0.01378 -0.397057,0.0083 -0.553711,0 h -0.0059 -0.0073 c -0.343631,0.01517 -0.696579,-0.004 -1.054687,-0.0073 z m 4.231933,0.147949 c -0.365429,-0.02469 -0.692514,0.293767 -0.660644,0.637207 0.0023,0.328419 0.326913,0.612767 0.675293,0.585937 2.546697,0.0096 5.093563,-0.0027 7.63916,0.0059 0.52143,-0.0161 0.984851,0.421048 0.971191,0.912597 0.0091,1.625999 -0.0013,3.251932 0.0044,4.87793 -2.378298,0.0107 -4.757321,0.0076 -7.136719,0.02051 -0.339249,-0.01396 -0.64699,0.264258 -0.65039,0.583008 -0.02961,0.335939 0.282992,0.649736 0.641601,0.640136 2.380498,0.02468 4.762081,-0.02275 7.142578,-0.0088 -0.0057,0.5721 0.02242,1.145808 -0.01172,1.716797 -0.0523,0.48938 -0.573286,0.837456 -1.081055,0.788086 -4.060396,-0.0043 -8.121945,0.0043 -12.181641,0 -0.514579,0.01932 -0.98924,-0.398971 -0.98584,-0.88623 -0.01709,-1.324299 0.01105,-2.647893 -0.01172,-3.971192 0.0136,-0.460439 -0.612604,-0.765348 -1.001953,-0.486328 -0.25843,0.14598 -0.298165,0.447405 -0.285645,0.706055 0.01142,1.287999 -0.0156,2.576359 0.01172,3.864258 0.0376,1.055039 1.036316,1.982902 2.157715,1.993652 1.549398,0.0011 3.09855,0.01064 4.647949,-0.0044 -0.907299,0.762 -1.772632,1.566992 -2.667481,2.340821 -0.184429,0.1642 -0.40948,0.338311 -0.41748,0.599121 -0.03644,0.362759 0.319475,0.687265 0.703125,0.651855 2.660597,0.0032 5.323166,0.0032 7.984863,0 0.38368,0.03436 0.728672,-0.298195 0.689942,-0.657715 -0.01705,-0.308039 -0.31054,-0.487652 -0.52002,-0.684082 -0.864099,-0.744899 -1.683776,-1.53815 -2.575195,-2.252929 1.561898,0.02356 3.125501,0.0088 4.6875,0.0088 1.163439,-0.015 2.17267,-1.015676 2.15332,-2.109375 0.0023,-2.612298 0.0068,-5.226082 0,-7.838379 -0.0217,-1.067939 -1.021516,-2.020323 -2.157715,-2.033203 -2.587697,-0.0043 -5.177439,-0.0032 -7.765137,0 z m 1.497071,12.219726 c 0.803699,0.7008 1.59078,1.419465 2.397949,2.118164 -1.604098,0.0043 -3.206448,0.0047 -4.810547,0.0015 C 29.96994,34.57113 30.76025,33.84998 31.570839,33.1502 Z" />
  <path
     d="m33.045 31.545h-6.113c-0.213 0-0.387-0.173-0.387-0.386v-7.727c0-0.213 0.174-0.387 0.387-0.387h13.136c0.213 0 0.387 0.174 0.387 0.387v1.159c0 0.426 0.346 0.773 0.772 0.773 0.427 0 0.773-0.347 0.773-0.773v-1.159c0-1.066-0.866-1.932-1.932-1.932h-13.136c-1.066 0-1.932 0.866-1.932 1.932v7.727c0 1.066 0.866 1.932 1.932 1.932h4.568v3.091h1.545v-3.091h0.955v3.091h1.545v-3.091h4.523c1.066 0 1.932-0.866 1.932-1.932v-3.091c0-0.426-0.346-0.773-0.773-0.773-0.426 0-0.772 0.347-0.772 0.773v3.091c0 0.213-0.174 0.386-0.387 0.386h-6.068zm-24.045-12.995c-0.58 0-1.05-0.47-1.05-1.05s0.47-1.05 1.05-1.05h5.65c0.552 0 1.358-0.269 1.8-0.6l6.4-4.8c0.442-0.331 1.248-0.6 1.8-0.6h19.4c1.656 0 3 1.344 3 3v26.1c0 1.656-1.344 3-3 3h-40.1c-1.656 0-3-1.344-3-3v-11.05c0-0.58 0.47-1.05 1.05-1.05s1.05 0.47 1.05 1.05v10.45c0 0.828 0.672 1.5 1.5 1.5h38.9c0.828 0 1.5-0.672 1.5-1.5v-24.9c0-0.828-0.672-1.5-1.5-1.5h-18.1c-0.552 0-1.358 0.269-1.8 0.6l-6.4 4.8c-0.442 0.331-1.248 0.6-1.8 0.6h-6.35zm-5.95 1.95c0 0.58-0.47 1.05-1.05 1.05s-1.05-0.47-1.05-1.05v-12.05c0-1.656 1.344-3 3-3h12.48c0.552 0 1.317 0.317 1.707 0.707l2.603 2.603c0.408 0.408 0.408 1.072 0 1.48s-1.072 0.408-1.48 0l-2.69-2.69h-12.02c-0.828 0-1.5 0.672-1.5 1.5v11.45zm25.427 15.682h10.046c0.426 0 0.772 0.346 0.772 0.773 0 0.426-0.346 0.772-0.772 0.772h-10.046c-0.426 0-0.772-0.346-0.772-0.772 0-0.427 0.346-0.773 0.772-0.773z"
     display="none"
     fill-rule="evenodd"
     id="path1783"
     style="fill:url(#linearGradient1)" />
  <path
     id="path5672"
     style="color:#000000;isolation:isolate;fill:url(#linearGradient495);fill-rule:evenodd;-inkscape-stroke:none"
     d="m 3.949219,4.949707 c -1.926528,0 -3.499512,1.5729842 -3.499512,3.4995118 V 20.500488 c 0,0.850113 0.699691,1.549805 1.549805,1.549805 0.850113,0 1.551269,-0.699692 1.551269,-1.549805 V 9.0512695 c 0,-0.5574675 0.443021,-1.0004882 1.000488,-1.0004882 H 16.36377 l 2.542968,2.5429687 c 0.599796,0.599795 1.587217,0.599795 2.187012,0 0.599795,-0.5997957 0.599795,-1.587216 0,-2.1870117 L 18.490723,5.8022461 C 17.965346,5.2768694 17.173112,4.949707 16.429688,4.949707 Z m 20.701172,4.9995118 c -0.714439,0 -1.527719,0.2737542 -2.099121,0.7016602 l -6.401368,4.798828 c -0.312596,0.234094 -1.11044,0.499512 -1.5,0.499512 H 9 c -0.850113,0 -1.551269,0.701156 -1.551269,1.551269 0,0.850113 0.701156,1.549805 1.551269,1.549805 h 6.350098 c 0.714438,0 1.527718,-0.27229 2.099121,-0.700195 l 6.399902,-4.798828 c 0.312597,-0.234094 1.11044,-0.500977 1.5,-0.500977 H 43.44873 c 0.557468,0 1.000489,0.443021 1.000489,1.000488 V 38.94873 c 0,0.557468 -0.443021,1.000489 -1.000489,1.000489 H 4.551269 c -0.557467,0 -1.000488,-0.443021 -1.000488,-1.000489 V 28.5 c 0,-0.850113 -0.701156,-1.55127 -1.551269,-1.55127 -0.850114,0 -1.549805,0.701157 -1.549805,1.55127 v 11.050781 c 0,1.926528 1.572984,3.499512 3.499512,3.499512 h 40.101562 c 1.926528,0 3.499512,-1.572984 3.499512,-3.499512 V 13.44873 c 0,-1.926528 -1.572984,-3.4995113 -3.499512,-3.4995112 z" />
</svg>
