<?xml version="1.0" encoding="UTF-8" standalone="no"?>
<svg
   width="16"
   height="16"
   viewBox="0 0 16 16"
   fill="none"
   version="1.1"
   id="svg6216"
   sodipodi:docname="folder-videos.svg"
   inkscape:version="1.3.2 (091e20ef0f, 2023-11-25, custom)"
   xmlns:inkscape="http://www.inkscape.org/namespaces/inkscape"
   xmlns:sodipodi="http://sodipodi.sourceforge.net/DTD/sodipodi-0.dtd"
   xmlns:xlink="http://www.w3.org/1999/xlink"
   xmlns="http://www.w3.org/2000/svg"
   xmlns:svg="http://www.w3.org/2000/svg">
  <sodipodi:namedview
     id="namedview6218"
     pagecolor="#ffffff"
     bordercolor="#666666"
     borderopacity="1.0"
     inkscape:showpageshadow="2"
     inkscape:pageopacity="0.0"
     inkscape:pagecheckerboard="0"
     inkscape:deskcolor="#d1d1d1"
     showgrid="false"
     inkscape:zoom="118"
     inkscape:cx="9.5084746"
     inkscape:cy="3.5847458"
     inkscape:current-layer="svg6216" />
  <path
     d="m 45.195942,105.36404 c 1.276203,0 2.505875,0.44567 3.416499,1.25053 0.890685,0.7849 1.395847,1.86914 1.395847,2.9933 0,1.12414 -0.505162,2.20838 -1.395847,2.99329 -0.910624,0.80487 -2.140296,1.25053 -3.416499,1.25053 H 23.301077 c -8.720726,0 -15.799667,-7.08414 -15.799667,-15.811251 V 29.959565 c 0,-8.727118 7.078941,-15.811257 15.799667,-15.811257 h 81.397843 c 8.72073,0 15.79967,7.084139 15.79967,15.811257 v 68.080874 c 0,8.727111 -7.07894,15.811251 -15.79967,15.811251 H 82.804055 c -1.276203,0 -2.505875,-0.44567 -3.416501,-1.25053 -0.890685,-0.78491 -1.395847,-1.86915 -1.395847,-2.99329 0,-1.12416 0.505162,-2.2084 1.395847,-2.9933 0.910626,-0.80487 2.140298,-1.25053 3.416501,-1.25053 h 16.790051 c 6.228144,0 11.286424,-5.06201 11.286424,-11.294712 V 33.930677 c 0,-6.239363 -5.05828,-11.301359 -11.286424,-11.301359 H 28.405891 c -6.228142,0 -11.286424,5.061996 -11.286424,11.301359 v 60.138652 c 0,6.232701 5.058282,11.294711 11.286424,11.294711 z m 23.204299,-35.673446 -4.599647,2.434541 c -5.922381,3.139641 -10.734737,0.239488 -10.734737,-6.47217 v -3.305926 c 0,-6.711643 4.812356,-9.611815 10.734737,-6.472175 l 4.599647,2.434548 c 5.929026,3.13964 5.929026,8.241541 0,11.381182 z M 84.857945,71.965496 54.082832,88.26899 C 48.153807,91.408624 43.341459,88.508476 43.341459,81.803463 V 46.196536 c 0,-6.711638 4.812348,-9.605154 10.741373,-6.465525 l 30.775113,16.303494 c 8.295322,4.39682 8.295322,11.534171 0,15.930991 z"
     fill-rule="evenodd"
     fill="url(#_lgradient_9)"
     id="path7071"
     style="display:none;isolation:isolate;fill:url(#linearGradient7985);fill-opacity:1;stroke-width:6.64937"
     sodipodi:nodetypes="scscsssssssssscscssssssssssccsscccccssccc" />
  <g
     id="path5697"
     transform="matrix(0.12281122,0,0,0.12281122,0.14008173,0.14008204)"
     style="display:none">
    <path
       id="path7768"
       style="color:#000000;isolation:isolate;fill:url(#linearGradient5722);fill-rule:evenodd;-inkscape-stroke:none"
       d="m 23.303013,13.649601 c -8.991487,0 -16.301061,7.319483 -16.301061,16.316964 v 68.066868 c 0,8.997477 7.309574,16.316967 16.301061,16.316967 h 21.899083 c 1.392603,0 2.727962,-0.47556 3.737316,-1.3677 0.991684,-0.87391 1.574444,-2.09761 1.574444,-3.37154 0,-1.27395 -0.582758,-2.49763 -1.574444,-3.37153 -1.009352,-0.89212 -2.344711,-1.38361 -3.737316,-1.38361 H 28.408028 c -5.95721,0 -10.782556,-4.82039 -10.782556,-10.782552 V 33.92653 c 0,-5.969116 4.825346,-10.798458 10.782556,-10.798458 h 71.183948 c 5.957214,0 10.782554,4.829341 10.782554,10.798458 v 60.146938 c 0,5.962162 -4.82534,10.782552 -10.782554,10.782552 H 82.797907 c -1.392602,0 -2.72796,0.49148 -3.737316,1.38361 -0.991686,0.8739 -1.574443,2.09758 -1.574444,3.37153 0,1.27393 0.58276,2.49763 1.574444,3.37154 1.009354,0.89212 2.344712,1.3677 3.737316,1.3677 h 21.899083 c 8.99149,0 16.30106,-7.31949 16.30106,-16.316967 V 29.966565 c 0,-8.997481 -7.30957,-16.316964 -16.30106,-16.316964 z" />
  </g>
  <path
     inkscape:connector-curvature="0"
     style="color:#000000;font-style:normal;font-variant:normal;font-weight:normal;font-stretch:normal;font-size:medium;line-height:normal;font-family:Sans;-inkscape-font-specification:Sans;text-indent:0;text-align:start;text-decoration:none;text-decoration-line:none;letter-spacing:normal;word-spacing:normal;text-transform:none;writing-mode:lr-tb;direction:ltr;baseline-shift:baseline;text-anchor:start;display:none;overflow:visible;visibility:visible;isolation:isolate;fill:url(#linearGradient4557);fill-opacity:1;fill-rule:nonzero;stroke:none;stroke-width:0.231707;marker:none;enable-background:accumulate"
     d="M 6.4203181,5.0855378 10.667952,7.675977 c 0.248548,0.1599375 0.247506,0.4502195 0,0.6095164 L 6.4203181,10.875931 C 5.6356376,11.354463 5.1491162,10.853686 5.1460275,10.571174 V 7.980735 5.3902957 c 0,-0.4785593 0.7886214,-0.6009511 1.2742906,-0.3047579 z M 6.065897,7.9808576 6.0659031,10.15963 9.4501926,7.9808871 6.0658925,5.8021149 Z"
     id="path3787-74-1"
     sodipodi:nodetypes="sccsscssccccc" />
  <defs
     id="defs6214">
    <linearGradient
       id="paint0_linear"
       x1="64"
       y1="112.75"
       x2="64"
       y2="15.25"
       gradientUnits="userSpaceOnUse">
      <stop
         stop-color="#54D863"
         id="stop6201" />
      <stop
         offset="1"
         stop-color="#E5F230"
         id="stop6203" />
    </linearGradient>
    <linearGradient
       id="paint1_linear"
       x1="64"
       y1="112.75"
       x2="64"
       y2="15.25"
       gradientUnits="userSpaceOnUse">
      <stop
         stop-color="#54D863"
         id="stop6206" />
      <stop
         offset="1"
         stop-color="#E5F230"
         id="stop6208" />
    </linearGradient>
    <clipPath
       id="clip0">
      <rect
         width="128"
         height="128"
         fill="#ffffff"
         id="rect6211"
         x="0"
         y="0" />
    </clipPath>
    <linearGradient
       inkscape:collect="always"
       xlink:href="#linearGradient6165"
       id="linearGradient5722"
       gradientUnits="userSpaceOnUse"
       gradientTransform="matrix(306.42174,0,0,246.78069,-152.35635,-99.337546)"
       x1="0.57326013"
       y1="0.86590219"
       x2="0.89208555"
       y2="0.52396363" />
    <linearGradient
       inkscape:collect="always"
       id="linearGradient6165">
      <stop
         style="stop-color:#e5f230;stop-opacity:1;"
         offset="0"
         id="stop6161" />
      <stop
         style="stop-color:#54d864;stop-opacity:1;"
         offset="1"
         id="stop6163" />
    </linearGradient>
    <linearGradient
       inkscape:collect="always"
       xlink:href="#linearGradient6165"
       id="linearGradient4557"
       gradientUnits="userSpaceOnUse"
       gradientTransform="matrix(0.0054864,0.00353207,0.00548635,-0.00353203,0.62581028,7.6802491)"
       x1="1592.6567"
       y1="-248.57373"
       x2="-158.04489"
       y2="1502.1439" />
    <linearGradient
       id="linearGradient1512"
       x1="0"
       y1="0.5"
       x2="1"
       y2="0.5"
       gradientTransform="matrix(46.1,0,0,37.1,0.95,5.45)"
       gradientUnits="userSpaceOnUse">
      <stop
         offset="0"
         stop-opacity="1"
         style="stop-color:#bf00ff;stop-opacity:1;"
         id="stop1508" />
      <stop
         offset="0.98695654"
         stop-opacity="1"
         style="stop-color:#6033ff;stop-opacity:1;"
         id="stop1510" />
    </linearGradient>
    <linearGradient
       inkscape:collect="always"
       xlink:href="#linearGradient6165"
       id="linearGradient7985"
       gradientUnits="userSpaceOnUse"
       gradientTransform="matrix(306.42174,0,0,246.78069,-152.35635,-99.337546)"
       x1="0.52169198"
       y1="0.66187328"
       x2="0.89045554"
       y2="0.66187328" />
    <linearGradient
       id="linearGradient1"
       x1="30.272779"
       y1="97.95237"
       x2="95.840515"
       y2="30.000217"
       gradientUnits="userSpaceOnUse"
       gradientTransform="matrix(0.11475449,0,0,0.11475449,0.65571862,0.65570372)">
      <stop
         id="stop1"
         offset="0"
         style="stop-color:#e5f230;stop-opacity:1;" />
      <stop
         offset="1"
         id="stop2"
         style="stop-color:#24d864;stop-opacity:1;" />
    </linearGradient>
  </defs>
  <path
     d="m 1.5536042,4.1148635 c -0.2968976,0.00329 -0.5510403,0.272186 -0.5470064,0.5713396 -0.00401,0.8345286 -0.014519,1.6698724 0.00401,2.5035874 -0.00968,0.8026504 0,1.6053113 -0.00568,2.4079503 -0.011291,0.4659032 0.1904043,0.9072722 0.4380925,1.2889912 0.029048,0.03678 0.087135,0.111978 0.1161794,0.148757 0.2783422,0.303239 0.6204364,0.545187 1.005277,0.687413 0.4948558,0.181634 1.0259164,0.177491 1.5457543,0.173429 l 0.019425,-1.53e-4 c 0.588163,-0.0017 1.1763142,0.01308 1.765269,0 0.6688231,0.0025 1.3376815,-0.0057 2.0065163,-0.0057 0.6026819,8e-4 1.2045574,-0.01144 1.807236,-0.0025 0.2630061,0.03187 0.5219957,-0.07929 0.6930377,-0.282001 0.372745,-0.445454 0.195242,-1.073196 0.225102,-1.6053 C 10.549356,9.6500823 10.092704,9.4637218 9.8151702,9.7072989 9.4932611,9.9950004 9.6659206,10.484612 9.6296114,10.863864 c -0.3453186,0 -0.6906265,8.03e-4 -1.0359337,0 -0.6720714,0.01064 -1.3441428,0.0025 -2.0162024,0.01144 -0.5833088,-0.0073 -1.1674206,0.01146 -1.75074,0.0025 C 4.2773021,10.862214 3.72546,10.902263 3.178448,10.839337 2.6750081,10.74533 2.2191693,10.393057 2.0666838,9.8879195 L 2.0263388,9.7718445 C 1.9956848,8.8613138 2.0223288,7.9483157 2.0134358,7.0369588 l -3.46e-5,-0.00552 c -0.00321,-0.6348909 -0.00642,-1.2689549 -0.00401,-1.9030312 0.4598671,-8.215e-4 0.9197454,0 1.3804278,-8.215e-4 0.6470658,-0.00329 1.2941094,-0.00733 1.9419676,-0.00568 0.5397473,0 1.0794957,8.091e-4 1.6200465,0 0.5566974,0.017969 1.1214607,-0.048243 1.6725004,0.061304 0.141986,0.049849 0.2791526,0.1160515 0.4066214,0.1961616 0.2888373,0.1871643 0.4776313,0.4936852 0.567186,0.8239024 0.055669,0.6408121 0.00968,1.2848953 0.029048,1.9273478 0.00167,0.1054362 0.033075,0.2076021 0.081488,0.2999675 0.063734,0.054755 0.1274806,0.1087077 0.1928335,0.1618386 0.3412686,0.1087071 0.7099746,-0.029431 1.0455966,0.075197 0.08795,0.1577417 0.02663,0.3563699 0.0484,0.5304639 -0.0017,0.144671 0.0573,0.2803564 0.107308,0.4135984 0.05002,0.061302 0.102452,0.1217777 0.156513,0.1806348 0.75598,0.5860393 1.55801,1.1083453 2.330767,1.6723173 0.258312,0.183091 0.543018,0.415227 0.881084,0.353111 0.315461,-0.04659 0.5421,-0.356381 0.525232,-0.673506 0.009,-1.9878456 -0.0024,-3.9756688 0.0032,-5.9634919 0.0017,-0.2010723 -0.0072,-0.4021454 -0.03546,-0.6015888 -0.05156,-0.095624 -0.116973,-0.1830779 -0.17653,-0.2729996 -0.257509,-0.1847202 -0.612445,-0.1994318 -0.871446,-0.00899 -0.620363,0.455265 -1.220643,0.9383243 -1.837082,1.3993277 -0.137143,0.1095332 -0.306578,0.2116992 -0.354166,0.395605 -0.0702,0.2043433 0.01936,0.4233868 0.164581,0.5688838 0.181529,0.074381 0.401744,0.1495825 0.575252,0.012254 0.518806,-0.3816964 1.016496,-0.7920244 1.524858,-1.1868026 v 1.26e-4 c -0.0017,0.1045756 -0.0032,0.2091636 -0.0032,0.3145537 0.0032,1.5644362 -8.03e-4,3.1296881 0,4.6941247 -0.608316,-0.425028 -1.211924,-0.8582376 -1.820926,-1.2824509 -0.05492,-0.044946 -0.110589,-0.086628 -0.16947,-0.1258629 0.0121,-0.2215098 0.02179,-0.4430207 0.025,-0.665346 -0.0089,-0.1585566 -0.03308,-0.3154949 -0.06857,-0.4699774 -0.08391,-0.1422152 -0.217838,-0.2738266 -0.392104,-0.2730006 -0.317881,-0.018801 -0.635751,0 -0.95283,-0.013893 l 0.02824,-0.033518 C 10.62285,6.8506157 10.739024,6.0087305 10.319482,5.3058018 10.059689,4.8823927 9.6804935,4.5121254 9.2141549,4.3388465 l -0.05809,-0.033493 C 8.6800629,4.0871127 8.145158,4.0969243 7.6344546,4.1018243 c -0.5341019,0.00486 -1.0682261,-0.00981 -1.6015022,0 H 4.0837361 c -0.8439171,0.013877 -1.6870177,-0.00576 -2.53013,0.013061 z"
     id="path1"
     style="isolation:isolate;fill:url(#linearGradient1);stroke-width:0.114754" />
</svg>
