<?xml version="1.0" encoding="UTF-8" standalone="no"?>
<svg
   width="128"
   height="128"
   viewBox="0 0 128 128"
   fill="none"
   version="1.1"
   id="svg2"
   sodipodi:docname="printer.svg"
   inkscape:version="1.3.2 (091e20ef0f, 2023-11-25, custom)"
   xmlns:inkscape="http://www.inkscape.org/namespaces/inkscape"
   xmlns:sodipodi="http://sodipodi.sourceforge.net/DTD/sodipodi-0.dtd"
   xmlns="http://www.w3.org/2000/svg"
   xmlns:svg="http://www.w3.org/2000/svg">
  <sodipodi:namedview
     id="namedview2"
     pagecolor="#ffffff"
     bordercolor="#666666"
     borderopacity="1.0"
     inkscape:showpageshadow="2"
     inkscape:pageopacity="0.0"
     inkscape:pagecheckerboard="0"
     inkscape:deskcolor="#d1d1d1"
     inkscape:zoom="6.4765625"
     inkscape:cx="63.922799"
     inkscape:cy="76.506634"
     inkscape:current-layer="svg2" />
  <path
     d="m 124.25,38 h -19 V 18.75 c 0,-1.2537 -0.626,-2.4247 -1.67,-3.1202 L 81.08,0.62975 C 80.464,0.219 79.7402,0 79,0 H 26.25 C 24.179,0 22.5,1.679 22.5,3.75 V 38 H 3.75 C 1.679,38 0,39.679 0,41.75 v 52.5 C 0,96.321 1.679,98 3.75,98 H 22.5 v 26.25 c 0,2.071 1.679,3.75 3.75,3.75 h 75.25 c 2.071,0 3.75,-1.679 3.75,-3.75 V 98 h 19 c 2.071,0 3.75,-1.679 3.75,-3.75 V 41.75 C 128,39.679 126.321,38 124.25,38 Z M 82.75,10.757 89.1145,15 H 82.75 Z M 30,7.5 h 45.25 v 11.25 c 0,2.071 1.679,3.75 3.75,3.75 h 18.75 v 19.25 c 0,2.0677 -1.6823,3.75 -3.75,3.75 H 33.75 C 31.6823,45.5 30,43.8177 30,41.75 Z m 67.75,113 H 30 V 86.75 C 30,84.6823 31.6823,83 33.75,83 H 94 c 2.0677,0 3.75,1.6823 3.75,3.75 z m 22.75,-30 H 105.25 V 86.75 C 105.25,80.5468 100.203,75.5 94,75.5 H 33.75 c -6.2032,0 -11.25,5.0468 -11.25,11.25 v 3.75 h -15 v -45 H 23.145 C 24.693,49.8647 28.8612,53 33.75,53 H 94 c 4.8888,0 9.057,-3.1353 10.605,-7.5 H 120.5 Z m -34,0 H 41.25 c -2.071,0 -3.75,1.679 -3.75,3.75 0,2.071 1.679,3.75 3.75,3.75 H 86.5 c 2.071,0 3.75,-1.679 3.75,-3.75 0,-2.071 -1.679,-3.75 -3.75,-3.75 z m 0,15 H 41.25 c -2.071,0 -3.75,1.679 -3.75,3.75 0,2.071 1.679,3.75 3.75,3.75 H 86.5 c 2.071,0 3.75,-1.679 3.75,-3.75 0,-2.071 -1.679,-3.75 -3.75,-3.75 z"
     fill="url(#paint0_linear)"
     id="path1"
     style="fill:url(#paint0_linear)"
     sodipodi:nodetypes="scsccssscsssscsssscssssccccccsscsssscccsssscccssssccccsscccssssssssssssss" />
  <defs
     id="defs2">
    <linearGradient
       id="paint0_linear"
       x1="0"
       y1="128"
       x2="128"
       y2="64"
       gradientUnits="userSpaceOnUse">
      <stop
         id="stop1"
         offset="0"
         style="stop-color:#e5f230;stop-opacity:1;" />
      <stop
         offset="1"
         id="stop2"
         style="stop-color:#24d864;stop-opacity:1;" />
    </linearGradient>
  </defs>
</svg>
