<?xml version="1.0" encoding="UTF-8" standalone="no"?>
<svg
   width="128"
   height="128"
   viewBox="0 0 128 128"
   fill="none"
   version="1.1"
   id="svg2"
   sodipodi:docname="printer.svg"
   inkscape:version="1.3.2 (091e20ef0f, 2023-11-25, custom)"
   xmlns:inkscape="http://www.inkscape.org/namespaces/inkscape"
   xmlns:sodipodi="http://sodipodi.sourceforge.net/DTD/sodipodi-0.dtd"
   xmlns="http://www.w3.org/2000/svg"
   xmlns:svg="http://www.w3.org/2000/svg">
  <sodipodi:namedview
     id="namedview2"
     pagecolor="#ffffff"
     bordercolor="#666666"
     borderopacity="1.0"
     inkscape:showpageshadow="2"
     inkscape:pageopacity="0.0"
     inkscape:pagecheckerboard="0"
     inkscape:deskcolor="#d1d1d1"
     inkscape:zoom="4.5796213"
     inkscape:cx="42.034043"
     inkscape:cy="66.708573"
     inkscape:current-layer="svg2" />
  <path
     d="m 124.25,38 h -19 V 18.750001 c 0,-1.253701 -0.626,-2.424701 -1.67001,-3.120201 L 81.08,0.629751 C 80.464,0.219 79.7402,0 79,0 H 26.249999 c -2.070999,0 -3.75,1.679 -3.75,3.750001 V 38 H 3.750001 C 1.679,38 0,39.679 0,41.750001 V 94.25 C 0,96.321 1.679,98 3.750001,98 h 18.749998 v 26.25 c 0,2.07101 1.679001,3.75 3.75,3.75 H 101.5 c 2.071,0 3.75,-1.67899 3.75,-3.75 V 98 h 19 c 2.07101,0 3.75,-1.679 3.75,-3.75 V 41.750001 C 128,39.679 126.32101,38 124.25,38 Z M 82.750001,10.757 89.114501,15 h -6.3645 z M 30,7.500001 h 45.249999 v 11.25 c 0,2.070999 1.679001,3.749998 3.750001,3.749998 h 18.75 v 19.250002 c 0,2.0677 -1.6823,3.749998 -3.75,3.749998 H 33.750001 C 31.682299,45.499999 30,43.817701 30,41.750001 Z M 97.75,120.49999 H 30 V 86.750001 C 30,84.682299 31.682299,83 33.750001,83 H 94 c 2.0677,0 3.75,1.682299 3.75,3.750001 z M 120.49999,90.5 H 105.25 v -3.749999 c 0,-6.2032 -5.047,-11.250002 -11.25,-11.250002 H 33.750001 c -6.2032,0 -11.250002,5.046802 -11.250002,11.250002 V 90.5 H 7.500001 V 45.499999 H 23.145 C 24.693,49.864699 28.861199,53 33.750001,53 H 94 c 4.8888,0 9.057,-3.135301 10.605,-7.500001 h 15.89499 z m -33.999991,0 h -45.25 c -2.070999,0 -3.75,1.679 -3.75,3.75 0,2.071 1.679001,3.75 3.75,3.75 h 45.25 C 88.571,98 90.25,96.321 90.25,94.25 c 0,-2.071 -1.679,-3.75 -3.750001,-3.75 z m 0,15.00001 h -45.25 c -2.070999,0 -3.75,1.67899 -3.75,3.74999 0,2.07101 1.679001,3.75001 3.75,3.75001 h 45.25 c 2.071001,0 3.750001,-1.679 3.750001,-3.75001 0,-2.071 -1.679,-3.74999 -3.750001,-3.74999 z"
     fill="url(#paint0_linear)"
     id="path1"
     style="fill:url(#paint0_linear);stroke-width:1"
     sodipodi:nodetypes="scsccssscsssscsssscssssccccccsscsssscccsssscccssssccccsscccssssssssssssss" />
  <defs
     id="defs2">
    <linearGradient
       id="paint0_linear"
       x1="65.734047"
       y1="151.03279"
       x2="128"
       y2="64"
       gradientUnits="userSpaceOnUse">
      <stop
         id="stop1"
         offset="0"
         style="stop-color:#e5f230;stop-opacity:1;" />
      <stop
         offset="1"
         id="stop2"
         style="stop-color:#24d864;stop-opacity:1;" />
    </linearGradient>
  </defs>
</svg>
