<?xml version="1.0" encoding="UTF-8" standalone="no"?>
<svg
   version="1.1"
   id="svg815"
   width="48"
   height="48"
   viewBox="0 0 48.000003 47.999999"
   sodipodi:docname="firefox.svg"
   inkscape:version="1.3.2 (091e20ef0f, 2023-11-25, custom)"
   xmlns:inkscape="http://www.inkscape.org/namespaces/inkscape"
   xmlns:sodipodi="http://sodipodi.sourceforge.net/DTD/sodipodi-0.dtd"
   xmlns:xlink="http://www.w3.org/1999/xlink"
   xmlns="http://www.w3.org/2000/svg"
   xmlns:svg="http://www.w3.org/2000/svg"
   xmlns:rdf="http://www.w3.org/1999/02/22-rdf-syntax-ns#"
   xmlns:cc="http://creativecommons.org/ns#"
   xmlns:dc="http://purl.org/dc/elements/1.1/">
  <metadata
     id="metadata821">
    <rdf:RDF>
      <cc:Work
         rdf:about="">
        <dc:format>image/svg+xml</dc:format>
        <dc:type
           rdf:resource="http://purl.org/dc/dcmitype/StillImage" />
      </cc:Work>
    </rdf:RDF>
  </metadata>
  <defs
     id="defs819">
    <linearGradient
       id="linearGradient850">
      <stop
         style="stop-color:#00f1fa;stop-opacity:1;"
         offset="0"
         id="stop846" />
      <stop
         style="stop-color:#006cff;stop-opacity:1;"
         offset="1"
         id="stop848" />
    </linearGradient>
    <linearGradient
       gradientUnits="userSpaceOnUse"
       y2="24.569523"
       x2="47.312813"
       y1="48.583832"
       x1="23.663206"
       id="linearGradient848"
       xlink:href="#linearGradient850"
       inkscape:collect="always"
       gradientTransform="matrix(1,0,0,0.98491837,0.33679463,-0.19897356)" />
  </defs>
  <sodipodi:namedview
     pagecolor="#101513"
     bordercolor="#666666"
     borderopacity="1"
     objecttolerance="10"
     gridtolerance="10"
     guidetolerance="10"
     inkscape:pageopacity="0"
     inkscape:pageshadow="2"
     inkscape:window-width="1366"
     inkscape:window-height="706"
     id="namedview817"
     showgrid="true"
     inkscape:zoom="11.313708"
     inkscape:cx="16.61701"
     inkscape:cy="18.738331"
     inkscape:window-x="0"
     inkscape:window-y="25"
     inkscape:window-maximized="1"
     inkscape:current-layer="svg815"
     showguides="false"
     inkscape:document-rotation="0"
     inkscape:pagecheckerboard="0"
     inkscape:snap-grids="false"
     inkscape:showpageshadow="2"
     inkscape:deskcolor="#101513">
    <inkscape:grid
       type="xygrid"
       id="grid935"
       originx="0"
       originy="0"
       spacingy="1"
       spacingx="1"
       units="px"
       visible="true" />
  </sodipodi:namedview>
  <g
     id="g1057"
     style="stroke:#000000;stroke-opacity:1"
     transform="translate(-354.43123,-557.87405)" />
  <path
     id="path4549"
     style="fill:none;stroke:url(#linearGradient848);stroke-width:3.49647;stroke-linecap:round;stroke-linejoin:round;stroke-miterlimit:4;stroke-dasharray:none;stroke-opacity:1"
     d="M 6.019833,16.395088 5.7639179,17.420806 M 31.839961,29.54927 c 0,0 14.565034,-5.927569 6.056013,-21.9394332 M 31.99498,3.3812445 c 0,0 -7.544147,-2.88483131 -15.48273,0 m 3.317742,-0.8266162 c 0,0 -3.433855,0.1889892 -6.952656,2.4968609 0,0 7.969574,-4.55640014 16.03082,-0.7017896 1.000641,0.6520408 7.072888,2.8810986 9.383296,10.3187134 0,0 2.352435,6.360919 -2.317976,11.874168 0,0 -3.783029,4.81293 -9.349132,3.210248 0,0 -4.929861,-0.920874 -6.145441,-5.985371 0,0 -1.15161,-3.397696 1.471498,-6.41077 m 0,0 c 0,0 -5.630086,0.192331 -5.310186,8.462205 m 0,0 c 0,0 -5.374182,-9.872558 6.909636,-17.8218921 0,0 -10.87629,-2.2437788 -17.7859331,9.4238051 0,0 0.959674,-4.872179 1.5354804,-6.731298 0,0 -7.42147318,5.449145 -4.5424531,19.55281 0,0 2.5591264,8.782734 11.2601618,13.398479 0,0 8.828987,5.449144 20.409046,-0.384635 0,0 5.949974,-2.564308 9.340809,-9.872571 0,0 4.094606,-8.654521 0.895693,-16.860291 0,0 -3.838688,-10.0007832 -12.667675,-13.1420555"
     inkscape:connector-curvature="0"
     sodipodi:nodetypes="cccccccccccccccccccccccccc" />
</svg>
