<?xml version="1.0" encoding="UTF-8" standalone="no"?>
<svg
   width="128"
   height="128"
   viewBox="0 0 128 128"
   fill="none"
   version="1.1"
   id="svg10"
   sodipodi:docname="gimp.svg"
   inkscape:version="1.3.2 (091e20ef0f, 2023-11-25, custom)"
   xmlns:inkscape="http://www.inkscape.org/namespaces/inkscape"
   xmlns:sodipodi="http://sodipodi.sourceforge.net/DTD/sodipodi-0.dtd"
   xmlns:xlink="http://www.w3.org/1999/xlink"
   xmlns="http://www.w3.org/2000/svg"
   xmlns:svg="http://www.w3.org/2000/svg">
  <sodipodi:namedview
     id="namedview10"
     pagecolor="#ffffff"
     bordercolor="#666666"
     borderopacity="1.0"
     inkscape:showpageshadow="2"
     inkscape:pageopacity="0.0"
     inkscape:pagecheckerboard="0"
     inkscape:deskcolor="#d1d1d1"
     inkscape:zoom="4.1542523"
     inkscape:cx="26.839968"
     inkscape:cy="70.289424"
     inkscape:current-layer="svg10" />
  <defs
     id="defs10">
    <linearGradient
       id="linearGradient1"
       inkscape:collect="always">
      <stop
         style="stop-color:#ff69ff;stop-opacity:1;"
         offset="0"
         id="stop11" />
      <stop
         style="stop-color:#9033dd;stop-opacity:1;"
         offset="1"
         id="stop13" />
    </linearGradient>
    <linearGradient
       inkscape:collect="always"
       xlink:href="#linearGradient1"
       id="linearGradient10"
       gradientUnits="userSpaceOnUse"
       gradientTransform="matrix(-4.1741393,0,0,4.1741393,157.277,-41.284226)"
       x1="28.751453"
       y1="39.155811"
       x2="8.4779806"
       y2="25.42067" />
    <linearGradient
       inkscape:collect="always"
       xlink:href="#linearGradient1"
       id="linearGradient11"
       gradientUnits="userSpaceOnUse"
       gradientTransform="matrix(-1,0,0,1,127.37716,0)"
       x1="94.563881"
       y1="121.71202"
       x2="6.0000019"
       y2="64.379631" />
  </defs>
  <g
     id="g11"
     transform="translate(0.31142,-0.37963152)">
    <path
       fill-rule="evenodd"
       clip-rule="evenodd"
       d="m 20.512742,8.8058251 c 3.581558,0 7.016076,1.4227439 9.549003,3.9551909 0.05917,0.0591 0.116623,0.119854 0.17258,0.182129 l 46.075599,51.313792 c 1.117866,1.245456 1.484274,2.993446 0.959177,4.582748 -0.525096,1.589291 -1.860791,2.775627 -3.500663,3.109353 -1.454704,0.296403 -3.186352,1.245458 -4.648868,2.699393 -1.481172,1.47183 -2.253642,3.023787 -2.413112,4.138549 -0.252037,1.765109 -1.488168,3.232271 -3.184801,3.780706 -1.695898,0.548436 -3.556687,0.08324 -4.795128,-1.200338 L 10.931056,31.826897 C 8.4191509,29.297096 7.008,25.876568 7.008,22.309792 c 0,-3.580777 1.4227995,-7.016087 3.955704,-9.548617 l 3.328752,3.329124 -3.328752,-3.329276 c 2.532939,-2.532454 5.967467,-3.9551979 9.549038,-3.9551979 z m -2.94833,10.5564159 v 0 c 0.78181,-0.781813 1.842893,-1.22134 2.94833,-1.22134 1.071973,0 2.101167,0.412279 2.875211,1.14977 L 65.163941,65.8159 c -0.947483,0.672907 -1.828097,1.41971 -2.624702,2.210856 -0.621547,0.617675 -1.219003,1.290574 -1.772887,2.009377 L 17.622769,25.318016 c -0.01879,-0.01996 -0.03804,-0.03965 -0.05853,-0.05992 -0.781798,-0.781814 -1.221334,-1.842122 -1.221334,-2.948328 0,-1.105428 0.439536,-2.165736 1.221334,-2.947546 z"
       id="path10"
       style="display:inline;isolation:isolate;fill:url(#linearGradient10);fill-opacity:1;stroke-width:0.777925"
       sodipodi:nodetypes="scccsccccccscccscssccccccscc" />
    <path
       fill-rule="evenodd"
       clip-rule="evenodd"
       d="m 48.004857,9.21379 c 7.9802,-2.32174 16.4878,-2.70371 24.694,-1.4979 20.6022,2.98081 38.777903,18.06461 45.454413,37.64961 3.79038,10.7325 4.21991,22.5733 1.38654,33.5754 -0.41445,2.2019 -2.80325,3.7522 -4.99605,3.2505 -2.4189,-0.3446 -4.0617,-3.0258 -3.3232,-5.3326 2.5169,-9.931 2.0195,-20.6485 -1.7784,-30.1901 -4.8077,-12.3876 -14.973103,-22.5808 -27.376603,-27.5014 -9.5626,-3.8871 -20.3761,-4.5986 -30.3833,-2.0746 -1.7181,0.5093 -3.8205,0.5692 -5.1242,-0.8463 -2.2079,-1.9623 -1.3865,-6.1189 1.4468,-7.03261 z m -34.5337,39.91161 c -2.291,-1.2208 -5.5240005,0.1797 -6.0660005,2.7336 -2.834,12.4326 -1.357,25.8088 4.2120005,37.3052 9.149,19.4198 30.0606,33.0288 51.7639,32.5348 3.1198,0.217 5.373,-3.513 3.8357,-6.179 -0.9344,-2.03 -3.3459,-2.419 -5.3504,-2.374 -15.1848,-0.173 -29.7894,-8.389 -38.3952,-20.7239 -7.701,-10.8223 -10.565,-24.8351 -7.867,-37.8069 0.618,-2.0521 -0.076,-4.5387 -2.133,-5.4898 z m 56.6806,38.7956 c 2.8861,-8.1486 12.1473,-13.3613 20.6625,-11.4664 7.1663,1.3556 13.142003,7.4071 14.264803,14.582 0.6556,4.6959 1.9065,9.6094 5.1995,13.1964 2.6224,2.816 6.3751,4.074 9.96952,5.123 0.91934,0.165 1.16047,1.588 0.64052,2.217 -2.87858,3.849 -7.58824,6.119 -12.35074,6.441 -11.521903,0.644 -23.608903,-2.165 -32.606303,-9.624 -6.0963,-4.651 -8.5604,-13.3465 -5.7798,-20.469 z m 26.5628,5.3325 c -0.2637,-2.9059 -1.9592,-5.6096 -4.4535,-7.13 -3.8205,-2.4865 -9.3064,-1.6777 -12.2302,1.7975 -3.3533,3.565 -3.1499,9.6614 0.422,13.002 6.2017,5.654 14.6566,8.261 22.945703,8.583 -3.820503,-4.591 -5.870203,-10.4032 -6.684003,-16.2525 z"
       id="path11"
       style="display:none;fill:url(#linearGradient11)"
       sodipodi:nodetypes="ccccccccccccccccccccccccccccccccccc" />
    <path
       fill-rule="evenodd"
       clip-rule="evenodd"
       d="m 70.151757,87.921 c 2.8861,-8.1486 12.1473,-13.3613 20.6625,-11.4664 7.1663,1.3556 13.142003,7.4071 14.264803,14.582 0.6556,4.6959 1.9065,9.6094 5.1995,13.1964 2.6224,2.816 6.3751,4.074 9.96952,5.123 0.91934,0.165 1.16047,1.588 0.64052,2.217 -2.87858,3.849 -7.58824,6.119 -12.35074,6.441 -11.521903,0.644 -23.608903,-2.165 -32.606303,-9.624 -6.0963,-4.651 -8.5604,-13.3465 -5.7798,-20.469 z m 26.5628,5.3325 c -0.2637,-2.9059 -1.9592,-5.6096 -4.4535,-7.13 -3.8205,-2.4865 -9.3064,-1.6777 -12.2302,1.7975 -3.3533,3.565 -3.1499,9.6614 0.422,13.002 6.2017,5.654 14.6566,8.261 22.945703,8.583 -3.820503,-4.591 -5.870203,-10.4032 -6.684003,-16.2525 z"
       id="path1"
       style="display:inline;fill:url(#linearGradient11)"
       sodipodi:nodetypes="ccccccccccccccc" />
  </g>
</svg>
