<?xml version="1.0" encoding="UTF-8" standalone="no"?>
<svg
   width="128"
   height="128"
   viewBox="0 0 128 128"
   fill="none"
   version="1.1"
   id="svg3"
   sodipodi:docname="theme-config.svg"
   inkscape:version="1.3.2 (091e20ef0f, 2023-11-25, custom)"
   xmlns:inkscape="http://www.inkscape.org/namespaces/inkscape"
   xmlns:sodipodi="http://sodipodi.sourceforge.net/DTD/sodipodi-0.dtd"
   xmlns:xlink="http://www.w3.org/1999/xlink"
   xmlns="http://www.w3.org/2000/svg"
   xmlns:svg="http://www.w3.org/2000/svg">
  <sodipodi:namedview
     id="namedview3"
     pagecolor="#ffffff"
     bordercolor="#666666"
     borderopacity="1.0"
     inkscape:showpageshadow="2"
     inkscape:pageopacity="0.0"
     inkscape:pagecheckerboard="0"
     inkscape:deskcolor="#d1d1d1"
     inkscape:zoom="4.5796213"
     inkscape:cx="62.341399"
     inkscape:cy="55.68146"
     inkscape:current-layer="svg3" />
  <path
     d="M 108,8 H 36 C 30.1652,8 24.5695,10.3179 20.4437,14.4437 16.3179,18.5695 14,24.1652 14,30 v 36 c 0.0132,3.709 1.4924,7.2623 4.1151,9.8849 C 20.7377,78.5076 24.291,79.9868 28,80 H 47.55 L 46,101.55 V 102 c 0,4.774 1.8964,9.352 5.2721,12.728 3.3756,3.376 7.954,5.272 12.7279,5.272 4.7739,0 9.3523,-1.896 12.7279,-5.272 C 80.1036,111.352 82,106.774 82,102 v -0.45 L 80.45,80 H 100 c 3.709,-0.0132 7.262,-1.4924 9.885,-4.1151 C 112.508,73.2623 113.987,69.709 114,66 V 14 c 0,-1.5913 -0.632,-3.1174 -1.757,-4.2426 C 111.117,8.6321 109.591,8 108,8 Z M 36,20 h 46 v 14 c 0,1.5913 0.6321,3.1174 1.7574,4.2426 C 84.8826,39.3679 86.4087,40 88,40 89.5913,40 91.1174,39.3679 92.2426,38.2426 93.3679,37.1174 94,35.5913 94,34 V 20 h 8 V 48 H 26 V 30 c 0.0131,-2.6481 1.0709,-5.184 2.9435,-7.0565 C 30.816,21.0709 33.3519,20.0131 36,20 Z m 64,48 H 78.3 c -1.3699,0.0111 -2.7233,0.3009 -3.9778,0.8516 -1.2544,0.5507 -2.3837,1.3508 -3.3191,2.3517 -0.9355,1.001 -1.6575,2.1817 -2.1222,3.4705 C 68.4162,75.9626 68.2186,77.3324 68.3,78.7 l 1.7,23.5 c 0,1.591 -0.6321,3.117 -1.7574,4.243 -1.1252,1.125 -2.6513,1.757 -4.2426,1.757 -1.5913,0 -3.1174,-0.632 -4.2426,-1.757 C 58.6321,105.317 58,103.791 58,102.2 L 59.7,78.7 C 59.7814,77.3324 59.5838,75.9626 59.1191,74.6738 58.6544,73.385 57.9324,72.2043 56.9969,71.2033 56.0615,70.2024 54.9322,69.4023 53.6778,68.8516 52.4233,68.3009 51.07,68.0111 49.7,68 H 28 C 27.4696,68 26.9609,67.7893 26.5858,67.4142 26.2107,67.0391 26,66.5304 26,66 v -6 h 76 v 6 c 0,0.5304 -0.211,1.0391 -0.586,1.4142 C 101.039,67.7893 100.53,68 100,68 Z"
     fill="url(#paint0_linear_619_31)"
     id="path1"
     style="display:inline;fill:url(#linearGradient5);fill-opacity:1" />
  <defs
     id="defs3">
    <linearGradient
       id="paint0_linear_619_31"
       x1="41.5"
       y1="122"
       x2="114"
       y2="66"
       gradientUnits="userSpaceOnUse"
       gradientTransform="translate(0,-2)"
       xlink:href="#linearGradient1">
      <stop
         id="stop1"
         offset="0"
         style="stop-color:#c900ff;stop-opacity:1;" />
      <stop
         offset="1"
         id="stop3"
         style="stop-color:#6440ff;stop-opacity:1;" />
    </linearGradient>
    <linearGradient
       inkscape:collect="always"
       xlink:href="#linearGradient1"
       id="linearGradient4"
       x1="16.882898"
       y1="35.999908"
       x2="36"
       y2="24"
       gradientUnits="userSpaceOnUse"
       gradientTransform="matrix(4.6667024,0,0,4.6667024,-48.000863,-48.000857)" />
    <linearGradient
       id="linearGradient1"
       inkscape:collect="always">
      <stop
         style="stop-color:#b900ff;stop-opacity:1;"
         offset="0"
         id="stop11" />
      <stop
         style="stop-color:#6444ff;stop-opacity:1;"
         offset="1"
         id="stop13" />
    </linearGradient>
    <linearGradient
       inkscape:collect="always"
       xlink:href="#linearGradient1"
       id="linearGradient5"
       x1="41.076473"
       y1="120"
       x2="114"
       y2="64"
       gradientUnits="userSpaceOnUse" />
  </defs>
  <path
     fill-rule="evenodd"
     clip-rule="evenodd"
     d="m 104.90208,8 c -4.0042,0 -7.844013,1.590633 -10.675814,4.42192 -0.06615,0.06608 -0.130551,0.134016 -0.193202,0.203597 L 42.520368,69.99454 c -1.249789,1.39242 -1.659398,3.34668 -1.072338,5.12352 0.587059,1.77684 2.080346,3.10317 3.91373,3.47628 1.626393,0.33138 3.562362,1.39242 5.197435,3.01792 1.655968,1.64552 2.519599,3.38061 2.697891,4.62692 0.281752,1.97339 1.663773,3.61369 3.560647,4.22684 1.895965,0.61316 3.976346,0.0931 5.360956,-1.34198 L 115.6143,33.73763 c 2.80845,-2.828316 4.38612,-6.652477 4.38612,-10.640148 0,-4.003321 -1.59069,-7.844005 -4.42249,-10.675384 l -3.72154,3.721971 3.72154,-3.722142 C 112.74609,9.590633 108.90629,8 104.90208,8 Z m 3.29622,11.802112 v 0 c -0.87406,-0.874069 -2.06036,-1.365466 -3.29622,-1.365466 -1.19848,0 -2.34911,0.460933 -3.21449,1.285448 L 54.981864,71.73747 c 1.059318,0.75231 2.043841,1.58724 2.934423,2.47174 0.69493,0.69056 1.362875,1.44287 1.9821,2.24649 L 108.1331,26.460685 c 0.021,-0.0224 0.0423,-0.04434 0.0651,-0.06695 0.87406,-0.874069 1.36546,-2.0595 1.36546,-3.296241 0,-1.235874 -0.4914,-2.421298 -1.36546,-3.295367 z M 35.178747,78.32995 c -10.250179,0 -18.394846,8.3928 -18.394846,18.60507 0,1.255 -0.495044,2.09341 -1.203695,2.70569 -0.831081,0.71926 -1.828589,0.99931 -2.362343,0.99931 -1.97181,0 -3.7753386,1.11151 -4.6615804,2.87269 -0.8861718,1.76205 -0.7037854,3.872 0.4714536,5.45576 C 14.03855,115.71924 22.478829,120 30.786598,120 c 12.665372,0 22.78717,-10.40011 22.78717,-23.06498 0,-10.21227 -8.144912,-18.60507 -18.395021,-18.60507 z m -7.958186,18.60507 c 0,-4.6043 3.626377,-8.16842 7.958186,-8.16842 4.331668,0 7.958396,3.56412 7.958396,8.16842 0,7.05604 -5.602843,12.62833 -12.350545,12.62833 -2.739121,0 -5.598748,-0.81753 -8.127377,-2.24822 2.642205,-2.35608 4.56134,-5.81843 4.56134,-10.38011 z"
     id="path2-6"
     style="display:none;isolation:isolate;fill:url(#linearGradient4);fill-opacity:1;stroke-width:0.869718" />
</svg>
