<?xml version="1.0" encoding="UTF-8" standalone="no"?>
<!-- Generator: Gravit.io -->

<svg
   style="isolation:isolate"
   viewBox="0 0 48 48"
   width="48pt"
   height="48pt"
   version="1.1"
   id="svg2"
   sodipodi:docname="plasma-search.svg"
   inkscape:version="1.3.2 (091e20ef0f, 2023-11-25, custom)"
   xmlns:inkscape="http://www.inkscape.org/namespaces/inkscape"
   xmlns:sodipodi="http://sodipodi.sourceforge.net/DTD/sodipodi-0.dtd"
   xmlns="http://www.w3.org/2000/svg"
   xmlns:svg="http://www.w3.org/2000/svg">
  <defs
     id="defs2">
    <linearGradient
       id="_lgradient_0"
       x1="0.51808703"
       y1="0.033331186"
       x2="0.50732738"
       y2="0.96818912"
       gradientTransform="matrix(-48,0,0,46.985,58.488817,-4.8517536)"
       gradientUnits="userSpaceOnUse">
      <stop
         offset="0%"
         stop-opacity="1"
         style="stop-color:#6444ff"
         id="stop1-3" />
      <stop
         offset="1"
         stop-opacity="1"
         style="stop-color:#b900ff"
         id="stop2-6" />
    </linearGradient>
  </defs>
  <sodipodi:namedview
     id="namedview2"
     pagecolor="#505050"
     bordercolor="#ffffff"
     borderopacity="1"
     inkscape:showpageshadow="0"
     inkscape:pageopacity="0"
     inkscape:pagecheckerboard="1"
     inkscape:deskcolor="#505050"
     inkscape:document-units="pt"
     inkscape:zoom="13.234375"
     inkscape:cx="31.96222"
     inkscape:cy="32"
     inkscape:current-layer="svg2" />
  <linearGradient
     id="_lgradient_1"
     x1="0.038573404925678845"
     y1="0.12255840345239852"
     x2="0.9046571774109027"
     y2="0.9051506286909934"
     gradientTransform="matrix(-43.76,0,0,44.88,45.88,1.56)"
     gradientUnits="userSpaceOnUse">
    <stop
       offset="2.608695652173913%"
       stop-opacity="1"
       style="stop-color:#6444ff"
       id="stop1" />
    <stop
       offset="1"
       stop-opacity="1"
       style="stop-color:#b900ff"
       id="stop2" />
  </linearGradient>
  <path
     d="m 23.492,26.801 v 0 c -0.697,-0.446 -1.627,-0.242 -2.075,0.455 v 0 c -0.447,0.697 -0.245,1.624 0.452,2.069 v 0 c 1.154,0.749 2.431,1.291 3.761,1.62 3.214,0.794 6.627,0.278 9.46,-1.432 2.834,-1.71 4.88,-4.49 5.675,-7.703 0.794,-3.214 0.278,-6.627 -1.432,-9.46 -1.71,-2.834 -4.49,-4.88 -7.703,-5.675 -3.214,-0.794 -6.627,-0.278 -9.46,1.432 -2.834,1.71 -4.88,4.49 -5.675,7.703 -0.233,0.942 -0.359,1.91 -0.363,2.888 v 0 c -0.011,0.827 0.652,1.505 1.48,1.514 v 0 c 0.828,0.008 1.509,-0.656 1.52,-1.484 v 0 c 0.008,-0.739 0.098,-1.479 0.276,-2.198 0.604,-2.446 2.156,-4.555 4.311,-5.856 2.155,-1.301 4.744,-1.691 7.191,-1.086 2.446,0.604 4.555,2.156 5.856,4.311 1.301,2.155 1.691,4.744 1.086,7.191 -0.604,2.446 -2.156,4.555 -4.311,5.856 -2.155,1.301 -4.744,1.691 -7.191,1.086 -1.009,-0.249 -1.978,-0.664 -2.858,-1.231 z m -3.488,-4.015 v 0 C 19.66,22.036 18.77,21.71 18.015,22.058 v 0 c -0.754,0.348 -1.083,1.24 -0.734,1.992 v 0 c 0.222,0.477 0.468,0.94 0.751,1.38 v 0 c 0.439,0.706 1.367,0.921 2.07,0.481 v 0 c 0.703,-0.44 0.915,-1.366 0.475,-2.066 v 0 C 20.362,23.503 20.17,23.157 20.004,22.786 Z M 37.73,8.5 v 0 c 0.723,0.64 1.83,0.573 2.47,-0.15 v 0 C 40.84,7.627 40.773,6.52 40.05,5.88 v 0 C 36.9,3.1 32.83,1.56 28.63,1.56 c -4.57,0 -8.96,1.82 -12.2,5.05 -3.23,3.24 -5.05,7.63 -5.05,12.2 0,4.57 1.82,8.96 5.05,12.2 3.24,3.23 7.63,5.05 12.2,5.05 4.55,0 8.92,-1.8 12.15,-5 3.23,-3.2 5.06,-7.56 5.1,-12.11 v 0 c 0.006,-0.966 -0.774,-1.757 -1.74,-1.765 v 0 c -0.966,-0.008 -1.754,0.769 -1.76,1.735 v 0 c -0.03,3.63 -1.49,7.1 -4.07,9.65 -2.57,2.56 -6.05,3.99 -9.68,3.99 -3.65,0 -7.15,-1.45 -9.72,-4.03 -2.58,-2.57 -4.03,-6.07 -4.03,-9.72 0,-3.65 1.45,-7.15 4.03,-9.72 2.57,-2.58 6.07,-4.03 9.72,-4.03 3.35,0 6.59,1.23 9.1,3.44 z m 3.76,5.44 v 0 c 0.342,0.905 1.355,1.362 2.26,1.02 v 0 c 0.905,-0.342 1.362,-1.355 1.02,-2.26 v 0 c -0.25,-0.63 -0.53,-1.26 -0.84,-1.86 v 0 C 43.483,9.979 42.423,9.645 41.565,10.095 v 0 c -0.858,0.45 -1.188,1.51 -0.735,2.365 v 0 c 0.25,0.48 0.47,0.98 0.66,1.48 z M 13.2,31.89 v 0 c 0.651,-0.717 0.6,-1.826 -0.115,-2.475 v 0 C 12.37,28.766 11.261,28.818 10.61,29.53 v 0 l -7.27,8.02 c -0.79,0.86 -1.22,1.98 -1.22,3.14 0,1.36 0.59,2.66 1.62,3.54 l 1.2,1.04 c 0,0 0,0 0,0 0.88,0.76 2,1.17 3.15,1.17 1.36,0 2.66,-0.57 3.57,-1.57 0,0 0,0 0.01,0 l 7.27,-8.02 v 0 c 0.651,-0.717 0.6,-1.826 -0.115,-2.475 v 0 C 18.11,33.726 17.001,33.783 16.35,34.5 v 0 l -7.27,8.01 c -0.26,0.28 -0.61,0.43 -0.99,0.43 -0.31,0 -0.62,-0.11 -0.86,-0.32 l -1.2,-1.04 c 0,0 0,0 0,0 -0.26,-0.22 -0.41,-0.54 -0.41,-0.89 0,-0.29 0.11,-0.57 0.3,-0.79 0.01,0 0.01,0 0.01,0 z"
     fill-rule="evenodd"
     fill="url(#_lgradient_1)"
     id="path2"
     style="display:none" />
  <path
     d="m 23.492,26.801 v 0 c -0.697,-0.446 -1.627,-0.242 -2.075,0.455 v 0 c -0.447,0.697 -0.245,1.624 0.452,2.069 v 0 c 1.154,0.749 2.431,1.291 3.761,1.62 3.214,0.794 6.627,0.278 9.46,-1.432 2.834,-1.71 4.88,-4.49 5.675,-7.703 C 42.416601,15.124552 38.319888,8.3302944 31.63,6.675 28.416,5.881 25.003,6.397 22.17,8.107 c -2.834,1.71 -4.88,4.49 -5.675,7.703 -0.233,0.942 -0.359,1.91 -0.363,2.888 v 0 c -0.011,0.827 0.652,1.505 1.48,1.514 v 0 c 0.828,0.008 1.509,-0.656 1.52,-1.484 v 0 c 0.008,-0.739 0.098,-1.479 0.276,-2.198 0.604,-2.446 2.156,-4.555 4.311,-5.856 2.155,-1.301 4.744,-1.691 7.191,-1.086 2.446,0.604 4.555,2.156 5.856,4.311 1.301,2.155 1.691,4.744 1.086,7.191 -0.604,2.446 -2.156,4.555 -4.311,5.856 -2.155,1.301 -4.744,1.691 -7.191,1.086 -1.009,-0.249 -1.978,-0.664 -2.858,-1.231 z M 37.73,8.5 v 0 c 0.723,0.64 1.83,0.573 2.47,-0.15 v 0 C 40.84,7.627 40.773,6.52 40.05,5.88 v 0 C 36.9,3.1 32.83,1.56 28.63,1.56 c -4.57,0 -8.96,1.82 -12.2,5.05 -3.23,3.24 -5.05,7.63 -5.05,12.2 0,4.57 1.82,8.96 5.05,12.2 3.24,3.23 7.63,5.05 12.2,5.05 4.55,0 8.92,-1.8 12.15,-5 3.23,-3.2 5.06,-7.56 5.1,-12.11 v 0 c 0.006,-0.966 -0.774,-1.757 -1.74,-1.765 v 0 c -0.966,-0.008 -1.754,0.769 -1.76,1.735 v 0 c -0.03,3.63 -1.49,7.1 -4.07,9.65 -2.57,2.56 -6.05,3.99 -9.68,3.99 -3.65,0 -7.15,-1.45 -9.72,-4.03 -2.58,-2.57 -4.03,-6.07 -4.03,-9.72 0,-3.65 1.45,-7.15 4.03,-9.72 2.57,-2.58 6.07,-4.03 9.72,-4.03 3.35,0 6.59,1.23 9.1,3.44 z M 13.2,31.89 v 0 c 0.651,-0.717 0.6,-1.826 -0.115,-2.475 v 0 C 12.37,28.766 11.261,28.818 10.61,29.53 v 0 l -7.27,8.02 c -0.79,0.86 -1.22,1.98 -1.22,3.14 0,1.36 0.59,2.66 1.62,3.54 l 1.2,1.04 v 0 c 0.88,0.76 2,1.17 3.15,1.17 1.36,0 2.66,-0.57 3.57,-1.57 h 0.01 l 7.27,-8.02 v 0 c 0.651,-0.717 0.6,-1.826 -0.115,-2.475 v 0 C 18.11,33.726 17.001,33.783 16.35,34.5 v 0 l -7.27,8.01 c -0.26,0.28 -0.61,0.43 -0.99,0.43 -0.31,0 -0.62,-0.11 -0.86,-0.32 l -1.2,-1.04 v 0 C 5.77,41.36 5.62,41.04 5.62,40.69 c 0,-0.29 0.11,-0.57 0.3,-0.79 h 0.01 z"
     fill-rule="evenodd"
     fill="url(#_lgradient_1)"
     id="path3"
     sodipodi:nodetypes="csssssccccccsssssscscscscscssssssscscsssssssscscscsscssssccsccsscccssssccsccssccc"
     style="display:inline" />
  <path
     d="m 37.73,8.5 v 0 c 0.723,0.64 1.83,0.573 2.47,-0.15 v 0 C 40.84,7.627 40.773,6.52 40.05,5.88 v 0 C 36.9,3.1 32.83,1.56 28.63,1.56 c -4.57,0 -8.96,1.82 -12.2,5.05 -3.23,3.24 -5.05,7.63 -5.05,12.2 0,4.57 1.82,8.96 5.05,12.2 3.24,3.23 7.63,5.05 12.2,5.05 4.55,0 8.92,-1.8 12.15,-5 3.23,-3.2 5.06,-7.56 5.1,-12.11 v 0 c 0.006,-0.966 -0.774,-1.757 -1.74,-1.765 v 0 c -0.966,-0.008 -1.754,0.769 -1.76,1.735 v 0 c -0.03,3.63 -1.49,7.1 -4.07,9.65 -2.57,2.56 -6.05,3.99 -9.68,3.99 -3.65,0 -7.15,-1.45 -9.72,-4.03 -2.58,-2.57 -4.03,-6.07 -4.03,-9.72 0,-3.65 1.45,-7.15 4.03,-9.72 2.57,-2.58 6.07,-4.03 9.72,-4.03 3.35,0 6.59,1.23 9.1,3.44 z M 13.2,31.89 v 0 c 0.651,-0.717 0.6,-1.826 -0.115,-2.475 v 0 C 12.37,28.766 11.261,28.818 10.61,29.53 v 0 l -7.27,8.02 c -0.79,0.86 -1.22,1.98 -1.22,3.14 0,1.36 0.59,2.66 1.62,3.54 l 1.2,1.04 v 0 c 0.88,0.76 2,1.17 3.15,1.17 1.36,0 2.66,-0.57 3.57,-1.57 h 0.01 l 7.27,-8.02 v 0 c 0.651,-0.717 0.6,-1.826 -0.115,-2.475 v 0 C 18.11,33.726 17.001,33.783 16.35,34.5 v 0 l -7.27,8.01 c -0.26,0.28 -0.61,0.43 -0.99,0.43 -0.31,0 -0.62,-0.11 -0.86,-0.32 l -1.2,-1.04 v 0 C 5.77,41.36 5.62,41.04 5.62,40.69 c 0,-0.29 0.11,-0.57 0.3,-0.79 h 0.01 z"
     fill-rule="evenodd"
     fill="url(#_lgradient_1)"
     id="path4"
     sodipodi:nodetypes="sssssssscscsssssssscscscsccssssccsccsscccssssccsccsscc"
     style="display:none" />
  <path
     d="m 30.631817,8.2602464 c 0.674,0.6740004 0.673,1.7670006 -0.001,2.4400006 l -4.663,4.663 c -2.035,2.036 -2.047,5.337 -0.041,7.39 2.052,2.005 5.353,1.992 7.388,-0.043 l 4.663,-4.663 c 0.674,-0.674 1.767,-0.674 2.441,0 0.674,0.675 0.674,1.768 0,2.442 l -4.663,4.663 c -3.337,3.337 -8.729,3.391 -12.136,0.169 -0.032,-0.027 -0.063,-0.053 -0.092,-0.083 -0.015,-0.015 -0.028,-0.029 -0.042,-0.044 l -0.045,-0.042 c -0.029,-0.03 -0.055,-0.061 -0.082,-0.092 -3.223,-3.407 -3.169,-8.8 0.168,-12.137 l 4.663,-4.6630006 c 0.674,-0.674 1.768,-0.674 2.442,0 z"
     fill-rule="evenodd"
     fill="url(#_lgradient_0)"
     id="path4-7"
     sodipodi:nodetypes="scccsscsscccccsss"
     style="display:none;isolation:isolate;fill:url(#_lgradient_0)" />
  <path
     d="m 37.73,8.5 v 0 c 0.723,0.64 1.83,0.573 2.47,-0.15 v 0 C 40.84,7.627 40.773,6.52 40.05,5.88 v 0 C 36.9,3.1 32.83,1.56 28.63,1.56 c -4.57,0 -8.96,1.82 -12.2,5.05 -3.23,3.24 -5.05,7.63 -5.05,12.2 0,4.57 1.82,8.96 5.05,12.2 3.24,3.23 7.63,5.05 12.2,5.05 4.55,0 8.92,-1.8 12.15,-5 3.23,-3.2 5.06,-7.56 5.1,-12.11 v 0 c 0.006,-0.966 -0.774,-1.757 -1.74,-1.765 v 0 c -0.966,-0.008 -1.754,0.769 -1.76,1.735 v 0 c -0.03,3.63 -1.49,7.1 -4.07,9.65 -2.57,2.56 -6.05,3.99 -9.68,3.99 -3.65,0 -7.15,-1.45 -9.72,-4.03 -2.58,-2.57 -4.03,-6.07 -4.03,-9.72 0,-3.65 1.45,-7.15 4.03,-9.72 2.57,-2.58 6.07,-4.03 9.72,-4.03 3.35,0 6.59,1.23 9.1,3.44 z M 13.2,31.89 v 0 c 0.651,-0.717 0.6,-1.826 -0.115,-2.475 v 0 C 12.37,28.766 11.261,28.818 10.61,29.53 v 0 l -7.27,8.02 c -0.79,0.86 -1.22,1.98 -1.22,3.14 0,1.36 0.59,2.66 1.62,3.54 l 1.2,1.04 v 0 c 0.88,0.76 2,1.17 3.15,1.17 1.36,0 2.66,-0.57 3.57,-1.57 h 0.01 l 7.27,-8.02 v 0 c 0.651,-0.717 0.6,-1.826 -0.115,-2.475 v 0 C 18.11,33.726 17.001,33.783 16.35,34.5 v 0 l -7.27,8.01 c -0.26,0.28 -0.61,0.43 -0.99,0.43 -0.31,0 -0.62,-0.11 -0.86,-0.32 l -1.2,-1.04 v 0 C 5.77,41.36 5.62,41.04 5.62,40.69 c 0,-0.29 0.11,-0.57 0.3,-0.79 h 0.01 z"
     fill-rule="evenodd"
     fill="url(#_lgradient_1)"
     id="path5"
     sodipodi:nodetypes="sssssssscscsssssssscscscsccssssccsccsscccssssccsccsscc"
     style="display:inline" />
</svg>
