<?xml version="1.0" encoding="UTF-8" standalone="no"?>
<svg
   id="Capa_1"
   enable-background="new 0 0 511.985 511.985"
   height="512"
   viewBox="0 0 511.985 511.985"
   width="512"
   version="1.1"
   sodipodi:docname="input-mouse.svg"
   inkscape:version="1.3.2 (091e20ef0f, 2023-11-25, custom)"
   xmlns:inkscape="http://www.inkscape.org/namespaces/inkscape"
   xmlns:sodipodi="http://sodipodi.sourceforge.net/DTD/sodipodi-0.dtd"
   xmlns="http://www.w3.org/2000/svg"
   xmlns:svg="http://www.w3.org/2000/svg">
  <defs
     id="defs3" />
  <sodipodi:namedview
     id="namedview3"
     pagecolor="#ffffff"
     bordercolor="#666666"
     borderopacity="1.0"
     inkscape:showpageshadow="2"
     inkscape:pageopacity="0.0"
     inkscape:pagecheckerboard="0"
     inkscape:deskcolor="#d1d1d1"
     inkscape:zoom="1.1449053"
     inkscape:cx="128.3949"
     inkscape:cy="307.88572"
     inkscape:current-layer="Capa_1" />
  <linearGradient
     id="SVGID_1_"
     gradientUnits="userSpaceOnUse"
     x1="60.991001"
     x2="450.99475"
     y1="511.98599"
     y2="255.993">
    <stop
       offset="0"
       id="stop1"
       style="stop-color:#e5f230;stop-opacity:1;" />
    <stop
       offset="1"
       id="stop2"
       style="stop-color:#24d863;stop-opacity:1;" />
  </linearGradient>
  <g
     id="g3">
    <g
       id="g2">
      <path
         d="m450.727 70.708c-1.523-8.159-9.521-13.447-17.52-11.938-4.043.762-8.115 1.216-12.217 1.216-31.641 0-65.303-26.455-65.625-26.719-1.699-1.348-42.07-33.267-85.693-33.267h-.029c-48.896.776-88.652 43.242-88.652 94.688v28.814c-67.315 7.573-120 64.177-120 133.484v120c0 74.443 60.557 135 135 135s135-60.557 135-135v-120c0-69.307-52.685-125.911-120-133.484v-28.814c0-35.156 26.514-64.175 60-64.702 31.641 0 65.303 26.455 65.625 26.719 1.7 1.348 42.1 33.281 84.375 33.281 5.977 0 11.924-.63 17.783-1.743 8.144-1.539 13.506-9.39 11.953-17.535zm-254.736 141.277c8.262 0 15 6.724 15 15v30c0 8.276-6.738 15-15 15s-15-6.724-15-15v-30c0-8.276 6.738-15 15-15zm105 45v120c0 57.891-47.109 105-105 105s-105-47.109-105-105v-120c0-52.754 39.25-96.127 90-103.484v31.247c-17.422 6.213-30 22.707-30 42.237v30c0 24.814 20.186 45 45 45s45-20.186 45-45v-30c0-19.53-12.578-36.024-30-42.237v-31.247c50.749 7.358 90 50.73 90 103.484z"
         fill="url(#SVGID_1_)"
         id="path2"
         style="fill:url(#SVGID_1_)" />
    </g>
  </g>
</svg>
