<?xml version="1.0" encoding="UTF-8" standalone="no"?>
<svg
   width="128"
   height="128"
   viewBox="0 0 128 128"
   fill="none"
   version="1.1"
   id="svg25"
   sodipodi:docname="jockey.svg"
   inkscape:version="1.3.2 (091e20ef0f, 2023-11-25, custom)"
   xmlns:inkscape="http://www.inkscape.org/namespaces/inkscape"
   xmlns:sodipodi="http://sodipodi.sourceforge.net/DTD/sodipodi-0.dtd"
   xmlns:xlink="http://www.w3.org/1999/xlink"
   xmlns="http://www.w3.org/2000/svg"
   xmlns:svg="http://www.w3.org/2000/svg">
  <sodipodi:namedview
     id="namedview27"
     pagecolor="#ffffff"
     bordercolor="#666666"
     borderopacity="1.0"
     inkscape:pageshadow="2"
     inkscape:pageopacity="0.0"
     inkscape:pagecheckerboard="0"
     showgrid="false"
     inkscape:zoom="4.90625"
     inkscape:cx="34.038217"
     inkscape:cy="64.101911"
     inkscape:current-layer="svg25"
     inkscape:showpageshadow="2"
     inkscape:deskcolor="#d1d1d1" />
  <path
     fill-rule="evenodd"
     clip-rule="evenodd"
     d="m 23.050655,13.796742 c -1.9752,0 -3.9581,0.1466 -5.8635,0.5861 -7.9934501,1.7073 -14.1279901,8.0524 -14.1744701,14.8688 -0.01549,23.1506 -0.01549,46.3011 -0.00774,69.4457 0,8.128698 8.6751101,15.333698 18.5431101,15.492698 20.0249,0.04 40.0537,0.033 60.0833,0.025 8.0937,-0.003 16.1875,-0.007 24.281495,-0.007 10.038,0.059 19.155,-7.217 19.062,-15.524098 0.023,-13.5213 0.019,-27.0428 0.015,-40.5642 -0.003,-9.3997 -0.006,-18.7994 10e-4,-28.1991 0.263,-6.5107 -5.02,-12.7985 -12.417,-15.0601 -3.322,-1.1021 -6.962,-1.1211 -10.487,-1.0638 -8.780595,0 -17.562095,7e-4 -26.343795,0.0014 -17.5645,0.0014 -35.1302,0.0028 -52.6924,-0.0014 z m -10.7355,15.4422 c -0.1006,-3.7522 3.7025,-7.0268 8.0555,-7.7467 0.9326,-0.147 1.8809,-0.1511 2.8277,-0.1552 0.2014,-8e-4 0.4026,-0.0017 0.6037,-0.0039 12.1521,0.0085 24.3042,0.0069 36.4557,0.0053 15.189,-0.002 30.377,-0.0039 45.562095,0.0138 5.399,0 10.264,4.0325 9.992,8.5111 0.039,22.7364 0.024,45.4729 0.008,68.2097 0.255,4.464998 -4.485,8.561998 -9.922,8.529998 -22.798995,0.046 -45.603195,0.038 -68.404095,0.03 -5.0392,-0.002 -10.0782,-0.004 -15.117,-0.005 -5.1896,0.121 -10.1855,-3.555 -10.0693,-7.899298 0.0031,-9.2595 0.0012,-18.5191 -6e-4,-27.7786 -0.0028,-13.9038 -0.0056,-27.8075 0.0083,-41.7112 z m 56.4661,52.5543 c -0.8145,0.0084 -1.6439,0.0171 -2.3932,0.4223 -1.41,0.6892 -2.3712,2.4429 -2.384,4.2576 -0.109,2.5961 1.9418,5.123 4.1464,4.8627 6.4207,0.0215 12.8446,0.0166 19.2673,0.0118 2.7512,-0.0021 5.5021,-0.0041 8.2524,-0.0041 2.3264,0.3675 4.499695,-2.1749 4.3192,-4.947 -0.0319,-2.6189 -2.1024,-4.8012 -4.2744,-4.5946 -4.5394,-0.0237 -9.0805,-0.0187 -13.6214,-0.0137 -4.2232,0.0046 -8.4462,0.0093 -12.6677,-0.0092 -0.2126,0.0097 -0.4281,0.0119 -0.6446,0.0142 z"
     fill="url(#paint0_linear)"
     id="path2"
     style="fill:url(#paint0_linear)" />
  <path
     d="m 17.187155,14.382842 0.2089,0.978 0.008,-0.0017 0.0079,-0.0019 z m 5.8635,-0.5861 2e-4,-1 h -2e-4 z m -20.0379701,15.4549 -0.99999,-0.0068 -1e-5,0.0062 z m -0.00774,69.4457 h 1 v -4e-4 z m 18.5431101,15.492698 -0.0161,1 h 0.0141 z m 60.0833,0.025 4e-4,1 v 0 z m 24.281495,-0.007 0.006,-1 h -0.006 z m 19.062,-15.524098 -1,-0.0017 v 0.0129 z m 0.015,-40.5642 -1,3e-4 v 0 z m 10e-4,-28.1991 -1,-0.0404 v 0.0198 0.0199 z m -12.417,-15.0601 -0.315,0.9492 0.012,0.0037 0.011,0.0035 z m -10.487,-1.0638 v 1 h 0.008 l 0.008,-2e-4 z m -26.343795,0.0014 v 1 z m -55.3724,7.6941 -0.1558,-0.9878 -0.0074,0.0012 z m -8.0555,7.7467 1,10e-4 v -0.0139 l -3e-4,-0.0139 z m 10.8832,-7.9019 0.0043,1 v 0 z m 0.6037,-0.0039 7e-4,-1.0001 -0.0119,10e-5 z m 36.4557,0.0053 10e-5,1 z m 45.562095,0.0138 -0.001,1 h 0.001 z m 9.992,8.5111 -0.998,-0.0606 -0.002,0.0311 v 0.0312 z m 0.008,68.2097 -1,-7e-4 v 0.0289 l 10e-4,0.0289 z m -9.922,8.529998 0.005,-1 h -0.008 z m -68.404095,0.03 4e-4,-1 v 0 z m -15.117,-0.005 3e-4,-1 h -0.0118 l -0.0118,0.001 z m -10.0693,-7.899298 0.9997,0.0268 3e-4,-0.0132 v -0.0132 z m -6e-4,-27.7786 -1,2e-4 v 0 z m 54.0812,11.2654 0.4392,0.8985 0.0185,-0.0091 0.0181,-0.0098 z m 2.3932,-0.4223 -0.0104,-1 v 0 z m -4.7772,4.6799 0.9991,0.042 7e-4,-0.0174 1e-4,-0.0175 z m 4.1464,4.8627 0.0034,-1 -0.0605,-2e-4 -0.0601,0.0071 z m 19.2673,0.0118 8e-4,1 v 0 z m 8.2524,-0.0041 0.1561,-0.9878 -0.0776,-0.0122 h -0.0785 z m 4.3192,-4.947 -0.9999,0.0122 3e-4,0.0263 0.0017,0.0263 z m -4.2744,-4.5946 -0.0052,1 0.0501,3e-4 0.0499,-0.0047 z m -13.6214,-0.0137 -0.0011,-1 v 0 z m -12.6677,-0.0092 0.0044,-1 -0.025,-1e-4 -0.0249,0.0011 z m -52.0139,-66.4218 c 1.8076,-0.417 3.7096,-0.5605 5.6387,-0.5605 v -2 c -2.0212,0 -4.085,0.1496 -6.0883,0.6117 z m -13.3992901,13.9013 c 0.04239,-6.2174 5.70845,-12.2585 13.3833901,-13.8977 l -0.4177,-1.9559 c -8.3120601,1.7753 -14.9150901,8.4243 -14.9656401,15.8399 z m -0.00772,69.4384 c -0.00775,-23.1443 -0.00775,-46.2945 0.00774,-69.4446 l -2,-0.0013 c -0.01549,23.151 -0.01549,46.3019 -0.00774,69.4466 z M 21.564155,113.19104 c -4.7013,-0.076 -9.1177,-1.833 -12.3476901,-4.527 -3.23461,-2.697 -5.21152,-6.27 -5.21152,-9.966698 h -2 c 0,4.430698 2.36065,8.525698 5.93059,11.502698 3.5745201,2.981 8.4297201,4.907 13.5964201,4.99 z m 60.0669,0.024 c -20.0299,0.008 -40.0575,0.015 -60.081,-0.025 l -0.004,2 c 20.0263,0.04 40.0563,0.033 60.0857,0.025 z m 24.281795,-0.007 c -8.094195,0 -16.188195,0.004 -24.281795,0.007 l 7e-4,2 c 8.0937,-0.003 16.1874,-0.007 24.281095,-0.007 z m 18.062,-14.512898 c 0.042,3.770898 -2.009,7.398898 -5.361,10.110898 -3.347,2.708 -7.912,4.43 -12.695,4.403 l -0.012,1.999 c 5.255,0.031 10.267,-1.855 13.965,-4.847 3.693,-2.988 6.154,-7.151 6.103,-11.688198 z m 0.015,-40.5751 c 0.004,13.5216 0.008,27.042 -0.015,40.5622 l 2,0.0034 c 0.023,-13.5225 0.019,-27.0449 0.015,-40.5662 z m 10e-4,-28.2001 c -0.007,9.4003 -0.004,18.8005 -10e-4,28.2001 l 2,-6e-4 c -0.003,-9.3998 -0.006,-18.799 10e-4,-28.1982 z m -11.709,-14.103 c 7.089,2.1675 11.949,8.1274 11.709,14.0633 l 1.999,0.0807 c 0.286,-7.0854 -5.419,-13.701 -13.123,-16.0567 z m -10.179,-1.0204 c 3.537,-0.0575 7.016,-0.0285 10.156,1.0132 l 0.63,-1.8983 c -3.505,-1.1625 -7.306,-1.1717 -10.818,-1.1146 z m -26.359795,0.0016 c 8.7818,-7e-4 17.5632,-0.0014 26.343795,-0.0014 v -2 c -8.780695,0 -17.562195,7e-4 -26.343895,0.0014 z m -52.6926,-0.0014 c 17.5624,0.0042 35.1282,0.0028 52.6926,0.0014 l -1e-4,-2 c -17.5645,0.0014 -35.13,0.0028 -52.6921,-0.0014 z m -2.843,5.7089 c -2.361,0.3905 -4.5826,1.4728 -6.2154,2.9904 -1.6313,1.516 -2.7365,3.5321 -2.6765,5.7697 l 1.9993,-0.0536 c -0.0407,-1.5146 0.7053,-3.0119 2.0387,-4.2512 1.3318,-1.2377 3.1883,-2.1526 5.1803,-2.4821 z m 2.9866,-0.1686 c -0.9336,0.004 -1.9587,0.0065 -2.9792,0.1674 l 0.3116,1.9756 c 0.8446,-0.1332 1.7163,-0.1389 2.6762,-0.143 z m 0.5968,-0.0039 c -0.197,0.0022 -0.3949,0.0031 -0.5968,0.0039 l 0.0086,2 c 0.2008,-8e-4 0.4055,-0.0017 0.6105,-0.004 z m 36.4667,0.0053 c -12.1515,0.0016 -24.3032,0.0032 -36.4548,-0.0053 l -0.0014,2 c 12.1526,0.0085 24.3051,0.0069 36.4565,0.0053 z m 45.563295,0.0138 c -15.185695,-0.0177 -30.374295,-0.0158 -45.563295,-0.0138 l 3e-4,2 c 15.1891,-0.002 30.3765,-0.0039 45.560995,0.0138 z m 10.989,9.5716 c 0.16,-2.6355 -1.194,-5.0467 -3.222,-6.7596 -2.034,-1.7168 -4.827,-2.812 -7.768,-2.812 v 2 c 2.458,0 4.797,0.9211 6.477,2.3402 1.686,1.423 2.629,3.2673 2.517,5.1103 z m 0.01,68.1499 c 0.016,-22.7366 0.031,-45.4743 -0.008,-68.2121 l -2,0.0034 c 0.039,22.735 0.024,45.4703 0.008,68.2073 z m -10.928,9.529298 c 2.966,0.017 5.743,-1.089 7.754,-2.821 2.006,-1.727 3.322,-4.149 3.172,-6.766098 l -1.997,0.1142 c 0.106,1.8479 -0.821,3.707898 -2.48,5.136898 -1.655,1.424 -3.966,2.35 -6.438,2.336 z m -68.398395,0.03 c 22.8007,0.008 45.606,0.016 68.406395,-0.03 l -0.005,-2 c -22.796695,0.046 -45.599595,0.038 -68.400695,0.03 z m -15.1169,-0.005 c 5.0387,0.001 10.0777,0.003 15.1169,0.005 l 7e-4,-2 c -5.0392,-0.002 -10.0783,-0.004 -15.1171,-0.005 z m -11.0687,-8.925998 c -0.0691,2.582998 1.3807,4.864998 3.4353,6.443998 2.0605,1.583 4.8291,2.548 7.657,2.482 l -0.0467,-1.999 c -2.3617,0.055 -4.6858,-0.758 -6.3917,-2.069 -1.7117,-1.315 -2.7017,-3.044 -2.6546,-4.804498 z m -10e-4,-27.7517 c 0.0018,9.2596 0.0037,18.5188 6e-4,27.7781 l 2,7e-4 c 0.0031,-9.2599 0.0012,-18.5197 -6e-4,-27.7792 z m 0.0083,-41.7124 c -0.0139,13.9044 -0.0111,27.8087 -0.0083,41.7124 l 2,-4e-4 c -0.0028,-13.9039 -0.0056,-27.807 0.0083,-41.71 z m 55.5487,53.8572 c 0.4966,-0.2686 1.0713,-0.2931 1.9278,-0.302 l -0.0208,-1.9999 c -0.7725,0.0081 -1.8566,8e-4 -2.8585,0.5427 z m -1.8599,3.3851 c 0.0108,-1.5233 0.8267,-2.8791 1.8233,-3.3662 l -0.8783,-1.7969 c -1.8234,0.8913 -2.93,3.0428 -2.9449,5.1489 z m 3.0293,3.8625 c -0.6682,0.0789 -1.426,-0.2568 -2.0574,-1.0097 -0.6254,-0.7458 -1.016,-1.7859 -0.9727,-2.8179 l -1.9983,-0.0839 c -0.0656,1.564 0.5147,3.0854 1.4386,4.187 0.9179,1.0945 2.2878,1.8921 3.8243,1.7107 z m 19.3838,0.0049 c -6.4231,0.0048 -12.8449,0.0097 -19.2632,-0.0118 l -0.0067,2 c 6.4231,0.0215 12.849,0.0166 19.2714,0.0118 z m 8.2531,-0.0041 c -2.7508,0 -5.5021,0.002 -8.2531,0.0041 l 0.0015,2 c 2.7512,-0.0021 5.5017,-0.0041 8.2516,-0.0041 z m 3.3213,-3.8822 c 0.0723,1.1129 -0.331,2.1854 -0.9774,2.9311 -0.6494,0.7491 -1.4521,1.0796 -2.1878,0.9633 l -0.3121,1.9755 c 1.5907,0.2513 3.0376,-0.5057 4.0112,-1.6288 0.976495,-1.1266 1.569495,-2.7114 1.461495,-4.3707 z m -3.1817,-3.6638 c 0.7117,-0.0678 1.4838,0.2515 2.115,0.9256 0.6276,0.6704 1.0519,1.6332 1.0647,2.6856 l 1.999395,-0.0244 c -0.019,-1.5664 -0.646,-3.0043 -1.604195,-4.0281 -0.955,-1.0201 -2.3041,-1.6887 -3.7644,-1.5498 z m -13.7151,-0.0093 c 4.5415,-0.005 9.0794,-0.01 13.6151,0.0137 l 0.0105,-1.9999 c -4.5431,-0.0238 -9.0874,-0.0188 -13.6278,-0.0138 z m -12.6732,-0.0092 c 4.2247,0.0185 8.4505,0.0138 12.6732,0.0092 l -0.0022,-2 c -4.2236,0.0046 -8.4439,0.0093 -12.6622,-0.0092 z m -0.6298,0.0141 c 0.2134,-0.0022 0.4465,-0.0045 0.6796,-0.0151 l -0.0909,-1.998 c -0.1921,0.0088 -0.3899,0.0109 -0.6095,0.0132 z"
     fill="url(#paint1_linear)"
     id="path4"
     style="fill:url(#paint1_linear);fill-opacity:1" />
  <path
     d="m 33.999855,45.779042 18,18 -18,18"
     stroke="url(#paint2_linear)"
     stroke-width="12"
     stroke-linecap="round"
     stroke-linejoin="round"
     id="path6"
     style="stroke:url(#paint2_linear)" />
  <defs
     id="defs23">
    <linearGradient
       id="paint0_linear"
       x1="7.9356799"
       y1="110.421"
       x2="125.991"
       y2="30.1422"
       gradientUnits="userSpaceOnUse"
       gradientTransform="translate(-1.4512416e-4,-0.22095769)">
      <stop
         stop-color="#00f1fa"
         id="stop8"
         style="stop-color:#00f1fa;stop-opacity:1;"
         offset="0" />
      <stop
         offset="1"
         stop-color="#006cff"
         id="stop10"
         style="stop-color:#006cff;stop-opacity:1;" />
    </linearGradient>
    <linearGradient
       id="paint1_linear"
       x1="7.9356799"
       y1="110.421"
       x2="125.99"
       y2="30.1819"
       gradientUnits="userSpaceOnUse"
       gradientTransform="translate(-1.4512416e-4,-0.22095769)"
       xlink:href="#paint0_linear">
      <stop
         stop-color="#00f1fa"
         id="stop13"
         style="stop-color:#00f1fa;stop-opacity:1;"
         offset="0" />
      <stop
         offset="1"
         stop-color="#006cff"
         id="stop15"
         style="stop-color:#006cff;stop-opacity:1;" />
    </linearGradient>
    <linearGradient
       id="paint2_linear"
       x1="52"
       y1="64"
       x2="28"
       y2="64"
       gradientUnits="userSpaceOnUse"
       gradientTransform="translate(-1.4512416e-4,-0.22095769)">
      <stop
         id="stop18"
         offset="0"
         style="stop-color:#ff69ff;stop-opacity:1;" />
      <stop
         offset="1"
         id="stop20"
         style="stop-color:#9033dd;stop-opacity:1;" />
    </linearGradient>
  </defs>
</svg>
