<?xml version="1.0" encoding="UTF-8" standalone="no"?>
<svg
   id="Capa_1"
   enable-background="new 0 0 511.923 511.923"
   height="512"
   viewBox="0 0 511.923 511.923"
   width="512"
   version="1.1"
   sodipodi:docname="keepassxc.svg"
   inkscape:version="1.4 (e7c3feb100, 2024-10-09)"
   xmlns:inkscape="http://www.inkscape.org/namespaces/inkscape"
   xmlns:sodipodi="http://sodipodi.sourceforge.net/DTD/sodipodi-0.dtd"
   xmlns="http://www.w3.org/2000/svg"
   xmlns:svg="http://www.w3.org/2000/svg">
  <defs
     id="defs3" />
  <sodipodi:namedview
     id="namedview3"
     pagecolor="#505050"
     bordercolor="#ffffff"
     borderopacity="1"
     inkscape:showpageshadow="0"
     inkscape:pageopacity="0"
     inkscape:pagecheckerboard="1"
     inkscape:deskcolor="#505050"
     inkscape:zoom="0.71263105"
     inkscape:cx="284.15826"
     inkscape:cy="477.10523"
     inkscape:current-layer="g3" />
  <linearGradient
     id="SVGID_1_"
     gradientUnits="userSpaceOnUse"
     x1="4.393"
     x2="463.673"
     y1="507.529"
     y2="48.25">
    <stop
       offset="0"
       stop-color="#e5f230"
       id="stop1" />
    <stop
       offset="1"
       stop-color="#24d864"
       id="stop2" />
  </linearGradient>
  <g
     id="g3">
    <g
       id="g2"
       transform="matrix(0.90820379,0,0,0.90820379,23.496466,23.496182)">
      <path
         d="m 463.673,48.25 c -64.334,-64.333 -169.013,-64.333 -233.345,0 -43.934,43.934 -59.193,108.694 -40.186,167.437 l -58.726,58.475 c -2.827,2.815 -4.416,6.64 -4.416,10.629 v 27.132 h -27 c -8.284,0 -15,6.716 -15,15 v 28 H 58 c -8.284,0 -15,6.716 -15,15 v 27 H 15 c -8.284,0 -15,6.716 -15,15 v 85 c 0,8.284 6.716,15 15,15 h 84.853 c 3.978,0 7.793,-1.581 10.606,-4.394 L 296.214,321.774 c 58.381,18.899 123.249,4.03 167.458,-40.179 64.334,-64.334 64.334,-169.012 10e-4,-233.345 z M 442.46,260.382 c -37.86,37.859 -94.65,49.677 -144.681,30.109 -5.547,-2.17 -11.856,-0.851 -16.07,3.363 L 93.64,481.923 H 30 v -55 h 28 c 8.284,0 15,-6.716 15,-15 v -27 h 27 c 8.284,0 15,-6.716 15,-15 v -28 h 27 c 8.284,0 15,-6.716 15,-15 v -35.9 l 61.046,-60.786 c 4.23,-4.213 5.56,-10.533 3.385,-16.094 -19.569,-50.03 -7.75,-106.82 30.109,-144.681 52.638,-52.636 138.283,-52.635 190.919,0 52.637,52.637 52.637,138.283 10e-4,190.92 z M 304.574,186.135 c -5.858,5.858 -5.858,15.355 0,21.213 5.858,5.858 15.355,5.858 21.213,0 5.858,-5.858 5.858,-15.355 0,-21.213 -5.858,-5.857 -15.355,-5.857 -21.213,0 z M 410.64,101.283 C 385.179,75.822 351.278,61.799 315.181,61.799 c -8.284,0 -15,6.716 -15,15 0,8.284 6.716,15 15,15 28.083,0 54.451,10.902 74.246,30.697 19.795,19.795 30.696,46.163 30.696,74.247 0,8.284 6.716,15 15,15 8.284,0 15,-6.716 15,-15 0,-36.098 -14.022,-69.999 -39.483,-95.46 z m -95.459,20.459 c -8.284,0 -15,6.716 -15,15 0,8.284 6.716,15 15,15 12.02,0 23.319,4.681 31.819,13.18 8.5,8.5 13.181,19.801 13.181,31.82 0,8.284 6.716,15 15,15 8.284,0 15,-6.716 15,-15 0,-20.033 -7.802,-38.867 -21.968,-53.034 -14.166,-14.164 -33,-21.966 -53.032,-21.966 z"
         fill="url(#SVGID_1_)"
         id="path2"
         style="fill:url(#SVGID_1_)" />
    </g>
  </g>
</svg>
