<?xml version="1.0" encoding="UTF-8" standalone="no"?>
<svg
   id="Capa_1"
   enable-background="new 0 0 511.923 511.923"
   height="512"
   viewBox="0 0 511.923 511.923"
   width="512"
   version="1.1"
   sodipodi:docname="keepassxc.svg"
   inkscape:version="1.4 (e7c3feb100, 2024-10-09)"
   xmlns:inkscape="http://www.inkscape.org/namespaces/inkscape"
   xmlns:sodipodi="http://sodipodi.sourceforge.net/DTD/sodipodi-0.dtd"
   xmlns="http://www.w3.org/2000/svg"
   xmlns:svg="http://www.w3.org/2000/svg">
  <defs
     id="defs3" />
  <sodipodi:namedview
     id="namedview3"
     pagecolor="#505050"
     bordercolor="#ffffff"
     borderopacity="1"
     inkscape:showpageshadow="0"
     inkscape:pageopacity="0"
     inkscape:pagecheckerboard="1"
     inkscape:deskcolor="#505050"
     inkscape:zoom="1.0078125"
     inkscape:cx="232.68217"
     inkscape:cy="193.48837"
     inkscape:current-layer="g3" />
  <linearGradient
     id="SVGID_1_"
     gradientUnits="userSpaceOnUse"
     x1="4.393"
     x2="463.673"
     y1="507.529"
     y2="48.25"
     gradientTransform="matrix(0.98326906,0,0,0.98326906,4.3031568,4.2664373)">
    <stop
       offset="0"
       stop-color="#e5f230"
       id="stop1" />
    <stop
       offset="1"
       stop-color="#24d864"
       id="stop2" />
  </linearGradient>
  <g
     id="g3">
    <g
       id="g2"
       transform="matrix(0.90820379,0,0,0.90820379,23.496466,23.496182)">
      <path
         id="path2"
         style="fill:url(#SVGID_1_);stroke-width:0.983269"
         d="m 343.55479,0.00532808 c -24.0404,0.2632669 -48.00385,5.80214082 -69.72294,16.11127692 -0.57918,0.277933 -1.45213,0.704933 -2.14401,1.040057 -29.58455,14.555332 -54.57628,38.202388 -70.86045,66.860574 -12.48351,21.929844 -19.81761,46.738674 -21.40943,71.915614 -0.0267,0.56709 -0.0801,1.47761 -0.11699,2.1764 -0.96024,19.2349 1.48605,38.6228 7.10681,57.04012 -18.9197,18.85069 -37.87034,37.67084 -56.74325,56.56685 -3.52716,3.92251 -5.10072,9.34881 -4.75855,14.56548 v 20.41707 c -8.0881,0.0334 -16.17963,-0.0925 -24.2653,0.10394 -8.041747,0.73504 -15.214766,7.19042 -16.65495,15.16039 -0.683255,3.87561 -0.277865,7.82671 -0.378449,11.73752 v 15.27793 c -8.084096,0.0333 -16.171848,-0.0927 -24.25336,0.10504 -8.039178,0.72772 -15.205477,7.17294 -16.662282,15.13338 -0.692722,3.91772 -0.277786,7.91279 -0.381077,11.86628 v 14.19399 c -8.420263,0.0368 -16.844776,-0.10076 -25.262136,0.10311 -7.9934739,0.74287 -15.1238519,7.12358 -16.61708532,15.03437 -0.7202804,3.91418 -0.2960293,7.91163 -0.4011545,11.86437 0.00561,25.62479 -0.035794,51.25063 0.046626,76.87471 0.4244574,8.13746 6.72591732,15.58792 14.71878782,17.26163 3.898027,0.82998 7.902431,0.37626 11.851682,0.48306 25.715234,-0.008 51.431672,0.0419 77.146138,-0.0525 5.22473,-0.30967 10.11977,-3.02342 13.54235,-6.9211 L 296.74776,325.51295 c 12.30716,3.74481 25.03701,6.11327 37.87772,6.93338 7.21849,0.48342 14.46753,0.47583 21.68751,0.0249 0.64204,-0.0436 1.61,-0.11614 2.37708,-0.17084 6.0648,-0.47062 12.10155,-1.28369 18.08018,-2.40405 0.55496,-0.11454 1.45138,-0.28853 2.13728,-0.42587 7.44573,-1.5103 14.78349,-3.54624 21.95477,-6.05371 0.73395,-0.27199 1.75294,-0.62595 2.59618,-0.94001 23.531,-8.70474 45.0589,-22.79591 62.37202,-40.9623 8.03795,-8.39152 15.17974,-17.63738 21.3014,-27.51329 0.3734,-0.62308 0.97564,-1.59815 1.34736,-2.21686 9.18948,-15.35058 15.81621,-32.21518 19.61621,-49.69463 0.11889,-0.59351 0.31495,-1.51458 0.46344,-2.23374 0.37767,-1.82898 0.75615,-3.92547 1.08685,-5.88438 2.80819,-16.90137 3.02382,-34.23079 0.61877,-51.19493 -0.0896,-0.56064 -0.22212,-1.46303 -0.32818,-2.1547 -4.40257,-28.40371 -16.29295,-55.630005 -34.28608,-78.057985 -6.25411,-7.82041 -13.21118,-15.077054 -20.75866,-21.657944 -0.57765,-0.500514 -1.3907,-1.194382 -2.05872,-1.769128 -0.49832,-0.407346 -1.24242,-1.030543 -1.83503,-1.520706 C 435.29616,24.724254 417.21,14.743991 397.90569,8.4027179 389.03168,5.4781693 379.91125,3.3070285 370.67483,1.8985705 c -1.13687,-0.1642423 -2.5322,-0.3689182 -3.7704,-0.5250242 -2.08113,-0.2729846 -4.52653,-0.53714602 -6.60204,-0.72203352 -5.54331,-0.4870286 -11.12014,-0.70871 -16.7476,-0.6461847 z m 1.93263,38.01851392 c 19.27642,0.01316 38.55812,4.329578 55.91293,12.744462 27.48726,13.163927 49.90635,36.53561 61.94973,64.528726 9.24486,21.35726 12.52625,45.24428 9.39697,68.3043 -2.81952,21.31894 -11.09334,41.90422 -23.92704,59.16856 -11.63434,15.7557 -26.91749,28.80037 -44.34051,37.75517 -19.51502,10.07643 -41.64527,14.99767 -63.59125,14.16583 -14.31753,-0.51785 -28.53978,-3.46809 -41.8946,-8.65033 -1.208,-0.45815 -2.67585,-0.95163 -4.05105,-1.15847 -6.39092,-1.14561 -13.24917,1.30552 -17.52264,6.18125 -47.71861,47.66048 -95.38373,95.37683 -143.08211,143.05878 -13.24388,13.24388 -26.48776,26.48776 -39.731639,39.73164 H 38.07293 V 428.3194 c 8.391509,-0.0318 16.786182,0.0903 25.175472,-0.094 7.960718,-0.70551 15.104595,-6.9964 16.662244,-14.86148 0.78073,-3.80885 0.337027,-7.71521 0.44404,-11.57041 v -14.77084 c 8.089364,-0.037 16.182418,0.10171 24.269174,-0.10454 7.94661,-0.73317 15.05237,-7.03871 16.59427,-14.89251 0.76648,-3.79665 0.32639,-7.68751 0.43327,-11.52882 v -15.75391 c 8.08935,-0.0386 16.18242,0.0978 24.26913,-0.10496 7.91331,-0.73062 14.99274,-6.98327 16.57487,-14.79311 0.79569,-3.82739 0.34517,-7.75471 0.45273,-11.62978 v -26.01997 c 19.90846,-19.84007 39.86296,-39.63317 59.71397,-59.52977 4.77484,-5.37992 5.99967,-13.58351 3.05279,-20.13973 -6.66636,-17.42595 -9.56717,-36.29558 -8.26982,-54.91605 1.42722,-21.26993 8.23257,-42.16 19.68247,-60.147036 13.49432,-21.266094 33.38098,-38.436279 56.46464,-48.537618 16.28843,-7.19662 34.09393,-10.891548 51.89524,-10.901034 z m -43.84783,33.890807 c -7.23935,0.489684 -13.95855,5.550837 -16.38905,12.393745 -0.12475,0.329223 -0.36087,1.008648 -0.48568,1.495597 -1.90239,6.792501 0.29698,14.593559 5.63622,19.249069 3.84952,3.46253 9.12333,5.17716 14.27159,4.87213 20.01651,0.24728 39.9419,6.72307 56.15244,18.4947 16.26589,11.70694 28.96514,28.39144 35.57728,47.33633 3.76298,10.64105 5.61716,21.93226 5.62285,33.21293 -0.009,5.37008 2.44634,10.6425 6.49075,14.15974 4.7289,4.25827 11.68312,5.77023 17.77413,3.97365 5.93059,-1.63401 10.8581,-6.37238 12.76804,-12.21458 0.94385,-2.60003 1.0938,-5.38935 0.98843,-8.12868 -0.0413,-2.75047 -0.14703,-5.26622 -0.34571,-8.01376 -0.51508,-7.1714 -1.60294,-14.30022 -3.22736,-21.30379 -0.30967,-1.31729 -0.71777,-2.95428 -1.06385,-4.2593 -2.20404,-8.20587 -5.14201,-16.21796 -8.83184,-23.87337 -0.3226,-0.63582 -0.75771,-1.55818 -1.14102,-2.29983 -1.86951,-3.71798 -4.02896,-7.50142 -6.1778,-10.92332 -9.41026,-14.97926 -21.74568,-28.09934 -36.078,-38.463748 -1.08064,-0.771216 -2.35437,-1.675436 -3.53489,-2.46548 -6.06838,-4.107821 -12.47341,-7.716197 -19.12294,-10.795097 -1.11526,-0.503136 -2.45004,-1.11251 -3.66795,-1.624533 C 339.52658,75.381517 320.65794,71.650278 301.83318,71.9059 l -0.10077,0.0045 z m 0.11427,58.924951 c 7.64732,0 -14.68271,6.02601 -16.83834,13.38298 -2.0351,6.58416 -0.21992,14.24363 4.74309,19.07029 3.81814,3.81741 9.28732,5.845 14.66689,5.57744 12.0388,0.26654 23.77185,6.40787 30.87884,16.12524 5.00172,6.68407 7.80084,14.97277 7.87814,23.32049 -0.0345,3.06074 0.54038,6.14901 1.94901,8.88472 2.61036,5.30407 7.7565,9.32974 13.61138,10.33494 6.67554,1.23723 13.96586,-1.33644 18.20347,-6.68463 2.00971,-2.47732 3.36303,-5.46845 3.9627,-8.59811 0.0519,-0.28101 0.16892,-0.97895 0.21987,-1.43039 0.27747,-2.49755 -0.003,-5.01155 -0.0975,-7.51229 -1.14411,-17.03406 -8.10502,-33.62337 -19.51811,-46.32807 -11.74493,-13.21875 -28.0638,-22.37791 -45.56138,-25.13351 -4.65353,-0.76358 -18.81421,-1.0091 -14.09808,-1.0091 z m 0.73484,58.96632 c -7.77275,0.16241 -15.12972,5.62663 -17.45799,13.05835 -2.20082,6.63388 -0.44926,14.45755 4.57261,19.36821 4.75108,4.79757 12.14746,6.83144 18.65111,4.90873 6.43188,-1.80602 11.78213,-7.17169 13.31196,-13.71105 1.60019,-6.42119 -0.34063,-13.66153 -5.18056,-18.23079 -3.66494,-3.54859 -8.78452,-5.5981 -13.89713,-5.39345 z"
         sodipodi:nodetypes="ccccccccccccccccccccccccccccccccccccccsccccccccccccsccccccccccccccccccccccccccccccsscccccccccccccccccccccccccscccccccccccccssccccccc" />
    </g>
  </g>
</svg>
