<?xml version="1.0" encoding="UTF-8" standalone="no"?>
<svg
   width="128"
   height="128"
   viewBox="0 0 128 128"
   fill="none"
   version="1.1"
   id="svg8"
   sodipodi:docname="libreoffice-base.svg"
   inkscape:version="1.3.2 (091e20ef0f, 2023-11-25, custom)"
   xmlns:inkscape="http://www.inkscape.org/namespaces/inkscape"
   xmlns:sodipodi="http://sodipodi.sourceforge.net/DTD/sodipodi-0.dtd"
   xmlns:xlink="http://www.w3.org/1999/xlink"
   xmlns="http://www.w3.org/2000/svg"
   xmlns:svg="http://www.w3.org/2000/svg">
  <sodipodi:namedview
     id="namedview8"
     pagecolor="#ffffff"
     bordercolor="#666666"
     borderopacity="1.0"
     inkscape:showpageshadow="2"
     inkscape:pageopacity="0.0"
     inkscape:pagecheckerboard="0"
     inkscape:deskcolor="#d1d1d1"
     inkscape:zoom="3.4773542"
     inkscape:cx="106.54652"
     inkscape:cy="84.978401"
     inkscape:current-layer="svg8" />
  <defs
     id="defs8">
    <linearGradient
       id="linearGradient13"
       inkscape:collect="always">
      <stop
         style="stop-color:#ff69ff;stop-opacity:1;"
         offset="0"
         id="stop13" />
      <stop
         style="stop-color:#9033dd;stop-opacity:1;"
         offset="1"
         id="stop14" />
    </linearGradient>
    <linearGradient
       id="linearGradient11"
       inkscape:collect="always">
      <stop
         style="stop-color:#ff69ff;stop-opacity:1;"
         offset="0"
         id="stop11" />
      <stop
         style="stop-color:#9033dd;stop-opacity:1;"
         offset="1"
         id="stop12" />
    </linearGradient>
    <linearGradient
       id="linearGradient10"
       x1="45.0014"
       y1="77.076599"
       x2="157.144"
       y2="77.076599"
       gradientUnits="userSpaceOnUse">
      <stop
         id="stop9"
         offset="0"
         style="stop-color:#ff69ff;stop-opacity:1;" />
      <stop
         offset="1"
         id="stop10"
         style="stop-color:#9033dd;stop-opacity:1;" />
    </linearGradient>
    <linearGradient
       id="paint0_linear"
       x1="45.0014"
       y1="77.076599"
       x2="157.144"
       y2="77.076599"
       gradientUnits="userSpaceOnUse">
      <stop
         id="stop3"
         offset="0"
         style="stop-color:#ff69ff;stop-opacity:1;" />
      <stop
         offset="1"
         id="stop4"
         style="stop-color:#9033dd;stop-opacity:1;" />
    </linearGradient>
    <linearGradient
       inkscape:collect="always"
       xlink:href="#paint0_linear"
       id="linearGradient8"
       gradientUnits="userSpaceOnUse"
       x1="143.35204"
       y1="153.25"
       x2="39.984901"
       y2="79.125"
       gradientTransform="matrix(-1,0,0,1,202.1099,0)" />
    <linearGradient
       inkscape:collect="always"
       xlink:href="#linearGradient10"
       id="linearGradient9"
       gradientUnits="userSpaceOnUse"
       x1="59.092575"
       y1="153.25"
       x2="162.125"
       y2="79.125" />
    <linearGradient
       inkscape:collect="always"
       xlink:href="#linearGradient11"
       id="linearGradient12"
       x1="43.499996"
       y1="141.95074"
       x2="141.5"
       y2="79"
       gradientUnits="userSpaceOnUse"
       gradientTransform="matrix(0.9513766,0,0,0.9513766,-15.440181,-11.158751)" />
    <linearGradient
       inkscape:collect="always"
       xlink:href="#linearGradient13"
       id="linearGradient14"
       x1="43.499996"
       y1="141.95074"
       x2="141.5"
       y2="79"
       gradientUnits="userSpaceOnUse"
       gradientTransform="matrix(0.9513766,0,0,0.9513766,-15.440181,-11.158751)" />
  </defs>
  <g
     id="g8"
     transform="translate(-17.55495,-0.125)"
     style="display:none">
    <path
       d="m 44.9849,121 v 10.793 c 0,9.085 25.1021,16.457 56.0701,16.457 30.968,0 56.07,-7.372 56.07,-16.457 V 98.875 m 0,0 c 0,9.09 -39.02959,20.03105 -68.625,16.625 M 157.125,98.875 V 54.968 M 95,79 c 29.8177,1.294087 62.125,-7.2466 62.125,-16.3316 V 26.4568 m 0,0 c 0,9.0888 -25.103,16.4566 -56.07,16.4566 -30.9666,0 -56.0701,-7.3679 -56.0701,-16.4567 C 44.9849,17.3679 70.0884,10 101.055,10 c 30.967,0 56.07,7.368 56.07,16.4568 z"
       stroke-width="10"
       id="path1"
       sodipodi:nodetypes="csssccccccscsssss"
       style="stroke:url(#linearGradient9);stroke-width:14;stroke-dasharray:none" />
    <path
       d="m 157.125,121 v 10.793 c 0,9.085 -25.1021,16.457 -56.0701,16.457 -30.968,0 -56.07,-7.372 -56.07,-16.457 V 98.875 m 0,0 c 0,9.09 36.386086,19.92938 68.625,16.625 M 44.9849,98.875 V 57.268 M 107.1099,79 C 77.2922,80.294087 44.9849,71.7534 44.9849,62.6684 V 26.4568 m 0,0 c 0,9.0888 25.103,16.4566 56.07,16.4566 30.9666,0 56.0701,-7.3679 56.0701,-16.4567 C 157.125,17.3679 132.0215,10 101.0549,10 c -30.967,0 -56.07,7.368 -56.07,16.4568 z"
       stroke-width="10"
       id="path8"
       style="stroke:url(#linearGradient8);stroke-width:14;stroke-dasharray:none"
       sodipodi:nodetypes="csssccccccscsssss" />
  </g>
  <path
     opacity="0.75"
     d="m 63.999763,4.1101302 c -28.898064,0 -52.325714,7.3119948 -52.325714,16.3337098 v 54.44538 c 0.01903,2.334677 1.641125,4.640815 4.756884,6.763335 0.01855,0.01047 0.0371,0.02093 0.05575,0.0314 0.685943,0.469028 1.442478,0.926641 2.266941,1.371885 0.04938,0.02474 0.09885,0.05042 0.1487,0.07516 0.810478,0.433828 1.684697,0.856238 2.619996,1.26533 0.101512,0.04281 0.20369,0.08467 0.306533,0.127485 0.88459,0.377696 1.820745,0.743025 2.8058,1.095034 0.208447,0.07516 0.419082,0.149366 0.631809,0.223574 0.986863,0.339641 2.019012,0.665963 3.093782,0.978015 0.157072,0.04662 0.315001,0.09228 0.473881,0.13795 1.178946,0.336787 2.406602,0.656449 3.679163,0.957084 0.08344,0.01808 0.167062,0.03615 0.250783,0.05423 1.251726,0.29017 2.544362,0.563215 3.874291,0.818184 0.218912,0.04281 0.438775,0.08562 0.659685,0.127484 1.207677,0.224525 2.444467,0.433828 3.706943,0.627909 0.348204,0.05423 0.698311,0.107505 1.05032,0.15888 1.149263,0.162685 2.317554,0.3111 3.502017,0.447147 0.578437,0.0704 1.16068,0.137949 1.746728,0.201692 0.847676,0.08848 1.702964,0.170296 2.56396,0.244503 0.932349,0.08277 1.870406,0.156977 2.815123,0.223574 0.774421,0.05137 1.551695,0.09799 2.332776,0.137949 0.909516,0.05042 1.823788,0.09324 2.739964,0.128436 0.73256,0.02949 1.467023,0.05423 2.202437,0.07421 1.344295,0.0371 2.692396,0.05803 4.041448,0.06279 1.523154,-0.0038 3.045356,-0.02854 4.561851,-0.07421 0.658352,-0.02093 1.314802,-0.04567 1.969349,-0.07421 1.141652,-0.04186 2.279498,-0.09514 3.409734,-0.159832 0.549896,-0.03615 1.09884,-0.07516 1.64493,-0.117019 1.130235,-0.07706 2.251908,-0.165539 3.363116,-0.265434 0.507084,-0.05137 1.012267,-0.1037 1.514594,-0.159831 1.232984,-0.123679 2.450746,-0.26258 3.651383,-0.4148 0.285413,-0.03805 0.570826,-0.07706 0.854336,-0.11702 1.307192,-0.177907 2.590599,-0.372939 3.846416,-0.584145 0.339641,-0.06279 0.67738,-0.126533 1.012265,-0.192178 1.097888,-0.189324 2.172944,-0.391967 3.224215,-0.606027 0.501375,-0.106554 0.997043,-0.216914 1.487001,-0.329176 0.968502,-0.216914 1.91417,-0.444293 2.8332,-0.681186 0.313003,-0.08372 0.623152,-0.168394 0.929494,-0.254969 1.089326,-0.291121 2.139643,-0.596513 3.149053,-0.914273 0.0219,-0.0076 0.0438,-0.01427 0.0657,-0.02093 0.0371,-0.01427 0.0742,-0.02854 0.11131,-0.04281 1.1721,-0.379599 2.28522,-0.777275 3.33553,-1.191123 1.07982,-0.427169 2.09018,-0.87051 3.02824,-1.329073 0.004,0 0.007,0 0.01,0 0.01,-0.0038 0.019,-0.0076 0.0285,-0.01142 0.91998,-0.447147 1.76956,-0.908565 2.54589,-1.38235 0.009,-0.0067 0.0181,-0.01332 0.0276,-0.02093 0.33583,-0.206448 0.65835,-0.415751 0.96564,-0.626957 3.11576,-2.122521 4.73786,-4.428658 4.75689,-6.763336 v -54.44538 c 0,-9.021714 -23.427656,-16.3337088 -52.325722,-16.3337088 z m 0,87.1123208 H 59.24288 v 16.334189 h 4.756883 v 5.44473 H 25.944699 v -5.44473 h -14.27065 v 16.33323 h 14.27065 v -5.44473 h 76.110131 v 5.44473 h 14.27065 v -16.33323 h -14.27065 v 5.44473 H 68.756646 v -5.44473 h 4.756883 V 91.222452 Z m 0,-81.6677829 c 26.272266,0 47.568827,4.8726649 47.568827,10.8891709 0,6.016506 -21.296561,10.889457 -47.568826,10.889457 -26.272265,0 -47.56883,-4.872951 -47.56883,-10.889457 0,-6.016506 21.296565,-10.8891708 47.568829,-10.8891709 z M 16.430933,27.206224 c 8.486279,5.81957 27.076178,9.560383 47.56883,9.570848 20.492654,-0.0048 39.082547,-3.745569 47.568827,-9.570848 v 20.460305 c 0,6.016506 -21.296561,10.889457 -47.568826,10.889457 -26.272265,0 -47.56883,-4.872951 -47.56883,-10.889457 z m 0,27.22269 c 8.486279,5.81957 27.076178,9.560383 47.56883,9.570848 20.492654,-0.0048 39.082547,-3.745569 47.568827,-9.570848 v 20.460305 c 0,2.887428 -5.01185,5.657837 -13.932906,7.699491 -8.920107,2.042604 -21.019716,3.189965 -33.63592,3.189965 -12.616205,0 -24.715813,-1.147361 -33.636205,-3.189965 C 21.442595,80.547057 16.430934,77.776647 16.430934,74.88922 V 63.999763 Z m 47.56883,42.238266 h 4.756883 v 5.44473 h -4.756883 z m -47.56883,16.33419 h 4.756883 v 5.44377 h -4.756883 z m 90.380777,0 h 4.75688 v 5.44377 h -4.75688 z"
     stroke-width="5.70826"
     stroke-linecap="round"
     id="path2"
     style="opacity:1;fill:url(#linearGradient12);fill-opacity:1;stroke:url(#linearGradient14);stroke-opacity:1" />
</svg>
