<?xml version="1.0" encoding="UTF-8" standalone="no"?>
<svg
   style="isolation:isolate"
   viewBox="0 0 48 48"
   width="48pt"
   height="48pt"
   version="1.1"
   id="svg9"
   sodipodi:docname="libreoffice-writer.svg"
   inkscape:version="1.3.2 (091e20ef0f, 2023-11-25, custom)"
   xmlns:inkscape="http://www.inkscape.org/namespaces/inkscape"
   xmlns:sodipodi="http://sodipodi.sourceforge.net/DTD/sodipodi-0.dtd"
   xmlns:xlink="http://www.w3.org/1999/xlink"
   xmlns="http://www.w3.org/2000/svg"
   xmlns:svg="http://www.w3.org/2000/svg"
   xmlns:rdf="http://www.w3.org/1999/02/22-rdf-syntax-ns#"
   xmlns:cc="http://creativecommons.org/ns#"
   xmlns:dc="http://purl.org/dc/elements/1.1/">
  <metadata
     id="metadata15">
    <rdf:RDF>
      <cc:Work
         rdf:about="">
        <dc:format>image/svg+xml</dc:format>
        <dc:type
           rdf:resource="http://purl.org/dc/dcmitype/StillImage" />
      </cc:Work>
    </rdf:RDF>
  </metadata>
  <defs
     id="defs13">
    <linearGradient
       id="linearGradient18"
       x1="0.22078557"
       y1="0.047239967"
       x2="0.9022491"
       y2="0.90614605"
       gradientTransform="matrix(43.5,0,0,44,5,2)"
       gradientUnits="userSpaceOnUse"
       spreadMethod="pad">
      <stop
         offset="0"
         stop-opacity="1"
         style="stop-color:#00f1fa;stop-opacity:1;"
         id="stop17" />
      <stop
         offset="1"
         stop-opacity="1"
         style="stop-color:#006cff;stop-opacity:1;"
         id="stop18" />
    </linearGradient>
    <linearGradient
       inkscape:collect="always"
       xlink:href="#linearGradient18"
       id="linearGradient8262"
       gradientUnits="userSpaceOnUse"
       gradientTransform="matrix(40,0,0,44,2,2)"
       x1="0.31251219"
       y1="1.0000111"
       x2="1.0870823"
       y2="0.49612844" />
    <linearGradient
       inkscape:collect="always"
       xlink:href="#linearGradient18"
       id="linearGradient8264"
       gradientUnits="userSpaceOnUse"
       gradientTransform="matrix(40,0,0,44,2,2)"
       x1="0.50001222"
       y1="1.0000111"
       x2="1.0870823"
       y2="0.49612844" />
    <linearGradient
       id="linearGradient1"
       inkscape:collect="always">
      <stop
         style="stop-color:#00f1fa;stop-opacity:1;"
         offset="0"
         id="stop1-3" />
      <stop
         style="stop-color:#006cff;stop-opacity:1;"
         offset="1"
         id="stop2-6" />
    </linearGradient>
    <linearGradient
       id="paint2_linear_451_3184"
       x1="-3.3963594"
       y1="20.616154"
       x2="16.097"
       y2="4.1546001"
       gradientUnits="userSpaceOnUse">
      <stop
         id="stop7-6"
         offset="0"
         style="stop-color:#00f1fa;stop-opacity:1;" />
      <stop
         offset="1"
         id="stop8-1"
         style="stop-color:#006cff;stop-opacity:1;" />
    </linearGradient>
    <linearGradient
       id="paint1_linear_451_3184"
       x1="-3.3963594"
       y1="20.616154"
       x2="16.097"
       y2="4.1546001"
       gradientUnits="userSpaceOnUse">
      <stop
         id="stop5-8"
         offset="0"
         style="stop-color:#00f1fa;stop-opacity:1;" />
      <stop
         offset="1"
         id="stop6-7"
         style="stop-color:#006cff;stop-opacity:1;" />
    </linearGradient>
    <linearGradient
       inkscape:collect="always"
       xlink:href="#linearGradient1"
       id="linearGradient4"
       gradientUnits="userSpaceOnUse"
       gradientTransform="matrix(1,0,0,-1,-2.252,49)"
       x1="4.7524881"
       y1="3.5"
       x2="46.221333"
       y2="26.391624" />
    <linearGradient
       inkscape:collect="always"
       xlink:href="#linearGradient1"
       id="linearGradient5"
       gradientUnits="userSpaceOnUse"
       gradientTransform="matrix(1,0,0,-1,-2.252,48)"
       x1="4.7524881"
       y1="3.5"
       x2="46.221333"
       y2="26.391624" />
  </defs>
  <sodipodi:namedview
     pagecolor="#ffffff"
     bordercolor="#666666"
     borderopacity="1"
     objecttolerance="10"
     gridtolerance="10"
     guidetolerance="10"
     inkscape:pageopacity="0"
     inkscape:pageshadow="2"
     inkscape:window-width="1268"
     inkscape:window-height="693"
     id="namedview11"
     showgrid="false"
     showguides="false"
     inkscape:guide-bbox="true"
     inkscape:snap-to-guides="true"
     inkscape:snap-global="true"
     inkscape:zoom="8.0000004"
     inkscape:cx="26.749999"
     inkscape:cy="20.999999"
     inkscape:window-x="8"
     inkscape:window-y="739"
     inkscape:window-maximized="0"
     inkscape:current-layer="svg9"
     inkscape:document-rotation="0"
     inkscape:showpageshadow="2"
     inkscape:pagecheckerboard="0"
     inkscape:deskcolor="#d1d1d1"
     inkscape:document-units="pt">
    <sodipodi:guide
       position="7.2628256,50.156642"
       orientation="1,0"
       id="guide4525"
       inkscape:locked="false" />
    <sodipodi:guide
       position="2.5168207,52.349872"
       orientation="1,0"
       id="guide4527"
       inkscape:locked="false" />
    <sodipodi:guide
       position="35.7029,51.846507"
       orientation="1,0"
       id="guide4531"
       inkscape:locked="false" />
    <sodipodi:guide
       position="40.484859,50.983597"
       orientation="1,0"
       id="guide4533"
       inkscape:locked="false" />
    <sodipodi:guide
       position="-13.73465,43.86459"
       orientation="0,1"
       id="guide4535"
       inkscape:locked="false" />
    <sodipodi:guide
       position="4.6381411,56.161057"
       orientation="1,0"
       id="guide4537"
       inkscape:locked="false" />
    <sodipodi:guide
       position="38.255675,55.190284"
       orientation="1,0"
       id="guide4539"
       inkscape:locked="false" />
    <sodipodi:guide
       position="-9.6717826,4.0988224"
       orientation="0,1"
       id="guide4541"
       inkscape:locked="false" />
    <sodipodi:guide
       position="-13.914423,6.795416"
       orientation="0,1"
       id="guide4543"
       inkscape:locked="false" />
  </sodipodi:namedview>
  <g
     id="g1"
     transform="matrix(1.044177,0,0,1.044177,-2.0878449,-1.0602478)">
    <path
       id="path6479"
       style="display:inline;isolation:isolate;fill:url(#linearGradient8262);fill-opacity:1"
       d="m 7.0004883,1.9995117 c -2.7599973,0 -5.0009766,2.2409793 -5.0009766,5.0009766 V 40.999512 c 0,2.759997 2.2409793,5.000976 5.0009766,5.000976 H 22.000488 C 23.104487,46.000488 24,45.103511 24,43.999512 24,42.895513 23.104487,42 22.000488,42 H 9 C 7.3440017,42 6,40.655998 6,39 V 9 C 6,7.3440017 7.3440017,6 9,6 h 12.22998 c 0.552,0 1.306571,0.3274926 1.684571,0.7294922 0.07191,0.076535 0.143422,0.1534464 0.215332,0.2299805 0.326178,0.3471541 0.666235,0.6596191 0.978515,1.0415039 l 9.046956,11.0634394 c 0.665934,0.714122 2.063386,0.492915 2.668946,-0.07178 0.605559,-0.564695 0.92228,-1.943103 0.256346,-2.657227 L 35.339436,15.509237 26.178223,4.5380829 25.835449,4.1762695 C 25.687365,4.0202615 25.518304,3.8689074 25.335938,3.722168 24.114388,2.739261 22.210906,1.9995117 20.77002,1.9995117 Z"
       sodipodi:nodetypes="sssssssssssscsscsccccsss" />
    <path
       style="display:inline;isolation:isolate;fill:url(#linearGradient8264);fill-opacity:1"
       d="M 31,6 V 6 C 29.896,6 29,5.104 29,4 v 0 c 0,-1.104 0.896,-2 2,-2 v 0 h 6 c 2.76,0 5,2.24 5,5 v 6 0 c 0,1.104 -0.896,2 -2,2 v 0 c -1.104,0 -2,-0.896 -2,-2 V 13 9 C 38,7.344 36.656,6 35,6 Z"
       id="path19" />
    <g
       id="g2"
       transform="matrix(1.1974266,0,0,1.3395455,26.067379,18.384211)"
       style="fill:none">
      <path
         d="M 9.91211,5.26514 15.0147,9.26505"
         stroke="url(#paint2_linear_451_3184)"
         stroke-width="2.4"
         stroke-linecap="round"
         stroke-linejoin="round"
         id="path3"
         style="display:inline;fill:none;stroke:url(#paint2_linear_451_3184)" />
      <path
         fill-rule="evenodd"
         clip-rule="evenodd"
         d="M 11.5649,3.15728 C 12.3494,2.15783 13.617,2.20999 14.6176,2.99443 L 16.097,4.1546 c 1.0005,0.78443 1.355,2.00103 0.5705,3.00262 L 7.84492,18.413 c -0.29483,0.3768 -0.74507,0.5992 -1.22405,0.6046 l -3.4028,0.0436 -0.77061,-3.3155 c -0.10857,-0.4652 0,-0.9548 0.29483,-1.3326 z"
         stroke="url(#paint1_linear_451_3184)"
         stroke-width="2.4"
         stroke-linecap="round"
         stroke-linejoin="round"
         id="path2"
         style="display:inline;fill:none;stroke:url(#paint1_linear_451_3184)" />
    </g>
    <path
       id="path1"
       style="isolation:isolate;fill:url(#linearGradient4);fill-opacity:1;fill-rule:evenodd"
       d="M 9.906203,31 C 8.991204,31 8.248,29.828487 8.248,29.000488 8.248,28.172489 8.991204,27 9.906203,27 H 23.66902 c 0.915,0 1.658203,1.172489 1.658203,2.000488 C 25.327223,29.828487 24.58402,31 23.66902,31 Z m 0.111328,-8 C 9.041087,23 8.248,21.827511 8.248,20.999512 8.248,20.171513 9.041087,19 10.017531,19 h 17.017436 c 0.976443,0 1.768066,1.171513 1.768066,1.999512 C 28.803033,21.827511 28.01141,23 27.034967,23 Z M 9.661574,15 C 8.881575,15 8.248,13.866425 8.248,13.086426 V 12.913574 C 8.248,12.133575 8.881575,11 9.661574,11 h 11.171394 c 0.779999,0 1.415039,1.133575 1.415039,1.913574 v 0.172852 C 22.248007,13.866425 21.612967,15 20.832969,15 Z"
       sodipodi:nodetypes="sssssssssssssssssssssss" />
    <path
       id="path5"
       style="display:none;isolation:isolate;fill:url(#linearGradient5);fill-opacity:1;fill-rule:evenodd"
       d="M 10.017531,38 C 9.041087,38 8.248,36.827999 8.248,36 c 0,-0.827999 0.793087,-2 1.769531,-2 h 9.461435 c 0.976444,0 1.768067,1.172001 1.768067,2 0,0.827999 -0.791623,2 -1.768067,2 z"
       sodipodi:nodetypes="sssssss" />
  </g>
</svg>
