<?xml version="1.0" encoding="UTF-8" standalone="no"?>
<svg
   style="isolation:isolate"
   viewBox="0 0 48 48"
   width="48pt"
   height="48pt"
   version="1.1"
   id="svg9"
   sodipodi:docname="libreoffice-template.svg"
   inkscape:version="1.3.2 (091e20ef0f, 2023-11-25, custom)"
   xmlns:inkscape="http://www.inkscape.org/namespaces/inkscape"
   xmlns:sodipodi="http://sodipodi.sourceforge.net/DTD/sodipodi-0.dtd"
   xmlns:xlink="http://www.w3.org/1999/xlink"
   xmlns="http://www.w3.org/2000/svg"
   xmlns:svg="http://www.w3.org/2000/svg"
   xmlns:rdf="http://www.w3.org/1999/02/22-rdf-syntax-ns#"
   xmlns:cc="http://creativecommons.org/ns#"
   xmlns:dc="http://purl.org/dc/elements/1.1/">
  <metadata
     id="metadata15">
    <rdf:RDF>
      <cc:Work
         rdf:about="">
        <dc:format>image/svg+xml</dc:format>
        <dc:type
           rdf:resource="http://purl.org/dc/dcmitype/StillImage" />
      </cc:Work>
    </rdf:RDF>
  </metadata>
  <defs
     id="defs13">
    <linearGradient
       inkscape:collect="always"
       xlink:href="#linearGradient18-7"
       id="linearGradient8262-2"
       gradientUnits="userSpaceOnUse"
       gradientTransform="matrix(40,0,0,44,2.0004883,2.0000003)"
       x1="0.3125"
       y1="1.0000111"
       x2="0.99973547"
       y2="0.49982473" />
    <linearGradient
       id="linearGradient18-7"
       x1="0.22078557"
       y1="0.047239967"
       x2="0.9022491"
       y2="0.90614605"
       gradientTransform="matrix(43.5,0,0,44,5,2)"
       gradientUnits="userSpaceOnUse"
       spreadMethod="pad">
      <stop
         offset="0"
         stop-opacity="1"
         style="stop-color:#69ff80;stop-opacity:1;"
         id="stop17-0" />
      <stop
         offset="1"
         stop-opacity="1"
         style="stop-color:#009980;stop-opacity:1;"
         id="stop18-9" />
    </linearGradient>
    <linearGradient
       inkscape:collect="always"
       xlink:href="#linearGradient1"
       id="linearGradient6-3"
       x1="8.1032734"
       y1="48"
       x2="45.277092"
       y2="24"
       gradientUnits="userSpaceOnUse"
       gradientTransform="matrix(0.79166672,0,0,0.79166672,0.49999925,9.3061519)" />
    <linearGradient
       id="linearGradient1"
       inkscape:collect="always">
      <stop
         style="stop-color:#ff69ff;stop-opacity:1;"
         offset="0"
         id="stop11-6" />
      <stop
         style="stop-color:#9033dd;stop-opacity:1;"
         offset="1"
         id="stop13-7" />
    </linearGradient>
    <linearGradient
       inkscape:collect="always"
       xlink:href="#linearGradient1"
       id="linearGradient20"
       x1="7.0004883"
       y1="46.000488"
       x2="42"
       y2="24.101807"
       gradientUnits="userSpaceOnUse"
       gradientTransform="matrix(1.032952,0,0,1.032952,0.0714439,-3.1410639)" />
    <linearGradient
       id="_lgradient_2"
       x1="2.220446e-16"
       y1="0.66074991"
       x2="0.49998719"
       y2="1.110223e-16"
       gradientTransform="matrix(0,-113.48073,-128,0,128,120.73891)"
       gradientUnits="userSpaceOnUse"
       spreadMethod="pad">
      <stop
         offset="0"
         stop-opacity="1"
         style="stop-color:#ff69ff;stop-opacity:1;"
         id="stop1" />
      <stop
         offset="1"
         stop-opacity="1"
         style="stop-color:#9033dd;stop-opacity:1;"
         id="stop3" />
    </linearGradient>
    <linearGradient
       inkscape:collect="always"
       xlink:href="#_lgradient_2"
       id="linearGradient25"
       gradientUnits="userSpaceOnUse"
       gradientTransform="matrix(0,-726.27667,-819.2,0,935.81135,659.78532)"
       x1="4.4408921e-16"
       y1="0.8968299"
       x2="0.49998719"
       y2="0.23370726"
       spreadMethod="pad" />
    <linearGradient
       inkscape:collect="always"
       xlink:href="#_lgradient_2"
       id="linearGradient29"
       gradientUnits="userSpaceOnUse"
       gradientTransform="matrix(0,-726.27667,-819.2,0,935.81135,659.78532)"
       x1="4.4408921e-16"
       y1="0.8968299"
       x2="0.49998719"
       y2="0.23370726"
       spreadMethod="pad" />
    <linearGradient
       inkscape:collect="always"
       xlink:href="#_lgradient_2"
       id="linearGradient19"
       gradientUnits="userSpaceOnUse"
       gradientTransform="matrix(0,-726.27667,-819.2,0,744.35839,659.78532)"
       x1="2.220446e-16"
       y1="0.66074991"
       x2="0.49998719"
       y2="1.110223e-16"
       spreadMethod="pad" />
    <linearGradient
       inkscape:collect="always"
       xlink:href="#_lgradient_2"
       id="linearGradient10"
       gradientUnits="userSpaceOnUse"
       gradientTransform="matrix(0,-726.27667,-819.2,0,935.81135,659.78532)"
       x1="4.4408921e-16"
       y1="0.8968299"
       x2="0.49998719"
       y2="0.23370726"
       spreadMethod="pad" />
    <linearGradient
       inkscape:collect="always"
       xlink:href="#_lgradient_2"
       id="linearGradient11"
       gradientUnits="userSpaceOnUse"
       gradientTransform="matrix(0,-726.27667,-819.2,0,935.81135,659.78532)"
       x1="4.4408921e-16"
       y1="0.8968299"
       x2="0.49998719"
       y2="0.23370726"
       spreadMethod="pad" />
    <linearGradient
       inkscape:collect="always"
       xlink:href="#_lgradient_2"
       id="linearGradient12"
       gradientUnits="userSpaceOnUse"
       gradientTransform="matrix(0,-726.27667,-819.2,0,935.81135,659.78532)"
       x1="4.4408921e-16"
       y1="0.8968299"
       x2="0.49998719"
       y2="0.23370726"
       spreadMethod="pad" />
    <linearGradient
       inkscape:collect="always"
       xlink:href="#_lgradient_2"
       id="linearGradient13"
       gradientUnits="userSpaceOnUse"
       gradientTransform="matrix(0,-726.27667,-819.2,0,935.81135,659.78532)"
       x1="4.4408921e-16"
       y1="0.8968299"
       x2="0.49998719"
       y2="0.23370726"
       spreadMethod="pad" />
    <linearGradient
       inkscape:collect="always"
       xlink:href="#_lgradient_2"
       id="linearGradient14"
       gradientUnits="userSpaceOnUse"
       gradientTransform="matrix(0,-726.27667,-819.2,0,935.81135,659.78532)"
       x1="4.4408921e-16"
       y1="0.8968299"
       x2="0.49998719"
       y2="0.23370726"
       spreadMethod="pad" />
    <linearGradient
       inkscape:collect="always"
       xlink:href="#_lgradient_2"
       id="linearGradient15"
       gradientUnits="userSpaceOnUse"
       gradientTransform="matrix(0,-726.27667,-819.2,0,935.81135,659.78532)"
       x1="4.4408921e-16"
       y1="0.8968299"
       x2="0.49998719"
       y2="0.23370726"
       spreadMethod="pad" />
    <linearGradient
       inkscape:collect="always"
       xlink:href="#linearGradient3631"
       id="linearGradient3"
       gradientUnits="userSpaceOnUse"
       gradientTransform="matrix(97.623555,0,0,78.56472,-45.526499,-24.229366)"
       x1="0.60595632"
       y1="0.8656854"
       x2="0.87088943"
       y2="0.57021564" />
    <linearGradient
       inkscape:collect="always"
       id="linearGradient3631">
      <stop
         style="stop-color:#69ff80;stop-opacity:1;"
         offset="0"
         id="stop3627" />
      <stop
         style="stop-color:#009980;stop-opacity:1;"
         offset="1"
         id="stop3629" />
    </linearGradient>
    <linearGradient
       inkscape:collect="always"
       xlink:href="#linearGradient3631"
       id="linearGradient2"
       gradientUnits="userSpaceOnUse"
       gradientTransform="matrix(97.623555,0,0,-78.56472,-47.385207,69.07524)"
       x1="0.60595632"
       y1="0.8656854"
       x2="0.87088943"
       y2="0.57021564" />
    <linearGradient
       inkscape:collect="always"
       xlink:href="#linearGradient3631"
       id="linearGradient4"
       gradientUnits="userSpaceOnUse"
       gradientTransform="matrix(97.623555,0,0,78.56472,-47.385207,-21.899305)"
       x1="0.60595632"
       y1="0.8656854"
       x2="0.87088943"
       y2="0.57021564" />
    <linearGradient
       inkscape:collect="always"
       xlink:href="#linearGradient3631"
       id="linearGradient5"
       gradientUnits="userSpaceOnUse"
       gradientTransform="matrix(-97.623555,0,0,78.56472,94.779916,-21.899305)"
       x1="0.60595632"
       y1="0.8656854"
       x2="0.87088943"
       y2="0.57021564" />
    <linearGradient
       inkscape:collect="always"
       xlink:href="#linearGradient3631"
       id="linearGradient6"
       gradientUnits="userSpaceOnUse"
       gradientTransform="matrix(117.1139,0,0,94.249994,-57.184404,-37.58009)"
       x1="0.61996096"
       y1="0.87702549"
       x2="0.85477096"
       y2="0.64467877" />
  </defs>
  <sodipodi:namedview
     pagecolor="#ffffff"
     bordercolor="#666666"
     borderopacity="1"
     objecttolerance="10"
     gridtolerance="10"
     guidetolerance="10"
     inkscape:pageopacity="0"
     inkscape:pageshadow="2"
     inkscape:window-width="1268"
     inkscape:window-height="693"
     id="namedview11"
     showgrid="false"
     showguides="false"
     inkscape:guide-bbox="true"
     inkscape:snap-to-guides="true"
     inkscape:snap-global="true"
     inkscape:zoom="11.2658"
     inkscape:cx="26.496121"
     inkscape:cy="42.65121"
     inkscape:window-x="8"
     inkscape:window-y="739"
     inkscape:window-maximized="0"
     inkscape:current-layer="svg9"
     inkscape:document-rotation="0"
     inkscape:showpageshadow="2"
     inkscape:pagecheckerboard="0"
     inkscape:deskcolor="#d1d1d1"
     inkscape:document-units="pt">
    <sodipodi:guide
       position="7.2628256,50.156642"
       orientation="1,0"
       id="guide4525"
       inkscape:locked="false" />
    <sodipodi:guide
       position="2.5168207,52.349872"
       orientation="1,0"
       id="guide4527"
       inkscape:locked="false" />
    <sodipodi:guide
       position="35.7029,51.846507"
       orientation="1,0"
       id="guide4531"
       inkscape:locked="false" />
    <sodipodi:guide
       position="40.484859,50.983597"
       orientation="1,0"
       id="guide4533"
       inkscape:locked="false" />
    <sodipodi:guide
       position="-13.73465,43.86459"
       orientation="0,1"
       id="guide4535"
       inkscape:locked="false" />
    <sodipodi:guide
       position="4.6381411,56.161057"
       orientation="1,0"
       id="guide4537"
       inkscape:locked="false" />
    <sodipodi:guide
       position="38.255675,55.190284"
       orientation="1,0"
       id="guide4539"
       inkscape:locked="false" />
    <sodipodi:guide
       position="-9.6717826,4.0988224"
       orientation="0,1"
       id="guide4541"
       inkscape:locked="false" />
    <sodipodi:guide
       position="-13.914423,6.795416"
       orientation="0,1"
       id="guide4543"
       inkscape:locked="false" />
  </sodipodi:namedview>
  <g
     id="g2"
     style="display:inline;isolation:isolate"
     transform="matrix(1.0858601,0,0,1.0858601,0.11134291,-2.1711904)">
    <path
       id="path6479-6"
       style="display:inline;isolation:isolate;fill:url(#linearGradient8262-2);fill-opacity:1"
       d="m 7.0004883,1.9995117 c -2.759995,0 -5.0009766,2.2409813 -5.0009766,5.0009766 V 40.999512 c 0,2.759994 2.2409816,5.000976 5.0009766,5.000976 H 22.000488 C 23.104486,46.000488 24,45.10351 24,43.999512 24,42.895514 23.104486,42 22.000488,42 H 9 C 7.3440037,42 6,40.655996 6,39 V 9 C 6,7.3440037 7.3440037,6 9,6 h 12.22998 c 0.552,0 1.306571,0.3274926 1.684571,0.7294922 0.07191,0.07653 0.143422,0.1534465 0.215332,0.2299805 0.326177,0.3471536 0.673438,0.6538409 0.978515,1.0415039 L 37.538086,25.064941 c 0.665933,0.714122 2.063386,0.492917 2.668945,-0.07178 0.605559,-0.564694 0.920816,-1.943103 0.254883,-2.657226 L 39.722168,21.509766 26.178223,4.5380859 25.835449,4.1762695 C 25.687365,4.0202617 25.518303,3.8689078 25.335938,3.722168 24.114389,2.7392624 22.210904,1.9995117 20.77002,1.9995117 Z m 23.9999997,0 c -1.103999,0 -2.000976,0.8969777 -2.000976,2.0009766 C 28.999512,5.1044872 29.896489,6 31.000488,6 h 3.999024 c 1.655998,0 3,1.3440017 3,3 v 4.000488 C 37.999512,14.104487 38.896489,15 40.000488,15 41.104487,15 42,14.104487 42,13.000488 V 7.0004883 C 42,4.240491 39.760486,1.9995117 37.000488,1.9995117 Z m 9,31.2055663 c -1.103999,0 -2.000976,0.895513 -2.000976,1.999512 v 4.000488 c 0,1.655998 -1.344002,3 -3,3 h -3.999024 c -1.103999,0 -2.000976,0.895513 -2.000976,1.999512 0,1.103999 0.896977,1.999512 2.000976,1.999512 h 6 C 39.760486,46.204102 42,43.964587 42,41.20459 v -6 c 0,-1.103999 -0.895513,-1.999512 -1.999512,-1.999512 z" />
    <path
       d="m 22.107541,33.983861 h -8.337694 v -8.337696 z m 5.858241,2.814795 H 11.892475 c -0.518248,0 -0.93742,-0.419166 -0.93742,-0.937414 V 19.787931 c 0,-0.518249 0.297231,-0.642731 0.663053,-0.276906 l 16.624576,16.624584 c 0.365821,0.365818 0.241345,0.663047 -0.276902,0.663047 z"
       fill-rule="evenodd"
       id="path6"
       style="display:inline;isolation:isolate;fill:url(#linearGradient6);fill-opacity:1;stroke-width:2.54042"
       sodipodi:nodetypes="ccccsssssss" />
  </g>
  <path
     d="m 22.641504,28.006614 h -2.094846 c -0.28923,0 -0.523712,0.23631 -0.523712,0.527792 v 8.514923 h 3.142269 v -8.514923 c 0,-0.291482 -0.23448,-0.527792 -0.523711,-0.527792 z m -4.189693,2.111172 h -2.094705 c -0.28923,0 -0.523712,0.236311 -0.523712,0.527793 v 6.40375 h 3.142129 v -6.40375 c 0,-0.291482 -0.234482,-0.527793 -0.523712,-0.527793 z m -4.189523,2.111031 h -2.094777 c -0.289229,0 -0.523711,0.236312 -0.523711,0.527795 v 4.292717 h 3.142186 v -4.292717 c 0,-0.291483 -0.234481,-0.527795 -0.523698,-0.527795 z M 26.831056,25.895441 H 24.73621 c -0.289232,0 -0.523712,0.23631 -0.523712,0.527793 v 10.626095 h 3.142269 V 26.423234 c 0,-0.291483 -0.234481,-0.527793 -0.523711,-0.527793 z m 1.550867,-5.143521 c -0.06404,-0.129371 -0.177901,-0.226627 -0.315128,-0.269019 L 25.159992,19.58509 c -0.276423,-0.08543 -0.569313,0.07131 -0.654041,0.349976 -0.08487,0.278702 0.07065,0.573873 0.347217,0.659277 l 1.569164,0.484669 -15.550024,6.973203 c -0.264262,0.118508 -0.383163,0.430397 -0.265571,0.696687 0.08681,0.196621 0.278196,0.313439 0.478758,0.313439 0.07114,0 0.143432,-0.01464 0.212636,-0.04574 l 15.702944,-7.041746 -0.616461,1.713146 c -0.09852,0.27403 0.04194,0.576772 0.31386,0.676138 0.270793,0.09894 0.571846,-0.04124 0.67079,-0.316254 l 1.036445,-2.880399 c 0.04884,-0.13596 0.04025,-0.286162 -0.02379,-0.415564 z"
     stroke-width="1.12596"
     id="path3-9"
     style="display:none;isolation:isolate;fill:none;fill-opacity:1;stroke:url(#linearGradient6-3);stroke-opacity:1" />
  <path
     id="path7"
     style="display:none;isolation:isolate;fill:url(#linearGradient20);fill-opacity:1;fill-rule:evenodd;stroke-width:0.802364"
     d="m 15.296642,25.902476 v -3.804953 0 h 5.441444 v 0 3.804953 z m 0,3.262652 v 3.804953 h 5.441444 V 29.165128 Z M 29.431853,25.902476 V 22.097523 H 24 v 0 3.804953 z m 0,3.262652 v 3.804953 H 24 V 29.165128 Z M 14.209091,18.835608 h 16.310314 c 1.199699,0 2.174364,0.973926 2.174364,2.174364 v 13.04766 c 0,1.200438 -0.974665,2.174364 -2.174364,2.174364 H 14.209091 c -1.1997,0 -2.174365,-0.973926 -2.174365,-2.174364 v -13.04766 c 0,-1.200438 0.974665,-2.174364 2.174365,-2.174364 z"
     sodipodi:nodetypes="cccccccccccccccccccccccsssssssss" />
  <g
     id="g1"
     style="display:none;isolation:isolate"
     transform="matrix(0.15625,0,0,0.15625,11.694,17.647455)">
    <path
       d="m 128,106.39127 c 0,7.91855 -6.42909,14.34764 -14.34764,14.34764 H 77.865272 c -2.987576,-0.0519 -6.09426,-1.84372 -6.094544,-5.40218 -2.77e-4,-3.46536 2.731638,-5.40509 6.094544,-5.40509 H 107.2 c 4.75345,0 9.944,-3.85746 9.944,-8.60801 V 26.676364 c 0,-4.750549 -5.19055,-8.608 -9.944,-8.608 h -9.675637 v 0 c -3.365819,0 -6.094544,-2.423275 -6.094544,-5.405093 v 0 c 0,-2.9818185 2.728725,-5.4021814 6.094544,-5.4021814 v 0 H 113.65236 C 121.57091,7.2610899 128,13.690183 128,21.608727 Z M 10.85612,93.219769 c -0.0131,-1.966979 -1.3957599,-4.90268 -4.7615799,-4.90268 v 0 c -3.3629,0 -6.094540024999996,2.420363 -6.094540024999996,5.405093 v 0 12.669088 C 7.5000003e-8,114.30982 6.4290901,120.73891 14.34764,120.73891 h 16.127997 v 0 c 3.365819,0 6.094544,-2.42036 6.094544,-5.40218 v 0 c 0,-2.98182 -2.728725,-5.40509 -6.094544,-5.40509 v 0 H 20.8 c -4.75346,0 -9.94412,-3.85746 -9.94412,-8.60801 -0.0112,-2.70056 0.0133,-6.136882 2.4e-4,-8.103861 z M 70.094544,18.068364 v 0 c 3.365819,0 6.094549,-2.423275 6.094549,-5.405093 v 0 c 0,-2.9818185 -2.72873,-5.4021811 -6.094549,-5.4021811 v 0 H 14.34764 C 6.4290901,7.2610899 7.4999988e-8,13.690183 7.4999988e-8,21.608727 V 45.507029 L 10.85588,48.040848 V 26.676364 c 0,-4.750549 5.19066,-8.608 9.94412,-8.608 z"
       fill-rule="evenodd"
       id="path1"
       sodipodi:nodetypes="sccsccssscsssscssszssscsscsssscsszscsssscccccss"
       style="fill:url(#linearGradient19);stroke-width:2.90907" />
    <path
       d="m 27.218179,73.958346 h 27.873449 c 7.91854,0 14.347633,-6.42909 14.347633,-14.347639 L 69.43912,31.113641 C 69.439107,28.398982 67.471731,25.702 63.722378,25.702 c -3.749353,0 -5.139145,3.011322 -5.139131,5.411641 l 1.41e-4,23.429435 c 0,4.75054 -5.190659,8.607696 -9.944119,8.607745 L 23.992,63.151077 Z"
       fill-rule="evenodd"
       id="path24"
       sodipodi:nodetypes="cccszscscc"
       style="fill:url(#linearGradient10);stroke-width:2.90907" />
    <path
       d="m 0,31.737264 v 27.873449 c 0,7.91854 6.4290905,14.347633 14.347639,14.347633 h 18.997244 c 2.71466,0 5.411641,-1.967389 5.411641,-5.716742 0,-3.749353 -3.011321,-5.281519 -5.411641,-5.281519 H 19.41527 c -4.75054,0 -8.608001,-5.048272 -8.608001,-9.801732 V 28.511085 Z"
       fill-rule="evenodd"
       id="path25"
       sodipodi:nodetypes="cccszscscc"
       style="fill:url(#linearGradient11);stroke-width:2.90907" />
    <path
       d="M 100.80408,120.73891 H 72.93063 c -7.91854,0 -14.34763,-6.42909 -14.34763,-14.34764 V 87.394026 c 0,-2.71466 1.96739,-5.411641 5.71674,-5.411641 3.74935,0 5.13913,3.011321 5.13913,5.411641 v 13.929614 c 0,4.75054 5.19066,8.608 9.944122,8.608 h 24.647268 z"
       fill-rule="evenodd"
       id="path28"
       sodipodi:nodetypes="cccszscscc"
       style="fill:url(#linearGradient12);stroke-width:2.90907" />
    <path
       d="M 58.583,100.88545 V 77.4501 c 0,-7.91854 6.42909,-14.34763 14.34764,-14.34763 h 31.49654 c 2.71466,0 5.41164,1.96739 5.41164,5.71674 0,3.74935 -3.01132,5.13913 -5.41164,5.13913 H 77.998273 c -4.750543,0 -8.608003,5.19066 -8.608003,9.944122 v 24.647268 z"
       fill-rule="evenodd"
       id="path29"
       sodipodi:nodetypes="cccszscscc"
       style="fill:url(#linearGradient29);stroke-width:2.90907" />
    <path
       d="m 57.905462,18.068364 v 0 0 c -3.365817,0 -6.094547,-2.423269 -6.094547,-5.405089 v 0 c 0,-2.98182 2.72873,-5.40218 6.094547,-5.40218 v 0 0 h 27.873448 27.87345 c 7.91854,0 14.34763,6.42909 14.34763,14.347639 v 18.997244 c 0,2.71466 -1.96739,5.411641 -5.71674,5.411641 -3.74935,0 -5.13913,-3.011321 -5.13913,-5.411641 V 26.676364 c 0,-4.750539 -5.19066,-8.608 -9.94412,-8.608 H 82.552731 Z"
       fill-rule="evenodd"
       id="path30"
       sodipodi:nodetypes="sccssscscccszscscs"
       style="fill:url(#linearGradient13);stroke-width:2.90907" />
    <path
       id="path31"
       style="isolation:isolate;fill:url(#linearGradient14);stroke-width:2.90907"
       d="m 5.7173067,85.781701 c -3.7493483,0 -5.71726472839,2.697941 -5.7172852,5.412598 L 0,106.3916 c -1.1202556e-5,7.91854 6.4296124,14.34668 14.348145,14.34668 h 18.972367 1.839844 c 2.714657,0 5.411132,-1.96647 5.411132,-5.71582 0,-3.74936 -3.010815,-5.14015 -5.411132,-5.14014 h -7.700395 -0.07471 l -7.50293,10e-4 c -4.479902,-0.45098 -9.026376,-4.11419 -9.026367,-8.56055 l 2.1e-5,-10.128941 c 2.6e-5,-2.400318 -1.3893221,-5.412598 -5.1386713,-5.412598 z"
       sodipodi:nodetypes="scsscssccccscs" />
    <path
       d="M 100.80433,73.95834 H 72.93088 c -7.91854,0 -14.347633,-6.42909 -14.347633,-14.347639 l 1.41e-4,-28.497066 c 1.3e-5,-2.714659 1.967389,-5.411641 5.716742,-5.411641 3.749353,0 5.139145,3.011322 5.139131,5.411641 L 69.43912,54.54307 c 0,4.75054 5.190659,8.607696 9.944119,8.607745 l 24.647271,2.56e-4 z"
       fill-rule="evenodd"
       id="path32"
       sodipodi:nodetypes="cccszscscc"
       style="fill:url(#linearGradient15);stroke-width:2.90907" />
    <path
       d="m 27.218178,63.102 h 27.87345 c 7.91854,0 14.347633,6.42909 14.347633,14.347639 l -1.4e-4,28.497061 c -1e-5,2.71466 -1.96739,5.41164 -5.716743,5.41164 -3.749353,0 -5.139145,-3.01132 -5.139131,-5.41164 l 1.41e-4,-23.42943 c 0,-4.75054 -5.190659,-8.607696 -9.944119,-8.607745 l -24.647271,-2.56e-4 z"
       fill-rule="evenodd"
       id="path33"
       sodipodi:nodetypes="cccszscscc"
       style="fill:url(#linearGradient25);stroke-width:2.90907" />
  </g>
  <path
     d="M 20.569519,35.424768 H 13.6194 V 28.474647 Z M 25.45282,37.77112 H 12.054465 c -0.432001,0 -0.781413,-0.349408 -0.781413,-0.781409 V 23.591353 c 0,-0.432001 0.247765,-0.535766 0.552706,-0.230823 L 25.68364,37.218418 c 0.30494,0.304938 0.20118,0.552702 -0.23082,0.552702 z"
     fill-rule="evenodd"
     id="path3"
     style="display:none;isolation:isolate;fill:url(#linearGradient3);fill-opacity:1;stroke-width:2.11764"
     sodipodi:nodetypes="ccccsssssss" />
  <path
     d="m 18.710811,9.4211061 h -6.950119 v 6.9501209 z m 4.883301,-2.346352 H 10.195757 c -0.4320009,0 -0.7814129,0.349408 -0.7814129,0.781409 V 21.254521 c 0,0.432001 0.247765,0.535766 0.552706,0.230823 L 23.824932,7.6274561 c 0.30494,-0.304938 0.20118,-0.552702 -0.23082,-0.552702 z"
     fill-rule="evenodd"
     id="path2"
     style="display:none;isolation:isolate;fill:url(#linearGradient2);fill-opacity:1;stroke-width:2.11764"
     sodipodi:nodetypes="ccccsssssss" />
  <path
     d="m 18.710811,37.754829 h -6.950119 v -6.950121 z m 4.883301,2.346352 H 10.195757 c -0.4320009,0 -0.7814129,-0.349408 -0.7814129,-0.781409 V 25.921414 c 0,-0.432001 0.247765,-0.535766 0.552706,-0.230823 L 23.824932,39.548479 c 0.30494,0.304938 0.20118,0.552702 -0.23082,0.552702 z"
     fill-rule="evenodd"
     id="path4"
     style="display:none;isolation:isolate;fill:url(#linearGradient4);fill-opacity:1;stroke-width:2.11764"
     sodipodi:nodetypes="ccccsssssss" />
  <path
     d="m 28.683898,37.754829 h 6.950119 v -6.950121 z m -4.883301,2.346352 h 13.398355 c 0.432001,0 0.781413,-0.349408 0.781413,-0.781409 V 25.921414 c 0,-0.432001 -0.247765,-0.535766 -0.552706,-0.230823 L 23.569777,39.548479 c -0.30494,0.304938 -0.20118,0.552702 0.23082,0.552702 z"
     fill-rule="evenodd"
     id="path5"
     style="display:none;isolation:isolate;fill:url(#linearGradient5);fill-opacity:1;stroke-width:2.11764"
     sodipodi:nodetypes="ccccsssssss" />
</svg>
