<?xml version="1.0" encoding="UTF-8" standalone="no"?>
<svg
   width="192"
   height="192"
   viewBox="0 0 192 192"
   fill="none"
   version="1.1"
   id="svg8"
   sodipodi:docname="lutris.svg"
   inkscape:version="1.3.2 (091e20ef0f, 2023-11-25, custom)"
   xmlns:inkscape="http://www.inkscape.org/namespaces/inkscape"
   xmlns:sodipodi="http://sodipodi.sourceforge.net/DTD/sodipodi-0.dtd"
   xmlns:xlink="http://www.w3.org/1999/xlink"
   xmlns="http://www.w3.org/2000/svg"
   xmlns:svg="http://www.w3.org/2000/svg">
  <sodipodi:namedview
     id="namedview8"
     pagecolor="#ffffff"
     bordercolor="#666666"
     borderopacity="1.0"
     inkscape:showpageshadow="2"
     inkscape:pageopacity="0.0"
     inkscape:pagecheckerboard="0"
     inkscape:deskcolor="#d1d1d1"
     inkscape:zoom="2.2898107"
     inkscape:cx="92.147355"
     inkscape:cy="81.229422"
     inkscape:current-layer="svg8" />
  <defs
     id="defs8">
    <linearGradient
       id="paint0_linear"
       x1="34.9995"
       y1="56.999001"
       x2="34.9995"
       y2="15"
       gradientUnits="userSpaceOnUse">
      <stop
         stop-color="#FD5900"
         id="stop3"
         offset="0"
         style="stop-color:#00f1fa;stop-opacity:1;" />
      <stop
         offset="1"
         stop-color="#FFDE00"
         id="stop4"
         style="stop-color:#006cff;stop-opacity:1;" />
    </linearGradient>
    <linearGradient
       id="paint1_linear"
       x1="32"
       y1="59.998798"
       x2="32"
       y2="4.0012202"
       gradientUnits="userSpaceOnUse">
      <stop
         stop-color="#AC3E00"
         id="stop5"
         offset="0"
         style="stop-color:#c900ff;stop-opacity:1;" />
      <stop
         offset="1"
         stop-color="#FF620A"
         id="stop6"
         style="stop-color:#6033ff;stop-opacity:1;" />
    </linearGradient>
    <linearGradient
       id="paint2_linear"
       x1="32"
       y1="59.998798"
       x2="32"
       y2="4.0012202"
       gradientUnits="userSpaceOnUse">
      <stop
         stop-color="#AC3E00"
         id="stop7"
         offset="0"
         style="stop-color:#c900ff;stop-opacity:1;" />
      <stop
         offset="1"
         stop-color="#FF620A"
         id="stop8"
         style="stop-color:#6033ff;stop-opacity:1;" />
    </linearGradient>
    <linearGradient
       id="_lgradient_4"
       x1="0.07809598"
       y1="1"
       x2="1.00001"
       y2="0.5"
       gradientTransform="matrix(180.00042,0,0,128.96612,5.9977646,31.516937)"
       gradientUnits="userSpaceOnUse"
       xlink:href="#linearGradient9689">
      <stop
         offset="0"
         stop-opacity="1"
         style="stop-color:#e5f230;stop-opacity:1;"
         id="stop1" />
      <stop
         offset="1"
         stop-opacity="1"
         style="stop-color:#24d864;stop-opacity:1;"
         id="stop2" />
    </linearGradient>
    <linearGradient
       id="linearGradient9689"
       x1="-191.17393"
       y1="249.12497"
       x2="255.24251"
       y2="54.070564"
       gradientUnits="userSpaceOnUse"
       gradientTransform="matrix(0.09766906,0,0,0.09766906,22.620997,18.718979)"
       spreadMethod="pad">
      <stop
         id="stop244"
         offset="0"
         style="stop-color:#e5f230;stop-opacity:1;" />
      <stop
         offset="1"
         id="stop246"
         style="stop-color:#24d864;stop-opacity:1;" />
    </linearGradient>
  </defs>
  <path
     d="m 79.705923,109.6704 v 0 c 3.353111,0 6.077508,2.72442 6.077508,6.07753 v 0 c 0,3.35312 -2.724397,6.0735 -6.077508,6.0735 v 0 H 54.533339 c -1.67657,0 -3.44581,1.29772 -3.945535,2.89771 l -6.6861,21.27537 c -2.514825,7.99591 -11.361119,14.48855 -19.743905,14.48855 h -4.102737 c -8.382806,0 -14.6578124,-6.78283 -14.0089474,-15.14145 L 11.974521,69.110561 c 0.64881,-8.358613 4.533965,-20.17111 8.664912,-26.369546 v 0 c 4.134985,-6.19441 14.295088,-11.224077 22.677881,-11.224077 h 58.203996 v 0 c 3.35311,0 6.07761,2.7244 6.07761,6.077527 v 0 c 0,3.353111 -2.7245,6.073496 -6.07761,6.073496 v 0 H 43.740475 c -5.02965,0 -11.19989,3.139515 -13.775185,7.004475 v 0 c -2.571253,3.86495 -5.033707,11.066902 -5.493137,16.076434 l -6.899696,75.53384 c -0.306354,3.34104 2.168252,6.04932 5.521362,6.04932 h 1.974799 c 3.35311,0 6.891631,-2.59543 7.895141,-5.79541 l 7.600937,-24.17309 c 1.507308,-4.79593 6.815057,-8.69313 11.84474,-8.69313 z M 131.07073,43.667961 v 0 c -3.35311,0 -6.07356,-2.720385 -6.07356,-6.073496 v 0 c 0,-3.353127 2.72045,-6.077527 6.07356,-6.077527 v 0 h 17.6119 c 8.38279,0 18.5429,5.029667 22.67795,11.224077 v 0 c 4.1309,6.198436 8.01601,18.010933 8.66485,26.369547 l 5.92845,76.231048 c 0.64891,8.35862 -5.62615,15.14145 -14.00895,15.14145 h -6.4725 c -8.3828,0 -18.09155,-6.1541 -21.66635,-13.73892 l -10.4543,-22.17413 c -0.7137,-1.51534 -2.6559,-2.74858 -4.33242,-2.74858 h -23.90714 v 0 c -3.35315,0 -6.07346,-2.72038 -6.07346,-6.0735 v 0 c 0,-3.35311 2.72031,-6.07753 6.07346,-6.07753 v 0 h 27.73584 c 3.35312,0 7.23417,2.46245 8.66492,5.49719 l 13.04569,27.67129 c 1.43071,3.03069 5.3118,5.49314 8.66491,5.49314 h 5.6826 c 3.35314,0 5.8276,-2.70828 5.52131,-6.04933 l -6.89966,-75.533819 c -0.4599,-5.009532 -2.92195,-12.211484 -5.49315,-16.076434 v 0 c -2.57526,-3.86496 -8.74556,-7.004475 -13.7752,-7.004475 z M 40.762182,72.765936 v 7.94754 h 9.97875 c 1.624179,0 2.942037,1.317877 2.942037,2.942047 v 9.978758 h 7.943528 v -9.982793 c 0,-1.624176 1.317858,-2.942035 2.942037,-2.942035 h 9.982767 V 72.76997 h -9.982767 c -1.624179,0 -2.942037,-1.31787 -2.942037,-2.942038 v -9.982778 h -7.943528 v 9.978748 c 0,1.624174 -1.317858,2.942035 -2.942037,2.942035 z m 99.650548,3.071016 c 0,-3.337001 2.70829,-6.045291 6.04529,-6.045291 3.33694,0 6.04521,2.70829 6.04521,6.045291 0,3.336991 -2.70827,6.04528 -6.04521,6.04528 -3.337,0 -6.04529,-2.708288 -6.04529,-6.04528 z m -24.1812,0 c 0,-3.337001 2.70829,-6.045291 6.04529,-6.045291 3.33704,0 6.04531,2.70829 6.04531,6.045291 0,3.336991 -2.70827,6.04528 -6.04531,6.04528 -3.337,0 -6.04529,-2.708288 -6.04529,-6.04528 z m 18.13589,-18.135869 c 3.33704,0 6.04531,2.708289 6.04531,6.045292 0,3.337001 -2.70827,6.045287 -6.04531,6.045287 -3.337,0 -6.04529,-2.708286 -6.04529,-6.045287 0,-3.337002 2.70829,-6.045291 6.04529,-6.045292 z M 50.740932,53.957047 h 13.827602 c 1.624146,0 2.942035,1.317861 2.942035,2.942027 v 9.98279 h 9.982768 c 1.624179,0 2.942036,1.317871 2.942036,2.942037 v 13.827587 l -0.0032,0.0042 v 0 c 0,1.624165 -1.31789,2.942035 -2.942037,2.938002 h -9.9828 v 9.982791 c 0,1.62417 -1.317858,2.94204 -2.937986,2.94204 h -13.8276 c -1.624147,0 -2.942037,-1.31787 -2.942037,-2.94204 v -9.982816 h -9.97875 c -1.624178,0 -2.942052,-1.313836 -2.942052,-2.938002 V 69.828076 c 0,-1.624166 1.317874,-2.942046 2.942052,-2.942046 h 9.97875 v -9.986812 c 0,-1.624166 1.31789,-2.942026 2.942037,-2.942026 z m 83.626488,27.925185 c 3.33704,0 6.04531,2.708298 6.04531,6.045293 0,3.337001 -2.70827,6.045281 -6.04531,6.045281 -3.337,0 -6.04529,-2.70828 -6.04529,-6.045281 0,-3.336995 2.70829,-6.045293 6.04529,-6.045293 z"
     fill-rule="evenodd"
     fill="url(#_lgradient_4)"
     id="path2-3"
     style="isolation:isolate;fill:url(#_lgradient_4);stroke-width:4.0302" />
</svg>
