<?xml version="1.0" encoding="UTF-8" standalone="no"?>
<!-- Generator: Gravit.io -->

<svg
   style="isolation:isolate"
   viewBox="0 0 512 512"
   width="512pt"
   height="512pt"
   version="1.1"
   id="svg3"
   sodipodi:docname="lutris_battlenet-10.svg"
   inkscape:version="1.4 (e7c3feb100, 2024-10-09)"
   xmlns:inkscape="http://www.inkscape.org/namespaces/inkscape"
   xmlns:sodipodi="http://sodipodi.sourceforge.net/DTD/sodipodi-0.dtd"
   xmlns:xlink="http://www.w3.org/1999/xlink"
   xmlns="http://www.w3.org/2000/svg"
   xmlns:svg="http://www.w3.org/2000/svg">
  <defs
     id="defs3">
    <linearGradient
       id="linearGradient20"
       inkscape:collect="always">
      <stop
         style="stop-color:#00f1fa;stop-opacity:1;"
         offset="0"
         id="stop20" />
      <stop
         style="stop-color:#006cff;stop-opacity:1;"
         offset="1"
         id="stop21" />
    </linearGradient>
    <linearGradient
       id="linearGradient13"
       x1="1.2672628"
       y1="0.60595745"
       x2="0.018005112"
       y2="0.61157668"
       gradientTransform="matrix(43.403,0,0,44.88,2.247,1.554)"
       gradientUnits="userSpaceOnUse">
      <stop
         offset="-99"
         stop-opacity="1"
         style="stop-color:#006cff"
         id="stop13" />
      <stop
         offset="1"
         stop-opacity="1"
         style="stop-color:#00f1fa"
         id="stop12" />
    </linearGradient>
    <linearGradient
       inkscape:collect="always"
       xlink:href="#_lgradient_6"
       id="linearGradient26"
       gradientUnits="userSpaceOnUse"
       gradientTransform="matrix(43.403,0,0,44.88,2.247,1.554)"
       x1="0.50118655"
       y1="0.97301233"
       x2="0.90446502"
       y2="0.34761295" />
    <linearGradient
       inkscape:collect="always"
       xlink:href="#_lgradient_6"
       id="linearGradient27"
       gradientUnits="userSpaceOnUse"
       gradientTransform="matrix(43.403,0,0,44.88,2.2470004,1.554)"
       x1="0.50118655"
       y1="0.97301227"
       x2="0.82954407"
       y2="0.34934095" />
    <linearGradient
       id="linearGradient11"
       x1="1.2672628"
       y1="0.60595745"
       x2="0.018005112"
       y2="0.61157668"
       gradientTransform="matrix(43.403,0,0,44.88,2.247,1.554)"
       gradientUnits="userSpaceOnUse">
      <stop
         offset="0%"
         stop-opacity="1"
         style="stop-color:#00f1fa"
         id="stop1-6" />
      <stop
         offset="100%"
         stop-opacity="1"
         style="stop-color:#006cff"
         id="stop2-7" />
    </linearGradient>
    <linearGradient
       id="paint0_linear"
       x1="32"
       y1="60.297054"
       x2="55.337994"
       y2="22.873159"
       gradientUnits="userSpaceOnUse"
       gradientTransform="scale(0.75)">
      <stop
         stop-color="#5570FF"
         id="stop1-62"
         offset="0"
         style="stop-color:#00f1fa;stop-opacity:1;" />
      <stop
         offset="1"
         stop-color="#4DD3FF"
         id="stop2-9"
         style="stop-color:#006cff;stop-opacity:1;" />
    </linearGradient>
    <linearGradient
       inkscape:collect="always"
       xlink:href="#linearGradient20"
       id="linearGradient21"
       x1="24"
       y1="45.22279"
       x2="41.503494"
       y2="17.154869"
       gradientUnits="userSpaceOnUse" />
    <linearGradient
       inkscape:collect="always"
       xlink:href="#linearGradient5022"
       id="linearGradient3"
       gradientUnits="userSpaceOnUse"
       gradientTransform="matrix(4.5537606,0,0,4.5537606,155.77054,104.97122)"
       x1="5.4008064"
       y1="59.126755"
       x2="25.986532"
       y2="4.5143824" />
    <linearGradient
       id="linearGradient5022"
       x1="0"
       y1="0.5"
       x2="1"
       y2="0.5"
       gradientTransform="matrix(46.1,0,0,37.1,0.95,5.45)"
       gradientUnits="userSpaceOnUse">
      <stop
         offset="0"
         stop-opacity="1"
         style="stop-color:#00f1fa;stop-opacity:1;"
         id="stop5020" />
      <stop
         offset="1"
         stop-opacity="1"
         style="stop-color:#006cff;stop-opacity:1;"
         id="stop5018" />
    </linearGradient>
    <linearGradient
       id="_lgradient_12"
       x1="0.5"
       y1="1.0053046"
       x2="0.5"
       y2="0.083333336"
       gradientTransform="matrix(477.99998,0,0,477.99998,17,16.999999)"
       gradientUnits="userSpaceOnUse">
      <stop
         offset="0%"
         stop-opacity="1"
         style="stop-color:#00f1fa"
         id="stop1-3" />
      <stop
         offset="1"
         stop-opacity="1"
         style="stop-color:#006cff"
         id="stop2-6" />
    </linearGradient>
    <linearGradient
       inkscape:collect="always"
       xlink:href="#linearGradient20"
       id="linearGradient11-3"
       gradientUnits="userSpaceOnUse"
       gradientTransform="matrix(4.1429344,0,0,4.1429344,-7.8576487,-10.720595)"
       x1="40.643227"
       y1="121.71202"
       x2="121.37716"
       y2="64.379631" />
    <linearGradient
       inkscape:collect="always"
       xlink:href="#_lgradient_12"
       id="linearGradient1"
       gradientUnits="userSpaceOnUse"
       gradientTransform="matrix(477.99998,-4.3579627e-7,4.3579627e-7,477.99998,17,16.999999)"
       x1="0.5"
       y1="1.0053046"
       x2="0.5"
       y2="0.083333336" />
  </defs>
  <sodipodi:namedview
     id="namedview3"
     pagecolor="#505050"
     bordercolor="#ffffff"
     borderopacity="1"
     inkscape:showpageshadow="0"
     inkscape:pageopacity="0"
     inkscape:pagecheckerboard="1"
     inkscape:deskcolor="#505050"
     inkscape:document-units="pt"
     inkscape:zoom="0.49999998"
     inkscape:cx="-78.000003"
     inkscape:cy="458.00002"
     inkscape:current-layer="svg3" />
  <linearGradient
     id="_lgradient_6"
     x1="1.2672628"
     y1="0.60595745"
     x2="0.018005112"
     y2="0.61157668"
     gradientTransform="matrix(43.403,0,0,44.88,2.247,1.554)"
     gradientUnits="userSpaceOnUse">
    <stop
       offset="0%"
       stop-opacity="1"
       style="stop-color:#00f1fa"
       id="stop1" />
    <stop
       offset="100%"
       stop-opacity="1"
       style="stop-color:#006cff"
       id="stop2" />
  </linearGradient>
  <path
     d="m 12.497494,13.722869 v 0 c -0.944,0.678 -2.259,0.464 -2.9340002,-0.477 v 0 c -0.674,-0.942 -0.456,-2.256 0.4880002,-2.934 v 0 l 12.065,-7.0899999 c 0.998,-0.587 2.624,-0.594 3.627,-0.014 l 18.14,10.4729999 c 1.004,0.579 1.821687,1.990006 1.818,3.148 l -0.06008,18.87003 c 2e-6,-0.01468 -4.13792,-1.01903 -4.13792,-1.01903 v -17.525 l -17.326,-10.0009999 z m 5.763,27.6 v 0 c 0.99,0.602 1.31,1.896 0.714,2.886 v 0 c -0.597,0.99 -1.885,1.31 -2.876,0.714 v 0 l -11.9670002,-6.671 c -1.011,-0.564 -1.833,-1.962 -1.833,-3.121 v -15.136 c 0,-1.158 0.94,-2.115 2.099,-2.135 v 0 c 1.158,-0.021 2.099,0.903 2.099,2.062 v 14.947 z"
     fill-rule="evenodd"
     fill="url(#_lgradient_6)"
     id="path24"
     style="display:none;isolation:isolate;fill:url(#linearGradient26)"
     sodipodi:nodetypes="cssssccccsccccccssssccssssscc" />
  <path
     d="m 35.502506,13.722869 v 0 c 0.944,0.678 2.259,0.464 2.934,-0.477 v 0 c 0.674,-0.942 0.456,-2.256 -0.488,-2.934 v 0 l -12.065,-7.0899999 c -0.998,-0.587 -2.624,-0.594 -3.627,-0.014 L 4.1165062,13.680869 c -1.004,0.579 -1.821687,1.990006 -1.818,3.148 l 0.06008,18.87003 c -2e-6,-0.01468 4.13792,-1.01903 4.13792,-1.01903 v -17.525 L 23.822506,7.1538691 Z m -5.763,27.6 v 0 c -0.99,0.602 -1.31,1.896 -0.714,2.886 v 0 c 0.597,0.99 1.885,1.31 2.876,0.714 v 0 l 11.967,-6.671 c 1.011,-0.564 1.833,-1.962 1.833,-3.121 v -15.136 c 0,-1.158 -0.94,-2.115 -2.099,-2.135 v 0 c -1.158,-0.021 -2.099,0.903 -2.099,2.062 v 14.947 z"
     fill-rule="evenodd"
     fill="url(#_lgradient_6)"
     id="path25"
     style="display:none;fill:url(#linearGradient27)"
     sodipodi:nodetypes="cssssccccsccccccssssccssssscc" />
  <path
     d="m 13.135444,38.980554 c 1.608612,0.92862 3.251402,1.802459 4.875634,2.704473 1.855805,-2.871403 2.192547,-3.171803 4.036485,-6.050727 0.338277,-0.574242 0.876163,-1.072438 1.574605,-1.156325 2.309184,-0.496478 4.710186,-1.183197 6.534539,-2.785876 2.488124,-2.11484 2.931286,-5.797611 1.794122,-8.470157 -1.217458,1.64132 -2.077418,3.483085 -3.223584,5.169568 -0.583227,0.811686 -1.795921,1.014496 -2.584996,0.502483 -2.002095,-1.090995 -4.007132,-2.180334 -5.999213,-3.287637 -0.913408,-0.413489 -1.281337,-1.617503 -0.681483,-2.481148 1.101524,-1.718245 2.489572,-3.267188 3.463528,-5.055809 -2.209759,0.09575 -4.526884,1.175987 -5.737928,3.080237 -1.212881,1.880498 -1.469332,4.121868 -1.382273,6.219554 0.01002,0.676844 0.152279,1.439081 -0.342615,2.034 -0.614794,0.850711 -1.962044,1.079446 -2.725855,0.428828 -0.811856,-0.627109 -0.636801,-1.756337 -0.69108,-2.674811 -0.0556,-3.522876 0.944025,-7.419448 3.875015,-9.936316 3.019904,-2.623887 7.236021,-3.170028 10.992553,-2.888786 1.347592,0.02341 2.11734,1.669456 1.273324,2.738001 -1.45561,2.081061 -2.975009,4.123408 -4.424727,6.20821 0.918378,0.599085 1.8866,1.116842 2.881968,1.594447 1.380937,-2.227339 2.686237,-4.493953 4.055289,-6.728804 0.438638,-0.851138 1.565512,-1.321871 2.439812,-0.957373 0.869627,0.349312 1.204354,1.276901 1.59018,2.037167 1.512753,3.43496 2.219214,7.529944 0.658533,11.251737 -1.230777,3.017229 -4.090312,5.205996 -7.151346,6.370844 -1.087186,0.473353 -2.278864,0.625118 -3.355419,1.11736 -2.155431,3.168022 -2.615016,3.875106 -4.745076,7.060864 -0.619245,0.924304 -1.919855,1.059235 -2.781091,0.534535 -2.059032,-1.076677 -4.075446,-2.227087 -6.110297,-3.342333 z"
     fill="url(#paint0_linear)"
     id="path2-1"
     sodipodi:nodetypes="ccccccccccccccccccccccccccccccc"
     style="display:none;fill:url(#linearGradient21);fill-opacity:1;stroke-width:0.75" />
  <path
     inkscape:connector-curvature="0"
     id="path3"
     d="m 191.70445,125.56 c 2.07914,0.0865 4.14028,0.37 6.1369,0.81761 15.97316,3.58564 31.52216,15.558 48.9885,34.28675 0.84868,0.88122 1.5593,1.88575 2.10788,2.97939 6.40807,12.65995 -10.38756,24.15537 -19.86932,13.59916 -15.7418,-16.87976 -29.9281,-25.67426 -36.51905,-27.15373 -3.29544,-0.73999 -3.74072,-0.22557 -4.06456,0.0171 -0.32299,0.24617 -1.69905,1.60406 -2.49034,6.43935 -1.58326,9.67177 1.15088,28.80548 8.74287,50.65165 7.59186,21.84619 19.58797,46.76488 34.60678,70.61889 8.63593,13.70339 -11.91824,26.65319 -20.55417,12.94979 -15.96366,-25.35397 -28.69721,-51.67469 -37.00821,-75.59066 -8.31122,-23.91582 -12.63631,-45.03223 -9.77458,-62.51643 1.43077,-8.74184 5.00459,-16.83811 11.90028,-22.01278 5.17148,-3.88161 11.5595,-5.3523 17.79702,-5.08743 z m 57.44674,71.93525 c 22.25935,0.11995 43.72742,2.05224 62.81878,5.49653 25.45512,4.59157 46.58915,11.3784 60.87985,22.44856 7.14537,5.5349 12.59484,12.45065 14.04373,21.01677 1.44894,8.56612 -2.00973,17.16047 -7.46213,23.35577 -10.90477,12.39075 -29.07185,19.98309 -54.21819,25.85496 -15.77808,3.67622 -21.29241,-19.99089 -5.51434,-23.6671 22.64129,-5.28689 37.21439,-13.37488 41.48191,-18.22393 2.13377,-2.42453 1.86016,-2.81022 1.77886,-3.29077 -0.0808,-0.48016 -0.86484,-2.64309 -5.00737,-5.85227 -8.28547,-6.41817 -26.95353,-13.5346 -50.28707,-17.74357 -23.33351,-4.2088 -51.46096,-6.03111 -79.80641,-4.64287 -16.19064,0.79302 -17.36465,-23.47887 -1.17411,-24.2719 7.53738,-0.36999 15.04663,-0.52159 22.46642,-0.48016 z m 42.79823,43.82109 c 9.07581,0.0228 14.92448,9.62509 10.77961,17.69916 -13.78034,26.94547 -30.2631,51.8098 -47.01402,71.67722 -16.75133,19.86706 -33.26903,34.87495 -50.05576,41.78433 -8.3935,3.45477 -17.12162,4.76506 -25.29473,1.74326 -8.17319,-3.02155 -13.95463,-10.35159 -16.59633,-18.19725 -5.28339,-15.69094 -2.68626,-35.29468 4.86506,-60.11494 0.3346,-1.16286 0.84117,-2.269 1.5029,-3.28202 7.77714,-11.6971 25.8991,-3.05211 21.70152,10.35262 -6.80252,22.3589 -7.11428,39.14605 -5.04293,45.29747 1.03544,3.0756 1.52163,2.98697 1.98335,3.15753 0.46331,0.17231 2.75367,0.60422 7.63998,-1.40435 9.77234,-4.02223 25.33688,-16.77803 40.69932,-34.99819 15.36263,-18.22012 31.03616,-41.77606 43.99008,-67.10574 2.084,-4.06601 6.27288,-6.61916 10.84184,-6.6082 z"
     style="color:#000000;font-style:normal;font-variant:normal;font-weight:normal;font-stretch:normal;font-size:medium;line-height:normal;font-family:sans-serif;font-variant-ligatures:normal;font-variant-position:normal;font-variant-caps:normal;font-variant-numeric:normal;font-variant-alternates:normal;font-feature-settings:normal;text-indent:0;text-align:start;text-decoration:none;text-decoration-line:none;text-decoration-style:solid;text-decoration-color:#000000;letter-spacing:normal;word-spacing:normal;text-transform:none;writing-mode:lr-tb;direction:ltr;text-orientation:mixed;dominant-baseline:auto;baseline-shift:baseline;text-anchor:start;white-space:normal;shape-padding:0;clip-rule:nonzero;display:inline;overflow:visible;visibility:visible;isolation:auto;mix-blend-mode:normal;color-interpolation:sRGB;color-interpolation-filters:linearRGB;solid-color:#000000;solid-opacity:1;vector-effect:none;fill:url(#linearGradient3);fill-opacity:1;fill-rule:nonzero;stroke:none;stroke-width:24.285;stroke-linecap:round;stroke-linejoin:round;stroke-miterlimit:4;stroke-dasharray:none;stroke-dashoffset:0;stroke-opacity:1;color-rendering:auto;image-rendering:auto;shape-rendering:auto;text-rendering:auto;enable-background:accumulate"
     sodipodi:nodetypes="ccccccccccccccccsccscccscccccsscccscccccccccccc" />
  <path
     d="m 372.41292,441.57354 v 0 c 5.82562,9.31104 -0.77675,23.99958 -14.73834,32.77288 C 344.92792,482.35292 300.91208,495 256,495 192.665,495 131.81958,469.80542 87.00708,424.99292 42.19458,380.18042 17,319.335 17,256 c 0,-30.4725 5.77583,-60.64625 5.96504,-61.11429 6.16421,-15.296 19.43867,-24.40788 29.636,-20.34488 v 0 c 10.19734,4.063 14.23046,17.94492 9.01229,30.97042 0,0 -4.78,25.095 -4.78,50.48875 0,52.77917 21.01209,103.46708 58.35584,140.81083 37.34375,37.34375 88.03166,58.35584 140.81083,58.35584 37.44333,0 74.09,-10.55584 80.543,-14.59892 13.97154,-8.76333 30.04429,-8.30525 35.86992,1.00573 z M 185.64437,48.518125 v 0 C 182.09921,38.101707 190.33475,25.90275 204.0175,21.282083 204.0175,21.282083 229.90917,17 256,17 319.335,17 380.18042,42.194583 424.99292,87.007083 469.80542,131.81958 495,192.665 495,256 c 0,34.35625 -7.36917,68.31417 -13.384,81.38946 -4.59079,9.98821 -16.42129,14.38979 -26.39954,9.82887 v 0 c -9.97825,-4.56091 -14.36988,-16.38146 -9.80896,-26.38958 3.585,-7.86708 9.75917,-36.24833 9.75917,-64.82875 0,-52.77917 -21.01209,-103.46708 -58.35584,-140.81083 C 359.46708,77.845417 308.77917,56.833333 256,56.833333 c -21.70917,0 -43.31875,3.485417 -43.31875,3.485417 -11.37242,3.903667 -23.49171,-1.384208 -27.03688,-11.800625 z"
     fill-rule="evenodd"
     fill="url(#_lgradient_12)"
     id="path2"
     sodipodi:nodetypes="sscssscsscssscssscssscsscssscs"
     style="display:none;isolation:isolate;fill:url(#_lgradient_12);stroke-width:9.95833" />
  <path
     fill-rule="evenodd"
     clip-rule="evenodd"
     d="M 320.97668,27.451531 C 287.91523,17.832715 252.6688,16.250241 218.67105,21.24583 133.31749,33.595133 58.016731,96.086328 30.356401,177.2257 c -15.70333,44.46404 -17.48286,93.5197 -5.74438,139.10068 1.71706,9.12233 11.6137,15.54512 20.69833,13.46661 10.02131,-1.42765 16.82738,-12.53569 13.7678,-22.09261 C 48.650821,266.5569 50.711461,222.155 66.445941,182.62477 86.363901,131.30376 128.47854,89.073997 179.8654,68.688274 c 39.61723,-16.104001 84.41688,-19.051699 125.87605,-8.594932 7.11795,2.109996 15.82805,2.358158 21.22922,-3.506166 9.14716,-8.12968 5.74415,-25.350201 -5.99399,-29.135645 z M 464.0475,192.80272 c 9.49151,-5.05769 22.88561,0.74449 25.13101,11.32513 11.7411,51.50744 5.622,106.92416 -17.45,154.55299 -37.90371,80.45496 -124.5391,136.83616 -214.45442,134.78955 -12.92513,0.89902 -22.25999,-14.55413 -15.89108,-25.59919 3.87115,-8.41016 13.86187,-10.02176 22.16635,-9.83533 62.90963,-0.71673 123.41553,-34.75508 159.0688,-85.85776 31.90474,-44.83608 43.7701,-102.89019 32.59247,-156.63151 -2.56034,-8.50171 0.31486,-18.80354 8.83687,-22.74388 z"
     id="path11"
     style="display:none;fill:url(#linearGradient11-3);stroke-width:4.14293"
     sodipodi:nodetypes="cccccccccccccccccccc" />
  <path
     d="m 320.41628,465.38016 v 0 c 3.21724,10.50155 -6.96183,22.98077 -22.71839,27.8416 -14.38456,4.43461 -60.1739,5.25861 -103.55564,-6.36549 C 132.96534,470.46397 80.714011,430.37992 49.026788,375.49604 17.339565,320.61216 8.7514233,255.31916 25.143728,194.14225 c 7.886863,-29.43418 21.275427,-57.08489 21.579328,-57.48801 9.913066,-13.17938 25.093537,-18.5451 33.89182,-11.98128 v 0 c 8.798292,6.56382 9.101082,21.01658 0.689469,32.24768 0,0 -11.112189,23.00275 -17.684575,47.53123 -13.660255,50.98077 -6.483131,105.37986 19.922888,151.11642 26.406022,45.73657 69.928452,79.15169 120.909212,92.81194 36.16748,9.69105 74.2975,8.97974 81.57705,6.74459 15.76358,-4.84863 31.17011,-0.24622 34.38738,10.25528 z M 241.74194,37.378521 v 0 C 241.01355,26.399479 250.62579,17.921865 265.03823,17 c 0,0 27.61772,1.390924 52.81952,8.143728 61.17691,16.392304 113.42824,56.476356 145.11546,111.360232 31.68722,54.88388 40.27537,120.17688 23.88306,181.35379 -8.89205,33.18559 -24.79908,64.07914 -33.99309,75.15215 -7.0195,8.45969 -19.5861,9.64933 -28.0439,2.66125 v 0 c -8.4578,-6.98806 -9.6404,-19.54247 -2.6446,-28.02912 5.49899,-6.67115 18.80839,-32.48734 26.20555,-60.0939 13.66025,-50.98077 6.48313,-105.37986 -19.92289,-151.11642 -26.40602,-45.73657 -69.92845,-79.151683 -120.90921,-92.811937 -20.96945,-5.618747 -42.7448,-7.845064 -42.7448,-7.845064 -11.99525,0.827254 -22.33299,-7.417144 -23.06139,-18.396188 z"
     fill-rule="evenodd"
     fill="url(#_lgradient_12)"
     id="path1"
     sodipodi:nodetypes="sscssscsscssscssscssscsscssscss"
     style="display:inline;isolation:isolate;fill:url(#linearGradient1);stroke-width:9.95833" />
  <path
     d="m 320.41628,465.38016 v 0 c 3.21724,10.50155 -6.96183,22.98077 -22.71839,27.8416 -14.38456,4.43461 -60.1739,5.25861 -103.55564,-6.36549 C 132.96534,470.46397 80.714011,430.37992 49.026788,375.49604 17.339565,320.61216 8.7514233,255.31916 25.143728,194.14225 c 7.886863,-29.43418 21.275427,-57.08489 21.579328,-57.48801 9.913066,-13.17938 25.093537,-18.5451 33.89182,-11.98128 v 0 c 8.798292,6.56382 9.101082,21.01658 0.689469,32.24768 0,0 -11.112189,23.00275 -17.684575,47.53123 -13.660255,50.98077 -6.483131,105.37986 19.922888,151.11642 26.406022,45.73657 69.928452,79.15169 120.909212,92.81194 36.16748,9.69105 74.2975,8.97974 81.57705,6.74459 15.76358,-4.84863 31.17011,-0.24622 34.38738,10.25528 z"
     fill-rule="evenodd"
     fill="url(#_lgradient_12)"
     id="path4"
     sodipodi:nodetypes="sscssscsscssscss"
     style="display:none;isolation:isolate;fill:url(#linearGradient1);stroke-width:9.95833" />
  <path
     d="m 185.64437,48.518125 v 0 C 182.09921,38.101707 190.33475,25.90275 204.0175,21.282083 204.0175,21.282083 229.90917,17 256,17 319.335,17 380.18042,42.194583 424.99292,87.007083 469.80542,131.81958 495,192.665 495,256 c -2.57822,34.9983 -8.34141,68.68898 -14.35624,81.76427 -4.59079,9.98821 -15.44905,14.01498 -25.4273,9.45406 v 0 c -9.97825,-4.56091 -14.36988,-16.38146 -9.80896,-26.38958 3.585,-7.86708 9.75917,-36.24833 9.75917,-64.82875 0,-52.77917 -21.01209,-103.46708 -58.35584,-140.81083 C 359.46708,77.845417 308.77917,56.833333 256,56.833333 c -21.70917,0 -43.31875,3.485417 -43.31875,3.485417 -11.37242,3.903667 -23.49171,-1.384208 -27.03688,-11.800625 z"
     fill-rule="evenodd"
     fill="url(#_lgradient_12)"
     id="path5"
     sodipodi:nodetypes="scssscsscssscss"
     style="display:inline;isolation:isolate;fill:url(#_lgradient_12);stroke-width:9.95833" />
</svg>
