<?xml version="1.0" encoding="UTF-8" standalone="no"?>
<svg
   width="128"
   height="128"
   viewBox="0 0 128 128"
   fill="none"
   version="1.1"
   id="svg1087"
   sodipodi:docname="audio-volume-medium.svg"
   inkscape:version="1.3.2 (091e20ef0f, 2023-11-25, custom)"
   xmlns:inkscape="http://www.inkscape.org/namespaces/inkscape"
   xmlns:sodipodi="http://sodipodi.sourceforge.net/DTD/sodipodi-0.dtd"
   xmlns:xlink="http://www.w3.org/1999/xlink"
   xmlns="http://www.w3.org/2000/svg"
   xmlns:svg="http://www.w3.org/2000/svg">
  <sodipodi:namedview
     id="namedview1089"
     pagecolor="#ffffff"
     bordercolor="#666666"
     borderopacity="1.0"
     inkscape:showpageshadow="2"
     inkscape:pageopacity="0.0"
     inkscape:pagecheckerboard="0"
     inkscape:deskcolor="#d1d1d1"
     showgrid="true"
     inkscape:zoom="7.375"
     inkscape:cx="58.305085"
     inkscape:cy="73.152543"
     inkscape:current-layer="svg1087"
     showguides="true">
    <inkscape:grid
       id="grid2"
       units="px"
       originx="0"
       originy="0"
       spacingx="0.5"
       spacingy="0.5"
       empcolor="#0099e5"
       empopacity="0.30196078"
       color="#0099e5"
       opacity="0.14901961"
       empspacing="5"
       dotted="false"
       gridanglex="30"
       gridanglez="30"
       visible="true" />
  </sodipodi:namedview>
  <path
     d="M 35.0672,44.909225 H 14.2689 c -0.6336,0 -1.2412,0.2513 -1.6892,0.6988 -0.448,0.4475 -0.6997,1.0543 -0.6997,1.6871 v 33.4038 c 0,0.6328 0.2517,1.2397 0.6997,1.6871 0.448,0.4475 1.0556,0.6989 1.6892,0.6989 h 20.7983 c 1.1042,5e-4 2.1742,0.3831 3.0279,1.0826 l 27.314,22.368505 c 0.3562,0.262 0.7781,0.42 1.2187,0.456 0.4407,0.036 0.8828,-0.05 1.2771,-0.25 0.3944,-0.2 0.7255,-0.505 0.9565,-0.881 0.231,-0.377 0.3529,-0.81 0.352,-1.252 V 23.384625 c -2e-4,-0.4411 -0.1229,-0.8735 -0.3543,-1.2491 -0.2315,-0.3757 -0.5627,-0.6799 -0.9568,-0.8789 -0.3942,-0.199 -0.8358,-0.285 -1.2759,-0.2484 -0.4402,0.0366 -0.8615,0.1944 -1.2173,0.4557 l -27.314,22.3686 c -0.8545,0.6974 -1.9244,1.0778 -3.0279,1.0767 z"
     stroke="url(#paint0_linear)"
     stroke-width="12"
     stroke-linecap="round"
     stroke-linejoin="round"
     id="path1071"
     style="fill:#000000;fill-opacity:0;stroke:url(#paint0_linear)" />
  <path
     d="m 88.67,83.08785 c 2.909,-5.789 4.778,-12.1715 4.778,-19.0879 0,-7.0118 -1.792,-13.2422 -4.778,-19.0878"
     stroke="url(#paint1_linear)"
     stroke-width="12"
     stroke-linecap="round"
     stroke-linejoin="round"
     id="path1073"
     style="stroke:url(#linearGradient2);stroke-width:10;stroke-dasharray:none" />
  <defs
     id="defs1085">
    <linearGradient
       id="paint0_linear"
       x1="49.666702"
       y1="112.99995"
       x2="102.222"
       y2="44.909199"
       gradientUnits="userSpaceOnUse"
       gradientTransform="translate(-9.12,2.5263716e-5)">
      <stop
         stop-color="#b900ff"
         id="stop1075"
         offset="0"
         style="stop-color:#b900ff;stop-opacity:1;" />
      <stop
         offset="1"
         stop-color="#6033ff"
         id="stop1077"
         style="stop-color:#6033ff;stop-opacity:1;" />
    </linearGradient>
    <linearGradient
       id="paint1_linear"
       x1="52.03281"
       y1="112.99995"
       x2="102.222"
       y2="44.909199"
       gradientUnits="userSpaceOnUse">
      <stop
         stop-color="#b900ff"
         id="stop1080"
         offset="0"
         style="stop-color:#b900ff;stop-opacity:1;" />
      <stop
         offset="1"
         stop-color="#6033ff"
         id="stop1082"
         style="stop-color:#6033ff;stop-opacity:1;" />
    </linearGradient>
    <linearGradient
       inkscape:collect="always"
       xlink:href="#paint1_linear"
       id="linearGradient2"
       gradientUnits="userSpaceOnUse"
       x1="52.03281"
       y1="112.99995"
       x2="123.552"
       y2="24.997049"
       gradientTransform="translate(-13.552,0.00295)" />
    <linearGradient
       inkscape:collect="always"
       xlink:href="#paint1_linear"
       id="linearGradient3"
       gradientUnits="userSpaceOnUse"
       x1="62.56673"
       y1="90.458076"
       x2="104.70122"
       y2="42.936222"
       gradientTransform="matrix(1.6951948,0,0,1.8517794,-67.488958,-54.508414)" />
  </defs>
  <path
     d="m 105.79724,99.346486 c 4.93132,-10.719949 8.09963,-22.53893 8.09963,-35.346576 0,-12.984308 -3.03779,-24.521634 -8.09963,-35.346396"
     stroke="url(#paint1_linear)"
     stroke-width="12"
     stroke-linecap="round"
     stroke-linejoin="round"
     id="path1"
     style="stroke-dasharray:none;stroke-width:11;stroke:url(#linearGradient3);fill:#000000;fill-opacity:0;opacity:1" />
</svg>
