<?xml version="1.0" encoding="UTF-8" standalone="no"?>
<svg
   width="24"
   height="24"
   viewBox="0 0 24 24"
   fill="none"
   version="1.1"
   id="svg4"
   sodipodi:docname="openrgb.svg"
   inkscape:version="1.3.2 (091e20ef0f, 2023-11-25, custom)"
   xmlns:inkscape="http://www.inkscape.org/namespaces/inkscape"
   xmlns:sodipodi="http://sodipodi.sourceforge.net/DTD/sodipodi-0.dtd"
   xmlns:xlink="http://www.w3.org/1999/xlink"
   xmlns="http://www.w3.org/2000/svg"
   xmlns:svg="http://www.w3.org/2000/svg">
  <sodipodi:namedview
     id="namedview4"
     pagecolor="#505050"
     bordercolor="#ffffff"
     borderopacity="1"
     inkscape:showpageshadow="0"
     inkscape:pageopacity="0"
     inkscape:pagecheckerboard="1"
     inkscape:deskcolor="#505050"
     inkscape:zoom="32"
     inkscape:cx="12.65625"
     inkscape:cy="12.640625"
     inkscape:current-layer="svg4" />
  <path
     d="M 19.328737,8.32875 C 19.328737,4.3 16.029637,1 12.000037,1 7.9703173,1 4.6712373,4.3 4.6712373,8.32875 c 0,2.18255 0.95905,4.19745 2.57417,5.58535 0.21731,0.1868 0.35366,0.4541 0.35366,0.7407 v 6.1163 c 0,0.4103 0.33264,0.743 0.74296,0.743 0.41033,0 0.74296,0.3326 0.74296,0.7429 0,0.4103 0.33264,0.743 0.74295,0.743 h 4.3435997 c 0.4102,0 0.7425,-0.3324 0.7425,-0.7425 0,-0.4101 0.3327,-0.7425 0.7428,-0.7425 0.4103,0 0.7431,-0.3327 0.7431,-0.743 v -6.1132 c 0,-0.2888 0.1386,-0.5579 0.3585,-0.7452 0.7482,-0.6372 1.3615,-1.4199 1.8016,-2.3022 0.5086,-1.0194 0.7717,-2.14349 0.7687,-3.28265 z M 9.7931373,20.0428 c -0.3987,0 -0.72189,-0.3232 -0.72189,-0.7218 0,-0.3987 0.32319,-0.7219 0.72189,-0.7219 h 4.4145997 c 0.3987,0 0.7219,0.3232 0.7219,0.7219 0,0.3986 -0.3232,0.7218 -0.7219,0.7218 z m 0,-2.9278 c -0.3987,0 -0.72189,-0.3232 -0.72189,-0.7219 0,-0.3986 0.32319,-0.7219 0.72189,-0.7219 h 4.4145997 c 0.3987,0 0.7219,0.3233 0.7219,0.7219 0,0.3987 -0.3232,0.7219 -0.7219,0.7219 z m 5.4587997,-3.9055 c 0.0018,0 0.0027,0.0023 0.0011,0.0034 l -0.2822,0.1887 c -0.0258,0.0171 -0.0412,0.0461 -0.0412,0.077 v 0.219 c 0,0.2775 -0.2249,0.5024 -0.5024,0.5024 H 9.5769773 c -0.27931,0 -0.50573,-0.2264 -0.50573,-0.5057 0,-0.1656 -0.08103,-0.3207 -0.21694,-0.4152 L 8.7549873,13.21 c -0.80579,-0.5332 -1.46639,-1.2584 -1.92241,-2.1103 -0.45603,-0.8519 -0.69316,-1.80377 -0.69009,-2.77003 0,-3.23125 2.6125,-5.85842 5.8575497,-5.85842 3.245,0 5.8574,2.61342 5.8574,5.85842 0.0048,0.96656 -0.2317,1.91903 -0.6878,2.77113 -0.455,0.8502 -1.1145,1.5737 -1.9189,2.1054 -0.0015,0.0011 -7e-4,0.0034 0.0012,0.0033 z"
     fill="url(#paint0_linear_678_278)"
     stroke="url(#paint1_linear_678_278)"
     stroke-width="0.6"
     id="path1"
     style="fill:url(#linearGradient6);stroke:url(#linearGradient8);fill-opacity:1;stroke-opacity:1" />
  <defs
     id="defs4">
    <linearGradient
       id="linearGradient4"
       inkscape:collect="always">
      <stop
         style="stop-color:#00f1fa;stop-opacity:1;"
         offset="0"
         id="stop6" />
      <stop
         style="stop-color:#006cff;stop-opacity:1;"
         offset="1"
         id="stop19" />
    </linearGradient>
    <linearGradient
       id="paint0_linear_678_278"
       x1="12.328762"
       y1="23.299999"
       x2="19.957525"
       y2="7.9725571"
       gradientUnits="userSpaceOnUse"
       gradientTransform="translate(-0.32876268)">
      <stop
         stop-color="#FD5900"
         id="stop1" />
      <stop
         offset="1"
         stop-color="#FFDE00"
         id="stop2"
         style="stop-color:#000000;stop-opacity:1" />
    </linearGradient>
    <linearGradient
       id="paint1_linear_678_278"
       x1="12.328762"
       y1="23.299999"
       x2="19.957525"
       y2="7.9725571"
       gradientUnits="userSpaceOnUse"
       gradientTransform="translate(-0.32876268)">
      <stop
         stop-color="#FD5900"
         id="stop3" />
      <stop
         offset="1"
         stop-color="#FFDE00"
         id="stop4"
         style="stop-color:#000000;stop-opacity:1" />
    </linearGradient>
    <linearGradient
       inkscape:collect="always"
       xlink:href="#linearGradient4"
       id="linearGradient6"
       x1="12"
       y1="23.299999"
       x2="19.328737"
       y2="8.3287497"
       gradientUnits="userSpaceOnUse" />
    <linearGradient
       inkscape:collect="always"
       xlink:href="#linearGradient4"
       id="linearGradient8"
       x1="12"
       y1="23.299999"
       x2="19.328737"
       y2="8.3287497"
       gradientUnits="userSpaceOnUse" />
  </defs>
</svg>
