<?xml version="1.0" encoding="UTF-8" standalone="no"?>
<svg
   width="64"
   height="64"
   viewBox="0 0 64 64"
   fill="none"
   version="1.1"
   id="svg4"
   sodipodi:docname="disk-usage-analyzer.svg"
   inkscape:version="1.3.2 (091e20ef0f, 2023-11-25, custom)"
   xmlns:inkscape="http://www.inkscape.org/namespaces/inkscape"
   xmlns:sodipodi="http://sodipodi.sourceforge.net/DTD/sodipodi-0.dtd"
   xmlns="http://www.w3.org/2000/svg"
   xmlns:svg="http://www.w3.org/2000/svg">
  <sodipodi:namedview
     id="namedview4"
     pagecolor="#ffffff"
     bordercolor="#666666"
     borderopacity="1.0"
     inkscape:showpageshadow="2"
     inkscape:pageopacity="0.0"
     inkscape:pagecheckerboard="0"
     inkscape:deskcolor="#d1d1d1"
     inkscape:zoom="9.1592425"
     inkscape:cx="15.831003"
     inkscape:cy="33.518056"
     inkscape:current-layer="svg4" />
  <g
     clip-path="url(#clip0)"
     id="g1">
    <path
       d="m 54.153846,33.759606 h -24 V 10.884618 c 0,-0.971776 -0.826584,-1.759616 -1.846154,-1.759616 -15.272861,0 -27.81538415,11.816093 -27.81538415,26.39421 0,14.57024 12.53120015,26.511557 27.81538415,26.511557 C 43.582326,62.030769 56,50.097329 56,35.519212 56,34.547495 55.173415,33.759606 54.153846,33.759606 Z M 28.307692,58.511557 c -13.301563,0 -24.1230764,-10.314339 -24.1230764,-22.992345 0,-12.024418 9.8345354,-21.911532 22.2769224,-22.808714 v 22.808714 c 0,0.971816 0.826585,1.759606 1.846154,1.758425 H 52.238178 C 51.296886,49.13792 40.923471,58.511557 28.307692,58.511557 Z M 35.692308,1.9692308 c -1.01957,0 -1.846154,0.7878381 -1.846154,1.7596161 V 28.480788 c 0,0.971717 0.826584,1.759606 1.846154,1.759606 h 25.96923 c 1.01957,0 1.846154,-0.787889 1.846154,-1.759606 0,-14.590523 -12.508455,-26.5115572 -27.815384,-26.5115572 z M 37.538462,26.721181 V 5.5550918 C 49.371471,6.412613 58.845834,15.443003 59.745477,26.721181 Z"
       fill="url(#paint0_linear)"
       stroke="url(#paint1_linear)"
       id="path1"
       style="fill:url(#paint0_linear);stroke:url(#paint1_linear);stroke-width:0.984615" />
  </g>
  <defs
     id="defs4">
    <linearGradient
       id="paint0_linear"
       x1="32"
       y1="61.5"
       x2="64.5"
       y2="30.5"
       gradientUnits="userSpaceOnUse"
       gradientTransform="matrix(0.98461538,0,0,0.98461538,0.49230784,1.9692308)">
      <stop
         id="stop1"
         offset="0"
         style="stop-color:#e5f230;stop-opacity:1;" />
      <stop
         offset="1"
         id="stop2"
         style="stop-color:#24d864;stop-opacity:1;" />
    </linearGradient>
    <linearGradient
       id="paint1_linear"
       x1="32"
       y1="61.5"
       x2="64.5"
       y2="30.5"
       gradientUnits="userSpaceOnUse"
       gradientTransform="matrix(0.98461538,0,0,0.98461538,0.49230784,1.9692308)">
      <stop
         id="stop3"
         offset="0"
         style="stop-color:#e5f230;stop-opacity:1;" />
      <stop
         offset="1"
         id="stop4"
         style="stop-color:#24d864;stop-opacity:1;" />
    </linearGradient>
    <clipPath
       id="clip0">
      <rect
         width="64"
         height="64"
         fill="white"
         id="rect4" />
    </clipPath>
  </defs>
</svg>
