<?xml version="1.0" encoding="UTF-8" standalone="no"?>
<!-- Generator: Gravit.io -->

<svg
   style="isolation:isolate"
   viewBox="0 0 512 512"
   width="512pt"
   height="512pt"
   version="1.1"
   id="svg3"
   sodipodi:docname="preferences-system-time.svg"
   inkscape:version="1.3.2 (091e20ef0f, 2023-11-25, custom)"
   xmlns:inkscape="http://www.inkscape.org/namespaces/inkscape"
   xmlns:sodipodi="http://sodipodi.sourceforge.net/DTD/sodipodi-0.dtd"
   xmlns:xlink="http://www.w3.org/1999/xlink"
   xmlns="http://www.w3.org/2000/svg"
   xmlns:svg="http://www.w3.org/2000/svg">
  <defs
     id="defs3">
    <linearGradient
       id="linearGradient1"
       inkscape:collect="always">
      <stop
         style="stop-color:#e5f230;stop-opacity:1;"
         offset="0"
         id="stop4" />
      <stop
         style="stop-color:#24d864;stop-opacity:1;"
         offset="1"
         id="stop5" />
    </linearGradient>
    <linearGradient
       inkscape:collect="always"
       xlink:href="#linearGradient1"
       id="linearGradient5"
       x1="0.49955639"
       y1="511.50043"
       x2="511.50041"
       y2="255.99999"
       gradientUnits="userSpaceOnUse" />
    <linearGradient
       inkscape:collect="always"
       xlink:href="#linearGradient14"
       id="linearGradient8"
       gradientUnits="userSpaceOnUse"
       gradientTransform="matrix(0.00787884,0.00763513,0.00787888,-0.00763516,12.58573,5.5845134)"
       x1="67.544327"
       y1="-1165.6307"
       x2="-149.43753"
       y2="189.13013" />
    <linearGradient
       id="linearGradient14"
       inkscape:collect="always">
      <stop
         style="stop-color:#00f1fa;stop-opacity:1;"
         offset="0"
         id="stop14" />
      <stop
         style="stop-color:#006cff;stop-opacity:1;"
         offset="1"
         id="stop15" />
    </linearGradient>
    <linearGradient
       inkscape:collect="always"
       xlink:href="#paint0_linear"
       id="linearGradient7"
       gradientUnits="userSpaceOnUse"
       gradientTransform="matrix(1.1666666,0,0,1.1666666,-1.3333334,-1.3333334)"
       x1="4.5200367"
       y1="14.000001"
       x2="12.19252"
       y2="3.7078226" />
    <linearGradient
       id="paint0_linear"
       x1="4.0275874"
       y1="14.000001"
       x2="12.19252"
       y2="3.7078226"
       gradientUnits="userSpaceOnUse"
       gradientTransform="matrix(1.1666666,0,0,1.1666666,-1.3333334,-1.3333334)">
      <stop
         id="stop4-5"
         offset="0"
         style="stop-color:#00f1fa;stop-opacity:1;" />
      <stop
         offset="1"
         id="stop6"
         style="stop-color:#006cff;stop-opacity:1;" />
    </linearGradient>
  </defs>
  <sodipodi:namedview
     id="namedview3"
     pagecolor="#ffffff"
     bordercolor="#666666"
     borderopacity="1.0"
     inkscape:showpageshadow="2"
     inkscape:pageopacity="0.0"
     inkscape:pagecheckerboard="0"
     inkscape:deskcolor="#d1d1d1"
     inkscape:document-units="pt"
     inkscape:zoom="0.86075062"
     inkscape:cx="423.4676"
     inkscape:cy="355.50366"
     inkscape:current-layer="svg3" />
  <linearGradient
     id="_lgradient_1"
     x1="0.031773507189974896"
     y1="0.06139313402065516"
     x2="0.9557121177427359"
     y2="0.9731211021432015"
     gradientTransform="matrix(511,0,0,511,0.5,0.5)"
     gradientUnits="userSpaceOnUse">
    <stop
       offset="2.1739130434782608%"
       stop-opacity="1"
       style="stop-color:rgb(91,100,237)"
       id="stop1" />
    <stop
       offset="51.66666666666667%"
       stop-opacity="1"
       style="stop-color:rgb(198,116,251)"
       id="stop2" />
    <stop
       offset="98.33333333333333%"
       stop-opacity="1"
       style="stop-color:rgb(249,162,78)"
       id="stop3" />
  </linearGradient>
  <path
     d=" M 260.417 222.131 L 316.857 165.691 C 324.438 158.109 336.728 158.109 344.31 165.691 C 351.892 173.272 351.892 185.562 344.31 193.144 L 344.31 193.144 L 287.869 249.585 C 287.951 250.492 287.993 251.411 287.993 252.339 C 287.993 269.064 274.386 282.671 257.661 282.671 C 253.753 282.671 250.016 281.928 246.582 280.576 L 153.854 373.305 C 151.486 375.674 148.38 376.859 145.275 376.859 C 142.17 376.859 139.066 375.673 136.696 373.305 C 131.958 368.566 131.958 360.884 136.696 356.146 L 229.424 263.418 C 228.072 259.985 227.329 256.247 227.329 252.339 C 227.329 251.411 227.371 250.492 227.453 249.585 L 145.274 167.406 C 137.692 159.825 137.692 147.535 145.274 139.953 C 152.855 132.371 165.145 132.371 172.727 139.953 L 254.905 222.131 C 255.813 222.049 256.732 222.007 257.661 222.007 C 258.59 222.007 259.509 222.049 260.417 222.131 L 260.417 222.131 L 260.417 222.131 L 260.417 222.131 L 260.417 222.131 Z  M 116.922 264.472 L 98.723 264.472 C 92.022 264.472 86.59 259.039 86.59 252.339 C 86.59 245.639 92.022 240.206 98.723 240.206 L 116.922 240.206 C 123.623 240.206 129.055 245.639 129.055 252.339 C 129.055 259.039 123.623 264.472 116.922 264.472 L 116.922 264.472 L 116.922 264.472 L 116.922 264.472 L 116.922 264.472 Z  M 257.661 123.732 C 250.96 123.732 245.528 118.299 245.528 111.599 L 245.528 93.401 C 245.528 86.701 250.96 81.268 257.661 81.268 C 264.362 81.268 269.794 86.701 269.794 93.401 L 269.794 111.6 C 269.794 118.299 264.362 123.732 257.661 123.732 L 257.661 123.732 L 257.661 123.732 L 257.661 123.732 L 257.661 123.732 Z  M 416.599 264.472 L 398.4 264.472 C 391.699 264.472 386.267 259.039 386.267 252.339 C 386.267 245.639 391.699 240.206 398.4 240.206 L 416.599 240.206 C 423.3 240.206 428.732 245.639 428.732 252.339 C 428.732 259.039 423.3 264.472 416.599 264.472 L 416.599 264.472 L 416.599 264.472 Z  M 257.661 423.41 C 250.96 423.41 245.528 417.977 245.528 411.277 L 245.528 393.078 C 245.528 386.378 250.96 380.945 257.661 380.945 C 264.362 380.945 269.794 386.378 269.794 393.078 L 269.794 411.277 C 269.794 417.977 264.362 423.41 257.661 423.41 L 257.661 423.41 L 257.661 423.41 Z  M 465.039 238.553 L 465.039 238.553 C 466.118 251.299 477.384 260.799 490.183 259.754 L 490.183 259.754 C 502.981 258.709 512.496 247.46 511.417 234.65 L 511.417 234.65 C 506.066 170.472 476.559 110.577 428.822 67.107 C 381.086 23.753 318.638 -0.073 254.084 0.51 C 186.274 1.123 121.383 28.654 73.779 76.934 C 26.292 125.329 -0.103 190.606 0.51 258.311 C 1.124 326.016 28.698 390.806 77.053 438.335 C 125.524 485.748 190.903 512.102 258.713 511.49 L 258.713 511.49 C 271.552 511.374 281.882 500.872 281.766 488.053 L 281.766 488.053 C 281.649 475.234 271.131 464.921 258.293 465.037 L 258.293 465.037 C 202.811 465.538 149.34 443.954 109.672 405.173 C 70.119 366.274 47.537 313.286 47.036 257.891 C 46.534 202.496 68.151 149.108 106.993 109.502 C 145.952 70.01 199.024 47.464 254.505 46.963 C 307.311 46.486 358.436 65.885 397.493 101.419 C 436.55 136.954 460.608 185.981 465.039 238.553 L 465.039 238.553 Z  M 355.43 431.605 L 355.43 431.605 C 344.121 437.55 339.871 451.363 345.943 462.432 L 345.943 462.432 C 352.016 473.501 366.128 477.662 377.436 471.718 L 377.436 471.718 C 425.592 446.355 464.308 406.502 487.707 358.132 L 487.707 358.132 C 493.252 346.771 488.331 333.167 476.725 327.771 L 476.725 327.771 C 465.119 322.375 451.195 327.218 445.65 338.578 L 445.65 338.578 C 426.475 378.258 394.903 410.761 355.43 431.605 L 355.43 431.605 Z "
     fill-rule="evenodd"
     id="path3"
     style="fill:url(#linearGradient5);fill-opacity:1" />
  <g
     id="g2"
     transform="matrix(36.500071,0,0,36.500071,-36.000568,-36.000568)"
     style="display:none">
    <path
       id="path5"
       style="fill:url(#linearGradient8);fill-opacity:1;fill-rule:evenodd;stroke:none;stroke-width:0.0159881"
       d="M 7.4023438,3.2324219 C 7.085668,3.2324679 6.8257427,3.4801446 6.8261719,3.78125 l 0.00781,5.2851562 H 7.4121094 8 12.130859 c 0.30116,3.42e-5 0.546875,-0.2594483 0.546875,-0.5761718 V 8.4746094 C 12.677688,8.1579333 12.431965,7.9003911 12.130859,7.9003906 H 7.9980469 L 7.9921875,3.78125 C 7.9922215,3.4800903 7.7327393,3.2324219 7.4160156,3.2324219 Z" />
    <path
       d="M 8,1 C 4.134005,1 1,4.134005 1,8 c 0,3.865984 3.134005,7 7,7 3.865984,0 7,-3.134016 7,-7 C 15,4.134005 11.865984,1 8,1 Z m 0,1.1666666 c 3.221634,0 5.833334,2.6116768 5.833334,5.8333334 0,3.221634 -2.6117,5.833334 -5.833334,5.833334 C 4.7783434,13.833334 2.1666666,11.221634 2.1666666,8 2.1666666,4.7783434 4.7783434,2.1666666 8,2.1666666 Z"
       fill="url(#paint0_linear)"
       id="path7"
       style="display:inline;fill:url(#linearGradient7);stroke-width:1.16666"
       sodipodi:nodetypes="ssssssssss" />
  </g>
</svg>
