<?xml version="1.0" encoding="UTF-8" standalone="no"?>
<svg
   width="24"
   height="24"
   viewBox="0 0 24 24"
   fill="none"
   version="1.1"
   id="svg11"
   sodipodi:docname="preferences-system-search.svg"
   inkscape:version="1.3.2 (091e20ef0f, 2023-11-25, custom)"
   xmlns:inkscape="http://www.inkscape.org/namespaces/inkscape"
   xmlns:sodipodi="http://sodipodi.sourceforge.net/DTD/sodipodi-0.dtd"
   xmlns="http://www.w3.org/2000/svg"
   xmlns:svg="http://www.w3.org/2000/svg">
  <sodipodi:namedview
     id="namedview13"
     pagecolor="#ffffff"
     bordercolor="#666666"
     borderopacity="1.0"
     inkscape:pageshadow="2"
     inkscape:pageopacity="0.0"
     inkscape:pagecheckerboard="0"
     showgrid="false"
     inkscape:zoom="52.333334"
     inkscape:cx="4.8535031"
     inkscape:cy="18.028662"
     inkscape:current-layer="svg11"
     inkscape:showpageshadow="2"
     inkscape:deskcolor="#d1d1d1" />
  <path
     d="m 21.671438,20.094168 -3.776561,-3.765453 c 1.218496,-1.552278 1.879617,-3.469216 1.877173,-5.442691 0,-1.7574893 -0.521166,-3.475514 -1.497518,-4.9368099 C 17.298069,4.4879183 15.910294,3.3489741 14.286595,2.676413 12.662896,2.0038519 10.876138,1.8278753 9.1524487,2.1707426 7.4287264,2.5136099 5.845392,3.3599261 4.6026591,4.6026591 3.3599261,5.845392 2.5136099,7.4287264 2.1707426,9.1524487 1.8278753,10.876138 2.0038519,12.662896 2.676413,14.286595 c 0.6725611,1.623699 1.8115053,3.011474 3.2728011,3.987937 1.4612959,0.976352 3.1793206,1.497518 4.9368099,1.497518 1.973475,0.0024 3.890413,-0.658677 5.442691,-1.877173 l 3.765453,3.776561 c 0.1033,0.104077 0.22615,0.186718 0.361439,0.243144 0.135401,0.05643 0.280577,0.08542 0.427196,0.08542 0.14662,0 0.291795,-0.02899 0.427196,-0.08542 0.13529,-0.05643 0.258139,-0.139067 0.361439,-0.243144 0.104077,-0.1033 0.186718,-0.226149 0.243144,-0.361439 0.05643,-0.135401 0.08542,-0.280576 0.08542,-0.427196 0,-0.146619 -0.02899,-0.291795 -0.08542,-0.427196 -0.05643,-0.135289 -0.139067,-0.258139 -0.243144,-0.361439 z M 4.2215041,10.886024 c 0,-1.3181093 0.3908741,-2.6066273 1.1231826,-3.7026075 0.7322974,-1.0959691 1.773162,-1.9501828 2.9909364,-2.4545981 1.2177856,-0.5044263 2.5578429,-0.636406 3.8505379,-0.3792555 1.292805,0.2571504 2.480312,0.8918904 3.412345,1.8239345 0.932144,0.9320553 1.566828,2.1195616 1.823968,3.4123453 0.257139,1.2927393 0.125181,2.6327523 -0.379212,3.8505813 -0.504393,1.21783 -1.358673,2.258606 -2.454653,2.990926 -1.09598,0.732319 -2.384454,1.123193 -3.702585,1.123193 -1.7675423,0 -3.4626848,-0.702107 -4.7125266,-1.952037 -1.2498417,-1.24982 -1.9519933,-2.94494 -1.9519933,-4.712482 z"
     fill="url(#paint0_linear)"
     id="path2"
     style="fill:url(#paint0_linear);stroke-width:1.11075" />
  <defs
     id="defs9">
    <linearGradient
       id="paint0_linear"
       x1="3.072253"
       y1="21.607904"
       x2="21.0058"
       y2="12.0029"
       gradientUnits="userSpaceOnUse"
       gradientTransform="matrix(1.1107532,0,0,1.1107532,-1.3322622,-1.3322622)">
      <stop
         stop-color="#00FFFF"
         id="stop4"
         style="stop-color:#00f1fa;stop-opacity:1;"
         offset="0" />
      <stop
         offset="1"
         stop-color="#5558ff"
         id="stop6"
         style="stop-color:#006cff;stop-opacity:1;" />
    </linearGradient>
  </defs>
</svg>
