<?xml version="1.0" encoding="UTF-8" standalone="no"?>
<svg
   width="64"
   height="64"
   viewBox="0 0 64 64"
   fill="none"
   version="1.1"
   id="svg5"
   sodipodi:docname="preferences-desktop-notification.svg"
   inkscape:version="1.3.2 (091e20ef0f, 2023-11-25, custom)"
   xmlns:inkscape="http://www.inkscape.org/namespaces/inkscape"
   xmlns:sodipodi="http://sodipodi.sourceforge.net/DTD/sodipodi-0.dtd"
   xmlns:xlink="http://www.w3.org/1999/xlink"
   xmlns="http://www.w3.org/2000/svg"
   xmlns:svg="http://www.w3.org/2000/svg">
  <sodipodi:namedview
     id="namedview5"
     pagecolor="#ffffff"
     bordercolor="#666666"
     borderopacity="1.0"
     inkscape:showpageshadow="2"
     inkscape:pageopacity="0.0"
     inkscape:pagecheckerboard="0"
     inkscape:deskcolor="#d1d1d1"
     inkscape:zoom="9.1592425"
     inkscape:cx="17.141156"
     inkscape:cy="34.44608"
     inkscape:current-layer="svg5" />
  <path
     d="m 28.883,3.2169 c 1.8112,-1.74658 5.1005,-1.59308 6.7152,0.33189 0.9227,0.95005 1.1448,2.27347 1.1491,3.53051 5.3824,1.34417 10.0301,5.1195 12.3155,10.0398 0.7775,1.4852 1.309325,3.056926 1.666,4.6838 0.654045,2.983244 -0.0043,6.0944 0.2349,9.1395 0.1453,2.3398 -0.1495,4.7087 0.1325,7.0361 2.264,3.2941 4.7416,6.4553 6.9971,9.7577 1.3328,1.7424 -0.8458,4.0615 -2.798,3.7587 -2.2811,-0.0955 -4.558,0.0995 -6.8391,0.1327 C 35.1966,51.5571 21.9285,51.7438 8.6775,51.47 c -1.80269,0 -3.45586,-2.1864 -2.2854,-3.7546 2.25123,-3.4268 4.8442,-6.6461 7.0484,-10.0978 0.1025,-4.2814 0.0769,-8.5711 0.0043,-12.8526 -0.235,-1.2114 0.2008,-2.6468 1.3926,-3.2318 1.4524,-0.8836 3.4729,0.3527 3.5498,1.9458 -0.0598,4.9244 -0.0427,9.8613 -0.0213,14.7899 -0.0043,1.2073 -0.8843,2.1449 -1.5251,3.0991 -1.2772,1.7134 -2.4007,3.5305 -3.8018,5.1526 10.658,0.1743 21.3289,0.0249 31.9912,0.0747 2.1018,-0.0456 4.2035,0.0913 6.3009,-0.0788 -1.367,-1.6387 -2.546,-3.4102 -3.819,-5.1153 C 46.7817,40.3765 45.8419,39.3393 45.906,38.0076 45.7821,33.4482 46.017,28.8847 45.9145,24.3211 45.7906,20.3758 43.8299,16.53 40.6047,14.1154 36.5166,10.9127 30.502,10.3443 25.8543,12.7298 c -1.2303,0.5393 -2.153,1.535 -3.3405,2.1324 -1.2773,0.6057 -2.939,-0.2282 -3.2722,-1.5475 -0.3204,-0.9915 0.2136,-2.0577 1.0252,-2.6675 2.1103,-1.61388 4.5324,-2.85847 7.1339,-3.52641 0,-1.41884 0.3502,-2.92066 1.4823,-3.90389 z"
     fill="url(#paint0_linear)"
     id="path1"
     style="fill:url(#linearGradient6);fill-opacity:1"
     sodipodi:nodetypes="ccccscccccccccccccccccccccccccc" />
  <path
     d="M25.9098 53.4862L26.196 53.312C29.6263 53.2 33.0608 53.312 36.491 53.2581C37.1958 53.3327 38.1826 53.034 38.5713 53.814C39.1352 57.1039 36.4953 60.4518 33.112 60.904C29.5964 61.5471 25.944 58.8753 25.5809 55.4278C25.5723 54.8014 25.2861 53.9177 25.9098 53.4862Z"
     fill="url(#paint1_linear)"
     id="path2"
     style="fill:url(#linearGradient8);fill-opacity:1" />
  <defs
     id="defs5">
    <linearGradient
       id="linearGradient1"
       inkscape:collect="always">
      <stop
         style="stop-color:#ff69ff;stop-opacity:1;"
         offset="0"
         id="stop1" />
      <stop
         style="stop-color:#9033dd;stop-opacity:1;"
         offset="1"
         id="stop6" />
    </linearGradient>
    <linearGradient
       id="paint0_linear"
       x1="32.2516"
       y1="51.6276"
       x2="32.2516"
       y2="2"
       gradientUnits="userSpaceOnUse">
      <stop
         stop-color="#ff69ff"
         id="stop2" />
      <stop
         offset="1"
         stop-color="#9033dd"
         id="stop3" />
    </linearGradient>
    <linearGradient
       id="paint1_linear"
       x1="32.0778"
       y1="61"
       x2="32.0778"
       y2="53.2581"
       gradientUnits="userSpaceOnUse">
      <stop
         stop-color="#ff69ff"
         id="stop4" />
      <stop
         offset="1"
         stop-color="#9033dd"
         id="stop5" />
    </linearGradient>
    <linearGradient
       inkscape:collect="always"
       xlink:href="#linearGradient1"
       id="linearGradient6"
       x1="5.999999"
       y1="51.627602"
       x2="58.503165"
       y2="26.813801"
       gradientUnits="userSpaceOnUse" />
    <linearGradient
       inkscape:collect="always"
       xlink:href="#linearGradient1"
       id="linearGradient8"
       x1="5.999999"
       y1="51.627602"
       x2="58.503166"
       y2="26.813801"
       gradientUnits="userSpaceOnUse" />
  </defs>
</svg>
