<?xml version="1.0" encoding="UTF-8" standalone="no"?>
<svg
   width="128"
   height="128"
   viewBox="0 0 128 128"
   fill="none"
   version="1.1"
   id="svg5"
   sodipodi:docname="disk-utility.svg"
   inkscape:version="1.3.2 (091e20ef0f, 2023-11-25, custom)"
   xmlns:inkscape="http://www.inkscape.org/namespaces/inkscape"
   xmlns:sodipodi="http://sodipodi.sourceforge.net/DTD/sodipodi-0.dtd"
   xmlns="http://www.w3.org/2000/svg"
   xmlns:svg="http://www.w3.org/2000/svg">
  <sodipodi:namedview
     id="namedview5"
     pagecolor="#ffffff"
     bordercolor="#666666"
     borderopacity="1.0"
     inkscape:showpageshadow="2"
     inkscape:pageopacity="0.0"
     inkscape:pagecheckerboard="0"
     inkscape:deskcolor="#d1d1d1"
     inkscape:zoom="4.2647378"
     inkscape:cx="40.213492"
     inkscape:cy="79.840782"
     inkscape:current-layer="svg5" />
  <path
     d="m 63.823077,1.8103463 c -1.048384,-1.74712754 -3.580348,-1.74712754 -4.628597,0 L 47.78721,20.822279 c -0.539642,0.899541 0.108224,2.043736 1.15715,2.043736 h 6.232415 c 0.745164,0 1.349444,0.604283 1.349444,1.349446 V 82.970728 C 52.634824,81.331557 48.603896,80.708653 44.847038,80.165634 40.487249,79.542732 36.516235,78.919962 34.41353,77.828801 32.32081,76.742631 31.613295,76.214459 31.613295,72.69173 V 61.326565 c 2.979576,-1.734038 4.982558,-4.882969 4.982558,-8.565066 0,-2.64289 -1.049869,-5.177553 -2.918716,-7.0464 -1.868846,-1.868848 -4.403511,-2.918717 -7.0464,-2.918717 -2.642889,0 -5.177553,1.049869 -7.0464,2.918717 -1.868847,1.868847 -2.918716,4.40351 -2.918716,7.0464 0,3.677103 2.002983,6.831028 4.982558,8.565066 V 72.69173 c 0,6.442523 3.657267,11.524672 8.096674,13.856511 4.434548,2.336834 9.187836,2.959741 13.547624,3.58251 4.359789,0.622768 8.330802,1.245676 10.433508,2.336834 2.097579,1.086167 2.800234,1.614338 2.800234,5.13707 v 0.931655 c -5.779809,2.06789 -9.96525,7.53316 -9.96525,14.01588 0,3.96468 1.574939,7.76607 4.378142,10.57021 2.803204,2.8028 6.605265,4.3776 10.569667,4.3776 3.964402,0 7.76633,-1.5748 10.569533,-4.3776 2.803339,-2.80414 4.378142,-6.60553 4.378142,-10.57021 0,-6.47733 -4.185305,-11.94799 -9.965116,-14.01588 0.03872,-0.309285 0.03872,-0.62236 0,-0.931655 v -9.187969 c 0.01984,-0.249104 0.01984,-0.523184 0,-0.777286 0,-3.328267 0.951628,-4.299868 3.736885,-5.919203 2.785256,-1.614343 7.473904,-2.954747 12.456464,-4.200285 4.982556,-1.245673 10.259024,-2.391623 14.947668,-5.142063 4.688656,-2.740454 8.719456,-7.997083 8.719456,-14.633793 v -7.473904 c 0,-1.375895 1.11545,-2.491212 2.49135,-2.491212 v 0 c 1.37589,0 2.49122,-1.115452 2.49122,-2.491346 v -14.74013 c 0,-1.490462 -1.2083,-2.698891 -2.6989,-2.698891 H 94.103014 c -1.490594,0 -2.698887,1.208429 -2.698887,2.698891 v 14.74013 c 0,1.375894 1.115452,2.491346 2.491351,2.491346 v 0 c 1.375886,0 2.491204,1.115317 2.491204,2.491212 v 7.473904 c 0,3.328408 -0.951627,4.300009 -3.736882,5.919343 -2.785257,1.614342 -7.473904,2.954612 -12.456463,4.200285 -4.553974,1.130971 -9.342346,2.257084 -13.702,4.519158 V 24.215461 c 0,-0.745163 0.604146,-1.349446 1.349445,-1.349446 h 6.23228 c 1.048924,0 1.696792,-1.144195 1.15715,-2.043736 z"
     fill="url(#paint0_linear)"
     id="path1"
     style="fill:url(#paint0_linear);stroke-width:1.34944" />
  <path
     d="M 41.25,109 H 24 c -3.3137,0 -6,-2.686 -6,-6 V 20 c 0,-3.3137 2.6863,-6 6,-6 h 81 c 3.314,0 6,2.6863 6,6 v 83 c 0,3.314 -2.686,6 -6,6 H 87.75"
     stroke="url(#paint1_linear)"
     stroke-width="10"
     stroke-linecap="round"
     stroke-linejoin="round"
     id="path2"
     style="display:none" />
  <defs
     id="defs5">
    <linearGradient
       id="paint0_linear"
       x1="28.826237"
       y1="120.37051"
       x2="72.398994"
       y2="40.946999"
       gradientUnits="userSpaceOnUse"
       gradientTransform="matrix(1.3494457,0,0,1.3494457,-22.468302,-34.43347)">
      <stop
         id="stop2"
         offset="0"
         style="stop-color:#00f1fa;stop-opacity:1;" />
      <stop
         offset="1"
         id="stop3"
         style="stop-color:#006cff;stop-opacity:1;" />
    </linearGradient>
    <linearGradient
       id="paint1_linear"
       x1="64.5"
       y1="109"
       x2="64.5"
       y2="14"
       gradientUnits="userSpaceOnUse">
      <stop
         stop-color="#5570FF"
         id="stop4" />
      <stop
         offset="1"
         stop-color="#4DD3FF"
         id="stop5" />
    </linearGradient>
  </defs>
</svg>
