<?xml version="1.0" encoding="UTF-8" standalone="no"?>
<svg
   width="22"
   height="22"
   viewBox="0 0 22 22"
   fill="none"
   version="1.1"
   id="svg2"
   sodipodi:docname="configure-og copy (1)-test-18px.svg"
   inkscape:version="1.4 (e7c3feb100, 2024-10-09)"
   xmlns:inkscape="http://www.inkscape.org/namespaces/inkscape"
   xmlns:sodipodi="http://sodipodi.sourceforge.net/DTD/sodipodi-0.dtd"
   xmlns:xlink="http://www.w3.org/1999/xlink"
   xmlns="http://www.w3.org/2000/svg"
   xmlns:svg="http://www.w3.org/2000/svg">
  <sodipodi:namedview
     id="namedview2"
     pagecolor="#ffffff"
     bordercolor="#666666"
     borderopacity="1.0"
     inkscape:showpageshadow="2"
     inkscape:pageopacity="0.0"
     inkscape:pagecheckerboard="0"
     inkscape:deskcolor="#d1d1d1"
     inkscape:zoom="16.506524"
     inkscape:cx="11.116817"
     inkscape:cy="20.295006"
     inkscape:current-layer="svg2" />
  <path
     d="m 6,36.2328 v -0.0096 z m 0.01412,-0.0144 c -0.00262,0.0027 -0.00261,0.007 2e-5,0.0096 L 31.7981,62.6114 c 0.7596,0.7773 0.7595,2.019 -4e-4,2.7961 L 7.37563,90.3844 c -0.7596,0.7768 -0.76004,2.0181 -9.9e-4,2.7955 l 7.18206,7.3551 c 0.7843,0.804 2.0761,0.804 2.861,0.001 L 51.7755,65.3982 c 0.76,-0.7773 0.76,-2.0192 10e-5,-2.7964 L 17.4224,27.4637 c -0.7849,-0.8028 -2.0767,-0.8024 -2.8611,9e-4 z M 54.1357,99.3166 c 0,1.1044 0.8954,2.0004 2,2.0004 H 120 c 1.105,0 2,-0.896 2,-2.0004 V 88.877 c 0,-1.1045 -0.895,-2 -2,-2 H 56.1357 c -1.1046,0 -2,0.8955 -2,2 z M 74.5373,69.2342 c 0,1.1045 0.8955,2 2,2 h 43.4587 c 1.104,0 2,-0.8955 2,-2 V 58.7946 c 0,-1.1045 -0.896,-2 -2,-2 H 76.5373 c -1.1045,0 -2,0.8955 -2,2 z M 56.1357,26.7123 c -1.1046,0 -2,0.8955 -2,2 v 10.4396 c 0,1.1045 0.8954,2 2,2 H 120 c 1.105,0 2,-0.8955 2,-2 V 28.7123 c 0,-1.1045 -0.895,-2 -2,-2 z"
     fill="url(#paint0_linear)"
     id="path1"
     style="display:none;fill:url(#paint0_linear)" />
  <defs
     id="defs2">
    <linearGradient
       id="linearGradient19"
       inkscape:collect="always">
      <stop
         style="stop-color:#c900ff;stop-opacity:1;"
         offset="0"
         id="stop18" />
      <stop
         style="stop-color:#6444ff;stop-opacity:1;"
         offset="1"
         id="stop19" />
    </linearGradient>
    <linearGradient
       id="linearGradient16"
       inkscape:collect="always">
      <stop
         style="stop-color:#e5f230;stop-opacity:1;"
         offset="0"
         id="stop16" />
      <stop
         style="stop-color:#12ff64;stop-opacity:1;"
         offset="1"
         id="stop17" />
    </linearGradient>
    <linearGradient
       id="linearGradient15"
       x1="12.382254"
       y1="8.1303644"
       x2="12.378265"
       y2="18"
       gradientUnits="userSpaceOnUse"
       gradientTransform="matrix(0,4.4140822,-4.4140822,0,82.339096,9.3437219)"
       spreadMethod="pad">
      <stop
         stop-color="#e5f230"
         offset="0"
         id="stop14" />
      <stop
         offset="1"
         id="stop15"
         style="stop-color:#5ff64f;stop-opacity:1;" />
    </linearGradient>
    <linearGradient
       id="linearGradient13"
       x1="12.382254"
       y1="8.1303644"
       x2="12.378265"
       y2="18"
       gradientUnits="userSpaceOnUse"
       gradientTransform="matrix(0,4.4140822,-4.4140822,0,82.339096,9.3437219)"
       spreadMethod="pad">
      <stop
         stop-color="#e5f230"
         id="stop12" />
      <stop
         offset="1"
         stop-color="#54d863"
         id="stop13"
         style="stop-color:#ff64ff;stop-opacity:1;" />
    </linearGradient>
    <linearGradient
       id="linearGradient11"
       x1="12.382254"
       y1="8.1303644"
       x2="12.378265"
       y2="18"
       gradientUnits="userSpaceOnUse"
       gradientTransform="matrix(0,4.4140822,-4.4140822,0,82.339096,9.3437219)"
       spreadMethod="pad">
      <stop
         stop-color="#e5f230"
         id="stop10" />
      <stop
         offset="1"
         id="stop11"
         style="stop-color:#5ff64f;stop-opacity:1;" />
    </linearGradient>
    <linearGradient
       id="linearGradient9"
       x1="12.382254"
       y1="8.1303644"
       x2="12.378265"
       y2="18"
       gradientUnits="userSpaceOnUse"
       gradientTransform="matrix(0,4.4140822,-4.4140822,0,82.339096,9.3437219)">
      <stop
         stop-color="#e5f230"
         id="stop8" />
      <stop
         offset="1"
         id="stop9"
         style="stop-color:#12ff64;stop-opacity:1;" />
    </linearGradient>
    <linearGradient
       id="linearGradient8"
       x1="12.382254"
       y1="8.1303644"
       x2="12.378265"
       y2="18"
       gradientUnits="userSpaceOnUse"
       gradientTransform="matrix(0,4.4140822,-4.4140822,0,82.339096,9.3437219)">
      <stop
         id="stop5"
         offset="0"
         style="stop-color:#c900ff;stop-opacity:1;" />
      <stop
         offset="1"
         id="stop7"
         style="stop-color:#6444ff;stop-opacity:1;" />
    </linearGradient>
    <linearGradient
       id="paint0_linear"
       x1="14.5567"
       y1="100.535"
       x2="122"
       y2="64.014648"
       gradientUnits="userSpaceOnUse">
      <stop
         id="stop1"
         offset="0"
         style="stop-color:#e5f230;stop-opacity:1;" />
      <stop
         offset="1"
         id="stop2"
         style="stop-color:#12ff64;stop-opacity:1;" />
    </linearGradient>
    <linearGradient
       id="paint0_linear-5"
       x1="12.382254"
       y1="8.1303644"
       x2="12.378265"
       y2="18"
       gradientUnits="userSpaceOnUse"
       gradientTransform="matrix(0,4.4140822,-4.4140822,0,82.339096,9.3437219)"
       xlink:href="#linearGradient15">
      <stop
         stop-color="#e5f230"
         id="stop4" />
      <stop
         offset="1"
         id="stop6"
         style="stop-color:#12ff64;stop-opacity:1;" />
    </linearGradient>
    <linearGradient
       inkscape:collect="always"
       xlink:href="#linearGradient823-7"
       id="linearGradient6803"
       x1="8"
       y1="15.5"
       x2="8.0371141"
       y2="0.5"
       gradientUnits="userSpaceOnUse"
       gradientTransform="matrix(5.2713612,0,0,5.2713612,42.929566,-43.426574)" />
    <linearGradient
       inkscape:collect="always"
       id="linearGradient823-7">
      <stop
         style="stop-color:#e5f230;stop-opacity:1;"
         offset="0"
         id="stop821-3" />
      <stop
         style="stop-color:#12ff64;stop-opacity:1;"
         offset="1"
         id="stop819-5" />
    </linearGradient>
    <linearGradient
       id="_lgradient_2"
       x1="0.12643236"
       y1="1"
       x2="0.99997437"
       y2="0.5"
       gradientTransform="matrix(39.009,0,0,44,4.496,2)"
       gradientUnits="userSpaceOnUse"
       spreadMethod="pad">
      <stop
         offset="0"
         stop-opacity="1"
         style="stop-color:#e5f230;stop-opacity:1;"
         id="stop1-2" />
      <stop
         offset="1"
         stop-opacity="1"
         style="stop-color:#12ff64;stop-opacity:1;"
         id="stop3" />
    </linearGradient>
    <linearGradient
       inkscape:collect="always"
       xlink:href="#linearGradient8"
       id="linearGradient3"
       gradientUnits="userSpaceOnUse"
       gradientTransform="matrix(22.781118,0,0,25.312499,8.609441,-14.554958)"
       x1="0.10493597"
       y1="1.3651341"
       x2="0.46857777"
       y2="0.78888887" />
    <linearGradient
       inkscape:collect="always"
       xlink:href="#linearGradient19"
       id="linearGradient4"
       gradientUnits="userSpaceOnUse"
       gradientTransform="matrix(22.781335,0,0,25.603448,-1.2906372,-4.8534482)"
       x1="0.53950471"
       y1="0.97070706"
       x2="0.90314299"
       y2="0.40101007" />
    <linearGradient
       inkscape:collect="always"
       xlink:href="#linearGradient16"
       id="linearGradient17"
       x1="63.32933"
       y1="64.645065"
       x2="121.996"
       y2="64.014397"
       gradientUnits="userSpaceOnUse" />
    <linearGradient
       id="linearGradient3-3"
       inkscape:collect="always">
      <stop
         style="stop-color:#c900ff;stop-opacity:1;"
         offset="0"
         id="stop2-5" />
      <stop
         style="stop-color:#6444ff;stop-opacity:1;"
         offset="1"
         id="stop3-7" />
    </linearGradient>
    <linearGradient
       inkscape:collect="always"
       xlink:href="#linearGradient3-3"
       id="linearGradient5"
       gradientUnits="userSpaceOnUse"
       gradientTransform="matrix(0.15517241,0,0,0.15517241,1.0689669,1.0689645)"
       x1="63.999989"
       y1="122"
       x2="117.38684"
       y2="28" />
    <linearGradient
       inkscape:collect="always"
       xlink:href="#linearGradient3-2"
       id="linearGradient10-6"
       x1="5"
       y1="123"
       x2="123"
       y2="64"
       gradientUnits="userSpaceOnUse" />
    <linearGradient
       id="linearGradient3-2"
       inkscape:collect="always">
      <stop
         style="stop-color:#00f1fa;stop-opacity:1;"
         offset="0"
         id="stop2-9" />
      <stop
         style="stop-color:#006cff;stop-opacity:1;"
         offset="1"
         id="stop3-1" />
    </linearGradient>
  </defs>
  <path
     d="m 4.5091229,103.7936 c 0.5124749,0.51379 1.1211769,0.92165 1.7916751,1.19974 0.6705001,0.27809 1.3891131,0.4211 2.1147881,0.4211 0.725675,0 1.444288,-0.14301 2.1147869,-0.4211 0.670057,-0.27809 1.279199,-0.68595 1.791676,-1.19974 L 49.003027,67.112573 c 0.409186,-0.408304 0.733842,-0.89341 0.955339,-1.427513 0.2215,-0.533663 0.335515,-1.10617 0.335515,-1.684416 0,-0.578243 -0.114014,-1.15031 -0.335515,-1.684413 -0.221497,-0.534103 -0.546153,-1.019212 -0.955339,-1.427513 L 12.322049,24.20774 c -2.162901,-2.162902 -5.6500238,-2.162902 -7.8129261,0 -2.1628988,2.162899 -2.1628988,5.650025 0,7.812924 L 36.467079,64.022715 4.4649831,96.024811 c -2.118759,2.118759 -2.118759,5.650029 0.044151,7.768789 z"
     id="path2"
     style="display:none;fill:url(#paint0_linear-5);stroke-width:4.41409" />
  <path
     d="m 116.46507,38.279524 c 3.05691,0 5.53493,-1.94633 5.53493,-4.347424 v 0 c -2e-5,-2.401047 -2.47802,-4.347444 -5.53493,-4.347444 H 53.73585 c -3.056856,0 -5.534929,1.946397 -5.534929,4.347444 v 0 c 0,2.401094 2.478073,4.347424 5.534929,4.347424 z"
     id="path2-6"
     style="display:none;fill:url(#linearGradient6803);fill-opacity:1;stroke:none;stroke-width:1.2112"
     sodipodi:nodetypes="sssssssss" />
  <path
     d="m 68.513998,58.829732 h 48.297332 c 2.86,0 5.18467,2.324669 5.18467,5.184668 v 0.630666 c 0,2.86 -2.32467,5.184666 -5.18467,5.184666 H 68.513998 c -2.859999,0 -5.184668,-2.324666 -5.184668,-5.184666 V 64.0144 c 0,-2.859999 2.324669,-5.184668 5.184668,-5.184668 z"
     fill-rule="evenodd"
     id="path7"
     sodipodi:nodetypes="sssssssss"
     style="display:none;isolation:isolate;fill:url(#linearGradient17);fill-opacity:1;stroke-width:3.66666" />
  <path
     d="m 12.615879,5.4137924 h 6.668287 C 19.679039,5.4137924 20,5.7704174 20,6.2091675 v 0.09675 c 0,0.43875 -0.320961,0.7953743 -0.715834,0.7953743 h -6.668287 c -0.394872,0 -0.715832,-0.3566243 -0.715832,-0.7953743 v -0.09675 c 0,-0.4387501 0.32096,-0.7953751 0.715832,-0.7953751 z"
     fill-rule="evenodd"
     id="path3"
     sodipodi:nodetypes="sssssssss"
     style="display:inline;isolation:isolate;fill:url(#linearGradient3);stroke-width:3.43896" />
  <path
     d="M 2.7158402,15.344825 H 9.38419 c 0.394876,0 0.715841,0.360725 0.715841,0.804519 v 0.09786 c 0,0.443792 -0.320965,0.804516 -0.715841,0.804516 H 2.7158402 c -0.3948762,2e-6 -0.7158403,-0.360723 -0.7158403,-0.804515 v -0.09786 c 0,-0.443794 0.3209641,-0.804519 0.7158403,-0.80452 z"
     fill-rule="evenodd"
     id="path4"
     sodipodi:nodetypes="sssssssss"
     style="display:inline;isolation:isolate;fill:url(#linearGradient4);stroke-width:3.4587" />
  <path
     fill-rule="evenodd"
     clip-rule="evenodd"
     d="m 3.8000155,1.9999999 c -0.477402,0 -0.9352397,0.1896422 -1.2728034,0.5272105 C 2.1896439,2.8647759 1.9999999,3.322612 1.9999999,3.7999996 v 4.5000145 c 0,0.477419 0.189644,0.93524 0.5272122,1.272787 0.3375637,0.337577 0.7954014,0.5272299 1.2728034,0.5272299 H 8.300017 c 0.477419,0 0.9352561,-0.1896519 1.272786,-0.5272299 0.337608,-0.337547 0.527227,-0.795368 0.527227,-1.272786 V 3.7999996 C 10.10003,3.322612 9.910411,2.8647759 9.572803,2.5272104 9.2352731,2.1896421 8.777436,1.9999999 8.300017,1.9999999 Z m 0,1.7999997 H 8.300017 V 8.3000141 H 3.8000155 Z m 9.9000175,8.1000154 c -0.477392,0 -0.935225,0.189651 -1.272787,0.527229 -0.33758,0.33756 -0.527199,0.795381 -0.527199,1.272786 v 4.500123 c 0,0.477309 0.189619,0.935223 0.527199,1.272722 C 12.764808,19.810531 13.222641,20 13.700033,20 h 4.499965 c 0.477468,0 0.935383,-0.189469 1.272883,-0.527125 C 19.810382,19.135376 20,18.677462 20,18.200153 V 13.70003 c 0,-0.477405 -0.189618,-0.935226 -0.527119,-1.272786 -0.3375,-0.337578 -0.795415,-0.527229 -1.272883,-0.527229 z m 0,1.800015 h 4.499965 v 4.500123 h -4.499965 z"
     stroke-width="1.99999"
     id="path1-5"
     style="isolation:isolate;fill:url(#linearGradient5);fill-opacity:1;stroke:none;stroke-opacity:1"
     sodipodi:nodetypes="scsscsscsscsscccccscsscsscsscssccccc" />
  <path
     fill-rule="evenodd"
     clip-rule="evenodd"
     d="M 17.6001,6 C 14.5235,6 11.573,7.22214 9.39758,9.39758 7.22214,11.573 6,14.5235 6,17.6 v 29.0001 c 0,3.0767 1.22214,6.0271 3.39758,8.2024 2.17542,2.1755 5.12592,3.3977 8.20252,3.3977 h 29 c 3.0767,0 6.0272,-1.2222 8.2024,-3.3977 2.1757,-2.1753 3.3977,-5.1257 3.3977,-8.2024 V 17.6 c 0,-3.0765 -1.222,-6.027 -3.3977,-8.20242 C 52.6273,7.22214 49.6768,6 46.6001,6 Z m 0,11.6 h 29 v 29.0001 h -29 z m 0,52.2001 c -3.0766,0 -6.0271,1.2222 -8.20252,3.3977 C 7.22214,75.3732 6,78.3236 6,81.4002 v 29.0008 c 0,3.076 1.22214,6.027 3.39758,8.202 C 11.573,120.779 14.5235,122 17.6001,122 h 29 c 3.0767,0 6.0272,-1.221 8.2024,-3.397 2.1757,-2.175 3.3977,-5.126 3.3977,-8.202 V 81.4002 c 0,-3.0766 -1.222,-6.027 -3.3977,-8.2024 -2.1752,-2.1755 -5.1257,-3.3977 -8.2024,-3.3977 z m 0,11.6001 h 29 v 29.0008 h -29 z M 73.1978,9.39758 C 75.3732,7.22214 78.3237,6 81.4002,6 H 110.4 c 3.077,0 6.028,1.22214 8.203,3.39758 C 120.778,11.573 122,14.5235 122,17.6 v 29.0001 c 0,3.0767 -1.222,6.0271 -3.397,8.2024 -2.175,2.1755 -5.126,3.3977 -8.203,3.3977 H 81.4002 c -3.0765,0 -6.027,-1.2222 -8.2024,-3.3977 -2.1755,-2.1753 -3.3975,-5.1257 -3.3975,-8.2024 V 17.6 c 0,-3.0765 1.222,-6.027 3.3975,-8.20242 z M 110.4,17.6 H 81.4002 V 46.6001 H 110.4 Z M 81.4002,69.8001 c -3.0765,0 -6.027,1.2222 -8.2024,3.3977 -2.1755,2.1754 -3.3975,5.1258 -3.3975,8.2024 v 29.0008 c 0,3.076 1.222,6.027 3.3975,8.202 2.1754,2.176 5.1259,3.397 8.2024,3.397 H 110.4 c 3.077,0 6.028,-1.221 8.203,-3.397 2.175,-2.175 3.397,-5.126 3.397,-8.202 V 81.4002 c 0,-3.0766 -1.222,-6.027 -3.397,-8.2024 -2.175,-2.1755 -5.126,-3.3977 -8.203,-3.3977 z m 0,11.6001 H 110.4 V 110.401 H 81.4002 Z"
     stroke-width="2"
     id="path1-2"
     style="display:none;fill:url(#linearGradient10-6);fill-opacity:1;stroke:none;stroke-opacity:1" />
</svg>
