<?xml version="1.0" encoding="UTF-8" standalone="no"?>
<!-- Generator: Gravit.io -->

<svg
   style="isolation:isolate"
   viewBox="0 0 512 512"
   width="512pt"
   height="512pt"
   version="1.1"
   id="svg3"
   sodipodi:docname="snapper-tools.svg"
   inkscape:version="1.3.2 (091e20ef0f, 2023-11-25, custom)"
   xmlns:inkscape="http://www.inkscape.org/namespaces/inkscape"
   xmlns:sodipodi="http://sodipodi.sourceforge.net/DTD/sodipodi-0.dtd"
   xmlns:xlink="http://www.w3.org/1999/xlink"
   xmlns="http://www.w3.org/2000/svg"
   xmlns:svg="http://www.w3.org/2000/svg">
  <defs
     id="defs3">
    <linearGradient
       id="linearGradient2"
       inkscape:collect="always">
      <stop
         style="stop-color:#e5f230;stop-opacity:1;"
         offset="0"
         id="stop4" />
      <stop
         style="stop-color:#24d864;stop-opacity:1;"
         offset="1"
         id="stop5" />
    </linearGradient>
    <linearGradient
       id="linearGradient1"
       inkscape:collect="always">
      <stop
         style="stop-color:#e5f230;stop-opacity:1;"
         offset="0"
         id="stop1-3" />
      <stop
         style="stop-color:#24d864;stop-opacity:1;"
         offset="1"
         id="stop2-6" />
    </linearGradient>
    <linearGradient
       id="_lgradient_29"
       x1="0.50555557"
       y1="-0.047222223"
       x2="0.50555557"
       y2="0.96764994"
       gradientTransform="matrix(45,0,0,45,1.5,1.5)"
       gradientUnits="userSpaceOnUse">
      <stop
         offset="0%"
         stop-opacity="1"
         style="stop-color:rgb(84,51,255)"
         id="stop1-2" />
      <stop
         offset="51.73913043478261%"
         stop-opacity="1"
         style="stop-color:rgb(32,189,255)"
         id="stop2-7" />
      <stop
         offset="98.26086956521739%"
         stop-opacity="1"
         style="stop-color:rgb(165,254,203)"
         id="stop3-0" />
    </linearGradient>
    <linearGradient
       inkscape:collect="always"
       xlink:href="#linearGradient1"
       id="linearGradient7"
       x1="157.74489"
       y1="520.71954"
       x2="436.0181"
       y2="232.30513"
       gradientUnits="userSpaceOnUse"
       gradientTransform="matrix(0.96081031,0,0,0.96081031,8.7392325,7.3787905)" />
    <linearGradient
       id="paint0_linear"
       x1="8.9972801"
       y1="95.520599"
       x2="182.02499"
       y2="95.520599"
       gradientUnits="userSpaceOnUse">
      <stop
         id="stop6"
         style="stop-color:#e5f230;stop-opacity:1" />
      <stop
         offset="0.986957"
         id="stop8"
         style="stop-color:#24d864;stop-opacity:1" />
    </linearGradient>
    <linearGradient
       inkscape:collect="always"
       xlink:href="#linearGradient2"
       id="linearGradient8"
       x1="162.15924"
       y1="494.95331"
       x2="419.09702"
       y2="231.56416"
       gradientUnits="userSpaceOnUse"
       gradientTransform="matrix(1.0578009,0,0,1.0578009,-15.651288,-14.368827)" />
    <linearGradient
       inkscape:collect="always"
       xlink:href="#linearGradient2"
       id="linearGradient10"
       x1="37.612659"
       y1="499.37613"
       x2="476.00183"
       y2="255.59444"
       gradientUnits="userSpaceOnUse"
       gradientTransform="matrix(1.0578009,0,0,1.0578009,-15.652614,-14.367187)" />
  </defs>
  <sodipodi:namedview
     id="namedview3"
     pagecolor="#ffffff"
     bordercolor="#666666"
     borderopacity="1.0"
     inkscape:showpageshadow="2"
     inkscape:pageopacity="0.0"
     inkscape:pagecheckerboard="0"
     inkscape:deskcolor="#d1d1d1"
     inkscape:document-units="pt"
     inkscape:zoom="0.86075063"
     inkscape:cx="299.15749"
     inkscape:cy="329.36369"
     inkscape:current-layer="svg3" />
  <linearGradient
     id="_lgradient_1"
     x1="0.031773507189974896"
     y1="0.06139313402065516"
     x2="0.9557121177427359"
     y2="0.9731211021432015"
     gradientTransform="matrix(511,0,0,511,0.5,0.5)"
     gradientUnits="userSpaceOnUse">
    <stop
       offset="2.1739130434782608%"
       stop-opacity="1"
       style="stop-color:rgb(91,100,237)"
       id="stop1" />
    <stop
       offset="51.66666666666667%"
       stop-opacity="1"
       style="stop-color:rgb(198,116,251)"
       id="stop2" />
    <stop
       offset="98.33333333333333%"
       stop-opacity="1"
       style="stop-color:rgb(249,162,78)"
       id="stop3" />
  </linearGradient>
  <path
     d="m 258.17236,257.5423 44.48833,-44.48825 c 5.97556,-5.97647 15.66308,-5.97647 21.63946,0 5.9765,5.97563 5.9765,15.66312 0,21.63954 v 0 l -44.489,44.48908 c 0.065,0.71489 0.0978,1.43928 0.0978,2.17077 0,13.1833 -10.72555,23.90888 -23.90885,23.90888 -3.08047,0 -6.02615,-0.58564 -8.73289,-1.6513 l -73.09194,73.09262 c -1.86656,1.86737 -4.31481,2.80148 -6.76229,2.80148 -2.44746,0 -4.89421,-0.93492 -6.76227,-2.80148 -3.73473,-3.73543 -3.73473,-9.79062 0,-13.52534 l 73.09183,-73.09196 c -1.06569,-2.70595 -1.65132,-5.65242 -1.65132,-8.7329 0,-0.73149 0.0331,-1.45588 0.0978,-2.17077 l -64.77678,-64.77684 c -5.97649,-5.97561 -5.97649,-15.66308 0,-21.63948 5.9756,-5.9765 15.66309,-5.9765 21.63949,0 l 64.77606,64.77595 c 0.71568,-0.0649 1.44006,-0.0978 2.17236,-0.0978 0.73229,0 1.45667,0.0332 2.17236,0.0978 z m -113.10851,33.37483 h -14.34517 c -5.28196,0 -9.56368,-4.28249 -9.56368,-9.56369 0,-5.28119 4.28172,-9.56365 9.56368,-9.56365 h 14.34517 c 5.28207,0 9.56378,4.28246 9.56378,9.56365 0,5.2812 -4.28171,9.56369 -9.56378,9.56369 z m 236.21748,0 h -14.34519 c -5.28208,0 -9.56376,-4.28249 -9.56376,-9.56369 0,-5.28119 4.28168,-9.56365 9.56376,-9.56365 h 14.34519 c 5.28196,0 9.56367,4.28246 9.56367,9.56365 0,5.2812 -4.28171,9.56369 -9.56367,9.56369 z M 256.00001,416.19844 c -5.282,0 -9.5637,-4.28248 -9.5637,-9.56366 V 392.2896 c 0,-5.28128 4.2817,-9.56378 9.5637,-9.56378 5.28197,0 9.56368,4.2825 9.56368,9.56378 v 14.34518 c 0,5.28118 -4.28171,9.56366 -9.56368,9.56366 z"
     fill-rule="evenodd"
     id="path3"
     style="display:inline;fill:url(#linearGradient7);fill-opacity:1;stroke-width:0.788241"
     sodipodi:nodetypes="cccsccssccscccscccccsccsssssssssssssssssssss" />
  <path
     id="path4-3"
     style="fill:url(#linearGradient8);fill-opacity:1;stroke:url(#linearGradient8);stroke-width:1.0578"
     d="m 244.6543,6.3515625 c -2.52186,0.1850806 -4.38755,2.1002568 -6.54484,3.1958091 -38.41089,22.8977834 -76.62791,46.0784734 -114.72665,69.4916904 -1.73404,0.835682 -3.62985,1.978804 -4.11676,3.985756 -0.96866,2.94357 -0.12042,6.673853 2.57591,8.417109 4.59524,2.447598 8.90274,5.385664 13.38153,8.033701 34.96896,21.468892 70.11533,42.654092 105.31089,63.740002 1.83223,1.3343 4.19866,2.24189 6.46313,1.56327 2.23871,-0.53435 4.46219,-1.96076 5.33643,-4.15577 0.46723,-4.65735 0.70269,-9.36481 0.80124,-13.98329 0.24552,-11.34624 -0.31875,-22.69513 -0.0769,-34.03997 0.43326,-4.40196 5.15124,-7.6621 9.42999,-6.7776 33.24155,1.64023 66.07086,12.01966 93.99858,30.16968 16.34315,10.59036 30.95857,23.85854 42.9796,39.18349 14.89789,18.68542 25.931,40.43056 32.19691,63.49242 7.98064,29.13107 8.59482,60.34642 1.10421,89.64659 -4.22564,16.75106 -10.70284,32.9862 -19.71958,47.74579 -26.30656,43.50704 -71.32825,75.19696 -121.15806,85.28782 -15.65789,3.22093 -31.76557,4.1364 -47.69903,2.91865 -25.51716,-1.23184 -50.66606,-8.42232 -73.15988,-20.49141 -38.05455,-20.29683 -68.95684,-54.07968 -84.858226,-94.2576 -6.014427,-15.20689 -9.769699,-31.30495 -11.090676,-47.60451 -2.116253,-14.88704 -0.905288,-30.05409 1.846206,-44.77569 2.258199,-12.42238 5.420404,-24.69761 7.782604,-36.99688 0.334554,-1.72342 0.783348,-3.48935 0.339463,-5.24099 -0.926147,-5.05835 -4.584797,-9.24339 -8.992197,-11.69677 -1.428183,-0.83021 -3.229032,-1.58399 -4.579688,-2.02708 -2.189646,-0.71716 -4.473683,-1.14768 -6.775391,-1.26172 -0.72668,-0.04 -1.755884,-0.0417 -2.595888,0.006 -4.448994,0.22703 -8.967542,1.71535 -12.205235,4.87351 -1.863025,1.73464 -3.162132,3.98291 -3.968537,6.38204 -6.565169,16.74039 -10.739323,34.40242 -12.540887,52.28882 -0.17374,1.87397 -0.368363,3.95286 -0.503157,5.90882 -0.571176,7.87902 -0.679832,15.79 -0.36403,23.68298 0.242323,6.02137 0.750989,12.2087 1.5,18.19922 4.307255,34.45499 16.781471,68.0294 36.1947,96.90135 12.080018,17.99832 26.960779,34.28176 44.040919,47.71643 9.51146,7.47048 19.47354,14.47073 30.06483,20.42941 15.50598,8.7823 32.08189,15.65097 49.21713,20.53289 5.86645,1.66006 11.93588,3.13457 17.97032,4.33494 9.9149,1.99537 20.19025,3.32553 30.28798,3.99998 10.06366,0.66654 20.28314,0.64625 30.35574,-0.0335 9.8872,-0.65662 19.86343,-2.03717 29.62491,-4.04214 4.66471,-0.95156 9.32007,-2.07724 13.89191,-3.26711 22.76284,-5.99776 44.4869,-15.80623 64.18945,-28.66992 27.30474,-17.84233 50.89719,-41.73915 67.90472,-69.67523 6.43377,-10.52277 12.02745,-21.5646 16.59919,-33.02203 0.41058,-1.07932 0.9138,-2.32038 1.32108,-3.4232 7.69859,-20.41832 12.24111,-42.07185 13.55196,-63.80922 0.71749,-11.7785 0.48541,-23.66541 -0.64896,-35.35471 -0.58974,-6.10338 -1.47318,-12.30412 -2.55025,-18.25858 -0.75687,-4.06244 -1.60828,-8.15566 -2.57369,-12.10306 -1.4345,-5.9792 -3.12476,-11.87588 -5.05275,-17.65575 -3.17358,-9.53108 -7.06963,-18.97975 -11.64562,-27.99026 -1.8757,-3.71152 -3.77217,-7.20687 -5.84188,-10.79626 -6.51635,-11.29123 -13.93559,-22.07574 -22.37637,-32.01858 -9.03108,-10.7021 -19.10376,-20.51994 -29.99602,-29.3189 -1.94704,-1.55845 -3.96645,-3.15451 -5.95371,-4.64114 -8.01752,-6.05056 -16.58632,-11.675505 -25.34939,-16.619394 -10.48793,-5.923287 -21.46453,-11.040138 -32.7128,-15.232305 -14.82045,-5.535864 -30.22317,-9.519014 -45.87863,-11.80794 -3.46969,-0.496778 -7.10196,-0.949232 -10.65177,-1.277277 -5.30478,-0.513125 -10.80081,-0.806484 -16.15491,-0.951289 -2.83608,-0.09522 -5.67309,-0.158211 -8.50973,-0.234325 -0.45514,-4.932856 -0.27103,-9.890554 -0.29906,-14.836694 0.0418,-11.415753 0.3965,-22.877547 -0.26648,-34.241599 -0.20769,-1.926192 -0.008,-3.950761 -0.70985,-5.786941 -1.40686,-2.5868879 -4.55784,-3.916779 -7.41406,-3.7519535 z" />
</svg>
