<?xml version="1.0" encoding="UTF-8" standalone="no"?>
<!-- Generator: Gravit.io -->

<svg
   style="isolation:isolate"
   viewBox="0 0 48 48"
   width="48pt"
   height="48pt"
   version="1.1"
   id="svg2"
   sodipodi:docname="system-suspend-hibernate.svg"
   inkscape:version="1.3.2 (091e20ef0f, 2023-11-25, custom)"
   xmlns:inkscape="http://www.inkscape.org/namespaces/inkscape"
   xmlns:sodipodi="http://sodipodi.sourceforge.net/DTD/sodipodi-0.dtd"
   xmlns="http://www.w3.org/2000/svg"
   xmlns:svg="http://www.w3.org/2000/svg">
  <defs
     id="defs2">
    <linearGradient
       id="paint0_linear_451_2434"
       x1="11.019254"
       y1="29.837141"
       x2="29.891476"
       y2="10.994328"
       gradientUnits="userSpaceOnUse"
       gradientTransform="matrix(1.2467509,0,0,1.2467509,10.285723,10.344156)">
      <stop
         id="stop1-8"
         offset="0"
         style="stop-color:#ff69ff;stop-opacity:1;" />
      <stop
         offset="1"
         id="stop2-4"
         style="stop-color:#9033dd;stop-opacity:1;" />
    </linearGradient>
  </defs>
  <sodipodi:namedview
     id="namedview2"
     pagecolor="#ffffff"
     bordercolor="#666666"
     borderopacity="1.0"
     inkscape:showpageshadow="2"
     inkscape:pageopacity="0.0"
     inkscape:pagecheckerboard="0"
     inkscape:deskcolor="#d1d1d1"
     inkscape:document-units="pt"
     inkscape:zoom="9.1592425"
     inkscape:cx="3.8212767"
     inkscape:cy="35.592463"
     inkscape:current-layer="svg2" />
  <linearGradient
     id="_lgradient_38"
     x1="0.49999973"
     y1="0.99999231"
     x2="5.6007235e-07"
     y2="0.49999669"
     gradientTransform="matrix(-47.058,0,0,46.985,47.552974,0.559)"
     gradientUnits="userSpaceOnUse">
    <stop
       offset="0"
       stop-opacity="1"
       style="stop-color:#ff69ff;stop-opacity:1;"
       id="stop1" />
    <stop
       offset="1"
       stop-opacity="1"
       style="stop-color:#9033dd;stop-opacity:1;"
       id="stop2" />
  </linearGradient>
  <path
     d="m 25.630974,43.272 v 0 c -1.174,0.099 -2.049,1.135 -1.953,2.312 v 0 c 0.097,1.176 1.133,2.051 2.312,1.952 v 0 c 5.91,-0.492 11.426,-3.205 15.429,-7.594 3.993,-4.389 6.187,-10.131 6.133,-16.067 -0.056,-6.235 -2.592,-12.201 -7.038,-16.578 -4.456,-4.367 -10.468,-6.793 -16.703,-6.737 -6.235,0.056 -12.201,2.592 -16.5779996,7.038 -4.366,4.456 -6.79300002,10.468 -6.73700002,16.703 v 0 c 0.011,1.18 0.97800002,2.13 2.15800002,2.119 v 0 c 1.181,-0.01 2.131,-0.977 2.12,-2.158 v 0 c -0.046,-5.101 1.941,-10.018 5.5129996,-13.665 3.582,-3.637 8.462,-5.713 13.563,-5.759 5.101,-0.046 10.018,1.941 13.665,5.513 3.637,3.582 5.713,8.462 5.759,13.563 0.044,4.855 -1.742,9.556 -5.015,13.147 -3.272,3.591 -7.787,5.803 -12.628,6.211 z M 7.0579744,33.194 v 0 c -0.558,-1.04 -1.856,-1.431 -2.896,-0.873 v 0 c -1.039,0.559 -1.43,1.856 -0.872,2.896 v 0 c 2.382,4.428 6.126,7.988 10.6699996,10.139 v 0 c 1.067,0.51 2.345,0.057 2.851,-1.01 v 0 c 0.507,-1.067 0.052,-2.347 -1.015,-2.857 v 0 c -3.727,-1.763 -6.7799996,-4.666 -8.7379996,-8.295 z"
     fill-rule="evenodd"
     id="path2"
     style="fill:url(#_lgradient_38)"
     sodipodi:nodetypes="sssssscccscsssssscscccssssssssssssss" />
  <path
     d="m 34.16824,25.47772 -2.446875,0.583106 c -0.307823,0.0784 -0.602305,0.202223 -0.873722,0.367293 l -1.990064,-1.221941 c 0.214939,-0.789692 0.214939,-1.622523 0,-2.412126 l 1.990064,-1.221993 c 0.271417,0.165104 0.565899,0.288861 0.873722,0.367208 0,0 2.67877,0.623909 2.79422,0.623909 0.824352,-0.0077 1.486127,-0.682493 1.478273,-1.506858 -0.0064,-0.680864 -0.473018,-1.271052 -1.134046,-1.434637 l -2.450863,-0.586112 c -0.0556,-0.01346 -0.103222,-0.04958 -0.131275,-0.09948 -0.03016,-0.04803 -0.03952,-0.1062 -0.02593,-0.161179 L 32.834851,16.327 c 0.238503,-0.78908 -0.207709,-1.622184 -0.996778,-1.860701 -0.78907,-0.238515 -1.622148,0.207746 -1.860651,0.996827 -0.01769,0.05851 -0.0318,0.118032 -0.04225,0.178249 l -0.583105,2.447908 c -0.06831,0.306775 -0.09091,0.621979 -0.06658,0.935401 l -1.990189,1.226914 C 26.783739,19.81102 26.187293,19.479781 25.542973,19.278394 v -2.343432 c 0.282388,-0.143093 0.541339,-0.328319 0.768123,-0.549293 l 1.780235,-1.779213 c 0.582857,-0.583104 0.582607,-1.528269 -4.98e-4,-2.111048 -0.583105,-0.582831 -1.528267,-0.582594 -2.110999,5.11e-4 l -1.779363,1.780149 c -0.08229,0.08245 -0.215813,0.08255 -0.298223,1.98e-4 0,3.8e-5 -1.26e-4,-4.8e-5 0,0 l -1.781413,-1.780392 c -0.583117,-0.583105 -1.528493,-0.583105 -2.11161,0 -0.583069,0.583106 -0.583069,1.528467 0,2.111573 l 1.780236,1.779213 c 0.226808,0.220588 0.485833,0.40547 0.76817,0.548308 V 19.2784 c -0.642985,0.20322 -1.237624,0.535754 -1.747369,0.97718 l -1.995163,-1.230894 c 0.02494,-0.315691 0.0025,-0.633349 -0.06664,-0.942382 l -0.583118,-2.440926 c -0.178285,-0.804817 -0.975296,-1.312743 -1.780112,-1.134458 -0.804815,0.178275 -1.312754,0.975284 -1.134469,1.780101 0.0035,0.01546 0.0072,0.03069 0.01092,0.04589 l 0.583117,2.447909 c 0.01364,0.05507 0.0044,0.11322 -0.02584,0.16123 -0.0281,0.04993 -0.07573,0.08592 -0.131357,0.09948 l -2.446938,0.580114 c -0.801871,0.191439 -1.296731,0.99664 -1.105281,1.79845 0.1602,0.671139 0.759571,1.145017 1.449535,1.14604 0.115428,0 2.794183,-0.623912 2.794183,-0.623912 0.307797,-0.07835 0.602266,-0.20211 0.873686,-0.367194 l 1.990151,1.221979 c -0.214928,0.789642 -0.214928,1.622347 0,2.412039 l -1.990151,1.221942 c -0.271373,-0.165075 -0.565843,-0.288878 -0.87364,-0.367173 l -2.446936,-0.583106 c -0.78786,-0.242617 -1.623171,0.199605 -1.865738,0.987427 -0.242556,0.787822 0.199553,1.623145 0.987427,1.865764 0.06122,0.01882 0.12361,0.03365 0.186712,0.04452 l 2.446948,0.583106 c 0.05561,0.01364 0.103244,0.04961 0.131308,0.09949 0.03014,0.04799 0.03948,0.106222 0.0259,0.161213 l -0.583081,2.447995 c -0.192337,0.801785 0.301714,1.607686 1.103535,1.80006 0.801812,0.192373 1.607775,-0.301714 1.800125,-1.103499 l 0.583116,-2.447997 c 0.06916,-0.309318 0.09166,-0.62724 0.06664,-0.943291 l 1.995164,-1.226928 c 0.509746,0.441474 1.104384,0.773983 1.74737,0.977203 v 2.339403 c -0.282215,0.143876 -0.541201,0.329393 -0.768171,0.550317 l -1.780236,1.777119 c -0.583069,0.583105 -0.583069,1.528518 0,2.111623 0.583117,0.583105 1.528491,0.583105 2.111608,0 L 23.9,33.723998 c 0.08241,-0.08241 0.215938,-0.08254 0.298347,-1.26e-4 0,0 1.26e-4,0 0,0 l 1.779489,1.780362 c 0.583105,0.583105 1.528392,0.583105 2.111497,0 0.583106,-0.583105 0.583106,-1.528518 0,-2.111623 L 26.309215,31.613504 C 26.08268,31.393328 25.824353,31.208558 25.542962,31.065181 v -2.343516 c 0.642949,-0.203221 1.23765,-0.535729 1.747321,-0.977079 l 1.99019,1.226928 c -0.02494,0.315678 -0.0025,0.633226 0.06658,0.942295 l 0.583106,2.447995 c 0.192373,0.801787 0.998398,1.295748 1.800183,1.103499 0.801787,-0.192373 1.295874,-0.998273 1.103501,-1.800057 l -0.583107,-2.447997 c -0.01364,-0.05499 -0.0041,-0.113208 0.02593,-0.161213 0.02805,-0.04988 0.07568,-0.0859 0.131291,-0.09949 l 2.447,-0.583107 c 0.801784,-0.192373 1.295872,-0.998272 1.103499,-1.800058 -0.192374,-0.801911 -0.998273,-1.295873 -1.800184,-1.103625 z m -10.118008,0.51254 c -1.099137,0 -1.990128,-0.891054 -1.990128,-1.990189 0,-1.099136 0.890991,-1.990138 1.990128,-1.990138 1.099134,0 1.990188,0.891002 1.990188,1.990138 0,1.099135 -0.891054,1.990189 -1.990188,1.990189 z"
     id="path1"
     style="fill:url(#paint0_linear_451_2434);stroke-width:1.24676" />
</svg>
