<?xml version="1.0" encoding="UTF-8" standalone="no"?>
<!-- Generator: Gravit.io -->

<svg
   style="isolation:isolate"
   viewBox="0 0 48 48"
   width="48pt"
   height="48pt"
   version="1.1"
   id="svg2"
   sodipodi:docname="system-reboot.svg"
   inkscape:version="1.3.2 (091e20ef0f, 2023-11-25, custom)"
   xmlns:inkscape="http://www.inkscape.org/namespaces/inkscape"
   xmlns:sodipodi="http://sodipodi.sourceforge.net/DTD/sodipodi-0.dtd"
   xmlns="http://www.w3.org/2000/svg"
   xmlns:svg="http://www.w3.org/2000/svg">
  <defs
     id="defs2" />
  <sodipodi:namedview
     id="namedview2"
     pagecolor="#ffffff"
     bordercolor="#666666"
     borderopacity="1.0"
     inkscape:showpageshadow="2"
     inkscape:pageopacity="0.0"
     inkscape:pagecheckerboard="0"
     inkscape:deskcolor="#d1d1d1"
     inkscape:document-units="pt"
     inkscape:zoom="9.1592425"
     inkscape:cx="15.721824"
     inkscape:cy="37.339332"
     inkscape:current-layer="svg2" />
  <linearGradient
     id="_lgradient_57"
     x1="0.5"
     y1="1"
     x2="1"
     y2="0.5"
     gradientTransform="matrix(46,0,0,46,1,1)"
     gradientUnits="userSpaceOnUse">
    <stop
       offset="0"
       stop-opacity="1"
       style="stop-color:#00f1fa;stop-opacity:1;"
       id="stop1" />
    <stop
       offset="1"
       stop-opacity="1"
       style="stop-color:#006cff;stop-opacity:1;"
       id="stop2" />
  </linearGradient>
  <path
     d="M 11.73,4.545 11.85,4.47 C 15.5,2.2 19.71,1 24,1 c 3.89,0 7.72,0.99 11.13,2.87 v 0 c 0.966,0.535 1.315,1.754 0.78,2.72 v 0 c -0.535,0.966 -1.754,1.315 -2.72,0.78 v 0 C 30.38,5.81 27.22,5 24,5 20.465,5 17.009,5.982 14.007,7.847 v 0 L 14.74,8.14 v 0 c 1.027,0.414 1.526,1.581 1.115,2.605 v 0 c -0.411,1.024 -1.574,1.523 -2.595,1.115 v 0 L 8.567,9.983 C 7.542,9.573 6.886,8.361 7.103,7.279 L 8.04,2.61 v 0 C 8.255,1.528 9.308,0.825 10.39,1.04 v 0 c 1.082,0.215 1.785,1.268 1.57,2.35 v 0 L 11.73,4.545 Z M 7.29,33.05 v 0 c 0.53,0.971 0.171,2.188 -0.8,2.715 v 0 C 5.519,36.292 4.304,35.931 3.78,34.96 v 0 C 1.95,31.6 1,27.83 1,24 1,21.08 1.55,18.19 2.63,15.49 v 0 c 0.408,-1.027 1.573,-1.528 2.6,-1.12 v 0 c 1.027,0.408 1.528,1.573 1.12,2.6 v 0 C 5.45,19.2 5,21.59 5,24 c 0,3.16 0.79,6.27 2.29,9.05 v 0 0 0 z m 25.52,7.78 v 0 c 0.977,-0.508 2.187,-0.127 2.7,0.85 v 0 c 0.513,0.977 0.137,2.187 -0.84,2.7 v 0 C 31.38,46.1 27.72,47 24,47 20.42,47 16.88,46.17 13.68,44.56 v 0 c -0.988,-0.497 -1.387,-1.702 -0.89,-2.69 v 0 c 0.497,-0.988 1.702,-1.387 2.69,-0.89 v 0 C 18.12,42.31 21.04,43 24,43 c 3.07,0 6.09,-0.74 8.81,-2.17 v 0 0 z m 9,-23.47 v 0 c -0.386,-1.032 0.14,-2.184 1.175,-2.57 v 0 c 1.035,-0.386 2.189,0.142 2.575,1.18 v 0 C 46.51,18.54 47,21.26 47,24 c 0,3.62 -0.85,7.2 -2.5,10.43 v 0 c -0.497,0.982 -1.7,1.372 -2.685,0.87 v 0 C 40.83,34.798 40.438,33.592 40.94,32.61 v 0 C 42.3,29.94 43,26.99 43,24 43,21.73 42.6,19.49 41.81,17.36 v 0 z M 16,24 c 0,-2.12 0.84,-4.16 2.34,-5.66 1.5,-1.5 3.54,-2.34 5.66,-2.34 2.12,0 4.16,0.84 5.66,2.34 1.5,1.5 2.34,3.54 2.34,5.66 0,2.12 -0.84,4.16 -2.34,5.66 C 28.16,31.16 26.12,32 24,32 21.88,32 19.84,31.16 18.34,29.66 16.84,28.16 16,26.12 16,24 Z m -4,0 c 0,-3.18 1.27,-6.24 3.51,-8.49 C 17.76,13.27 20.82,12 24,12 c 3.18,0 6.24,1.27 8.49,3.51 2.24,2.25 3.51,5.31 3.51,8.49 0,3.18 -1.27,6.24 -3.51,8.49 C 30.24,34.73 27.18,36 24,36 20.82,36 17.76,34.73 15.51,32.49 13.27,30.24 12,27.18 12,24 Z"
     fill-rule="evenodd"
     fill="url(#_lgradient_57)"
     id="path2"
     style="fill:url(#_lgradient_57)"
     sodipodi:nodetypes="ccsssssssssccssssccccsssscccccssssssssssssssccccccsssssssssssssscccccsssssssssssssscccsssssssssscscscscs" />
</svg>
