<?xml version="1.0" encoding="UTF-8" standalone="no"?>
<svg
   width="192"
   height="192"
   viewBox="0 0 192 192"
   fill="none"
   version="1.1"
   id="svg16"
   sodipodi:docname="teamspeak.svg"
   inkscape:version="1.4 (e7c3feb100, 2024-10-09)"
   xmlns:inkscape="http://www.inkscape.org/namespaces/inkscape"
   xmlns:sodipodi="http://sodipodi.sourceforge.net/DTD/sodipodi-0.dtd"
   xmlns:xlink="http://www.w3.org/1999/xlink"
   xmlns="http://www.w3.org/2000/svg"
   xmlns:svg="http://www.w3.org/2000/svg">
  <defs
     id="defs16">
    <linearGradient
       id="linearGradient16"
       inkscape:collect="always">
      <stop
         style="stop-color:#00f1fa;stop-opacity:1;"
         offset="0"
         id="stop16" />
      <stop
         style="stop-color:#006cff;stop-opacity:1;"
         offset="1"
         id="stop17" />
    </linearGradient>
    <linearGradient
       inkscape:collect="always"
       xlink:href="#linearGradient16"
       id="linearGradient17"
       x1="31.311274"
       y1="184.38972"
       x2="186.196"
       y2="94.694418"
       gradientUnits="userSpaceOnUse" />
  </defs>
  <sodipodi:namedview
     id="namedview16"
     pagecolor="#505050"
     bordercolor="#ffffff"
     borderopacity="1"
     inkscape:showpageshadow="0"
     inkscape:pageopacity="0"
     inkscape:pagecheckerboard="1"
     inkscape:deskcolor="#505050"
     inkscape:zoom="1.9003495"
     inkscape:cx="70.513346"
     inkscape:cy="175.23093"
     inkscape:current-layer="svg16" />
  <path
     id="path1"
     d="M 94.613281 5.0019531 C 66.030981 5.1062431 38.176369 19.980281 21.855469 43.425781 C 11.082469 58.642481 5.223965 77.26875 5.234375 95.90625 C 4.672305 105.30285 5.3059562 114.71019 5.2539062 124.11719 C 5.1498263 127.90319 5.6501575 131.85734 7.8984375 135.02734 C 10.573457 137.83334 14.142991 140.09667 18.150391 140.01367 C 24.988891 140.29467 31.224609 134.27683 31.224609 127.42383 C 31.391109 118.22583 31.297559 109.01696 31.255859 99.818359 C 30.641759 93.821459 25.489541 88.804069 19.494141 88.292969 C 19.098641 88.219969 18.295891 88.074319 17.900391 88.011719 C 18.222991 85.800719 18.535456 83.599137 18.910156 81.398438 C 22.053556 64.200237 31.192959 48.190516 44.380859 36.728516 C 55.538959 26.893416 69.590009 20.438881 84.287109 18.238281 C 94.446009 16.746881 104.88642 17.298316 114.85742 19.791016 C 123.43442 21.981216 131.62661 25.642338 138.97461 30.585938 C 145.21961 34.872537 151.00889 39.921019 155.71289 45.886719 C 157.65989 48.285519 159.47975 50.7677 161.21875 53.3125 C 167.89075 63.7524 172.03273 75.725134 173.30273 88.052734 C 166.75573 88.250934 160.58423 93.256741 160.11523 99.994141 C 159.97023 108.77534 160.06397 117.55784 160.04297 126.33984 C 159.95997 129.53084 161.02006 132.65058 162.78906 135.26758 C 165.56806 138.00058 169.20123 140.23195 173.24023 140.00195 C 179.95323 140.07495 185.97045 134.13081 185.93945 127.38281 C 186.26245 112.66681 186.6157 97.867609 184.7207 83.224609 C 184.0657 78.333109 183.01316 73.493497 181.78516 68.716797 C 179.20416 60.122897 175.17766 52.029366 170.22266 44.572266 C 164.03966 35.488166 156.20223 27.593153 147.24023 21.251953 C 139.36023 15.828553 130.66902 11.646702 121.54102 8.8203125 C 112.80802 6.2650825 103.72098 4.9289531 94.613281 5.0019531 z M 57.585938 97.423828 C 56.617283 97.395505 55.645094 97.524969 54.695312 97.867188 C 51.073013 99.076987 48.960487 102.76991 48.367188 106.37891 C 46.493588 115.34791 48.929981 124.97341 54.488281 132.19141 C 61.920081 139.71041 73.296312 137.70703 82.820312 137.83203 C 88.961413 138.11403 94.987716 132.49237 93.416016 126.10938 C 89.949916 119.69538 84.3813 114.83534 78.9375 110.15234 C 74.1183 106.21034 69.174853 102.34046 63.689453 99.347656 C 61.836022 98.3151 59.716977 97.486139 57.585938 97.423828 z M 137.20703 111.80469 C 133.33898 111.79372 129.51597 113.15863 125.87109 114.33594 C 119.57309 116.70394 113.04603 118.87292 107.58203 122.91992 C 105.50003 124.46292 103.28444 126.548 103.39844 129.375 C 103.52344 132.378 106.04252 134.46383 108.47852 135.79883 C 115.64952 137.84283 123.15442 139.00147 130.60742 139.10547 C 140.68242 138.60547 147.15573 127.91581 146.42773 118.50781 C 145.53273 115.39981 143.12762 112.70778 139.89062 112.05078 C 138.99494 111.88259 138.09966 111.80722 137.20703 111.80469 z M 150.12109 153.25 C 148.89629 153.30697 147.68742 153.76063 146.64648 154.71875 C 136.73748 163.35475 124.74536 169.47548 111.94336 172.39648 C 106.75936 173.43848 105.86555 180.72917 109.93555 183.70117 C 112.08955 184.45217 114.41191 184.65138 116.62891 183.98438 C 130.67991 180.51138 143.94061 173.63798 154.72461 163.95898 C 156.69161 162.39498 156.66017 159.73494 156.82617 157.46094 C 155.58798 154.91581 152.81565 153.12468 150.12109 153.25 z "
     style="fill:url(#linearGradient17);fill-opacity:1;stroke:none;stroke-opacity:1" />
  <path
     opacity="0.27"
     d="M44.3809 36.7294C55.539 26.8943 69.5908 20.4385 84.2878 18.2379C94.4467 16.7464 104.887 17.2992 114.858 19.7919C123.435 21.982 131.627 25.6428 138.975 30.5864C145.22 34.8729 151.008 39.9208 155.712 45.8865L156.576 47.2632C153.277 44.9687 150.727 41.8294 147.75 39.1699C136.071 28.8447 121.208 22.1594 105.73 20.4176C99.4429 20.1465 93.1352 20.0526 86.8588 20.4906C69.7989 22.7538 53.3844 30.6907 41.4768 43.2374C29.257 55.1583 21.8668 71.4701 19.4937 88.2928C19.0981 88.2198 18.2967 88.0738 17.9011 88.0113C18.2238 85.8002 18.5361 83.5996 18.9108 81.3989C22.0542 64.2007 31.193 48.1914 44.3809 36.7294Z"
     fill="black"
     id="path4" />
  <path
     opacity="0.27"
     d="M146.428 118.507C147.667 123.545 147.604 129.322 144.45 133.682C141.286 138.688 135.561 142.13 129.535 141.515C122.904 140.993 115.941 140.67 109.758 138.052C109.435 137.489 108.8 136.362 108.478 135.799C115.649 137.843 123.154 139.001 130.607 139.105C140.682 138.605 147.156 127.914 146.428 118.507Z"
     fill="black"
     id="path5" />
  <path
     opacity="0.24"
     d="M181.786 68.7167C182.9 70.0308 183.743 71.5744 184.087 73.2848C188 89.2211 187.917 105.773 187.428 122.074C187.376 127.508 188.354 133.891 184.066 138.115C178.612 144.831 165.736 143.955 162.79 135.267C165.569 138 169.202 140.232 173.241 140.002C179.954 140.075 185.971 134.131 185.939 127.383C186.262 112.667 186.616 97.8671 184.721 83.2241C184.066 78.3327 183.014 73.4934 181.786 68.7167Z"
     fill="black"
     id="path8" />
  <path
     opacity="0.24"
     d="M31.2555 99.8175C32.4942 100.589 33.2852 101.768 33.0874 103.27C33.1915 111.29 33.077 119.31 33.1395 127.331C33.4101 132.556 30.7871 137.76 26.4051 140.607C20.3992 144.602 10.0322 142.495 7.89838 135.028C10.5734 137.833 14.1436 140.096 18.151 140.013C24.9895 140.294 31.2243 134.277 31.2243 127.424C31.3908 118.226 31.2972 109.016 31.2555 99.8175Z"
     fill="black"
     id="path9" />
  <path
     opacity="0.24"
     d="M93.4163 126.11C94.1761 127.602 95.2795 129.03 95.4668 130.73C94.7486 136.873 88.6595 141.087 82.6537 140.409C74.2851 139.95 64.8236 142.13 57.5687 136.748C55.7992 135.841 55.1227 133.943 54.4877 132.191C61.9195 139.71 73.2963 137.708 82.8202 137.833C88.9614 138.115 94.988 132.493 93.4163 126.11Z"
     fill="black"
     id="path10" />
  <path
     opacity="0.24"
     d="M156.826 157.461C159.054 160.33 158.606 164.71 155.619 166.879C144.356 176.871 130.419 183.848 115.743 187.06C112.547 188.03 110.299 185.308 108.353 183.274L109.935 183.702C112.09 184.453 114.411 184.651 116.628 183.984C130.679 180.511 143.94 173.638 154.724 163.959C156.691 162.395 156.66 159.735 156.826 157.461Z"
     fill="black"
     id="path11" />
</svg>
