<?xml version="1.0" encoding="UTF-8" standalone="no"?>
<svg
   width="192"
   height="192"
   viewBox="0 0 192 192"
   fill="none"
   version="1.1"
   id="svg14"
   sodipodi:docname="utilities-system-monitor.svg"
   inkscape:version="1.3.2 (091e20ef0f, 2023-11-25, custom)"
   xmlns:inkscape="http://www.inkscape.org/namespaces/inkscape"
   xmlns:sodipodi="http://sodipodi.sourceforge.net/DTD/sodipodi-0.dtd"
   xmlns:xlink="http://www.w3.org/1999/xlink"
   xmlns="http://www.w3.org/2000/svg"
   xmlns:svg="http://www.w3.org/2000/svg">
  <sodipodi:namedview
     id="namedview14"
     pagecolor="#ffffff"
     bordercolor="#666666"
     borderopacity="1.0"
     inkscape:showpageshadow="2"
     inkscape:pageopacity="0.0"
     inkscape:pagecheckerboard="0"
     inkscape:deskcolor="#d1d1d1"
     inkscape:zoom="2.8284272"
     inkscape:cx="73.892657"
     inkscape:cy="117.5565"
     inkscape:current-layer="svg14" />
  <path
     d="m 89.61118,172.51364 v 0 c 4.667418,0.3941 8.14611,4.5182 7.76445,9.20363 v 0 c -0.38564,4.68142 -4.504414,8.1646 -9.19171,7.7705 v 0 C 64.687806,187.52922 42.758101,176.72931 26.843557,159.25757 10.968774,141.78582 2.246187,118.92806 2.4608722,95.297998 2.683519,70.477704 12.765768,46.728227 30.441525,29.304261 48.157037,11.920112 72.058669,2.2626748 96.84687,2.4856035 c 24.7882,0.2230346 48.50695,10.3182475 65.90838,28.0168915 17.35772,17.738451 27.00662,41.67103 26.78398,66.491323 v 0 c -0.0437,4.697382 -3.88819,8.479122 -8.57945,8.435352 v 0 c -4.69525,-0.0397 -8.47212,-3.88926 -8.42839,-8.590602 v 0 C 172.71425,76.532504 164.81464,56.958906 150.61361,42.440906 136.37281,27.962732 116.97162,19.698584 96.69182,19.515483 76.412009,19.332467 56.863719,27.242218 42.364511,41.461623 27.905057,55.720865 19.651602,75.147192 19.46872,95.453248 c -0.174939,19.326822 6.92559,38.040572 19.937905,52.335632 13.008338,14.29506 30.958415,23.10059 50.204555,24.72476 z m 73.83981,-40.11852 v 0 c 2.21842,-4.14004 7.37882,-5.69653 11.5135,-3.47524 v 0 c 4.1307,2.22526 5.68518,7.38836 3.46677,11.52839 v 0 c -9.47001,17.62699 -24.35485,31.79866 -42.42022,40.36138 v 0 c -4.24203,2.03019 -9.32292,0.2269 -11.33459,-4.02063 v 0 c -2.01566,-4.24753 -0.20673,-9.34293 4.03529,-11.37314 v 0 c 14.81725,-7.01816 26.95493,-18.57445 34.73925,-33.02076 z"
     fill-rule="evenodd"
     fill="url(#_lgradient_13)"
     id="path2-6"
     sodipodi:nodetypes="sssssscccscsssssscscccssssssssssssss"
     style="isolation:isolate;fill:url(#_lgradient_13);stroke-width:3.97822" />
  <defs
     id="defs14">
    <linearGradient
       id="linearGradient46"
       x1="95.1427"
       y1="155.562"
       x2="95.1427"
       y2="34.0551"
       gradientUnits="userSpaceOnUse"
       gradientTransform="rotate(-90,96.164905,94.975871)">
      <stop
         id="stop45"
         offset="0"
         style="stop-color:#f069ff;stop-opacity:1;" />
      <stop
         offset="1"
         id="stop46"
         style="stop-color:#9033dd;stop-opacity:1;" />
    </linearGradient>
    <linearGradient
       id="linearGradient44"
       x1="95.1427"
       y1="155.562"
       x2="95.1427"
       y2="34.0551"
       gradientUnits="userSpaceOnUse"
       gradientTransform="rotate(-90,96.164905,94.975871)">
      <stop
         id="stop43"
         offset="0"
         style="stop-color:#f069ff;stop-opacity:1;" />
      <stop
         offset="1"
         id="stop44"
         style="stop-color:#9033dd;stop-opacity:1;" />
    </linearGradient>
    <linearGradient
       id="_lgradient_13"
       x1="5.6489534e-07"
       y1="0.99999219"
       x2="0.99999893"
       y2="0.49999666"
       gradientTransform="matrix(187.08632,0,0,187.03803,2.4568959,2.4816161)"
       gradientUnits="userSpaceOnUse">
      <stop
         offset="0"
         stop-opacity="1"
         style="stop-color:#f069ff;stop-opacity:1;"
         id="stop1" />
      <stop
         offset="1"
         stop-opacity="1"
         style="stop-color:#9033dd;stop-opacity:1;"
         id="stop2" />
    </linearGradient>
    <linearGradient
       inkscape:collect="always"
       xlink:href="#linearGradient44"
       id="linearGradient38"
       gradientUnits="userSpaceOnUse"
       gradientTransform="matrix(0.35256211,0.7560719,0.7560719,-0.35256211,5.5066874,79.19379)"
       x1="108.51758"
       y1="-32.287659"
       x2="102.92874"
       y2="173.06473" />
    <linearGradient
       inkscape:collect="always"
       xlink:href="#linearGradient46"
       id="linearGradient39"
       gradientUnits="userSpaceOnUse"
       gradientTransform="matrix(0.35256211,0.7560719,0.7560719,-0.35256211,5.5066874,79.19379)"
       x1="108.51758"
       y1="-32.287659"
       x2="102.92874"
       y2="173.06473" />
  </defs>
  <path
     id="path38"
     style="display:inline;fill:url(#linearGradient38);stroke:url(#linearGradient39);stroke-width:1.66847;stroke-dasharray:none"
     d="m 89.305929,53.089005 c -0.250884,-8.05e-4 -0.502024,0.01322 -0.752763,0.04073 -0.0022,2.42e-4 -0.0043,0.0015 -0.0066,0.0017 -2.45078,0.206407 -4.646514,1.982908 -5.354081,4.345508 -2.702202,8.003781 -5.366195,16.030693 -8.027863,24.05589 -2.00104,6.033443 -5.380803,16.045979 -7.3973,22.064817 l 0.06029,0.66642 c -2.521215,0.0202 -5.041734,0.0527 -7.561865,0.0733 -4.886414,-0.0206 -9.7726,-0.043 -14.654476,0.01 -2.54078,-0.0557 -5.079213,1.52064 -5.971609,3.77034 -0.237007,0.6313 -0.323215,1.26355 -0.30795,1.88191 -0.0548,1.45153 0.513608,2.84653 1.455021,3.9186 1.123284,1.27915 2.81795,2.16245 4.703966,2.14261 0.125734,-0.002 0.25232,-0.008 0.379642,-0.0163 8.734268,-0.0365 17.474551,-0.0868 26.214792,-0.14174 l 0.0017,-0.0106 c 0.888499,0.022 1.77316,-0.14035 2.584165,-0.47414 1.843046,-0.75938 3.402529,-2.37223 3.83226,-4.50192 1.127306,-3.39069 2.25417,-6.78215 3.382552,-10.17376 2.757774,-8.289632 5.503328,-16.582863 8.252716,-24.875453 0.966,2.065052 1.484869,3.162309 2.22082,4.754477 2.491176,5.389524 7.522749,16.138818 7.522749,16.138818 l 5.520295,11.832438 c 0,0 3.42478,7.31128 5.12598,10.99167 2.51954,5.45077 5.04539,10.91454 7.6971,16.28058 l 0.004,0.0106 0.008,0.01 h -0.002 c 1.09989,2.10587 3.32163,3.06808 5.43718,3.02411 0.79066,-0.0166 1.59086,-0.17511 2.3365,-0.47741 1.24272,-0.50379 2.33464,-1.40761 2.97847,-2.73243 4.44258,-8.1739 12.70806,-23.59727 13.23692,-24.58381 l 0.50998,-0.99881 c 0,0 5.89382,-10.997938 8.85395,-16.482619 1.50222,-2.32929 1.51129,-5.599363 -0.44481,-7.78672 -1.53845,-1.830573 -3.84846,-2.346189 -5.90806,-1.903094 -2.03782,0.438463 -3.9387,1.835582 -4.73004,3.974012 -2.60111,4.8799 -7.84701,14.631691 -7.84701,14.631691 l -0.89776,1.67008 -0.57029,1.06234 2.17845,-4.00173 -7.34351,13.7111 c 0,0 -1.38231,2.57157 -2.06603,3.85996 -1.13357,-2.42779 -3.39071,-7.29466 -3.39071,-7.29466 l -7.47582,-16.032018 -0.68923,-1.476206 -6.60543,-14.164035 c 0,0 -2.26958,-4.857827 -3.39885,-7.291391 C 99.918975,67.247 97.434855,61.894756 94.883138,56.580497 93.986223,54.51493 92.053019,53.367978 90.05697,53.136029 c -0.247514,-0.02865 -0.498621,-0.04481 -0.749508,-0.04562 z m 52.916781,58.024815 -0.0455,0.0897 0.466,-0.87007 c 0,0 -0.40359,0.74915 -0.42037,0.78047 z" />
</svg>
