<?xml version="1.0" encoding="UTF-8" standalone="no"?>
<svg
   width="192"
   height="192"
   viewBox="0 0 192 192"
   fill="none"
   version="1.1"
   id="svg4"
   sodipodi:docname="wayland.svg"
   inkscape:version="1.3.2 (091e20ef0f, 2023-11-25, custom)"
   xmlns:inkscape="http://www.inkscape.org/namespaces/inkscape"
   xmlns:sodipodi="http://sodipodi.sourceforge.net/DTD/sodipodi-0.dtd"
   xmlns:xlink="http://www.w3.org/1999/xlink"
   xmlns="http://www.w3.org/2000/svg"
   xmlns:svg="http://www.w3.org/2000/svg">
  <sodipodi:namedview
     id="namedview4"
     pagecolor="#505050"
     bordercolor="#ffffff"
     borderopacity="1"
     inkscape:showpageshadow="0"
     inkscape:pageopacity="0"
     inkscape:pagecheckerboard="1"
     inkscape:deskcolor="#505050"
     inkscape:zoom="3.1193721"
     inkscape:cx="87.036747"
     inkscape:cy="128.39122"
     inkscape:current-layer="svg4" />
  <g
     clip-path="url(#clip0_640_160)"
     id="g1"
     transform="translate(0.00289311,0.05692937)"
     style="fill:url(#linearGradient8)">
    <path
       id="path1"
       style="fill:url(#linearGradient1);fill-opacity:1;stroke:#000000;stroke-width:0;stroke-dasharray:none;stroke-opacity:1"
       d="m 137.51367,30.007812 c -5.14293,0.03189 -10.28814,-0.02213 -15.42969,0.0625 -4.05679,0.339493 -7.54238,3.364629 -8.95222,7.107827 C 108.07463,47.738986 102.6814,58.135113 97.708984,68.736328 92.549262,57.600151 87.196441,46.555361 81.905639,35.480876 c -1.817342,-3.467214 -5.715884,-5.730637 -9.640014,-5.455768 -20.860641,-0.01215 -41.723457,-0.03075 -62.5827449,0.011 -5.2376234,0.267208 -9.56569377,5.673341 -8.5324895,10.846705 0.3241826,1.792331 1.4876234,3.24495 2.1838555,4.89359 18.1366429,36.660383 36.2682629,73.324357 54.4120689,109.980507 1.755888,3.24854 5.009769,6.04003 8.847819,6.11341 1.105014,0.0519 2.085762,-0.62993 3.067975,-1.06563 2.293139,-1.18983 4.23837,-3.10755 5.201505,-5.53052 7.579023,-15.33765 15.066254,-30.72304 22.638339,-46.05347 7.406857,15.89299 15.028427,31.68816 22.589847,47.50782 1.49742,2.57455 4.23642,4.14132 6.9359,5.15367 4.08512,0.0904 7.72906,-2.7491 9.52607,-6.27565 7.78732,-16.34155 15.87771,-32.53864 23.5849,-48.91904 1.71766,-3.69094 -0.0242,-8.274011 -3.28603,-10.491468 -1.69315,-1.230161 -3.85839,-1.673341 -5.91319,-1.391343 -2.85169,0.06707 -5.1647,2.158665 -6.68359,4.396484 -5.64984,11.002327 -10.64976,22.324397 -16.32813,33.312497 -6.45522,-14.70103 -13.74194,-29.01616 -20.57812,-43.541013 6.85622,-13.700517 13.67506,-27.419422 20.24414,-41.259765 13.33063,0.05823 26.66167,0.08826 39.99219,-0.0078 -2.26487,4.374614 -4.53885,8.745173 -6.80264,13.120094 -1.28057,2.518702 -2.24047,5.53659 -1.15439,8.299828 1.45212,4.746308 7.52015,7.42079 11.95362,5.097766 1.72734,-0.81769 3.19061,-2.145112 4.12527,-3.818248 2.37814,-4.222688 4.47248,-8.59973 6.73861,-12.88342 2.64397,-5.146095 5.35263,-10.262091 7.96219,-15.424347 1.38661,-3.131007 0.19206,-6.877739 -2.20321,-9.168958 -1.95711,-1.982551 -4.75918,-3.102544 -7.54953,-2.902925 -14.38073,-0.01092 -28.76145,-0.03389 -43.14219,-0.01706 z M 68.78125,49.199219 c 6.362146,12.857725 12.25211,25.95918 18.642512,38.84658 0.414122,0.564394 0.503388,1.12602 0.02513,1.682811 -7.364689,14.22658 -13.981341,28.82606 -21.359043,43.04678 -13.997315,-28.3968 -28.057838,-56.762549 -42.109375,-85.132812 14.67276,0.236286 29.348387,0.157913 44.021484,-0.0059 0.259766,0.520833 0.519531,1.041666 0.779297,1.5625 z" />
  </g>
  <defs
     id="defs4">
    <linearGradient
       id="linearGradient7"
       inkscape:collect="always">
      <stop
         style="stop-color:#00f1fa;stop-opacity:1;"
         offset="0"
         id="stop7" />
      <stop
         style="stop-color:#006cff;stop-opacity:1;"
         offset="1"
         id="stop8" />
    </linearGradient>
    <linearGradient
       id="paint0_linear_640_160"
       x1="30.2392"
       y1="141.148"
       x2="114.664"
       y2="18.348"
       gradientUnits="userSpaceOnUse">
      <stop
         stop-color="#0072FF"
         id="stop1" />
      <stop
         offset="1"
         stop-color="#00E5A1"
         id="stop2" />
    </linearGradient>
    <linearGradient
       id="paint1_linear_640_160"
       x1="30.2392"
       y1="141.148"
       x2="114.664"
       y2="18.348"
       gradientUnits="userSpaceOnUse">
      <stop
         stop-color="#0072FF"
         id="stop3" />
      <stop
         offset="1"
         stop-color="#00E5A1"
         id="stop4" />
    </linearGradient>
    <clipPath
       id="clip0_640_160">
      <rect
         width="192"
         height="192"
         fill="white"
         id="rect4" />
    </clipPath>
    <linearGradient
       inkscape:collect="always"
       xlink:href="#linearGradient7"
       id="linearGradient8"
       x1="49.724567"
       y1="161.88429"
       x2="167.58594"
       y2="47.705093"
       gradientUnits="userSpaceOnUse" />
    <linearGradient
       inkscape:collect="always"
       xlink:href="#linearGradient7"
       id="linearGradient1"
       gradientUnits="userSpaceOnUse"
       x1="31.131083"
       y1="161.88429"
       x2="167.58594"
       y2="47.705093" />
  </defs>
</svg>
