<?xml version="1.0" encoding="UTF-8" standalone="no"?>
<svg
   width="64"
   height="64"
   viewBox="0 0 64 64"
   fill="none"
   version="1.1"
   id="svg2"
   sodipodi:docname="application-menu.svg"
   inkscape:version="1.3.2 (091e20ef0f, 2023-11-25, custom)"
   xmlns:inkscape="http://www.inkscape.org/namespaces/inkscape"
   xmlns:sodipodi="http://sodipodi.sourceforge.net/DTD/sodipodi-0.dtd"
   xmlns="http://www.w3.org/2000/svg"
   xmlns:svg="http://www.w3.org/2000/svg">
  <sodipodi:namedview
     id="namedview2"
     pagecolor="#ffffff"
     bordercolor="#666666"
     borderopacity="1.0"
     inkscape:showpageshadow="2"
     inkscape:pageopacity="0.0"
     inkscape:pagecheckerboard="0"
     inkscape:deskcolor="#d1d1d1"
     inkscape:zoom="11.703125"
     inkscape:cx="20.635514"
     inkscape:cy="34.734312"
     inkscape:current-layer="svg2" />
  <path
     d="M 9.05,19.85 C 6.8132,19.85 5,18.0368 5,15.8 v 0 c 0,-2.2368 1.8132,-4.05 4.05,-4.05 h 45.9 c 2.23675,0 4.05,1.8132 4.05,4.05 v 0 c 0,2.2368 -1.81325,4.05 -4.05,4.05 z m 0,16.2 C 6.8132,36.05 5,34.2368 5,32 v 0 c 0,-2.2368 1.8132,-4.05 4.05,-4.05 h 45.9 c 2.23675,0 4.05,1.8132 4.05,4.05 v 0 c 0,2.2368 -1.81325,4.05 -4.05,4.05 z m 0,16.2 C 6.8132,52.25 5,50.4368 5,48.2 v 0 c 0,-2.2368 1.8132,-4.05 4.05,-4.05 h 45.9 c 2.23675,0 4.05,1.8132 4.05,4.05 v 0 c 0,2.2368 -1.81325,4.05 -4.05,4.05 z"
     fill="url(#paint0_linear)"
     id="path1"
     style="display:inline;fill:url(#paint0_linear)" />
  <defs
     id="defs2">
    <linearGradient
       id="paint0_linear"
       x1="9.0500002"
       y1="28.200001"
       x2="45.209011"
       y2="58.622879"
       gradientUnits="userSpaceOnUse"
       gradientTransform="matrix(-1,0,0,1,64,-0.25)">
      <stop
         id="stop1"
         offset="0"
         style="stop-color:#6444ff;stop-opacity:1;" />
      <stop
         offset="1"
         id="stop2"
         style="stop-color:#b900ff;stop-opacity:1;" />
    </linearGradient>
    <linearGradient
       id="paint0_linear-3"
       x1="31.543919"
       y1="58.242424"
       x2="54.950001"
       y2="28.200001"
       gradientUnits="userSpaceOnUse"
       gradientTransform="matrix(1,0,0,1.0153198,-1e-7,-0.7440658)">
      <stop
         offset="0"
         id="stop6"
         style="stop-color:#b900ff;stop-opacity:1;" />
      <stop
         id="stop4"
         offset="1"
         style="stop-color:#6444ff;stop-opacity:1;" />
    </linearGradient>
  </defs>
</svg>
