<?xml version="1.0" encoding="UTF-8" standalone="no"?>
<svg
   width="24"
   height="24"
   viewBox="0 0 24 24"
   fill="none"
   version="1.1"
   id="svg18"
   sodipodi:docname="audio-volume-muted.svg"
   inkscape:version="1.3.2 (091e20ef0f, 2023-11-25, custom)"
   xmlns:inkscape="http://www.inkscape.org/namespaces/inkscape"
   xmlns:sodipodi="http://sodipodi.sourceforge.net/DTD/sodipodi-0.dtd"
   xmlns:xlink="http://www.w3.org/1999/xlink"
   xmlns="http://www.w3.org/2000/svg"
   xmlns:svg="http://www.w3.org/2000/svg">
  <sodipodi:namedview
     id="namedview20"
     pagecolor="#4a4a4a"
     bordercolor="#666666"
     borderopacity="1.0"
     inkscape:showpageshadow="2"
     inkscape:pageopacity="0.0"
     inkscape:pagecheckerboard="0"
     inkscape:deskcolor="#d1d1d1"
     showgrid="false"
     inkscape:zoom="32"
     inkscape:cx="10.765625"
     inkscape:cy="11.296875"
     inkscape:current-layer="svg18" />
  <defs
     id="defs16">
    <linearGradient
       id="linearGradient9689"
       x1="7.4274006"
       y1="21.325018"
       x2="20.555401"
       y2="5.5247698"
       gradientUnits="userSpaceOnUse"
       gradientTransform="translate(0.30000015,-0.06250654)">
      <stop
         id="stop6"
         offset="0"
         style="stop-color:#b900ff;stop-opacity:1;" />
      <stop
         offset="1"
         id="stop8"
         style="stop-color:#6444ff;stop-opacity:1;" />
    </linearGradient>
    <linearGradient
       id="linearGradient1135"
       x1="17.296173"
       y1="2.7374878"
       x2="12.8548"
       y2="5.393187"
       gradientUnits="userSpaceOnUse"
       gradientTransform="translate(0.30000015)">
      <stop
         id="stop11"
         offset="0"
         style="stop-color:#000000;stop-opacity:0;" />
      <stop
         offset="1"
         id="stop13"
         style="stop-color:#000000;stop-opacity:0" />
    </linearGradient>
    <linearGradient
       inkscape:collect="always"
       xlink:href="#paint0_linear"
       id="linearGradient2-3"
       x1="36.66954"
       y1="113.0001"
       x2="92.531792"
       y2="43.477272"
       gradientUnits="userSpaceOnUse"
       gradientTransform="matrix(0.18903084,0,0,0.18903084,-0.19843183,-0.09800628)" />
    <linearGradient
       id="paint0_linear"
       x1="28.999437"
       y1="113.15477"
       x2="92.128899"
       y2="28.7416"
       gradientUnits="userSpaceOnUse">
      <stop
         id="stop1661"
         offset="0"
         style="stop-color:#b900ff;stop-opacity:1;" />
      <stop
         offset="1"
         id="stop1663"
         style="stop-color:#6444ff;stop-opacity:1;" />
    </linearGradient>
    <linearGradient
       inkscape:collect="always"
       xlink:href="#linearGradient9689"
       id="linearGradient3"
       gradientUnits="userSpaceOnUse"
       gradientTransform="matrix(0,-0.01124999,-0.01124941,0,24.155277,17.476501)"
       x1="-336.53326"
       y1="1499.7708"
       x2="825.12537"
       y2="202.56378" />
  </defs>
  <path
     fill-rule="evenodd"
     clip-rule="evenodd"
     d="m 12.415577,2.9075837 c -0.261562,-0.132 -0.554597,-0.188974 -0.846574,-0.16457 -0.291996,0.02439 -0.571497,0.129202 -0.80754,0.302808 -0.0158,0.01163 -0.0313,0.02367 -0.04648,0.0361 L 5.6206174,7.2528687 H 1.7654281 c -0.4205728,0 -0.82393063,0.167065 -1.12132723,0.464467 -0.2973961,0.297408 -0.464471,0.700762 -0.464471,1.121336 v 6.3226663 c 0,0.420593 0.1670749,0.823947 0.4644714,1.121331 0.2973966,0.297402 0.70075443,0.464486 1.12132723,0.464486 h 3.8551893 l 5.0943622,4.170909 c 0.01518,0.01248 0.03068,0.02438 0.04648,0.0361 0.236043,0.17353 0.515544,0.278442 0.80754,0.302827 0.291977,0.02438 0.585013,-0.03251 0.846575,-0.164646 0.261561,-0.131943 0.481461,-0.333828 0.635257,-0.583349 0.153795,-0.249331 0.235494,-0.536469 0.236023,-0.829467 v -0.0021 -15.3549753 -0.0021 c -5.26e-4,-0.292997 -0.08223,-0.580135 -0.23602,-0.829505 -0.153796,-0.249407 -0.373677,-0.451311 -0.635258,-0.58333 z M 6.9935677,9.0604427 11.018488,5.7650877 V 18.234922 l -4.0302132,-3.299684 -0.00558,-0.0045 C 6.6179598,14.635964 6.1626035,14.476346 5.6937692,14.478822 H 2.4479999 V 9.5212807 H 5.71381 c 0.4676434,0.0022 0.9209772,-0.160998 1.2797577,-0.460801 z"
     id="path1"
     style="fill:url(#linearGradient2-3);stroke:none;stroke-width:0.189031;stroke-opacity:1"
     sodipodi:nodetypes="ccsccsssscscccsccsccccccccccccccc" />
  <path
     id="path3"
     style="fill:url(#linearGradient3);fill-opacity:1;fill-rule:evenodd;stroke:none;stroke-width:0.0188807"
     d="m 16.095646,7.5996093 c -0.169949,0 -0.339801,0.064447 -0.46875,0.1933594 l -0.01367,0.011719 -0.386719,0.3886719 -0.01172,0.011719 c -0.2579,0.2579299 -0.2579,0.681626 0,0.9394531 L 15.613224,9.5429687 18.070255,12 15.613224,14.457031 c -0.0071,0.0071 -0.01286,0.01419 -0.01953,0.02149 l -0.378906,0.378906 c -0.257899,0.257929 -0.257899,0.679622 0,0.9375 l 0.01172,0.01172 0.386719,0.386718 0.01367,0.01367 c 0.145069,0.145028 0.34272,0.207582 0.533203,0.189453 0.148153,-0.0141 0.291463,-0.07665 0.404297,-0.189453 l 0.398437,-0.398437 0.002,-0.002 2.455078,-2.457032 2.457032,2.457032 0.40039,0.40039 c 0.128923,0.12899 0.298777,0.19336 0.46875,0.19336 0.02125,0 0.04133,-0.0019 0.0625,-0.0039 0.148165,-0.01411 0.293444,-0.07659 0.40625,-0.189453 l 0.01172,-0.01367 0.388672,-0.386718 0.01172,-0.01172 c 0.257899,-0.257928 0.257899,-0.679572 0,-0.9375 L 23.27338,14.505859 c -0.0141,-0.01732 -0.03076,-0.03271 -0.04687,-0.04883 L 20.769474,12 23.226505,9.5429687 c 0.01612,-0.016117 0.03277,-0.031509 0.04687,-0.048828 l 0.353516,-0.3515625 c 0.2579,-0.2578776 0.2579,-0.6795214 0,-0.9375 l -0.01172,-0.011719 -0.388672,-0.3886719 -0.01172,-0.011719 c -0.257844,-0.2579298 -0.679655,-0.2578289 -0.9375,0 l -2.855468,2.8554697 -2.457032,-2.4550791 -0.002,-0.00195 -0.398437,-0.3984374 C 16.435481,7.6640562 16.265595,7.5996093 16.095646,7.5996093 Z"
     sodipodi:nodetypes="scccsccccccsccssccccccsscccscccccccsccscccccs" />
</svg>
