<?xml version="1.0" encoding="UTF-8" standalone="no"?>
<svg
   width="16"
   height="16"
   viewBox="0 0 16 16"
   fill="none"
   version="1.1"
   id="svg14133"
   sodipodi:docname="bookmark-new.svg"
   inkscape:version="1.2.2 (b0a8486541, 2022-12-01)"
   xmlns:inkscape="http://www.inkscape.org/namespaces/inkscape"
   xmlns:sodipodi="http://sodipodi.sourceforge.net/DTD/sodipodi-0.dtd"
   xmlns="http://www.w3.org/2000/svg"
   xmlns:svg="http://www.w3.org/2000/svg">
  <sodipodi:namedview
     id="namedview14135"
     pagecolor="#ffffff"
     bordercolor="#666666"
     borderopacity="1.0"
     inkscape:showpageshadow="2"
     inkscape:pageopacity="0.0"
     inkscape:pagecheckerboard="0"
     inkscape:deskcolor="#d1d1d1"
     showgrid="false"
     inkscape:zoom="29.5"
     inkscape:cx="7.3389831"
     inkscape:cy="8.2711864"
     inkscape:current-layer="svg14133" />
  <path
     d="M3.5 1C3.22386 1 3 1.22386 3 1.5V14.2625C3 14.616 3.35675 14.8578 3.68509 14.727L7.48157 13.2141C7.60042 13.1667 7.73291 13.1667 7.85176 13.2141L11.6482 14.727C11.9766 14.8578 12.3333 14.616 12.3333 14.2625V1.5C12.3333 1.22386 12.1095 1 11.8333 1H4.16667H3.5ZM4.16667 2.66667C4.16667 2.39052 4.39052 2.16667 4.66667 2.16667H10.6667C10.9428 2.16667 11.1667 2.39052 11.1667 2.66667V12.6239C11.1667 12.9769 10.8108 13.2187 10.4826 13.0888L7.85076 12.0466C7.7325 11.9997 7.60084 11.9997 7.48258 12.0466L4.85076 13.0888C4.52256 13.2187 4.16667 12.9769 4.16667 12.6239V10.3333V2.66667Z"
     fill="url(#paint0_linear)"
     id="path14124"
     style="fill:url(#paint0_linear)" />
  <defs
     id="defs14131">
    <linearGradient
       id="paint0_linear"
       x1="7.6666498"
       y1="14.762998"
       x2="7.6666498"
       y2="1"
       gradientUnits="userSpaceOnUse">
      <stop
         stop-color="#b900ff"
         id="stop14126"
         offset="0"
         style="stop-color:#b900ff;stop-opacity:1;" />
      <stop
         offset="1"
         stop-color="#6033ff"
         id="stop14128"
         style="stop-color:#6033ff;stop-opacity:1;" />
    </linearGradient>
  </defs>
</svg>
