<?xml version="1.0" encoding="UTF-8" standalone="no"?>
<svg
   width="32"
   height="32"
   viewBox="0 0 32 32"
   fill="none"
   version="1.1"
   id="svg2"
   sodipodi:docname="document-equal copy 7.svg"
   inkscape:version="1.4 (e7c3feb100, 2024-10-09)"
   xmlns:inkscape="http://www.inkscape.org/namespaces/inkscape"
   xmlns:sodipodi="http://sodipodi.sourceforge.net/DTD/sodipodi-0.dtd"
   xmlns:xlink="http://www.w3.org/1999/xlink"
   xmlns="http://www.w3.org/2000/svg"
   xmlns:svg="http://www.w3.org/2000/svg">
  <sodipodi:namedview
     id="namedview2"
     pagecolor="#505050"
     bordercolor="#ffffff"
     borderopacity="1"
     inkscape:showpageshadow="0"
     inkscape:pageopacity="0"
     inkscape:pagecheckerboard="1"
     inkscape:deskcolor="#505050"
     inkscape:zoom="22.627417"
     inkscape:cx="12.860505"
     inkscape:cy="15.600543"
     inkscape:current-layer="svg2" />
  <defs
     id="defs2">
    <linearGradient
       id="linearGradient4"
       x1="8"
       y1="15"
       x2="8"
       y2="1"
       gradientUnits="userSpaceOnUse">
      <stop
         stop-color="#5570FF"
         id="stop3"
         offset="0"
         style="stop-color:#e5f230;stop-opacity:1;" />
      <stop
         offset="1"
         stop-color="#4DD3FF"
         id="stop4"
         style="stop-color:#24d864;stop-opacity:1;" />
    </linearGradient>
    <linearGradient
       id="paint0_linear"
       x1="2.5426357"
       y1="15"
       x2="15"
       y2="8"
       gradientUnits="userSpaceOnUse">
      <stop
         stop-color="#5570FF"
         id="stop1"
         offset="0"
         style="stop-color:#e5f230;stop-opacity:1;" />
      <stop
         offset="1"
         stop-color="#4DD3FF"
         id="stop2"
         style="stop-color:#24d864;stop-opacity:1;" />
    </linearGradient>
    <linearGradient
       id="linearGradient5"
       inkscape:collect="always">
      <stop
         style="stop-color:#e5f230;stop-opacity:1;"
         offset="0"
         id="stop5" />
      <stop
         style="stop-color:#24d864;stop-opacity:1;"
         offset="1"
         id="stop11" />
    </linearGradient>
    <linearGradient
       id="_lgradient_2"
       x1="0.12643236"
       y1="1"
       x2="0.99997437"
       y2="0.5"
       gradientTransform="matrix(48.18498,0,0,54.349998,7.9081263,4.8249998)"
       gradientUnits="userSpaceOnUse"
       spreadMethod="pad">
      <stop
         offset="0"
         stop-opacity="1"
         style="stop-color:#e5f230;stop-opacity:1;"
         id="stop1-3" />
      <stop
         offset="1"
         stop-opacity="1"
         style="stop-color:#24d864;stop-opacity:1;"
         id="stop3-6" />
    </linearGradient>
    <linearGradient
       inkscape:collect="always"
       xlink:href="#linearGradient5"
       id="linearGradient38"
       gradientUnits="userSpaceOnUse"
       gradientTransform="matrix(0,-0.55056594,0.55059961,0,3.5690683,35.53198)"
       x1="8.2308044"
       y1="22.57708"
       x2="35.476185"
       y2="49.82011" />
  </defs>
  <path
     id="path18"
     style="fill:url(#linearGradient38);stroke-width:1"
     d="m 15.997557,0.99962024 c -0.205936,-6e-6 -0.410669,0.078626 -0.566435,0.23438686 l -2.844383,2.8443832 c -0.311624,0.3115145 -0.31153,0.8237816 0,1.1353119 l 0.109868,0.1074267 c 0.311533,0.3116463 0.823778,0.3116463 1.135311,0 L 14.55217,4.6008775 c 0.111431,-0.1114095 0.249183,-0.1218037 0.368671,-0.073246 0.119481,0.048559 0.204454,0.1426379 0.200205,0.3027498 v 0.00244 L 15.055127,13.717553 7.7012364,6.4564413 C 7.5943274,6.3407356 7.5828894,6.2021838 7.6304324,6.0853286 7.6782764,5.9677314 7.7711694,5.8851404 7.9307404,5.885123 h 1.018118 c 0.440655,7.9e-5 0.803342,-0.3626091 0.803264,-0.8032635 V 4.928043 c 0,-0.4405701 -0.362638,-0.8033426 -0.803264,-0.8032636 H 4.9276575 C 4.4870918,4.1247865 4.12448,4.4874667 4.1243939,4.928043 v 4.0212011 c -1.7e-6,0.440637 0.3627485,0.803186 0.8032636,0.803263 H 5.081474 c 0.4406439,1.57e-4 0.8033444,-0.362609 0.8032635,-0.803263 v -1.018118 c 3.45e-5,-0.158691 0.084432,-0.256327 0.2026471,-0.305192 0.1182148,-0.04887 0.2530326,-0.04096 0.3662295,0.07081 L 14.03945,15.187359 4.8373209,15.121439 c -0.1591587,-0.0011 -0.2586029,-0.08943 -0.3076328,-0.20753 -0.04903,-0.118094 -0.041411,-0.249082 0.070805,-0.361346 l 0.7202513,-0.720258 c 0.3116469,-0.311532 0.3116934,-0.823839 0,-1.135311 L 5.2133177,12.587126 c -0.3115459,-0.311438 -0.8237351,-0.311579 -1.1353119,0 l -2.8443842,2.846823 c -0.31147354,0.311595 -0.31152134,0.82378 0,1.135312 l 2.8443832,2.844384 c 0.3115144,0.311624 0.8237816,0.311529 1.1353119,0 l 0.1074267,-0.109868 c 0.3116466,-0.311534 0.3116466,-0.823779 0,-1.135312 L 4.6004925,17.448212 C 4.3816156,17.229288 4.5644231,16.878578 4.8373209,16.879336 l 9.0678451,0.06592 -7.4515519,7.358774 C 6.3404171,24.415786 6.2055996,24.423699 6.0873846,24.37483 5.9691698,24.325964 5.884772,24.228328 5.8847375,24.069637 V 23.051525 C 5.8848184,22.610871 5.5221179,22.248105 5.081474,22.248262 H 4.9276575 c -0.4405151,7.7e-5 -0.8032653,0.362626 -0.8032636,0.803263 v 4.021201 c 8.61e-5,0.440576 0.3626979,0.803256 0.8032636,0.803264 h 4.0212009 c 0.440626,7.8e-5 0.803264,-0.362694 0.803264,-0.803264 V 26.91891 c 7.8e-5,-0.440655 -0.362609,-0.803343 -0.803264,-0.803264 h -1.018118 c -0.145177,-1.6e-5 -0.219246,-0.08298 -0.266127,-0.22218 -0.04688,-0.139202 -0.012,-0.298946 0.03418,-0.346696 l 7.3563316,-7.263554 0.06592,8.872522 c -0.0045,0.130433 -0.09554,0.245782 -0.217296,0.300308 -0.121756,0.05453 -0.241976,0.05342 -0.351581,-0.05615 l -0.720251,-0.720252 c -0.311537,-0.311629 -0.823775,-0.311629 -1.135312,0 l -0.109868,0.107431 c -0.311518,0.311517 -0.311626,0.823813 0,1.135311 l 2.844384,2.844384 c 0.311534,0.311503 0.823713,0.311456 1.135311,0 l 2.846825,-2.844384 c 0.311583,-0.311561 0.31144,-0.823782 0,-1.135311 l -0.10987,-0.107434 c -0.311474,-0.311677 -0.823775,-0.311631 -1.135311,0 l -0.720252,0.720252 c -0.112268,0.112206 -0.24325,0.119831 -0.361346,0.0708 -0.118093,-0.04903 -0.20639,-0.148496 -0.207531,-0.307631 l -0.06348,-9.00925 7.473525,7.380748 c 0.07397,0.09003 0.09654,0.251518 0.05128,0.378438 -0.04555,0.127724 -0.116931,0.202629 -0.27101,0.202646 h -1.018118 c -0.440653,-7.8e-5 -0.803342,0.362608 -0.803263,0.803264 v 0.153816 c 0,0.44057 0.362637,0.803343 0.803263,0.803264 h 4.021201 c 0.440567,-8e-6 0.803178,-0.362687 0.803264,-0.803264 v -4.021201 c 4e-6,-0.440638 -0.36275,-0.803186 -0.803264,-0.803263 h -0.153816 c -0.440644,-1.56e-4 -0.803346,0.362608 -0.803264,0.803263 v 1.018118 c -3.5e-5,0.158691 -0.08443,0.256327 -0.202646,0.305192 -0.118219,0.04886 -0.253034,0.04095 -0.36623,-0.0708 l -7.451552,-7.358774 9.055637,-0.06592 c 0.138365,0.0081 0.254136,0.102568 0.307634,0.222179 0.0535,0.119618 0.05238,0.235703 -0.05859,0.346698 l -0.720252,0.720251 c -0.311647,0.311534 -0.311647,0.823778 0,1.135312 l 0.107431,0.109868 c 0.311531,0.31153 0.823798,0.311625 1.135311,0 l 2.84437,-2.84439 c 0.311521,-0.311532 0.311474,-0.823717 0,-1.135312 L 27.921994,12.58712 c -0.311575,-0.311578 -0.823765,-0.311437 -1.135311,0 l -0.107431,0.109868 c -0.311693,0.311473 -0.311647,0.82378 0,1.135312 l 0.720252,0.720252 c 0.112218,0.112268 0.119831,0.243252 0.0708,0.361346 -0.04903,0.118093 -0.148474,0.20639 -0.307632,0.20753 l -9.20213,0.06592 7.585836,-7.4906159 c 0.113193,-0.111755 0.248042,-0.119662 0.36623,-0.0708 0.118194,0.04886 0.202613,0.146488 0.202647,0.305191 v 1.018118 c -8.2e-5,0.440642 0.362637,0.80342 0.803263,0.803264 h 0.153817 c 0.44056,-7e-5 0.803268,-0.362631 0.803267,-0.803257 V 4.928043 C 27.875523,4.4874771 27.512888,4.1247865 27.07234,4.1247794 h -4.021201 c -0.440608,-7.9e-5 -0.803263,0.3627054 -0.803263,0.8032636 v 0.1538165 c -7.9e-5,0.4406425 0.362627,0.8033427 0.803263,0.8032635 h 1.018118 c 0.161177,1.75e-5 0.24247,0.075893 0.288101,0.192881 0.04535,0.1162784 0.03111,0.2666404 -0.06837,0.3882034 l -7.473524,7.3807476 0.06348,-9.0092486 c 0.0011,-0.159159 0.08944,-0.2586029 0.207531,-0.3076328 0.118093,-0.04903 0.249081,-0.041411 0.361345,0.070805 L 18.168072,5.32113 c 0.311532,0.3116469 0.82384,0.3116934 1.135312,0 l 0.109868,-0.1074267 c 0.311445,-0.3115446 0.311578,-0.823735 0,-1.1353119 L 16.566434,1.2340071 C 16.410637,1.0782703 16.203494,0.99962624 15.997557,0.99962024 Z" />
</svg>
