<?xml version="1.0" encoding="UTF-8" standalone="no"?>
<svg
   id="Capa_1"
   enable-background="new 0 0 512 512"
   height="512"
   viewBox="0 0 512 512"
   width="512"
   version="1.1"
   sodipodi:docname="document-encrypted.svg"
   inkscape:version="1.4 (e7c3feb100, 2024-10-09)"
   xmlns:inkscape="http://www.inkscape.org/namespaces/inkscape"
   xmlns:sodipodi="http://sodipodi.sourceforge.net/DTD/sodipodi-0.dtd"
   xmlns="http://www.w3.org/2000/svg"
   xmlns:svg="http://www.w3.org/2000/svg">
  <defs
     id="defs3" />
  <sodipodi:namedview
     id="namedview3"
     pagecolor="#ffffff"
     bordercolor="#666666"
     borderopacity="1.0"
     inkscape:showpageshadow="2"
     inkscape:pageopacity="0.0"
     inkscape:pagecheckerboard="0"
     inkscape:deskcolor="#d1d1d1"
     inkscape:zoom="0.73437501"
     inkscape:cx="229.44681"
     inkscape:cy="341.10638"
     inkscape:current-layer="g2" />
  <linearGradient
     id="SVGID_1_"
     gradientUnits="userSpaceOnUse"
     x1="91"
     x2="421"
     y1="512"
     y2="256"
     gradientTransform="matrix(34.133328,0,0,34.133328,-17.066578,-17.066778)">
    <stop
       offset="0"
       id="stop1"
       style="stop-color:#00f1fa;stop-opacity:1;" />
    <stop
       offset="1"
       id="stop2"
       style="stop-color:#006cff;stop-opacity:1;" />
  </linearGradient>
  <g
     id="g3"
     transform="matrix(0.02929688,0,0,0.02929688,0.49999872,0.49999872)">
    <g
       id="g2">
      <rect
         style="fill:#000000;fill-opacity:0;stroke-width:356.079;stroke-linejoin:round"
         id="rect1"
         width="17476.264"
         height="17476.264"
         x="-17.06662"
         y="-17.06662" />
      <path
         id="path2"
         style="fill:url(#SVGID_1_);stroke-width:34.1333"
         d="m 8611.0312,-152.31836 c -17.6277,0.3897 -35.2527,0.9009 -52.8746,1.49613 -13.4242,0.4642 -26.8473,0.9531 -40.2668,1.53694 -23.1233,0.96217 -46.2366,2.14239 -69.3436,3.43481 -18.1554,1.04658 -36.3065,2.16988 -54.4492,3.41758 -14.4936,0.98418 -28.9815,2.05377 -43.4654,3.17043 -16.7333,1.30746 -33.4606,2.68929 -50.1804,4.1609 -13.9043,1.23989 -27.8059,2.51508 -41.6996,3.86925 -21.8187,2.1257 -43.6244,4.38593 -65.4111,6.81795 -17.7659,1.96176 -35.5166,4.05951 -53.2599,6.21629 -16.822,2.06969 -33.633,4.2282 -50.4343,6.46051 -18.4616,2.48243 -36.9128,5.04373 -55.3456,7.73133 -14.0011,2.044 -27.9944,4.144145 -41.978,6.305109 -15.9672,2.474334 -31.9211,5.032989 -47.8636,7.661943 -17.6508,2.932537 -35.2903,5.933785 -52.907,9.064951 -21.7103,3.826845 -43.3866,7.843327 -65.0396,11.982405 -18.3256,3.516683 -36.6332,7.128937 -54.9161,10.860966 -13.7945,2.810391 -27.5739,5.695802 -41.344,8.623704 -16.0547,3.424022 -32.0904,6.935731 -48.1099,10.520648 -17.486,3.939444 -34.9572,7.944684 -52.3999,12.071806 -23.4236,5.527171 -46.7989,11.257064 -70.1363,17.1379873 -16.3485,4.1387922 -32.6784,8.3499153 -48.985,12.6508284 -17.2668,4.5710968 -34.5133,9.2188173 -51.7293,13.9777783 -20.7538,5.725209 -41.4606,11.6178 -62.1356,17.621963 -17.7383,5.174359 -35.4515,10.435339 -53.1315,15.806044 -17.4926,5.321346 -34.9563,10.737746 -52.3863,16.260459 -22.4427,7.097308 -44.8236,14.38936 -67.1583,21.819192 -15.9101,5.317869 -31.7996,10.697008 -47.6572,16.169636 -16.7657,5.79848 -33.5059,11.67152 -50.2062,17.65597 -20.1712,7.21317 -40.2873,14.58021 -60.3586,22.06673 -22.7366,8.50309 -45.4184,17.15368 -68.022,26.00444 -17.3248,6.76993 -34.6053,13.6529 -51.8471,20.63138 -17.2702,6.99327 -34.5012,14.08374 -51.6854,21.28578 -23.446,9.80852 -46.8076,19.81811 -70.0908,30.00701 -24.7921,10.87282 -49.5084,21.91936 -74.1092,33.21861 -13.7302,6.28283 -27.4214,12.65111 -41.088,19.07082 -16.335,7.67575 -32.6203,15.45698 -48.8683,23.31481 -22.1488,10.7366 -44.2272,21.61878 -66.2039,32.70354 -17.5845,8.84304 -35.1041,17.81506 -52.574,26.88229 -16.6567,8.65136 -33.2595,17.40631 -49.814,26.25174 -20.8476,11.13469 -41.6028,22.44217 -62.2806,33.88904 -22.2783,12.33783 -44.4518,24.86407 -66.5313,37.55417 -16.3276,9.39837 -32.6032,18.88704 -48.8241,28.46845 -15.6175,9.24033 -31.1864,18.56266 -46.7019,27.97338 -17.6977,10.73105 -35.3168,21.59106 -52.8755,32.54819 -23.1777,14.49803 -46.2516,29.16235 -69.1784,44.05422 -12.3436,8.01073 -24.6524,16.07546 -36.9202,24.20169 -15.3482,10.15738 -30.6344,20.40935 -45.859,30.7513 -20.7615,14.08984 -41.4037,28.35463 -61.9409,42.76936 -22.6166,15.89891 -45.1116,31.97118 -67.4513,48.25724 -17.4207,12.68839 -34.7502,25.50217 -51.9981,38.4245 -17.1606,12.87347 -34.2446,25.84909 -51.234,38.94765 -14.8311,11.43229 -29.5983,22.94815 -44.2887,34.56077 -19.8284,15.64221 -39.5139,31.46437 -59.0916,47.419 -14.1388,11.55516 -28.231,23.16741 -42.2465,34.87169 -17.2295,14.40498 -34.3713,28.91484 -51.406,43.5497 -12.3839,10.63765 -24.7002,21.35355 -36.9839,32.10675 -20.0705,17.6289 -40.0188,35.3973 -59.7943,53.3568 -14.2543,12.9191 -28.4124,25.9443 -42.5094,39.0349 -17.2672,16.0478 -34.4118,32.2276 -51.4395,48.5294 -13.5849,13.0085 -27.0985,26.0917 -40.5239,39.2648 -17.8764,17.5173 -35.6069,35.1831 -53.2054,52.9795 -19.3767,19.6094 -38.5943,39.3759 -57.6289,59.3175 -14.8996,15.5977 -29.6884,31.3012 -44.3768,47.0979 -16.7704,18.0587 -33.4182,36.2319 -49.9103,54.5448 -12.9928,14.4103 -25.885,28.9112 -38.7001,43.4798 -15.4622,17.5828 -30.7938,35.2804 -45.9931,53.091 -16.3538,19.1631 -32.5606,38.4513 -48.6108,57.8695 -11.9573,14.4733 -23.836,29.0118 -35.6259,43.6217 -14.7145,18.2352 -29.2906,36.582 -43.7386,55.029 -14.2791,18.2348 -28.4163,36.5803 -42.4302,55.0197 -14.2138,18.699 -28.2795,37.5106 -42.2106,56.4211 -14.883,20.2006 -29.6063,40.5183 -44.1663,60.953 -10.9348,15.348 -21.7826,30.7582 -32.5364,46.2336 -10.5474,15.183 -21.007,30.427 -31.3821,45.7283 -11.8248,17.4284 -23.5045,34.9544 -35.1053,52.5327 -14.3371,21.8084 -28.5348,43.7087 -42.5149,65.7479 -8.1931,12.8783 -16.3067,25.8073 -24.3727,38.7656 -9.6545,15.5219 -19.2141,31.1029 -28.6863,46.7366 -13.2634,21.8859 -26.3434,43.8823 -39.2563,65.9767 -9.4457,16.1946 -18.8126,32.4353 -28.0771,48.7344 -8.8161,15.5347 -17.5586,31.1112 -26.2073,46.7397 -9.9762,18.014 -19.818,36.1021 -29.5603,54.2436 -12.9573,24.1723 -25.7265,48.4456 -38.2635,72.8387 -6.5429,12.7014 -13.0054,25.4444 -19.4355,38.2033 -8.6044,17.1233 -17.1209,34.2914 -25.5149,51.519 -10.7444,22.0094 -21.3067,44.1072 -31.7011,66.284 -6.0376,12.8753 -12.0121,25.7804 -17.9323,38.7101 -7.5811,16.5531 -15.0529,33.1571 -22.4467,49.7952 -10.2309,23.0631 -20.2902,46.2019 -30.1475,69.4273 -5.6582,13.3191 -11.2524,26.6656 -16.7884,40.0359 -7.1853,17.3568 -14.2708,34.755 -21.2418,52.1989 -9.2711,23.1663 -18.3502,46.4092 -27.2507,69.7203 -5.2634,13.8032 -10.475,27.6264 -15.6065,41.4792 -6.3055,16.9795 -12.5021,33.9998 -18.6051,51.0531 -8.3949,23.4477 -16.5998,46.9632 -24.6167,70.5428 -4.4848,13.1729 -8.8965,26.3708 -13.2695,39.5812 -5.8597,17.7529 -11.6123,35.5412 -17.2674,53.3604 -7.5287,23.7851 -14.899,47.6205 -22.0447,71.5235 -4.2537,14.1637 -8.417,28.3547 -12.5379,42.5576 -5.2,17.9774 -10.2931,35.9857 -15.2826,54.0226 -4.4477,16.1008 -8.8078,32.2255 -13.0993,48.3686 -4.4971,17.0167 -8.9224,34.0524 -13.2311,51.1178 -5.8697,23.1422 -11.5279,46.3375 -17.0508,69.5649 -5.9129,25.0351 -11.6566,50.1101 -17.1643,75.2376 -3.1893,14.4499 -6.2762,28.9225 -9.324,43.4029 -3.3782,16.0846 -6.6538,32.1904 -9.8745,48.3073 -3.5415,17.8656 -7.0002,35.7477 -10.3424,53.6517 -2.5949,13.8668 -5.1156,27.7476 -7.5871,41.6369 -4.533,25.5534 -8.8634,51.142 -12.9802,76.7658 -2.2645,14.0799 -4.4544,28.172 -6.5919,42.2718 -2.4179,15.9586 -4.7389,31.9314 -6.9992,47.913 -2.6076,18.5605 -5.1199,37.1346 -7.509,55.7244 -1.8199,14.1343 -3.5766,28.277 -5.2677,42.4273 -1.9898,16.6666 -3.8877,33.3438 -5.7163,50.0287 -1.9243,17.8459 -3.7842,35.6988 -5.5139,53.5646 -2.015,20.676 -3.8916,41.3655 -5.6276,62.0668 -1.251,14.6737 -2.3928,29.3567 -3.5055,44.0415 -1.2759,17.0571 -2.4442,34.122 -3.5508,51.191 -1.1875,18.7804 -2.2886,37.5665 -3.265,56.3591 -0.75,14.5112 -1.4476,29.0253 -2.0688,43.5425 -0.7231,16.8236 -1.3442,33.6511 -1.9039,50.4809 -0.5522,17.7687 -1.0581,35.539 -1.4165,53.3127 -0.3829,17.6065 -0.6552,35.2154 -0.8332,52.8251 -0.163,15.111 -0.2387,30.2226 -0.2531,45.3345 -0.048,35.4463 -0.01,70.893 -0.021,106.3394 1e-4,1137.7718 0,2275.5435 0,3413.3153 -126.0399,-8e-4 -252.0799,-0.01 -378.1199,0.016 -62.4416,0.2277 -124.8581,9.4569 -184.6454,27.4905 -72.1005,21.6845 -140.3082,56.1739 -200.5989,101.2614 -59.8184,44.6761 -111.8608,99.7333 -153.0765,161.988 -28.0228,42.3133 -51.0697,87.9224 -68.4564,135.604 -14.058,38.5485 -24.419,78.4419 -30.9052,118.9577 -5.4081,33.7345 -8.134,67.8948 -8.1928,102.0593 -0.011,135.7876 -0,271.5754 -0,407.363 0,888.7737 -0,1777.5467 0,2666.3207 0.056,20.24 0.1002,40.481 0.3402,60.72 0.092,10.078 0.2259,20.156 0.3997,30.233 0.01,0.303 0.019,1.2 0.028,1.731 0.2841,19.836 0.743,39.67 1.2382,59.501 0.4715,16.928 0.9343,33.855 1.5623,50.778 0.01,0.277 0.041,1.199 0.058,1.724 0.6817,20.106 1.5207,40.206 2.4223,60.303 0.769,16.357 1.5313,32.714 2.4532,49.062 0.01,0.244 0.064,1.198 0.09,1.716 1.0265,19.346 2.207,38.684 3.4321,58.018 0.3069,4.78 0.6332,9.559 0.9541,14.339 0.02,0.252 0.08,1.197 0.1148,1.716 1.2326,18.786 2.6272,37.561 4.0455,56.334 1.5242,19.593 3.115,39.18 4.8336,58.757 1.4484,17.018 3.0729,34.02 4.6658,51.024 1.798,18.445 3.6341,36.887 5.6018,55.314 1.6657,15.961 3.4257,31.543 5.2058,47.365 0.7818,6.883 1.591,13.763 2.4097,20.642 0.034,0.266 0.1402,1.192 0.202,1.712 2.1983,18.829 4.5518,37.64 6.9432,56.446 2.5014,19.389 5.0713,38.77 7.7659,58.133 2.2629,16.554 4.691,33.084 7.0892,49.619 0.6028,4.079 1.2172,8.157 1.8356,12.234 0.011,0.05 0.1697,1.133 0.2357,1.569 1.7452,11.73 3.5362,23.454 5.3874,35.168 0.056,0.338 0.1855,1.186 0.2697,1.72 2.8882,18.601 5.9279,37.179 9.0049,55.75 3.1163,18.608 6.2946,37.206 9.5978,55.782 3.0426,17.407 6.262,34.783 9.4644,52.162 3.3646,17.906 6.7639,35.805 10.288,53.681 3.194,16.32 6.4833,32.621 9.8258,48.911 3.4177,16.5 6.8208,33.003 10.3985,49.468 4.4199,20.679 8.9977,41.324 13.6484,61.952 3.8034,16.735 7.6504,33.461 11.5971,50.163 3.9151,16.675 7.9579,33.32 12.0061,49.963 4.4413,17.962 8.8982,35.921 13.4976,53.843 4.5859,17.972 9.2729,35.919 14.0395,53.844 4.7289,17.779 9.5468,35.535 14.4495,53.267 4.2532,15.494 8.6499,30.948 13.0265,46.407 5.0319,17.555 10.1075,35.098 15.2971,52.608 4.7927,16.236 9.6967,32.439 14.615,48.637 5.5315,17.984 11.082,35.962 16.7715,53.897 5.4789,17.332 11.0487,34.635 16.697,51.912 5.9166,18.121 11.9418,36.207 18.0368,54.268 4.9303,14.631 9.9675,29.225 15.0018,43.82 5.8479,16.8 11.7454,33.582 17.7394,50.33 5.7172,16.032 11.547,32.025 17.3943,48.01 6.2947,17.027 12.5991,34.05 19.044,51.02 6.1324,16.24 12.3648,32.443 18.6514,48.623 5.9668,15.284 11.9368,30.567 18.0442,45.796 7.7686,19.521 15.6655,38.991 23.6631,58.419 6.9264,16.849 13.9643,33.651 21.0387,50.438 5.9351,14.046 11.9487,28.059 17.9793,42.064 7.0504,16.266 14.1406,32.514 21.3305,48.719 6.857,15.486 13.8098,30.929 20.7908,46.36 7.3837,16.207 14.7915,32.404 22.3182,48.546 4.3847,9.463 8.8221,18.901 13.2777,28.331 0.1066,0.237 0.5102,1.086 0.7311,1.558 7.5229,15.974 15.167,31.89 22.8277,47.798 8.0446,16.576 16.1146,33.139 24.3048,49.643 10.5404,21.277 21.213,42.489 32.0222,63.631 7.6315,14.988 15.3865,29.913 23.1439,44.836 8.0642,15.419 16.1709,30.816 24.3725,46.162 7.9043,14.849 15.9182,29.64 23.9454,44.423 8.5743,15.671 17.1567,31.338 25.8683,46.933 11.9969,21.553 24.1485,43.019 36.4242,64.415 7.886,13.781 15.885,27.498 23.8759,41.219 1.9977,3.413 4.0052,6.821 6.0153,10.227 -0,0 0.5766,0.984 0.7942,1.357 9.5484,16.273 19.2104,32.478 28.9266,48.651 8.4641,14.042 16.9421,28.076 25.5334,42.04 14.4304,23.587 29.083,47.038 43.8523,70.414 9.7321,15.333 19.4836,30.654 29.3642,45.893 11.8633,18.379 23.8437,36.682 35.9287,54.916 10.9487,16.562 22.0261,33.039 33.1376,49.492 10.2705,15.117 20.5659,30.218 30.9674,45.246 13.7647,19.913 27.6545,39.739 41.6682,59.478 9.1888,12.975 18.476,25.881 27.7633,38.785 11.0244,15.242 22.1101,30.439 33.2719,45.581 9.4042,12.761 18.8705,25.476 28.3735,38.164 10.6068,14.116 21.2491,28.206 31.978,42.23 12.1016,15.831 24.2833,31.602 36.5496,47.306 8.3707,10.73 16.7776,21.432 25.2397,32.09 16.0459,20.285 32.2551,40.441 48.5788,60.503 9.5969,11.794 19.2485,23.545 28.9354,35.266 10.9702,13.223 21.9539,26.435 33.033,39.567 10.8364,12.867 21.7403,25.677 32.6731,38.462 11.963,13.905 23.9407,27.799 36.0203,41.603 13.1389,15.034 26.35,30.005 39.6446,44.901 9.1362,10.248 18.3063,20.464 27.5285,30.634 17.1443,18.97 34.4364,37.805 51.8388,56.538 10.4751,11.278 21.0026,22.507 31.5613,33.707 12.597,13.314 25.2263,26.597 37.9365,39.803 11.9062,12.36 23.8561,24.678 35.8618,36.941 10.9855,11.209 21.9972,22.392 33.0834,33.502 13.4082,13.491 26.8977,26.902 40.4505,40.249 12.9326,12.742 25.9199,25.429 38.9743,38.047 11.3178,10.959 22.7094,21.841 34.1039,32.72 13.9865,13.293 28.0289,26.527 42.1417,39.685 10.9806,10.244 22.0072,20.439 33.0627,30.603 13.1293,12.025 26.2789,24.027 39.5092,35.941 18.8484,16.998 37.8224,33.856 56.8862,50.613 12.331,10.815 24.6997,21.588 37.1142,32.308 14.2037,12.26 28.4737,24.443 42.7899,36.572 10.943,9.247 21.9044,18.473 32.909,27.646 13.5622,11.284 27.1473,22.54 40.8055,33.708 13.8227,11.309 27.6983,22.554 41.6199,33.741 12.1096,9.717 24.2399,19.408 36.4352,29.017 19.9707,15.795 40.0574,31.443 60.2453,46.96 12.353,9.51 24.7596,18.95 37.1857,28.365 14.047,10.595 28.1121,21.167 42.2508,31.64 15.5531,11.542 31.1658,23.005 46.8347,34.389 11.4008,8.274 22.8127,16.533 34.2826,24.711 21.3697,15.313 42.8657,30.449 64.4492,45.46 12.448,8.649 24.9286,17.253 37.4395,25.811 14.8183,10.102 29.6549,20.177 44.5602,30.15 19.936,13.362 39.9575,26.596 60.0619,39.703 13.6225,8.907 27.3146,17.708 41.0089,26.505 3.0545,1.957 6.1167,3.902 9.1786,5.847 0.01,0 0.9612,0.614 1.3257,0.849 18.4416,11.763 36.959,23.409 55.5424,34.947 11.451,7.121 22.9243,14.205 34.4369,21.226 20.5343,12.572 41.153,25.006 61.8527,37.303 14.7767,8.809 29.6179,17.508 44.4723,26.184 15.4291,8.962 30.8725,17.9 46.38,26.726 16.6542,9.495 33.3538,18.912 50.1034,28.239 12.3777,6.881 24.759,13.756 37.1949,20.531 16.7176,9.173 33.4964,18.235 50.3112,27.228 16.9087,9.04 33.8654,17.99 50.862,26.864 13.63,7.126 27.309,14.158 40.989,21.188 16.1057,8.22 32.2346,16.396 48.4107,24.477 14.9674,7.485 29.9771,14.886 45.003,22.254 16.3253,7.957 32.667,15.881 49.0609,23.696 22.6243,10.805 45.329,21.44 68.089,31.955 13.8264,6.389 27.695,12.686 41.5652,18.979 16.204,7.3 32.4274,14.556 48.6938,21.716 15.4155,6.802 30.8757,13.503 46.3447,20.183 16.6446,7.121 33.292,14.236 49.9987,21.211 16.4299,6.892 32.8985,13.693 49.3947,20.425 14.7043,5.977 29.4095,11.953 44.1678,17.797 19.3704,7.733 38.7931,15.334 58.2507,22.845 16.1826,6.247 32.3995,12.405 48.6379,18.506 14.6028,5.504 29.2518,10.884 43.8953,16.279 17.1116,6.241 34.239,12.44 51.4058,18.528 15.9247,5.672 31.8888,11.232 47.8587,16.775 15.3145,5.239 30.6136,10.523 45.9714,15.634 -0.025,-0 1.0774,0.363 1.4824,0.501 19.7758,6.654 39.5977,13.17 59.4497,19.593 13.563,4.367 27.1223,8.746 40.7236,12.994 20.0386,6.332 40.1221,12.522 60.2311,18.627 15.5983,4.716 31.2077,9.395 46.8478,13.971 16.6742,4.923 33.3882,9.71 50.1053,14.485 17.7285,4.999 35.4624,9.98 53.2337,14.826 19.4601,5.319 38.9462,10.544 58.4629,15.651 17.1268,4.505 34.2842,8.891 51.4522,13.236 15.0132,3.794 30.0511,7.492 45.09,11.183 17.4502,4.23 34.9097,8.42 52.3972,12.493 17.2482,4.04 34.521,7.976 51.8069,11.851 15.9824,3.559 31.9667,7.111 47.9822,10.519 20.938,4.516 41.9078,8.884 62.8976,13.153 16.0327,3.256 32.0778,6.45 48.1393,9.56 16.6592,3.256 33.3439,6.382 50.0298,9.497 16.9206,3.099 33.8402,6.204 50.7886,9.147 20.5628,3.634 41.1521,7.117 61.755,10.516 16.3778,2.681 32.7619,5.324 49.163,7.859 17.0944,2.684 34.2112,5.222 51.3277,7.76 17.1821,2.485 34.3637,4.974 51.569,7.294 19.7463,2.73 39.5131,5.309 59.2874,7.826 17.6583,2.218 35.3214,4.397 53.0001,6.446 17.8511,2.111 35.718,4.088 53.588,6.032 19.6894,2.104 39.3862,4.138 59.0956,6.045 15.7672,1.566 31.5495,2.974 47.3287,4.412 18.95,1.664 37.9037,3.288 56.8697,4.761 18.6027,1.496 37.2172,2.84 55.8339,4.148 18.5553,1.267 37.1135,2.491 55.6802,3.58 10.8099,0.66 21.6231,1.265 32.438,1.837 0.2442,0.01 1.1978,0.06 1.7153,0.09 11.7532,0.656 23.5104,1.238 35.2691,1.786 0.3444,0.01 1.1993,0.06 1.7393,0.08 19.2404,0.933 38.4877,1.717 57.7366,2.449 18.3395,0.669 36.6807,1.294 55.026,1.785 18.1548,0.531 36.3138,0.909 54.4724,1.281 16.8662,0.261 33.732,0.573 50.5999,0.695 0.021,0 1.1419,0.01 1.5769,0.02 19.5085,0.215 39.0184,0.271 58.5278,0.281 18.5706,-0.05 37.1416,-0.09 55.7112,-0.308 11.3549,-0.1 22.7094,-0.241 34.063,-0.439 0.2782,-0 1.2,-0.02 1.7256,-0.03 19.7936,-0.288 39.5844,-0.742 59.3737,-1.242 18.5684,-0.503 37.1355,-1.052 55.6982,-1.734 18.8171,-0.657 37.6294,-1.446 56.4391,-2.287 18.0165,-0.836 36.0312,-1.713 54.0393,-2.717 18.7853,-1.015 37.5634,-2.161 56.3378,-3.361 18.4659,-1.202 36.9271,-2.476 55.381,-3.851 11.0066,-0.797 22.0074,-1.671 33.0073,-2.554 0.2431,-0.02 1.1958,-0.09 1.7124,-0.133 17.8808,-1.41 35.7493,-2.973 53.6169,-4.54 18.6392,-1.71 37.2783,-3.424 55.9014,-5.303 10.2281,-1.009 20.9077,-2.094 30.8414,-3.159 12.2187,-1.267 24.4325,-2.58 36.6388,-3.96 0.2999,-0.04 1.1931,-0.133 1.7207,-0.193 19.7698,-2.185 39.5226,-4.522 59.2675,-6.922 18.0625,-2.213 36.1164,-4.497 54.1568,-6.885 17.0813,-2.233 34.1454,-4.597 51.2079,-6.97 16.2388,-2.338 32.4843,-4.632 48.7038,-7.101 0.046,-0.01 1.1317,-0.169 1.566,-0.235 11.679,-1.736 23.829,-3.593 35.191,-5.391 19.534,-3.027 39.0425,-6.215 58.5423,-9.454 18.7204,-3.136 37.4289,-6.343 56.1171,-9.666 16.774,-2.936 33.5165,-6.049 50.2651,-9.126 17.9954,-3.376 35.9827,-6.795 53.9465,-10.336 10.4254,-2.029 20.8386,-4.119 31.247,-6.233 0.026,-0 1.1201,-0.224 1.5476,-0.309 17.479,-3.512 34.9267,-7.179 52.3749,-10.84 16.2205,-3.494 32.4523,-6.937 48.6439,-10.564 -0.019,0 1.1107,-0.246 1.5291,-0.339 18.7977,-4.139 37.5627,-8.426 56.3147,-12.765 18.558,-4.317 37.098,-8.706 55.611,-13.213 16.135,-3.888 32.233,-7.926 48.335,-11.944 17.881,-4.528 35.752,-9.094 53.59,-13.791 16.44,-4.297 32.851,-8.707 49.254,-13.146 16.768,-4.583 33.532,-9.182 50.256,-13.921 19.747,-5.541 39.454,-11.226 59.137,-16.991 15.981,-4.688 31.941,-9.447 47.879,-14.279 15.326,-4.606 30.605,-9.367 45.893,-14.099 18.294,-5.721 36.568,-11.508 54.805,-17.411 16.329,-5.261 32.618,-10.643 48.903,-16.039 16.056,-5.371 32.109,-10.753 48.115,-16.272 17.782,-6.079 35.522,-12.28 53.239,-18.545 17.921,-6.347 35.811,-12.782 53.669,-19.304 14.815,-5.383 29.582,-10.9 44.355,-16.398 17.178,-6.455 34.337,-12.961 51.455,-19.571 15.71,-6.042 31.374,-12.202 47.036,-18.366 16.969,-6.751 33.932,-13.514 50.84,-20.415 21.768,-8.851 43.478,-17.846 65.13,-26.977 16.01,-6.708 31.955,-13.567 47.902,-20.423 15.397,-6.676 30.787,-13.371 46.125,-20.184 0.243,-0.102 1.098,-0.483 1.577,-0.693 15.977,-7.056 31.901,-14.234 47.817,-21.426 16.565,-7.548 33.118,-15.12 49.617,-22.81 22.113,-10.291 44.16,-20.725 66.14,-31.296 14.307,-6.856 28.556,-13.83 42.81,-20.794 16.159,-7.958 32.297,-15.957 48.385,-24.058 15.154,-7.607 30.257,-15.316 45.348,-23.047 16.001,-8.252 31.99,-16.529 47.919,-24.921 17.443,-9.177 34.846,-18.432 52.192,-27.793 12.179,-6.568 24.344,-13.162 36.468,-19.833 18.043,-9.878 36.023,-19.874 53.952,-29.959 14.977,-8.416 29.909,-16.912 44.809,-25.465 13.476,-7.725 26.9,-15.542 40.321,-23.364 15.593,-9.133 31.152,-18.325 46.66,-27.6 14.31,-8.538 28.562,-17.171 42.801,-25.825 15.128,-9.248 30.242,-18.518 45.289,-27.897 17.012,-10.582 33.969,-21.251 50.865,-32.018 11.595,-7.381 23.171,-14.793 34.703,-22.272 17.067,-11.023 34.062,-22.157 51.007,-33.366 14.889,-9.843 29.715,-19.78 44.516,-29.755 12.906,-8.721 25.778,-17.494 38.625,-26.303 13.945,-9.598 27.867,-19.229 41.729,-28.947 13.814,-9.653 27.566,-19.394 41.296,-29.165 14.123,-10.102 28.236,-20.219 42.277,-30.435 13.507,-9.811 26.957,-19.7 40.39,-29.612 14.817,-11.005 29.626,-22.02 44.347,-33.153 15.95,-12.041 31.839,-24.164 47.664,-36.369 10.82,-8.339 21.613,-16.713 32.362,-25.143 18.944,-14.805 37.782,-29.745 56.528,-44.799 13.031,-10.419 25.965,-20.958 38.905,-31.489 14.344,-11.73 28.636,-23.523 42.873,-35.382 12.417,-10.308 24.741,-20.729 37.076,-31.134 15.626,-13.254 31.188,-26.582 46.684,-39.987 11.009,-9.534 21.987,-19.103 32.929,-28.714 13.084,-11.524 26.144,-23.075 39.136,-34.703 12.332,-11.045 24.616,-22.142 36.869,-33.274 13.099,-11.963 26.187,-23.939 39.187,-36.011 12.331,-11.429 24.596,-22.928 36.842,-34.448 13.173,-12.472 26.339,-24.953 39.403,-37.54 12.753,-12.256 25.445,-24.575 38.087,-36.945 11.516,-11.287 23.006,-22.601 34.422,-33.99 20.791,-20.667 41.39,-41.526 61.866,-62.506 11.578,-11.904 23.141,-23.822 34.612,-35.83 20.326,-21.178 40.452,-42.547 60.448,-64.038 11.52,-12.413 23.016,-24.849 34.421,-37.368 17.099,-18.696 34.055,-37.523 50.897,-56.451 10.307,-11.571 20.548,-23.202 30.767,-34.85 11.712,-13.42 23.413,-26.849 35.007,-40.37 11.464,-13.334 22.855,-26.731 34.205,-40.162 10.444,-12.399 20.866,-24.817 31.202,-37.307 12.143,-14.621 24.205,-29.309 36.189,-44.061 11.804,-14.511 23.531,-29.087 35.196,-43.711 9.826,-12.329 19.597,-24.702 29.334,-37.101 10.317,-13.179 20.597,-26.387 30.801,-39.654 10.223,-13.254 20.357,-26.577 30.473,-39.912 10.892,-14.444 21.763,-28.905 32.531,-43.442 6.389,-8.588 12.727,-17.214 19.056,-25.845 0.188,-0.261 0.711,-0.968 1.027,-1.4 9.967,-13.573 19.839,-27.216 29.692,-40.872 10.492,-14.63 20.967,-29.272 31.333,-43.991 14.105,-19.993 28.078,-40.08 41.931,-60.249 9.031,-13.125 17.966,-26.316 26.896,-39.511 9.967,-14.798 19.886,-29.629 29.724,-44.514 9.119,-13.777 18.154,-27.611 27.165,-41.46 9.716,-15.014 19.409,-30.043 28.994,-45.142 12.994,-20.437 25.861,-40.955 38.595,-61.554 8.397,-13.541 16.686,-27.148 24.978,-40.753 9.365,-15.459 18.682,-30.947 27.91,-46.488 8.477,-14.244 16.862,-28.542 25.223,-42.854 8.992,-15.491 17.972,-30.989 26.829,-46.558 9.57,-16.78 19.053,-33.61 28.452,-50.487 6.889,-12.39 13.768,-24.786 20.552,-37.234 11.462,-20.901 22.767,-41.887 33.945,-62.941 0.141,-0.274 0.564,-1.06 0.814,-1.53 8.016,-15.054 15.92,-30.168 23.803,-45.293 8.479,-16.378 16.933,-32.768 25.27,-49.219 11.011,-21.701 21.884,-43.472 32.618,-65.31 7.086,-14.369 14.056,-28.794 21.03,-43.216 7.64,-15.913 15.236,-31.846 22.737,-47.825 7.198,-15.297 14.305,-30.637 21.377,-45.992 7.55,-16.501 15.074,-33.015 22.479,-49.581 8.002,-17.876 15.922,-35.788 23.734,-53.748 5.558,-12.779 11.104,-25.564 16.553,-38.391 8.91,-20.836 17.68,-41.733 26.323,-62.682 7.337,-17.708 14.531,-35.475 21.695,-53.254 6.834,-17.107 13.641,-34.224 20.324,-51.39 6.959,-17.84 13.836,-35.712 20.608,-53.624 5,-13.24 9.999,-26.48 14.884,-39.763 7.381,-19.899 14.629,-39.846 21.775,-59.83 0.831,-2.337 1.663,-4.673 2.494,-7.01 0.02,-0.06 0.385,-1.079 0.533,-1.496 6.008,-16.796 11.864,-33.647 17.72,-50.497 6.034,-17.57 12.043,-35.148 17.922,-52.769 5.149,-15.374 10.211,-30.776 15.23,-46.192 5.159,-15.954 10.325,-31.907 15.33,-47.911 6.403,-20.245 12.659,-40.537 18.825,-60.856 4.366,-14.46 8.722,-28.924 12.963,-43.421 5.31,-17.918 10.458,-35.885 15.59,-53.856 4.99,-17.696 9.962,-35.398 14.795,-53.138 2.672,-9.724 5.296,-19.461 7.895,-29.204 0.09,-0.334 0.311,-1.16 0.452,-1.682 4.693,-17.463 9.256,-34.961 13.774,-52.47 4.251,-16.611 8.493,-33.225 12.584,-49.876 5.059,-20.347 9.977,-40.729 14.798,-61.133 3.548,-15.075 7.069,-30.157 10.481,-45.263 0.06,-0.264 0.269,-1.17 0.386,-1.68 3.933,-17.217 7.73,-34.464 11.512,-51.714 3.867,-17.931 7.719,-35.866 11.426,-53.83 3.587,-17.216 7.057,-34.456 10.484,-51.703 3.525,-17.883 6.995,-35.776 10.347,-53.692 3.291,-17.293 6.395,-34.622 9.529,-51.944 0.751,-4.223 1.495,-8.447 2.231,-12.673 0.01,-0.09 0.199,-1.131 0.275,-1.571 3.393,-19.136 6.628,-38.301 9.816,-57.472 3.034,-18.434 6.013,-36.877 8.865,-55.34 2.664,-17.009 5.19,-34.038 7.71,-51.068 2.661,-18.455 5.312,-36.911 7.809,-55.389 2.676,-19.593 5.236,-39.203 7.709,-58.823 2.057,-16.43 4.065,-32.866 5.978,-49.314 2.058,-17.449 3.982,-34.914 5.897,-52.379 1.999,-18.912 3.989,-37.826 5.816,-56.757 1.915,-19.496 3.707,-39.004 5.422,-58.518 1.435,-16.574 2.839,-33.15 4.124,-49.736 1.445,-18.096 2.754,-36.203 4.029,-54.311 1.295,-18.86 2.529,-37.724 3.635,-56.595 1.08,-17.697 2,-35.403 2.929,-53.108 0.901,-18.707 1.805,-37.414 2.535,-56.129 0.789,-18.976 1.433,-37.959 2.04,-56.942 0.532,-17.925 1.031,-35.851 1.396,-53.781 0.247,-10.793 0.451,-21.588 0.604,-32.383 0,-0.294 0.02,-1.2 0.03,-1.729 0.353,-21.023 0.543,-42.049 0.664,-63.075 0.147,-39.954 0.06,-79.908 0.08,-119.862 -0,-993.843 0,-1987.6861 -0,-2981.5289 -0.03,-60.3878 -8.465,-120.7784 -25.156,-178.819 -10.265,-35.7494 -23.654,-70.597 -39.915,-104.0469 -22.267,-45.7675 -49.942,-88.8996 -82.274,-128.2078 -38.917,-47.3522 -84.549,-89.1786 -135.131,-123.7964 -29.165,-19.9753 -59.972,-37.5469 -91.998,-52.5106 -37.308,-17.4144 -76.284,-31.2554 -116.226,-41.2465 -45.156,-11.296 -91.532,-17.6848 -138.057,-19.0795 -16.287,-0.4846 -32.582,-0.2308 -48.873,-0.2972 -115.456,0 -230.911,0 -346.366,0 -0,-1172.0586 0,-2344.1173 -0,-3516.1758 -0.05,-18.1429 -0.104,-36.286 -0.329,-54.4278 -0.164,-14.3655 -0.394,-28.7305 -0.679,-43.0942 -0.347,-16.7023 -0.774,-33.4028 -1.283,-50.101 -0.439,-13.9442 -0.925,-27.8872 -1.473,-41.8275 -0.66,-16.5465 -1.403,-33.0894 -2.222,-49.6287 -0.71,-14.0536 -1.466,-28.1051 -2.296,-42.1521 -1.527,-25.9561 -3.268,-51.8992 -5.22,-77.8268 -1.057,-14.1523 -2.203,-28.2979 -3.383,-42.4404 -1.403,-16.5777 -2.89,-33.148 -4.453,-49.7114 -1.706,-17.8717 -3.492,-35.7359 -5.399,-53.5873 -1.572,-14.9045 -3.247,-29.7981 -4.962,-44.6867 -1.91,-16.408 -3.895,-32.8069 -5.964,-49.1955 -2.225,-17.4801 -4.517,-34.9519 -6.941,-52.4056 -3.047,-22.2195 -6.288,-44.4121 -9.661,-66.5845 -2.141,-14.0339 -4.346,-28.0584 -6.61,-42.0729 -2.681,-16.6225 -5.483,-33.2249 -8.324,-49.8207 -3.159,-18.1599 -6.39,-36.3074 -9.736,-54.4336 -3.291,-17.7366 -6.655,-35.4597 -10.149,-53.1576 -3.945,-20.068 -8.024,-40.11 -12.239,-60.1231 -3.017,-14.4089 -6.133,-28.7973 -9.287,-43.1769 -3.454,-15.6846 -6.99,-31.3508 -10.598,-47.0006 -4.136,-17.9007 -8.371,-35.7786 -12.716,-53.6298 -3.376,-13.8733 -6.817,-27.7308 -10.314,-41.5737 -6.1,-24.1131 -12.387,-48.1786 -18.874,-72.1904 -3.737,-13.8959 -7.571,-27.7656 -11.433,-41.627 -4.488,-16.0291 -9.066,-32.033 -13.708,-48.0183 -5.179,-17.7243 -10.432,-35.4274 -15.805,-53.0937 -5.297,-17.3927 -10.679,-34.7591 -16.174,-52.0902 -6.493,-20.524 -13.151,-40.9949 -19.92,-61.4298 -8.575,-25.7947 -17.344,-51.5253 -26.368,-77.1668 -4.977,-14.2044 -10.045,-28.3771 -15.166,-42.5304 -6.281,-17.3463 -12.67,-34.6532 -19.147,-51.9272 -8.951,-23.8295 -18.088,-47.5892 -27.424,-71.2707 -7.116,-18.0708 -14.358,-36.0919 -21.693,-54.0752 -6.912,-16.906 -13.911,-33.7766 -21.014,-50.6034 -9.052,-21.4498 -18.267,-42.8307 -27.632,-64.1455 -10.312,-23.4348 -20.792,-46.7952 -31.484,-70.0593 -7.672,-16.7149 -15.445,-33.3842 -23.314,-50.007 -7.975,-16.8661 -16.061,-33.6798 -24.246,-50.4449 -10.528,-21.6014 -21.246,-43.1094 -32.103,-64.5474 -11.478,-22.6332 -23.128,-45.1796 -34.971,-67.6244 -8.448,-16.0162 -16.98,-31.988 -25.612,-47.9052 -8.903,-16.4258 -17.902,-32.7995 -27.003,-49.1165 -11.484,-20.6252 -23.15,-41.1487 -34.936,-61.6028 -12.798,-22.1483 -25.751,-44.2072 -38.901,-66.1487 -7.401,-12.3576 -14.86,-24.6798 -22.373,-36.9694 -11.655,-19.0675 -23.443,-38.0542 -35.373,-56.9514 -12.815,-20.3251 -25.796,-40.5451 -38.918,-60.6729 -13.648,-20.9137 -27.446,-41.7286 -41.425,-62.4224 -12.163,-18.0254 -24.456,-35.9638 -36.862,-53.8226 -11.949,-17.18 -24.002,-34.2871 -36.169,-51.3134 -13.085,-18.2976 -26.289,-36.5113 -39.634,-54.6208 -12.796,-17.4062 -25.742,-34.7015 -38.776,-51.9297 -16.484,-21.737 -33.126,-43.3533 -49.978,-64.8066 -11.566,-14.7416 -23.221,-29.4148 -34.964,-44.0163 -11.619,-14.4617 -23.335,-28.8456 -35.125,-43.1686 -15.096,-18.3411 -30.337,-36.5635 -45.707,-54.6759 -16.623,-19.59 -33.413,-39.0377 -50.342,-58.3635 -17.842,-20.3273 -35.831,-40.5246 -54.014,-60.5471 -12.471,-13.7518 -25.023,-27.4294 -37.659,-41.0297 -12.88,-13.8743 -25.85,-27.665 -38.894,-41.3854 -16.335,-17.1763 -32.801,-34.2287 -49.388,-51.1619 -19.621,-20.0244 -39.416,-39.8785 -59.384,-59.5559 -17.75,-17.4828 -35.621,-34.8416 -53.646,-52.0405 -17.21,-16.4428 -34.546,-32.753 -52.002,-48.9341 -16.673,-15.4478 -33.444,-30.7885 -50.337,-45.9947 -14.29,-12.8837 -28.672,-25.6643 -43.118,-38.371 -17.352,-15.2674 -34.825,-30.39608 -52.4,-45.40566 -19.419,-16.56782 -38.955,-32.998 -58.633,-49.25666 -18.615,-15.37397 -37.331,-30.62488 -56.178,-45.71298 -13.965,-11.19461 -27.999,-22.30322 -42.087,-33.34223 -17.948,-14.05098 -35.994,-27.97627 -54.143,-41.76626 -19.115,-14.54332 -38.351,-28.92811 -57.689,-43.17291 -20.284,-14.94228 -40.685,-29.72489 -61.204,-44.34149 -15.102,-10.75166 -30.258,-21.42727 -45.481,-32.00591 -15.209,-10.57149 -30.484,-21.04694 -45.812,-31.44611 -19.426,-13.16958 -38.951,-26.19436 -58.572,-39.07305 -20.979,-13.77115 -42.065,-27.37972 -63.26,-40.81672 -19.867,-12.59263 -39.819,-25.05112 -59.871,-37.34606 -16.045,-9.83441 -32.141,-19.58292 -48.297,-29.23344 -15.713,-9.38633 -31.482,-18.68138 -47.305,-27.88262 -21.561,-12.53934 -43.217,-24.91468 -64.975,-37.10959 -16.713,-9.37562 -33.487,-18.64352 -50.311,-27.81674 -16.001,-8.71385 -32.049,-17.34115 -48.148,-25.87382 -18.884,-10.02147 -37.85,-19.88785 -56.864,-29.65893 -15.874,-8.12566 -31.784,-16.17862 -47.742,-24.13781 -16.288,-8.11901 -32.621,-16.14669 -49.001,-24.07915 -21.351,-10.34787 -42.787,-20.51909 -64.292,-30.5432 -23.009,-10.71376 -46.101,-21.25106 -69.279,-31.59352 -17.029,-7.60154 -34.1,-15.10599 -51.218,-22.50301 -17.047,-7.3661 -34.137,-14.63362 -51.269,-21.79842 -19.76,-8.27483 -39.586,-16.38997 -59.453,-24.40173 -25.313,-10.17027 -50.703,-20.1487 -76.188,-29.88001 -13.857,-5.307 -27.746,-10.53181 -41.654,-15.70519 -17.162,-6.3773 -34.364,-12.64701 -51.598,-18.82834 -23.484,-8.40757 -47.028,-16.64855 -70.644,-24.675248 -14.28,-4.872439 -28.59,-9.658835 -42.919,-14.385922 -17.3,-5.712745 -34.64,-11.310044 -52.007,-16.820289 -15.342,-4.859415 -30.709,-9.640195 -46.098,-14.352274 -17.166,-5.241446 -34.359,-10.392181 -51.583,-15.440168 -20.477,-6.013456 -41.001,-11.863324 -61.5574,-17.597334 -18.1193,-5.04138 -36.2672,-9.9799151 -54.4441,-14.8094658 -17.8118,-4.72964084 -35.6511,-9.3554255 -53.5175,-13.8743867 -23.2432,-5.8888525 -46.5359,-11.5811005 -69.8652,-17.1191635 -16.2662,-3.839845 -32.5485,-7.610062 -48.8505,-11.295095 -17.6589,-3.974287 -35.3365,-7.86553 -53.0397,-11.638104 -20.7086,-4.431515 -41.4515,-8.702014 -62.2191,-12.848315 -14.1696,-2.828188 -28.3535,-5.586674 -42.5488,-8.282721 -16.2202,-3.093885 -32.4647,-6.061142 -48.7149,-8.995029 -18.2375,-3.247624 -36.489,-6.416898 -54.7608,-9.466408 -17.4528,-2.898216 -34.9159,-5.735859 -52.4002,-8.438072 -17.204,-2.677247 -34.4236,-5.255525 -51.6576,-7.732855 -17.6836,-2.55928 -35.3861,-4.98682 -53.0969,-7.35046 -16.3684,-2.15987 -32.7464,-4.24792 -49.136,-6.24374 -14.1866,-1.72718 -28.3811,-3.39131 -42.5826,-4.99131 -18.3938,-2.0744 -36.801,-4.02971 -55.2165,-5.90179 -16.8379,-1.68119 -33.6815,-3.30478 -50.5352,-4.82031 -14.3942,-1.2841 -28.7922,-2.52855 -43.1972,-3.68612 -24.4849,-1.97859 -48.9842,-3.77974 -73.4975,-5.36877 -15.4569,-1.02903 -30.9219,-1.93494 -46.3884,-2.80816 -16.3917,-0.90823 -32.7879,-1.7301 -49.1877,-2.47705 -14.1378,-0.63681 -28.2786,-1.21121 -42.4213,-1.72851 -18.893,-0.68444 -37.7902,-1.24728 -56.6894,-1.72618 -16.965,-0.3962 -33.9312,-0.73584 -50.8992,-0.96852 -14.2987,-0.19525 -28.5985,-0.33261 -42.8983,-0.40191 -44.8748,-0.13909 -89.7495,-0.27832 -134.6242,-0.41747 0.2708,0.54232 0.5416,1.08463 0.8124,1.62695 z m 109.668,1295.79886 c 3.1159,0 6.2318,0.01 9.3477,0.01 -0.1986,-0 1.1111,0 1.5164,0 26.8836,0.073 53.766,0.4832 80.6408,1.1702 3.5371,0.086 7.0736,0.1973 10.6104,0.2941 -0.1022,-0.01 1.1262,0.034 1.5429,0.046 15.1316,0.4469 30.26,0.9961 45.3848,1.6335 -0.3855,-0.013 1.0488,0.047 1.3816,0.062 40.05,1.7233 80.0702,4.1387 120.0364,7.25 -0.3517,-0.031 1.0575,0.084 1.3898,0.1093 2.8968,0.2305 5.7935,0.461 8.6902,0.6915 0.05,0.01 1.1409,0.093 1.5792,0.1298 88.514,7.1822 176.7502,17.7928 264.4423,31.8077 -0.129,-0.024 1.1083,0.1779 1.5163,0.2427 69.7555,11.1775 139.164,24.5187 208.0935,39.9939 67.4797,15.1509 134.4982,32.3542 200.9351,51.568 -0.3317,-0.091 1.0213,0.2976 1.3411,0.3919 31.069,8.9988 62.0067,18.4494 92.8093,28.321 -0.3853,-0.1191 0.9932,0.3212 1.3099,0.4247 54.2867,17.4391 108.1357,36.2402 161.4831,56.3703 0.028,0.015 1.0689,0.4044 1.477,0.5599 31.1807,11.7791 62.1845,24.0265 93.009,36.7076 -0.323,-0.1287 0.982,0.4068 1.289,0.5355 101.405,41.7962 200.801,88.4644 297.739,139.7758 31.57,16.7035 62.875,33.9095 93.91,51.5872 -0.214,-0.1165 0.956,0.5482 1.304,0.7484 14.298,8.1521 28.536,16.4119 42.715,24.7691 -0.15,-0.084 0.961,0.5681 1.312,0.7767 59.847,35.3048 118.62,72.4307 176.231,111.2778 34.327,23.1622 68.241,46.9361 101.727,71.2991 44.366,32.3111 87.976,65.6605 130.767,100.0292 48.631,39.0625 96.208,79.4355 142.673,121.0493 45.711,40.9617 90.347,83.1222 133.834,126.4384 39.338,39.1857 77.742,79.3091 115.162,120.3314 31.688,34.7415 62.674,70.1239 92.928,106.1209 25.135,29.9082 49.766,60.2394 73.882,90.9745 3.801,4.8444 7.58,9.7061 11.363,14.5641 -0.24,-0.3012 0.642,0.8311 0.844,1.0956 57.818,74.5678 112.583,151.5015 164.128,230.5345 30.197,46.3161 59.284,93.3551 87.229,141.0633 5.773,9.8489 11.48,19.7362 17.161,29.6386 -0.04,-0.065 0.56,0.9816 0.767,1.3471 22.004,38.4587 43.243,77.354 63.746,116.6331 25.15,48.2305 49.175,97.0481 72.011,146.417 46.322,100.1105 87.816,202.4564 124.256,306.5719 14.061,40.1505 27.356,80.5687 39.913,121.2145 -0.07,-0.237 0.324,1.0531 0.442,1.4356 7.305,23.7421 14.372,47.5577 21.165,71.4511 -0.02,-0.056 0.309,1.0899 0.423,1.4969 14.332,50.4346 27.473,101.207 39.47,152.2473 -0.02,-0.058 0.258,1.1028 0.352,1.5145 2.139,9.0663 4.206,18.1491 6.265,27.2335 -0.06,-0.2362 0.24,1.0761 0.327,1.4675 0.633,2.8227 1.265,5.6454 1.898,8.4681 -0.04,-0.2085 0.24,1.0821 0.328,1.4762 4.16,18.7101 8.143,37.4593 11.998,56.2347 -0.05,-0.2077 0.22,1.0864 0.3,1.4823 0.424,2.086 0.848,4.172 1.272,6.2579 -0.02,-0.1315 0.222,1.1 0.304,1.5046 13.092,64.932 24.291,130.2449 33.605,195.8256 3.129,22.0714 6.043,44.1734 8.749,66.3007 0,0.04 0.138,1.1354 0.19,1.5704 1.347,11.0131 2.622,22.0349 3.863,33.0604 -0.01,-0.062 0.125,1.1254 0.17,1.5451 2.655,23.8182 5.053,47.665 7.213,71.5331 0,0.057 0.102,1.1406 0.14,1.5799 5.049,56.2008 8.728,112.5251 11.019,168.9058 0.557,13.5766 1.025,27.1568 1.427,40.7389 -0,-0.1092 0.03,1.1253 0.04,1.5411 0.937,32.6847 1.4,65.3823 1.437,98.0803 0,0.7818 0,1.5636 0,2.3454 -0,-0.3814 -0,1.0396 -0,1.3718 0,1171.311 0,2342.6219 0,3513.9329 -250.31,0 -500.62,0 -750.929,0 -0,-1172.0508 0,-2344.1016 -0,-3516.1524 -0.03,-38.2373 -0.813,-76.4746 -2.433,-114.6781 -2.466,-58.4508 -6.832,-116.8208 -13.073,-174.9896 -11.022,-102.4839 -27.92,-204.3376 -50.654,-304.8752 -28.817,-127.4951 -67.009,-252.8685 -114.151,-374.7823 -36.848,-95.3108 -79.165,-188.5052 -126.631,-278.997 -42.601,-81.1979 -89.347,-160.2194 -139.982,-236.6659 -47.296,-71.3982 -97.983,-140.5494 -151.818,-207.1557 -70.678,-87.4353 -146.789,-170.4782 -227.744,-248.4954 -80.264,-77.3573 -165.292,-149.7711 -254.448,-216.6875 -91.252,-68.4919 -186.834,-131.2147 -285.999,-187.6466 -75.5943,-43.0123 -153.2713,-82.3628 -232.6725,-117.8593 -55.265,-24.6935 -111.36,-47.5297 -168.1682,-68.4305 -103.733,-38.1727 -209.836,-69.9023 -317.4943,-94.9498 -113.2827,-26.3556 -228.2848,-45.3048 -344.0282,-56.7457 -26.4477,-2.6113 -52.9332,-4.8391 -79.4465,-6.6693 -64.1647,-4.4411 -128.4876,-6.585 -192.8053,-6.4696 -92.3906,0.1677 -184.7741,5.0206 -276.6669,14.6062 -73.9664,7.7222 -147.617,18.4885 -220.6872,32.3266 -32.7767,6.1962 -65.4365,13.0118 -97.9575,20.4338 -120.0476,27.3915 -238.1942,63.1037 -353.3245,106.7688 -97.3266,36.9126 -192.4966,79.5065 -284.8801,127.467 -77.5159,40.246 -153.0741,84.2615 -226.3234,131.8321 -76.5407,49.7006 -150.5559,103.2867 -221.6968,160.4489 -72.9974,58.6699 -142.961,121.1131 -209.5215,186.9954 -69.541,68.8422 -135.3678,141.436 -197.0872,217.37 -51.3178,63.1357 -99.7947,128.58 -145.2332,196.0705 -40.7828,60.5931 -79.1183,122.8333 -114.8681,186.5258 -33.3074,59.3661 -64.3753,119.9887 -93.0923,181.7065 -50.9917,109.5862 -94.5706,222.6221 -130.3031,338.0889 -35.8879,115.9474 -63.8571,234.3431 -83.6742,354.0885 -20.2107,122.0642 -31.9422,245.5248 -35.2278,369.2051 -0.6618,24.7886 -0.9683,49.586 -0.9601,74.3833 -0.032,37.2998 -0,74.5998 -0.013,111.8997 0,1134.0109 0,2268.0218 0,3402.0328 -250.3099,0 -500.6198,0 -750.9297,0 0,-1172.3731 0,-2344.7461 0,-3517.1192 -0,0.1986 0,-1.1111 0,-1.5164 0.032,-19.8302 0.2029,-39.6604 0.5618,-59.4875 -0,0.016 0.021,-1.1377 0.028,-1.5669 0.09,-5.1349 0.2023,-10.2693 0.3139,-15.4038 0,0.1161 0.028,-1.1244 0.039,-1.5393 0.059,-2.4902 0.1188,-4.9803 0.1782,-7.4705 -0.01,0.1648 0.029,-1.1166 0.039,-1.5255 0.066,-2.4896 0.1316,-4.9791 0.1973,-7.4686 -0,0.2189 0.033,-1.1068 0.046,-1.5098 0.7007,-24.8728 1.681,-49.7374 2.9055,-74.5898 -0.017,0.4138 0.054,-1.0385 0.072,-1.3713 0.497,-9.8203 1.0272,-19.6389 1.6036,-29.4549 -0.013,0.1723 0.067,-1.1136 0.091,-1.5211 0.5808,-9.8113 1.2067,-19.6198 1.8646,-29.4261 -0.01,0.1308 0.077,-1.1199 0.1064,-1.532 2.1414,-31.4149 4.7057,-62.8012 7.7061,-94.1458 -0.01,0.1039 0.1091,-1.1212 0.1502,-1.5358 3.1154,-32.4522 6.6921,-64.8602 10.7326,-97.2103 -0.018,0.1198 0.1404,-1.1152 0.1915,-1.5264 1.0615,-8.4676 2.1539,-16.9314 3.2733,-25.3915 -0.025,0.2222 0.148,-1.0965 0.2027,-1.4955 3.9202,-29.4278 8.2294,-58.8037 12.9126,-88.1198 -0.024,0.129 0.1779,-1.1083 0.2427,-1.5163 7.1736,-44.758 15.2359,-89.3736 24.1791,-133.8118 -0.016,0.097 0.2247,-1.1048 0.3086,-1.5137 14.4912,-71.8303 31.2973,-143.193 50.375,-213.9433 -0.039,0.1323 0.2926,-1.0826 0.3995,-1.4808 17.3591,-64.2335 36.5903,-127.9611 57.6689,-191.072 -0.069,0.1948 0.3523,-1.0522 0.48,-1.4359 28.754,-85.9817 60.9431,-170.8133 96.4317,-254.2407 37.9563,-89.1962 79.6907,-176.784 125.0507,-262.4526 30.0974,-56.8393 61.7838,-112.8371 95.0167,-167.9022 37.057,-61.4256 76.0353,-121.6914 116.8447,-180.6905 30.8748,-44.6397 62.8035,-88.55 95.7418,-131.6895 52.0522,-68.174 106.6309,-134.4192 163.5858,-198.5539 6.6988,-7.5503 13.428,-15.0736 20.2002,-22.5581 -0.1276,0.1478 0.7473,-0.823 1.0208,-1.1227 2.2704,-2.504 4.5408,-5.008 6.8112,-7.5121 -0.26,0.2796 0.7082,-0.7768 0.932,-1.0236 53.9923,-59.298 110.0413,-116.722 167.9919,-172.1578 30.5289,-29.1829 61.5806,-57.8187 93.1416,-85.8822 29.7934,-26.4604 60.0171,-52.4369 90.6973,-77.8641 26.3761,-21.8682 53.0728,-43.3502 80.0849,-64.4278 58.0789,-45.326 117.6044,-88.7977 178.4479,-130.339 43.2752,-29.5363 87.2194,-58.092 131.7882,-85.6376 34.9039,-21.5603 70.186,-42.5081 105.8316,-62.8189 48.3049,-27.5229 97.2815,-53.8658 146.8593,-79.0227 28.5574,-14.4803 57.3142,-28.5675 86.2624,-42.2501 -0.318,0.1555 0.9599,-0.4508 1.2622,-0.5914 66.0954,-31.2054 133.1906,-60.2919 201.146,-87.2074 -0.012,6e-4 1.0587,-0.4186 1.4582,-0.5775 23.1111,-9.1407 46.3219,-18.0292 69.6258,-26.6667 -0.024,0.014 1.0662,-0.3936 1.4675,-0.5407 66.5872,-24.6402 133.944,-47.2003 201.9368,-67.6448 -0.3323,0.095 1.0185,-0.305 1.3377,-0.4015 36.9107,-11.0817 74.0094,-21.5363 111.2736,-31.3641 -0.089,0.028 1.0913,-0.2856 1.4959,-0.3904 2.0255,-0.5313 4.0509,-1.0627 6.0764,-1.594 -0.031,0 1.0995,-0.2864 1.5124,-0.3947 23.6109,-6.1552 47.2882,-12.0554 71.0247,-17.7069 -0.078,0.015 1.0994,-0.2609 1.5077,-0.3586 39.7948,-9.4534 79.7626,-18.1771 119.8692,-26.2039 -0.047,0.014 1.1124,-0.2204 1.5288,-0.3019 67.5245,-13.4677 135.4577,-24.8838 203.6706,-34.2591 2.6288,-0.3585 5.2577,-0.7171 7.8866,-1.0757 -0.1824,0.028 1.1039,-0.1469 1.5073,-0.1998 11.3451,-1.5257 22.6977,-2.9963 34.0571,-4.4115 -0.091,0.01 1.1199,-0.1383 1.5349,-0.1902 2.0652,-0.2543 4.1304,-0.5086 6.1956,-0.7629 0.04,-0 1.1354,-0.1374 1.5704,-0.1893 11.0142,-1.3441 22.0363,-2.6221 33.0624,-3.8635 -0.112,0.017 1.1184,-0.1234 1.5314,-0.168 60.3913,-6.7299 120.9614,-11.8457 181.6227,-15.3918 14.2021,-0.8186 28.4088,-1.558 42.6193,-2.2136 -0.1163,0 1.1236,-0.051 1.5382,-0.07 43.7572,-1.9866 87.5516,-3.1493 131.3525,-3.4921 0.089,0 1.1479,-0.01 1.5945,-0.01 8.4579,-0.071 16.9161,-0.089 25.3742,-0.095 l -0.1,0 z m 4.2871,2047.9961 c -0.1782,-0 1.1147,0 1.5223,0 63.4855,0.25 126.9577,4.7476 189.8312,13.5564 -0.438,-0.058 1.0196,0.1453 1.3498,0.1933 1.1621,0.1648 2.3241,0.3295 3.4862,0.4942 -0.4329,-0.066 1.0206,0.1479 1.3509,0.1952 91.3891,13.2182 181.4548,35.5776 268.3999,66.6814 108.8967,38.9209 212.8706,91.5435 308.8229,156.0828 4.007,2.6904 7.9957,5.408 11.9771,8.1363 -0.5951,-0.4033 0.7378,0.5112 0.9746,0.6764 26.8682,18.5 53.0881,37.9409 78.6074,58.2611 -0.4552,-0.3682 0.7592,0.6061 1.025,0.8176 1.2729,1.0178 2.5458,2.0357 3.8187,3.0535 -0.5801,-0.4604 0.6854,0.5554 0.9132,0.7412 93.8607,75.534 177.9841,163.1494 249.6443,259.9998 61.6481,83.2993 114.0714,173.4316 155.8512,268.2711 40.539,91.9751 71.053,188.3664 90.777,286.9262 0.804,3.9944 1.582,7.9938 2.35,11.9953 -0.08,-0.4179 0.192,1.0176 0.252,1.3455 1.855,9.7271 3.595,19.476 5.242,29.2404 -0.08,-0.4721 0.165,1.002 0.219,1.3323 0.209,1.2603 0.419,2.5207 0.628,3.781 -0.08,-0.4771 0.163,1.001 0.218,1.3313 8.72,53.4051 14.311,107.3189 16.792,161.3738 -0.02,-0.4801 0.05,1.0142 0.06,1.3484 0.966,21.3408 1.41,42.7036 1.433,64.0657 -0,-0.4377 -0,1.0177 -0,1.3503 0,1171.311 0,2342.6219 0,3513.9329 -932.9757,0 -1865.9516,0 -2798.9275,0 0,-1172.3724 0,-2344.7448 0,-3517.1172 -0,0.185 0,-1.1135 0,-1.5203 0.01,-6.1192 0.067,-12.2381 0.1536,-18.3567 -0,0.4248 0.018,-1.0359 0.025,-1.3693 0.3573,-22.6567 1.2651,-45.3045 2.7118,-67.9178 -0.019,0.3513 0.07,-1.0589 0.093,-1.3915 0.3952,-6.1303 0.8393,-12.2574 1.3155,-18.3819 -0.037,0.4255 0.082,-1.032 0.1083,-1.3644 0.2239,-2.8429 0.463,-5.6845 0.7003,-8.5262 -0.046,0.497 0.087,-1.0041 0.1158,-1.3381 5.1155,-59.3094 14.0349,-118.2905 26.6928,-176.4588 -0.085,0.4076 0.2234,-1.0148 0.296,-1.3402 1.6463,-7.5562 3.3693,-15.0955 5.1434,-22.6227 -0.1014,0.4145 0.2392,-1.0074 0.3157,-1.332 1.9841,-8.3567 4.0457,-16.6951 6.1843,-25.0137 -0.091,0.3361 0.2656,-1.0287 0.348,-1.3518 0.2629,-1.0162 0.5259,-2.0324 0.7888,-3.0486 -0.1095,0.4375 0.2612,-0.9926 0.3472,-1.3153 10.1912,-38.9558 22.0861,-77.4656 35.6254,-115.3878 -0.1399,0.4045 0.3505,-0.9738 0.4645,-1.2872 31.7035,-88.5048 72.4448,-173.7597 121.2969,-254.0794 53.3839,-87.8013 116.4495,-169.7022 187.6261,-243.8129 42.023,-43.7623 86.8721,-84.8103 134.1662,-122.8144 47.4507,-38.1149 97.3626,-73.1678 149.3448,-104.8264 -0.6051,0.3633 0.7751,-0.4707 1.019,-0.6195 49.2369,-29.929 100.3213,-56.8184 152.8735,-80.447 -0.5141,0.2358 0.8953,-0.399 1.2047,-0.536 59.2985,-26.593 120.4664,-49.0171 182.9047,-67.044 -0.4341,0.1294 0.9861,-0.2822 1.3074,-0.3732 15.0922,-4.3472 30.262,-8.4233 45.4934,-12.2538 -0.4589,0.1116 0.9879,-0.2468 1.3122,-0.3284 67.8522,-16.9715 136.9915,-28.7847 206.6226,-35.3661 45.4566,-4.2943 91.1217,-6.364 136.78,-6.2449 z m 4467.5427,6212.2578 c 0,808.2816 0,1616.5626 0,2424.8436 0,-0.402 -0,1.044 -0,1.377 -0.04,16.487 -0.11,32.973 -0.31,49.458 -0.161,13.938 -0.386,27.875 -0.675,41.811 -0.333,16.144 -0.758,32.285 -1.254,48.424 0.02,-0.501 -0.03,1.007 -0.04,1.342 -0.545,16.792 -1.165,33.581 -1.89,50.366 -0.329,7.823 -0.685,15.646 -1.069,23.466 -0.585,12.61 -1.291,25.399 -1.989,38.074 -0.904,15.77 -1.86,31.538 -2.935,47.297 -0.24,3.528 -0.484,7.192 -0.726,10.772 0.04,-0.502 -0.07,1.003 -0.09,1.338 -1.192,16.873 -2.459,33.74 -3.831,50.599 -1.842,22.763 -3.887,45.509 -6.07,68.241 -2.4,24.647 -4.966,49.278 -7.771,73.883 -1.622,14.307 -3.32,28.607 -5.082,42.898 -0.685,5.507 -1.373,11.014 -2.06,16.521 0.06,-0.508 -0.129,0.995 -0.173,1.327 -2.107,16.434 -4.279,32.859 -6.563,49.269 -1.223,8.921 -2.513,17.865 -3.794,26.731 -2.131,14.726 -4.339,29.441 -6.624,44.144 -3.759,24.248 -7.734,48.463 -11.889,72.647 -2.005,11.632 -4.07,23.255 -6.149,34.875 0.09,-0.484 -0.181,0.994 -0.241,1.323 -1.804,9.871 -3.597,19.744 -5.456,29.604 0.03,-0.178 -0.208,1.095 -0.286,1.495 -2.398,12.758 -4.851,25.505 -7.366,38.241 -4.059,20.659 -8.31,41.279 -12.651,61.88 -2.984,13.901 -5.974,27.887 -9.07,41.71 -3.502,15.82 -7.112,31.616 -10.8,47.393 -6.147,26.314 -12.529,52.574 -19.167,78.769 -5.978,23.632 -12.155,47.213 -18.523,70.743 -5.817,21.461 -11.782,42.882 -17.914,64.256 0.06,-0.196 -0.308,1.066 -0.42,1.455 -4.987,17.352 -10.074,34.675 -15.276,51.963 -5.183,17.247 -10.464,34.465 -15.867,51.644 -7.198,22.95 -14.595,45.837 -22.167,68.666 -8.183,24.616 -16.553,49.17 -25.169,73.638 -6.204,17.669 -12.529,35.296 -18.96,52.884 -5.993,16.372 -12.076,32.711 -18.262,49.011 -8.121,21.434 -16.42,42.8 -24.879,64.102 -9.039,22.782 -18.281,45.482 -27.694,68.112 -10.125,24.286 -20.441,48.492 -30.992,72.596 -7.397,16.926 -14.912,33.802 -22.516,50.637 -11.006,24.317 -22.222,48.539 -33.655,72.658 -11.547,24.351 -23.313,48.598 -35.299,72.737 -2.007,4.07 -4.046,8.124 -6.071,12.186 0.1,-0.192 -0.497,0.99 -0.678,1.35 -10.213,20.391 -20.587,40.702 -31.101,60.939 -12.087,23.222 -24.365,46.344 -36.854,69.353 -0.651,1.202 -1.302,2.405 -1.953,3.608 0.205,-0.37 -0.496,0.91 -0.655,1.203 -14.787,27.147 -29.837,54.15 -45.181,80.986 -9.647,16.872 -19.391,33.688 -29.26,50.432 -0.205,0.354 -0.609,1.034 -0.89,1.513 -12.136,20.609 -24.457,41.108 -36.923,61.518 -21.097,34.513 -42.656,68.743 -64.68,102.672 -15.251,23.52 -30.75,46.88 -46.44,70.109 -6.355,9.413 -12.765,18.789 -19.184,28.158 0.268,-0.382 -0.579,0.841 -0.768,1.116 -17.924,26.056 -36.111,51.931 -54.577,77.605 -16.083,22.374 -32.382,44.593 -48.871,66.669 -8.518,11.386 -17.079,22.741 -25.702,34.048 -0.139,0.188 -0.727,0.953 -1.04,1.364 -16.412,21.517 -33.021,42.885 -49.818,64.104 -23.916,30.21 -48.221,60.111 -72.907,89.696 -20.773,24.899 -41.814,49.576 -63.126,74.016 -17.778,20.405 -35.742,40.649 -53.895,60.722 -20.974,23.224 -42.208,46.212 -63.662,68.992 -18.511,19.644 -37.204,39.114 -56.057,58.429 -18.844,19.292 -37.867,38.41 -57.046,57.37 -19.18,18.936 -38.531,37.701 -58.035,56.305 -19.09,18.181 -38.334,36.2 -57.731,54.054 -3.2,2.961 -6.428,5.891 -9.642,8.837 -0.267,0.249 -0.886,0.81 -1.288,1.178 -25.147,22.997 -50.569,45.692 -76.232,68.11 -23.724,20.713 -47.659,41.183 -71.81,61.396 -16.28,13.626 -32.659,27.135 -49.125,40.536 0.342,-0.272 -0.801,0.65 -1.06,0.861 -2.594,2.1 -5.258,4.261 -7.785,6.302 -18.6,15.052 -37.321,29.953 -56.159,44.706 -25.253,19.765 -50.711,39.271 -76.377,58.498 -21.634,16.201 -43.411,32.212 -65.329,48.027 -21.785,15.705 -43.705,31.222 -65.761,46.544 -22.296,15.478 -44.729,30.759 -67.299,45.836 -22.267,14.864 -44.661,29.538 -67.186,44.008 -22.534,14.47 -45.198,28.738 -67.983,42.809 -23.21,14.328 -46.553,28.44 -70.019,42.346 -14.915,8.819 -29.867,17.574 -44.878,26.229 0.1,-0.05 -0.975,0.562 -1.335,0.77 -25.605,14.754 -51.357,29.254 -77.246,43.504 -25.019,13.754 -50.161,27.286 -75.438,40.561 -18.934,9.952 -37.942,19.761 -57.02,29.435 -20.391,10.358 -40.875,20.534 -61.426,30.57 -21.856,10.666 -43.801,21.15 -65.827,31.461 -24.789,11.6 -49.69,22.963 -74.685,34.113 -27.439,12.213 -54.99,24.173 -82.67,35.83 -14.028,5.923 -28.096,11.751 -42.181,17.536 0.463,-0.186 -0.933,0.381 -1.243,0.508 -2.669,1.088 -5.337,2.175 -8.005,3.263 0.143,-0.06 -1.037,0.419 -1.418,0.571 -17.188,6.985 -34.418,13.868 -51.694,20.635 -19.774,7.759 -39.612,15.359 -59.497,22.828 -21.455,8.054 -42.97,15.948 -64.549,23.663 -11.398,4.066 -22.799,8.126 -34.233,12.092 -0.738,0.262 -1.762,0.615 -2.61,0.912 -5.477,1.918 -10.963,3.805 -16.45,5.692 0.141,-0.05 -1.06,0.361 -1.449,0.492 -17.144,5.883 -34.322,11.665 -51.537,17.336 -23.887,7.879 -47.849,15.529 -71.863,23.009 -18.826,5.836 -37.684,11.569 -56.5835,17.161 -23.4103,6.939 -46.8817,13.67 -70.4029,20.223 -24.6701,6.855 -49.3922,13.524 -74.179,19.945 -14.446,3.763 -28.918,7.428 -43.4023,11.042 -17.4368,4.338 -34.8989,8.575 -52.3877,12.699 -23.8922,5.645 -47.8341,11.078 -71.8161,16.327 -21.6339,4.718 -43.2989,9.295 -64.9999,13.695 -13.4498,2.724 -26.9114,5.389 -40.3837,8 0.2002,-0.04 -1.0901,0.209 -1.4877,0.285 -21.6301,4.171 -43.2914,8.181 -64.9802,12.035 -24.168,4.293 -48.3728,8.377 -72.6089,12.266 -12.1634,1.965 -24.3408,3.843 -36.5189,5.715 0.541,-0.08 -0.9774,0.147 -1.3109,0.198 -16.5991,2.51 -33.213,4.92 -49.8353,7.272 -25.3323,3.525 -50.6882,6.882 -76.0767,9.977 -14.6123,1.806 -29.2373,3.511 -43.8674,5.166 -17.984,2.021 -35.9795,3.942 -53.9869,5.743 -24.3992,2.443 -48.8175,4.694 -73.2536,6.734 -14.0372,1.18 -28.0812,2.281 -42.1288,3.33 -17.8582,1.328 -35.7255,2.533 -53.5976,3.657 -15.8578,0.983 -31.7244,1.885 -47.56,2.706 -17.4887,0.895 -34.9817,1.706 -52.4797,2.394 -4.5388,0.19 -9.0786,0.355 -13.6179,0.532 0.4963,-0.01 -1.0082,0.04 -1.3432,0.05 -16.9486,0.62 -33.9009,1.128 -50.8548,1.579 -17.8336,0.423 -35.6685,0.792 -53.5056,1.031 -17.8165,0.229 -35.6342,0.377 -53.4522,0.405 -0.8237,0 -1.6474,0 -2.4712,0 0.1986,-0 -1.1111,0 -1.5164,-10e-4 -3.0583,0 -6.1166,0 -9.175,0 0.5016,0 -1.0068,-0 -1.3421,-0 -6.774,-0.02 -13.548,-0.05 -20.3219,-0.07 0.4907,0 -1.0111,-0 -1.3461,-0.01 -16.8614,-0.122 -33.7224,-0.3 -50.5816,-0.602 -4.2697,-0.07 -8.5391,-0.155 -12.8087,-0.232 0.539,0 -0.9912,-0.02 -1.3281,-0.03 -10.3472,-0.236 -20.6951,-0.448 -31.041,-0.741 0.2122,0 -1.1081,-0.03 -1.5118,-0.05 -12.9602,-0.361 -25.9189,-0.766 -38.8752,-1.246 -21.1373,-0.757 -42.2679,-1.692 -63.3924,-2.746 -15.5675,-0.798 -31.1331,-1.64 -46.6913,-2.605 -14.7513,-0.881 -29.6807,-1.893 -44.4943,-2.917 -16.2716,-1.173 -32.5394,-2.397 -48.7988,-3.728 -4.3183,-0.344 -8.634,-0.719 -12.951,-1.077 0.2533,0.02 -1.0962,-0.1 -1.4945,-0.131 -17.9364,-1.527 -35.8634,-3.163 -53.7807,-4.899 -16.2414,-1.576 -32.472,-3.26 -48.6971,-4.997 -21.6596,-2.364 -43.3057,-4.853 -64.9301,-7.52 0.1818,0.02 -1.1052,-0.138 -1.5091,-0.188 -13.0534,-1.609 -26.0988,-3.281 -39.1372,-5.008 -7.4362,-0.974 -14.9725,-2 -22.3361,-3.017 -16.0424,-2.197 -32.0706,-4.498 -48.0862,-6.883 -23.8189,-3.535 -47.6063,-7.28 -71.3635,-11.208 -17.4153,-2.879 -34.8135,-5.861 -52.1924,-8.953 -14.109,-2.502 -28.205,-5.078 -42.2878,-7.724 -23.8766,-4.473 -47.7131,-9.16 -71.5132,-14.023 -17.7013,-3.632 -35.3835,-7.358 -53.0413,-11.196 -17.0338,-3.713 -34.0493,-7.509 -51.0389,-11.42 -7.4945,-1.713 -14.981,-3.46 -22.463,-5.226 -0.9683,-0.231 -2.2063,-0.52 -3.2782,-0.773 -5.6053,-1.311 -11.2025,-2.655 -16.8,-3.998 0.1003,0.02 -1.095,-0.266 -1.4999,-0.365 -17.3728,-4.181 -34.7217,-8.46 -52.0419,-12.854 -17.7083,-4.492 -35.3916,-9.084 -53.0421,-13.797 -23.0679,-6.147 -46.0836,-12.489 -69.0477,-19.013 -8.263,-2.329 -16.5027,-4.741 -24.7551,-7.108 0.1895,0.06 -1.067,-0.31 -1.4564,-0.422 -20.7513,-6.036 -41.4588,-12.222 -62.1207,-18.557 -23.6395,-7.246 -47.2133,-14.705 -70.7304,-22.339 -24.8163,-8.081 -49.5715,-16.351 -74.2415,-24.869 -22.3591,-7.698 -44.6486,-15.597 -66.8804,-23.654 -16.8838,-6.129 -33.7332,-12.353 -50.5421,-18.685 -16.5339,-6.223 -33.0301,-12.547 -49.4875,-18.97 -22.7924,-8.885 -45.5002,-17.984 -68.1443,-27.239 -23.2971,-9.559 -46.5286,-19.278 -69.6615,-29.227 -17.0816,-7.328 -34.1134,-14.773 -51.1006,-22.318 -20.7438,-9.216 -41.4154,-18.595 -62.0174,-28.125 -24.2048,-11.202 -48.3048,-22.63 -72.3095,-34.255 -21.9824,-10.673 -43.8911,-21.498 -65.6991,-32.524 -22.275,-11.256 -44.4562,-22.698 -66.5392,-34.326 -21.9099,-11.529 -43.7184,-23.251 -65.4305,-35.149 -23.856,-13.07 -47.5941,-26.356 -71.2041,-39.865 -29.8421,-17.066 -59.4871,-34.477 -88.9273,-52.227 -26.8638,-16.197 -53.5602,-32.673 -80.0764,-49.433 -19.3563,-12.233 -38.6164,-24.617 -57.7868,-37.139 -24.4117,-15.96 -48.6742,-32.149 -72.7693,-48.583 -0.468,-0.314 -1.2124,-0.826 -1.7864,-1.216 -19.5445,-13.325 -38.9658,-26.831 -58.2982,-40.461 -25.8917,-18.278 -51.5908,-36.828 -77.0919,-55.647 -26.3143,-19.425 -52.4249,-39.127 -78.3057,-59.126 -24.6319,-19.003 -49.047,-38.286 -73.2772,-57.799 -20.92,-16.863 -41.6862,-33.916 -62.3106,-51.139 -20.9588,-17.521 -41.7516,-35.239 -62.3999,-53.125 -15.5412,-13.492 -31.0035,-27.075 -46.368,-40.768 0.1663,0.143 -0.8246,-0.739 -1.1242,-1.009 -23.2417,-20.732 -46.2693,-41.704 -69.0742,-62.915 -19.963,-18.559 -39.7545,-37.302 -59.3754,-56.222 -25.1646,-24.27 -50.0535,-48.827 -74.6482,-73.674 -23.7808,-24.028 -47.3011,-48.314 -70.5299,-72.876 -0.2741,-0.285 -0.8254,-0.872 -1.2056,-1.272 -19.9526,-21.081 -39.6801,-42.374 -59.221,-63.836 -9.3214,-10.258 -18.6076,-20.549 -27.8371,-30.89 -0.1938,-0.212 -0.7991,-0.895 -1.151,-1.289 -6.4501,-7.221 -12.876,-14.464 -19.2689,-21.736 -0.4241,-0.476 -1.0578,-1.201 -1.5623,-1.772 -15.7109,-17.849 -31.2687,-35.832 -46.6991,-53.924 -23.6326,-27.73 -46.9327,-55.744 -69.8829,-84.041 -19.609,-24.164 -38.9598,-48.537 -58.0612,-73.104 -18.4145,-23.675 -36.5775,-47.545 -54.5147,-71.584 -7.3542,-9.873 -14.6875,-19.763 -21.9576,-29.698 -0.2693,-0.36 -0.7496,-1.022 -1.0997,-1.498 -14.3577,-19.591 -28.5511,-39.303 -42.5824,-59.129 -4.8989,-6.934 -9.796,-13.869 -14.6577,-20.828 0.089,0.133 -0.6394,-0.917 -0.8742,-1.253 -13.0268,-18.637 -25.9074,-37.376 -38.6539,-56.206 -15.1073,-22.34 -30.0183,-44.813 -44.7354,-67.412 -9.3067,-14.326 -18.5467,-28.695 -27.6994,-43.12 0.04,0.05 -0.605,-0.956 -0.8296,-1.313 -12.4362,-19.619 -24.7243,-39.333 -36.8544,-59.144 -12.1523,-19.822 -24.1194,-39.757 -35.9708,-59.761 -13.1778,-22.324 -26.1861,-44.747 -38.9864,-67.29 -10.6506,-18.766 -21.1799,-37.602 -31.5639,-56.517 0.089,0.17 -0.5339,-0.976 -0.7294,-1.332 -10.6431,-19.407 -21.1425,-38.893 -31.4997,-58.455 -11.5483,-21.83 -22.9313,-43.747 -34.1127,-65.768 -0.5253,-1.046 -1.1769,-2.318 -1.7508,-3.451 -10.632,-20.938 -21.0741,-41.973 -31.3719,-63.077 -8.1175,-16.667 -16.1473,-33.377 -24.0512,-50.146 -11.1608,-23.615 -22.095,-47.337 -32.8305,-71.148 -10.0606,-22.31 -19.926,-44.708 -29.6208,-67.18 -3.1277,-7.235 -6.1985,-14.495 -9.3025,-21.74 0.095,0.232 -0.4302,-1.013 -0.5871,-1.382 -8.5193,-20.085 -16.8955,-40.232 -25.1176,-60.441 -9.0454,-22.204 -17.896,-44.488 -26.5819,-66.836 -5.4518,-14.062 -10.8528,-28.144 -16.1568,-42.263 -0.5386,-1.419 -1.1517,-3.057 -1.719,-4.56 -6.3633,-16.938 -12.6093,-33.92 -18.7635,-50.935 -7.7477,-21.434 -15.3314,-42.928 -22.7463,-64.479 -7.9222,-23.012 -15.6442,-46.091 -23.1896,-69.229 -8.2904,-25.463 -16.3623,-50.999 -24.1914,-76.608 -5.5435,-18.119 -10.9611,-36.276 -16.2828,-54.461 -6.3187,-21.696 -12.4929,-43.434 -18.4905,-65.22 -4.728,-17.173 -9.3578,-34.373 -13.8713,-51.603 -6.1222,-23.31 -12.044,-46.672 -17.7842,-70.079 -4.2875,-17.518 -8.4746,-35.061 -12.557,-52.628 -4.9912,-21.507 -9.8168,-43.053 -14.4967,-64.63 -3.7973,-17.57 -7.4946,-35.162 -11.084,-52.776 -1.1378,-5.636 -2.2757,-11.273 -3.4135,-16.909 0.045,0.24 -0.2154,-1.081 -0.2943,-1.474 -4.1788,-20.984 -8.2095,-41.998 -12.0943,-63.039 -2.3338,-12.796 -4.6744,-25.591 -6.9005,-38.407 -0.2705,-1.564 -0.586,-3.349 -0.8738,-4.998 -2.4571,-14.096 -4.8473,-28.205 -7.1597,-42.326 -1.8987,-11.625 -3.7873,-23.253 -5.5836,-34.895 -2.2922,-14.58 -4.4826,-29.299 -6.6402,-43.947 -2.3583,-16.265 -4.6486,-32.539 -6.8452,-48.827 -2.341,-17.483 -4.5936,-34.979 -6.7375,-52.488 -1.3245,-10.676 -2.5533,-21.324 -3.8076,-31.988 -0.1208,-1.022 -0.037,-0.323 -0.1401,-1.228 -1.8831,-16.568 -3.7159,-33.141 -5.4212,-49.728 -2.3749,-22.847 -4.543,-45.714 -6.574,-68.593 -0.53,-6.181 -1.0601,-12.362 -1.5901,-18.542 0.013,0.186 -0.093,-1.11 -0.1272,-1.515 -1.821,-21.816 -3.4796,-43.646 -4.9828,-65.486 -1.6744,-24.53 -3.1765,-49.072 -4.4464,-73.626 -0.7699,-14.474 -1.4381,-28.953 -2.0662,-43.433 -0.7738,-18.259 -1.4401,-36.522 -2.0019,-54.788 -0.7435,-24.8 -1.3068,-49.606 -1.647,-74.415 -0.2102,-14.177 -0.3236,-28.356 -0.3999,-42.534 -0.02,-7.134 -0.043,-14.268 -0.065,-21.403 0,0.371 7e-4,-1.041 0,-1.373 0,-807.221 0,-1614.441 0,-2421.6618 2195.9095,0 4391.819,0 6587.7285,0 142.922,-0.014 285.869,-0 428.8,-0.01 642.132,0 1284.265,0 1926.397,0 z m -4471.8884,750.9316 c -50.1386,0.03 -100.2773,2.249 -150.2157,6.735 -64.6065,5.8 -128.876,15.361 -192.3677,28.646 -53.2426,11.148 -105.9398,24.903 -157.8321,41.221 -60.8452,19.128 -120.5804,41.782 -178.8237,67.775 -50.1307,22.379 -99.1569,47.234 -146.8373,74.446 -57.2828,32.685 -112.6326,68.756 -165.6704,107.956 -93.2313,68.895 -179.3131,147.454 -256.4358,234.003 -48.3377,54.236 -93.1739,111.595 -134.1022,171.62 -34.8392,51.089 -66.8456,104.107 -95.8257,158.733 -26.4893,49.936 -50.4401,101.219 -71.72,153.588 -23.4876,57.799 -43.7142,116.923 -60.5454,176.999 -18.6369,66.498 -33.1024,134.162 -43.3176,202.462 -16.2474,108.578 -21.7032,218.753 -16.515,328.413 3.1648,66.767 10.321,133.345 21.4501,199.254 10.8708,64.366 25.543,128.088 43.9182,190.725 21.8302,74.39 48.8727,147.25 80.8762,217.863 36.2844,80.073 78.9175,157.266 127.3394,230.638 35.0265,53.084 73.0793,104.169 113.8868,152.949 40.6677,48.601 84.0799,94.905 129.9589,138.621 44.522,42.426 91.3676,82.414 140.2575,119.724 103.355,78.882 215.8969,145.734 334.6844,198.605 9.866,4.394 19.775,8.692 29.7258,12.891 0,510.58 -0,1021.16 0,1531.739 0.086,61.569 8.9023,123.134 26.2985,182.2 21.3234,72.604 55.6037,141.36 100.6337,202.167 45.7328,61.838 102.5226,115.475 166.9007,157.561 35.9518,23.527 74.2542,43.459 114.1495,59.41 40.2169,16.076 82.0596,28.077 124.6813,35.772 40.9964,7.395 82.7019,10.837 124.3558,10.289 57.8108,-0.728 115.5293,-9.172 171.0927,-25.165 37.4953,-10.785 74.0002,-24.998 108.9348,-42.368 48.2113,-23.984 93.4191,-53.996 134.2291,-89.126 44.0125,-37.854 82.9428,-81.613 115.3736,-129.764 25.5991,-37.981 47.1517,-78.687 64.1745,-121.209 17.6748,-44.142 30.4293,-90.248 37.9742,-137.194 5.4986,-34.173 8.2542,-68.783 8.2617,-103.394 0.024,-5.205 -3e-4,-10.41 -0,-15.615 0,-0.04 0,-1.143 0,-1.581 0.01,-504.572 0,-1009.144 0,-1513.716 116.2018,-49.047 226.7901,-111.352 329.0199,-185.222 99.395,-71.796 190.9088,-154.49 272.3867,-246.116 68.1257,-76.594 129.2517,-159.416 182.2987,-247.132 42.084,-69.587 79.1,-142.242 110.596,-217.219 28.567,-68.007 52.604,-137.916 71.88,-209.117 20.224,-74.713 35.203,-150.844 44.821,-227.646 12.972,-103.535 16.195,-208.276 9.821,-312.421 -4.27,-69.441 -12.849,-138.62 -25.744,-206.989 -11.946,-63.378 -27.597,-126.058 -46.839,-187.616 -14.329,-45.838 -30.644,-91.055 -48.893,-135.478 -25.868,-63.016 -55.637,-124.427 -89.021,-183.804 -21.178,-37.643 -43.803,-74.472 -67.82,-110.371 -74.388,-111.228 -162.1364,-213.503 -260.6995,-304.002 -38.8147,-35.637 -79.2943,-69.461 -121.2733,-101.31 -42.2431,-32.035 -85.9877,-62.091 -131.0691,-89.991 -43.5848,-26.974 -88.4021,-51.959 -134.2778,-74.822 -60.1376,-29.963 -122.0824,-56.302 -185.4007,-78.779 -53.3409,-18.947 -107.6565,-35.144 -162.6532,-48.543 -57.3337,-13.958 -115.4124,-24.848 -173.9033,-32.642 -66.9577,-8.909 -134.4545,-13.745 -201.9969,-14.532 -6.729,-0.07 -13.4582,-0.111 -20.1876,-0.121 z m 2.9981,1297.078 c 43.4253,0.263 86.8147,8.084 127.5257,23.224 41.9883,15.565 81.0977,38.792 114.9702,68.073 38.7041,33.427 70.5949,74.742 92.9317,120.759 17.1388,35.252 28.6818,73.224 33.9713,112.066 7.4278,54.277 3.0103,110.202 -13.3045,162.522 -13.6057,43.843 -35.45,85.088 -63.9359,121.078 -28.9025,36.596 -64.6087,67.807 -104.7922,91.477 -36.4272,21.504 -76.5304,36.783 -118.0647,44.827 -53.7001,10.436 -109.6833,9.025 -162.7673,-4.215 -34.6551,-8.637 -68.0293,-22.343 -98.8023,-40.464 -37.9149,-22.305 -71.8625,-51.308 -99.8681,-85.227 -27.5205,-33.272 -49.2866,-71.304 -63.8976,-111.941 -11.4085,-31.614 -18.429,-64.792 -20.9415,-98.303 -3.5414,-47.234 1.7624,-95.162 15.9692,-140.366 13.0823,-41.836 33.6645,-81.292 60.3663,-116.046 25.9958,-33.889 57.7495,-63.352 93.5234,-86.69 34.0694,-22.258 71.7786,-38.954 111.2062,-49.059 31.2866,-8.028 63.6126,-11.95 95.9101,-11.715 z" />
    </g>
  </g>
</svg>
