<?xml version="1.0" encoding="UTF-8" standalone="no"?>
<svg
   width="22"
   height="22"
   viewBox="0 0 22 22"
   fill="none"
   version="1.1"
   id="svg2"
   sodipodi:docname="document-import.svg"
   inkscape:version="1.3.2 (091e20ef0f, 2023-11-25, custom)"
   xmlns:inkscape="http://www.inkscape.org/namespaces/inkscape"
   xmlns:sodipodi="http://sodipodi.sourceforge.net/DTD/sodipodi-0.dtd"
   xmlns:xlink="http://www.w3.org/1999/xlink"
   xmlns="http://www.w3.org/2000/svg"
   xmlns:svg="http://www.w3.org/2000/svg">
  <sodipodi:namedview
     id="namedview2"
     pagecolor="#ffffff"
     bordercolor="#666666"
     borderopacity="1.0"
     inkscape:showpageshadow="2"
     inkscape:pageopacity="0.0"
     inkscape:pagecheckerboard="0"
     inkscape:deskcolor="#d1d1d1"
     inkscape:zoom="16"
     inkscape:cx="0.5"
     inkscape:cy="12.6875"
     inkscape:current-layer="svg2" />
  <defs
     id="defs2">
    <linearGradient
       id="linearGradient12"
       inkscape:collect="always">
      <stop
         style="stop-color:#00f1fa;stop-opacity:1;"
         offset="0"
         id="stop12" />
      <stop
         style="stop-color:#006cff;stop-opacity:1;"
         offset="1"
         id="stop13" />
    </linearGradient>
    <linearGradient
       id="linearGradient5"
       inkscape:collect="always">
      <stop
         style="stop-color:#00f1fa;stop-opacity:1;"
         offset="0"
         id="stop5" />
      <stop
         style="stop-color:#006cff;stop-opacity:1;"
         offset="1"
         id="stop11" />
    </linearGradient>
    <linearGradient
       id="linearGradient4"
       x1="8.3811054"
       y1="22.658428"
       x2="18.558937"
       y2="18.003653"
       gradientUnits="userSpaceOnUse"
       gradientTransform="translate(2.416926,-2.720783)">
      <stop
         stop-color="#5570FF"
         id="stop3" />
      <stop
         offset="1"
         stop-color="#4DD3FF"
         id="stop4"
         style="stop-color:#000000;stop-opacity:1;" />
    </linearGradient>
    <linearGradient
       id="linearGradient10"
       x1="0.22078557"
       y1="0.047239967"
       x2="0.9022491"
       y2="0.90614605"
       gradientTransform="matrix(43.5,0,0,44,5,2)"
       gradientUnits="userSpaceOnUse"
       spreadMethod="pad">
      <stop
         offset="0"
         stop-opacity="1"
         style="stop-color:#00f1fa;stop-opacity:1;"
         id="stop9" />
      <stop
         offset="1"
         stop-opacity="1"
         style="stop-color:#006cff;stop-opacity:1;"
         id="stop10" />
    </linearGradient>
    <linearGradient
       id="linearGradient8"
       x1="0.22078557"
       y1="0.047239967"
       x2="0.9022491"
       y2="0.90614605"
       gradientTransform="matrix(43.5,0,0,44,5,2)"
       gradientUnits="userSpaceOnUse"
       spreadMethod="pad">
      <stop
         offset="0"
         stop-opacity="1"
         style="stop-color:#00f1fa;stop-opacity:1;"
         id="stop7" />
      <stop
         offset="1"
         stop-opacity="1"
         style="stop-color:#006cff;stop-opacity:1;"
         id="stop8" />
    </linearGradient>
    <linearGradient
       id="paint0_linear_451_3107"
       x1="2.75"
       y1="20.625"
       x2="19.5937"
       y2="11"
       gradientUnits="userSpaceOnUse"
       gradientTransform="translate(1.1344627,0.55684551)">
      <stop
         id="stop1"
         offset="0"
         style="stop-color:#00f1fa;stop-opacity:1;" />
      <stop
         offset="1"
         id="stop2"
         style="stop-color:#006cff;stop-opacity:1;" />
    </linearGradient>
    <linearGradient
       id="linearGradient11746"
       x1="0.22078557"
       y1="0.047239967"
       x2="0.9022491"
       y2="0.90614605"
       gradientTransform="matrix(43.5,0,0,44,5,2)"
       gradientUnits="userSpaceOnUse"
       spreadMethod="pad">
      <stop
         offset="0"
         stop-opacity="1"
         style="stop-color:#00f1fa;stop-opacity:1;"
         id="stop11742" />
      <stop
         offset="1"
         stop-opacity="1"
         style="stop-color:#006cff;stop-opacity:1;"
         id="stop11744" />
    </linearGradient>
    <linearGradient
       inkscape:collect="always"
       xlink:href="#linearGradient11746"
       id="linearGradient8262-2"
       gradientUnits="userSpaceOnUse"
       gradientTransform="matrix(12.487142,0,0,13.735855,2.4557873,2.012269)"
       x1="-0.050452162"
       y1="1.0821536"
       x2="1.0500685"
       y2="0.49975216" />
    <linearGradient
       inkscape:collect="always"
       xlink:href="#linearGradient8"
       id="linearGradient7"
       gradientUnits="userSpaceOnUse"
       gradientTransform="matrix(12.611175,0,0,-13.872292,3.6892218,15.397661)"
       x1="-0.14776084"
       y1="-0.1066091"
       x2="0.94193602"
       y2="0.47006425" />
    <linearGradient
       id="paint2_linear_451_3175"
       x1="8.3811054"
       y1="22.658428"
       x2="18.558937"
       y2="18.003653"
       gradientUnits="userSpaceOnUse"
       gradientTransform="translate(2.416926,-2.720783)"
       xlink:href="#linearGradient4">
      <stop
         stop-color="#5570FF"
         id="stop6" />
      <stop
         offset="1"
         stop-color="#4DD3FF"
         id="stop7-7" />
    </linearGradient>
    <linearGradient
       inkscape:collect="always"
       xlink:href="#linearGradient5"
       id="linearGradient11"
       x1="10.798031"
       y1="20.498365"
       x2="20.975863"
       y2="15.843588"
       gradientUnits="userSpaceOnUse"
       gradientTransform="matrix(0.89129695,0,0,0.89129695,1.8757478,-0.57331019)" />
    <linearGradient
       inkscape:collect="always"
       xlink:href="#linearGradient12"
       id="linearGradient13"
       x1="10.798031"
       y1="20.498365"
       x2="20.975863"
       y2="15.843588"
       gradientUnits="userSpaceOnUse"
       gradientTransform="matrix(0.89129695,0,0,0.89129695,1.8757478,-0.57331019)" />
  </defs>
  <g
     id="g1"
     transform="translate(-0.198627,1.6367581)">
    <path
       id="path6479-9"
       style="display:inline;isolation:isolate;fill:url(#linearGradient8262-2);fill-opacity:1;stroke-width:0.312178"
       d="M 3.98579,0.38537459 C 2.9201231,0.37841459 1.9471891,1.2578594 1.8436719,2.3179976 c -0.035775,1.0768091 -0.00504,2.1564326 -0.015311,3.2343103 0.00461,2.5968963 -0.00921,6.6943031 0.00686,9.2909211 0.052832,1.075243 1.0081548,2.00534 2.0846736,2.02824 1.6356227,0.0054 3.2720176,0.0087 4.9075699,-0.0016 0.7365007,-0.05419 1.2902506,-0.848808 1.0832146,-1.557499 -0.137744,-0.60306 -0.7624039,-1.006345 -1.3680544,-0.940537 -1.3213803,-0.0045 -2.6436643,0.009 -3.9644804,-0.0068 -0.3098244,-0.06556 -0.2443723,-0.432414 -0.2462486,-0.667199 0.00409,-3.01998 -0.00817,-7.5408067 0.00613,-10.5602982 0.0585,-0.3002521 0.4082369,-0.2548178 0.6364485,-0.2499239 1.1652951,0.00544 2.3337363,-0.010794 3.4970979,0.00796 0.2372708,0.1569423 0.3995167,0.4168484 0.6096921,0.6107526 1.4767059,1.5665085 2.9429039,3.1444698 4.4261489,4.7038511 0.548371,0.4946469 1.507098,0.3431191 1.874431,-0.2977037 0.342822,-0.5246022 0.19205,-1.2626595 -0.284831,-1.653631 C 13.474446,4.556362 11.865638,2.8399706 10.234512,1.146148 9.6099112,0.60095039 8.7655819,0.32396569 7.9390096,0.38473709 6.6212773,0.38514539 5.303513,0.38392179 3.9858004,0.38536499 Z"
       sodipodi:nodetypes="ccccccccccccccccccccc" />
    <path
       id="path7"
       style="display:inline;isolation:isolate;fill:url(#linearGradient7);fill-opacity:1;stroke-width:0.315279"
       d="m 15.644592,5.0842682 c -0.628807,0.0034 -1.17346,-0.581875 -1.13144,-1.208171 -0.01009,-0.438126 0.02015,-0.879971 -0.01501,-1.315851 -0.05798,-0.256304 -0.342937,-0.348684 -0.577262,-0.312539 -0.449351,-0.01668 -0.904774,0.03556 -1.350127,-0.0303 -0.627627,-0.127756 -1.045031,-0.837158 -0.848965,-1.44729901 0.141271,-0.534666 0.698483,-0.89063997 1.242376,-0.83509797 0.671658,0.01051 1.345193,-0.02106 2.015724,0.01574 0.971613,0.10197297 1.789051,0.96127397 1.840753,1.93698698 0.0075,0.728299 0.0141,1.458464 -0.0035,2.186305 -0.06334,0.57433 -0.594242,1.033393 -1.172528,1.010233 z"
       sodipodi:nodetypes="cccccccccccc" />
    <path
       d="m 15.867384,12.814083 h 3.790418 c 0.356786,0 0.646279,0.289493 0.646279,0.646369 v 0.175229 c 0,0.356786 -0.289493,0.646189 -0.646279,0.646189 h -3.790418 c -0.575778,0 -0.864024,0.695925 -0.456968,1.103159 l 0.819101,0.819102 c 0.252416,0.252326 0.252416,0.661521 0,0.913758 l -0.12389,0.124068 c -0.252326,0.252237 -0.661431,0.252237 -0.913847,-1.78e-4 l -3.236834,-3.236834 c -0.252317,-0.252415 -0.252317,-0.661521 0,-0.913847 L 15.19187,9.854264 c 0.252326,-0.2524147 0.661431,-0.2524147 0.913757,-8.9e-5 l 0.12389,0.12389 c 0.252416,0.252326 0.252416,0.661521 0,0.913847 l -0.819101,0.819191 c -0.407056,0.407144 -0.11881,1.10298 0.456968,1.10298 z"
       fill="url(#paint2_linear_451_3175)"
       stroke="url(#paint3_linear_451_3175)"
       stroke-width="0.534778"
       id="path2"
       style="fill:url(#linearGradient11);fill-opacity:1;stroke:url(#linearGradient13)"
       sodipodi:nodetypes="ssssssccccccccscccs" />
  </g>
</svg>
