<?xml version="1.0" encoding="UTF-8" standalone="no"?>
<svg
   width="24"
   height="24"
   viewBox="0 0 24 24"
   fill="none"
   version="1.1"
   id="svg1265"
   sodipodi:docname="document-save.svg"
   inkscape:version="1.3.2 (091e20ef0f, 2023-11-25, custom)"
   xmlns:inkscape="http://www.inkscape.org/namespaces/inkscape"
   xmlns:sodipodi="http://sodipodi.sourceforge.net/DTD/sodipodi-0.dtd"
   xmlns:xlink="http://www.w3.org/1999/xlink"
   xmlns="http://www.w3.org/2000/svg"
   xmlns:svg="http://www.w3.org/2000/svg">
  <sodipodi:namedview
     id="namedview1267"
     pagecolor="#ffffff"
     bordercolor="#666666"
     borderopacity="1.0"
     inkscape:showpageshadow="2"
     inkscape:pageopacity="0.0"
     inkscape:pagecheckerboard="0"
     inkscape:deskcolor="#d1d1d1"
     showgrid="true"
     inkscape:zoom="16"
     inkscape:cx="7.59375"
     inkscape:cy="14.125"
     inkscape:current-layer="svg1265">
    <inkscape:grid
       type="xygrid"
       id="grid5210"
       originx="0"
       originy="0"
       spacingy="1"
       spacingx="1"
       units="px"
       visible="true" />
  </sodipodi:namedview>
  <path
     d="M 17,3 H 5 C 4.46957,3 3.96086,3.21071 3.58579,3.58579 3.21071,3.96086 3,4.46957 3,5 v 14 c 0,0.5304 0.21071,1.0391 0.58579,1.4142 C 3.96086,20.7893 4.46957,21 5,21 h 14 c 1.1,0 2,-0.9 2,-2 V 7 Z m 2,16 H 5 V 5 H 16.17 L 19,7.83 Z m -7,-7 c -1.66,0 -3,1.34 -3,3 0,1.66 1.34,3 3,3 1.66,0 3,-1.34 3,-3 0,-1.66 -1.34,-3 -3,-3 z M 6,6 h 9 v 4 H 6 Z"
     fill="url(#paint0_linear)"
     id="path1254"
     style="display:none;fill:url(#paint0_linear)" />
  <g
     id="g2"
     transform="matrix(0.14516129,0,0,0.14516129,2.7096774,2.7096774)">
    <path
       d="M 97,124 V 87 c 0,-3.3137 -2.6863,-6 -6,-6 H 37 c -3.3137,0 -6,2.6863 -6,6 v 37"
       stroke-width="12"
       id="path1"
       style="stroke:url(#linearGradient1)" />
    <path
       d="m 33,115.667 h 62 l -3.2292,8.073 H 33 Z m 72.333,0 h 10.334 V 43.3333 c 0,-0.7534 -0.269,-1.7895 -0.808,-3.108 -0.538,-1.3186 -1.076,-2.247 -1.614,-2.7852 L 90.5599,14.7552 C 90.0217,14.217 89.1068,13.6788 87.8151,13.1406 86.5234,12.6024 85.474,12.3333 84.6667,12.3333 v 26.697922 c 0,2.1527 -0.7535,3.9826 -2.2605,5.4895 -1.5069,1.507 -3.3368,2.2605 -5.4895,2.2605 h -46.5 c -2.1528,0 -3.9827,-0.7535 -5.4896,-2.2605 -1.507,-1.5069 -2.2604,-3.3368 -2.2604,-5.4895 V 12.3333 H 12.3333 V 115.667 H 22.6667 33 c 2.9062,0 -11.8403,4.09 -10.3333,2.583 1.5069,-1.507 3.3368,-2.26 5.4895,-2.26 h 67.1667 c 2.1528,0 3.9827,0.753 5.4891,2.26 1.507,1.507 -9.0412,-2.583 -5.812,-2.583 z M 126,43.3333 V 118.25 c 0,2.153 -0.753,3.983 -2.26,5.49 -1.507,1.507 -3.337,2.26 -5.49,2.26 H 9.75 C 7.59722,126 5.76736,125.247 4.26042,123.74 2.75347,122.233 2,120.403 2,118.25 V 9.75 C 2,7.59722 2.75347,5.76736 4.26042,4.26042 5.76736,2.75347 7.59722,2 9.75,2 h 74.9167 c 2.1527,0 4.5208,0.53819 7.1041,1.61458 2.5834,1.07639 4.6285,2.36806 6.1354,3.875 L 120.51,30.0938 c 1.507,1.5069 2.799,3.552 3.875,6.1354 1.077,2.5833 1.615,4.9514 1.615,7.1041 z"
       id="path2"
       style="display:inline;fill:url(#linearGradient2)"
       sodipodi:nodetypes="cccccccscccscscsscsccccscsscscsssssssscssccccs" />
  </g>
  <defs
     id="defs1263">
    <linearGradient
       id="paint0_linear"
       x1="5"
       y1="21"
       x2="12"
       y2="3"
       gradientUnits="userSpaceOnUse">
      <stop
         id="stop1256"
         offset="0"
         style="stop-color:#00f1fa;stop-opacity:1;" />
      <stop
         offset="1"
         id="stop1258"
         style="stop-color:#006cff;stop-opacity:1;" />
    </linearGradient>
    <linearGradient
       id="paint0_linear-6"
       x1="33"
       y1="123.74"
       x2="126"
       y2="64"
       gradientUnits="userSpaceOnUse">
      <stop
         id="stop2"
         offset="0"
         style="stop-color:#00f1fa;stop-opacity:1;" />
      <stop
         offset="1"
         id="stop3"
         style="stop-color:#006cff;stop-opacity:1;" />
    </linearGradient>
    <linearGradient
       inkscape:collect="always"
       xlink:href="#paint0_linear-6"
       id="linearGradient1"
       gradientUnits="userSpaceOnUse"
       x1="64"
       y1="126"
       x2="126"
       y2="43.333302" />
    <linearGradient
       inkscape:collect="always"
       xlink:href="#paint0_linear-6"
       id="linearGradient2"
       gradientUnits="userSpaceOnUse"
       x1="64"
       y1="126"
       x2="126"
       y2="43.333302" />
  </defs>
</svg>
