<?xml version="1.0" encoding="UTF-8" standalone="no"?>
<svg
   width="16"
   height="16"
   viewBox="0 0 16 16"
   fill="none"
   version="1.1"
   id="svg2"
   sodipodi:docname="document-send.svg"
   inkscape:version="1.3.2 (091e20ef0f, 2023-11-25, custom)"
   xmlns:inkscape="http://www.inkscape.org/namespaces/inkscape"
   xmlns:sodipodi="http://sodipodi.sourceforge.net/DTD/sodipodi-0.dtd"
   xmlns="http://www.w3.org/2000/svg"
   xmlns:svg="http://www.w3.org/2000/svg">
  <sodipodi:namedview
     id="namedview2"
     pagecolor="#ffffff"
     bordercolor="#666666"
     borderopacity="1.0"
     inkscape:showpageshadow="2"
     inkscape:pageopacity="0.0"
     inkscape:pagecheckerboard="0"
     inkscape:deskcolor="#d1d1d1"
     inkscape:zoom="48.5625"
     inkscape:cx="8"
     inkscape:cy="8"
     inkscape:current-layer="svg2" />
  <path
     d="M2.25461 2.53769C1.82649 2.35421 1.40213 2.80426 1.61043 3.22087L3.8882 7.77639C3.95858 7.91716 3.95858 8.08284 3.8882 8.22361L1.61043 12.7791C1.40213 13.1957 1.82649 13.6458 2.25461 13.4623L13.9277 8.45957C14.3317 8.28641 14.3317 7.71359 13.9277 7.54043L2.25461 2.53769ZM3.72562 5.21687C3.51732 4.80027 3.94165 4.35022 4.36977 4.53368L11.3865 7.54042C11.7906 7.71357 11.7906 8.28643 11.3865 8.45958L4.36977 11.4663C3.94165 11.6498 3.51732 11.1997 3.72562 10.7831L5.00538 8.22361C5.07577 8.08284 5.07577 7.91716 5.00538 7.77639L3.72562 5.21687Z"
     fill="url(#paint0_linear)"
     id="path1"
     style="fill:url(#paint0_linear)" />
  <defs
     id="defs2">
    <linearGradient
       id="paint0_linear"
       x1="1.61043"
       y1="12.7791"
       x2="13.9277"
       y2="7.5404301"
       gradientUnits="userSpaceOnUse">
      <stop
         stop-color="#b900ff"
         id="stop1" />
      <stop
         offset="1"
         stop-color="#6444ff"
         id="stop2" />
    </linearGradient>
  </defs>
</svg>
