<?xml version="1.0" encoding="UTF-8" standalone="no"?>
<svg
   width="22"
   height="22"
   viewBox="0 0 22 22"
   fill="none"
   version="1.1"
   id="svg2"
   sodipodi:docname="edit-duplicate.svg"
   inkscape:version="1.3.2 (091e20ef0f, 2023-11-25, custom)"
   xmlns:inkscape="http://www.inkscape.org/namespaces/inkscape"
   xmlns:sodipodi="http://sodipodi.sourceforge.net/DTD/sodipodi-0.dtd"
   xmlns:xlink="http://www.w3.org/1999/xlink"
   xmlns="http://www.w3.org/2000/svg"
   xmlns:svg="http://www.w3.org/2000/svg">
  <sodipodi:namedview
     id="namedview2"
     pagecolor="#ffffff"
     bordercolor="#666666"
     borderopacity="1.0"
     inkscape:showpageshadow="2"
     inkscape:pageopacity="0.0"
     inkscape:pagecheckerboard="0"
     inkscape:deskcolor="#d1d1d1"
     inkscape:zoom="22.627417"
     inkscape:cx="2.9389126"
     inkscape:cy="15.909903"
     inkscape:current-layer="svg2" />
  <path
     id="path11"
     style="display:inline;isolation:isolate;fill:url(#linearGradient13);fill-opacity:1;stroke-width:0.312178"
     d="m 9.9857679,1.1290307 c 0,0 -1.0787837,-3.119e-4 -1.6171877,0.017578 -1.0601371,0.1035169 -1.9386006,1.0769122 -1.9316406,2.1425781 -3.758e-4,0.3430995 1.238e-4,0.5773024 0,1.0292969 -0.8323443,-0.00352 -1.1201174,-0.0022 -2.3710938,0.00195 -1.0765169,0.0229 -2.0292013,0.9521029 -2.0820312,2.0273438 -0.0112,1.8146332 -0.00781,5.4453125 -0.00781,5.4453125 0,1e-6 -0.00913,0.641266 0,1.353516 0.047416,0.644437 0.6614611,1.149593 1.2890625,1.126953 0.089658,-0.0032 0.1789882,-0.01709 0.2675781,-0.04297 0.5757614,-0.131508 0.9700856,-0.706154 0.9472656,-1.285156 l 0.00586,0.0078 c -0.0143,-3.0194852 -0.00371,-2.439011 -0.00781,-5.4589851 0.00188,-0.2347838 -0.063731,-0.6024088 0.2460937,-0.6679688 1.091135,-0.013 0.48437,-0.00808 1.5761719,-0.00781 0.01643,8e-4 0.032338,0.0016 0.048828,0.00195 0.028626,9.92e-5 0.057299,-9.22e-5 0.085938,0 1.48e-5,0.055226 0,0.421875 0,0.421875 h 0.00195 c 6.641e-4,0.5898447 0.00204,1.1820892 0.00586,1.7890626 0.05419,0.7365004 0.8479504,1.2890673 1.5566407,1.0820313 0.6030594,-0.137744 1.0072142,-0.7615382 0.9414062,-1.3671876 0.00112,-0.3290235 3.813e-4,-0.652846 0,-0.9726563 l 0.00586,0.00195 c 0,0 -0.00199,-1.180647 -0.00391,-2.109375 0.00119,-0.259142 7.305e-4,-0.5196742 0.00391,-0.7851563 l -0.00586,-0.00193 c -7.648e-4,-0.251602 -0.00102,-0.4011653 -0.00195,-0.6015625 -0.00489,-0.2282108 -0.050252,-0.5782188 0.25,-0.6367187 3.0194887,-0.0143 5.0404617,-0.00176 8.0604387,-0.00586 0.234785,0.00188 0.600456,-0.06373 0.666016,0.2460937 0.0158,1.3208147 0.0033,-0.155364 0.0078,1.1660157 -0.06581,0.6056493 0.336393,1.2294436 0.939453,1.3671874 0.70869,0.2070358 1.504404,-0.3474841 1.558593,-1.0839843 0.0103,-1.6355504 0.0074,-0.4718015 0.002,-2.1074219 -0.0229,-1.0765179 -0.954055,-2.0311544 -2.029297,-2.0839844 -2.596614,-0.0161 -6.790905,-0.00781 -6.790905,-0.00781 z m 9.1580931,6.6269531 c -0.603591,0.014004 -1.17498,0.5055311 -1.220703,1.1269531 -0.0097,1.5478611 -0.0068,3.0104061 -0.002,4.5488281 2.76e-4,0.08716 -2.9e-4,0.17012 0,0.257813 l 0.0039,-0.002 c -0.0032,0.18566 -0.04073,0.367826 -0.25,0.412109 -1.320815,0.0158 -1.641683,0.0018 -2.963063,0.0063 -0.605649,-0.06581 -1.231396,0.338348 -1.36914,0.941407 -0.207036,0.708691 0.347484,1.50245 1.083984,1.55664 0.556036,0.0035 0.111974,0.0046 0.668141,0.0054 5.98e-4,0.914196 0.0046,0.462705 -0.0078,1.507812 -0.06556,0.309825 -0.433184,0.244218 -0.667968,0.246094 -3.019974,-0.0041 -1.539001,0.0065 -4.5584841,-0.0078 l 0.0078,0.0078 c -0.5790011,-0.02282 -1.1536481,0.371504 -1.285156,0.947266 -0.02588,0.08859 -0.039739,0.17792 -0.042969,0.267578 -0.02264,0.627601 0.4825158,1.241646 1.1269531,1.289062 0.642393,0.0098 1.453125,0 1.453125,0 0,0 2.63057,0.0034 4.445203,-0.0078 1.075242,-0.05283 2.004444,-1.007468 2.027344,-2.083985 0.0038,-1.14475 0.0062,-1.504129 0.0039,-2.167968 0.245503,-6.77e-4 0.490855,-0.0011 0.736328,-0.002 1.076518,-0.0229 2.033108,-0.952101 2.085938,-2.027343 0.0056,-0.902775 0.0055,-1.170768 0.0059,-1.546875 h 0.002 c -8.39e-4,-0.07015 -0.0013,-0.137412 -0.002,-0.207032 2e-5,-0.606744 -0.0028,-1.12408 0,-2.697265 -0.0051,-0.5350049 -0.0037,-0.7310075 -0.002,-0.7968754 h -0.002 c -1.29e-4,-0.055164 1.89e-4,-0.1085646 0,-0.1640625 0.06592,-0.6055494 -0.338236,-1.2293437 -0.941295,-1.3670875 -0.110733,-0.032349 -0.224162,-0.045562 -0.335938,-0.042969 z m 1.279297,1.5742188 h 0.0039 c 0,0 -0.0022,-0.066837 -0.0039,0 z M 7.5111583,11.517703 c -0.5350501,0.03346 -1.0050719,0.471311 -1.0644531,1.009766 -0.0176,0.727867 -0.011406,1.457219 -0.00391,2.185546 0.051702,0.97575 0.8701869,1.835523 1.8417969,1.9375 0.6705304,0.0368 1.3439684,0.0051 2.0156249,0.01563 0.543893,0.05554 1.100917,-0.299299 1.242188,-0.833984 0.196065,-0.610165 -0.221984,-1.319505 -0.84961,-1.447266 -0.445353,-0.06586 -0.9002586,-0.01457 -1.3496091,-0.03125 -0.2343238,0.03615 -0.5201451,-0.05619 -0.578125,-0.3125 -0.03516,-0.435896 -0.00357,-0.878263 -0.013672,-1.316406 0.04202,-0.626319 -0.5040071,-1.210431 -1.1328125,-1.207031 -0.036143,-0.0014 -0.071752,-0.0022 -0.1074219,0 z m -4.2890625,4.111328 c -0.5782844,-0.02316 -1.108535,0.437367 -1.171875,1.011719 -0.0176,0.727867 -0.011406,1.457219 -0.00391,2.185547 0.051702,0.97575 0.8682337,1.835523 1.8398437,1.9375 0.6705304,0.0368 1.3439684,0.0051 2.015625,0.01563 0.5438925,0.05554 1.1009167,-0.301252 1.2421875,-0.835938 0.1960658,-0.610165 -0.2200309,-1.319505 -0.8476562,-1.447265 -0.4453529,-0.06586 -0.902212,-0.01262 -1.3515625,-0.0293 -0.2343238,0.03615 -0.518192,-0.05619 -0.5761719,-0.3125 -0.03516,-0.435897 -0.00553,-0.878264 -0.015625,-1.316407 0.042024,-0.626321 -0.5020502,-1.212386 -1.1308556,-1.208986 z"
     sodipodi:nodetypes="cccccccccccccccccccccccccccccccccccccccsccccccccccccccccccccccccccccscccccccccccccccccccccccccccc" />
  <defs
     id="defs2">
    <linearGradient
       id="linearGradient10"
       x1="0.22078557"
       y1="0.047239967"
       x2="0.9022491"
       y2="0.90614605"
       gradientTransform="matrix(43.5,0,0,44,5,2)"
       gradientUnits="userSpaceOnUse"
       spreadMethod="pad">
      <stop
         offset="0"
         stop-opacity="1"
         style="stop-color:#00f1fa;stop-opacity:1;"
         id="stop9" />
      <stop
         offset="1"
         stop-opacity="1"
         style="stop-color:#006cff;stop-opacity:1;"
         id="stop10" />
    </linearGradient>
    <linearGradient
       id="linearGradient8"
       x1="0.22078557"
       y1="0.047239967"
       x2="0.9022491"
       y2="0.90614605"
       gradientTransform="matrix(43.5,0,0,44,5,2)"
       gradientUnits="userSpaceOnUse"
       spreadMethod="pad">
      <stop
         offset="0"
         stop-opacity="1"
         style="stop-color:#00f1fa;stop-opacity:1;"
         id="stop7" />
      <stop
         offset="1"
         stop-opacity="1"
         style="stop-color:#006cff;stop-opacity:1;"
         id="stop8" />
    </linearGradient>
    <linearGradient
       id="paint0_linear_451_3107"
       x1="19.5937"
       y1="20.625"
       x2="7.5625"
       y2="13.807305"
       gradientUnits="userSpaceOnUse"
       gradientTransform="matrix(-1,0,0,1,21.107395,0.15809951)">
      <stop
         id="stop1"
         offset="0"
         style="stop-color:#00f1fa;stop-opacity:1;" />
      <stop
         offset="1"
         id="stop2"
         style="stop-color:#006cff;stop-opacity:1;" />
    </linearGradient>
    <linearGradient
       id="linearGradient11746"
       x1="0.22078557"
       y1="0.047239967"
       x2="0.9022491"
       y2="0.90614605"
       gradientTransform="matrix(43.5,0,0,44,5,2)"
       gradientUnits="userSpaceOnUse"
       spreadMethod="pad">
      <stop
         offset="0"
         stop-opacity="1"
         style="stop-color:#00f1fa;stop-opacity:1;"
         id="stop11742" />
      <stop
         offset="1"
         stop-opacity="1"
         style="stop-color:#006cff;stop-opacity:1;"
         id="stop11744" />
    </linearGradient>
    <linearGradient
       inkscape:collect="always"
       xlink:href="#linearGradient10"
       id="linearGradient13"
       gradientUnits="userSpaceOnUse"
       gradientTransform="matrix(12.487142,0,0,-13.735855,1.603614,18.679714)"
       x1="0.60287458"
       y1="-0.15957417"
       x2="1.5075115"
       y2="0.55908322" />
  </defs>
</svg>
