<?xml version="1.0" encoding="UTF-8" standalone="no"?>
<svg
   width="64"
   height="64"
   viewBox="0 0 64 64"
   fill="none"
   version="1.1"
   id="svg2"
   sodipodi:docname="edit-select-text-og.svg"
   inkscape:version="1.3.2 (091e20ef0f, 2023-11-25, custom)"
   xmlns:inkscape="http://www.inkscape.org/namespaces/inkscape"
   xmlns:sodipodi="http://sodipodi.sourceforge.net/DTD/sodipodi-0.dtd"
   xmlns:xlink="http://www.w3.org/1999/xlink"
   xmlns="http://www.w3.org/2000/svg"
   xmlns:svg="http://www.w3.org/2000/svg">
  <sodipodi:namedview
     id="namedview2"
     pagecolor="#ffffff"
     bordercolor="#666666"
     borderopacity="1.0"
     inkscape:showpageshadow="2"
     inkscape:pageopacity="0.0"
     inkscape:pagecheckerboard="0"
     inkscape:deskcolor="#d1d1d1"
     showguides="false"
     inkscape:zoom="8.0000004"
     inkscape:cx="11.249999"
     inkscape:cy="42.187498"
     inkscape:current-layer="svg2" />
  <path
     d="m 51.422851,29.412199 v 0 c 0,-1.429158 -1.028945,-2.587804 -2.295054,-2.587804 v 0 c -1.266108,0 -2.293817,1.158646 -2.293817,2.587804 v 0 23.67066 c 0,3.362288 2.729855,6.092141 6.092143,6.092141 h 6.494701 c 0.124938,0 2.293819,-0.281444 2.293819,-2.587802 -0.08105,-1.472077 -0.864853,-2.587801 -2.293819,-2.587801 H 55.07789 c -2.017128,0 -3.655038,-1.637909 -3.655038,-3.656272 z"
     fill-rule="evenodd"
     fill="url(#_lgradient_2)"
     id="path3"
     sodipodi:nodetypes="scsssscsssscss"
     style="isolation:isolate;fill:url(#linearGradient2);stroke-width:1.23521" />
  <defs
     id="defs2">
    <linearGradient
       id="paint0_linear"
       x1="14.500268"
       y1="59.174999"
       x2="56.591873"
       y2="32"
       gradientUnits="userSpaceOnUse"
       gradientTransform="translate(-0.5)">
      <stop
         offset="0"
         stop-color="#e5f230"
         id="stop2" />
      <stop
         stop-color="#24d864"
         id="stop1"
         offset="1" />
    </linearGradient>
    <linearGradient
       id="_lgradient_2"
       x1="0.12643236"
       y1="1"
       x2="0.99997437"
       y2="0.5"
       gradientTransform="matrix(48.18498,0,0,54.349998,7.9081263,4.8249998)"
       gradientUnits="userSpaceOnUse"
       spreadMethod="pad">
      <stop
         offset="0"
         stop-opacity="1"
         style="stop-color:#e5f230;stop-opacity:1;"
         id="stop1-3" />
      <stop
         offset="1"
         stop-opacity="1"
         style="stop-color:#24d864;stop-opacity:1;"
         id="stop3" />
    </linearGradient>
    <linearGradient
       inkscape:collect="always"
       xlink:href="#_lgradient_2"
       id="linearGradient1"
       gradientUnits="userSpaceOnUse"
       gradientTransform="matrix(-48.18498,0,0,-54.349998,95.017852,59.175)"
       x1="0.8711884"
       y1="0.001228657"
       x2="0.69115067"
       y2="0.70238638"
       spreadMethod="pad" />
    <linearGradient
       inkscape:collect="always"
       xlink:href="#_lgradient_2"
       id="linearGradient2"
       gradientUnits="userSpaceOnUse"
       gradientTransform="matrix(48.18498,0,0,54.349998,46.834105,4.8249998)"
       x1="0.12643236"
       y1="1"
       x2="0.30882373"
       y2="0.29761368"
       spreadMethod="pad" />
    <linearGradient
       inkscape:collect="always"
       xlink:href="#_lgradient_2"
       id="linearGradient7"
       gradientUnits="userSpaceOnUse"
       gradientTransform="matrix(-48.18498,0,0,-54.349998,95.017852,59.175)"
       x1="0.94885826"
       y1="0"
       x2="0.69115067"
       y2="0.70238638"
       spreadMethod="pad" />
    <linearGradient
       inkscape:collect="always"
       xlink:href="#_lgradient_2"
       id="linearGradient8"
       gradientUnits="userSpaceOnUse"
       gradientTransform="matrix(48.18498,0,0,54.349998,46.834105,4.8249998)"
       x1="0.12643236"
       y1="1"
       x2="0.30882373"
       y2="0.29761368"
       spreadMethod="pad" />
    <linearGradient
       inkscape:collect="always"
       xlink:href="#linearGradient2-3"
       id="linearGradient4"
       x1="50.093586"
       y1="45.923351"
       x2="62.621078"
       y2="26.01753"
       gradientUnits="userSpaceOnUse"
       gradientTransform="matrix(1.8056439,0,0,1.8056439,-78.968834,-32.946742)" />
    <linearGradient
       id="linearGradient2-3"
       inkscape:collect="always">
      <stop
         style="stop-color:#e5f230;stop-opacity:1;"
         offset="0"
         id="stop3-6" />
      <stop
         style="stop-color:#24d864;stop-opacity:1;"
         offset="1"
         id="stop4" />
    </linearGradient>
  </defs>
  <path
     d="m 51.422979,34.587801 v 0 c 0,1.429158 -1.028945,2.587804 -2.295054,2.587804 v 0 c -1.266109,0 -2.293819,-1.158646 -2.293819,-2.587804 v 0 -23.67066 c 0,-3.362288 2.729856,-6.092141 6.092143,-6.092141 h 6.494702 c 0.673496,0 2.293819,0.5011971 2.293819,2.587802 0,1.1190856 -0.784197,2.587801 -2.293819,2.587801 h -4.342935 c -2.017128,0 -3.655037,1.637909 -3.655037,3.656272 z"
     fill-rule="evenodd"
     fill="url(#_lgradient_2)"
     id="path1"
     sodipodi:nodetypes="scsssscsssscss"
     style="isolation:isolate;fill:url(#linearGradient1);stroke-width:1.23521" />
  <path
     d="m 46.845715,29.412199 v 0 c 0,-1.429158 1.028945,-2.587804 2.295054,-2.587804 v 0 c 1.266108,0 2.293817,1.158646 2.293817,2.587804 v 0 23.67066 c 0,3.362288 -2.729855,6.092141 -6.092143,6.092141 h -6.394674 c -0.124938,0 -2.293818,-0.281444 -2.293818,-2.587802 0.08105,-1.472077 0.864853,-2.587801 2.293818,-2.587801 h 4.242907 c 2.017128,0 3.655038,-1.637909 3.655038,-3.656272 z"
     fill-rule="evenodd"
     fill="url(#_lgradient_2)"
     id="path5"
     sodipodi:nodetypes="scsssscsssscss"
     style="isolation:isolate;fill:url(#linearGradient8);stroke-width:1.23521" />
  <path
     d="m 46.845587,34.587801 v 0 c 0,1.429158 1.028945,2.587804 2.295054,2.587804 v 0 c 1.266109,0 2.293819,-1.158646 2.293819,-2.587804 v 0 -23.67066 C 51.43446,7.554853 48.704604,4.825 45.342317,4.825 h -6.394675 c -0.673496,0 -2.293818,0.5011971 -2.293818,2.587802 0,1.1190856 0.784196,2.587801 2.293818,2.587801 h 4.242908 c 2.017128,0 3.655037,1.637909 3.655037,3.656272 z"
     fill-rule="evenodd"
     fill="url(#_lgradient_2)"
     id="path6"
     sodipodi:nodetypes="scsssscsssscss"
     style="isolation:isolate;fill:url(#linearGradient7);stroke-width:1.23521" />
  <path
     d="M 4.0281614,14.153859 C 4.6975319,13.972879 5.4031409,14.013652 6.0907307,14 c 9.3357403,0.03622 18.6760823,-0.02258 28.0118043,0.03166 1.347914,-0.04067 2.57828,1.153553 2.52393,2.510532 0.02258,3.12111 0.05435,6.24679 -0.01355,9.367935 0.0316,0.673992 -0.778051,1.139885 -1.374997,0.900113 -0.678558,-0.108551 -0.687405,-0.968023 -0.945432,-1.461036 -0.895419,-3.107605 -3.559646,-5.925674 -6.915798,-6.129187 -1.510781,-0.04977 -3.066706,-0.217057 -4.550403,0.113088 -0.759815,0.203586 -0.750785,1.094707 -0.764329,1.718934 0.009,7.241972 -0.01807,14.488309 0.01355,21.7349 -0.02275,2.845153 2.442674,5.287828 5.24684,5.436976 1.135387,-0.284931 1.714278,1.556104 0.475063,1.709943 -5.432279,0.11304 -10.878299,0.0361 -16.315059,0.04063 -0.918241,0.217219 -1.5017543,-1.008633 -0.768968,-1.551409 1.081002,-0.31671 2.270615,-0.303169 3.265707,-0.877544 1.718808,-0.931892 2.885708,-2.80922 2.885708,-4.772317 0.02726,-7.232869 0.0045,-14.46115 0.01373,-21.689522 0.08591,-0.809687 -0.194522,-1.859091 -1.189612,-1.86821 -2.532976,-0.09044 -5.350846,-0.34374 -7.5446143,1.20321 -1.9992453,1.343544 -3.1390389,3.550835 -3.8085189,5.799041 -0.2758652,1.080984 -2.143913,0.74185 -2.0218154,-0.384512 -0.049761,-3.071363 -0.022653,-6.151791 -0.009,-9.223157 -0.027216,-1.08111 0.6874981,-2.126 1.7232882,-2.456199 z"
     id="path1-7"
     style="display:inline;fill:url(#linearGradient4);fill-opacity:1;stroke-width:1.80565" />
</svg>
