<?xml version="1.0" encoding="UTF-8" standalone="no"?>
<svg
   width="32"
   height="32"
   viewBox="0 0 32 32"
   fill="none"
   version="1.1"
   id="svg3"
   sodipodi:docname="edit-cut.svg"
   inkscape:version="1.3.2 (091e20ef0f, 2023-11-25, custom)"
   xmlns:inkscape="http://www.inkscape.org/namespaces/inkscape"
   xmlns:sodipodi="http://sodipodi.sourceforge.net/DTD/sodipodi-0.dtd"
   xmlns="http://www.w3.org/2000/svg"
   xmlns:svg="http://www.w3.org/2000/svg">
  <sodipodi:namedview
     id="namedview3"
     pagecolor="#ffffff"
     bordercolor="#666666"
     borderopacity="1.0"
     inkscape:showpageshadow="2"
     inkscape:pageopacity="0.0"
     inkscape:pagecheckerboard="0"
     inkscape:deskcolor="#d1d1d1"
     inkscape:zoom="16.617009"
     inkscape:cx="24.10181"
     inkscape:cy="15.917425"
     inkscape:current-layer="svg3" />
  <path
     d="M 12.696,9.896 C 13.018,9.196 13.2,8.426 13.2,7.6 13.2,4.506 10.694,2 7.6,2 4.506,2 2,4.506 2,7.6 c 0,3.094 2.506,5.6 5.6,5.6 0.826,0 1.596,-0.182 2.296,-0.504 L 13.2,16 9.896,19.304 C 9.196,18.982 8.426,18.8 7.6,18.8 4.506,18.8 2,21.306 2,24.4 2,27.494 4.506,30 7.6,30 c 3.094,0 5.6,-2.506 5.6,-5.6 0,-0.826 -0.182,-1.596 -0.504,-2.296 L 16,18.8 25.8,28.6 H 30 V 27.2 Z M 7.6,10.4 C 6.06,10.4 4.8,9.154 4.8,7.6 4.8,6.046 6.06,4.8 7.6,4.8 c 1.54,0 2.8,1.246 2.8,2.8 0,1.554 -1.26,2.8 -2.8,2.8 z m 0,16.8 c -1.54,0 -2.8,-1.246 -2.8,-2.8 0,-1.554 1.26,-2.8 2.8,-2.8 1.54,0 2.8,1.246 2.8,2.8 0,1.554 -1.26,2.8 -2.8,2.8 z M 25.8,3.4 17.4,11.8 20.2,14.6 30,4.8 V 3.4 Z"
     id="path1"
     sodipodi:nodetypes="csssscccssssccccccsssssssssscccccc"
     style="fill:url(#paint0_linear)" />
  <defs
     id="defs3">
    <linearGradient
       id="paint0_linear"
       x1="13.41229"
       y1="32"
       x2="30"
       y2="4.8000002"
       gradientUnits="userSpaceOnUse">
      <stop
         id="stop1"
         offset="0"
         style="stop-color:#b900ff;stop-opacity:1;" />
      <stop
         offset="0.99989998"
         id="stop2"
         style="stop-color:#6444ff;stop-opacity:1;" />
    </linearGradient>
  </defs>
</svg>
