<?xml version="1.0" encoding="UTF-8" standalone="no"?>
<svg
   width="22"
   height="22"
   viewBox="0 0 22 22"
   fill="none"
   version="1.1"
   id="svg2"
   sodipodi:docname="edit-copy.svg"
   inkscape:version="1.3.2 (091e20ef0f, 2023-11-25, custom)"
   xmlns:inkscape="http://www.inkscape.org/namespaces/inkscape"
   xmlns:sodipodi="http://sodipodi.sourceforge.net/DTD/sodipodi-0.dtd"
   xmlns:xlink="http://www.w3.org/1999/xlink"
   xmlns="http://www.w3.org/2000/svg"
   xmlns:svg="http://www.w3.org/2000/svg">
  <sodipodi:namedview
     id="namedview2"
     pagecolor="#ffffff"
     bordercolor="#666666"
     borderopacity="1.0"
     inkscape:showpageshadow="2"
     inkscape:pageopacity="0.0"
     inkscape:pagecheckerboard="0"
     inkscape:deskcolor="#d1d1d1"
     inkscape:zoom="22.627417"
     inkscape:cx="2.9168155"
     inkscape:cy="12.418563"
     inkscape:current-layer="svg2" />
  <path
     id="path1"
     style="fill:url(#linearGradient1)"
     d="m 5.2286237,1.1084882 c 0,0 -1.0787835,-3.118e-4 -1.6171874,0.017578 -1.0601371,0.1035169 -1.9386006,1.0769122 -1.9316406,2.1425781 -0.00116,1.0605489 -0.00211,2.4749019 -0.00195,3.1816407 -5.76e-5,0.098928 -3.4e-6,0.1999027 0,0.2988281 1.8e-5,0.068596 0,0.4726562 0,0.4726562 h 0.00195 c 6.641e-4,0.5898447 0.00204,1.1820892 0.00586,1.7890626 0.05419,0.7365004 0.8479503,1.2890671 1.5566406,1.0820311 0.6030594,-0.1377438 1.0072142,-0.761538 0.9414063,-1.3671874 0.00112,-0.3290235 3.813e-4,-0.652846 0,-0.9726563 l 0.00586,0.00195 c 0,0 -0.00364,-1.2587229 -0.00586,-2.2636719 0.00122,-0.2090175 0.00331,-0.4175456 0.00586,-0.6308594 l -0.00586,-0.00195 C 4.1829377,4.6068861 4.1826826,4.4573228 4.1817526,4.2569256 4.1768626,4.0287148 4.1315006,3.6787068 4.4317525,3.6202069 c 3.0194885,-0.0143 5.0403768,-0.00176 8.0603535,-0.00586 0.234785,0.00188 0.600456,-0.06373 0.666016,0.2460937 0.0158,1.3208147 0.0033,-0.155364 0.0078,1.1660157 -0.06581,0.6056493 0.336393,1.2294436 0.939453,1.3671874 0.70869,0.2070358 1.504404,-0.3474841 1.558594,-1.0839843 0.0103,-1.6355504 0.0074,-0.4718015 0.002,-2.1074219 -0.0229,-1.0765179 -0.954055,-2.0311544 -2.029297,-2.0839844 -2.596616,-0.0161 -6.790823,-0.00781 -6.790823,-0.00781 z M 19.119056,7.2569257 c -0.3191,0 -0.62391,0.1259627 -0.84961,0.3515625 -0.2256,0.2256398 -0.353515,0.5324928 -0.353515,0.8515625 v 8.0195313 c 0,0.531799 -0.209938,1.041869 -0.585938,1.417968 -0.376099,0.376 -0.886169,0.587891 -1.417969,0.587891 H 12.19567 c -0.3191,0 -0.625923,0.125963 -0.851563,0.351563 -0.22564,0.225699 -0.351563,0.532462 -0.351563,0.851562 10e-7,0.3191 0.125923,0.625963 0.351563,0.851563 0.22564,0.225599 0.532463,0.351562 0.851563,0.351562 h 3.716354 c 1.1696,0 2.290189,-0.465969 3.117188,-1.292969 0.826999,-0.826999 1.291669,-1.949541 1.292969,-3.11914 V 8.4600507 c 0,-0.3190697 -0.125963,-0.6259227 -0.351563,-0.8515625 -0.2256,-0.2255998 -0.532463,-0.3515625 -0.851562,-0.3515625 z m -4.732422,0.4785156 c -0.603592,0.014004 -1.174981,0.5055311 -1.220703,1.1269531 -0.0097,1.5478606 -0.0068,3.0104056 -0.002,4.5488276 2.75e-4,0.08716 -2.9e-4,0.17012 0,0.257813 l 0.0039,-0.002 c -0.0032,0.18566 -0.04073,0.367826 -0.25,0.412109 -1.320815,0.0158 -1.644083,0.0014 -2.9654633,0.0059 -0.6056495,-0.06581 -1.2294437,0.338347 -1.3671876,0.941407 -0.2070358,0.70869 0.3474842,1.50245 1.0839844,1.55664 1.6355505,0.0103 2.2712495,0.0074 3.9068695,0.002 1.076518,-0.0229 2.033107,-0.952101 2.085937,-2.027343 0.0056,-0.902775 0.0055,-1.170768 0.0059,-1.546875 h 0.002 c -8.39e-4,-0.07015 -0.0013,-0.137412 -0.002,-0.207032 1.9e-5,-0.606744 -0.0028,-1.12408 0,-2.697265 -0.0051,-0.5350044 -0.0037,-0.731007 -0.002,-0.7968749 h -0.002 c -1.3e-4,-0.055164 1.88e-4,-0.1085646 0,-0.1640625 0.06591,-0.6056904 -0.33824,-1.2294847 -0.9413,-1.3672285 -0.110733,-0.032349 -0.224161,-0.045562 -0.335937,-0.042969 z m 1.279297,1.5742188 h 0.0039 c 0,0 -0.0022,-0.066837 -0.0039,0 z M 2.7540144,11.49716 c -0.5350501,0.03346 -1.0050719,0.471311 -1.0644531,1.009766 -0.0176,0.727867 -0.011406,1.457219 -0.00391,2.185546 0.051702,0.97575 0.8701868,1.835523 1.8417969,1.9375 0.6705303,0.0368 1.3439682,0.0051 2.0156249,0.01563 0.5438924,0.05554 1.1009166,-0.299299 1.2421874,-0.833984 0.1960659,-0.610165 -0.221984,-1.319505 -0.8496093,-1.447266 -0.4453529,-0.06586 -0.9002588,-0.01457 -1.3496094,-0.03125 -0.2343237,0.03615 -0.5201451,-0.05619 -0.5781249,-0.3125 -0.03516,-0.435896 -0.00357,-0.878263 -0.013672,-1.316406 0.04202,-0.626319 -0.5040071,-1.210431 -1.1328125,-1.207031 -0.036143,-0.0014 -0.071752,-0.0022 -0.1074219,0 z"
     sodipodi:nodetypes="ccccccccccccccccccccccccccssscsscssscscscsscsccccccccccccccccsccccccccccccccccc" />
  <defs
     id="defs2">
    <linearGradient
       id="linearGradient10"
       x1="0.22078557"
       y1="0.047239967"
       x2="0.9022491"
       y2="0.90614605"
       gradientTransform="matrix(43.5,0,0,44,5,2)"
       gradientUnits="userSpaceOnUse"
       spreadMethod="pad">
      <stop
         offset="0"
         stop-opacity="1"
         style="stop-color:#00f1fa;stop-opacity:1;"
         id="stop9" />
      <stop
         offset="1"
         stop-opacity="1"
         style="stop-color:#006cff;stop-opacity:1;"
         id="stop10" />
    </linearGradient>
    <linearGradient
       id="linearGradient8"
       x1="0.22078557"
       y1="0.047239967"
       x2="0.9022491"
       y2="0.90614605"
       gradientTransform="matrix(43.5,0,0,44,5,2)"
       gradientUnits="userSpaceOnUse"
       spreadMethod="pad">
      <stop
         offset="0"
         stop-opacity="1"
         style="stop-color:#00f1fa;stop-opacity:1;"
         id="stop7" />
      <stop
         offset="1"
         stop-opacity="1"
         style="stop-color:#006cff;stop-opacity:1;"
         id="stop8" />
    </linearGradient>
    <linearGradient
       id="paint0_linear_451_3107"
       x1="19.5937"
       y1="20.625"
       x2="7.5625"
       y2="13.807305"
       gradientUnits="userSpaceOnUse"
       gradientTransform="matrix(-1,0,0,1,21.107395,0.15809951)">
      <stop
         id="stop1"
         offset="0"
         style="stop-color:#00f1fa;stop-opacity:1;" />
      <stop
         offset="1"
         id="stop2"
         style="stop-color:#006cff;stop-opacity:1;" />
    </linearGradient>
    <linearGradient
       id="linearGradient11746"
       x1="0.22078557"
       y1="0.047239967"
       x2="0.9022491"
       y2="0.90614605"
       gradientTransform="matrix(43.5,0,0,44,5,2)"
       gradientUnits="userSpaceOnUse"
       spreadMethod="pad">
      <stop
         offset="0"
         stop-opacity="1"
         style="stop-color:#00f1fa;stop-opacity:1;"
         id="stop11742" />
      <stop
         offset="1"
         stop-opacity="1"
         style="stop-color:#006cff;stop-opacity:1;"
         id="stop11744" />
    </linearGradient>
    <linearGradient
       inkscape:collect="always"
       xlink:href="#paint0_linear_451_3107"
       id="linearGradient1"
       gradientUnits="userSpaceOnUse"
       gradientTransform="translate(0.72909998,0.26658771)"
       x1="-0.3515"
       y1="20.625"
       x2="19.5937"
       y2="12.203165" />
    <linearGradient
       inkscape:collect="always"
       xlink:href="#paint0_linear_451_3107"
       id="linearGradient2"
       gradientUnits="userSpaceOnUse"
       gradientTransform="matrix(-1,0,0,1,20.593701,0.15809951)"
       x1="0.38091078"
       y1="20.542589"
       x2="19.5937"
       y2="13.807305" />
  </defs>
  <path
     d="M 1,8.3508295 V 16.3717 c 0.0013,1.1696 0.4665,2.2909 1.2935,3.1179 0.827,0.827 1.9483,1.2922 3.1179,1.2935 h 6.416681 c 0.3191,0 0.6251,-0.1268 0.85074,-0.3524 0.22564,-0.2256 0.35238,-0.5316 0.35238,-0.8507 0,-0.3191 -0.12674,-0.6251 -0.35238,-0.8508 -0.22564,-0.2256 -0.53164,-0.3524 -0.85074,-0.3524 H 5.4114 c -0.5318,0 -1.0418,-0.2112 -1.4179,-0.5872 C 3.6175,17.4135 3.4062,16.9035 3.4062,16.3717 V 8.3508295 c 0,-0.31907 -0.1267,-0.62511 -0.3523,-0.85075 -0.2257,-0.2256 -0.5317,-0.35237 -0.8508,-0.35237 -0.3191,0 -0.6251,0.12677 -0.8507,0.35237 C 1.1268,7.7257195 1,8.0317595 1,8.3508295 Z"
     fill="url(#paint0_linear_451_3107)"
     id="path2"
     style="display:none;fill:url(#linearGradient2)"
     sodipodi:nodetypes="scscssscsscsscscs" />
</svg>
