<?xml version="1.0" encoding="UTF-8" standalone="no"?>
<svg
   width="22"
   height="22"
   viewBox="0 0 22 22"
   fill="none"
   version="1.1"
   id="svg2"
   sodipodi:docname="edit-copy-8 copy-4.svg"
   inkscape:version="1.3.2 (091e20ef0f, 2023-11-25, custom)"
   xmlns:inkscape="http://www.inkscape.org/namespaces/inkscape"
   xmlns:sodipodi="http://sodipodi.sourceforge.net/DTD/sodipodi-0.dtd"
   xmlns:xlink="http://www.w3.org/1999/xlink"
   xmlns="http://www.w3.org/2000/svg"
   xmlns:svg="http://www.w3.org/2000/svg">
  <sodipodi:namedview
     id="namedview2"
     pagecolor="#ffffff"
     bordercolor="#666666"
     borderopacity="1.0"
     inkscape:showpageshadow="2"
     inkscape:pageopacity="0.0"
     inkscape:pagecheckerboard="0"
     inkscape:deskcolor="#d1d1d1"
     inkscape:zoom="22.627417"
     inkscape:cx="6.9826795"
     inkscape:cy="10.518213"
     inkscape:current-layer="svg2" />
  <path
     d="M 1.5136942,8.3508295 V 16.3717 c 0.0013,1.1696 0.4665,2.2909 1.2935,3.1179 0.8270003,0.827 1.9483003,1.2922 3.1179003,1.2935 h 6.4166805 c 0.3191,0 0.6251,-0.1268 0.85074,-0.3524 0.22564,-0.2256 0.35238,-0.5316 0.35238,-0.8507 0,-0.3191 -0.12674,-0.6251 -0.35238,-0.8508 -0.22564,-0.2256 -0.53164,-0.3524 -0.85074,-0.3524 H 5.9250945 c -0.5318,0 -1.0418,-0.2112 -1.4179,-0.5872 -0.376,-0.3761 -0.5873,-0.8861 -0.5873,-1.4179 V 8.3508295 c 0,-0.31907 -0.1267,-0.62511 -0.3523,-0.85075 -0.2257,-0.2256 -0.5317,-0.35237 -0.8508003,-0.35237 -0.3191,0 -0.6251,0.12677 -0.8507,0.35237 -0.2256,0.22564 -0.3524,0.53168 -0.3524,0.85075 z"
     fill="url(#paint0_linear_451_3107)"
     id="path1"
     style="display:none;fill:url(#paint0_linear_451_3107)"
     sodipodi:nodetypes="scscssscsscsscscs" />
  <defs
     id="defs2">
    <linearGradient
       id="linearGradient10"
       x1="0.22078557"
       y1="0.047239967"
       x2="0.9022491"
       y2="0.90614605"
       gradientTransform="matrix(43.5,0,0,44,5,2)"
       gradientUnits="userSpaceOnUse"
       spreadMethod="pad">
      <stop
         offset="0"
         stop-opacity="1"
         style="stop-color:#00f1fa;stop-opacity:1;"
         id="stop9" />
      <stop
         offset="1"
         stop-opacity="1"
         style="stop-color:#006cff;stop-opacity:1;"
         id="stop10" />
    </linearGradient>
    <linearGradient
       id="linearGradient8"
       x1="0.22078557"
       y1="0.047239967"
       x2="0.9022491"
       y2="0.90614605"
       gradientTransform="matrix(43.5,0,0,44,5,2)"
       gradientUnits="userSpaceOnUse"
       spreadMethod="pad">
      <stop
         offset="0"
         stop-opacity="1"
         style="stop-color:#00f1fa;stop-opacity:1;"
         id="stop7" />
      <stop
         offset="1"
         stop-opacity="1"
         style="stop-color:#006cff;stop-opacity:1;"
         id="stop8" />
    </linearGradient>
    <linearGradient
       id="paint0_linear_451_3107"
       x1="19.5937"
       y1="20.625"
       x2="7.5625"
       y2="13.807305"
       gradientUnits="userSpaceOnUse"
       gradientTransform="matrix(-1,0,0,1,21.107395,0.15809951)">
      <stop
         stop-color="#0357D1"
         id="stop1"
         offset="0"
         style="stop-color:#00f1fa;stop-opacity:1;" />
      <stop
         offset="1"
         stop-color="#27CDFC"
         id="stop2"
         style="stop-color:#006cff;stop-opacity:1;" />
    </linearGradient>
    <linearGradient
       id="linearGradient11746"
       x1="0.22078557"
       y1="0.047239967"
       x2="0.9022491"
       y2="0.90614605"
       gradientTransform="matrix(43.5,0,0,44,5,2)"
       gradientUnits="userSpaceOnUse"
       spreadMethod="pad">
      <stop
         offset="0"
         stop-opacity="1"
         style="stop-color:#00f1fa;stop-opacity:1;"
         id="stop11742" />
      <stop
         offset="1"
         stop-opacity="1"
         style="stop-color:#006cff;stop-opacity:1;"
         id="stop11744" />
    </linearGradient>
    <linearGradient
       inkscape:collect="always"
       xlink:href="#linearGradient11746"
       id="linearGradient8262-2"
       gradientUnits="userSpaceOnUse"
       gradientTransform="matrix(12.487142,0,0,13.735855,6.6012003,2.1176743)"
       x1="-0.43093932"
       y1="1.4316785"
       x2="1.0500685"
       y2="0.49975216" />
    <linearGradient
       inkscape:collect="always"
       xlink:href="#linearGradient10"
       id="linearGradient6"
       gradientUnits="userSpaceOnUse"
       gradientTransform="matrix(12.611162,0,0,13.872829,7.6346431,2.0747933)"
       x1="-0.50864804"
       y1="1.4206338"
       x2="0.95779526"
       y2="0.49790883" />
    <linearGradient
       inkscape:collect="always"
       xlink:href="#linearGradient8"
       id="linearGradient7"
       gradientUnits="userSpaceOnUse"
       gradientTransform="matrix(12.611175,0,0,-13.872292,7.8346348,15.503066)"
       x1="-0.52450585"
       y1="-0.45269638"
       x2="0.94193602"
       y2="0.47006425" />
    <linearGradient
       inkscape:collect="always"
       xlink:href="#linearGradient11746"
       id="linearGradient2"
       gradientUnits="userSpaceOnUse"
       gradientTransform="matrix(12.487142,0,0,13.735855,1.8500033,7.4184664)"
       x1="-0.050452162"
       y1="1.0457693"
       x2="1.4305556"
       y2="0.113843" />
    <linearGradient
       inkscape:collect="always"
       xlink:href="#linearGradient10"
       id="linearGradient3"
       gradientUnits="userSpaceOnUse"
       gradientTransform="matrix(12.610212,0,0,13.872829,2.8692672,7.2144412)"
       x1="-0.13078822"
       y1="1.0501508"
       x2="1.3357656"
       y2="0.12742579" />
    <linearGradient
       inkscape:collect="always"
       xlink:href="#linearGradient11746"
       id="linearGradient4"
       gradientUnits="userSpaceOnUse"
       gradientTransform="matrix(12.487142,0,0,13.735855,6.6012003,2.1176743)"
       x1="-0.40741956"
       y1="1.3588834"
       x2="1.0500685"
       y2="0.49975216" />
  </defs>
  <g
     id="g4"
     transform="translate(-0.09687586,-0.40900846)">
    <path
       id="path2"
       style="display:inline;isolation:isolate;fill:url(#linearGradient2);fill-opacity:1;stroke-width:0.312178"
       d="m 3.380006,6.7918669 c -1.0656669,-0.00696 -2.0386009,0.8724848 -2.1421181,1.932623 -0.035775,1.0768091 -0.00504,2.1564331 -0.015311,3.2343111 0.00461,2.596896 -0.00921,5.194239 0.00686,7.790857 0.052832,1.075243 1.0081548,2.00534 2.0846736,2.02824 1.6356227,0.0054 3.2720175,0.0087 4.9075694,-0.0016 C 8.958181,21.722108 9.51193,20.92749 9.304895,20.218799 9.167151,19.615739 8.542491,19.212454 7.936841,19.278262 c -1.321381,-0.0045 -2.643665,0.009 -3.9644808,-0.0068 -0.3098244,-0.06556 -0.2443723,-0.432414 -0.2462486,-0.667199 0.00409,-3.01998 -0.00817,-6.040743 0.00613,-9.0602349 0.0585,-0.3002521 0.4082369,-0.2548178 0.6364485,-0.2499239 1.1652949,0.00544 2.1970231,0.00796 2.1970231,0.00796 L 6.0331512,6.7912294 c 0,0 -1.3354222,-8.153e-4 -2.6531348,6.279e-4 z"
       sodipodi:nodetypes="cccccccccccccccc" />
    <path
       id="path3"
       style="display:inline;isolation:isolate;fill:url(#linearGradient3);fill-opacity:1;stroke-width:0.315274"
       d="m 14.823721,16.527898 c -0.628758,-0.0034 -1.173371,0.581897 -1.131353,1.208217 -0.01009,0.438143 0.02015,0.880005 -0.01501,1.315902 -0.05797,0.256314 -0.342911,0.348697 -0.577217,0.312552 -0.449318,0.01668 -0.904706,-0.03556 -1.350024,0.0303 -0.627579,0.127761 -1.044952,0.83719 -0.848901,1.447356 0.141261,0.534686 0.698431,0.890674 1.242282,0.83513 0.671606,-0.01051 1.34509,0.02106 2.01557,-0.01574 0.971538,-0.101977 1.788914,-0.961311 1.840612,-1.937062 0.0076,-0.728328 0.01411,-1.458521 -0.0034,-2.186389 -0.06334,-0.574352 -0.594197,-1.033433 -1.172438,-1.010273 z"
       sodipodi:nodetypes="cccccccccccc" />
    <path
       id="path6479-9"
       style="display:inline;isolation:isolate;fill:url(#linearGradient4);fill-opacity:1;stroke-width:0.312178"
       d="m 8.131203,1.4910748 c -1.0656669,-0.00696 -2.0386009,0.8724848 -2.1421181,1.932623 -0.035775,1.0768091 -0.00504,2.1564326 -0.015311,3.2343103 0.00461,2.5968963 -0.00921,5.1942389 0.00686,7.7908569 0.052832,1.075243 1.0081548,2.00534 2.0846736,2.02824 1.6356227,0.0054 3.2720175,0.0087 4.9075695,-0.0016 0.736501,-0.05419 1.290251,-0.848808 1.083215,-1.557499 -0.137744,-0.60306 -0.762404,-1.006345 -1.368054,-0.940537 -1.321381,-0.0045 -2.643665,0.009 -3.9644808,-0.0068 -0.3098244,-0.06556 -0.2443723,-0.432414 -0.2462486,-0.667199 0.00409,-3.01998 -0.00817,-6.0407425 0.00613,-9.060234 0.0585,-0.3002521 0.4082369,-0.2548178 0.6364485,-0.2499239 1.1652949,0.00544 2.3337359,-0.010794 3.4970979,0.00796 0.237271,0.1569423 0.399517,0.4168484 0.609692,0.6107526 1.476706,1.5665085 2.942904,3.1444698 4.426149,4.7038511 0.548371,0.4946469 1.507098,0.3431191 1.874431,-0.2977037 0.342822,-0.5246022 0.19205,-1.2626595 -0.284831,-1.653631 C 17.619859,5.6620622 16.011051,3.9456708 14.379925,2.2518482 13.755324,1.7066506 12.910995,1.4296659 12.084423,1.4904373 10.76669,1.4908456 9.448926,1.489622 8.1312134,1.4910652 Z" />
    <path
       id="path6"
       style="display:inline;isolation:isolate;fill:url(#linearGradient6);fill-opacity:1;stroke-width:0.315285"
       d="m 19.590001,11.388251 c -0.628806,-0.0034 -1.173459,0.581897 -1.131439,1.208217 -0.0101,0.438143 0.02015,0.880005 -0.01501,1.315902 -0.05798,0.256314 -0.342937,0.348697 -0.577261,0.312552 -0.449351,0.01668 -0.904773,-0.03556 -1.350126,0.0303 -0.627626,0.127761 -1.04503,0.83719 -0.848964,1.447356 0.141271,0.534686 0.698482,0.890674 1.242375,0.83513 0.671657,-0.01051 1.345191,0.02106 2.015722,-0.01574 0.971611,-0.101977 1.789049,-0.961311 1.840751,-1.937062 0.0075,-0.728328 0.0141,-1.458521 -0.0035,-2.186389 -0.06334,-0.574352 -0.594241,-1.033433 -1.172526,-1.010273 z"
       sodipodi:nodetypes="cccccccccccc" />
    <path
       id="path7"
       style="display:inline;isolation:isolate;fill:url(#linearGradient7);fill-opacity:1;stroke-width:0.315279"
       d="m 19.790005,6.1899684 c -0.628807,0.0034 -1.17346,-0.581875 -1.13144,-1.208171 -0.01009,-0.438126 0.02015,-0.879971 -0.01501,-1.315851 -0.05798,-0.256304 -0.342937,-0.348684 -0.577262,-0.312539 -0.449351,-0.01668 -0.904774,0.03556 -1.350127,-0.0303 -0.627627,-0.127756 -1.045031,-0.837158 -0.848965,-1.447299 0.141271,-0.534666 0.698483,-0.89063995 1.242376,-0.835098 0.671658,0.01051 1.345193,-0.02106 2.015724,0.01574 0.971613,0.101973 1.789051,0.961274 1.840753,1.936987 0.0075,0.728299 0.0141,1.458464 -0.0035,2.186305 -0.06334,0.57433 -0.594242,1.033393 -1.172528,1.010233 z"
       sodipodi:nodetypes="cccccccccccc" />
    <path
       id="path4"
       style="display:inline;isolation:isolate;fill:url(#linearGradient8262-2);fill-opacity:1;stroke-width:0.312178"
       d="m 8.131203,1.4910748 c -1.0656669,-0.00696 -2.0386009,0.8724848 -2.1421181,1.932623 -0.035775,1.0768091 -0.00504,2.1564326 -0.015311,3.2343103 0.00461,2.5968963 -0.00921,5.1942389 0.00686,7.7908569 0.052832,1.075243 1.0081548,2.00534 2.0846736,2.02824 1.6356227,0.0054 3.2720175,0.0087 4.9075695,-0.0016 0.736501,-0.05419 1.290251,-0.848808 1.083215,-1.557499 -0.137744,-0.60306 -0.762404,-1.006345 -1.368054,-0.940537 -1.321381,-0.0045 -2.643665,0.009 -3.9644808,-0.0068 -0.3098244,-0.06556 -0.2443723,-0.432414 -0.2462486,-0.667199 0.00409,-3.01998 -0.00817,-6.0407425 0.00613,-9.060234 0.0585,-0.3002521 0.4082369,-0.2548178 0.6364485,-0.2499239 1.1652949,0.00544 2.3337359,-0.010794 3.4970979,0.00796 0.237271,0.1569423 0.399517,0.4168484 0.609692,0.6107526 1.476706,1.5665085 2.942904,3.1444698 4.426149,4.7038511 0.548371,0.4946469 1.507098,0.3431191 1.874431,-0.2977037 0.342822,-0.5246022 0.19205,-1.2626595 -0.284831,-1.653631 C 17.619859,5.6620622 16.011051,3.9456708 14.379925,2.2518482 13.755324,1.7066506 12.910995,1.4296659 12.084423,1.4904373 10.76669,1.4908456 9.448926,1.489622 8.1312134,1.4910652 Z" />
  </g>
</svg>
