<?xml version="1.0" encoding="UTF-8" standalone="no"?>
<svg
   width="22"
   height="22"
   viewBox="0 0 22 22"
   fill="none"
   version="1.1"
   id="svg2"
   sodipodi:docname="edit-copy-7 copy.svg"
   inkscape:version="1.3.2 (091e20ef0f, 2023-11-25, custom)"
   xmlns:inkscape="http://www.inkscape.org/namespaces/inkscape"
   xmlns:sodipodi="http://sodipodi.sourceforge.net/DTD/sodipodi-0.dtd"
   xmlns:xlink="http://www.w3.org/1999/xlink"
   xmlns="http://www.w3.org/2000/svg"
   xmlns:svg="http://www.w3.org/2000/svg">
  <sodipodi:namedview
     id="namedview2"
     pagecolor="#ffffff"
     bordercolor="#666666"
     borderopacity="1.0"
     inkscape:showpageshadow="2"
     inkscape:pageopacity="0.0"
     inkscape:pagecheckerboard="0"
     inkscape:deskcolor="#d1d1d1"
     inkscape:zoom="32"
     inkscape:cx="7.1875"
     inkscape:cy="9.6875"
     inkscape:current-layer="svg2" />
  <path
     d="m 20.728163,8.7495755 v 8.0208705 c -0.0013,1.1696 -0.4665,2.2909 -1.2935,3.1179 -0.827,0.827 -1.9483,1.2922 -3.1179,1.2935 H 9.9000827 c -0.3191,0 -0.6251,-0.1268 -0.85074,-0.3524 -0.22564,-0.2256 -0.35238,-0.5316 -0.35238,-0.8507 0,-0.3191 0.12674,-0.6251 0.35238,-0.8508 0.22564,-0.2256 0.53164,-0.3524 0.85074,-0.3524 h 6.4166803 c 0.5318,0 1.0418,-0.2112 1.4179,-0.5872 0.376,-0.3761 0.5873,-0.8861 0.5873,-1.4179 V 8.7495755 c 0,-0.31907 0.1267,-0.62511 0.3523,-0.85075 0.2257,-0.2256 0.5317,-0.35237 0.8508,-0.35237 0.3191,0 0.6251,0.12677 0.8507,0.35237 0.2256,0.22564 0.3524,0.53168 0.3524,0.85075 z"
     fill="url(#paint0_linear_451_3107)"
     id="path1"
     style="display:none;fill:url(#paint0_linear_451_3107)"
     sodipodi:nodetypes="scscssscsscsscscs" />
  <defs
     id="defs2">
    <linearGradient
       id="linearGradient10"
       x1="0.22078557"
       y1="0.047239967"
       x2="0.9022491"
       y2="0.90614605"
       gradientTransform="matrix(43.5,0,0,44,5,2)"
       gradientUnits="userSpaceOnUse"
       spreadMethod="pad">
      <stop
         offset="0"
         stop-opacity="1"
         style="stop-color:#00f1fa;stop-opacity:1;"
         id="stop9" />
      <stop
         offset="1"
         stop-opacity="1"
         style="stop-color:#006cff;stop-opacity:1;"
         id="stop10" />
    </linearGradient>
    <linearGradient
       id="linearGradient8"
       x1="0.22078557"
       y1="0.047239967"
       x2="0.9022491"
       y2="0.90614605"
       gradientTransform="matrix(43.5,0,0,44,5,2)"
       gradientUnits="userSpaceOnUse"
       spreadMethod="pad">
      <stop
         offset="0"
         stop-opacity="1"
         style="stop-color:#00f1fa;stop-opacity:1;"
         id="stop7" />
      <stop
         offset="1"
         stop-opacity="1"
         style="stop-color:#006cff;stop-opacity:1;"
         id="stop8" />
    </linearGradient>
    <linearGradient
       id="paint0_linear_451_3107"
       x1="2.75"
       y1="20.625"
       x2="19.5937"
       y2="11"
       gradientUnits="userSpaceOnUse"
       gradientTransform="translate(1.1344627,0.55684551)">
      <stop
         stop-color="#0357D1"
         id="stop1"
         offset="0"
         style="stop-color:#00f1fa;stop-opacity:1;" />
      <stop
         offset="1"
         stop-color="#27CDFC"
         id="stop2"
         style="stop-color:#006cff;stop-opacity:1;" />
    </linearGradient>
    <linearGradient
       id="linearGradient11746"
       x1="0.22078557"
       y1="0.047239967"
       x2="0.9022491"
       y2="0.90614605"
       gradientTransform="matrix(43.5,0,0,44,5,2)"
       gradientUnits="userSpaceOnUse"
       spreadMethod="pad">
      <stop
         offset="0"
         stop-opacity="1"
         style="stop-color:#00f1fa;stop-opacity:1;"
         id="stop11742" />
      <stop
         offset="1"
         stop-opacity="1"
         style="stop-color:#006cff;stop-opacity:1;"
         id="stop11744" />
    </linearGradient>
    <linearGradient
       inkscape:collect="always"
       xlink:href="#linearGradient11746"
       id="linearGradient8262-2"
       gradientUnits="userSpaceOnUse"
       gradientTransform="matrix(12.487142,0,0,13.735855,2.4557873,2.012269)"
       x1="-0.050452162"
       y1="1.0457693"
       x2="1.0500685"
       y2="0.49975216" />
    <linearGradient
       inkscape:collect="always"
       xlink:href="#linearGradient10"
       id="linearGradient6"
       gradientUnits="userSpaceOnUse"
       gradientTransform="matrix(12.611162,0,0,13.872829,8.5105045,7.3955523)"
       x1="-0.07480637"
       y1="1.0385177"
       x2="1.0148904"
       y2="0.49787071" />
    <linearGradient
       inkscape:collect="always"
       xlink:href="#linearGradient8"
       id="linearGradient7"
       gradientUnits="userSpaceOnUse"
       gradientTransform="matrix(12.611175,0,0,-13.872292,3.6892218,15.397661)"
       x1="-0.10811481"
       y1="-0.07058268"
       x2="0.98158199"
       y2="0.44954517" />
    <linearGradient
       inkscape:collect="always"
       xlink:href="#linearGradient11746"
       id="linearGradient2"
       gradientUnits="userSpaceOnUse"
       gradientTransform="matrix(12.487142,0,0,13.735855,7.7245507,7.4996276)"
       x1="-0.050452162"
       y1="1.0457693"
       x2="1.0500685"
       y2="0.49975216" />
    <linearGradient
       inkscape:collect="always"
       xlink:href="#linearGradient8"
       id="linearGradient3"
       gradientUnits="userSpaceOnUse"
       gradientTransform="matrix(12.611175,0,0,-13.872292,8.5104913,20.766944)"
       x1="-0.10811481"
       y1="-0.07058268"
       x2="0.98158199"
       y2="0.44954517" />
  </defs>
  <g
     id="g3"
     transform="translate(-0.73769586,-0.39688632)">
    <path
       id="path6479-9"
       style="display:inline;isolation:isolate;fill:url(#linearGradient8262-2);fill-opacity:1;stroke-width:0.312178"
       d="m 3.98579,1.3856695 c -1.0656669,-0.00696 -2.0386009,0.8724848 -2.1421181,1.932623 -0.035775,1.0768091 -0.00504,2.1564326 -0.015311,3.2343103 0.00461,2.5968963 -0.00921,5.1942392 0.00686,7.7908572 0.052832,1.075243 1.0081548,2.00534 2.0846736,2.02824 1.6356227,0.0054 2.6719132,0.0087 4.3074655,-0.0016 0.7365007,-0.05419 1.2902506,-0.848808 1.0832146,-1.557499 -0.137744,-0.60306 -0.7624039,-1.006345 -1.3680544,-0.940537 -1.3213803,-0.0045 -2.0435599,0.009 -3.364376,-0.0068 -0.3098244,-0.06556 -0.2443723,-0.432414 -0.2462486,-0.667199 0.00409,-3.01998 -0.00817,-6.0407428 0.00613,-9.0602343 0.0585,-0.3002521 0.4082369,-0.2548178 0.6364485,-0.2499239 1.1652951,0.00544 2.3337363,-0.010794 3.4970979,0.00796 0.2372708,0.1569423 0.3995167,0.4168484 0.6096921,0.6107526 1.4767059,1.5665085 2.9429039,3.1444698 4.4261489,4.7038511 0.548371,0.4946469 1.507098,0.3431191 1.874431,-0.2977037 0.342822,-0.5246022 0.19205,-1.2626595 -0.284831,-1.653631 C 13.474446,5.5566569 11.865638,3.8402655 10.234512,2.1464429 9.6099112,1.6012453 8.7655819,1.3242606 7.9390096,1.385032 6.6212773,1.3854403 5.303513,1.3842167 3.9858004,1.3856599 Z"
       sodipodi:nodetypes="ccccccccccccccccccccc" />
    <path
       id="path6"
       style="display:inline;isolation:isolate;fill:url(#linearGradient6);fill-opacity:1;stroke-width:0.315285"
       d="m 20.465862,16.70901 c -0.628806,-0.0034 -1.173459,0.581897 -1.131439,1.208217 -0.0101,0.438143 0.02015,0.880005 -0.01501,1.315902 -0.05798,0.256314 -0.342937,0.348697 -0.577261,0.312552 -0.449351,0.01668 -0.904773,-0.03556 -1.350126,0.0303 -0.627626,0.127761 -1.04503,0.83719 -0.848964,1.447356 0.141271,0.534686 0.698482,0.890674 1.242375,0.83513 0.671657,-0.01051 1.345191,0.02106 2.015722,-0.01574 0.971611,-0.101977 1.789049,-0.961311 1.840751,-1.937062 0.0075,-0.728328 0.0141,-1.458521 -0.0035,-2.186389 -0.06334,-0.574352 -0.594241,-1.033433 -1.172526,-1.010273 z"
       sodipodi:nodetypes="cccccccccccc" />
    <path
       id="path7"
       style="display:inline;isolation:isolate;fill:url(#linearGradient7);fill-opacity:1;stroke-width:0.315279"
       d="m 15.644592,6.0845631 c -0.628807,0.0034 -1.17346,-0.581875 -1.13144,-1.208171 -0.01009,-0.438126 0.02015,-0.879971 -0.01501,-1.315851 -0.05798,-0.256304 -0.342937,-0.348684 -0.577262,-0.312539 -0.449351,-0.01668 -0.904774,0.03556 -1.350127,-0.0303 -0.627627,-0.127756 -1.045031,-0.837158 -0.848965,-1.447299 0.141271,-0.534666 0.698483,-0.89063997 1.242376,-0.83509797 0.671658,0.01051 1.345193,-0.02106 2.015724,0.01574 0.971613,0.10197297 1.789051,0.96127397 1.840753,1.93698697 0.0075,0.728299 0.0141,1.458464 -0.0035,2.186305 -0.06334,0.57433 -0.594242,1.033393 -1.172528,1.010233 z"
       sodipodi:nodetypes="cccccccccccc" />
    <path
       id="path2"
       style="display:inline;isolation:isolate;fill:url(#linearGradient2);fill-opacity:1;stroke-width:0.312178"
       d="m 9.2545534,6.8730281 c -1.0656669,-0.00696 -2.0386009,0.8724848 -2.1421181,1.932623 -0.035775,1.0768091 -0.00504,2.1564329 -0.015311,3.2343099 0.00461,2.596897 -0.00921,5.19424 0.00686,7.790858 0.052832,1.075243 1.0081548,2.00534 2.0846736,2.02824 1.6356221,0.0054 3.2720171,0.0087 4.9075691,-0.0016 0.736501,-0.05419 1.290251,-0.848808 1.083215,-1.557499 -0.137744,-0.60306 -0.762404,-1.006345 -1.368054,-0.940537 -1.321381,-0.0045 -2.643665,0.009 -3.964481,-0.0068 -0.3098238,-0.06556 -0.2443717,-0.432414 -0.246248,-0.667199 0.00409,-3.01998 -0.00817,-6.040743 0.00613,-9.0602347 0.0585,-0.3002521 0.408236,-0.2548178 0.636448,-0.2499239 1.165295,0.00544 2.333736,-0.010794 3.497098,0.00796 0.237271,0.1569423 0.399517,0.4168484 0.609692,0.6107526 1.476706,1.566508 2.942904,3.14447 4.426149,4.703851 0.548371,0.494647 1.507098,0.343119 1.874431,-0.297704 0.342822,-0.524602 0.19205,-1.262659 -0.284831,-1.653631 C 18.743209,11.044015 17.134401,9.3276241 15.503275,7.6338015 14.878674,7.0886039 14.034345,6.8116192 13.207773,6.8723906 11.89004,6.8727989 10.572276,6.8715753 9.2545638,6.8730185 Z" />
    <path
       id="path3"
       style="display:inline;isolation:isolate;fill:url(#linearGradient3);fill-opacity:1;stroke-width:0.315279"
       d="m 20.465861,11.453846 c -0.628807,0.0034 -1.17346,-0.581875 -1.13144,-1.208171 -0.01009,-0.438126 0.02015,-0.879971 -0.01501,-1.315851 C 19.261431,8.67352 18.976474,8.58114 18.742149,8.617285 18.292798,8.600605 17.837375,8.652845 17.392022,8.586985 16.764395,8.459229 16.346991,7.749827 16.543057,7.139686 16.684328,6.60502 17.24154,6.249046 17.785433,6.304588 c 0.671658,0.01051 1.345193,-0.02106 2.015724,0.01574 0.971613,0.101973 1.789051,0.961274 1.840753,1.936987 0.0075,0.728299 0.0141,1.458464 -0.0035,2.186305 -0.06334,0.57433 -0.594242,1.033393 -1.172528,1.010233 z"
       sodipodi:nodetypes="cccccccccccc" />
  </g>
</svg>
