<?xml version="1.0" encoding="UTF-8" standalone="no"?>
<svg
   width="22"
   height="22"
   viewBox="0 0 22 22"
   fill="none"
   version="1.1"
   id="svg14"
   sodipodi:docname="edit-link.svg"
   inkscape:version="1.3.2 (091e20ef0f, 2023-11-25, custom)"
   xmlns:inkscape="http://www.inkscape.org/namespaces/inkscape"
   xmlns:sodipodi="http://sodipodi.sourceforge.net/DTD/sodipodi-0.dtd"
   xmlns:xlink="http://www.w3.org/1999/xlink"
   xmlns="http://www.w3.org/2000/svg"
   xmlns:svg="http://www.w3.org/2000/svg">
  <sodipodi:namedview
     id="namedview14"
     pagecolor="#ffffff"
     bordercolor="#666666"
     borderopacity="1.0"
     inkscape:showpageshadow="2"
     inkscape:pageopacity="0.0"
     inkscape:pagecheckerboard="0"
     inkscape:deskcolor="#d1d1d1"
     inkscape:zoom="34.181818"
     inkscape:cx="11"
     inkscape:cy="11"
     inkscape:current-layer="svg14" />
  <path
     id="path1"
     d="M 14.851562 1.375 C 13.281002 1.3675479 11.718796 1.9791662 10.552734 3.1777344 L 8.28125 5.4492188 C 7.8115005 5.9191183 7.8115005 6.6804911 8.28125 7.1503906 C 8.7511595 7.6201502 9.5144655 7.6201502 9.984375 7.1503906 L 12.291016 4.8457031 C 13.536914 3.5571044 15.553005 3.4129667 16.970703 4.5097656 C 18.429902 5.7062744 18.641911 7.8591908 17.445312 9.3183594 C 17.375313 9.4037593 17.302609 9.4862332 17.224609 9.5644531 L 14.810547 11.976562 C 14.340847 12.446562 14.340847 13.207835 14.810547 13.677734 C 15.280446 14.147434 16.041819 14.147434 16.511719 13.677734 L 18.925781 11.265625 C 21.197379 8.9865173 21.191207 5.2971984 18.912109 3.0253906 C 18.73511 2.8488708 18.546056 2.6836198 18.347656 2.53125 C 17.299539 1.7612005 16.07311 1.3807961 14.851562 1.375 z M 12.871094 7.8867188 C 12.563132 7.8867188 12.256434 8.0052646 12.021484 8.2402344 L 8.28125 11.978516 C 7.8113105 12.448515 7.8113105 13.209788 8.28125 13.679688 C 8.7511895 14.149687 9.5144155 14.149687 9.984375 13.679688 L 13.722656 9.9414062 C 14.192556 9.4714667 14.192556 8.7101939 13.722656 8.2402344 C 13.487656 8.0052646 13.179056 7.8867188 12.871094 7.8867188 z M 6.34375 7.8886719 C 6.0358453 7.8886719 5.7271373 8.0053596 5.4921875 8.2402344 L 3.234375 10.5 C 2.204986 11.492699 1.5546073 12.81493 1.3984375 14.236328 C 1.1067378 17.437925 3.466382 20.268647 6.6679688 20.560547 C 8.387277 20.717047 10.086995 20.102611 11.308594 18.882812 L 13.722656 16.470703 C 14.192356 16.000804 14.192356 15.239431 13.722656 14.769531 C 13.252757 14.299832 12.491384 14.299832 12.021484 14.769531 L 9.7246094 17.064453 C 8.4508606 18.385352 6.3766098 18.508402 4.9570312 17.345703 C 4.1116121 16.613704 3.6787214 15.51199 3.8007812 14.400391 C 3.9064911 13.580891 4.2900593 12.821699 4.8867188 12.25 L 7.1933594 9.9414062 C 7.6631289 9.4714967 7.6631289 8.7101339 7.1933594 8.2402344 C 6.9584096 8.0053596 6.6516547 7.8886719 6.34375 7.8886719 z "
     style="stroke:url(#linearGradient18);stroke-opacity:1;fill:url(#linearGradient16);fill-opacity:1;stroke-width:0.5;stroke-dasharray:none" />
  <defs
     id="defs14">
    <linearGradient
       id="linearGradient17"
       inkscape:collect="always">
      <stop
         style="stop-color:#00f1fa;stop-opacity:1;"
         offset="0"
         id="stop17" />
      <stop
         style="stop-color:#006cff;stop-opacity:1;"
         offset="1"
         id="stop18" />
    </linearGradient>
    <linearGradient
       id="linearGradient14"
       inkscape:collect="always">
      <stop
         style="stop-color:#00f1fa;stop-opacity:1;"
         offset="0"
         id="stop15" />
      <stop
         style="stop-color:#006cff;stop-opacity:1;"
         offset="1"
         id="stop16" />
    </linearGradient>
    <linearGradient
       id="paint0_linear_451_3062"
       x1="1.375"
       y1="20.5848"
       x2="16.6977"
       y2="13.9046"
       gradientUnits="userSpaceOnUse">
      <stop
         stop-color="#0357D1"
         id="stop3" />
      <stop
         offset="1"
         stop-color="#27CDFC"
         id="stop4" />
    </linearGradient>
    <linearGradient
       id="paint1_linear_451_3062"
       x1="1.375"
       y1="20.5848"
       x2="16.6977"
       y2="13.9046"
       gradientUnits="userSpaceOnUse">
      <stop
         stop-color="#0357D1"
         id="stop5" />
      <stop
         offset="1"
         stop-color="#27CDFC"
         id="stop6" />
    </linearGradient>
    <linearGradient
       id="paint2_linear_451_3062"
       x1="7.92967"
       y1="14.0306"
       x2="23.2331"
       y2="7.33948"
       gradientUnits="userSpaceOnUse">
      <stop
         stop-color="#0357D1"
         id="stop7" />
      <stop
         offset="1"
         stop-color="#27CDFC"
         id="stop8" />
    </linearGradient>
    <linearGradient
       id="paint3_linear_451_3062"
       x1="7.92967"
       y1="14.0306"
       x2="23.2331"
       y2="7.33948"
       gradientUnits="userSpaceOnUse">
      <stop
         stop-color="#0357D1"
         id="stop9" />
      <stop
         offset="1"
         stop-color="#27CDFC"
         id="stop10" />
    </linearGradient>
    <linearGradient
       id="paint4_linear_451_3062"
       x1="7.92968"
       y1="14.0328"
       x2="15.3451"
       y2="10.8007"
       gradientUnits="userSpaceOnUse">
      <stop
         stop-color="#0357D1"
         id="stop11" />
      <stop
         offset="1"
         stop-color="#27CDFC"
         id="stop12" />
    </linearGradient>
    <linearGradient
       id="paint5_linear_451_3062"
       x1="7.92968"
       y1="14.0328"
       x2="15.3451"
       y2="10.8007"
       gradientUnits="userSpaceOnUse">
      <stop
         stop-color="#0357D1"
         id="stop13" />
      <stop
         offset="1"
         stop-color="#27CDFC"
         id="stop14" />
    </linearGradient>
    <linearGradient
       inkscape:collect="always"
       xlink:href="#linearGradient14"
       id="linearGradient16"
       x1="1.1241086"
       y1="20.834543"
       x2="20.873896"
       y2="10.979738"
       gradientUnits="userSpaceOnUse" />
    <linearGradient
       inkscape:collect="always"
       xlink:href="#linearGradient17"
       id="linearGradient18"
       x1="1.1241086"
       y1="20.834543"
       x2="20.873896"
       y2="10.979738"
       gradientUnits="userSpaceOnUse" />
  </defs>
</svg>
