<?xml version="1.0" encoding="UTF-8" standalone="no"?>
<svg
   width="22"
   height="22"
   viewBox="0 0 22 22"
   fill="none"
   version="1.1"
   id="svg2"
   sodipodi:docname="insert-text.svg"
   inkscape:version="1.3.2 (091e20ef0f, 2023-11-25, custom)"
   xmlns:inkscape="http://www.inkscape.org/namespaces/inkscape"
   xmlns:sodipodi="http://sodipodi.sourceforge.net/DTD/sodipodi-0.dtd"
   xmlns:xlink="http://www.w3.org/1999/xlink"
   xmlns="http://www.w3.org/2000/svg"
   xmlns:svg="http://www.w3.org/2000/svg">
  <sodipodi:namedview
     id="namedview2"
     pagecolor="#ffffff"
     bordercolor="#666666"
     borderopacity="1.0"
     inkscape:showpageshadow="2"
     inkscape:pageopacity="0.0"
     inkscape:pagecheckerboard="0"
     inkscape:deskcolor="#d1d1d1"
     inkscape:zoom="24.81302"
     inkscape:cx="7.4557632"
     inkscape:cy="10.800781"
     inkscape:current-layer="svg2" />
  <path
     d="M2.44774 1.11646C2.81845 1.01623 3.20923 1.03881 3.59003 1.03125C8.76034 1.05131 13.9332 1.01875 19.1035 1.04878C19.85 1.02626 20.5314 1.68764 20.5013 2.43916C20.5138 4.16769 20.5314 5.89875 20.4938 7.6273C20.5113 8.00057 20.0629 8.25859 19.7323 8.1258C19.3565 8.06568 19.3516 7.58969 19.2087 7.31665C18.7128 5.5956 17.2373 4.0349 15.3786 3.92219C14.5419 3.89462 13.6802 3.80198 12.8585 3.98482C12.4377 4.09757 12.4427 4.59109 12.4352 4.9368C12.4402 8.94754 12.4252 12.9607 12.4427 16.974C12.4301 18.5497 13.7955 19.9025 15.3485 19.9851C15.9773 19.8273 16.2979 20.8469 15.6116 20.9321C12.6031 20.9947 9.58699 20.9521 6.57601 20.9546C6.06747 21.0749 5.74431 20.396 6.15014 20.0954C6.74882 19.92 7.40765 19.9275 7.95875 19.6094C8.91066 19.0933 9.55691 18.0536 9.55691 16.9664C9.572 12.9607 9.55945 8.95754 9.56447 4.95433C9.61205 4.50591 9.45674 3.92473 8.90564 3.91968C7.50283 3.86959 5.94224 3.72931 4.72729 4.58604C3.62007 5.33012 2.98883 6.55256 2.61806 7.79766C2.46528 8.39633 1.43072 8.20851 1.49834 7.58471C1.47078 5.88373 1.48579 4.17773 1.49335 2.47675C1.47828 1.87801 1.8741 1.29933 2.44774 1.11646Z"
     id="path1"
     style="fill:url(#linearGradient4);fill-opacity:1" />
  <defs
     id="defs2">
    <linearGradient
       id="linearGradient2"
       inkscape:collect="always">
      <stop
         style="stop-color:#e5f230;stop-opacity:1;"
         offset="0"
         id="stop3" />
      <stop
         style="stop-color:#24d864;stop-opacity:1;"
         offset="1"
         id="stop4" />
    </linearGradient>
    <linearGradient
       inkscape:collect="always"
       xlink:href="#linearGradient2"
       id="linearGradient4"
       x1="6.5760102"
       y1="20.954599"
       x2="19.1035"
       y2="1.04878"
       gradientUnits="userSpaceOnUse" />
  </defs>
</svg>
