<?xml version="1.0" encoding="UTF-8" standalone="no"?>
<svg
   width="24"
   height="24"
   viewBox="0 0 24 24"
   fill="none"
   version="1.1"
   id="svg11"
   sodipodi:docname="media-playlist-shuffle.svg"
   inkscape:version="1.3.2 (091e20ef0f, 2023-11-25, custom)"
   xmlns:inkscape="http://www.inkscape.org/namespaces/inkscape"
   xmlns:sodipodi="http://sodipodi.sourceforge.net/DTD/sodipodi-0.dtd"
   xmlns="http://www.w3.org/2000/svg"
   xmlns:svg="http://www.w3.org/2000/svg">
  <sodipodi:namedview
     id="namedview13"
     pagecolor="#ffffff"
     bordercolor="#666666"
     borderopacity="1.0"
     inkscape:showpageshadow="2"
     inkscape:pageopacity="0.0"
     inkscape:pagecheckerboard="0"
     inkscape:deskcolor="#d1d1d1"
     showgrid="false"
     inkscape:zoom="14.75"
     inkscape:cx="5.7627119"
     inkscape:cy="8.0338983"
     inkscape:current-layer="svg11" />
  <path
     d="m 2.9256143,4.9837249 c -0.3099928,0 -0.5613015,0.2513087 -0.5613015,0.5613015 v 1.6839044 c 0,0.3099928 0.2513087,0.5613015 0.5613015,0.5613015 h 5.4064418 c 0.2126069,0 0.4069576,0.1201185 0.502042,0.3102734 L 9.580166,9.5926556 c 0.2068537,0.4137074 0.797231,0.4137074 1.004084,0 l 0.775705,-1.5513952 c 0.079,-0.1580345 0.079,-0.3440217 0,-0.5020561 L 10.237352,5.2939984 C 10.142267,5.1038435 9.9479167,4.9837249 9.7353098,4.9837249 Z M 17.294932,14.076809 c -0.370038,-0.277522 -0.898082,-0.0135 -0.898082,0.449041 v 1.250299 c 0,0.239395 -0.19421,0.433605 -0.433605,0.433605 v 0 c -0.164321,0 -0.31447,-0.09276 -0.38786,-0.239676 l -0.781374,-1.562747 c -0.206853,-0.413707 -0.79723,-0.413707 -1.004084,0 l -0.775704,1.551381 c -0.079,0.158006 -0.079,0.344078 0,0.502084 l 1.122603,2.245206 c 0.09508,0.190141 0.289435,0.31026 0.502042,0.31026 h 1.19668 c 0.309979,0 0.561302,0.251322 0.561302,0.561301 v 1.122603 c 0,0.462512 0.528044,0.726605 0.898082,0.449041 l 4.116164,-3.087158 c 0.299455,-0.224521 0.299455,-0.673562 0,-0.898082 z m 0,-11.2260297 C 16.924894,2.5732578 16.39685,2.83728 16.39685,3.2998205 v 1.122603 c 0,0.3099927 -0.251323,0.5613014 -0.561302,0.5613014 h -1.19668 c -0.212607,0 -0.406958,0.1201186 -0.502042,0.3102735 L 8.8340981,15.899495 c -0.095084,0.190141 -0.2894351,0.310259 -0.502042,0.310259 H 2.9256143 c -0.3099928,0 -0.5613015,0.251323 -0.5613015,0.561302 v 1.683904 c 0,0.309979 0.2513087,0.561302 0.5613015,0.561302 h 6.8096955 c 0.2126069,0 0.4069572,-0.120119 0.5020422,-0.31026 L 15.575385,8.0299361 c 0.07339,-0.1469066 0.223539,-0.2397038 0.38786,-0.2397038 v 0 c 0.239395,0 0.433605,0.1941402 0.433605,0.4336335 v 1.2502709 c 0,0.4625405 0.528044,0.7265623 0.898082,0.4490412 l 4.116164,-3.0871581 c 0.299455,-0.2245206 0.299455,-0.6735618 0,-0.8980824 z"
     fill="url(#paint0_linear_622_44)"
     id="path2"
     style="fill:url(#paint0_linear_622_44);stroke-width:1.40325" />
  <defs
     id="defs9">
    <linearGradient
       id="paint0_linear_622_44"
       x1="1.4"
       y1="13"
       x2="13.10665"
       y2="2.5799999"
       gradientUnits="userSpaceOnUse"
       gradientTransform="matrix(1.4032537,0,0,1.4032537,0.96105912,0.7739706)">
      <stop
         stop-color="#e5f230"
         id="stop4"
         offset="0"
         style="stop-color:#e5f230;stop-opacity:1;" />
      <stop
         offset="1"
         stop-color="#54d864"
         id="stop6"
         style="stop-color:#54d864;stop-opacity:1;" />
    </linearGradient>
  </defs>
</svg>
