<?xml version="1.0" encoding="UTF-8" standalone="no"?>
<svg
   width="24"
   height="24"
   viewBox="0 0 24 24"
   fill="none"
   version="1.1"
   id="svg11"
   sodipodi:docname="media-seek-forward.svg"
   inkscape:version="1.2.2 (b0a8486541, 2022-12-01)"
   xmlns:inkscape="http://www.inkscape.org/namespaces/inkscape"
   xmlns:sodipodi="http://sodipodi.sourceforge.net/DTD/sodipodi-0.dtd"
   xmlns:xlink="http://www.w3.org/1999/xlink"
   xmlns="http://www.w3.org/2000/svg"
   xmlns:svg="http://www.w3.org/2000/svg">
  <sodipodi:namedview
     id="namedview13"
     pagecolor="#ffffff"
     bordercolor="#666666"
     borderopacity="1.0"
     inkscape:pageshadow="2"
     inkscape:pageopacity="0.0"
     inkscape:pagecheckerboard="0"
     showgrid="true"
     gridtolerance="4.8"
     inkscape:zoom="16"
     inkscape:cx="3.59375"
     inkscape:cy="14.25"
     inkscape:current-layer="svg11"
     inkscape:showpageshadow="2"
     inkscape:deskcolor="#d1d1d1">
    <inkscape:grid
       type="xygrid"
       id="grid1244"
       spacingx="0.5"
       spacingy="0.5" />
  </sodipodi:namedview>
  <defs
     id="defs9">
    <linearGradient
       id="paint0_linear"
       x1="12.382254"
       y1="8.1303644"
       x2="12.378265"
       y2="18"
       gradientUnits="userSpaceOnUse"
       gradientTransform="rotate(90,12.506309,12.124055)">
      <stop
         stop-color="#e5f230"
         id="stop4" />
      <stop
         offset="1"
         stop-color="#54d863"
         id="stop6"
         style="stop-color:#12ff64;stop-opacity:1;" />
    </linearGradient>
    <linearGradient
       inkscape:collect="always"
       xlink:href="#paint0_linear"
       id="linearGradient239"
       gradientUnits="userSpaceOnUse"
       gradientTransform="rotate(90,10.006106,9.6238525)"
       x1="12.382254"
       y1="8.1303644"
       x2="12.378265"
       y2="18" />
    <linearGradient
       inkscape:collect="always"
       xlink:href="#paint0_linear"
       id="linearGradient241"
       gradientUnits="userSpaceOnUse"
       gradientTransform="rotate(90,15.006106,14.623852)"
       x1="12.382254"
       y1="8.1303644"
       x2="12.378265"
       y2="18" />
  </defs>
  <g
     id="g256">
    <path
       d="m 11.99776,21.015145 c 0.1161,0.1164 0.254,0.2088 0.4059,0.2718 0.1519,0.063 0.3147,0.0954 0.4791,0.0954 0.1644,0 0.3272,-0.0324 0.4791,-0.0954 0.1518,-0.063 0.2898,-0.1554 0.4059,-0.2718 l 8.30999,-8.31 c 0.0927,-0.0925 0.16625,-0.2024 0.21643,-0.3234 0.05018,-0.1209 0.07601,-0.2506 0.07601,-0.3816 0,-0.131 -0.02583,-0.2606 -0.07601,-0.3816 -0.05018,-0.121 -0.12373,-0.2309 -0.21643,-0.3234 L 13.76776,2.9851549 c -0.49,-0.49 -1.28,-0.49 -1.77,0 -0.49,0.49 -0.49,1.28 0,1.77 l 7.24,7.2499901 -7.25,7.25 c -0.48,0.48 -0.48,1.28 0.01,1.76 z"
       fill="url(#paint0_linear)"
       id="path2"
       style="fill:url(#linearGradient241)" />
    <path
       d="m 1.9977597,21.015145 c 0.1161,0.1164 0.254,0.2088 0.4059,0.2718 0.1519,0.063 0.3147,0.0954 0.4791,0.0954 0.1644,0 0.3272,-0.0324 0.4791,-0.0954 0.1518,-0.063 0.2898,-0.1554 0.4059,-0.2718 l 8.3099903,-8.31 c 0.0927,-0.0925 0.16625,-0.2024 0.21643,-0.3234 0.05018,-0.1209 0.07601,-0.2506 0.07601,-0.3816 0,-0.131 -0.02583,-0.2606 -0.07601,-0.3816 -0.05018,-0.121 -0.12373,-0.2309 -0.21643,-0.3234 L 3.7677597,2.9851549 c -0.49,-0.49 -1.28,-0.49 -1.77,0 -0.49,0.49 -0.49,1.28 0,1.77 l 7.2400003,7.2499901 -7.2500003,7.25 c -0.48,0.48 -0.48,1.28 0.01,1.76 z"
       fill="url(#paint0_linear)"
       id="path237"
       style="fill:url(#linearGradient239)" />
  </g>
</svg>
