<?xml version="1.0" encoding="UTF-8" standalone="no"?>
<svg
   width="24"
   height="24"
   viewBox="0 0 24 24"
   fill="none"
   version="1.1"
   id="svg11"
   sodipodi:docname="media-skip-backward.svg"
   inkscape:version="1.2.2 (b0a8486541, 2022-12-01)"
   xmlns:inkscape="http://www.inkscape.org/namespaces/inkscape"
   xmlns:sodipodi="http://sodipodi.sourceforge.net/DTD/sodipodi-0.dtd"
   xmlns:xlink="http://www.w3.org/1999/xlink"
   xmlns="http://www.w3.org/2000/svg"
   xmlns:svg="http://www.w3.org/2000/svg">
  <sodipodi:namedview
     id="namedview13"
     pagecolor="#ffffff"
     bordercolor="#666666"
     borderopacity="1.0"
     inkscape:pageshadow="2"
     inkscape:pageopacity="0.0"
     inkscape:pagecheckerboard="0"
     showgrid="true"
     gridtolerance="4.8"
     inkscape:zoom="11.313709"
     inkscape:cx="-5.2591067"
     inkscape:cy="5.3033009"
     inkscape:current-layer="svg11"
     inkscape:showpageshadow="2"
     inkscape:deskcolor="#d1d1d1">
    <inkscape:grid
       type="xygrid"
       id="grid1244"
       spacingx="0.5"
       spacingy="0.5" />
  </sodipodi:namedview>
  <defs
     id="defs9">
    <linearGradient
       id="paint0_linear"
       x1="12.382254"
       y1="8.1303644"
       x2="12.378265"
       y2="18"
       gradientUnits="userSpaceOnUse"
       gradientTransform="rotate(90,12.506309,12.124055)">
      <stop
         stop-color="#e5f230"
         id="stop4" />
      <stop
         offset="1"
         stop-color="#54d863"
         id="stop6"
         style="stop-color:#12ff64;stop-opacity:1;" />
    </linearGradient>
    <linearGradient
       inkscape:collect="always"
       xlink:href="#paint0_linear"
       id="linearGradient239"
       gradientUnits="userSpaceOnUse"
       gradientTransform="rotate(90,9.506106,9.1238525)"
       x1="12.382254"
       y1="8.1303644"
       x2="12.378265"
       y2="18" />
    <linearGradient
       inkscape:collect="always"
       xlink:href="#paint0_linear"
       id="linearGradient241"
       gradientUnits="userSpaceOnUse"
       gradientTransform="rotate(90,13.006106,12.623852)"
       x1="12.382254"
       y1="8.1303644"
       x2="12.378265"
       y2="18" />
    <linearGradient
       inkscape:collect="always"
       id="linearGradient823-7">
      <stop
         style="stop-color:#e5f230;stop-opacity:1;"
         offset="0"
         id="stop821-3" />
      <stop
         style="stop-color:#54d864;stop-opacity:1;"
         offset="1"
         id="stop819-5" />
    </linearGradient>
    <radialGradient
       inkscape:collect="always"
       xlink:href="#linearGradient823-7"
       id="radialGradient2136"
       cx="22.135321"
       cy="11.760299"
       fx="22.135321"
       fy="11.760299"
       r="1.2063215"
       gradientTransform="matrix(1,0,0,7.7777772,0,-79.708687)"
       gradientUnits="userSpaceOnUse" />
  </defs>
  <g
     id="g256"
     transform="matrix(-1,0,0,1,23.970643,0)">
    <path
       d="m 7.9977597,21.015145 c 0.1161,0.1164 0.254,0.2088 0.4059,0.2718 0.1519,0.063 0.3147,0.0954 0.4791,0.0954 0.1644003,0 0.3272003,-0.0324 0.4791003,-0.0954 0.1518,-0.063 0.2898,-0.1554 0.4059,-0.2718 l 8.30999,-8.31 c 0.0927,-0.0925 0.16625,-0.2024 0.21643,-0.3234 0.05018,-0.1209 0.07601,-0.2506 0.07601,-0.3816 0,-0.131 -0.02583,-0.2606 -0.07601,-0.3816 -0.05018,-0.121 -0.12373,-0.2309 -0.21643,-0.3234 L 9.76776,2.9851549 c -0.49,-0.49 -1.2800003,-0.49 -1.7700003,0 -0.49,0.49 -0.49,1.28 0,1.77 l 7.2400003,7.2499901 -7.2500003,7.25 c -0.48,0.48 -0.48,1.28 0.01,1.76 z"
       fill="url(#paint0_linear)"
       id="path2"
       style="fill:url(#linearGradient241)" />
    <path
       d="m 0.99775967,21.015145 c 0.11610003,0.1164 0.25400003,0.2088 0.40590003,0.2718 0.1519,0.063 0.3147,0.0954 0.4791,0.0954 0.1644,0 0.3272,-0.0324 0.4791,-0.0954 0.1518,-0.063 0.2898,-0.1554 0.4059,-0.2718 l 8.3099903,-8.31 c 0.0927,-0.0925 0.16625,-0.2024 0.21643,-0.3234 0.05018,-0.1209 0.07601,-0.2506 0.07601,-0.3816 0,-0.131 -0.02583,-0.2606 -0.07601,-0.3816 -0.05018,-0.121 -0.12373,-0.2309 -0.21643,-0.3234 L 2.7677597,2.9851549 c -0.49,-0.49 -1.28,-0.49 -1.77000003,0 -0.49,0.49 -0.49,1.28 0,1.77 L 8.23776,12.005145 l -7.25000033,7.25 c -0.48,0.48 -0.48,1.28 0.01,1.76 z"
       fill="url(#paint0_linear)"
       id="path237"
       style="fill:url(#linearGradient239)" />
    <path
       d="m 20.929,19.735423 c 0,0.777285 0.540073,1.407376 1.20632,1.407376 v 0 c 0.666247,-5e-6 1.206323,-0.630091 1.206323,-1.407376 V 3.7851745 c 0,-0.7772713 -0.540076,-1.4073751 -1.206323,-1.4073751 v 0 c -0.666247,0 -1.20632,0.6301038 -1.20632,1.4073751 z"
       fill="url(#radialGradient2136)"
       id="path2-3"
       style="fill:url(#radialGradient2136);fill-opacity:1;stroke:none;stroke-width:0.321723"
       sodipodi:nodetypes="sssssssss" />
  </g>
</svg>
