<?xml version="1.0" encoding="UTF-8" standalone="no"?>
<svg
   width="192"
   height="192"
   viewBox="0 0 192 192"
   fill="none"
   version="1.1"
   id="svg14"
   sodipodi:docname="view-media-chart.svg"
   inkscape:version="1.3.2 (091e20ef0f, 2023-11-25, custom)"
   xmlns:inkscape="http://www.inkscape.org/namespaces/inkscape"
   xmlns:sodipodi="http://sodipodi.sourceforge.net/DTD/sodipodi-0.dtd"
   xmlns:xlink="http://www.w3.org/1999/xlink"
   xmlns="http://www.w3.org/2000/svg"
   xmlns:svg="http://www.w3.org/2000/svg">
  <sodipodi:namedview
     id="namedview14"
     pagecolor="#ffffff"
     bordercolor="#666666"
     borderopacity="1.0"
     inkscape:showpageshadow="2"
     inkscape:pageopacity="0.0"
     inkscape:pagecheckerboard="0"
     inkscape:deskcolor="#d1d1d1"
     inkscape:zoom="2.8284272"
     inkscape:cx="73.892657"
     inkscape:cy="117.91005"
     inkscape:current-layer="svg14" />
  <path
     d="m 89.61118,172.51364 v 0 c 4.667418,0.3941 8.14611,4.5182 7.76445,9.20363 v 0 c -0.38564,4.68142 -4.504414,8.1646 -9.19171,7.7705 v 0 C 64.687806,187.52922 42.758101,176.72931 26.843557,159.25757 10.968774,141.78582 2.246187,118.92806 2.4608722,95.297998 2.683519,70.477704 12.765768,46.728227 30.441525,29.304261 48.157037,11.920112 72.058669,2.2626748 96.84687,2.4856035 c 24.7882,0.2230346 48.50695,10.3182475 65.90838,28.0168915 17.35772,17.738451 27.00662,41.67103 26.78398,66.491323 v 0 c -0.0437,4.697382 -3.88819,8.479122 -8.57945,8.435352 v 0 c -4.69525,-0.0397 -8.47212,-3.88926 -8.42839,-8.590602 v 0 C 172.71425,76.532504 164.81464,56.958906 150.61361,42.440906 136.37281,27.962732 116.97162,19.698584 96.69182,19.515483 76.412009,19.332467 56.863719,27.242218 42.364511,41.461623 27.905057,55.720865 19.651602,75.147192 19.46872,95.453248 c -0.174939,19.326822 6.92559,38.040572 19.937905,52.335632 13.008338,14.29506 30.958415,23.10059 50.204555,24.72476 z m 73.83981,-40.11852 v 0 c 2.21842,-4.14004 7.37882,-5.69653 11.5135,-3.47524 v 0 c 4.1307,2.22526 5.68518,7.38836 3.46677,11.52839 v 0 c -9.47001,17.62699 -24.35485,31.79866 -42.42022,40.36138 v 0 c -4.24203,2.03019 -9.32292,0.2269 -11.33459,-4.02063 v 0 c -2.01566,-4.24753 -0.20673,-9.34293 4.03529,-11.37314 v 0 c 14.81725,-7.01816 26.95493,-18.57445 34.73925,-33.02076 z"
     fill-rule="evenodd"
     fill="url(#_lgradient_13)"
     id="path2-6"
     sodipodi:nodetypes="sssssscccscsssssscscccssssssssssssss"
     style="display:none;isolation:isolate;fill:url(#_lgradient_13);stroke-width:3.97822" />
  <defs
     id="defs14">
    <linearGradient
       id="linearGradient46"
       x1="95.1427"
       y1="155.562"
       x2="95.1427"
       y2="34.0551"
       gradientUnits="userSpaceOnUse"
       gradientTransform="rotate(-90,96.164905,94.975871)">
      <stop
         id="stop45"
         offset="0"
         style="stop-color:#00f1fa;stop-opacity:1;" />
      <stop
         offset="1"
         id="stop46"
         style="stop-color:#006cff;stop-opacity:1;" />
    </linearGradient>
    <linearGradient
       id="linearGradient44"
       x1="95.1427"
       y1="155.562"
       x2="95.1427"
       y2="34.0551"
       gradientUnits="userSpaceOnUse"
       gradientTransform="rotate(-90,96.164905,94.975871)">
      <stop
         id="stop43"
         offset="0"
         style="stop-color:#00f1fa;stop-opacity:1;" />
      <stop
         offset="1"
         id="stop44"
         style="stop-color:#006cff;stop-opacity:1;" />
    </linearGradient>
    <linearGradient
       id="_lgradient_13"
       x1="5.6489534e-07"
       y1="0.99999219"
       x2="0.99999893"
       y2="0.49999666"
       gradientTransform="matrix(187.08632,0,0,187.03803,2.4568959,2.4816161)"
       gradientUnits="userSpaceOnUse">
      <stop
         offset="0"
         stop-opacity="1"
         style="stop-color:#00f1fa;stop-opacity:1;"
         id="stop1" />
      <stop
         offset="1"
         stop-opacity="1"
         style="stop-color:#006cff;stop-opacity:1;"
         id="stop2" />
    </linearGradient>
    <linearGradient
       inkscape:collect="always"
       xlink:href="#linearGradient44"
       id="linearGradient38"
       gradientUnits="userSpaceOnUse"
       gradientTransform="matrix(0.35256211,0.75607188,0.75607188,-0.35256211,5.5066868,79.193791)"
       x1="108.51758"
       y1="-32.287659"
       x2="102.92874"
       y2="173.06473" />
    <linearGradient
       inkscape:collect="always"
       xlink:href="#linearGradient46"
       id="linearGradient39"
       gradientUnits="userSpaceOnUse"
       gradientTransform="matrix(0.35256211,0.75607188,0.75607188,-0.35256211,5.5066868,79.193791)"
       x1="108.51758"
       y1="-32.287659"
       x2="102.92874"
       y2="173.06473" />
  </defs>
  <path
     id="path38"
     style="display:inline;fill:url(#linearGradient38);stroke:url(#linearGradient39);stroke-width:2.71403;stroke-dasharray:none"
     d="m 85.111136,26.198418 c -0.40811,-0.0013 -0.81663,0.0215 -1.22449,0.06625 -0.004,3.94e-4 -0.007,0.0024 -0.0107,0.0028 -3.98659,0.335754 -7.5583,3.225517 -8.70927,7.068663 -4.39556,13.019428 -8.72897,26.076483 -13.058599,39.130748 -3.255012,9.814362 -8.752736,26.101342 -12.032891,35.891951 l 0.09807,1.08403 c -4.101159,0.0329 -8.201186,0.0857 -12.300582,0.11924 -7.948532,-0.0335 -15.896694,-0.07 -23.837846,0.0163 -4.1329842,-0.0906 -8.2621512,2.47356 -9.7137752,6.13306 -0.38553,1.02691 -0.525761,2.05536 -0.50093,3.06122 -0.08914,2.36115 0.835465,4.63034 2.366824,6.37423 1.827201,2.08074 4.5838462,3.51757 7.6517522,3.4853 0.204526,-0.003 0.410439,-0.013 0.617548,-0.0265 14.207682,-0.0594 28.425149,-0.14119 42.642547,-0.23056 l 0.0028,-0.0172 c 1.445286,0.0358 2.884328,-0.2283 4.203557,-0.77127 2.998005,-1.23525 5.534755,-3.85881 6.233785,-7.32309 1.83374,-5.5155 3.66676,-11.03225 5.50226,-16.54924 4.48596,-13.484409 8.95204,-26.974679 13.42436,-40.463899 1.57135,3.359137 2.41537,5.144001 3.61252,7.733917 4.05222,8.766803 12.236884,26.252243 12.236884,26.252243 l 8.97964,19.247349 c 0,0 5.57095,11.89297 8.33823,17.87971 4.09843,8.86655 8.20713,17.75424 12.52056,26.48296 l 0.006,0.0172 0.013,0.0163 h -0.003 c 1.78915,3.42554 5.40317,4.99072 8.84445,4.9192 1.28613,-0.027 2.58778,-0.28484 3.80069,-0.77658 2.02148,-0.8195 3.79766,-2.28971 4.84495,-4.44474 7.22657,-13.29615 20.67169,-38.38473 21.53197,-39.98949 l 0.82956,-1.62473 c 0,0 9.58724,-17.8899 14.40237,-26.811609 2.4436,-3.78896 2.45835,-9.10826 -0.72356,-12.66634 -2.50253,-2.97772 -6.26013,-3.81645 -9.6104,-3.09569 -3.31484,0.71323 -6.40693,2.98587 -7.69417,6.46437 -4.23112,7.93793 -12.76441,23.800779 -12.76441,23.800779 l -1.46035,2.71665 -0.92767,1.72807 3.5436,-6.50946 -11.94539,22.3033 c 0,0 -2.24855,4.18307 -3.36073,6.27884 -1.84394,-3.94919 -5.51553,-11.86593 -5.51553,-11.86593 l -12.16062,-26.078639 -1.12114,-2.40128 -10.74479,-23.040069 c 0,0 -3.69183,-7.902031 -5.52877,-11.860612 -4.03476,-8.697522 -8.075584,-17.403801 -12.226354,-26.048293 -1.45898,-3.359974 -4.60364,-5.225675 -7.85054,-5.602977 -0.40262,-0.0466 -0.81108,-0.07289 -1.21919,-0.07421 z m 86.077594,94.386632 -0.074,0.14591 0.75802,-1.41531 c 0,0 -0.6565,1.21861 -0.6838,1.26956 z" />
</svg>
