<?xml version="1.0" encoding="UTF-8" standalone="no"?>
<!-- Generator: Gravit.io -->

<svg
   style="isolation:isolate"
   viewBox="0 0 16 16"
   width="16pt"
   height="16pt"
   version="1.1"
   id="svg3"
   sodipodi:docname="process-stop.svg"
   inkscape:version="1.4 (e7c3feb100, 2024-10-09)"
   xmlns:inkscape="http://www.inkscape.org/namespaces/inkscape"
   xmlns:sodipodi="http://sodipodi.sourceforge.net/DTD/sodipodi-0.dtd"
   xmlns:xlink="http://www.w3.org/1999/xlink"
   xmlns="http://www.w3.org/2000/svg"
   xmlns:svg="http://www.w3.org/2000/svg">
  <defs
     id="defs3">
    <linearGradient
       id="paint0_linear"
       x1="116.5884"
       y1="63.999962"
       x2="11.27038"
       y2="116.87499"
       gradientUnits="userSpaceOnUse"
       gradientTransform="matrix(0.39999996,0,0,0.39999996,-1.6313795,-1.8499985)">
      <stop
         id="stop1-3"
         offset="0"
         style="stop-color:#9033dd;stop-opacity:1;" />
      <stop
         offset="1"
         id="stop2"
         style="stop-color:#f069ff;stop-opacity:1;" />
    </linearGradient>
    <linearGradient
       inkscape:collect="always"
       id="linearGradient4158">
      <stop
         style="stop-color:#ff69ff;stop-opacity:1;"
         offset="0"
         id="stop4154" />
      <stop
         style="stop-color:#9033dd;stop-opacity:1;"
         offset="1"
         id="stop4156" />
    </linearGradient>
    <linearGradient
       inkscape:collect="always"
       xlink:href="#linearGradient4158"
       id="linearGradient11"
       gradientUnits="userSpaceOnUse"
       gradientTransform="translate(-0.07006388)"
       x1="40.643227"
       y1="121.71202"
       x2="121.37716"
       y2="64.379631" />
    <linearGradient
       inkscape:collect="always"
       xlink:href="#linearGradient4158"
       id="linearGradient13"
       gradientUnits="userSpaceOnUse"
       gradientTransform="translate(-0.07006388)"
       x1="40.643227"
       y1="121.71202"
       x2="121.37716"
       y2="64.379631" />
    <linearGradient
       inkscape:collect="always"
       xlink:href="#linearGradient4158"
       id="linearGradient14"
       gradientUnits="userSpaceOnUse"
       gradientTransform="translate(-0.07006388)"
       x1="40.643227"
       y1="121.71202"
       x2="121.37716"
       y2="64.379631" />
    <linearGradient
       inkscape:collect="always"
       xlink:href="#linearGradient4158"
       id="linearGradient15"
       gradientUnits="userSpaceOnUse"
       gradientTransform="translate(-0.07006388)"
       x1="40.643227"
       y1="121.71202"
       x2="121.37716"
       y2="64.379631" />
    <linearGradient
       inkscape:collect="always"
       xlink:href="#linearGradient4158"
       id="linearGradient16"
       gradientUnits="userSpaceOnUse"
       gradientTransform="translate(-0.07006388)"
       x1="40.643227"
       y1="121.71202"
       x2="121.37716"
       y2="64.379631" />
    <linearGradient
       inkscape:collect="always"
       xlink:href="#linearGradient4158"
       id="linearGradient17"
       gradientUnits="userSpaceOnUse"
       gradientTransform="matrix(0.00632379,-0.00669881,-0.00632383,-0.00669883,9.5759513,14.516488)"
       x1="315.57132"
       y1="266.76324"
       x2="724.89319"
       y2="676.08313" />
    <linearGradient
       inkscape:collect="always"
       xlink:href="#linearGradient4158"
       id="linearGradient21"
       gradientUnits="userSpaceOnUse"
       gradientTransform="translate(-0.07006388)"
       x1="40.643227"
       y1="121.71202"
       x2="121.37716"
       y2="64.379631" />
  </defs>
  <sodipodi:namedview
     id="namedview3"
     pagecolor="#ffffff"
     bordercolor="#666666"
     borderopacity="1.0"
     inkscape:showpageshadow="2"
     inkscape:pageopacity="0.0"
     inkscape:pagecheckerboard="0"
     inkscape:deskcolor="#d1d1d1"
     inkscape:document-units="pt"
     inkscape:zoom="32"
     inkscape:cx="9.671875"
     inkscape:cy="11.09375"
     inkscape:current-layer="svg3" />
  <linearGradient
     id="_lgradient_29"
     x1="1.310181e-05"
     y1="1"
     x2="1.0000134"
     y2="0.49999967"
     gradientTransform="matrix(46.807993,0,0,46.999994,0.56399997,0.49999998)"
     gradientUnits="userSpaceOnUse">
    <stop
       offset="0"
       stop-opacity="1"
       style="stop-color:#f069ff;stop-opacity:1;"
       id="stop1" />
    <stop
       offset="1"
       stop-opacity="1"
       style="stop-color:#9033dd;stop-opacity:1;"
       id="stop3" />
  </linearGradient>
  <g
     id="g2"
     transform="matrix(0.12987713,0,0,0.12987713,-0.26394624,-0.36134851)"
     style="display:inline">
    <path
       id="path2-1"
       style="display:inline;fill:url(#linearGradient21)"
       d="m 63.385116,7.0479337 c -5.197312,0.021577 -9.550632,0.7151584 -14.538257,2.1662459 -2.8333,0.9137104 -3.657433,5.0679334 -1.449533,7.0302334 1.3037,1.4155 3.411635,1.35486 5.129735,0.84556 3.7527,-0.9465 6.777691,-1.434017 10.648678,-1.473691 0.01588,0.0018 0.03243,-0.0017 0.04832,0 0.368502,0.03899 0.735847,0.06585 1.095202,0.05637 10.319472,0.152057 20.58278,3.635241 28.813487,9.864874 10.707312,7.963197 17.889362,20.435435 19.327102,33.645262 0.12448,1.058944 0.20763,2.125994 0.25769,3.188971 0.0395,0.976319 0.066,1.953999 0.0349,3.186237 -0.031,1.232238 -0.0971,2.328471 -0.19602,3.41719 -0.0255,0.273984 -0.0503,0.547885 -0.0805,0.821401 -0.0886,0.826072 -0.20929,1.64349 -0.33822,2.464206 -0.11328,0.698195 -0.23534,1.392854 -0.87538,4.383984 -0.64004,2.99113 -2.43823,8.242828 -4.89866,12.641379 -1.31038,2.03706 -0.41927,5.048592 1.82802,6.007507 1.98824,1.052144 4.69906,0.175478 5.66928,-1.844127 2.40598,-4.262686 4.26375,-9.309132 5.00852,-12.054522 0.74476,-2.74539 0.79072,-3.04785 0.86203,-3.344144 0.24192,-0.996588 0.47126,-1.995841 0.5893,-2.631014 0.11804,-0.635174 0.15624,-0.890926 0.19989,-1.14587 0.20435,-1.176611 0.37625,-2.364332 0.50734,-3.551355 0.0163,-0.15014 0.0251,-0.300703 0.0403,-0.450966 0.13507,-1.318387 0.23098,-2.637113 0.2738,-3.962056 0.0427,-1.320855 0.0428,-2.640528 0.0117,-3.480204 -0.0312,-0.839677 -0.059,-1.163096 -0.0761,-1.488469 -0.0219,-0.385765 -0.0344,-0.774251 -0.0644,-1.159626 -0.046,-0.688567 -0.11214,-1.376402 -0.18521,-2.061558 -0.0283,-0.261188 -0.0648,-0.520358 -0.0966,-0.781137 -0.12988,-1.066301 -0.28148,-2.125822 -0.47513,-3.180918 -0.0778,-0.433988 -0.16987,-0.864427 -0.25769,-1.296527 -0.14836,-0.710305 -0.30672,-1.422366 -0.62534,-2.71164 -0.31861,-1.289274 -0.80955,-3.056759 -1.42015,-4.785669 C 111.47678,25.778912 93.304589,10.697139 72.702389,7.7163293 69.625064,7.2641505 66.503504,7.0349874 63.385116,7.0479337 Z M 15.993454,35.788944 c -1.430082,0.07795 -2.801081,0.819356 -3.486931,2.117928 -2.275969,4.309262 -3.9778049,8.915549 -5.0863385,13.343143 -1.1085336,4.427594 -1.6237651,8.676496 -1.5265261,12.270989 0.194478,7.188987 0.7983828,11.2152 1.8133008,15.141892 0.5530235,2.182616 1.2455463,4.326595 2.0615574,6.426261 0.084916,0.21893 0.1781628,0.434412 0.2657474,0.65229 0.180292,0.447278 0.36395,0.894131 0.555654,1.336791 0.113829,0.263806 0.22851,0.527116 0.346278,0.78919 0.224114,0.496795 0.454284,0.991364 0.692554,1.481744 0.07432,0.15355 0.149794,0.306138 0.225483,0.459019 0.257082,0.517363 0.524686,1.028487 0.797243,1.538115 0.09679,0.18142 0.183109,0.367236 0.281853,0.547601 0.348505,0.635353 0.715087,1.26218 1.08715,1.884393 0.08728,0.145893 0.177153,0.289755 0.265747,0.434859 0.322062,0.528133 0.651851,1.052463 0.990514,1.570327 0.06173,0.09398 0.122927,0.188245 0.185218,0.281854 0.367184,0.554518 0.741621,1.100873 1.127415,1.642804 0.0604,0.0841 0.124344,0.165873 0.185218,0.249641 7.661657,10.643435 18.866817,18.763515 31.720604,21.895995 0.251926,0.0866 0.504922,0.13853 0.756978,0.16911 4.59552,1.17607 9.33423,1.78406 14.12489,1.67502 0.194988,0.0136 0.39231,0.0161 0.579813,0 h 0.0081 c 4.754418,-0.0506 9.506892,-0.72123 14.116837,-2.06961 3.069659,-0.59785 4.276752,-4.78854 2.101822,-6.96581 -1.427963,-1.71899 -3.857472,-1.47226 -5.782024,-0.90999 -14.712166,3.76301 -30.942074,-0.38699 -42.447146,-10.07425 -0.483287,-0.39931 -0.95136,-0.82195 -1.417321,-1.24015 -0.551913,-0.50323 -1.106618,-1.018658 -1.63475,-1.546172 -1.996505,-1.995092 -3.816274,-4.156838 -5.427695,-6.466525 -7.701,-10.8223 -10.56574,-24.836842 -7.86774,-37.808642 0.08884,-0.295005 0.142702,-0.602873 0.177165,-0.909984 0.860851,-3.808893 2.161363,-7.523735 3.921791,-11.016448 1.128065,-1.822227 1.104563,-4.403418 -0.636184,-5.854501 -0.829924,-0.775318 -1.963944,-1.107514 -3.07623,-1.046884 z"
       sodipodi:nodetypes="ccccccccccccccccccscccccccsccccccccccssscsccccccccccccccccccccccccccccccc" />
  </g>
  <path
     inkscape:connector-curvature="0"
     d="m 5.5639174,6.7247865 4.8694616,4.09e-5 c 0.653465,1.9e-6 1.188161,0.5664062 1.188258,1.2587234 l -1.18e-4,0.033179 c 1e-6,0.6924172 -0.534577,1.2586946 -1.18816,1.2586182 l -4.8695085,5.42e-5 C 4.9102437,9.2755091 4.3755688,8.7091311 4.3756638,8.0167632 v -0.033244 c 0,-0.6924143 0.5345984,-1.2587179 1.188253,-1.258716"
     style="display:inline;fill:url(#linearGradient17);fill-opacity:1;fill-rule:evenodd;stroke:none;stroke-width:0.0348255"
     id="path16"
     sodipodi:nodetypes="cccccccsc" />
  <g
     id="g21"
     transform="matrix(0.18190131,0,0,0.18190131,-0.57866378,-0.71073931)"
     style="display:none">
    <path
       fill-rule="evenodd"
       clip-rule="evenodd"
       d="m 48.004857,9.21379 c 7.9802,-2.32174 16.4878,-2.70371 24.694,-1.4979 20.6022,2.98081 38.777903,18.06461 45.454413,37.64961 3.79038,10.7325 4.21991,22.5733 1.38654,33.5754 -0.41445,2.2019 -2.80325,3.7522 -4.99605,3.2505 -2.4189,-0.3446 -4.0617,-3.0258 -3.3232,-5.3326 2.5169,-9.931 2.0195,-20.6485 -1.7784,-30.1901 -4.8077,-12.3876 -14.973103,-22.5808 -27.376603,-27.5014 -9.5626,-3.8871 -20.3761,-4.5986 -30.3833,-2.0746 -1.7181,0.5093 -3.8205,0.5692 -5.1242,-0.8463 -2.2079,-1.9623 -1.3865,-6.1189 1.4468,-7.03261 z m -34.5337,39.91161 c -2.291,-1.2208 -5.5240005,0.1797 -6.0660005,2.7336 -2.834,12.4326 -1.357,25.8088 4.2120005,37.3052 9.149,19.4198 30.0606,33.0288 51.7639,32.5348 3.1198,0.217 5.373,-3.513 3.8357,-6.179 -0.9344,-2.03 -3.3459,-2.419 -5.3504,-2.374 -15.1848,-0.173 -29.7894,-8.389 -38.3952,-20.7239 -7.701,-10.8223 -10.565,-24.8351 -7.867,-37.8069 0.618,-2.0521 -0.076,-4.5387 -2.133,-5.4898 z"
       id="path17"
       style="display:inline;fill:url(#linearGradient11)"
       sodipodi:nodetypes="cccccccccccccccccccc" />
    <path
       fill-rule="evenodd"
       clip-rule="evenodd"
       d="m 11.08667,62.442281 c -2.528902,-0.586248 -5.2892646,1.603293 -5.1517985,4.210451 0.4803599,12.742462 5.3690475,25.280604 13.7237765,34.943908 13.863469,16.39015 37.584792,24.12312 58.420714,18.02872 3.069659,-0.59785 4.280688,-4.78393 2.105758,-6.9612 -1.427963,-1.71899 -3.857974,-1.4706 -5.782526,-0.90833 C 59.690428,115.51884 43.457011,111.36275 31.951939,101.67549 21.712327,93.215117 15.319136,80.42105 14.567855,67.192959 14.633675,65.050833 13.319743,62.828582 11.08667,62.442281 Z"
       id="path18"
       style="display:inline;fill:url(#linearGradient14)"
       sodipodi:nodetypes="ccccccccc" />
    <path
       fill-rule="evenodd"
       clip-rule="evenodd"
       d="m 62.808876,7.1065715 c 8.309192,-0.1772009 16.625764,1.6557733 24.240258,4.9444175 19.128706,8.211483 32.781106,27.485533 34.161156,48.131198 0.88345,11.347822 -1.76628,22.896327 -7.35066,32.790209 -0.97022,2.019605 -3.67887,2.898813 -5.66711,1.846669 -2.24729,-0.958915 -3.14016,-3.973943 -1.82978,-6.011003 5.00147,-8.941188 7.29491,-19.422235 6.09597,-29.621681 -1.43774,-13.209827 -8.61857,-25.686702 -19.325882,-33.649899 -8.230707,-6.229633 -18.491596,-9.71563 -28.811068,-9.867687 -1.791374,0.04727 -3.83764,-0.439013 -4.730559,-2.143703 -1.624787,-2.466883 0.244432,-6.2692564 3.217675,-6.4185205 z"
       id="path19"
       style="display:inline;fill:url(#linearGradient16)"
       sodipodi:nodetypes="ccccccccccc" />
    <path
       fill-rule="evenodd"
       clip-rule="evenodd"
       d="M 19.070343,36.83864 C 17.173374,35.066483 13.688058,35.5825 12.503529,37.909098 6.5483025,49.184574 4.5129584,62.487267 6.9167146,75.033299 10.727756,96.159316 27.404539,114.71693 48.496178,119.85698 c 2.957327,1.01708 6.099147,-2.00265 5.304239,-4.97569 -0.377158,-2.20267 -2.605803,-3.20257 -4.553649,-3.6779 C 34.624153,107.10616 22.643647,95.390178 17.523591,81.24823 12.886014,68.801527 13.746382,54.524943 19.709798,42.693441 20.837863,40.871214 20.81109,38.289723 19.070343,36.83864 Z"
       id="path20"
       style="display:inline;fill:url(#linearGradient15)"
       sodipodi:nodetypes="ccccccccc" />
    <path
       fill-rule="evenodd"
       clip-rule="evenodd"
       d="m 62.808876,7.1065715 c 8.309192,-0.1772009 16.625764,1.6557733 24.240258,4.9444175 19.128706,8.211483 32.781106,27.485533 34.161156,48.131198 0.88345,11.347822 -1.76628,22.896327 -7.35066,32.790209 -0.97022,2.019605 -3.67887,2.898813 -5.66711,1.846669 -2.24729,-0.958915 -3.14016,-3.973943 -1.82978,-6.011003 5.00147,-8.941188 7.29491,-19.422235 6.09597,-29.621681 -1.43774,-13.209827 -8.61857,-25.686702 -19.325882,-33.649899 -8.230707,-6.229633 -18.491596,-9.71563 -28.811068,-9.867687 -1.791374,0.04727 -3.83764,-0.439013 -4.730559,-2.143703 -1.624787,-2.466883 0.244432,-6.2692564 3.217675,-6.4185205 z"
       id="path21"
       style="display:none;fill:url(#linearGradient13)"
       sodipodi:nodetypes="ccccccccccc" />
  </g>
</svg>
