<?xml version="1.0" encoding="UTF-8" standalone="no"?>
<svg
   width="32"
   height="32"
   viewBox="0 0 32 32"
   fill="none"
   version="1.1"
   id="svg8"
   sodipodi:docname="tag-7.svg"
   inkscape:version="1.3.2 (091e20ef0f, 2023-11-25, custom)"
   xmlns:inkscape="http://www.inkscape.org/namespaces/inkscape"
   xmlns:sodipodi="http://sodipodi.sourceforge.net/DTD/sodipodi-0.dtd"
   xmlns="http://www.w3.org/2000/svg"
   xmlns:svg="http://www.w3.org/2000/svg">
  <sodipodi:namedview
     id="namedview8"
     pagecolor="#505050"
     bordercolor="#ffffff"
     borderopacity="1"
     inkscape:showpageshadow="0"
     inkscape:pageopacity="0"
     inkscape:pagecheckerboard="1"
     inkscape:deskcolor="#505050"
     inkscape:zoom="18.96875"
     inkscape:cx="15.973641"
     inkscape:cy="16"
     inkscape:current-layer="svg8" />
  <path
     fill-rule="evenodd"
     clip-rule="evenodd"
     d="m 20.566505,4.5274956 h 5.780799 c 0.855148,0 1.675153,0.3396783 2.279824,0.9443203 0.60467,0.6046324 0.944291,1.4246947 0.944291,2.2797764 V 13.53241 c -9.5e-5,0.427526 -0.170001,0.837434 -0.472288,1.139721 L 17.342485,26.428777 c -0.604671,0.604385 -1.424581,0.944006 -2.279443,0.944006 -0.854958,0 -1.674868,-0.339621 -2.279443,-0.944006 L 7.6701569,21.315412 C 7.0657245,20.710741 6.7261795,19.890831 6.7261795,19.035969 c 0,-0.854958 0.339545,-1.674868 0.9439774,-2.279443 L 19.426784,4.9998224 c 0.302287,-0.3023352 0.71229,-0.4722316 1.139721,-0.4723268 z"
     stroke="url(#paint0_linear)"
     stroke-width="2"
     stroke-linecap="round"
     stroke-linejoin="round"
     id="path1"
     style="stroke:url(#paint0_linear);stroke-width:2.85716;stroke-dasharray:none" />
  <path
     d="m 11.362849,25.960651 -1.4557141,0.970482 c -0.4041167,0.269335 -0.863872,0.443908 -1.3449322,0.510765 -0.4810507,0.06676 -0.9709776,0.024 -1.4331901,-0.125144 C 6.6667907,27.167706 6.2442356,26.916085 5.8929,26.58075 5.5415645,26.245414 5.2705151,25.835031 5.1000093,25.380361 L 2.6335746,18.803177 C 2.3689538,18.097077 2.3601728,17.320596 2.6087458,16.608782 2.8573284,15.896968 3.347541,15.294678 3.9941451,14.906866 L 17.809366,6.6160803"
     stroke="url(#paint1_linear)"
     stroke-width="2"
     stroke-linecap="round"
     stroke-linejoin="round"
     id="path2"
     style="stroke:url(#paint1_linear);stroke-width:2.85716;stroke-dasharray:none" />
  <path
     d="m 27.153499,8.5575974 c 0,-0.8903104 -0.721814,-1.6120484 -1.612105,-1.6120484 -0.890291,0 -1.61201,0.721738 -1.61201,1.6120484 0,0.8903104 0.721719,1.6120486 1.61201,1.6120486 0.890291,0 1.612105,-0.7217382 1.612105,-1.6120486 z"
     fill="url(#paint2_linear)"
     id="path3"
     style="fill:url(#paint2_linear);stroke-width:0.952387" />
  <defs
     id="defs8">
    <linearGradient
       id="paint0_linear"
       x1="10.074926"
       y1="28.59174"
       x2="18.0061"
       y2="4"
       gradientUnits="userSpaceOnUse">
      <stop
         offset="0"
         stop-color="#00f1fa"
         id="stop4" />
      <stop
         stop-color="#006cff"
         id="stop3"
         offset="1" />
    </linearGradient>
    <linearGradient
       id="paint1_linear"
       x1="10.074926"
       y1="28.59174"
       x2="10.132179"
       y2="5.6534371"
       gradientUnits="userSpaceOnUse">
      <stop
         offset="0"
         stop-color="#00f1fa"
         id="stop6" />
      <stop
         stop-color="#006cff"
         id="stop5"
         offset="1" />
    </linearGradient>
    <linearGradient
       id="paint2_linear"
       x1="10.074926"
       y1="28.59174"
       x2="10.132179"
       y2="5.6534371"
       gradientUnits="userSpaceOnUse">
      <stop
         offset="0"
         stop-color="#00f1fa"
         id="stop8" />
      <stop
         stop-color="#006cff"
         id="stop7"
         offset="1" />
    </linearGradient>
  </defs>
</svg>
