<?xml version="1.0" encoding="UTF-8" standalone="no"?>
<svg
   width="22"
   height="22"
   viewBox="0 0 22 22"
   fill="none"
   version="1.1"
   id="svg20"
   sodipodi:docname="transform-scale.svg"
   inkscape:version="1.3.2 (091e20ef0f, 2023-11-25, custom)"
   xmlns:inkscape="http://www.inkscape.org/namespaces/inkscape"
   xmlns:sodipodi="http://sodipodi.sourceforge.net/DTD/sodipodi-0.dtd"
   xmlns:xlink="http://www.w3.org/1999/xlink"
   xmlns="http://www.w3.org/2000/svg"
   xmlns:svg="http://www.w3.org/2000/svg">
  <sodipodi:namedview
     id="namedview20"
     pagecolor="#ffffff"
     bordercolor="#666666"
     borderopacity="1.0"
     inkscape:showpageshadow="2"
     inkscape:pageopacity="0.0"
     inkscape:pagecheckerboard="0"
     inkscape:deskcolor="#d1d1d1"
     inkscape:zoom="32"
     inkscape:cx="13.640625"
     inkscape:cy="11.5"
     inkscape:current-layer="svg20" />
  <g
     clip-path="url(#clip0_451_2383)"
     id="g5">
    <path
       d="M 1.28571,1 C 1.12791,1 1,1.12791 1,1.28571 V 3.5 4.46429 C 1,4.62209 1.12791,4.75 1.28571,4.75 H 4.46429 C 4.62209,4.75 4.75,4.62209 4.75,4.46429 V 3.5 1.28571 C 4.75,1.12791 4.62209,1 4.46429,1 H 2.25 Z M 17.5357,1 C 17.3779,1 17.25,1.12791 17.25,1.28571 V 2.25 3.5 4.46429 c 0,0.1578 0.1279,0.28571 0.2857,0.28571 H 18.5 19.75 20.7143 C 20.8721,4.75 21,4.62209 21,4.46429 V 3.5 2.25 1.28571 C 21,1.12791 20.8721,1 20.7143,1 Z M 8.78571,3.5 C 8.62791,3.5 8.5,3.62791 8.5,3.78571 V 4.46429 C 8.5,4.62209 8.62791,4.75 8.78571,4.75 H 13.2143 C 13.3721,4.75 13.5,4.62209 13.5,4.46429 V 3.78571 C 13.5,3.62791 13.3721,3.5 13.2143,3.5 Z m -5,5 C 3.62791,8.5 3.5,8.62791 3.5,8.78571 V 13.2143 C 3.5,13.3721 3.62791,13.5 3.78571,13.5 H 4.46429 C 4.62209,13.5 4.75,13.3721 4.75,13.2143 V 8.78571 C 4.75,8.62791 4.62209,8.5 4.46429,8.5 Z m -2.5,8.75 C 1.12791,17.25 1,17.3779 1,17.5357 V 18.5 20.7143 C 1,20.8721 1.12791,21 1.28571,21 H 2.25 3.5 4.46429 C 4.62209,21 4.75,20.8721 4.75,20.7143 V 17.5357 C 4.75,17.3779 4.62209,17.25 4.46429,17.25 Z"
       id="path1"
       sodipodi:nodetypes="sscsssscsscsssccssccssccssssssssssssssssssssssscssccsssss"
       style="stroke:url(#linearGradient25);fill:url(#linearGradient23);fill-opacity:1;stroke-opacity:1" />
    <path
       d="M9.35742 16.2144V9.71436H15.8574V16.2144H9.35742ZM10.3931 9.96436C9.95919 9.96436 9.60742 10.3161 9.60742 10.7501V15.1786C9.60742 15.6127 9.95926 15.9644 10.3931 15.9644H14.8217C15.2557 15.9644 15.6074 15.6126 15.6074 15.1786V10.7501C15.6074 10.3162 15.2558 9.96436 14.8217 9.96436H10.3931Z"
       id="path2"
       style="stroke:url(#linearGradient29);stroke-opacity:1;fill:url(#linearGradient31);fill-opacity:1" />
    <path
       d="M20.0713 19.4643V16.5H20.3213V20.5H16.3213V20.25H19.2856C19.7196 20.25 20.0713 19.8983 20.0713 19.4643Z"
       id="path3"
       style="stroke:url(#linearGradient37);stroke-opacity:1;fill:url(#linearGradient39);fill-opacity:1" />
    <path
       fill-rule="evenodd"
       clip-rule="evenodd"
       d="M9.14314 9.21436C8.98534 9.21436 8.85742 9.34227 8.85742 9.50007V16.4286C8.85742 16.5865 8.98534 16.7144 9.14314 16.7144H16.0717C16.2296 16.7144 16.3574 16.5865 16.3574 16.4286V9.50007C16.3574 9.34227 16.2296 9.21436 16.0717 9.21436H9.14314ZM10.1074 10.7501C10.1074 10.5923 10.2353 10.4644 10.3931 10.4644H14.8217C14.9796 10.4644 15.1074 10.5923 15.1074 10.7501V15.1786C15.1074 15.3365 14.9796 15.4644 14.8217 15.4644H10.3931C10.2353 15.4644 10.1074 15.3365 10.1074 15.1786V10.7501Z"
       id="path4"
       style="stroke:url(#linearGradient27);stroke-opacity:1" />
    <path
       d="M19.857 16C19.6991 16 19.5713 16.128 19.5713 16.2857V19.4643C19.5713 19.6221 19.4434 19.75 19.2856 19.75H16.107C15.9491 19.75 15.8213 19.878 15.8213 20.0357V20.7143C15.8213 20.8721 15.9491 21 16.107 21H20.5356C20.6934 21 20.8213 20.8721 20.8213 20.7143V16.2857C20.8213 16.128 20.6934 16 20.5356 16H19.857Z"
       id="path5"
       style="stroke:url(#linearGradient35);stroke-opacity:1;fill:url(#linearGradient33)" />
  </g>
  <defs
     id="defs20">
    <linearGradient
       id="linearGradient22"
       inkscape:collect="always">
      <stop
         style="stop-color:#e5f230;stop-opacity:1;"
         offset="0"
         id="stop22" />
      <stop
         style="stop-color:#24d864;stop-opacity:1;"
         offset="1"
         id="stop23" />
    </linearGradient>
    <clipPath
       id="clip0_451_2383">
      <rect
         width="22"
         height="22"
         fill="none"
         id="rect20" />
    </clipPath>
    <linearGradient
       inkscape:collect="always"
       xlink:href="#linearGradient22"
       id="linearGradient23"
       x1="11"
       y1="21.5"
       x2="21.5"
       y2="11"
       gradientUnits="userSpaceOnUse" />
    <linearGradient
       inkscape:collect="always"
       xlink:href="#linearGradient22"
       id="linearGradient25"
       x1="11"
       y1="21.5"
       x2="21.5"
       y2="11"
       gradientUnits="userSpaceOnUse" />
    <linearGradient
       inkscape:collect="always"
       xlink:href="#linearGradient22"
       id="linearGradient27"
       x1="11"
       y1="21.5"
       x2="21.5"
       y2="11"
       gradientUnits="userSpaceOnUse" />
    <linearGradient
       inkscape:collect="always"
       xlink:href="#linearGradient22"
       id="linearGradient29"
       x1="11"
       y1="21.5"
       x2="21.5"
       y2="11"
       gradientUnits="userSpaceOnUse" />
    <linearGradient
       inkscape:collect="always"
       xlink:href="#linearGradient22"
       id="linearGradient31"
       x1="11"
       y1="21.5"
       x2="21.5"
       y2="11"
       gradientUnits="userSpaceOnUse" />
    <linearGradient
       inkscape:collect="always"
       xlink:href="#linearGradient22"
       id="linearGradient33"
       x1="11"
       y1="21.5"
       x2="21.5"
       y2="11"
       gradientUnits="userSpaceOnUse" />
    <linearGradient
       inkscape:collect="always"
       xlink:href="#linearGradient22"
       id="linearGradient35"
       x1="11"
       y1="21.5"
       x2="21.5"
       y2="11"
       gradientUnits="userSpaceOnUse" />
    <linearGradient
       inkscape:collect="always"
       xlink:href="#linearGradient22"
       id="linearGradient37"
       x1="11"
       y1="21.5"
       x2="21.5"
       y2="11"
       gradientUnits="userSpaceOnUse" />
    <linearGradient
       inkscape:collect="always"
       xlink:href="#linearGradient22"
       id="linearGradient39"
       x1="11"
       y1="21.5"
       x2="21.5"
       y2="11"
       gradientUnits="userSpaceOnUse" />
  </defs>
</svg>
