<?xml version="1.0" encoding="UTF-8" standalone="no"?>
<svg
   width="22"
   height="22"
   viewBox="0 0 22 22"
   fill="none"
   version="1.1"
   id="svg4"
   sodipodi:docname="transform-scale.svg"
   inkscape:version="1.3.2 (091e20ef0f, 2023-11-25, custom)"
   xmlns:inkscape="http://www.inkscape.org/namespaces/inkscape"
   xmlns:sodipodi="http://sodipodi.sourceforge.net/DTD/sodipodi-0.dtd"
   xmlns:xlink="http://www.w3.org/1999/xlink"
   xmlns="http://www.w3.org/2000/svg"
   xmlns:svg="http://www.w3.org/2000/svg">
  <sodipodi:namedview
     id="namedview4"
     pagecolor="#ffffff"
     bordercolor="#666666"
     borderopacity="1.0"
     inkscape:showpageshadow="2"
     inkscape:pageopacity="0.0"
     inkscape:pagecheckerboard="0"
     inkscape:deskcolor="#d1d1d1"
     inkscape:zoom="24.170195"
     inkscape:cx="4.3028201"
     inkscape:cy="9.0607461"
     inkscape:current-layer="svg4" />
  <defs
     id="defs4">
    <linearGradient
       id="linearGradient8"
       x1="0.22078557"
       y1="0.047239967"
       x2="0.9022491"
       y2="0.90614605"
       gradientTransform="matrix(43.5,0,0,44,5,2)"
       gradientUnits="userSpaceOnUse"
       spreadMethod="pad">
      <stop
         offset="0"
         stop-opacity="1"
         style="stop-color:#e5f230;stop-opacity:1;"
         id="stop7" />
      <stop
         offset="1"
         stop-opacity="1"
         style="stop-color:#24d864;stop-opacity:1;"
         id="stop8" />
    </linearGradient>
    <linearGradient
       id="paint0_linear_451_2305"
       x1="10.1629"
       y1="20.1082"
       x2="12.3378"
       y2="2.71365"
       gradientUnits="userSpaceOnUse">
      <stop
         stop-color="#8D01A2"
         id="stop1" />
      <stop
         offset="1"
         stop-color="#FF33DB"
         id="stop2" />
    </linearGradient>
    <linearGradient
       id="paint1_linear_451_2305"
       x1="10.1629"
       y1="20.1082"
       x2="12.3378"
       y2="2.71365"
       gradientUnits="userSpaceOnUse">
      <stop
         stop-color="#8D01A2"
         id="stop3" />
      <stop
         offset="1"
         stop-color="#FF33DB"
         id="stop4" />
    </linearGradient>
    <clipPath
       id="clip0_451_2305">
      <rect
         width="22"
         height="22"
         fill="white"
         id="rect4" />
    </clipPath>
    <linearGradient
       id="paint0_linear_451_2237"
       x1="10.9992"
       y1="20.625"
       x2="10.9992"
       y2="1.375"
       gradientUnits="userSpaceOnUse"
       gradientTransform="matrix(0.62342272,0,0,0.62342272,4.1427913,4.142381)">
      <stop
         stop-color="#02AA93"
         id="stop1-3" />
      <stop
         offset="1"
         stop-color="#67FF80"
         id="stop2-6" />
    </linearGradient>
    <linearGradient
       inkscape:collect="always"
       xlink:href="#linearGradient10"
       id="linearGradient6"
       gradientUnits="userSpaceOnUse"
       gradientTransform="matrix(12.611162,0,0,13.872829,8.0386217,6.6596273)"
       x1="-0.57223672"
       y1="1.042919"
       x2="1.0418807"
       y2="0.31286845" />
    <linearGradient
       id="linearGradient10"
       x1="0.22078557"
       y1="0.047239967"
       x2="0.9022491"
       y2="0.90614605"
       gradientTransform="matrix(43.5,0,0,44,5,2)"
       gradientUnits="userSpaceOnUse"
       spreadMethod="pad">
      <stop
         offset="0"
         stop-opacity="1"
         style="stop-color:#e5f230;stop-opacity:1;"
         id="stop9" />
      <stop
         offset="1"
         stop-opacity="1"
         style="stop-color:#24d864;stop-opacity:1;"
         id="stop10" />
    </linearGradient>
    <linearGradient
       inkscape:collect="always"
       xlink:href="#linearGradient8"
       id="linearGradient7"
       x1="-1.2135381"
       y1="23.15344"
       x2="23.213566"
       y2="11"
       gradientUnits="userSpaceOnUse"
       gradientTransform="matrix(0.83333337,0,0,0.83333337,1.8333336,1.8333332)" />
  </defs>
  <path
     d="m 14.540992,8.9165256 c -0.386834,0 -0.757823,-0.153658 -1.031297,-0.427169 -0.273526,-0.2735113 -0.427201,-0.6444686 -0.427201,-1.0312607 0,-0.3868079 0.153675,-0.7577652 0.427201,-1.0312763 0.273474,-0.2735059 0.644463,-0.427164 1.031297,-0.427164 0.38673,0 0.757719,0.1536581 1.031245,0.427164 0.273475,0.2735111 0.427149,0.6444684 0.427149,1.0312763 0,0.3867921 -0.153674,0.7577494 -0.427149,1.0312607 -0.273526,0.273511 -0.644515,0.427169 -1.031245,0.427169 z m 0.234095,7.0837654 h -3.386015 c -0.214145,0.002 -0.424966,-0.05273 -0.611109,-0.158559 -0.186197,-0.105822 -0.341066,-0.25898 -0.448965,-0.44398 -0.105578,-0.178143 -0.162157,-0.381066 -0.163985,-0.588146 -0.0018,-0.207187 0.05114,-0.411044 0.153564,-0.591057 l 1.694281,-3.014769 c 0.109667,-0.186298 0.266097,-0.340752 0.453747,-0.448032 0.187702,-0.107278 0.400134,-0.163754 0.616306,-0.163754 0.216223,0 0.428654,0.05647 0.616304,0.163754 0.187702,0.107277 0.344129,0.261734 0.4538,0.448032 l 1.693061,3.013522 c 0.1026,0.180117 0.155648,0.38413 0.153881,0.59147 -0.0019,0.20729 -0.0586,0.410319 -0.164323,0.588617 -0.107855,0.185103 -0.262773,0.338363 -0.449073,0.44424 -0.186247,0.105933 -0.39717,0.160633 -0.611474,0.158662 z m -1.696333,-4.157296 -1.618457,2.907332 h 3.255254 z m -3.7464989,3.532261 c 0,-0.165725 -0.065857,-0.32475 -0.1830687,-0.441903 -0.1172135,-0.117254 -0.276197,-0.183026 -0.44197,-0.183026 H 7.5454682 c -0.051333,8.33e-4 -0.10195,-0.01211 -0.1465459,-0.03751 -0.044584,-0.02546 -0.081474,-0.0625 -0.1068022,-0.107178 -0.026562,-0.04374 -0.04112,-0.09378 -0.042217,-0.144999 -0.0011,-0.05118 0.011306,-0.101778 0.035967,-0.146609 l 2.608925,-4.8258022 c 0.02522,-0.046836 0.06265,-0.08597 0.1083219,-0.11325 0.04568,-0.027272 0.09787,-0.041679 0.151077,-0.041679 0.0532,0 0.1054,0.014407 0.151071,0.041679 0.04567,0.027279 0.0831,0.066414 0.108322,0.11325 l 0.259178,0.4792047 c 0.03663,0.07613 0.08837,0.1440475 0.151959,0.1996295 0.06364,0.05559 0.13788,0.09771 0.21825,0.123796 0.08037,0.02608 0.165208,0.03562 0.249318,0.02799 0.08416,-0.0076 0.165881,-0.03221 0.240276,-0.0723 0.07435,-0.04009 0.139855,-0.09484 0.192481,-0.160952 0.05258,-0.06611 0.09128,-0.1421955 0.11362,-0.2236725 0.02239,-0.08147 0.02805,-0.166641 0.01658,-0.250351 -0.01149,-0.08371 -0.03979,-0.1642253 -0.08321,-0.2366875 L 11.512822,8.8952721 C 11.378057,8.6531088 11.181005,8.4513743 10.942129,8.3109173 10.703203,8.1704705 10.43111,8.0964079 10.153983,8.0964079 c -0.2771369,0 -0.5492349,0.074062 -0.7881358,0.2145094 C 9.1269358,8.4513743 8.9299029,8.6531088 8.7951346,8.8952721 L 6.1862093,13.717266 c -0.1273652,0.23555 -0.1914116,0.50014 -0.1858787,0.767846 0.00553,0.267761 0.080451,0.52939 0.2174447,0.759539 0.1369814,0.230095 0.3313439,0.420705 0.5640677,0.553131 0.2327236,0.132424 0.4958496,0.202249 0.7636252,0.202509 h 1.1617482 c 0.165773,0 0.3247565,-0.06578 0.44197,-0.183029 0.1172144,-0.117253 0.1830687,-0.276175 0.1830687,-0.442006 z"
     id="path1-5"
     style="fill:url(#linearGradient7);stroke-width:0.519519" />
  <path
     id="path6"
     style="display:inline;isolation:isolate;fill:url(#linearGradient6);fill-opacity:1;stroke-width:0.315285"
     d="m 7.1889055,0.87217885 c -0.033993,3.1326e-4 -0.067569,0.002388 -0.1015625,0.005859 -0.6716553,0.01051 -3.7454853,-0.021175 -4.4160156,0.015625 -0.97161,0.10197688 -1.79009488,0.96174997 -1.84179683,1.93749997 -0.0075,0.7283273 -0.0136937,3.9576796 0.003906,4.6855469 0.0633402,0.5743514 0.59359083,1.0329256 1.17187523,1.0097656 0.6288053,0.0034 1.1748324,-0.5807119 1.1328125,-1.2070313 0.0101,-0.4381425 -0.021488,-3.3805096 0.013672,-3.8164062 0.05798,-0.2563137 0.3438012,-0.348645 0.578125,-0.3125 0.4493505,-0.01668 3.3046484,0.03461 3.75,-0.03125 C 8.1075475,3.0315273 8.5255963,2.322188 8.3295305,1.7120226 8.1970891,1.210755 7.6987942,0.8674801 7.1889055,0.87217885 Z m 7.6230465,0 c -0.509889,-0.004699 -1.008184,0.33857615 -1.140625,0.83984375 -0.196066,0.6101654 0.221983,1.3195047 0.849609,1.4472656 0.445352,0.06586 3.30065,0.01457 3.75,0.03125 0.234324,-0.036145 0.518192,0.056186 0.576172,0.3125 0.03516,0.4358966 0.0055,3.3782637 0.01563,3.8164062 -0.04202,0.6263194 0.502054,1.2104313 1.13086,1.2070313 0.578284,0.02316 1.110488,-0.4354142 1.173828,-1.0097656 0.0176,-0.7278673 0.0095,-3.9572196 0.002,-4.6855469 -0.0517,-0.97575 -0.868234,-1.83552309 -1.839844,-1.93749997 -0.67053,-0.0368 -3.74436,-0.005115 -4.416015,-0.015625 -0.03399,-0.003471 -0.06757,-0.005546 -0.101563,-0.005859 z M 1.8978899,13.473741 c -0.5350501,0.03346 -1.00507188,0.471311 -1.06445307,1.009766 -0.0176,0.727867 -0.0114063,3.957219 -0.003906,4.685547 0.051702,0.97575 0.87018687,1.835523 1.84179687,1.9375 0.6705303,0.0368 3.7443603,0.0051 4.4160156,0.01563 0.5438935,0.05554 1.1009167,-0.301252 1.2421875,-0.835938 0.1960658,-0.610165 -0.221983,-1.319505 -0.8496093,-1.447265 -0.4453516,-0.06586 -3.3006495,-0.01262 -3.75,-0.0293 -0.2343238,0.03615 -0.5201451,-0.05619 -0.578125,-0.3125 -0.03516,-0.435897 -0.00357,-3.378264 -0.013672,-3.816407 0.04202,-0.626319 -0.5040072,-1.210431 -1.1328125,-1.207031 -0.036143,-0.0014 -0.071752,-0.0022 -0.1074219,0 z m 18.0957031,0 c -0.628806,-0.0034 -1.17288,0.580712 -1.13086,1.207031 -0.0101,0.438143 0.01954,3.38051 -0.01563,3.816407 -0.05798,0.256313 -0.341848,0.348645 -0.576172,0.3125 -0.44935,0.01668 -3.304648,-0.03656 -3.75,0.0293 -0.627626,0.12776 -1.045675,0.8371 -0.849609,1.447265 0.141271,0.534686 0.698294,0.891482 1.242188,0.835938 0.671655,-0.01051 3.745485,0.02117 4.416015,-0.01563 0.97161,-0.101977 1.788142,-0.96175 1.839844,-1.9375 0.0075,-0.728328 0.01565,-3.95768 -0.002,-4.685547 -0.06334,-0.574352 -0.595544,-1.032926 -1.173828,-1.009766 z" />
</svg>
