<?xml version="1.0" encoding="UTF-8" standalone="no"?>
<!-- Generator: Gravit.io -->

<svg
   style="isolation:isolate"
   viewBox="0 0 48 48"
   width="48pt"
   height="48pt"
   version="1.1"
   id="svg3"
   sodipodi:docname="view-process-system.svg"
   inkscape:version="1.3.2 (091e20ef0f, 2023-11-25, custom)"
   xmlns:inkscape="http://www.inkscape.org/namespaces/inkscape"
   xmlns:sodipodi="http://sodipodi.sourceforge.net/DTD/sodipodi-0.dtd"
   xmlns:xlink="http://www.w3.org/1999/xlink"
   xmlns="http://www.w3.org/2000/svg"
   xmlns:svg="http://www.w3.org/2000/svg">
  <defs
     id="defs3">
    <linearGradient
       inkscape:collect="always"
       xlink:href="#_lgradient_6"
       id="linearGradient4"
       gradientUnits="userSpaceOnUse"
       gradientTransform="matrix(43.403,0,0,44.88,2.247,1.554)"
       x1="1.2672628380499602"
       y1="0.6059574406886424"
       x2="0.018005111419352904"
       y2="0.6115766624256946" />
    <linearGradient
       inkscape:collect="always"
       xlink:href="#_lgradient_6"
       id="linearGradient7"
       gradientUnits="userSpaceOnUse"
       gradientTransform="matrix(43.403,0,0,44.88,2.247,1.554)"
       x1="1.2672628380499602"
       y1="0.6059574406886424"
       x2="0.018005111419352904"
       y2="0.6115766624256946" />
    <linearGradient
       inkscape:collect="always"
       xlink:href="#_lgradient_6"
       id="linearGradient8"
       gradientUnits="userSpaceOnUse"
       gradientTransform="matrix(43.403,0,0,44.88,2.247,1.554)"
       x1="1.2672628380499602"
       y1="0.6059574406886424"
       x2="0.018005111419352904"
       y2="0.6115766624256946" />
    <linearGradient
       inkscape:collect="always"
       xlink:href="#_lgradient_6"
       id="linearGradient9"
       gradientUnits="userSpaceOnUse"
       gradientTransform="matrix(43.403,0,0,44.88,2.247,1.554)"
       x1="1.2672628380499602"
       y1="0.6059574406886424"
       x2="0.018005111419352904"
       y2="0.6115766624256946" />
    <linearGradient
       inkscape:collect="always"
       xlink:href="#_lgradient_6"
       id="linearGradient10"
       gradientUnits="userSpaceOnUse"
       gradientTransform="matrix(43.403,0,0,44.88,2.2470004,1.554)"
       x1="1.2672628380499602"
       y1="0.6059574406886424"
       x2="0.018005111419352904"
       y2="0.6115766624256946" />
    <linearGradient
       inkscape:collect="always"
       xlink:href="#_lgradient_6"
       id="linearGradient25"
       gradientUnits="userSpaceOnUse"
       gradientTransform="matrix(43.403,0,0,44.88,2.2470001,1.5539997)"
       x1="0.50118655"
       y1="0.92443734"
       x2="0.99607259"
       y2="0.44441593" />
    <linearGradient
       inkscape:collect="always"
       xlink:href="#_lgradient_6"
       id="linearGradient26"
       gradientUnits="userSpaceOnUse"
       gradientTransform="matrix(43.403,0,0,44.88,2.247,1.554)"
       x1="0.50118655"
       y1="0.97301227"
       x2="0.82954407"
       y2="0.34934095" />
    <linearGradient
       inkscape:collect="always"
       xlink:href="#_lgradient_6"
       id="linearGradient27"
       gradientUnits="userSpaceOnUse"
       gradientTransform="matrix(43.403,0,0,44.88,2.2470004,1.5540002)"
       x1="0.50118655"
       y1="0.97301227"
       x2="0.82954407"
       y2="0.34934095" />
    <linearGradient
       inkscape:collect="always"
       xlink:href="#_lgradient_6"
       id="linearGradient28"
       gradientUnits="userSpaceOnUse"
       gradientTransform="matrix(43.403,0,0,44.88,2.2470001,1.5539997)"
       x1="0.50118655"
       y1="0.92443734"
       x2="0.99607259"
       y2="0.44441593" />
    <linearGradient
       inkscape:collect="always"
       xlink:href="#_lgradient_6"
       id="linearGradient2"
       gradientUnits="userSpaceOnUse"
       gradientTransform="matrix(43.403,0,0,44.88,2.2470001,1.5539997)"
       x1="0.50118655"
       y1="0.92443734"
       x2="0.99607259"
       y2="0.44441593" />
    <linearGradient
       inkscape:collect="always"
       xlink:href="#_lgradient_6"
       id="linearGradient11"
       gradientUnits="userSpaceOnUse"
       gradientTransform="matrix(44.505121,0,0,46.019624,1.6946715,3.3452763)"
       x1="0.50118655"
       y1="0.97301227"
       x2="0.82954407"
       y2="0.34934095" />
    <linearGradient
       inkscape:collect="always"
       xlink:href="#_lgradient_6"
       id="linearGradient13"
       gradientUnits="userSpaceOnUse"
       gradientTransform="matrix(-44.505119,0,0,-46.019624,46.305407,49.377218)"
       x1="0.50118655"
       y1="0.97301227"
       x2="0.82954407"
       y2="0.34934095" />
    <linearGradient
       inkscape:collect="always"
       xlink:href="#_lgradient_6"
       id="linearGradient14"
       gradientUnits="userSpaceOnUse"
       gradientTransform="matrix(-44.505121,0,0,-46.019624,46.305407,49.377217)"
       x1="0.50118655"
       y1="0.97301227"
       x2="0.82954407"
       y2="0.34934095" />
    <linearGradient
       inkscape:collect="always"
       xlink:href="#_lgradient_6"
       id="linearGradient15"
       gradientUnits="userSpaceOnUse"
       gradientTransform="matrix(44.505119,0,0,46.019624,1.694671,3.3452761)"
       x1="0.50118655"
       y1="0.97301227"
       x2="0.82954407"
       y2="0.34934095" />
  </defs>
  <sodipodi:namedview
     id="namedview3"
     pagecolor="#505050"
     bordercolor="#ffffff"
     borderopacity="1"
     inkscape:showpageshadow="0"
     inkscape:pageopacity="0"
     inkscape:pagecheckerboard="1"
     inkscape:deskcolor="#505050"
     inkscape:document-units="pt"
     inkscape:zoom="7.9999996"
     inkscape:cx="37.000002"
     inkscape:cy="39.312502"
     inkscape:current-layer="svg3" />
  <linearGradient
     id="_lgradient_6"
     x1="1.2672628380499602"
     y1="0.6059574406886424"
     x2="0.018005111419352904"
     y2="0.6115766624256946"
     gradientTransform="matrix(43.403,0,0,44.88,2.247,1.554)"
     gradientUnits="userSpaceOnUse">
    <stop
       offset="0%"
       stop-opacity="1"
       style="stop-color:#b900ff"
       id="stop1" />
    <stop
       offset="100%"
       stop-opacity="1"
       style="stop-color:#6444ff"
       id="stop2" />
  </linearGradient>
  <path
     d="m 18.214,15.871 c 0.96,-0.976 2.008,-1.316 2.975,-1.375 1.343,-0.045 3.099,0.265 4.014,0.375 0.608,0.078 1.306,0.238 2.026,0.551 0.24,0.004 1.041,-0.024 1.826,-0.488 l 0.002,-0.002 c 0.13,-0.078 0.26,-0.167 0.386,-0.27 l 0.002,-0.002 c 0.128,-0.104 0.251,-0.221 0.369,-0.355 -0.088,-0.127 -0.157,-0.266 -0.205,-0.41 v -0.002 c -0.047,-0.145 -0.073,-0.295 -0.078,-0.448 v -0.002 c -0.009,-0.305 0.07,-0.616 0.246,-0.894 0.292,-0.464 0.794,-0.742 1.344,-0.742 v 0 0 c 0.15,0 0.299,0.021 0.442,0.062 h 0.001 c 0.143,0.042 0.28,0.104 0.407,0.184 0.091,0.057 0.174,0.123 0.25,0.195 0.075,0.072 0.143,0.15 0.203,0.234 0.119,0.17 0.205,0.363 0.252,0.571 0.069,0.311 0.044,0.628 -0.069,0.918 -0.037,0.096 -0.083,0.19 -0.14,0.279 -0.146,0.231 -0.345,0.416 -0.576,0.543 -0.116,0.064 -0.24,0.113 -0.37,0.146 -0.128,0.033 -0.263,0.051 -0.4,0.051 -0.157,0 -0.312,-0.026 -0.461,-0.07 -0.154,0.184 -0.317,0.345 -0.484,0.488 -0.168,0.143 -0.338,0.268 -0.512,0.375 -0.087,0.054 -0.174,0.091 -0.262,0.137 -0.086,0.045 -0.174,0.099 -0.259,0.137 -0.172,0.076 -0.341,0.139 -0.504,0.189 0.525,0.403 0.988,1.188 1.388,1.748 0.103,-0.023 0.208,-0.037 0.313,-0.041 0.105,-0.004 0.209,0.003 0.312,0.02 h 0.002 c 0.103,0.016 0.205,0.042 0.303,0.078 0.099,0.036 0.195,0.081 0.285,0.138 0.279,0.177 0.484,0.426 0.608,0.707 0.123,0.282 0.163,0.595 0.113,0.901 -0.034,0.204 -0.107,0.404 -0.225,0.59 -0.294,0.464 -0.798,0.742 -1.347,0.742 -0.302,0 -0.597,-0.086 -0.852,-0.248 -0.093,-0.059 -0.176,-0.126 -0.252,-0.199 -0.151,-0.146 -0.27,-0.318 -0.351,-0.504 -0.042,-0.095 -0.074,-0.191 -0.096,-0.291 -0.022,-0.099 -0.036,-0.201 -0.039,-0.303 v -0.002 c -0.003,-0.102 0.003,-0.203 0.019,-0.305 v -0.002 c 0.034,-0.204 0.108,-0.404 0.225,-0.589 0.03,-0.049 0.064,-0.094 0.1,-0.139 -0.296,-0.405 -0.632,-1.061 -1.006,-1.367 -0.187,-0.153 -0.383,-0.295 -0.588,-0.422 -0.206,-0.128 -0.421,-0.24 -0.645,-0.342 -10e-4,-0.001 -0.002,-0.001 -0.004,-0.002 -0.415,-0.188 -0.825,-0.319 -1.211,-0.406 -1.629,-0.256 -2.674,-0.605 -4.457,-0.469 -0.766,0.056 -1.567,0.336 -2.309,1.097 L 21.5,19.41 18.907,33.5 15.065,30.748 10.5,31.919 13.092,17.829 17.87,15.5 v 0 z M 12.446,12.5 v 0 c -0.944,0.678 -2.259,0.464 -2.934,-0.477 v 0 C 8.838,11.081 9.056,9.767 10,9.089 v 0 l 12.065,-7.09 c 0.998,-0.587 2.624,-0.594 3.627,-0.014 l 18.14,10.473 c 1.004,0.579 1.821687,1.990006 1.818,3.148 L 45.58992,34.47603 C 45.589922,34.46135 41.452,33.457 41.452,33.457 V 15.932 L 24.126,5.931 Z m 5.763,27.6 v 0 c 0.99,0.602 1.31,1.896 0.714,2.886 v 0 c -0.597,0.99 -1.885,1.31 -2.876,0.714 v 0 L 4.08,37.029 C 3.069,36.465 2.247,35.067 2.247,33.908 V 18.772 c 0,-1.158 0.94,-2.115 2.099,-2.135 v 0 c 1.158,-0.021 2.099,0.903 2.099,2.062 V 33.646 Z M 31.121,12.85 c 0.103,0 0.205,0.031 0.293,0.086 0.062,0.039 0.115,0.089 0.156,0.148 0.041,0.058 0.072,0.124 0.088,0.195 v 0.002 0.004 c 0.03,0.141 0.006,0.284 -0.072,0.406 -0.078,0.124 -0.206,0.207 -0.344,0.239 -0.138,0.03 -0.288,0.011 -0.414,-0.069 l -0.025,-0.015 c -0.12,-0.085 -0.195,-0.208 -0.221,-0.342 -0.025,-0.133 -0.002,-0.275 0.076,-0.399 0.101,-0.159 0.273,-0.255 0.463,-0.255 z m 5.486,3.203 c 0.104,0 0.206,0.029 0.293,0.084 0.125,0.079 0.212,0.201 0.245,0.345 0.031,0.142 0.006,0.288 -0.073,0.413 -0.155,0.247 -0.504,0.33 -0.758,0.169 l -0.025,-0.015 c -0.239,-0.168 -0.301,-0.493 -0.144,-0.74 v -0.002 c 0.1,-0.16 0.273,-0.254 0.462,-0.254 z M 17.01,18.061 c 0.036,0.009 0.079,0.028 0.107,0.033 0.503,0.093 0.835,0.579 0.742,1.082 -0.092,0.495 -0.582,0.834 -1.082,0.742 -0.503,-0.094 -0.835,-0.577 -0.742,-1.08 0.082,-0.439 0.464,-0.76 0.91,-0.76 0,-0.029 0.029,-0.027 0.065,-0.017 z m 13.383,0.927 c 0.104,0 0.206,0.028 0.293,0.082 0.064,0.041 0.115,0.094 0.156,0.153 0.041,0.058 0.07,0.124 0.086,0.193 0.03,0.138 0.008,0.286 -0.073,0.414 -0.101,0.161 -0.276,0.256 -0.466,0.256 -0.104,0 -0.203,-0.029 -0.291,-0.084 -0.064,-0.041 -0.118,-0.094 -0.159,-0.152 -0.04,-0.059 -0.068,-0.124 -0.084,-0.192 v -0.002 c -0.015,-0.069 -0.017,-0.14 -0.005,-0.211 0.011,-0.07 0.035,-0.139 0.076,-0.203 0.044,-0.069 0.103,-0.127 0.176,-0.172 0.087,-0.054 0.187,-0.082 0.291,-0.082 z m 6.015,3.866 c 0.104,0 0.206,0.029 0.293,0.084 0.125,0.079 0.21,0.201 0.242,0.345 0.032,0.142 0.007,0.288 -0.072,0.412 -0.155,0.247 -0.503,0.331 -0.756,0.17 L 36.09,23.85 c -0.239,-0.168 -0.303,-0.493 -0.147,-0.741 v -0.002 c 0.101,-0.159 0.276,-0.253 0.465,-0.253 z M 29.6,28.156 c 0.098,0 0.194,0.027 0.279,0.078 0.26,0.156 0.346,0.493 0.191,0.752 -0.1,0.168 -0.277,0.27 -0.472,0.27 -0.099,0 -0.196,-0.026 -0.282,-0.078 -0.125,-0.075 -0.214,-0.196 -0.25,-0.338 -0.035,-0.142 -0.014,-0.29 0.061,-0.416 0.1,-0.168 0.277,-0.268 0.473,-0.268 z m 6.808,1.237 c 0.104,0 0.206,0.029 0.293,0.084 0.125,0.079 0.21,0.201 0.242,0.345 0.032,0.143 0.007,0.288 -0.072,0.412 -0.155,0.247 -0.503,0.331 -0.756,0.17 L 36.09,30.389 c -0.239,-0.168 -0.303,-0.493 -0.147,-0.741 v -0.002 c 0.101,-0.159 0.276,-0.253 0.465,-0.253 z m -3.963,3.578 c 0.161,0 0.311,0.071 0.416,0.193 0.096,0.112 0.142,0.252 0.131,0.399 -0.011,0.146 -0.077,0.279 -0.189,0.375 -0.128,0.109 -0.265,0.132 -0.358,0.132 -0.161,0 -0.313,-0.07 -0.418,-0.191 -0.197,-0.23 -0.169,-0.578 0.061,-0.775 0.128,-0.111 0.265,-0.133 0.357,-0.133 z M 29.6,27.113 c -0.558,0 -1.084,0.299 -1.37,0.778 -0.217,0.365 -0.28,0.792 -0.175,1.205 0.091,0.362 0.302,0.672 0.599,0.89 -1.053,2.397 -2.997,3.402 -3.867,3.819 -0.033,0.011 -0.065,0.027 -0.094,0.045 -0.308,0.138 -0.561,0.182 -0.693,0.209 V 35.1 c 0.072,-0.008 0.519,-0.031 1.133,-0.311 1.39,-0.353 1.778,-0.093 2.185,0.184 0.266,0.179 0.595,0.405 1.108,0.431 0.026,0.002 0.053,0.002 0.08,0.002 0.548,0 2.345,-0.566 2.826,-0.748 0.297,0.29 0.695,0.455 1.113,0.455 0.38,0 0.748,-0.137 1.035,-0.384 0.323,-0.277 0.519,-0.663 0.551,-1.086 0.033,-0.424 -0.102,-0.835 -0.379,-1.157 -0.303,-0.353 -0.741,-0.556 -1.207,-0.556 -0.379,0 -0.749,0.135 -1.037,0.383 -0.419,0.359 -0.603,0.892 -0.541,1.404 -0.506,0.182 -2.108,0.655 -2.387,0.646 -0.213,-0.011 -0.338,-0.089 -0.578,-0.252 -0.304,-0.206 -0.227,-0.393 -0.677,-0.48 0.763,-0.718 1.762,-1.777 2.431,-3.338 0.536,-0.019 1.035,-0.309 1.311,-0.772 0.448,-0.752 0.2,-1.732 -0.553,-2.183 C 30.167,27.191 29.886,27.113 29.6,27.113 Z M 36.607,15.01 c -0.549,0 -1.052,0.276 -1.343,0.74 -0.417,0.658 -0.292,1.51 0.265,2.02 0.006,0.003 0.012,0.011 0.018,0.015 -0.351,1.175 -0.498,3.385 -0.209,4.449 -0.037,0.034 -0.075,0.066 -0.109,0.104 -0.06,0.066 -0.117,0.135 -0.166,0.213 -0.083,0.13 -0.143,0.268 -0.184,0.41 -0.877,0.127 -1.353,0.135 -1.775,0.41 -0.53,0.344 -1.029,0.669 -2.504,0.693 -0.511,-0.059 -1.525,-0.047 -1.977,-0.031 -0.372,0.015 -0.756,0.028 -1.26,0.002 -0.347,-0.019 -0.548,-0.23 -0.9,-0.631 C 25.994,22.87 25.339,22.195 24,22.098 v 1.041 c 0.857,0.078 1.274,0.49 1.68,0.953 0.386,0.44 0.826,0.939 1.627,0.982 0.55,0.03 0.977,0.017 1.353,0.002 0.648,-0.022 1.758,-0.042 2.643,0.178 0.678,0.167 3.146,2.514 3.842,3.723 -0.029,0.037 -0.058,0.074 -0.082,0.113 -0.454,0.716 -0.268,1.659 0.419,2.144 0.019,0.015 0.04,0.028 0.075,0.051 0.255,0.162 0.548,0.246 0.849,0.246 0.55,0 1.055,-0.279 1.346,-0.742 0.227,-0.357 0.301,-0.781 0.209,-1.195 -0.093,-0.416 -0.343,-0.771 -0.705,-1 -0.255,-0.16 -0.547,-0.246 -0.848,-0.246 -0.137,0 -0.273,0.019 -0.402,0.05 -0.666,-1.088 -2.25,-2.718 -3.43,-3.585 0.472,-0.164 0.794,-0.373 1.096,-0.569 0.371,-0.241 0.68,-0.138 1.264,-0.236 0.11,0.269 0.295,0.511 0.548,0.689 0.019,0.015 0.038,0.026 0.073,0.049 0.255,0.161 0.548,0.248 0.849,0.248 0.55,0 1.055,-0.279 1.346,-0.742 0.227,-0.358 0.301,-0.783 0.209,-1.197 -0.093,-0.416 -0.342,-0.77 -0.703,-0.998 -0.255,-0.161 -0.549,-0.246 -0.85,-0.246 -0.032,0 -0.065,0.002 -0.097,0.003 -0.185,-0.82 -0.04,-2.72 0.209,-3.628 0.029,0.002 0.058,0.005 0.087,0.005 0.551,0 1.053,-0.277 1.344,-0.74 0.228,-0.357 0.303,-0.782 0.211,-1.197 -0.093,-0.416 -0.343,-0.769 -0.705,-0.998 -0.255,-0.16 -0.549,-0.246 -0.85,-0.246 z"
     fill-rule="evenodd"
     fill="url(#_lgradient_6)"
     id="path3"
     style="display:none"
     sodipodi:nodetypes="ccccccccccccccscsccccccccccscccccccscccccccsccccccccccscccccccccccccccssssccccsccccccssssccsssssccscccccccccccsscccccccscccccccsccccscccccccsscccccccssscsccssscccccccsscccsccssccccccccccscscccsccccccccssccccccccccccccccccccccscccsccccccscccsccscccs" />
  <path
     d="m 29.683,15.871 c -0.96,-0.976 -2.008,-1.316 -2.975,-1.375 -1.343,-0.045 -3.099,0.265 -4.014,0.375 -0.608,0.078 -1.306,0.238 -2.026,0.551 -0.24,0.004 -1.041,-0.024 -1.826,-0.488 L 18.84,14.932 c -0.13,-0.078 -0.26,-0.167 -0.386,-0.27 L 18.452,14.66 c -0.128,-0.104 -0.251,-0.221 -0.369,-0.355 0.088,-0.127 0.157,-0.266 0.205,-0.41 v -0.002 c 0.047,-0.145 0.073,-0.295 0.078,-0.448 v -0.002 c 0.009,-0.305 -0.07,-0.616 -0.246,-0.894 -0.292,-0.464 -0.794,-0.742 -1.344,-0.742 v 0 0 c -0.15,0 -0.299,0.021 -0.442,0.062 h -0.001 c -0.143,0.042 -0.28,0.104 -0.407,0.184 -0.091,0.057 -0.174,0.123 -0.25,0.195 -0.075,0.072 -0.143,0.15 -0.203,0.234 -0.119,0.17 -0.205,0.363 -0.252,0.571 -0.069,0.311 -0.044,0.628 0.069,0.918 0.037,0.096 0.083,0.19 0.14,0.279 0.146,0.231 0.345,0.416 0.576,0.543 0.116,0.064 0.24,0.113 0.37,0.146 0.128,0.033 0.263,0.051 0.4,0.051 0.157,0 0.312,-0.026 0.461,-0.07 0.154,0.184 0.317,0.345 0.484,0.488 0.168,0.143 0.338,0.268 0.512,0.375 0.087,0.054 0.174,0.091 0.262,0.137 0.086,0.045 0.174,0.099 0.259,0.137 0.172,0.076 0.341,0.139 0.504,0.189 -0.525,0.403 -0.988,1.188 -1.388,1.748 -0.103,-0.023 -0.208,-0.037 -0.313,-0.041 -0.105,-0.004 -0.209,0.003 -0.312,0.02 h -0.002 c -0.103,0.016 -0.205,0.042 -0.303,0.078 -0.099,0.036 -0.195,0.081 -0.285,0.138 -0.279,0.177 -0.484,0.426 -0.608,0.707 -0.123,0.282 -0.163,0.595 -0.113,0.901 0.034,0.204 0.107,0.404 0.225,0.59 0.294,0.464 0.798,0.742 1.347,0.742 0.302,0 0.597,-0.086 0.852,-0.248 0.093,-0.059 0.176,-0.126 0.252,-0.199 0.151,-0.146 0.27,-0.318 0.351,-0.504 0.042,-0.095 0.074,-0.191 0.096,-0.291 0.022,-0.099 0.036,-0.201 0.039,-0.303 v -0.002 c 0.003,-0.102 -0.003,-0.203 -0.019,-0.305 v -0.002 c -0.034,-0.204 -0.108,-0.404 -0.225,-0.589 -0.03,-0.049 -0.064,-0.094 -0.1,-0.139 0.296,-0.405 0.632,-1.061 1.006,-1.367 0.187,-0.153 0.383,-0.295 0.588,-0.422 0.206,-0.128 0.421,-0.24 0.645,-0.342 0.001,-0.001 0.002,-0.001 0.004,-0.002 0.415,-0.188 0.825,-0.319 1.211,-0.406 1.629,-0.256 2.674,-0.605 4.457,-0.469 0.766,0.056 1.567,0.336 2.309,1.097 z M 35.451,12.5 v 0 c 0.944,0.678 2.259,0.464 2.934,-0.477 v 0 c 0.674,-0.942 0.456,-2.256 -0.488,-2.934 v 0 L 25.832,1.999 C 24.834,1.412 23.208,1.405 22.205,1.985 L 4.065,12.458 c -1.004,0.579 -1.818,1.99 -1.818,3.148 V 34.57 c 0,1.158 0.817,2.565 1.823,3.139 l 14.856,8.477 c 1.006,0.574 2.022,0.121 2.267,-1.011 l 0.161,-0.746 c 0.245,-1.132 -0.369,-2.524 -1.371,-3.106 L 6.445,33.457 V 15.932 L 23.771,5.931 Z m -5.763,27.6 v 0 c -0.99,0.602 -1.31,1.896 -0.714,2.886 v 0 c 0.597,0.99 1.885,1.31 2.876,0.714 v 0 l 11.967,-6.671 c 1.011,-0.564 1.833,-1.962 1.833,-3.121 V 18.772 c 0,-1.158 -0.94,-2.115 -2.099,-2.135 v 0 c -1.158,-0.021 -2.099,0.903 -2.099,2.062 V 33.646 Z M 16.776,12.85 c -0.103,0 -0.205,0.031 -0.293,0.086 -0.062,0.039 -0.115,0.089 -0.156,0.148 -0.041,0.058 -0.072,0.124 -0.088,0.195 v 0.002 0.004 c -0.03,0.141 -0.006,0.284 0.072,0.406 0.078,0.124 0.206,0.207 0.344,0.239 0.138,0.03 0.288,0.011 0.414,-0.069 l 0.025,-0.015 c 0.12,-0.085 0.195,-0.208 0.221,-0.342 0.025,-0.133 0.002,-0.275 -0.076,-0.399 -0.101,-0.159 -0.273,-0.255 -0.463,-0.255 z m -5.486,3.203 c -0.104,0 -0.206,0.029 -0.293,0.084 -0.125,0.079 -0.212,0.201 -0.245,0.345 -0.031,0.142 -0.006,0.288 0.073,0.413 0.155,0.247 0.504,0.33 0.758,0.169 l 0.025,-0.015 c 0.239,-0.168 0.301,-0.493 0.144,-0.74 v -0.002 c -0.1,-0.16 -0.273,-0.254 -0.462,-0.254 z m 6.214,2.935 c -0.104,0 -0.206,0.028 -0.293,0.082 -0.064,0.041 -0.115,0.094 -0.156,0.153 -0.041,0.058 -0.07,0.124 -0.086,0.193 -0.03,0.138 -0.008,0.286 0.073,0.414 0.101,0.161 0.276,0.256 0.466,0.256 0.104,0 0.203,-0.029 0.291,-0.084 0.064,-0.041 0.118,-0.094 0.159,-0.152 0.04,-0.059 0.068,-0.124 0.084,-0.192 v -0.002 c 0.015,-0.069 0.017,-0.14 0.005,-0.211 -0.011,-0.07 -0.035,-0.139 -0.076,-0.203 -0.044,-0.069 -0.103,-0.127 -0.176,-0.172 -0.087,-0.054 -0.187,-0.082 -0.291,-0.082 z m -6.015,3.866 c -0.104,0 -0.206,0.029 -0.293,0.084 -0.125,0.079 -0.21,0.201 -0.242,0.345 -0.032,0.142 -0.007,0.288 0.072,0.412 0.155,0.247 0.503,0.331 0.756,0.17 l 0.025,-0.015 c 0.239,-0.168 0.303,-0.493 0.147,-0.741 v -0.002 c -0.101,-0.159 -0.276,-0.253 -0.465,-0.253 z m 6.808,5.302 c -0.098,0 -0.194,0.027 -0.279,0.078 -0.26,0.156 -0.346,0.493 -0.191,0.752 0.1,0.168 0.277,0.27 0.472,0.27 0.099,0 0.196,-0.026 0.282,-0.078 0.125,-0.075 0.214,-0.196 0.25,-0.338 0.035,-0.142 0.014,-0.29 -0.061,-0.416 -0.1,-0.168 -0.277,-0.268 -0.473,-0.268 z m -6.808,1.237 c -0.104,0 -0.206,0.029 -0.293,0.084 -0.125,0.079 -0.21,0.201 -0.242,0.345 -0.032,0.143 -0.007,0.288 0.072,0.412 0.155,0.247 0.503,0.331 0.756,0.17 l 0.025,-0.015 c 0.239,-0.168 0.303,-0.493 0.147,-0.741 v -0.002 c -0.101,-0.159 -0.276,-0.253 -0.465,-0.253 z m 3.963,3.578 c -0.161,0 -0.311,0.071 -0.416,0.193 -0.096,0.112 -0.142,0.252 -0.131,0.399 0.011,0.146 0.077,0.279 0.189,0.375 0.128,0.109 0.265,0.132 0.358,0.132 0.161,0 0.313,-0.07 0.418,-0.191 0.197,-0.23 0.169,-0.578 -0.061,-0.775 -0.128,-0.111 -0.265,-0.133 -0.357,-0.133 z m 2.845,-5.858 c 0.558,0 1.084,0.299 1.37,0.778 0.217,0.365 0.28,0.792 0.175,1.205 -0.091,0.362 -0.302,0.672 -0.599,0.89 1.053,2.397 2.997,3.402 3.867,3.819 0.033,0.011 0.065,0.027 0.094,0.045 0.308,0.138 0.561,0.182 0.693,0.209 V 35.1 c -0.072,-0.008 -0.519,-0.031 -1.133,-0.311 -1.39,-0.353 -1.778,-0.093 -2.185,0.184 -0.266,0.179 -0.595,0.405 -1.108,0.431 -0.026,0.002 -0.053,0.002 -0.08,0.002 -0.548,0 -2.345,-0.566 -2.826,-0.748 -0.297,0.29 -0.695,0.455 -1.113,0.455 -0.38,0 -0.748,-0.137 -1.035,-0.384 -0.323,-0.277 -0.519,-0.663 -0.551,-1.086 -0.033,-0.424 0.102,-0.835 0.379,-1.157 0.303,-0.353 0.741,-0.556 1.207,-0.556 0.379,0 0.749,0.135 1.037,0.383 0.419,0.359 0.603,0.892 0.541,1.404 0.506,0.182 2.108,0.655 2.387,0.646 0.213,-0.011 0.338,-0.089 0.578,-0.252 0.304,-0.206 0.227,-0.393 0.677,-0.48 -0.763,-0.718 -1.762,-1.777 -2.431,-3.338 -0.536,-0.019 -1.035,-0.309 -1.311,-0.772 -0.448,-0.752 -0.2,-1.732 0.553,-2.183 0.247,-0.147 0.528,-0.225 0.814,-0.225 z M 11.29,15.01 c 0.549,0 1.052,0.276 1.343,0.74 0.417,0.658 0.292,1.51 -0.265,2.02 -0.006,0.003 -0.012,0.011 -0.018,0.015 0.351,1.175 0.498,3.385 0.209,4.449 0.037,0.034 0.075,0.066 0.109,0.104 0.06,0.066 0.117,0.135 0.166,0.213 0.083,0.13 0.143,0.268 0.184,0.41 0.877,0.127 1.353,0.135 1.775,0.41 0.53,0.344 1.029,0.669 2.504,0.693 0.511,-0.059 1.525,-0.047 1.977,-0.031 0.372,0.015 0.756,0.028 1.26,0.002 0.347,-0.019 0.548,-0.23 0.9,-0.631 0.469,-0.534 1.124,-1.209 2.463,-1.306 v 1.041 c -0.857,0.078 -1.274,0.49 -1.68,0.953 -0.386,0.44 -0.826,0.939 -1.627,0.982 -0.55,0.03 -0.977,0.017 -1.353,0.002 -0.648,-0.022 -1.758,-0.042 -2.643,0.178 -0.678,0.167 -3.146,2.514 -3.842,3.723 0.029,0.037 0.058,0.074 0.082,0.113 0.454,0.716 0.268,1.659 -0.419,2.144 -0.019,0.015 -0.04,0.028 -0.075,0.051 -0.255,0.162 -0.548,0.246 -0.849,0.246 -0.55,0 -1.055,-0.279 -1.346,-0.742 -0.227,-0.357 -0.301,-0.781 -0.209,-1.195 0.093,-0.416 0.343,-0.771 0.705,-1 0.255,-0.16 0.547,-0.246 0.848,-0.246 0.137,0 0.273,0.019 0.402,0.05 0.666,-1.088 2.25,-2.718 3.43,-3.585 -0.472,-0.164 -0.794,-0.373 -1.096,-0.569 -0.371,-0.241 -0.68,-0.138 -1.264,-0.236 -0.11,0.269 -0.295,0.511 -0.548,0.689 -0.019,0.015 -0.038,0.026 -0.073,0.049 -0.255,0.161 -0.548,0.248 -0.849,0.248 -0.55,0 -1.055,-0.279 -1.346,-0.742 -0.227,-0.358 -0.301,-0.783 -0.209,-1.197 0.093,-0.416 0.342,-0.77 0.703,-0.998 0.255,-0.161 0.549,-0.246 0.85,-0.246 0.032,0 0.065,0.002 0.097,0.003 0.185,-0.82 0.04,-2.72 -0.209,-3.628 -0.029,0.002 -0.058,0.005 -0.087,0.005 -0.551,0 -1.053,-0.277 -1.344,-0.74 -0.228,-0.357 -0.303,-0.782 -0.211,-1.197 0.093,-0.416 0.343,-0.769 0.705,-0.998 0.255,-0.16 0.549,-0.246 0.85,-0.246 z"
     fill-rule="evenodd"
     fill="url(#_lgradient_6)"
     id="path4"
     style="display:none;fill:url(#linearGradient4)"
     sodipodi:nodetypes="ccccccccccccccscsccccccccccscccccccscccccccsccccccccccsccccccccssssccccssccccccccccssssccssssscccscccccccccccsscccccccsssccccscccccccssscccccccssscsccsssscccccccsscccsccsssccccccccccscscccsccccccccsssccccccccccccccccccccccscccsccccccscccsccscccss" />
  <path
     d="m 29.688,40.400351 v 0 c -0.99,0.602 -1.31,1.896 -0.714,2.886 v 0 c 0.597,0.99 1.885,1.31 2.876,0.714 v 0 l 11.967,-6.671 c 1.011,-0.564 1.833,-1.962 1.833,-3.121 v -15.136 c 0,-1.158 -0.94,-2.115 -2.099,-2.135 v 0 c -1.158,-0.021 -2.099,0.903 -2.099,2.062 v 14.947 z"
     fill-rule="evenodd"
     fill="url(#_lgradient_6)"
     id="path5"
     style="display:none;fill:url(#linearGradient9)"
     sodipodi:nodetypes="cssssccssssscc" />
  <path
     d="m 25.762453,42.288295 v 0 c -0.99,0.602 -1.31,1.896 -0.714,2.886 v 0 c 0.597,0.99 1.885,1.31 2.876,0.714 v 0 l 11.967,-6.671 c 1.011,-0.564 1.833,-1.962 1.833,-3.121 v -15.136 c 0,-1.158 -0.94,-2.115 -2.099,-2.135 v 0 c -1.158,-0.021 -2.099,0.903 -2.099,2.062 v 14.947 z"
     fill-rule="evenodd"
     fill="url(#_lgradient_6)"
     id="path6"
     style="display:none;fill:url(#linearGradient7)"
     sodipodi:nodetypes="cssssccssssscc" />
  <path
     d="m 28.76442,40.614849 v 0 0 c -0.99,0.602 -1.31,1.896 -0.714,2.886 v 0 c 0.597,0.99 1.885,1.31 2.876,0.714 v 0 0 l 5.9835,-3.3355 -2.2635,-3.4915 z"
     fill-rule="evenodd"
     fill="url(#_lgradient_6)"
     id="path8"
     style="display:none;fill:url(#linearGradient8)"
     sodipodi:nodetypes="ccssssccccc" />
  <path
     d="m 18.214,15.871 c 0.96,-0.976 2.008,-1.316 2.975,-1.375 1.343,-0.045 3.099,0.265 4.014,0.375 0.608,0.078 1.306,0.238 2.026,0.551 0.24,0.004 1.041,-0.024 1.826,-0.488 l 0.002,-0.002 c 0.13,-0.078 0.26,-0.167 0.386,-0.27 l 0.002,-0.002 c 0.128,-0.104 0.251,-0.221 0.369,-0.355 -0.088,-0.127 -0.157,-0.266 -0.205,-0.41 v -0.002 c -0.047,-0.145 -0.073,-0.295 -0.078,-0.448 v -0.002 c -0.009,-0.305 0.07,-0.616 0.246,-0.894 0.292,-0.464 0.794,-0.742 1.344,-0.742 v 0 0 c 0.15,0 0.299,0.021 0.442,0.062 h 0.001 c 0.143,0.042 0.28,0.104 0.407,0.184 0.091,0.057 0.174,0.123 0.25,0.195 0.075,0.072 0.143,0.15 0.203,0.234 0.119,0.17 0.205,0.363 0.252,0.571 0.069,0.311 0.044,0.628 -0.069,0.918 -0.037,0.096 -0.083,0.19 -0.14,0.279 -0.146,0.231 -0.345,0.416 -0.576,0.543 -0.116,0.064 -0.24,0.113 -0.37,0.146 -0.128,0.033 -0.263,0.051 -0.4,0.051 -0.157,0 -0.312,-0.026 -0.461,-0.07 -0.154,0.184 -0.317,0.345 -0.484,0.488 -0.168,0.143 -0.338,0.268 -0.512,0.375 -0.087,0.054 -0.174,0.091 -0.262,0.137 -0.086,0.045 -0.174,0.099 -0.259,0.137 -0.172,0.076 -0.341,0.139 -0.504,0.189 0.525,0.403 0.988,1.188 1.388,1.748 0.103,-0.023 0.208,-0.037 0.313,-0.041 0.105,-0.004 0.209,0.003 0.312,0.02 h 0.002 c 0.103,0.016 0.205,0.042 0.303,0.078 0.099,0.036 0.195,0.081 0.285,0.138 0.279,0.177 0.484,0.426 0.608,0.707 0.123,0.282 0.163,0.595 0.113,0.901 -0.034,0.204 -0.107,0.404 -0.225,0.59 -0.294,0.464 -0.798,0.742 -1.347,0.742 -0.302,0 -0.597,-0.086 -0.852,-0.248 -0.093,-0.059 -0.176,-0.126 -0.252,-0.199 -0.151,-0.146 -0.27,-0.318 -0.351,-0.504 -0.042,-0.095 -0.074,-0.191 -0.096,-0.291 -0.022,-0.099 -0.036,-0.201 -0.039,-0.303 v -0.002 c -0.003,-0.102 0.003,-0.203 0.019,-0.305 v -0.002 c 0.034,-0.204 0.108,-0.404 0.225,-0.589 0.03,-0.049 0.064,-0.094 0.1,-0.139 -0.296,-0.405 -0.632,-1.061 -1.006,-1.367 -0.187,-0.153 -0.383,-0.295 -0.588,-0.422 -0.206,-0.128 -0.421,-0.24 -0.645,-0.342 -10e-4,-0.001 -0.002,-0.001 -0.004,-0.002 -0.415,-0.188 -0.825,-0.319 -1.211,-0.406 -1.629,-0.256 -2.674,-0.605 -4.457,-0.469 -0.766,0.056 -1.567,0.336 -2.309,1.097 z M 12.446,12.5 v 0 c -0.944,0.678 -2.259,0.464 -2.934,-0.477 v 0 C 8.838,11.081 9.056,9.767 10,9.089 v 0 l 12.065,-7.09 c 0.998,-0.587 2.624,-0.594 3.627,-0.014 l 18.14,10.473 c 1.004,0.579 1.821687,1.990006 1.818,3.148 L 45.58992,34.47603 C 45.589922,34.46135 41.452,33.457 41.452,33.457 V 15.932 L 24.126,5.931 Z m 5.763,27.6 v 0 c 0.99,0.602 1.31,1.896 0.714,2.886 v 0 c -0.597,0.99 -1.885,1.31 -2.876,0.714 v 0 L 4.08,37.029 C 3.069,36.465 2.247,35.067 2.247,33.908 V 18.772 c 0,-1.158 0.94,-2.115 2.099,-2.135 v 0 c 1.158,-0.021 2.099,0.903 2.099,2.062 V 33.646 Z M 31.121,12.85 c 0.103,0 0.205,0.031 0.293,0.086 0.062,0.039 0.115,0.089 0.156,0.148 0.041,0.058 0.072,0.124 0.088,0.195 v 0.002 0.004 c 0.03,0.141 0.006,0.284 -0.072,0.406 -0.078,0.124 -0.206,0.207 -0.344,0.239 -0.138,0.03 -0.288,0.011 -0.414,-0.069 l -0.025,-0.015 c -0.12,-0.085 -0.195,-0.208 -0.221,-0.342 -0.025,-0.133 -0.002,-0.275 0.076,-0.399 0.101,-0.159 0.273,-0.255 0.463,-0.255 z m 5.486,3.203 c 0.104,0 0.206,0.029 0.293,0.084 0.125,0.079 0.212,0.201 0.245,0.345 0.031,0.142 0.006,0.288 -0.073,0.413 -0.155,0.247 -0.504,0.33 -0.758,0.169 l -0.025,-0.015 c -0.239,-0.168 -0.301,-0.493 -0.144,-0.74 v -0.002 c 0.1,-0.16 0.273,-0.254 0.462,-0.254 z m -6.214,2.935 c 0.104,0 0.206,0.028 0.293,0.082 0.064,0.041 0.115,0.094 0.156,0.153 0.041,0.058 0.07,0.124 0.086,0.193 0.03,0.138 0.008,0.286 -0.073,0.414 -0.101,0.161 -0.276,0.256 -0.466,0.256 -0.104,0 -0.203,-0.029 -0.291,-0.084 -0.064,-0.041 -0.118,-0.094 -0.159,-0.152 -0.04,-0.059 -0.068,-0.124 -0.084,-0.192 v -0.002 c -0.015,-0.069 -0.017,-0.14 -0.005,-0.211 0.011,-0.07 0.035,-0.139 0.076,-0.203 0.044,-0.069 0.103,-0.127 0.176,-0.172 0.087,-0.054 0.187,-0.082 0.291,-0.082 z m 6.015,3.866 c 0.104,0 0.206,0.029 0.293,0.084 0.125,0.079 0.21,0.201 0.242,0.345 0.032,0.142 0.007,0.288 -0.072,0.412 -0.155,0.247 -0.503,0.331 -0.756,0.17 L 36.09,23.85 c -0.239,-0.168 -0.303,-0.493 -0.147,-0.741 v -0.002 c 0.101,-0.159 0.276,-0.253 0.465,-0.253 z M 29.6,28.156 c 0.098,0 0.194,0.027 0.279,0.078 0.26,0.156 0.346,0.493 0.191,0.752 -0.1,0.168 -0.277,0.27 -0.472,0.27 -0.099,0 -0.196,-0.026 -0.282,-0.078 -0.125,-0.075 -0.214,-0.196 -0.25,-0.338 -0.035,-0.142 -0.014,-0.29 0.061,-0.416 0.1,-0.168 0.277,-0.268 0.473,-0.268 z m 6.808,1.237 c 0.104,0 0.206,0.029 0.293,0.084 0.125,0.079 0.21,0.201 0.242,0.345 0.032,0.143 0.007,0.288 -0.072,0.412 -0.155,0.247 -0.503,0.331 -0.756,0.17 L 36.09,30.389 c -0.239,-0.168 -0.303,-0.493 -0.147,-0.741 v -0.002 c 0.101,-0.159 0.276,-0.253 0.465,-0.253 z m -3.963,3.578 c 0.161,0 0.311,0.071 0.416,0.193 0.096,0.112 0.142,0.252 0.131,0.399 -0.011,0.146 -0.077,0.279 -0.189,0.375 -0.128,0.109 -0.265,0.132 -0.358,0.132 -0.161,0 -0.313,-0.07 -0.418,-0.191 -0.197,-0.23 -0.169,-0.578 0.061,-0.775 0.128,-0.111 0.265,-0.133 0.357,-0.133 z M 29.6,27.113 c -0.558,0 -1.084,0.299 -1.37,0.778 -0.217,0.365 -0.28,0.792 -0.175,1.205 0.091,0.362 0.302,0.672 0.599,0.89 -1.053,2.397 -2.997,3.402 -3.867,3.819 -0.033,0.011 -0.065,0.027 -0.094,0.045 -0.308,0.138 -0.562,0.182 -0.694,0.209 V 35.1 c 0.072,-0.008 0.52,-0.031 1.134,-0.311 1.39,-0.353 1.778,-0.093 2.185,0.184 0.266,0.179 0.595,0.405 1.108,0.431 0.026,0.002 0.053,0.002 0.08,0.002 0.548,0 2.345,-0.566 2.826,-0.748 0.297,0.29 0.695,0.455 1.113,0.455 0.38,0 0.748,-0.137 1.035,-0.384 0.323,-0.277 0.519,-0.663 0.551,-1.086 0.033,-0.424 -0.102,-0.835 -0.379,-1.157 -0.303,-0.353 -0.741,-0.556 -1.207,-0.556 -0.379,0 -0.749,0.135 -1.037,0.383 -0.419,0.359 -0.603,0.892 -0.541,1.404 -0.506,0.182 -2.108,0.655 -2.387,0.646 -0.213,-0.011 -0.338,-0.089 -0.578,-0.252 -0.304,-0.206 -0.227,-0.393 -0.677,-0.48 0.763,-0.718 1.762,-1.777 2.431,-3.338 0.536,-0.019 1.035,-0.309 1.311,-0.772 0.448,-0.752 0.2,-1.732 -0.553,-2.183 C 30.167,27.191 29.886,27.113 29.6,27.113 Z M 36.607,15.01 c -0.549,0 -1.052,0.276 -1.343,0.74 -0.417,0.658 -0.292,1.51 0.265,2.02 0.006,0.003 0.012,0.011 0.018,0.015 -0.351,1.175 -0.498,3.385 -0.209,4.449 -0.037,0.034 -0.075,0.066 -0.109,0.104 -0.06,0.066 -0.117,0.135 -0.166,0.213 -0.083,0.13 -0.143,0.268 -0.184,0.41 -0.877,0.127 -1.353,0.135 -1.775,0.41 -0.53,0.344 -1.029,0.669 -2.504,0.693 -0.511,-0.059 -1.525,-0.047 -1.977,-0.031 -0.372,0.015 -0.756,0.028 -1.26,0.002 -0.347,-0.019 -0.548,-0.23 -0.9,-0.631 -0.469,-0.534 -1.227,-1.209 -2.566,-1.306 v 1.041 c 0.857,0.078 1.377,0.49 1.783,0.953 0.386,0.44 0.826,0.939 1.627,0.982 0.55,0.03 0.977,0.017 1.353,0.002 0.648,-0.022 1.758,-0.042 2.643,0.178 0.678,0.167 3.146,2.514 3.842,3.723 -0.029,0.037 -0.058,0.074 -0.082,0.113 -0.454,0.716 -0.268,1.659 0.419,2.144 0.019,0.015 0.04,0.028 0.075,0.051 0.255,0.162 0.548,0.246 0.849,0.246 0.55,0 1.055,-0.279 1.346,-0.742 0.227,-0.357 0.301,-0.781 0.209,-1.195 -0.093,-0.416 -0.343,-0.771 -0.705,-1 -0.255,-0.16 -0.547,-0.246 -0.848,-0.246 -0.137,0 -0.273,0.019 -0.402,0.05 -0.666,-1.088 -2.25,-2.718 -3.43,-3.585 0.472,-0.164 0.794,-0.373 1.096,-0.569 0.371,-0.241 0.68,-0.138 1.264,-0.236 0.11,0.269 0.295,0.511 0.548,0.689 0.019,0.015 0.038,0.026 0.073,0.049 0.255,0.161 0.548,0.248 0.849,0.248 0.55,0 1.055,-0.279 1.346,-0.742 0.227,-0.358 0.301,-0.783 0.209,-1.197 -0.093,-0.416 -0.342,-0.77 -0.703,-0.998 -0.255,-0.161 -0.549,-0.246 -0.85,-0.246 -0.032,0 -0.065,0.002 -0.097,0.003 -0.185,-0.82 -0.04,-2.72 0.209,-3.628 0.029,0.002 0.058,0.005 0.087,0.005 0.551,0 1.053,-0.277 1.344,-0.74 0.228,-0.357 0.303,-0.782 0.211,-1.197 -0.093,-0.416 -0.343,-0.769 -0.705,-0.998 -0.255,-0.16 -0.549,-0.246 -0.85,-0.246 z"
     fill-rule="evenodd"
     fill="url(#_lgradient_6)"
     id="path7"
     style="display:none;isolation:isolate"
     sodipodi:nodetypes="ccccccccccccccscsccccccccccscccccccscccccccsccccccccccsccccccccssssccccsccccccssssccsssssccscccccccccccsscccccccssccccscccccccsscccccccssscsccssscccccccsscccsccssccccccccccscscccsccccccccssccccccccccccccccccccccscccsccccccscccsccscccs" />
  <path
     d="m 29.683012,15.871 c -0.96,-0.976 -2.008,-1.316 -2.975,-1.375 -1.343,-0.045 -3.099,0.265 -4.014,0.375 -0.608,0.078 -1.306,0.238 -2.026,0.551 -0.24,0.004 -1.041,-0.024 -1.826,-0.488 l -0.002,-0.002 c -0.13,-0.078 -0.26,-0.167 -0.386,-0.27 l -0.002,-0.002 c -0.128,-0.104 -0.251,-0.221 -0.369,-0.355 0.088,-0.127 0.157,-0.266 0.205,-0.41 v -0.002 c 0.047,-0.145 0.073,-0.295 0.078,-0.448 v -0.002 c 0.009,-0.305 -0.07,-0.616 -0.246,-0.894 -0.292,-0.464 -0.794,-0.742 -1.344,-0.742 v 0 0 c -0.15,0 -0.299,0.021 -0.442,0.062 h -0.001 c -0.143,0.042 -0.28,0.104 -0.407,0.184 -0.091,0.057 -0.174,0.123 -0.25,0.195 -0.075,0.072 -0.143,0.15 -0.203,0.234 -0.119,0.17 -0.205,0.363 -0.252,0.571 -0.069,0.311 -0.044,0.628 0.069,0.918 0.037,0.096 0.083,0.19 0.14,0.279 0.146,0.231 0.345,0.416 0.576,0.543 0.116,0.064 0.24,0.113 0.37,0.146 0.128,0.033 0.263,0.051 0.4,0.051 0.157,0 0.312,-0.026 0.461,-0.07 0.154,0.184 0.317,0.345 0.484,0.488 0.168,0.143 0.338,0.268 0.512,0.375 0.087,0.054 0.174,0.091 0.262,0.137 0.086,0.045 0.174,0.099 0.259,0.137 0.172,0.076 0.341,0.139 0.504,0.189 -0.525,0.403 -0.988,1.188 -1.388,1.748 -0.103,-0.023 -0.208,-0.037 -0.313,-0.041 -0.105,-0.004 -0.209,0.003 -0.312,0.02 h -0.002 c -0.103,0.016 -0.205,0.042 -0.303,0.078 -0.099,0.036 -0.195,0.081 -0.285,0.138 -0.279,0.177 -0.484,0.426 -0.608,0.707 -0.123,0.282 -0.163,0.595 -0.113,0.901 0.034,0.204 0.107,0.404 0.225,0.59 0.294,0.464 0.798,0.742 1.347,0.742 0.302,0 0.597,-0.086 0.852,-0.248 0.093,-0.059 0.176,-0.126 0.252,-0.199 0.151,-0.146 0.27,-0.318 0.351,-0.504 0.042,-0.095 0.074,-0.191 0.096,-0.291 0.022,-0.099 0.036,-0.201 0.039,-0.303 v -0.002 c 0.003,-0.102 -0.003,-0.203 -0.019,-0.305 v -0.002 c -0.034,-0.204 -0.108,-0.404 -0.225,-0.589 -0.03,-0.049 -0.064,-0.094 -0.1,-0.139 0.296,-0.405 0.632,-1.061 1.006,-1.367 0.187,-0.153 0.383,-0.295 0.588,-0.422 0.206,-0.128 0.421,-0.24 0.645,-0.342 10e-4,-0.001 0.002,-0.001 0.004,-0.002 0.415,-0.188 0.825,-0.319 1.211,-0.406 1.629,-0.256 2.674,-0.605 4.457,-0.469 0.766,0.056 1.567,0.336 2.309,1.097 z m 5.768,-3.371 v 0 c 0.944,0.678 2.259,0.464 2.934,-0.477 v 0 c 0.674,-0.942 0.456,-2.256 -0.488,-2.934 v 0 l -12.065,-7.09 c -0.998,-0.587 -2.624,-0.594 -3.627,-0.014 L 4.0650124,12.458 c -1.004,0.579 -1.821687,1.990006 -1.818,3.148 l 0.06008,18.87003 c -2e-6,-0.01468 4.13792,-1.01903 4.13792,-1.01903 V 15.932 L 23.771012,5.931 Z m -5.763,27.6 v 0 c -0.99,0.602 -1.31,1.896 -0.714,2.886 v 0 c 0.597,0.99 1.885,1.31 2.876,0.714 v 0 l 11.967,-6.671 c 1.011,-0.564 1.833,-1.962 1.833,-3.121 V 18.772 c 0,-1.158 -0.94,-2.115 -2.099,-2.135 v 0 c -1.158,-0.021 -2.099,0.903 -2.099,2.062 v 14.947 z m -12.912,-27.25 c -0.103,0 -0.205,0.031 -0.293,0.086 -0.062,0.039 -0.115,0.089 -0.156,0.148 -0.041,0.058 -0.072,0.124 -0.088,0.195 v 0.002 0.004 c -0.03,0.141 -0.006,0.284 0.072,0.406 0.078,0.124 0.206,0.207 0.344,0.239 0.138,0.03 0.288,0.011 0.414,-0.069 l 0.025,-0.015 c 0.12,-0.085 0.195,-0.208 0.221,-0.342 0.025,-0.133 0.002,-0.275 -0.076,-0.399 -0.101,-0.159 -0.273,-0.255 -0.463,-0.255 z m -5.486,3.203 c -0.104,0 -0.206,0.029 -0.293,0.084 -0.125,0.079 -0.212,0.201 -0.245,0.345 -0.031,0.142 -0.006,0.288 0.073,0.413 0.155,0.247 0.504,0.33 0.758,0.169 l 0.025,-0.015 c 0.239,-0.168 0.301,-0.493 0.144,-0.74 v -0.002 c -0.1,-0.16 -0.273,-0.254 -0.462,-0.254 z m 6.214,2.935 c -0.104,0 -0.206,0.028 -0.293,0.082 -0.064,0.041 -0.115,0.094 -0.156,0.153 -0.041,0.058 -0.07,0.124 -0.086,0.193 -0.03,0.138 -0.008,0.286 0.073,0.414 0.101,0.161 0.276,0.256 0.466,0.256 0.104,0 0.203,-0.029 0.291,-0.084 0.064,-0.041 0.118,-0.094 0.159,-0.152 0.04,-0.059 0.068,-0.124 0.084,-0.192 v -0.002 c 0.015,-0.069 0.017,-0.14 0.005,-0.211 -0.011,-0.07 -0.035,-0.139 -0.076,-0.203 -0.044,-0.069 -0.103,-0.127 -0.176,-0.172 -0.087,-0.054 -0.187,-0.082 -0.291,-0.082 z m -6.015,3.866 c -0.104,0 -0.206,0.029 -0.293,0.084 -0.125,0.079 -0.21,0.201 -0.242,0.345 -0.032,0.142 -0.007,0.288 0.072,0.412 0.155,0.247 0.503,0.331 0.756,0.17 l 0.025,-0.015 c 0.239,-0.168 0.303,-0.493 0.147,-0.741 v -0.002 c -0.101,-0.159 -0.276,-0.253 -0.465,-0.253 z m 6.808,5.302 c -0.098,0 -0.194,0.027 -0.279,0.078 -0.26,0.156 -0.346,0.493 -0.191,0.752 0.1,0.168 0.277,0.27 0.472,0.27 0.099,0 0.196,-0.026 0.282,-0.078 0.125,-0.075 0.214,-0.196 0.25,-0.338 0.035,-0.142 0.014,-0.29 -0.061,-0.416 -0.1,-0.168 -0.277,-0.268 -0.473,-0.268 z m -6.808,1.237 c -0.104,0 -0.206,0.029 -0.293,0.084 -0.125,0.079 -0.21,0.201 -0.242,0.345 -0.032,0.143 -0.007,0.288 0.072,0.412 0.155,0.247 0.503,0.331 0.756,0.17 l 0.025,-0.015 c 0.239,-0.168 0.303,-0.493 0.147,-0.741 v -0.002 c -0.101,-0.159 -0.276,-0.253 -0.465,-0.253 z m 3.963,3.578 c -0.161,0 -0.311,0.071 -0.416,0.193 -0.096,0.112 -0.142,0.252 -0.131,0.399 0.011,0.146 0.077,0.279 0.189,0.375 0.128,0.109 0.265,0.132 0.358,0.132 0.161,0 0.313,-0.07 0.418,-0.191 0.197,-0.23 0.169,-0.578 -0.061,-0.775 -0.128,-0.111 -0.265,-0.133 -0.357,-0.133 z m 2.845,-5.858 c 0.558,0 1.084,0.299 1.37,0.778 0.217,0.365 0.28,0.792 0.175,1.205 -0.091,0.362 -0.302,0.672 -0.599,0.89 1.053,2.397 2.997,3.402 3.867,3.819 0.033,0.011 0.065,0.027 0.094,0.045 0.308,0.138 0.663988,0.182 0.795988,0.209 V 35.1 c -0.072,-0.008 -0.621988,-0.031 -1.235988,-0.311 -1.39,-0.353 -1.778,-0.093 -2.185,0.184 -0.266,0.179 -0.595,0.405 -1.108,0.431 -0.026,0.002 -0.053,0.002 -0.08,0.002 -0.548,0 -2.345,-0.566 -2.826,-0.748 -0.297,0.29 -0.695,0.455 -1.113,0.455 -0.38,0 -0.748,-0.137 -1.035,-0.384 -0.323,-0.277 -0.519,-0.663 -0.551,-1.086 -0.033,-0.424 0.102,-0.835 0.379,-1.157 0.303,-0.353 0.741,-0.556 1.207,-0.556 0.379,0 0.749,0.135 1.037,0.383 0.419,0.359 0.603,0.892 0.541,1.404 0.506,0.182 2.108,0.655 2.387,0.646 0.213,-0.011 0.338,-0.089 0.578,-0.252 0.304,-0.206 0.227,-0.393 0.677,-0.48 -0.763,-0.718 -1.762,-1.777 -2.431,-3.338 -0.536,-0.019 -1.035,-0.309 -1.311,-0.772 -0.448,-0.752 -0.2,-1.732 0.553,-2.183 0.247,-0.147 0.528,-0.225 0.814,-0.225 z m -7.007,-12.103 c 0.549,0 1.052,0.276 1.343,0.74 0.417,0.658 0.292,1.51 -0.265,2.02 -0.006,0.003 -0.012,0.011 -0.018,0.015 0.351,1.175 0.498,3.385 0.209,4.449 0.037,0.034 0.075,0.066 0.109,0.104 0.06,0.066 0.117,0.135 0.166,0.213 0.083,0.13 0.143,0.268 0.184,0.41 0.877,0.127 1.353,0.135 1.775,0.41 0.53,0.344 1.029,0.669 2.504,0.693 0.511,-0.059 1.525,-0.047 1.977,-0.031 0.372,0.015 0.756,0.028 1.26,0.002 0.347,-0.019 0.548,-0.23 0.9,-0.631 C 21.903012,22.87 22.561,22.195 23.9,22.098 v 1.041 c -0.857,0.078 -1.276988,0.49 -1.682988,0.953 -0.386,0.44 -0.826,0.939 -1.627,0.982 -0.55,0.03 -0.977,0.017 -1.353,0.002 -0.648,-0.022 -1.758,-0.042 -2.643,0.178 -0.678,0.167 -3.146,2.514 -3.842,3.723 0.029,0.037 0.058,0.074 0.082,0.113 0.454,0.716 0.268,1.659 -0.419,2.144 -0.019,0.015 -0.04,0.028 -0.075,0.051 -0.255,0.162 -0.548,0.246 -0.849,0.246 -0.55,0 -1.055,-0.279 -1.346,-0.742 -0.2269996,-0.357 -0.3009996,-0.781 -0.2089996,-1.195 0.093,-0.416 0.3429996,-0.771 0.7049996,-1 0.255,-0.16 0.547,-0.246 0.848,-0.246 0.137,0 0.273,0.019 0.402,0.05 0.666,-1.088 2.25,-2.718 3.43,-3.585 -0.472,-0.164 -0.794,-0.373 -1.096,-0.569 -0.371,-0.241 -0.68,-0.138 -1.264,-0.236 -0.11,0.269 -0.295,0.511 -0.548,0.689 -0.019,0.015 -0.038,0.026 -0.073,0.049 -0.255,0.161 -0.548,0.248 -0.849,0.248 -0.55,0 -1.055,-0.279 -1.346,-0.742 -0.2269996,-0.358 -0.3009996,-0.783 -0.2089996,-1.197 0.093,-0.416 0.3419996,-0.77 0.7029996,-0.998 0.255,-0.161 0.549,-0.246 0.85,-0.246 0.032,0 0.065,0.002 0.097,0.003 0.185,-0.82 0.04,-2.72 -0.209,-3.628 -0.029,0.002 -0.058,0.005 -0.087,0.005 -0.551,0 -1.053,-0.277 -1.3439996,-0.74 -0.228,-0.357 -0.303,-0.782 -0.211,-1.197 0.093,-0.416 0.3429996,-0.769 0.7049996,-0.998 0.255,-0.16 0.549,-0.246 0.85,-0.246 z"
     fill-rule="evenodd"
     fill="url(#_lgradient_6)"
     id="path9"
     style="display:none;fill:url(#linearGradient10)"
     sodipodi:nodetypes="ccccccccccccccscsccccccccccscccccccscccccccsccccccccccsccccccccssssccccsccccccssssccsssssccscccccccccccsscccccccssccccscccccccsscccccccssscsccssscccccccsscccsccssccccccccccscscccsccccccccssccccccccccccccccccccccscccsccccccscccsccscccs" />
  <path
     id="path22"
     style="display:inline;isolation:isolate;fill:url(#linearGradient2);stroke-width:1.61385"
     d="m 3.5701071,10.125774 c -0.485768,0 -0.959609,0.138928 -1.371143,0.397158 -0.584213,0.369571 -0.987015,0.940912 -1.137102,1.612274 -0.14847105,0.669747 -0.02754,1.355276 0.340422,1.931419 0.46963,0.747212 1.278593,1.193841 2.167823,1.193841 0.0468,0 0.09504,-0.0038 0.141831,-0.0071 0.401848,1.465373 0.636617,4.530004 0.338057,5.85336 -0.05165,-0.0016 -0.106764,-0.0045 -0.158395,-0.0045 -0.485769,0 -0.959612,0.137333 -1.371142,0.397161 -0.582599,0.367957 -0.98465,0.938549 -1.134739,1.609911 -0.148471,0.668133 -0.02828,1.356024 0.338056,1.933784 0.469631,0.74721 1.284936,1.196202 2.172553,1.196202 0.485767,0 0.957248,-0.13969 1.368777,-0.399524 0.05649,-0.03712 0.08755,-0.05615 0.11821,-0.08037 0.408305,-0.287266 0.706628,-0.676973 0.884153,-1.111099 0.942486,0.158159 1.441426,-0.0083 2.040164,0.380612 0.487384,0.316315 1.006564,0.654938 1.7682999,0.91961 -1.9043409,1.399207 -4.4593909,4.028936 -5.5342139,5.784804 -0.208186,-0.05003 -0.429013,-0.08038 -0.650111,-0.08038 -0.485769,0 -0.957246,0.138947 -1.368776,0.39716 -0.584215,0.36957 -0.987016,0.940912 -1.137105,1.612274 -0.148471,0.668132 -0.02828,1.35291 0.338057,1.929055 0.469632,0.747212 1.284935,1.198569 2.172552,1.198569 0.485769,0 0.957248,-0.135718 1.368779,-0.397159 0.05649,-0.03712 0.08991,-0.05852 0.120569,-0.08274 1.108715,-0.782715 1.411166,-2.305436 0.678479,-3.460951 -0.03873,-0.06295 -0.08557,-0.12231 -0.132398,-0.182031 1.123241,-1.951143 5.1043199,-5.737509 6.1985119,-6.007023 1.428256,-0.355046 3.221314,-0.323917 4.267089,-0.288412 0.606808,0.0242 1.294392,0.04604 2.182008,-0.0025 1.292692,-0.06939 2.003501,-0.876175 2.626448,-1.586269 0.654445,-0.746329 1.411971,-1.409621 2.791928,-1.536625 0.0016,1.48e-4 0.0031,-1.51e-4 0.0045,0 1.379958,0.127009 2.137483,0.790296 2.791928,1.536625 0.622947,0.710094 1.333756,1.516874 2.626449,1.586269 0.887615,0.04842 1.575201,0.02658 2.18201,0.0025 1.045772,-0.0355 2.838831,-0.06663 4.267088,0.288412 1.094189,0.269514 5.075272,4.05588 6.19851,6.007023 -0.0468,0.0597 -0.09365,0.119082 -0.132397,0.182031 -0.732688,1.155515 -0.430236,2.678236 0.678479,3.460951 0.03066,0.0242 0.06408,0.04563 0.120569,0.08274 0.411528,0.261445 0.883007,0.397159 1.368777,0.397159 0.887617,0 1.70292,-0.451357 2.172552,-1.198569 0.366341,-0.576145 0.48653,-1.260923 0.338055,-1.929055 -0.150086,-0.671362 -0.552888,-1.242704 -1.137103,-1.612274 -0.41153,-0.258217 -0.883009,-0.39716 -1.368777,-0.39716 -0.221097,0 -0.441924,0.03037 -0.65011,0.08038 -1.074825,-1.755868 -3.629874,-4.385597 -5.534215,-5.784804 0.761736,-0.264672 1.280917,-0.603295 1.768301,-0.91961 0.598737,-0.388939 1.097677,-0.222453 2.040164,-0.380612 0.177534,0.434126 0.475848,0.823833 0.884152,1.111099 0.03066,0.0242 0.06172,0.04325 0.118211,0.08037 0.411528,0.259832 0.883009,0.399524 1.368777,0.399524 0.887617,0 1.702922,-0.448992 2.172552,-1.196202 0.366342,-0.57776 0.486532,-1.265651 0.338057,-1.933784 -0.150086,-0.671362 -0.552141,-1.241954 -1.134739,-1.609911 -0.41153,-0.25983 -0.885373,-0.397161 -1.371141,-0.397161 -0.05165,0 -0.106745,0.0031 -0.158394,0.0045 -0.298561,-1.323356 -0.0638,-4.387987 0.338056,-5.85336 0.04679,0.0033 0.09504,0.0071 0.141832,0.0071 0.88923,0 1.698192,-0.446629 2.167823,-1.193841 0.367957,-0.576143 0.488897,-1.261672 0.340422,-1.931419 -0.150086,-0.671362 -0.55289,-1.242703 -1.137103,-1.612274 -0.411532,-0.258215 -0.885377,-0.397158 -1.371142,-0.397158 -0.886005,0 -1.698195,0.447378 -2.167823,1.196204 -0.672977,1.061912 -0.471026,2.436945 0.42789,3.260007 0.0098,0.0047 0.01869,0.01723 0.02837,0.02364 -0.566461,1.896274 -0.804461,5.46245 -0.338058,7.179586 -0.0597,0.05486 -0.120079,0.106509 -0.17494,0.167846 -0.09684,0.10651 -0.190423,0.216907 -0.269499,0.342788 -0.13394,0.209799 -0.229339,0.432763 -0.295507,0.66193 -1.415347,0.204959 -2.184169,0.218122 -2.865216,0.66193 -0.855338,0.555166 -1.659714,1.079458 -4.040141,1.11819 -0.824677,-0.09522 -2.461993,-0.07545 -3.191453,-0.04965 -0.600351,0.0242 -1.219693,0.04432 -2.033073,0.0025 -0.560007,-0.03066 -0.883446,-0.369382 -1.451519,-1.016535 -0.756332,-0.861152 -1.898875,-1.950907 -4.056691,-2.108723 -0.0016,-1.16e-4 -0.0031,1.18e-4 -0.0045,0 -2.157817,0.157814 -3.30036,1.247571 -4.056692,2.108723 -0.568072,0.647153 -0.891512,0.985872 -1.451519,1.016535 -0.813378,0.04196 -1.43272,0.02184 -2.033072,-0.0025 -0.72946,-0.02581 -2.366777,-0.04557 -3.191454,0.04965 -2.380426,-0.03873 -3.184801,-0.563024 -4.0401399,-1.11819 -0.681046,-0.443808 -1.44987,-0.456971 -2.865216,-0.66193 -0.06616,-0.229167 -0.161552,-0.452131 -0.295506,-0.66193 -0.07908,-0.125885 -0.172672,-0.236273 -0.269501,-0.342788 -0.05486,-0.06132 -0.115236,-0.112968 -0.17494,-0.167846 0.466404,-1.717136 0.228403,-5.283312 -0.338056,-7.179586 0.0098,-0.0064 0.01869,-0.01881 0.02837,-0.02364 0.898914,-0.823062 1.100867,-2.198095 0.427891,-3.260007 -0.469631,-0.748826 -1.281821,-1.196204 -2.167825,-1.196204 z m 0,1.683195 c 0.305019,0 0.585652,0.153133 0.747038,0.411343 v 0.0025 c 0.253375,0.39862 0.154022,0.922714 -0.231676,1.193839 l -0.04256,0.02601 c -0.409918,0.259828 -0.972062,0.124397 -1.222209,-0.274231 -0.127481,-0.201729 -0.168228,-0.437491 -0.118193,-0.666659 0.05325,-0.232395 0.193065,-0.428054 0.394795,-0.555548 0.140398,-0.08877 0.304966,-0.137114 0.472807,-0.137114 z m 40.8600479,0 c 0.167847,0 0.332402,0.04835 0.472806,0.137114 0.201731,0.127481 0.341537,0.323153 0.394794,0.555547 0.05004,0.229167 0.0094,0.464927 -0.118211,0.66666 -0.250146,0.398621 -0.812289,0.534057 -1.222207,0.274227 l -0.04254,-0.026 c -0.385711,-0.271136 -0.485053,-0.795227 -0.231678,-1.19385 v -0.0025 c 0.161388,-0.258215 0.442019,-0.411341 0.747038,-0.411341 z M 3.8916161,22.785202 c 0.305019,0 0.588765,0.152389 0.751764,0.408977 v 0.0025 c 0.251761,0.400235 0.146929,0.925076 -0.238767,1.196203 l -0.04018,0.02364 c -0.408305,0.25983 -0.969697,0.124397 -1.219845,-0.274229 -0.127481,-0.200116 -0.167483,-0.435128 -0.115852,-0.664295 0.05165,-0.232393 0.188335,-0.428054 0.390066,-0.555548 0.140417,-0.08877 0.304967,-0.137114 0.472808,-0.137114 z m 40.2170299,0 c 0.167846,0 0.332401,0.04835 0.472807,0.137114 0.201731,0.127481 0.338423,0.323155 0.390065,0.555549 0.05165,0.229165 0.01161,0.464179 -0.115835,0.664294 -0.250145,0.398621 -0.81154,0.534057 -1.219843,0.274227 l -0.04018,-0.02364 c -0.38571,-0.271127 -0.490528,-0.79597 -0.238768,-1.196205 v -0.0025 c 0.163003,-0.256602 0.446747,-0.408979 0.751766,-0.408979 z m -29.228977,6.874625 c -0.46156,0 -0.915786,0.124469 -1.314405,0.361698 -1.21523,0.727844 -1.614247,2.311166 -0.891244,3.524781 0.445423,0.747212 1.250791,1.215186 2.115817,1.245847 1.079664,2.519219 2.690572,4.226537 3.92194,5.385283 -0.726233,0.140416 -0.601578,0.442951 -1.092185,0.775402 -0.387326,0.263059 -0.587682,0.388864 -0.931433,0.406617 -0.450265,0.01451 -3.036778,-0.748821 -3.853384,-1.042543 0.100051,-0.826291 -0.196127,-1.685375 -0.872329,-2.26475 -0.464789,-0.400235 -1.062093,-0.619377 -1.67374,-0.619377 -0.7520529,0 -1.4589709,0.328646 -1.9479679,0.898335 -0.447037,0.519658 -0.665542,1.183319 -0.612287,1.86759 0.05165,0.682659 0.367606,1.304717 0.88888,1.751752 0.463174,0.398623 1.058112,0.619381 1.6713749,0.619381 0.674588,0 1.317357,-0.267201 1.796671,-0.735217 0.776259,0.29372 3.675841,1.208022 4.56023,1.208022 0.04358,0 0.0857,8.64e-4 0.127645,-0.0025 0.827904,-0.04196 1.360294,-0.408511 1.789575,-0.697389 0.65684,-0.447037 1.281534,-0.865196 3.524783,-0.295507 0.988143,0.450619 1.806904,0.488164 1.926691,0.501177 3.29e-4,-3.7e-5 0.0022,3.8e-5 0.0025,0 0.119662,-0.01306 0.907849,-0.05058 1.89596,-0.501177 2.243251,-0.569689 2.867945,-0.151519 3.524782,0.295507 0.429282,0.288878 0.961674,0.65543 1.789578,0.697389 0.04196,0.0033 0.08407,0.0025 0.127644,0.0025 0.884388,0 3.78397,-0.914302 4.560232,-1.208022 0.479313,0.468016 1.12208,0.735217 1.796669,0.735217 0.613262,0 1.208202,-0.220758 1.671376,-0.619381 0.521274,-0.447035 0.837236,-1.069093 0.888878,-1.751752 0.05326,-0.684271 -0.165252,-1.347932 -0.612287,-1.86759 -0.488995,-0.569689 -1.195915,-0.898335 -1.947967,-0.898335 -0.611648,0 -1.208953,0.219142 -1.673741,0.619377 -0.6762,0.579375 -0.972388,1.438459 -0.872329,2.26475 -0.816606,0.293722 -3.403119,1.057066 -3.853384,1.042543 -0.343749,-0.01778 -0.544107,-0.143555 -0.931431,-0.406617 -0.490608,-0.332451 -0.365953,-0.634997 -1.092186,-0.775402 1.231369,-1.158746 2.842276,-2.866064 3.921941,-5.385283 0.865024,-0.03066 1.670392,-0.498635 2.115814,-1.245847 0.723004,-1.213615 0.323986,-2.796937 -0.891242,-3.524781 -0.39862,-0.237238 -0.852845,-0.361698 -1.314406,-0.361698 -0.900527,0 -1.748815,0.482269 -2.210376,1.255304 -0.350206,0.589053 -0.45314,1.276721 -0.283684,1.943237 0.146856,0.584215 0.487578,1.085521 0.966892,1.437338 -1.699384,3.868397 -4.837015,5.490074 -6.241063,6.16305 -0.05324,0.01778 -0.104495,0.04423 -0.151301,0.07327 -0.495912,0.222193 -0.970633,0.294455 -1.184383,0.338057 -4.83e-4,-9.8e-5 -0.002,9.9e-5 -0.0025,0 -0.213879,-0.04361 -0.719178,-0.115871 -1.215115,-0.338057 -0.04679,-0.02905 -0.09804,-0.05553 -0.151302,-0.07327 -1.404047,-0.672976 -4.541678,-2.294653 -6.241061,-6.16305 0.479313,-0.351817 0.820031,-0.853123 0.966891,-1.437338 0.169461,-0.666516 0.06652,-1.354184 -0.283684,-1.943237 -0.46156,-0.773035 -1.30985,-1.255304 -2.210376,-1.255304 z m 0,1.683196 c 0.316315,0 0.602198,0.161497 0.763583,0.432616 0.121041,0.203346 0.153405,0.442222 0.09693,0.671389 -0.05811,0.229165 -0.200156,0.422691 -0.401886,0.543728 -0.138801,0.08392 -0.296488,0.127645 -0.45626,0.127645 -0.314699,0 -0.599835,-0.166214 -0.761219,-0.437349 -0.250148,-0.417985 -0.112278,-0.960991 0.307325,-1.212752 0.137169,-0.08231 0.293373,-0.125304 0.45153,-0.125304 z m 18.240924,0 c 0.158159,0 0.314353,0.043 0.451531,0.125304 0.4196,0.251761 0.557472,0.794765 0.307325,1.212752 -0.161388,0.271127 -0.44652,0.437347 -0.761221,0.437347 -0.159774,0 -0.31747,-0.04374 -0.456259,-0.127644 -0.201731,-0.121041 -0.343789,-0.314563 -0.401887,-0.543726 -0.05649,-0.229169 -0.02411,-0.468044 0.09693,-0.67139 0.161388,-0.271126 0.447271,-0.432617 0.763585,-0.432617 z M 3.8916161,33.33827 c 0.305019,0 0.588765,0.15239 0.751764,0.40898 v 0.0025 c 0.251761,0.400235 0.146929,0.925079 -0.238767,1.196204 l -0.04018,0.02364 c -0.408305,0.259829 -0.969697,0.124397 -1.219845,-0.274227 -0.127481,-0.200117 -0.167483,-0.433516 -0.115852,-0.664296 0.05165,-0.232396 0.188335,-0.428055 0.390066,-0.555548 0.140417,-0.08877 0.304967,-0.137114 0.472808,-0.137114 z m 40.2170299,0 c 0.167846,0 0.332401,0.04835 0.472807,0.137115 0.201731,0.127499 0.338423,0.323155 0.390065,0.555549 0.05165,0.23078 0.01161,0.464177 -0.115835,0.664294 -0.250145,0.398622 -0.81154,0.534058 -1.219843,0.27423 l -0.04018,-0.02364 c -0.38571,-0.271127 -0.490528,-0.795969 -0.238768,-1.196203 v -0.0025 c 0.163003,-0.2566 0.446747,-0.408977 0.751766,-0.408977 z m -33.81994,5.775346 c 0.148472,0 0.367887,0.03599 0.574461,0.215129 0.371185,0.317928 0.417219,0.87939 0.09929,1.250577 -0.169461,0.195276 -0.413921,0.307324 -0.673751,0.307324 -0.150086,0 -0.3726179,-0.03685 -0.5791899,-0.212765 -0.180745,-0.154929 -0.287209,-0.36957 -0.304961,-0.605192 -0.01778,-0.237236 0.05784,-0.462267 0.212763,-0.643019 0.169461,-0.196891 0.4115559,-0.312054 0.6713889,-0.312054 z m 27.42285,0 c 0.259829,0 0.501931,0.115163 0.671387,0.312054 0.154929,0.180745 0.230515,0.405783 0.212763,0.643019 -0.01778,0.235622 -0.124216,0.450265 -0.304963,0.605192 -0.206569,0.17592 -0.4291,0.212765 -0.579187,0.212765 -0.25983,0 -0.504298,-0.112042 -0.673751,-0.307324 -0.317929,-0.371187 -0.271896,-0.932649 0.09929,-1.250577 0.206573,-0.179131 0.425985,-0.215129 0.574462,-0.215129 z" />
  <path
     d="m 12.497494,13.722869 v 0 c -0.944,0.678 -2.259,0.464 -2.9340002,-0.477 v 0 c -0.674,-0.942 -0.456,-2.256 0.4880002,-2.934 v 0 l 12.065,-7.0899999 c 0.998,-0.587 2.624,-0.594 3.627,-0.014 l 18.14,10.4729999 c 1.004,0.579 1.82527,1.990023 1.818,3.148 l -0.06008,9.569646 c 2e-6,-0.01468 -4.13792,-1.01903 -4.13792,-1.01903 v -8.224616 l -17.326,-10.0009999 z m 5.763,27.6 v 0 c 0.99,0.602 1.31,1.896 0.714,2.886 v 0 c -0.597,0.99 -1.885,1.31 -2.876,0.714 v 0 l -11.9670002,-6.671 c -1.011,-0.564 -1.833,-1.962 -1.833,-3.121 v -15.136 c 0,-1.158 0.94,-2.115 2.099,-2.135 v 0 c 1.158,-0.021 2.099,0.903 2.099,2.062 v 14.947 z"
     fill-rule="evenodd"
     fill="url(#_lgradient_6)"
     id="path24"
     style="display:none;isolation:isolate;fill:url(#linearGradient26)"
     sodipodi:nodetypes="cssssccccsccccccssssccssssscc" />
  <path
     d="m 29.739506,8.059922 v 0 c -0.99,-0.602 -1.31,-1.896 -0.714,-2.8859998 v 0 c 0.597,-0.99 1.885,-1.31 2.876,-0.714 v 0 l 11.967,6.6709998 c 1.011,0.564 1.833,1.962 1.833,3.121 v 15.136 c 0,1.158 -0.94,2.115 -2.099,2.135 v 0 c -1.158,0.021 -2.099,-0.903 -2.099,-2.062 v -14.947 z"
     fill-rule="evenodd"
     fill="url(#_lgradient_6)"
     id="path25"
     style="display:none;fill:url(#linearGradient27)"
     sodipodi:nodetypes="cssssccssssscc" />
  <path
     d="m 15.282928,10.88683 c 1.549295,-1.5751183 2.703179,-1.4944243 4.263773,-1.5896443 2.1674,-0.07262 5.001322,0.427671 6.477996,0.605194 0.981221,0.1258843 2.107689,0.3840963 3.26966,0.8892333 0.387326,0.0064 1.680018,-0.03873 2.946892,-0.78756 l 0.0033,-0.0033 C 32.45435,9.8748677 32.664151,9.7312387 32.867495,9.5650127 l 0.0033,-0.0033 c 0.206573,-0.167846 0.405075,-0.35666 0.595512,-0.572918 -0.142013,-0.20496 -0.253377,-0.429285 -0.33084,-0.661679 v -0.0033 c -0.07585,-0.234009 -0.117812,-0.476087 -0.125885,-0.723005 v -0.0033 c -0.01451,-0.492224 0.112968,-0.99413 0.397006,-1.442782 0.471245,-0.748826 1.281398,-1.197476 2.169015,-1.197476 v 0 0 c 0.242078,0 0.48254,0.03389 0.713322,0.100069 h 0.0016 c 0.230782,0.06778 0.451879,0.167847 0.65684,0.29695 0.146856,0.09198 0.280809,0.198502 0.403461,0.314699 0.121041,0.116197 0.230781,0.242076 0.327612,0.377641 0.192049,0.274354 0.33084,0.585828 0.40669,0.92151 0.111353,0.501906 0.07101,1.013496 -0.111353,1.481514 -0.0597,0.15493 -0.13394,0.30663 -0.225938,0.450265 -0.235624,0.372799 -0.556779,0.671361 -0.929579,0.87632 -0.187207,0.10328 -0.387325,0.182363 -0.597124,0.2356223 -0.206574,0.05326 -0.424444,0.08231 -0.645541,0.08231 -0.253373,0 -0.503521,-0.04196 -0.743985,-0.1129683 -0.248535,0.2969503 -0.511592,0.5567783 -0.781104,0.7875593 -0.271126,0.23078 -0.54548,0.432513 -0.826291,0.605194 -0.140398,0.08715 -0.280811,0.146857 -0.422829,0.221098 -0.138801,0.07262 -0.280811,0.159755 -0.417988,0.221097 -0.277582,0.122637 -0.550323,0.224327 -0.81338,0.305017 0.847272,0.650383 1.594484,1.917256 2.240025,2.821012 0.166213,-0.03712 0.33568,-0.0597 0.505135,-0.06616 0.169461,-0.0064 0.337295,0.0047 0.503521,0.03227 h 0.0033 c 0.166214,0.02582 0.330838,0.06778 0.488995,0.125885 0.159774,0.05811 0.314703,0.130728 0.45995,0.222712 0.450263,0.28565 0.781103,0.687498 0.981219,1.140992 0.198504,0.455106 0.263058,0.96024 0.182366,1.454079 -0.05486,0.329225 -0.172672,0.651995 -0.363118,0.952172 -0.474469,0.748825 -1.287852,1.197476 -2.173855,1.197476 -0.487382,0 -0.963469,-0.138801 -1.375001,-0.400235 -0.150086,-0.09522 -0.284038,-0.203344 -0.40669,-0.321156 -0.243691,-0.235621 -0.435738,-0.513205 -0.56646,-0.81338 -0.06778,-0.153314 -0.119426,-0.308246 -0.154929,-0.469632 -0.0355,-0.159755 -0.05811,-0.324383 -0.06295,-0.488997 v -0.0033 c -0.0047,-0.164617 0.0047,-0.327612 0.03066,-0.492224 v -0.0033 c 0.05486,-0.329225 0.174304,-0.651993 0.363117,-0.950556 0.04842,-0.07908 0.10328,-0.1517 0.161388,-0.224326 -0.4777,-0.653611 -1.019955,-1.712294 -1.623534,-2.206133 -0.301792,-0.24692 -0.618105,-0.476085 -0.948945,-0.681044 -0.332453,-0.206573 -0.679431,-0.387326 -1.040934,-0.551937 -0.0016,-0.0016 -0.0033,-0.0016 -0.0063,-0.0033 -0.670006,-0.302854 -1.331686,-0.51427 -1.954631,-0.654673 -2.628964,-0.413147 -4.315438,-0.976381 -7.192933,-0.756896 -1.236209,0.09038 -1.991472,-0.08715 -3.188948,1.14099 z M 35.575464,6.6407907 c 0.166214,0 0.330838,0.05003 0.472856,0.138801 0.100051,0.06293 0.185594,0.143627 0.251762,0.238851 0.06616,0.09361 0.116198,0.200117 0.142013,0.314701 v 0.0033 0.0063 c 0.0484,0.227552 0.0098,0.458334 -0.116197,0.655223 -0.125885,0.200119 -0.332451,0.334067 -0.555163,0.385709 -0.222712,0.04842 -0.46479,0.01778 -0.668134,-0.111353 l -0.04035,-0.0242 c -0.193662,-0.137169 -0.314701,-0.335682 -0.356663,-0.551937 -0.04035,-0.214641 -0.0033,-0.44381 0.122656,-0.643926 0.163002,-0.256603 0.44058,-0.411532 0.747212,-0.411532 z m -1.174883,9.9058133 c 0.167847,0 0.332451,0.04519 0.472857,0.132343 0.10328,0.06616 0.185592,0.151701 0.25176,0.246917 0.06616,0.09361 0.112968,0.200118 0.138802,0.311475 0.04842,0.222711 0.01288,0.46156 -0.117812,0.668135 -0.163003,0.259828 -0.445424,0.413144 -0.752056,0.413144 -0.167846,0 -0.327611,-0.0468 -0.46963,-0.135554 -0.103281,-0.06616 -0.190435,-0.1517 -0.256603,-0.245305 -0.06457,-0.09523 -0.109739,-0.200117 -0.135554,-0.309859 v -0.0033 c -0.0242,-0.111353 -0.02745,-0.225939 -0.0082,-0.340522 0.01778,-0.112968 0.05649,-0.224325 0.122656,-0.327611 0.07102,-0.111353 0.166213,-0.20496 0.284038,-0.277583 0.140398,-0.08715 0.301791,-0.132343 0.46963,-0.132343 z"
     fill-rule="evenodd"
     fill="url(#_lgradient_6)"
     id="path1"
     style="display:inline;isolation:isolate;fill:url(#linearGradient28);stroke-width:1.61385"
     sodipodi:nodetypes="ccccccccccccccscsccccccccccscccccccscccccccsccccccccccscccccccscccccccccccssccccscccccccs" />
  <path
     d="M 32.717334,10.88683 C 31.168037,9.3117117 30.014153,9.3924057 28.453562,9.2971857 c -2.167403,-0.07262 -5.001323,0.427671 -6.477997,0.605194 -0.981221,0.1258843 -2.107689,0.3840963 -3.26966,0.8892333 -0.387326,0.0064 -1.68002,-0.03873 -2.946892,-0.78756 l -0.0033,-0.0033 C 15.545912,9.8748677 15.336112,9.7312387 15.132766,9.5650127 l -0.0033,-0.0033 c -0.206573,-0.167846 -0.405077,-0.35666 -0.595512,-0.572918 0.142013,-0.20496 0.253374,-0.429285 0.33084,-0.661679 v -0.0033 c 0.07585,-0.234009 0.117812,-0.476087 0.125885,-0.723005 v -0.0033 c 0.01451,-0.492224 -0.112968,-0.99413 -0.397006,-1.442782 -0.471245,-0.748826 -1.281398,-1.197476 -2.169015,-1.197476 v 0 0 c -0.242078,0 -0.482542,0.03389 -0.713321,0.100069 h -0.0016 c -0.23078,0.06778 -0.451879,0.167847 -0.656838,0.29695 -0.146856,0.09198 -0.280808,0.198502 -0.403462,0.314699 -0.121023,0.116197 -0.23078,0.242076 -0.327611,0.377641 -0.192049,0.274354 -0.3308399,0.585828 -0.4066909,0.92151 -0.111354,0.501906 -0.07102,1.013496 0.1113529,1.481514 0.0597,0.15493 0.133939,0.30663 0.225937,0.450265 0.235622,0.372799 0.55678,0.671361 0.929579,0.87632 0.187207,0.10328 0.387324,0.182363 0.597125,0.2356223 0.206573,0.05326 0.424441,0.08231 0.645541,0.08231 0.253373,0 0.50352,-0.04196 0.743984,-0.1129683 0.248531,0.2969503 0.51159,0.5567783 0.781104,0.7875593 0.271127,0.23078 0.545481,0.432513 0.826292,0.605194 0.140398,0.08715 0.280808,0.146857 0.422828,0.221098 0.138802,0.07262 0.280811,0.159755 0.417987,0.221097 0.277581,0.122637 0.550323,0.224327 0.813382,0.305017 -0.847272,0.650383 -1.594484,1.917256 -2.240027,2.821012 -0.166213,-0.03712 -0.33568,-0.0597 -0.505134,-0.06616 -0.169461,-0.0064 -0.337294,0.0047 -0.503522,0.03227 h -0.0033 c -0.166213,0.02582 -0.33084,0.06778 -0.488998,0.125885 -0.159774,0.05811 -0.3147,0.130728 -0.459947,0.222712 -0.450262,0.28565 -0.781104,0.687498 -0.981221,1.140992 -0.198502,0.455106 -0.263057,0.96024 -0.182365,1.454079 0.05486,0.329225 0.172672,0.651995 0.363116,0.952172 0.474472,0.748825 1.287852,1.197476 2.173857,1.197476 0.487384,0 0.963469,-0.138801 1.375001,-0.400235 0.150086,-0.09522 0.284038,-0.203344 0.40669,-0.321156 0.243693,-0.235621 0.43574,-0.513205 0.566461,-0.81338 0.06778,-0.153314 0.119427,-0.308246 0.15493,-0.469632 0.0355,-0.159755 0.05811,-0.324383 0.06295,-0.488997 v -0.0033 c 0.0047,-0.164617 -0.0047,-0.327612 -0.03066,-0.492224 v -0.0033 c -0.05486,-0.329225 -0.174287,-0.651993 -0.363117,-0.950556 -0.0484,-0.07908 -0.103281,-0.1517 -0.161388,-0.224326 0.4777,-0.653611 1.019953,-1.712294 1.623534,-2.206133 0.301789,-0.24692 0.618103,-0.476085 0.948943,-0.681044 0.332454,-0.206573 0.679431,-0.387326 1.040934,-0.551937 0.0016,-0.0016 0.0033,-0.0016 0.0064,-0.0033 0.669749,-0.303404 1.331428,-0.514819 1.954374,-0.655223 2.628963,-0.413146 4.315436,-0.97638 7.19293,-0.756896 1.236211,0.09038 1.991474,-0.08715 3.18895,1.140991 z M 12.424798,6.6407907 c -0.166214,0 -0.330838,0.05003 -0.47286,0.138801 -0.100051,0.06293 -0.185592,0.143627 -0.25176,0.238851 -0.06616,0.09361 -0.116197,0.200117 -0.142013,0.314701 v 0.0033 0.0063 c -0.0484,0.227552 -0.0098,0.458334 0.116197,0.655223 0.125885,0.200119 0.332451,0.334067 0.555163,0.385709 0.222712,0.04842 0.464789,0.01778 0.668135,-0.111353 l 0.04035,-0.0242 c 0.193662,-0.137169 0.314701,-0.335682 0.356659,-0.551937 0.04035,-0.214641 0.0033,-0.44381 -0.122655,-0.643926 -0.163003,-0.256603 -0.44058,-0.411532 -0.747212,-0.411532 z m 1.174883,9.9058133 c -0.167847,0 -0.332455,0.04519 -0.472858,0.132343 -0.103299,0.06616 -0.185595,0.151701 -0.251761,0.246917 -0.06616,0.09361 -0.112968,0.200118 -0.138801,0.311475 -0.0484,0.222711 -0.01288,0.46156 0.117811,0.668135 0.163003,0.259828 0.445425,0.413144 0.752056,0.413144 0.167847,0 0.327611,-0.0468 0.469629,-0.135554 0.10328,-0.06616 0.190434,-0.1517 0.256604,-0.245305 0.06457,-0.09523 0.109739,-0.200117 0.135554,-0.309859 v -0.0033 c 0.0242,-0.111353 0.02745,-0.225939 0.0082,-0.340522 -0.01778,-0.112968 -0.05649,-0.224325 -0.122637,-0.327611 -0.07102,-0.111353 -0.166214,-0.20496 -0.284038,-0.277583 -0.140398,-0.08715 -0.30179,-0.132343 -0.469631,-0.132343 z"
     fill-rule="evenodd"
     fill="url(#_lgradient_6)"
     id="path2"
     style="display:inline;fill:url(#linearGradient25);stroke-width:1.61385"
     sodipodi:nodetypes="ccccccccccccccscsccccccccccscccccccscccccccsccccccccccscccccccscccccccccccssccccscccccccs" />
  <g
     id="g11"
     transform="matrix(0.97523614,0,0,0.97523614,0.59429552,-1.7084342)"
     style="display:none">
    <path
       d="m 12.497494,13.722869 v 0 c -0.944,0.678 -2.259,0.464 -2.9340002,-0.477 v 0 c -0.674,-0.942 -0.456,-2.256 0.4880002,-2.934 v 0 l 12.065,-7.0899999 c 0.998,-0.587 2.624,-0.594 3.627,-0.014 l 18.14,10.4729999 c 1.004,0.579 1.82527,1.990023 1.818,3.148 l -0.06008,9.569646 c 2e-6,-0.01468 -4.13792,-1.01903 -4.13792,-1.01903 v -8.224616 l -17.326,-10.0009999 z"
       fill-rule="evenodd"
       fill="url(#_lgradient_6)"
       id="path10"
       style="display:inline;isolation:isolate;fill:url(#linearGradient15)"
       sodipodi:nodetypes="cssssccccsccccc" />
    <path
       d="m 29.739511,10.459922 v 0 c -0.990005,-0.602 -1.310006,-1.896 -0.714004,-2.8859998 v 0 c 0.597003,-0.99 1.885009,-1.31 2.876014,-0.714 v 0 l 11.967054,6.6709998 c 1.011005,0.564 1.833009,1.962 1.833009,3.121 v 15.136 c 0,1.158 -0.940004,2.115 -2.09901,2.135 v 0 c -1.158005,0.021 -2.099009,-0.903 -2.099009,-2.062 v -14.947 z"
       fill-rule="evenodd"
       fill="url(#_lgradient_6)"
       id="path11"
       style="display:inline;fill:url(#linearGradient11);stroke-width:0.999999"
       sodipodi:nodetypes="cssssccssssscc" />
  </g>
  <g
     id="g13"
     transform="matrix(-0.97523614,0,0,-0.97523614,47.405704,49.708434)"
     style="display:none">
    <path
       d="m 12.497494,13.722869 v 0 c -0.944,0.678 -2.259,0.464 -2.9340002,-0.477 v 0 c -0.674,-0.942 -0.456,-2.256 0.4880002,-2.934 v 0 l 12.065,-7.0899999 c 0.998,-0.587 2.624,-0.594 3.627,-0.014 l 18.14,10.4729999 c 1.004,0.579 1.82527,1.990023 1.818,3.148 l -0.06008,9.569646 c 2e-6,-0.01468 -4.13792,-1.01903 -4.13792,-1.01903 v -8.224616 l -17.326,-10.0009999 z"
       fill-rule="evenodd"
       fill="url(#_lgradient_6)"
       id="path12"
       style="display:inline;isolation:isolate;fill:url(#linearGradient13)"
       sodipodi:nodetypes="cssssccccsccccc" />
    <path
       d="m 29.739511,10.459922 v 0 c -0.990005,-0.602 -1.310006,-1.896 -0.714004,-2.8859998 v 0 c 0.597003,-0.99 1.885009,-1.31 2.876014,-0.714 v 0 l 11.967054,6.6709998 c 1.011005,0.564 1.833009,1.962 1.833009,3.121 v 15.136 c 0,1.158 -0.940004,2.115 -2.09901,2.135 v 0 c -1.158005,0.021 -2.099009,-0.903 -2.099009,-2.062 v -14.947 z"
       fill-rule="evenodd"
       fill="url(#_lgradient_6)"
       id="path13"
       style="display:inline;fill:url(#linearGradient14);stroke-width:0.999999"
       sodipodi:nodetypes="cssssccssssscc" />
  </g>
</svg>
