<?xml version="1.0" encoding="UTF-8" standalone="no"?>
<svg
   width="22"
   height="22"
   version="1.1"
   id="svg3"
   sodipodi:docname="battery-060-charging.svg"
   inkscape:version="1.4 (e7c3feb100, 2024-10-09)"
   xmlns:inkscape="http://www.inkscape.org/namespaces/inkscape"
   xmlns:sodipodi="http://sodipodi.sourceforge.net/DTD/sodipodi-0.dtd"
   xmlns="http://www.w3.org/2000/svg"
   xmlns:svg="http://www.w3.org/2000/svg">
  <sodipodi:namedview
     id="namedview3"
     pagecolor="#505050"
     bordercolor="#ffffff"
     borderopacity="1"
     inkscape:showpageshadow="0"
     inkscape:pageopacity="0"
     inkscape:pagecheckerboard="1"
     inkscape:deskcolor="#505050"
     inkscape:zoom="32.173359"
     inkscape:cx="12.541432"
     inkscape:cy="13.567126"
     inkscape:current-layer="svg3" />
  <defs
     id="defs1">
    <style
       id="current-color-scheme"
       type="text/css">.ColorScheme-Text {
                color:#dddddd;
            }</style>
  </defs>
  <g
     class="ColorScheme-Text"
     transform="translate(1,3)"
     fill="currentColor"
     id="g3">
    <path
       d="m2.5977 5c-0.33107 0-0.59766 0.26659-0.59766 0.59766v4.8047c0 0.33107 0.26659 0.59766 0.59766 0.59766h4.3711l0.25-1h-1.7188c-0.79859-1.712e-4 -1.2749-0.89013-0.83203-1.5547l2.2969-3.4453zm7.3477 0.34766-0.16406 0.65234h0.21875v-0.40234c0-0.089564-0.019674-0.17388-0.054687-0.25z"
       stroke-width="1.069"
       id="path1" />
    <path
       d="m8.834 4-3.334 5h3l-0.75 3h0.416l3.334-5h-3l0.75-3z"
       color="#dddddd"
       fill="#dddddd"
       stroke-linecap="round"
       stroke-linejoin="round"
       style="-inkscape-stroke:none"
       id="path2" />
    <path
       d="M 2,2 C 0.892,2 -1,3.892 -1,5 v 6 c 0,1.108 1.892,3 3,3 h 13 c 1.108,0 3,-1.892 3,-3 V 5 C 18,3.892 16.108,2 15,2 Z m 0,2 h 13 c 0.554,0 1,0.446 1,1 v 6 c 0,0.554 -0.446,1 -1,1 H 2 C 1.446,12 1,11.554 1,11 V 5 C 1,4.446 1.446,4 2,4 Z m 17,2 v 4 c 1.104569,0 2,-0.8954305 2,-2 0,-1.1045695 -0.895431,-2 -2,-2 z"
       id="path3"
       sodipodi:nodetypes="ssssssssssssssssssccsc" />
  </g>
</svg>
