<?xml version="1.0" encoding="UTF-8" standalone="no"?>
<svg
   width="22"
   height="22"
   version="1.1"
   id="svg1"
   sodipodi:docname="battery-caution.svg"
   inkscape:version="1.4 (e7c3feb100, 2024-10-09)"
   xmlns:inkscape="http://www.inkscape.org/namespaces/inkscape"
   xmlns:sodipodi="http://sodipodi.sourceforge.net/DTD/sodipodi-0.dtd"
   xmlns:xlink="http://www.w3.org/1999/xlink"
   xmlns="http://www.w3.org/2000/svg"
   xmlns:svg="http://www.w3.org/2000/svg">
  <sodipodi:namedview
     id="namedview1"
     pagecolor="#505050"
     bordercolor="#ffffff"
     borderopacity="1"
     inkscape:showpageshadow="0"
     inkscape:pageopacity="0"
     inkscape:pagecheckerboard="1"
     inkscape:deskcolor="#505050"
     inkscape:zoom="45.254834"
     inkscape:cx="9.5569901"
     inkscape:cy="9.7337668"
     inkscape:current-layer="svg1" />
  <defs
     id="defs1">
    <linearGradient
       id="linearGradient6"
       inkscape:collect="always">
      <stop
         style="stop-color:#ff69ff;stop-opacity:1;"
         offset="0"
         id="stop6" />
      <stop
         style="stop-color:#9033dd;stop-opacity:1;"
         offset="1"
         id="stop5" />
    </linearGradient>
    <linearGradient
       id="linearGradient5"
       inkscape:collect="always">
      <stop
         style="stop-color:#ff69ff;stop-opacity:1;"
         offset="0"
         id="stop4" />
      <stop
         style="stop-color:#9033dd;stop-opacity:1;"
         offset="1"
         id="stop3" />
    </linearGradient>
    <linearGradient
       id="linearGradient1"
       inkscape:collect="always">
      <stop
         style="stop-color:#9033dd;stop-opacity:1;"
         offset="0"
         id="stop1" />
      <stop
         style="stop-color:#ff69ff;stop-opacity:1;"
         offset="1"
         id="stop2" />
    </linearGradient>
    <style
       id="current-color-scheme"
       type="text/css">
   .ColorScheme-Text { color:#dddddd; }
   .ColorScheme-Highlight { color:#4285f4; }
   .ColorScheme-NegativeText { color:#da4453; }
  </style>
    <linearGradient
       inkscape:collect="always"
       xlink:href="#linearGradient1"
       id="linearGradient2"
       x1="5.6703296"
       y1="13"
       x2="20"
       y2="8"
       gradientUnits="userSpaceOnUse" />
    <linearGradient
       inkscape:collect="always"
       xlink:href="#linearGradient5"
       id="linearGradient3"
       gradientUnits="userSpaceOnUse"
       x1="-1"
       y1="14"
       x2="8.5"
       y2="2" />
    <linearGradient
       inkscape:collect="always"
       xlink:href="#linearGradient6"
       id="linearGradient4"
       gradientUnits="userSpaceOnUse"
       x1="-1"
       y1="14"
       x2="8.5"
       y2="2" />
  </defs>
  <g
     transform="translate(1,3)"
     class="ColorScheme-Text"
     fill="currentColor"
     id="g1">
    <rect
       x="2"
       y="5"
       width="3"
       height="6"
       rx=".505"
       ry=".546"
       id="rect1" />
    <path
       d="M 2,2 C 0.892,2 -1,3.892 -1,5 v 6 c 0,1.108 1.892,3 3,3 h 13 c 1.108,0 3,-1.892 3,-3 V 5 C 18,3.892 16.108,2 15,2 Z m 0,2 h 13 c 0.554,0 1,0.446 1,1 v 6 c 0,0.554 -0.446,1 -1,1 H 2 C 1.446,12 1,11.554 1,11 V 5 C 1,4.446 1.446,4 2,4 Z m 17,2 v 4 c 1.104569,0 2,-0.8954305 2,-2 0,-1.1045695 -0.895431,-2 -2,-2 z"
       id="path1"
       sodipodi:nodetypes="ssssssssssssssssssccsc" />
  </g>
</svg>
