<?xml version="1.0" encoding="UTF-8" standalone="no"?>
<svg
   width="22"
   height="22"
   version="1.1"
   id="svg2"
   sodipodi:docname="battery-empty-charging.svg"
   inkscape:version="1.4 (e7c3feb100, 2024-10-09)"
   xmlns:inkscape="http://www.inkscape.org/namespaces/inkscape"
   xmlns:sodipodi="http://sodipodi.sourceforge.net/DTD/sodipodi-0.dtd"
   xmlns="http://www.w3.org/2000/svg"
   xmlns:svg="http://www.w3.org/2000/svg">
  <sodipodi:namedview
     id="namedview2"
     pagecolor="#505050"
     bordercolor="#ffffff"
     borderopacity="1"
     inkscape:showpageshadow="0"
     inkscape:pageopacity="0"
     inkscape:pagecheckerboard="1"
     inkscape:deskcolor="#505050"
     inkscape:zoom="32.173359"
     inkscape:cx="8.4075773"
     inkscape:cy="10.427882"
     inkscape:current-layer="svg2" />
  <defs
     id="defs1">
    <style
       id="current-color-scheme"
       type="text/css">
   .ColorScheme-Text { color:#f2f2f2; } .ColorScheme-Highlight { color:#4285f4; }
  </style>
  </defs>
  <g
     transform="translate(-1,-1)"
     class="ColorScheme-Text"
     fill="currentColor"
     id="g2">
    <path
       d="M 4,6 C 2.892,6 1,7.892 1,9 v 6 c 0,1.108 1.892,3 3,3 h 13 c 1.108,0 3,-1.892 3,-3 V 9 C 20,7.892 18.108,6 17,6 Z m 0,2 h 13 c 0.554,0 1,0.446 1,1 v 6 c 0,0.554 -0.446,1 -1,1 H 4 C 3.446,16 3,15.554 3,15 V 9 C 3,8.446 3.446,8 4,8 Z m 17,2 v 4 c 1.104569,0 2,-0.895431 2,-2 0,-1.104569 -0.895431,-2 -2,-2 z"
       id="path1"
       sodipodi:nodetypes="ssssssssssssssssssccsc" />
    <path
       d="m10.834 8-3.334 5h3l-0.75 3h0.416l3.334-5h-3l0.75-3z"
       id="path2" />
  </g>
</svg>
