<?xml version="1.0" encoding="UTF-8" standalone="no"?>
<svg
   width="128"
   height="128"
   viewBox="0 0 128 128"
   fill="none"
   version="1.1"
   id="svg2"
   sodipodi:docname="network-bluetooth-symbolic.svg"
   inkscape:version="1.4 (e7c3feb100, 2024-10-09)"
   xmlns:inkscape="http://www.inkscape.org/namespaces/inkscape"
   xmlns:sodipodi="http://sodipodi.sourceforge.net/DTD/sodipodi-0.dtd"
   xmlns="http://www.w3.org/2000/svg"
   xmlns:svg="http://www.w3.org/2000/svg">
  <sodipodi:namedview
     id="namedview2"
     pagecolor="#ffffff"
     bordercolor="#666666"
     borderopacity="1.0"
     inkscape:showpageshadow="2"
     inkscape:pageopacity="0.0"
     inkscape:pagecheckerboard="0"
     inkscape:deskcolor="#d1d1d1"
     inkscape:zoom="6.4765626"
     inkscape:cx="58.595898"
     inkscape:cy="74.731"
     inkscape:current-layer="svg2" />
  <style
     type="text/css"
     id="current-color-scheme">.ColorScheme-Text{color:#dddddd;}.ColorScheme-Background{color:#1a1a1a;}.ColorScheme-Highlight{color:#aaaaac30;}.ColorScheme-ViewText{color:#dddddd;}.ColorScheme-ViewBackground{color:#1a1a1a01;}.ColorScheme-ViewHover{color:#aaaaac30;}.ColorScheme-ViewFocus{color:#aaaaac30;}.ColorScheme-ButtonText{color:#bbbbbb;}.ColorScheme-ButtonBackground{color:#aaaaac20;}.ColorScheme-ButtonHover{color:#aaaaac30;}.ColorScheme-ButtonFocus{color:#aaaaac30;}.ColorScheme-NegativeText { color: #8500ff; } </style>
  <path
     class="ColorScheme-Text"
     id="path1"
     style="display:inline;fill:currentColor;fill-opacity:1;stroke-width:1.72152;stroke-dasharray:none"
     d="m 62.467094,8.00703 c -2.407982,0.0985 -4.556088,2.321138 -4.294073,4.77574 V 55.7867 L 33.784506,32.885857 c -2.176708,-1.226195 -5.233996,-0.137333 -6.104876,2.215904 -0.883648,2.042136 0.103695,4.570517 2.057902,5.586388 l 24.91921,23.281597 -25.712761,23.838289 c -1.979274,1.55248 -2.116806,4.816828 -0.259265,6.520105 1.543493,1.545088 4.193166,1.621962 5.868704,0.241831 L 58.173021,72.156842 c 0.0067,14.561978 -0.0135,29.124458 0.01016,43.686108 0.222472,2.7661 3.425737,5.05515 6.058929,3.80821 2.062229,-1.16289 5.958602,-3.87905 5.958602,-3.87905 L 98.935558,93.268695 c 2.077502,-1.48422 2.304882,-4.810926 0.45192,-6.566489 -1.604736,-1.315922 -5.134182,-3.531537 -5.134182,-3.531537 L 70.45164,63.969746 99.024518,41.563524 c 2.024582,-1.528271 2.180272,-4.826291 0.3161,-6.54434 -1.775481,-1.394426 -5.598893,-3.824005 -5.598893,-3.824005 L 64.703253,8.519484 C 64.024023,8.141801 63.243363,7.9610368 62.467094,8.00703 Z m 7.692874,14.662641 18.22469,15.482971 -21.449297,17.632033 V 20.520609 Z m 0,51.634208 18.22469,15.484997 L 66.935361,107.4209 V 72.152791 Z"
     sodipodi:nodetypes="ccccccccccccccccccccccccccccccccc" />
  <defs
     id="defs2">
    <linearGradient
       id="paint0_linear"
       x1="46.014931"
       y1="92.765671"
       x2="82.381439"
       y2="64.137291"
       gradientUnits="userSpaceOnUse"
       gradientTransform="matrix(1.7211789,0,0,1.7211789,-46.146837,-46.391751)">
      <stop
         id="stop1"
         offset="0"
         style="stop-color:#00f1fa;stop-opacity:1;" />
      <stop
         offset="1"
         id="stop2"
         style="stop-color:#006cff;stop-opacity:1;" />
    </linearGradient>
    <linearGradient
       id="_lgradient_3"
       x1="0"
       y1="0.5"
       x2="0.90748805"
       y2="0.92007786">
      <stop
         offset="0%"
         stop-opacity="1"
         style="stop-color:rgb(0,196,255)"
         id="stop9" />
      <stop
         offset="83.88839793817618%"
         stop-opacity="1"
         style="stop-color:rgb(0,114,255)"
         id="stop11" />
    </linearGradient>
  </defs>
</svg>
