<?xml version="1.0" encoding="UTF-8" standalone="no"?>
<svg
   width="23"
   height="22"
   viewBox="0 0 23 22"
   fill="none"
   version="1.1"
   id="svg2"
   sodipodi:docname="network-wired-unavailable-symbolic.svg"
   inkscape:version="1.3.2 (091e20ef0f, 2023-11-25, custom)"
   xmlns:inkscape="http://www.inkscape.org/namespaces/inkscape"
   xmlns:sodipodi="http://sodipodi.sourceforge.net/DTD/sodipodi-0.dtd"
   xmlns="http://www.w3.org/2000/svg"
   xmlns:svg="http://www.w3.org/2000/svg">
  <sodipodi:namedview
     id="namedview2"
     pagecolor="#505050"
     bordercolor="#ffffff"
     borderopacity="1"
     inkscape:showpageshadow="0"
     inkscape:pageopacity="0"
     inkscape:pagecheckerboard="1"
     inkscape:deskcolor="#505050"
     inkscape:zoom="26.039976"
     inkscape:cx="4.6275004"
     inkscape:cy="10.791101"
     inkscape:current-layer="svg2" />
  <style
    type="text/css"
    id="current-color-scheme">.ColorScheme-Text{color:#dddddd;}.ColorScheme-Background{color:#1a1a1a;}.ColorScheme-Highlight{color:#aaaaac30;}.ColorScheme-ViewText{color:#dddddd;}.ColorScheme-ViewBackground{color:#1a1a1a01;}.ColorScheme-ViewHover{color:#aaaaac30;}.ColorScheme-ViewFocus{color:#aaaaac30;}.ColorScheme-ButtonText{color:#bbbbbb;}.ColorScheme-ButtonBackground{color:#aaaaac20;}.ColorScheme-ButtonHover{color:#aaaaac30;}.ColorScheme-ButtonFocus{color:#aaaaac30;}.ColorScheme-NegativeText { color: #8500ff; } </style>
  <path
    class="ColorScheme-Text"
     d="M3.34375 2.75C3.34375 2.75 1.96875 2.75 1.96875 4.125V16.5C1.96875 17.875 3.34375 17.875 3.34375 17.875H6.09375L7.46875 19.25H15.7188L17.0938 17.875H19.8438C19.8438 17.875 21.2188 18.0537 21.2188 16.5V4.125C21.2188 2.75 19.8438 2.75 19.8438 2.75H3.34375ZM4.71875 5.5H18.4688V15.125H15.7188L14.3438 16.5H8.84375L7.46875 15.125H4.71875V5.5Z"
     fill="url(#paint0_linear_451_1612)"
     id="path1"
     style="fill:currentColor;fill-opacity:1" />
  <defs
     id="defs2">
    <linearGradient
       id="paint0_linear_451_1612"
       x1="3.5048497"
       y1="19.25"
       x2="21.2188"
       y2="10.3125"
       gradientUnits="userSpaceOnUse">
      <stop
         id="stop1"
         offset="0"
         style="stop-color:#f1fa00;stop-opacity:1;" />
      <stop
         offset="1"
         id="stop2"
         style="stop-color:#ff6900;stop-opacity:1;" />
    </linearGradient>
  </defs>
  <path
     inkscape:connector-curvature="0"
     d="m 9.6118558,7.4620435 4.9261262,4.9261615 c 0.294579,0.294581 0.280286,0.790957 -0.03177,1.103094 l -0.01501,0.0149 c -0.31214,0.312143 -0.808403,0.326433 -1.103003,0.03177 L 8.4620149,8.6118282 C 8.1673252,8.3172279 8.1816168,7.8208756 8.4937804,7.5087998 l 0.014984,-0.014984 C 8.8209048,7.1816754 9.3171896,7.167383 9.6118549,7.46205"
     style="fill:#dddddd;fill-opacity:1;fill-rule:evenodd;stroke:none;stroke-width:0.022202"
     id="path20-2"
     sodipodi:nodetypes="cccccccsc" />
  <path
     inkscape:connector-curvature="0"
     d="M 14.537981,8.6118371 9.61182,13.537966 C 9.3172392,13.832542 8.820865,13.81825 8.5087257,13.506201 L 8.493839,13.491208 C 8.1816973,13.179067 8.1674097,12.682806 8.4620816,12.388205 L 13.38822,7.4620158 c 0.294598,-0.2946897 0.790953,-0.2804005 1.103027,0.031765 l 0.01499,0.014992 c 0.312139,0.3121392 0.326429,0.8084191 0.03176,1.1030877"
     style="fill:#dddddd;fill-opacity:1;fill-rule:evenodd;stroke:none;stroke-width:0.0222019"
     id="path1-6"
     sodipodi:nodetypes="cccccccsc" />
</svg>
