<?xml version="1.0" encoding="UTF-8" standalone="no"?>
<!-- Generator: Gravit.io -->

<svg
   style="isolation:isolate"
   viewBox="0 0 48 48"
   width="48pt"
   height="48pt"
   version="1.1"
   id="svg3"
   sodipodi:docname="application-json.svg"
   inkscape:version="1.3.2 (091e20ef0f, 2023-11-25, custom)"
   xmlns:inkscape="http://www.inkscape.org/namespaces/inkscape"
   xmlns:sodipodi="http://sodipodi.sourceforge.net/DTD/sodipodi-0.dtd"
   xmlns:xlink="http://www.w3.org/1999/xlink"
   xmlns="http://www.w3.org/2000/svg"
   xmlns:svg="http://www.w3.org/2000/svg">
  <defs
     id="defs3">
    <linearGradient
       id="linearGradient1"
       inkscape:collect="always">
      <stop
         style="stop-color:#e5f230;stop-opacity:1;"
         offset="0"
         id="stop11" />
      <stop
         style="stop-color:#24d864;stop-opacity:1;"
         offset="1"
         id="stop13" />
    </linearGradient>
    <linearGradient
       id="linearGradient14"
       x1="0.50555557"
       y1="-0.047222223"
       x2="0.50555557"
       y2="0.96764994"
       gradientTransform="matrix(45,0,0,45,3.044823,0.096004)"
       gradientUnits="userSpaceOnUse">
      <stop
         offset="0"
         stop-opacity="1"
         style="stop-color:#f069ff;stop-opacity:1;"
         id="stop12" />
      <stop
         offset="1"
         stop-opacity="1"
         style="stop-color:#9000ff;stop-opacity:1;"
         id="stop14" />
    </linearGradient>
    <linearGradient
       inkscape:collect="always"
       xlink:href="#linearGradient14"
       id="linearGradient20"
       x1="9.4280005"
       y1="46"
       x2="43.504002"
       y2="24"
       gradientUnits="userSpaceOnUse" />
    <linearGradient
       inkscape:collect="always"
       xlink:href="#linearGradient14"
       id="linearGradient22"
       x1="9.4280005"
       y1="46"
       x2="43.504002"
       y2="24"
       gradientUnits="userSpaceOnUse" />
    <linearGradient
       inkscape:collect="always"
       xlink:href="#linearGradient1"
       id="linearGradient21"
       x1="12.854181"
       y1="48"
       x2="45.277092"
       y2="24"
       gradientUnits="userSpaceOnUse" />
    <linearGradient
       inkscape:collect="always"
       xlink:href="#linearGradient1"
       id="linearGradient24"
       x1="12.854181"
       y1="48"
       x2="45.277092"
       y2="24"
       gradientUnits="userSpaceOnUse" />
  </defs>
  <sodipodi:namedview
     id="namedview3"
     pagecolor="#ffffff"
     bordercolor="#666666"
     borderopacity="1.0"
     inkscape:showpageshadow="2"
     inkscape:pageopacity="0.0"
     inkscape:pagecheckerboard="0"
     inkscape:deskcolor="#d1d1d1"
     inkscape:document-units="pt"
     inkscape:zoom="6.6180775"
     inkscape:cx="-7.7061654"
     inkscape:cy="35.735453"
     inkscape:current-layer="svg3" />
  <linearGradient
     id="_lgradient_2"
     x1="0.23807324"
     y1="1"
     x2="0.99997437"
     y2="0.5"
     gradientTransform="matrix(42.555273,0,0,48,2.7229091,0)"
     gradientUnits="userSpaceOnUse"
     spreadMethod="pad">
    <stop
       offset="0"
       stop-opacity="1"
       style="stop-color:#e5f230;stop-opacity:1;"
       id="stop1" />
    <stop
       offset="1"
       stop-opacity="1"
       style="stop-color:#24d864;stop-opacity:1;"
       id="stop3" />
  </linearGradient>
  <path
     d="m 8.1032731,0 c -2.969455,0 -5.380364,2.410909 -5.380364,5.380364 v 22.048364 0 c 0,1.26109 0.907636,2.285454 2.025818,2.285454 v 0 c 1.118182,0 2.026909,-1.024364 2.026909,-2.285454 v 0 0 0 V 7.8 c 0,-1.782545 1.446546,-3.729 3.2280009,-3.729 h 27.992726 c 1.781456,0 3.228,1.946455 3.228,3.729 v 3.628364 0 c 0,1.262182 0.908728,2.285454 2.02691,2.285454 v 0 c 1.118182,0 2.025818,-1.023272 2.025818,-2.285454 v 0 -6.048 C 45.277091,2.410909 42.866181,0 39.896727,0 Z m 4.9393129,43.928955 c 0.737617,0.0049 1.838505,0.523409 1.838505,1.785591 v 0 C 14.881091,46.975636 13.973455,48 12.854181,48 v 0 H 8.1032731 c -2.969455,0 -5.380364,-2.41091 -5.380364,-5.380364 v -6.048 0 c 0,-1.262182 0.907636,-2.285454 2.025818,-2.285454 v 0 c 1.118182,0 2.026909,1.023272 2.026909,2.285454 v 0 V 40.2 c 0,1.782546 1.446546,3.729045 3.2280009,3.729045 1.012711,0.0042 2.301332,-0.005 3.038949,-9e-5 z M 41.224363,21.714546 v 0 c 0,-1.262182 0.908728,-2.285456 2.02691,-2.285456 v 0 c 1.118182,0 2.025818,1.023274 2.025818,2.285456 v 0 20.90509 C 45.277091,45.58909 42.866181,48 39.896727,48 H 21.973091 v 0 c -1.118182,0 -2.025818,-1.024364 -2.025818,-2.285454 v 0 c 0,-1.262182 2.025818,-1.785501 2.025818,-1.785501 v 0 h 16.023272 c 1.781456,0 3.228,-1.946499 3.228,-3.729045 z"
     fill-rule="evenodd"
     id="path3"
     sodipodi:nodetypes="sscsssscccsssscsssscssszssscsscsssscsszscsssscsscsssscss"
     style="fill:url(#_lgradient_2);stroke-width:1.0909" />
  <path
     d="m 18.190143,13.991893 c -7.67244,4.423242 -7.67244,15.597328 0,20.020552 7.672529,4.423224 17.362012,-1.162575 17.362012,-10.010267 0,-6.635814 -5.450301,-11.436724 -11.505539,-11.557533 -2.021791,-0.0081 -3.998239,0.476054 -5.856473,1.547248 z m 12.092196,4.853028 c 1.301984,4.822959 -0.566884,9.36212 -4.944053,10.342253 3.421753,-2.576761 2.78961,-7.276848 1.033834,-9.438938 -2.375649,-2.96885 -6.112317,-2.058955 -8.141701,0.111137 -3.047606,3.526665 -2.26382,9.653742 0.492218,13.059313 -6.730964,-4.092838 -6.83922,-13.877098 0.03864,-17.842263 4.420254,-2.682119 9.578578,-1.711285 11.521062,3.768498 z m 0.876821,6.788026 c 1.415788,-3.582145 0.479042,-8.102279 -2.105543,-10.728474 3.115016,1.734259 5.312314,5.028872 5.35499,9.097705 0.07184,6.827324 -8.641424,13.415127 -13.698035,8.610661 -5.061502,-4.809089 -3.737469,-13.022683 1.920079,-13.74818 -4.197057,3.561339 -2.309857,9.850408 1.310519,11.001424 3.271496,1.040058 6.210473,-1.683937 7.21799,-4.233314 z m -7.230971,-6.3762 c 3.743248,1.83526 3.50266,7.811369 -0.09976,9.475391 -3.711596,-2.532841 -2.85718,-7.685296 0.09976,-9.475391 z"
     stroke-width="0.88909"
     id="path2"
     style="fill:url(#linearGradient21);fill-opacity:1;stroke:url(#linearGradient24);stroke-opacity:1" />
</svg>
