<?xml version="1.0" encoding="UTF-8" standalone="no"?>
<!-- Generator: Gravit.io -->

<svg
   style="isolation:isolate"
   viewBox="0 0 48 48"
   width="48pt"
   height="48pt"
   version="1.1"
   id="svg3"
   sodipodi:docname="audio-x-generic.svg"
   inkscape:version="1.3.2 (091e20ef0f, 2023-11-25, custom)"
   xmlns:inkscape="http://www.inkscape.org/namespaces/inkscape"
   xmlns:sodipodi="http://sodipodi.sourceforge.net/DTD/sodipodi-0.dtd"
   xmlns:xlink="http://www.w3.org/1999/xlink"
   xmlns="http://www.w3.org/2000/svg"
   xmlns:svg="http://www.w3.org/2000/svg">
  <defs
     id="defs3">
    <linearGradient
       id="paint0_linear"
       x1="28.720425"
       y1="181.73232"
       x2="159.04659"
       y2="23.976463"
       gradientUnits="userSpaceOnUse"
       gradientTransform="matrix(0.13018766,0,0,0.13018766,10.54731,11.479108)">
      <stop
         id="stop4-3"
         style="stop-color:#b900ff;stop-opacity:1;"
         offset="0" />
      <stop
         offset="1"
         id="stop6-6"
         style="stop-color:#6444ff;stop-opacity:1;" />
    </linearGradient>
  </defs>
  <sodipodi:namedview
     id="namedview3"
     pagecolor="#ffffff"
     bordercolor="#666666"
     borderopacity="1.0"
     inkscape:showpageshadow="2"
     inkscape:pageopacity="0.0"
     inkscape:pagecheckerboard="0"
     inkscape:deskcolor="#d1d1d1"
     inkscape:document-units="pt"
     inkscape:zoom="6.6180775"
     inkscape:cx="24.100655"
     inkscape:cy="18.207705"
     inkscape:current-layer="svg3" />
  <linearGradient
     id="_lgradient_2"
     x1="0.87354201"
     y1="1"
     x2="0"
     y2="0.5"
     gradientTransform="matrix(-42.555273,0,0,48,45.277091,0)"
     gradientUnits="userSpaceOnUse"
     spreadMethod="pad">
    <stop
       offset="0"
       stop-opacity="1"
       style="stop-color:#b900ff;stop-opacity:1;"
       id="stop1" />
    <stop
       offset="1"
       stop-opacity="1"
       style="stop-color:#6444ff;stop-opacity:1;"
       id="stop3" />
  </linearGradient>
  <path
     d="m 39.896727,0 c 2.969455,0 5.380364,2.410909 5.380364,5.380364 v 22.048364 0 c 0,1.26109 -0.907636,2.285454 -2.025818,2.285454 v 0 c -1.118182,0 -2.026909,-1.024364 -2.026909,-2.285454 v 0 0 0 V 7.8 c 0,-1.782545 -1.446546,-3.729 -3.228001,-3.729 H 10.003637 C 8.2221813,4.071 6.7756373,6.017455 6.7756373,7.8 v 3.628364 0 c 0,1.262182 -0.908728,2.285454 -2.02691,2.285454 v 0 c -1.118182,0 -2.025818,-1.023272 -2.025818,-2.285454 v 0 -6.048 C 2.7229093,2.410909 5.1338193,0 8.1032733,0 Z m -4.939313,43.928955 c -0.737617,0.0049 -1.838505,0.523409 -1.838505,1.785591 v 0 c 0,1.26109 0.907636,2.285454 2.02691,2.285454 v 0 h 4.750908 c 2.969455,0 5.380364,-2.41091 5.380364,-5.380364 v -6.048 0 c 0,-1.262182 -0.907636,-2.285454 -2.025818,-2.285454 v 0 c -1.118182,0 -2.026909,1.023272 -2.026909,2.285454 v 0 V 40.2 c 0,1.782546 -1.446546,3.729045 -3.228001,3.729045 -1.012711,0.0042 -2.301332,-0.005 -3.038949,-9e-5 z M 6.7756373,21.714546 v 0 c 0,-1.262182 -0.908728,-2.285456 -2.02691,-2.285456 v 0 c -1.118182,0 -2.025818,1.023274 -2.025818,2.285456 v 0 20.90509 C 2.7229093,45.58909 5.1338193,48 8.1032733,48 H 26.026909 v 0 c 1.118182,0 2.025818,-1.024364 2.025818,-2.285454 v 0 c 0,-1.262182 -2.025818,-1.785501 -2.025818,-1.785501 v 0 H 10.003637 c -1.7814557,0 -3.2279997,-1.946499 -3.2279997,-3.729045 z"
     fill-rule="evenodd"
     fill="url(#_lgradient_2)"
     id="path3"
     sodipodi:nodetypes="sscsssscccsssscsssscssszssscsscsssscsszscsssscsscsssscss"
     style="fill:url(#_lgradient_2);stroke-width:1.0909" />
  <path
     id="path2483"
     style="color:#000000;fill:url(#paint0_linear);stroke-width:0.260375;-inkscape-stroke:none"
     d="m 32.324719,12.002643 c -0.06223,0.0036 -0.122956,0.01043 -0.181551,0.01932 -0.116954,0.01776 -0.229896,0.04369 -0.334622,0.0684 -0.01186,0.0028 -0.02353,0.0054 -0.03509,0.0081 -0.09287,0.02197 -0.178698,0.04239 -0.260629,0.05721 h -1.74e-4 l -0.0018,2.6e-4 -0.0018,5.04e-4 c -1.455107,0.284778 -2.911475,0.565144 -4.36866,0.845711 -2.353188,0.453102 -4.707867,0.906528 -7.058867,1.378667 -0.412857,0.03117 -0.740885,0.272115 -0.95098,0.575419 -0.213142,0.307694 -0.322129,0.691069 -0.300042,1.053961 l -2.6e-4,-0.0076 c 0.0025,1.560929 0.0019,3.122387 0.0015,4.683958 -6.79e-4,2.332236 -7.05e-4,4.664966 0.0083,6.997586 -0.980603,-0.483855 -2.133704,-0.599601 -3.184258,-0.287074 -1.681619,0.480061 -2.978037,2.022958 -3.128827,3.764509 -2.2e-5,2.6e-4 2.2e-5,5.21e-4 0,7.81e-4 -0.176246,1.517952 0.523239,3.076552 1.759313,3.976064 1.114675,0.830205 2.630607,1.089912 3.958519,0.649668 h 2.6e-4 c 1.339011,-0.41274 2.410103,-1.503797 2.843787,-2.819123 0.198714,-0.462872 0.239196,-0.940035 0.234439,-1.397229 -0.0022,-0.210435 -0.01384,-0.419619 -0.02517,-0.622968 -0.0011,-0.0194 -0.0022,-0.03849 -0.0033,-0.05772 -0.01233,-0.222726 -0.02302,-0.438482 -0.0211,-0.647633 v -5.21e-4 -0.0018 c 6.08e-4,-1.06551 5.91e-4,-2.130761 5.04e-4,-3.195955 -1.15e-4,-1.703843 -1.16e-4,-3.407014 0.0025,-5.109864 0.568558,-0.117793 1.143721,-0.210865 1.726512,-0.301314 l 0.0058,-7.69e-4 c 0.650961,-0.101037 1.309766,-0.20354 1.964769,-0.348351 l 0.0036,-5.08e-4 0.0031,-7.68e-4 c 0.419547,-0.09438 0.847576,-0.161194 1.283316,-0.2291 0.05105,-0.008 0.10211,-0.01587 0.153326,-0.0239 0.486991,-0.07634 0.982293,-0.15814 1.473256,-0.286819 l 0.0056,-0.0015 0.0051,-0.0015 c 0.290208,-0.08952 0.550532,-0.284107 0.721371,-0.537787 0.171805,-0.255183 0.257191,-0.586473 0.153835,-0.920976 l -0.0071,-0.02263 -0.01068,-0.02085 c -0.126464,-0.24234 -0.321121,-0.47967 -0.570588,-0.642038 -0.249975,-0.162743 -0.569121,-0.251557 -0.904193,-0.156887 l 0.0099,-0.0023 c -0.179229,0.0356 -0.3574,0.07197 -0.534989,0.10832 -0.731005,0.149507 -1.45134,0.296682 -2.179627,0.373527 l -0.0071,7.63e-4 -0.0074,0.0013 c -0.483652,0.07856 -0.9633,0.172227 -1.439184,0.265207 -0.121356,0.02372 -0.242503,0.04734 -0.363355,0.07069 -0.498013,0.09622 -0.992648,0.182352 -1.488513,0.251476 0.0024,-0.460627 0.0025,-0.920932 0.002,-1.380193 v -0.06026 c -5.21e-4,-0.509281 -4e-4,-1.017752 0.0033,-1.525891 0.234543,-0.04428 0.469229,-0.08847 0.703827,-0.13273 3.091128,-0.583205 6.186191,-1.169077 9.270531,-1.808897 0.01087,1.98843 0.0098,3.974189 0.0081,5.960408 -0.0016,1.697377 -0.0024,3.395391 0.0041,5.095626 -1.197649,-0.478017 -2.62658,-0.350747 -3.678817,0.430484 -1.275102,0.893254 -1.872696,2.589571 -1.441472,4.079044 v 2.6e-4 c 0.359014,1.358107 1.526746,2.449948 2.91244,2.717668 1.233687,0.25913 2.566477,-0.148107 3.448193,-1.041247 0.892534,-0.881814 1.238658,-2.170613 1.151092,-3.365809 v -10e-4 c -0.0061,-2.793159 -0.0046,-5.586481 -0.003,-8.379814 v -2.6e-4 c 0.0014,-2.269555 0.0029,-4.539514 0,-6.809679 l -5.2e-4,0.01119 c 0.04608,-0.551412 -0.360363,-0.952985 -0.710184,-1.176774 l -0.01576,-0.01017 -0.01652,-0.0074 -5.21e-4,-2.61e-4 c -0.132515,-0.0603 -0.265612,-0.08957 -0.394885,-0.09917 -0.06473,-0.0048 -0.128471,-0.0046 -0.190706,-0.001 z m -2.569171,15.695749 c 0.0541,-0.0015 0.108314,2.6e-4 0.16248,0.0053 0.217093,0.02013 0.432259,0.0912 0.626019,0.204688 0.387598,0.227022 0.664681,0.608318 0.697471,1.044553 l 0.001,0.01551 0.0033,0.01627 c 0.08582,0.43406 -0.08197,0.876069 -0.398445,1.197117 -0.31684,0.321292 -0.763339,0.500472 -1.203472,0.429466 l -0.0084,-0.0013 -0.0079,-7.81e-4 h -5.21e-4 c -0.808757,-0.07893 -1.434965,-0.958993 -1.244148,-1.742024 l 2.61e-4,-5.2e-4 5.21e-4,-0.0028 10e-4,-0.0038 2.6e-4,-0.0018 c 0.09531,-0.460689 0.446301,-0.866674 0.889193,-1.05091 l 2.6e-4,-2.61e-4 0.0043,-0.0015 0.0033,-0.0015 c 0.15052,-0.06726 0.311168,-0.101373 0.473456,-0.105777 z m -12.920362,1.852124 c 0.06492,-0.0012 0.129898,0.001 0.194772,0.0061 0.775702,0.06094 1.526489,0.560446 1.763382,1.295012 0.06969,0.493514 0.06152,1.007574 0.01322,1.518516 -0.333514,0.944766 -1.485116,1.513998 -2.457038,1.222543 l -0.0053,-0.0018 -0.0051,-0.001 -7.64e-4,-2.6e-4 c -0.986455,-0.258761 -1.672794,-1.354416 -1.464615,-2.3477 l 2.61e-4,-7.81e-4 5.07e-4,-0.0028 5.08e-4,-0.0028 2.61e-4,-7.81e-4 c 0.130422,-0.720593 0.683134,-1.353856 1.381464,-1.582849 2.77e-4,-9.5e-5 4.68e-4,-3.99e-4 7.63e-4,-5.21e-4 h 5.04e-4 l 0.002,-7.81e-4 7.63e-4,-2.6e-4 7.64e-4,-2.61e-4 h 2.61e-4 c 0.184832,-0.0639 0.378609,-0.09619 0.573385,-0.09967 z" />
</svg>
