<?xml version="1.0" encoding="UTF-8" standalone="no"?>
<!-- Generator: Gravit.io -->

<svg
   style="isolation:isolate"
   viewBox="0 0 48 48"
   width="48pt"
   height="48pt"
   version="1.1"
   id="svg3"
   sodipodi:docname="font-x-generic.svg"
   inkscape:version="1.3.2 (091e20ef0f, 2023-11-25, custom)"
   xmlns:inkscape="http://www.inkscape.org/namespaces/inkscape"
   xmlns:sodipodi="http://sodipodi.sourceforge.net/DTD/sodipodi-0.dtd"
   xmlns:xlink="http://www.w3.org/1999/xlink"
   xmlns="http://www.w3.org/2000/svg"
   xmlns:svg="http://www.w3.org/2000/svg">
  <sodipodi:namedview
     id="namedview1"
     pagecolor="#ffffff"
     bordercolor="#666666"
     borderopacity="1.0"
     inkscape:showpageshadow="2"
     inkscape:pageopacity="0.0"
     inkscape:pagecheckerboard="0"
     inkscape:deskcolor="#d1d1d1"
     inkscape:document-units="pt"
     inkscape:zoom="8.3085047"
     inkscape:cx="17.572356"
     inkscape:cy="33.098615"
     inkscape:current-layer="svg3" />
  <defs
     id="defs3">
    <linearGradient
       id="linearGradient3"
       inkscape:collect="always">
      <stop
         style="stop-color:#e5f230;stop-opacity:1;"
         offset="0"
         id="stop1" />
      <stop
         style="stop-color:#24d864;stop-opacity:1;"
         offset="1"
         id="stop2" />
    </linearGradient>
    <linearGradient
       inkscape:collect="always"
       xlink:href="#linearGradient3"
       id="linearGradient2"
       gradientTransform="scale(0.94156543,1.0620611)"
       x1="8.6061716"
       y1="45.195141"
       x2="48.087036"
       y2="22.59757"
       gradientUnits="userSpaceOnUse" />
    <linearGradient
       inkscape:collect="always"
       xlink:href="#linearGradient17"
       id="linearGradient21"
       x1="8.1032734"
       y1="48"
       x2="45.277092"
       y2="24"
       gradientUnits="userSpaceOnUse" />
    <linearGradient
       id="linearGradient17"
       inkscape:collect="always">
      <stop
         style="stop-color:#e5f230;stop-opacity:1;"
         offset="0"
         id="stop15" />
      <stop
         style="stop-color:#24d864;stop-opacity:1;"
         offset="1"
         id="stop16" />
    </linearGradient>
  </defs>
  <path
     d="m 8.1032733,0 c -2.969455,0 -5.380364,2.410909 -5.380364,5.380364 v 22.048364 0 c 0,1.26109 0.907636,2.285454 2.025818,2.285454 v 0 c 1.118182,0 2.026909,-1.024364 2.026909,-2.285454 v 0 0 0 V 7.8 c 0,-1.782545 1.446546,-3.729 3.2280007,-3.729 h 27.992726 c 1.781456,0 3.228,1.946455 3.228,3.729 v 3.628364 0 c 0,1.262182 0.908728,2.285454 2.02691,2.285454 v 0 c 1.118182,0 2.025818,-1.023272 2.025818,-2.285454 v 0 -6.048 C 45.277091,2.410909 42.866181,0 39.896727,0 Z m 4.9393127,43.928955 c 0.737617,0.0049 1.838505,0.523409 1.838505,1.785591 v 0 C 14.881091,46.975636 13.973455,48 12.854181,48 v 0 H 8.1032733 c -2.969455,0 -5.380364,-2.41091 -5.380364,-5.380364 v -6.048 0 c 0,-1.262182 0.907636,-2.285454 2.025818,-2.285454 v 0 c 1.118182,0 2.026909,1.023272 2.026909,2.285454 v 0 V 40.2 c 0,1.782546 1.446546,3.729045 3.2280007,3.729045 1.012711,0.0042 2.301332,-0.005 3.038949,-9e-5 z M 41.224363,21.714546 v 0 c 0,-1.262182 0.908728,-2.285456 2.02691,-2.285456 v 0 c 1.118182,0 2.025818,1.023274 2.025818,2.285456 v 0 20.90509 C 45.277091,45.58909 42.866181,48 39.896727,48 H 21.973091 v 0 c -1.118182,0 -2.025818,-1.024364 -2.025818,-2.285454 v 0 c 0,-1.262182 2.025818,-1.785501 2.025818,-1.785501 v 0 h 16.023272 c 1.781456,0 3.228,-1.946499 3.228,-3.729045 z"
     fill-rule="evenodd"
     id="path3"
     sodipodi:nodetypes="sscsssscccsssscsssscssszssscsscsssscsszscsssscsscsssscss"
     style="fill:url(#linearGradient2);stroke-width:1.0909;fill-opacity:1" />
  <path
     id="path2-36"
     d="m 17.756903,16.49456 c -0.398453,0 -0.754851,0.247778 -0.893843,0.621107 l -4.802305,12.899792 c -0.23199,0.623231 0.229206,1.286551 0.894214,1.286551 h 1.183717 c 0.410547,0 0.775185,-0.26286 0.90502,-0.652404 l 0.581985,-1.746327 c 0.129835,-0.389542 0.494454,-0.652404 0.905019,-0.652404 h 3.976648 c 0.409383,0 0.773227,0.261589 0.903902,0.649797 l 0.589809,1.751916 c 0.130675,0.388016 0.494328,0.649423 0.903902,0.649423 h 1.183343 c 0.665773,0 1.126778,-0.664803 0.893471,-1.288413 L 20.153398,17.113803 C 20.013948,16.74124 19.657674,16.49456 19.259929,16.49456 Z m 13.381923,3.599959 c -0.894883,0 -1.70191,0.156072 -2.420715,0.467973 -0.718613,0.305036 -1.27435,0.728737 -1.667709,1.271275 -0.192864,0.265928 -0.338432,0.543545 -0.436675,0.832365 -0.169781,0.498852 0.27399,0.937437 0.800694,0.937437 h 1.031328 c 0.526895,-2e-6 0.909872,-0.489831 1.267177,-0.876704 0.03224,-0.03491 0.06675,-0.06819 0.103952,-0.09986 0.284813,-0.237311 0.674521,-0.355822 1.169558,-0.355822 0.56276,0 0.972757,0.152505 1.230291,0.45754 0.264402,0.305035 0.396434,0.711839 0.396434,1.22023 0,0.348338 -0.282083,0.630794 -0.63042,0.630794 h -0.722079 c -1.633907,0.0067 -2.884928,0.321829 -3.75272,0.945631 -0.860926,0.623613 -1.291397,1.51873 -1.291397,2.68488 0,0.94906 0.352713,1.735807 1.057784,2.359609 0.711935,0.623804 1.60649,0.935573 2.684505,0.935573 0.844711,0 1.572197,-0.218359 2.181884,-0.654641 0.260777,-0.186568 0.683676,-0.0336 0.804049,0.263422 0.05341,0.132201 0.175316,0.187784 0.317818,0.187784 h 2.599184 c 0.07631,0 0.138231,-0.06192 0.138231,-0.13823 0,-0.0227 -0.0053,-0.04498 -0.01564,-0.0652 -0.274321,-0.534908 -0.415285,-1.314516 -0.421771,-2.339117 v -4.769517 c 0,-1.234064 -0.399668,-2.190213 -1.199738,-2.868195 -0.793204,-0.684849 -1.868055,-1.02723 -3.224016,-1.02723 z m -12.627802,2.200142 c 0.379809,-5.6e-4 0.759923,0.215891 0.905764,0.650168 l 0.529823,1.577544 c 0.207554,0.61789 -0.252429,1.257116 -0.904275,1.257116 h -1.053683 c -0.650587,0 -1.110074,-0.636628 -0.90502,-1.254135 l 0.523861,-1.577543 c 0.144372,-0.43466 0.52372,-0.652529 0.90353,-0.65315 z m 13.004116,4.003846 h 0.144192 c 0.526895,0 0.953829,0.427125 0.953829,0.953829 v 0.695999 c 0,0.158524 -0.03506,0.31761 -0.128916,0.445614 -0.170162,0.232354 -0.398488,0.425438 -0.684446,0.579005 -0.366271,0.189813 -0.76631,0.285031 -1.20011,0.285031 -0.447536,0 -0.800058,-0.118884 -1.057783,-0.356196 -0.257532,-0.237313 -0.386375,-0.538939 -0.386375,-0.90502 l 0.01044,-0.17288 c 0.095,-1.016971 0.877802,-1.525382 2.349176,-1.525382 z"
     style="isolation:isolate;fill:url(#linearGradient21);fill-opacity:1;stroke-width:0.190766" />
</svg>
