<?xml version="1.0" encoding="UTF-8" standalone="no"?>
<!-- Generator: Gravit.io -->

<svg
   style="isolation:isolate"
   viewBox="0 0 48 48"
   width="48pt"
   height="48pt"
   version="1.1"
   id="svg3"
   sodipodi:docname="text-css.svg"
   inkscape:version="1.3.2 (091e20ef0f, 2023-11-25, custom)"
   xmlns:inkscape="http://www.inkscape.org/namespaces/inkscape"
   xmlns:sodipodi="http://sodipodi.sourceforge.net/DTD/sodipodi-0.dtd"
   xmlns:xlink="http://www.w3.org/1999/xlink"
   xmlns="http://www.w3.org/2000/svg"
   xmlns:svg="http://www.w3.org/2000/svg">
  <defs
     id="defs3">
    <linearGradient
       id="linearGradient1"
       inkscape:collect="always">
      <stop
         style="stop-color:#e5f230;stop-opacity:1;"
         offset="0"
         id="stop2" />
      <stop
         style="stop-color:#24d864;stop-opacity:1;"
         offset="1"
         id="stop4" />
    </linearGradient>
    <linearGradient
       inkscape:collect="always"
       xlink:href="#linearGradient1"
       id="linearGradient4"
       x1="12.854181"
       y1="48"
       x2="45.277092"
       y2="24.00252"
       gradientUnits="userSpaceOnUse" />
  </defs>
  <sodipodi:namedview
     id="namedview3"
     pagecolor="#ffffff"
     bordercolor="#666666"
     borderopacity="1.0"
     inkscape:showpageshadow="2"
     inkscape:pageopacity="0.0"
     inkscape:pagecheckerboard="0"
     inkscape:deskcolor="#d1d1d1"
     inkscape:document-units="pt"
     inkscape:zoom="8.9196487"
     inkscape:cx="41.033006"
     inkscape:cy="38.174149"
     inkscape:current-layer="svg3" />
  <linearGradient
     id="_lgradient_2"
     x1="0.23807324"
     y1="1"
     x2="0.99997437"
     y2="0.5"
     gradientTransform="matrix(42.555273,0,0,48,2.7229093,0)"
     gradientUnits="userSpaceOnUse"
     spreadMethod="pad">
    <stop
       offset="0"
       stop-opacity="1"
       style="stop-color:#e5f230;stop-opacity:1;"
       id="stop1" />
    <stop
       offset="1"
       stop-opacity="1"
       style="stop-color:#24d864;stop-opacity:1;"
       id="stop3" />
  </linearGradient>
  <path
     d="m 8.1032733,0 c -2.969455,0 -5.380364,2.410909 -5.380364,5.380364 v 22.048364 0 c 0,1.26109 0.907636,2.285454 2.025818,2.285454 v 0 c 1.118182,0 2.026909,-1.024364 2.026909,-2.285454 v 0 0 0 V 7.8 c 0,-1.782545 1.446546,-3.729 3.2280007,-3.729 h 27.992726 c 1.781456,0 3.228,1.946455 3.228,3.729 v 3.628364 0 c 0,1.262182 0.908728,2.285454 2.02691,2.285454 v 0 c 1.118182,0 2.025818,-1.023272 2.025818,-2.285454 v 0 -6.048 C 45.277091,2.410909 42.866181,0 39.896727,0 Z m 4.9393127,43.928955 c 0.737617,0.0049 1.838505,0.523409 1.838505,1.785591 v 0 C 14.881091,46.975636 13.973455,48 12.854181,48 v 0 H 8.1032733 c -2.969455,0 -5.380364,-2.41091 -5.380364,-5.380364 v -6.048 0 c 0,-1.262182 0.907636,-2.285454 2.025818,-2.285454 v 0 c 1.118182,0 2.026909,1.023272 2.026909,2.285454 v 0 V 40.2 c 0,1.782546 1.446546,3.729045 3.2280007,3.729045 1.012711,0.0042 2.301332,-0.005 3.038949,-9e-5 z M 41.224363,21.714546 v 0 c 0,-1.262182 0.908728,-2.285456 2.02691,-2.285456 v 0 c 1.118182,0 2.025818,1.023274 2.025818,2.285456 v 0 20.90509 C 45.277091,45.58909 42.866181,48 39.896727,48 H 21.973 c -1.707164,0 -2.137914,-0.989306 -2.025727,-2.285454 v 0 c 0,-1.262182 1.125606,-1.785501 2.025727,-1.785501 h 16.023363 c 1.781456,0 3.228,-1.946499 3.228,-3.729045 z"
     fill-rule="evenodd"
     id="path3"
     sodipodi:nodetypes="sscsssscccsssscsssscssszssscsscsssscsszscssssccscsscss"
     style="fill:url(#_lgradient_2);stroke-width:1.0909" />
  <path
     d="m 16.287915,23.313156 c 1.281643,0.625687 1.9224,1.904422 1.9224,3.836002 0,2.557054 0.124,4.085055 0.372211,4.583791 0.248,0.489896 0.640632,0.734737 1.178315,0.734737 l -0.0798,2.706738 c -0.791368,0.281263 -1.529894,0.421685 -2.21484,0.421685 -1.258046,0 -2.235495,-0.485054 -2.932443,-1.455371 -0.696923,-0.970525 -1.045408,-2.389683 -1.045408,-4.257684 v -0.312843 c 0,-1.215158 -0.0502,-2.062947 -0.15061,-2.543578 -0.194879,-0.94337 -0.640817,-1.414527 -1.337742,-1.414527 V 21.55842 c 0.673304,0 1.116274,-0.385472 1.328884,-1.15621 0.147663,-0.544211 0.239222,-1.247159 0.274654,-2.108422 0.04135,-0.870737 0.07973,-1.559791 0.115173,-2.06758 0.07677,-1.079158 0.324843,-1.986106 0.744168,-2.720422 0.425264,-0.734736 1.184213,-1.101895 2.276842,-1.101895 0.147663,0 0.679222,0.01348 1.594591,0.04063 0.915579,0.02737 1.387999,0.04548 1.417684,0.05453 L 20.044416,15.954 c -0.957054,0 -1.559369,0.467157 -1.807579,1.401052 -0.141644,0.535159 -0.239096,1.288002 -0.292232,2.258107 -0.04725,0.961472 -0.109254,1.659579 -0.186063,2.094947 -0.07675,0.43537 -0.236252,0.802317 -0.47838,1.101685 -0.242167,0.290102 -0.572906,0.457894 -0.992252,0.503365 z m 9.142823,5.617899 v 3.971579 l -0.03537,1.047579 h -3.508421 c -0.01173,-0.344632 -0.01768,-0.974947 -0.01768,-1.890738 v -3.169263 h 3.00316 z M 28.31874,12.607892 c 0.100427,-0.0362 0.570104,-0.07705 1.408841,-0.12252 0.844421,-0.05432 1.482528,-0.08147 1.913475,-0.08147 1.671579,0 2.598738,1.052 2.781895,3.155579 0.05916,0.643999 0.08863,1.423999 0.08863,2.339787 v 0.312844 c 0,1.215158 0.05011,2.063158 0.150525,2.543578 0.194948,0.943368 0.640843,1.414949 1.337895,1.414949 v 4.05326 c -0.637895,0.0091 -1.072211,0.403579 -1.302316,1.183579 -0.135999,0.462316 -0.26,1.156211 -0.37221,2.081054 -0.112213,0.916 -0.212631,1.627788 -0.301264,2.135578 -0.189053,1.097475 -0.578736,2.017896 -1.169474,2.761475 -0.584632,0.74358 -1.523577,1.11537 -2.817054,1.11537 -0.537681,0 -1.134101,-0.07263 -1.789681,-0.217684 L 27.95579,31.828318 c 0.962526,0 1.541264,-0.462737 1.736211,-1.387368 0.08863,-0.417264 0.141896,-0.879791 0.159578,-1.387581 0.01768,-0.50779 0.03243,-1.024841 0.04421,-1.550527 0.01769,-0.526105 0.068,-1.015789 0.150736,-1.469473 0.08275,-0.453052 0.25979,-0.847579 0.531369,-1.183158 0.277684,-0.335579 0.65579,-0.553264 1.134104,-0.653053 -0.708841,-0.144843 -1.207999,-0.507579 -1.497052,-1.088211 -0.28358,-0.580422 -0.425473,-1.387369 -0.425473,-2.421262 0,-1.033686 -0.006,-1.741055 -0.01769,-2.121686 -0.02947,-1.269896 -0.135788,-2.085896 -0.318946,-2.448634 -0.271579,-0.544209 -0.67621,-0.811577 -1.213684,-0.802315 z"
     id="path2-3-6"
     style="isolation:isolate;fill:url(#linearGradient4);fill-opacity:1;stroke-width:0.210525" />
</svg>
