<?xml version="1.0" encoding="UTF-8" standalone="no"?>
<!-- Generator: Gravit.io -->

<svg
   style="isolation:isolate"
   viewBox="0 0 48 48"
   width="48pt"
   height="48pt"
   version="1.1"
   id="svg3"
   sodipodi:docname="application-x-java-3.svg"
   inkscape:version="1.3.2 (091e20ef0f, 2023-11-25, custom)"
   xmlns:inkscape="http://www.inkscape.org/namespaces/inkscape"
   xmlns:sodipodi="http://sodipodi.sourceforge.net/DTD/sodipodi-0.dtd"
   xmlns:xlink="http://www.w3.org/1999/xlink"
   xmlns="http://www.w3.org/2000/svg"
   xmlns:svg="http://www.w3.org/2000/svg">
  <defs
     id="defs3">
    <linearGradient
       id="linearGradient1"
       inkscape:collect="always">
      <stop
         style="stop-color:#f1fa00;stop-opacity:1;"
         offset="0"
         id="stop11" />
      <stop
         style="stop-color:#ff6900;stop-opacity:1;"
         offset="1"
         id="stop13" />
    </linearGradient>
    <linearGradient
       id="linearGradient11"
       x1="0.50555557"
       y1="-0.047222223"
       x2="0.50555557"
       y2="0.96764994"
       gradientTransform="matrix(45,0,0,45,3.044823,0.096004)"
       gradientUnits="userSpaceOnUse">
      <stop
         offset="0"
         stop-opacity="1"
         style="stop-color:#f1fa00;stop-opacity:1;"
         id="stop9" />
      <stop
         offset="1"
         stop-opacity="1"
         style="stop-color:#ff6900;stop-opacity:1;"
         id="stop10" />
    </linearGradient>
    <linearGradient
       id="linearGradient4"
       x1="0.50555557"
       y1="-0.047222223"
       x2="0.50555557"
       y2="0.96764994"
       gradientTransform="matrix(45,0,0,45,3.044823,0.096004)"
       gradientUnits="userSpaceOnUse">
      <stop
         offset="0"
         stop-opacity="1"
         style="stop-color:#f1fa00;stop-opacity:1;"
         id="stop2" />
      <stop
         offset="1"
         stop-opacity="1"
         style="stop-color:#ff6900;stop-opacity:1;"
         id="stop4" />
    </linearGradient>
    <linearGradient
       id="linearGradient14"
       x1="0.50555557"
       y1="-0.047222223"
       x2="0.50555557"
       y2="0.96764994"
       gradientTransform="matrix(45,0,0,45,3.044823,0.096004)"
       gradientUnits="userSpaceOnUse">
      <stop
         offset="0"
         stop-opacity="1"
         style="stop-color:#f069ff;stop-opacity:1;"
         id="stop12" />
      <stop
         offset="1"
         stop-opacity="1"
         style="stop-color:#9000ff;stop-opacity:1;"
         id="stop14" />
    </linearGradient>
    <linearGradient
       inkscape:collect="always"
       xlink:href="#linearGradient14"
       id="linearGradient20"
       x1="9.4280005"
       y1="46"
       x2="43.504002"
       y2="24"
       gradientUnits="userSpaceOnUse" />
    <linearGradient
       inkscape:collect="always"
       xlink:href="#linearGradient14"
       id="linearGradient22"
       x1="9.4280005"
       y1="46"
       x2="43.504002"
       y2="24"
       gradientUnits="userSpaceOnUse" />
    <linearGradient
       inkscape:collect="always"
       xlink:href="#linearGradient11"
       id="linearGradient9"
       x1="-1.7403619"
       y1="43.388885"
       x2="24.000792"
       y2="-1.3760936"
       gradientUnits="userSpaceOnUse"
       gradientTransform="matrix(0,-0.93104923,-0.86475284,0,44.966739,46.345181)" />
    <linearGradient
       id="paint2_linear_451_3184"
       x1="1.2064381"
       y1="20.261198"
       x2="20.867905"
       y2="10.762671"
       gradientUnits="userSpaceOnUse">
      <stop
         stop-color="#A93AFF"
         id="stop7"
         offset="0"
         style="stop-color:#c900ff;stop-opacity:1;" />
      <stop
         offset="1"
         stop-color="#FF81FF"
         id="stop8"
         style="stop-color:#6444ff;stop-opacity:1;" />
    </linearGradient>
    <linearGradient
       id="paint2_linear_451_3184-5"
       x1="1.2064381"
       y1="20.261198"
       x2="20.867905"
       y2="10.762671"
       gradientUnits="userSpaceOnUse">
      <stop
         stop-color="#A93AFF"
         id="stop7-3"
         offset="0"
         style="stop-color:#c900ff;stop-opacity:1;" />
      <stop
         offset="1"
         stop-color="#FF81FF"
         id="stop8-5"
         style="stop-color:#6444ff;stop-opacity:1;" />
    </linearGradient>
    <linearGradient
       id="paint1_linear_451_3184"
       x1="1.2064381"
       y1="20.261198"
       x2="20.80998"
       y2="10.68973"
       gradientUnits="userSpaceOnUse">
      <stop
         stop-color="#A93AFF"
         id="stop5"
         offset="0"
         style="stop-color:#c900ff;stop-opacity:1;" />
      <stop
         offset="1"
         stop-color="#FF81FF"
         id="stop6"
         style="stop-color:#6444ff;stop-opacity:1;" />
    </linearGradient>
    <linearGradient
       inkscape:collect="always"
       xlink:href="#linearGradient4"
       id="linearGradient10"
       gradientUnits="userSpaceOnUse"
       gradientTransform="matrix(0,-0.93943733,-0.71005471,0,41.205273,46.568857)"
       x1="-1.4867268"
       y1="47.544498"
       x2="24.024588"
       y2="-6.9733315" />
    <linearGradient
       inkscape:collect="always"
       xlink:href="#linearGradient1"
       id="linearGradient13"
       x1="8.1032734"
       y1="48"
       x2="45.277092"
       y2="24"
       gradientUnits="userSpaceOnUse" />
    <linearGradient
       inkscape:collect="always"
       xlink:href="#linearGradient1"
       id="linearGradient16"
       x1="8.1032734"
       y1="48"
       x2="45.277092"
       y2="24"
       gradientUnits="userSpaceOnUse" />
  </defs>
  <sodipodi:namedview
     id="namedview3"
     pagecolor="#ffffff"
     bordercolor="#666666"
     borderopacity="1.0"
     inkscape:showpageshadow="2"
     inkscape:pageopacity="0.0"
     inkscape:pagecheckerboard="0"
     inkscape:deskcolor="#d1d1d1"
     inkscape:document-units="pt"
     inkscape:zoom="6.6180775"
     inkscape:cx="-7.7061654"
     inkscape:cy="35.811004"
     inkscape:current-layer="svg3" />
  <linearGradient
     id="_lgradient_2"
     x1="0.12643237"
     y1="1"
     x2="0.99997437"
     y2="0.5"
     gradientTransform="matrix(42.555273,0,0,48,2.7229091,0)"
     gradientUnits="userSpaceOnUse"
     spreadMethod="pad">
    <stop
       offset="0"
       stop-opacity="1"
       style="stop-color:#f1fa00;stop-opacity:1;"
       id="stop1" />
    <stop
       offset="1"
       stop-opacity="1"
       style="stop-color:#ff6900;stop-opacity:1;"
       id="stop3" />
  </linearGradient>
  <path
     d="m 8.1032731,0 c -2.969455,0 -5.380364,2.410909 -5.380364,5.380364 v 22.048364 0 c 0,1.26109 0.907636,2.285454 2.025818,2.285454 v 0 c 1.118182,0 2.026909,-1.024364 2.026909,-2.285454 v 0 0 0 V 7.8 c 0,-1.782545 1.446546,-3.729 3.2280009,-3.729 h 27.992726 c 1.781456,0 3.228,1.946455 3.228,3.729 v 3.628364 0 c 0,1.262182 0.908728,2.285454 2.02691,2.285454 v 0 c 1.118182,0 2.025818,-1.023272 2.025818,-2.285454 v 0 -6.048 C 45.277091,2.410909 42.866181,0 39.896727,0 Z m 4.9393129,43.928955 c 0.737617,0.0049 1.838505,0.523409 1.838505,1.785591 v 0 C 14.881091,46.975636 13.973455,48 12.854181,48 v 0 H 8.1032731 c -2.969455,0 -5.380364,-2.41091 -5.380364,-5.380364 v -6.048 0 c 0,-1.262182 0.907636,-2.285454 2.025818,-2.285454 v 0 c 1.118182,0 2.026909,1.023272 2.026909,2.285454 v 0 V 40.2 c 0,1.782546 1.446546,3.729045 3.2280009,3.729045 1.012711,0.0042 2.301332,-0.005 3.038949,-9e-5 z M 41.224363,21.714546 v 0 c 0,-1.262182 0.908728,-2.285456 2.02691,-2.285456 v 0 c 1.118182,0 2.025818,1.023274 2.025818,2.285456 v 0 20.90509 C 45.277091,45.58909 42.866181,48 39.896727,48 H 21.973091 v 0 c -1.118182,0 -2.025818,-1.024364 -2.025818,-2.285454 v 0 c 0,-1.262182 2.025818,-1.785501 2.025818,-1.785501 v 0 h 16.023272 c 1.781456,0 3.228,-1.946499 3.228,-3.729045 z"
     fill-rule="evenodd"
     fill="url(#_lgradient_2)"
     id="path3"
     sodipodi:nodetypes="sscsssscccsssscsssscssszssscsscsssscsszscsssscsscsssscss"
     style="fill:url(#_lgradient_2);stroke-width:1.0909" />
  <g
     id="g1"
     transform="matrix(0.96029968,0,0,1.0014069,0.95280768,-0.03302634)"
     style="display:none">
    <path
       id="path10"
       style="display:inline;fill:none;fill-opacity:1;stroke:url(#linearGradient9);stroke-width:1.58345;stroke-dasharray:none;stroke-opacity:1"
       d="m 36.208277,33.763904 c 0,0.335896 -0.319933,0.607711 -0.715329,0.607711 -0.395396,0 -0.715329,-0.271815 -0.715329,-0.607711 v -0.607713 h -8.631633 v 0.607713 c 0,0.335896 -0.319895,0.607711 -0.715329,0.607711 h -2.861314 c -0.395434,0 -0.715329,-0.271815 -0.715329,-0.607711 v -0.607713 h -8.631633 v 0.607713 c 0,0.335896 -0.319895,0.607711 -0.715329,0.607711 -0.395434,0 -0.715329,-0.271815 -0.715329,-0.607711 v -1.215425 -1.215423 c 0,-0.335917 0.319895,-0.607712 0.715329,-0.607712 0.395434,0 0.715329,0.271795 0.715329,0.607712 v 0.607711 h 7.83869 c -2.640412,-1.28367 -6.949697,-3.476384 -7.576032,-6.077118 h -0.930298 c -0.395434,0 -0.715329,-0.271713 -0.715329,-0.607713 v -2.430845 c 0,-0.335794 0.319895,-0.607713 0.715329,-0.607713 h 2.861315 c 0.395433,0 0.715329,0.271919 0.715329,0.607713 v 2.430846 c 0,0.335999 -0.319896,0.607712 -0.715329,0.607712 h -0.464964 c 0.806186,2.889044 3.50228,5.178201 6.902922,5.863317 v -0.39391 c 0,-0.335917 0.319895,-0.607712 0.715329,-0.607712 h 2.861314 c 0.395434,0 0.715329,0.271795 0.715329,0.607712 v 0.39391 c 3.400604,-0.685113 6.096631,-2.974315 6.902923,-5.863317 h -0.464965 c -0.395433,0 -0.715329,-0.271713 -0.715329,-0.607713 v -2.430845 c 0,-0.335794 0.319896,-0.607713 0.715329,-0.607713 h 2.861315 c 0.395396,0 0.715329,0.271919 0.715329,0.607713 v 2.430846 c 0,0.335999 -0.319933,0.607712 -0.715329,0.607712 H 34.51496 c -0.62634,2.600734 -4.934691,4.793823 -7.575103,6.077493 l 7.837762,-3.75e-4 v -0.607711 c 0,-0.335917 0.319933,-0.607712 0.715329,-0.607712 0.395396,0 0.715329,0.271795 0.715329,0.607712 v 1.215423 z"
       sodipodi:nodetypes="sssccssssccssscssscccssssssssccssssccsssssssscccssscs" />
    <path
       id="path9"
       style="display:inline;isolation:isolate;fill:none;fill-opacity:1;stroke:url(#linearGradient10);stroke-width:1.44129;stroke-dasharray:none;stroke-opacity:1"
       d="m 29.275587,20.27929 c 0.0029,0.111877 -0.02355,0.225225 -0.08229,0.329461 l -4.582643,8.016762 -0.03396,0.420933 -0.08229,0.146922 c -0.199703,0.380264 -0.810437,0.380264 -1.01014,0 l -0.08229,-0.146922 -0.03396,-0.420933 -4.582643,-8.016762 c -0.117472,-0.208471 -0.105846,-0.453367 0.01163,-0.649612 l 1.045627,-1.631119 c 0.798811,-1.238606 1.209903,-2.673563 1.209903,-4.157529 3e-6,-0.343376 0.258443,-0.613186 0.587364,-0.613186 h 4.698894 c 0.328922,0 0.587361,0.26981 0.587361,0.613186 0,1.483966 0.411092,2.918923 1.209904,4.157529 l 1.045627,1.631119 c 0.05874,0.09813 0.09098,0.208274 0.09392,0.320151 z"
       sodipodi:nodetypes="sccccccccccssssccss" />
  </g>
  <path
     id="path2"
     d="m 26.142782,12.186705 c -0.0866,0.0032 -0.1726,0.01849 -0.255448,0.04724 -0.518323,0.13492 -0.744175,0.703624 -0.581757,1.162059 0.238882,0.919975 -0.0618,1.936467 -0.781609,2.600277 -0.636834,0.645391 -1.64261,0.732962 -2.332837,1.312494 -1.886314,1.330782 -2.407577,4.030964 -1.156608,5.91058 0.423998,0.642414 0.995656,1.233948 1.723465,1.56976 0.664554,0.20093 1.379559,-0.461136 1.1537,-1.088294 -0.09433,-0.386417 -0.507006,-0.559733 -0.781609,-0.81722 -0.966505,-0.821949 -1.203888,-2.28472 -0.55087,-3.34555 0.373766,-0.674601 1.072272,-1.117503 1.817942,-1.367362 2.170592,-0.841856 3.379485,-3.345685 2.636979,-5.446194 -0.134686,-0.337605 -0.516091,-0.551603 -0.891348,-0.537788 z m 0.752176,5.982529 c -0.217487,0.01111 -0.438261,0.06166 -0.642074,0.105376 -1.782501,0.412463 -2.857968,2.413382 -2.157694,4.015606 0.199813,0.763529 1.216701,1.163628 1.086841,2.026879 0.01135,0.599437 -0.755635,0.922833 -0.646798,1.54069 0.05209,0.599437 0.849711,0.984498 1.385894,0.645709 1.252457,-0.926134 1.498162,-2.810368 0.56068,-4.017059 -0.272929,-0.335811 -0.670986,-0.630204 -0.716567,-1.082481 -0.06958,-0.498228 0.136613,-1.099215 0.65661,-1.3154 0.31665,-0.162417 0.695024,-0.137783 1.025068,-0.266713 0.591251,-0.283533 0.612461,-1.182278 0.06977,-1.521067 -0.190045,-0.114232 -0.404239,-0.142656 -0.621727,-0.13154 z m 3.525419,5.482166 c -0.206723,0.002 -0.412065,0.029 -0.611552,0.08612 -0.573393,0.217673 -0.722856,1.008638 -0.276163,1.407334 0.411161,0.389391 1.083816,0.191867 1.538512,0.517075 0.854691,0.450602 0.976443,1.672289 0.299053,2.313216 -0.389951,0.453763 -1.213341,0.320536 -1.474921,0.900068 -0.299159,0.556646 0.176649,1.283675 0.841203,1.272885 0.750692,-0.05674 1.467206,-0.394025 1.990178,-0.900069 1.449295,-1.387525 1.194145,-3.995613 -0.53924,-5.073375 -0.515439,-0.309347 -1.146902,-0.52914 -1.76707,-0.523253 z m -10.076258,1.795777 c -0.05404,2.2e-5 -0.108766,0.0069 -0.16279,0.02144 -0.70846,0.214697 -1.44255,0.458443 -2.011254,0.929138 -0.424034,0.346417 -0.376928,0.984428 0,1.346287 0.64167,0.633113 1.587351,0.864321 2.46474,1.040693 2.618962,0.424742 5.354628,0.182707 7.86624,-0.620637 0.526509,-0.216371 1.260849,-0.337331 1.441127,-0.936768 0.232371,-0.685392 -0.632058,-1.349546 -1.299775,-1.016711 -1.333759,0.573393 -2.789493,0.845051 -4.243438,0.967655 -1.355156,0.104185 -2.736107,0.06877 -4.057031,-0.260899 0.308836,-0.174511 0.727857,-0.371217 0.703485,-0.77289 0.02995,-0.363509 -0.323003,-0.697468 -0.701304,-0.697306 z m 2.377895,4.227448 c -0.03703,0.0021 -0.07488,0.0074 -0.113371,0.01635 -0.919437,0.151813 -1.878431,0.329667 -2.669681,0.821944 -0.487253,0.275905 -0.66105,0.932014 -0.28561,1.359732 0.545858,0.645577 1.452093,0.86781 2.271064,1.034879 1.858593,0.298974 3.8149,0.176548 5.59554,-0.41824 0.89525,-0.358696 0.476005,-1.824512 -0.500362,-1.668233 -1.514223,0.4493 -3.140711,0.626817 -4.710004,0.355377 0.324834,-0.13786 0.719583,-0.17608 0.986187,-0.415332 0.354764,-0.41686 -0.01829,-1.118034 -0.573763,-1.086479 z m -4.981079,2.698026 c -1.023547,0.01377 -2.033875,0.352448 -2.916046,0.833934 -0.346045,0.174883 -0.701909,0.593366 -0.375362,0.942946 0.515011,0.561112 1.321019,0.76197 2.047228,0.972016 2.471148,0.604274 5.047581,0.720807 7.590078,0.687133 2.558869,-0.07219 5.303043,-0.267169 7.457447,-1.712929 0.467719,-0.23609 0.186881,-0.968871 -0.321581,-0.909151 -0.625672,0.150323 -1.228273,0.380337 -1.860456,0.509081 -1.458782,0.380277 -2.984499,0.303533 -4.482536,0.337207 -2.717938,0.06288 -5.481414,0.01068 -8.119872,-0.670054 0.251813,-0.365021 0.68893,-0.528878 1.04796,-0.777248 z"
     style="fill:url(#linearGradient13);fill-opacity:1;stroke:url(#linearGradient16);stroke-width:0.372091;stroke-dasharray:none;stroke-opacity:1" />
</svg>
