<?xml version="1.0" encoding="UTF-8" standalone="no"?>
<!-- Generator: Gravit.io -->

<svg
   style="isolation:isolate"
   viewBox="0 0 48 48"
   width="48pt"
   height="48pt"
   version="1.1"
   id="svg3"
   sodipodi:docname="text-xml.svg"
   inkscape:version="1.3.2 (091e20ef0f, 2023-11-25, custom)"
   xmlns:inkscape="http://www.inkscape.org/namespaces/inkscape"
   xmlns:sodipodi="http://sodipodi.sourceforge.net/DTD/sodipodi-0.dtd"
   xmlns:xlink="http://www.w3.org/1999/xlink"
   xmlns="http://www.w3.org/2000/svg"
   xmlns:svg="http://www.w3.org/2000/svg">
  <sodipodi:namedview
     id="namedview1"
     pagecolor="#ffffff"
     bordercolor="#666666"
     borderopacity="1.0"
     inkscape:showpageshadow="2"
     inkscape:pageopacity="0.0"
     inkscape:pagecheckerboard="0"
     inkscape:deskcolor="#d1d1d1"
     inkscape:document-units="pt"
     inkscape:zoom="5.875"
     inkscape:cx="18.382979"
     inkscape:cy="13.446809"
     inkscape:current-layer="svg3" />
  <defs
     id="defs3">
    <linearGradient
       id="linearGradient1"
       inkscape:collect="always">
      <stop
         style="stop-color:#67ff80;stop-opacity:1;"
         offset="0"
         id="stop11" />
      <stop
         style="stop-color:#00aa93;stop-opacity:1;"
         offset="1"
         id="stop13" />
    </linearGradient>
    <linearGradient
       inkscape:collect="always"
       xlink:href="#linearGradient1"
       id="linearGradient2"
       gradientTransform="scale(0.94156543,1.0620611)"
       x1="8.6061716"
       y1="45.195141"
       x2="48.087036"
       y2="22.59757"
       gradientUnits="userSpaceOnUse" />
    <linearGradient
       inkscape:collect="always"
       xlink:href="#linearGradient1"
       id="linearGradient3"
       gradientTransform="scale(1.2171996,0.82155795)"
       x1="6.6573086"
       y1="58.425579"
       x2="37.197754"
       y2="29.21279"
       gradientUnits="userSpaceOnUse" />
  </defs>
  <path
     d="m 8.1032733,0 c -2.969455,0 -5.380364,2.410909 -5.380364,5.380364 v 22.048364 0 c 0,1.26109 0.907636,2.285454 2.025818,2.285454 v 0 c 1.118182,0 2.026909,-1.024364 2.026909,-2.285454 v 0 0 0 V 7.8 c 0,-1.782545 1.446546,-3.729 3.2280007,-3.729 h 27.992726 c 1.781456,0 3.228,1.946455 3.228,3.729 v 3.628364 0 c 0,1.262182 0.908728,2.285454 2.02691,2.285454 v 0 c 1.118182,0 2.025818,-1.023272 2.025818,-2.285454 v 0 -6.048 C 45.277091,2.410909 42.866181,0 39.896727,0 Z m 4.9393127,43.928955 c 0.737617,0.0049 1.838505,0.523409 1.838505,1.785591 v 0 C 14.881091,46.975636 13.973455,48 12.854181,48 v 0 H 8.1032733 c -2.969455,0 -5.380364,-2.41091 -5.380364,-5.380364 v -6.048 0 c 0,-1.262182 0.907636,-2.285454 2.025818,-2.285454 v 0 c 1.118182,0 2.026909,1.023272 2.026909,2.285454 v 0 V 40.2 c 0,1.782546 1.446546,3.729045 3.2280007,3.729045 1.012711,0.0042 2.301332,-0.005 3.038949,-9e-5 z M 41.224363,21.714546 v 0 c 0,-1.262182 0.908728,-2.285456 2.02691,-2.285456 v 0 c 1.118182,0 2.025818,1.023274 2.025818,2.285456 v 0 20.90509 C 45.277091,45.58909 42.866181,48 39.896727,48 H 21.973091 v 0 c -1.118182,0 -2.025818,-1.024364 -2.025818,-2.285454 v 0 c 0,-1.262182 2.025818,-1.785501 2.025818,-1.785501 v 0 h 16.023272 c 1.781456,0 3.228,-1.946499 3.228,-3.729045 z"
     fill-rule="evenodd"
     id="path3"
     sodipodi:nodetypes="sscsssscccsssscsssscssszssscsscsssscsszscsssscsscsssscss"
     style="fill:url(#linearGradient2);stroke-width:1.0909;fill-opacity:1" />
  <path
     d="m 16.287915,23.313156 c 1.281643,0.625687 1.9224,1.904422 1.9224,3.836002 0,2.557054 0.124,4.085055 0.372211,4.583791 0.248,0.489896 0.640632,0.734737 1.178315,0.734737 l -0.0798,2.706738 c -0.791368,0.281263 -1.529894,0.421685 -2.21484,0.421685 -1.258046,0 -2.235495,-0.485054 -2.932443,-1.455371 -0.696923,-0.970525 -1.045408,-2.389683 -1.045408,-4.257684 v -0.312843 c 0,-1.215158 -0.0502,-2.062947 -0.15061,-2.543578 -0.194879,-0.94337 -0.640817,-1.414527 -1.337742,-1.414527 V 21.55842 c 0.673304,0 1.116274,-0.385472 1.328884,-1.15621 0.147663,-0.544211 0.239222,-1.247159 0.274654,-2.108422 0.04135,-0.870737 0.07973,-1.559791 0.115173,-2.06758 0.07677,-1.079158 0.324843,-1.986106 0.744168,-2.720422 0.425264,-0.734736 1.184213,-1.101895 2.276842,-1.101895 0.147663,0 0.679222,0.01348 1.594591,0.04063 0.915579,0.02737 1.387999,0.04548 1.417684,0.05453 L 20.044416,15.954 c -0.957054,0 -1.559369,0.467157 -1.807579,1.401052 -0.141644,0.535159 -0.239096,1.288002 -0.292232,2.258107 -0.04725,0.961472 -0.109254,1.659579 -0.186063,2.094947 -0.07675,0.43537 -0.236252,0.802317 -0.47838,1.101685 -0.242167,0.290102 -0.572906,0.457894 -0.992252,0.503365 z m 9.142823,5.617899 v 3.971579 l -0.03537,1.047579 h -3.508421 c -0.01173,-0.344632 -0.01768,-0.974947 -0.01768,-1.890738 v -3.169263 h 3.00316 z M 28.31874,12.607892 c 0.100427,-0.0362 0.570104,-0.07705 1.408841,-0.12252 0.844421,-0.05432 1.482528,-0.08147 1.913475,-0.08147 1.671579,0 2.598738,1.052 2.781895,3.155579 0.05916,0.643999 0.08863,1.423999 0.08863,2.339787 v 0.312844 c 0,1.215158 0.05011,2.063158 0.150525,2.543578 0.194948,0.943368 0.640843,1.414949 1.337895,1.414949 v 4.05326 c -0.637895,0.0091 -1.072211,0.403579 -1.302316,1.183579 -0.135999,0.462316 -0.26,1.156211 -0.37221,2.081054 -0.112213,0.916 -0.212632,1.627788 -0.301264,2.135578 -0.189053,1.097475 -0.578737,2.017896 -1.169475,2.761475 -0.584632,0.74358 -1.523577,1.11537 -2.817054,1.11537 -0.537681,0 -1.134101,-0.07263 -1.789681,-0.217684 l -0.292212,-3.454953 c 0.962526,0 1.541264,-0.462737 1.736211,-1.387368 0.08863,-0.417264 0.141896,-0.879791 0.159578,-1.387581 0.01768,-0.50779 0.03243,-1.024841 0.04421,-1.550527 0.01769,-0.526105 0.068,-1.015789 0.150736,-1.469473 0.08275,-0.453052 0.25979,-0.847579 0.531369,-1.183158 0.277684,-0.335579 0.65579,-0.553264 1.134104,-0.653053 -0.708841,-0.144843 -1.207999,-0.507579 -1.497052,-1.088211 -0.28358,-0.580422 -0.425473,-1.387369 -0.425473,-2.421262 0,-1.033686 -0.006,-1.741055 -0.01769,-2.121686 -0.02947,-1.269896 -0.135788,-2.085896 -0.318946,-2.448634 -0.271579,-0.544209 -0.67621,-0.811577 -1.213684,-0.802315 z"
     id="path2-3"
     style="display:none;isolation:isolate;fill:url(#linearGradient1);stroke-width:0.210525" />
  <path
     d="m 12.007478,24.052811 c 0.01769,-0.09473 0.122599,-0.135636 0.20698,-0.182181 0.512437,-0.28291 1.466547,-0.737819 2.86231,-1.36491 1.526328,-0.689454 2.395418,-1.083818 2.607272,-1.18309 0.216673,-0.09927 0.368346,-0.14891 0.455018,-0.14891 0.08666,0 0.1324,0.038 0.137237,0.114 0.08409,1.309455 0.174982,2.239455 0.272672,2.789819 0.0059,0.03291 0.0097,0.06636 0.0073,0.09982 -0.003,0.04091 -0.0098,0.07364 -0.02064,0.098 -0.02356,0.05309 -0.09144,0.06527 -0.1446,0.08891 l -2.1698,0.969454 c -0.397199,0.177455 -0.434345,0.720727 -0.06404,0.949091 0.209401,0.129091 0.455946,0.280909 0.739618,0.455636 0.963,0.584364 1.495037,0.911455 1.596146,0.981455 0.101109,0.06436 0.151691,0.111091 0.151691,0.140182 0,0.01491 -0.0012,0.03182 -0.0037,0.05109 -0.0054,0.04218 -0.01991,0.08218 -0.03736,0.120909 -0.2406,0.533454 -0.532655,1.422545 -0.8762,2.667636 -0.03371,0.110909 -0.09389,0.166546 -0.180582,0.166546 -0.08184,0 -0.173309,-0.03509 -0.274435,-0.105273 l -4.995838,-3.533091 c -0.03971,-0.02818 -0.07814,-0.06036 -0.09754,-0.104909 -0.023,-0.05291 -0.03451,-0.119636 -0.03451,-0.200364 0,-0.753818 -0.02407,-1.405091 -0.07222,-1.954363 -0.04814,-0.554909 -0.07223,-0.835455 -0.07223,-0.841273 v -0.01745 c 0.0018,-0.02091 0.0043,-0.03964 0.0075,-0.05673 z M 27.593113,17.720812 21.938386,31.75772 c -0.103091,0.256182 -0.381637,0.39491 -0.648182,0.322728 L 19.82184,31.683357 c -0.315273,-0.08509 -0.485091,-0.427091 -0.363454,-0.730182 2.684727,-6.692182 4.694909,-11.600182 6.030181,-14.723818 0.105637,-0.247273 0.375455,-0.378364 0.635819,-0.311455 l 1.353454,0.348182 c 0.323091,0.08309 0.496546,0.434 0.366364,0.741091 l -0.01273,0.03 z m 8.404364,6.365272 c 0.002,0.01564 0.0025,0.03127 0.0025,0.04709 0,0.0056 0,0.01236 0,0.02018 -0.09636,1.092546 -0.146727,2.015455 -0.151636,2.769273 0,0.134364 -0.03145,0.227636 -0.09382,0.280364 l -5.034181,3.558 c -0.134728,0.07018 -0.235819,0.105272 -0.303273,0.105272 -0.06745,0 -0.120364,-0.06164 -0.158909,-0.184182 -0.03855,-0.122545 -0.146909,-0.484909 -0.325091,-1.086545 -0.172,-0.581818 -0.355455,-1.105818 -0.55,-1.572909 -0.01346,-0.03236 -0.02473,-0.06564 -0.02964,-0.100182 -0.0036,-0.02582 -0.0053,-0.04945 -0.0053,-0.07109 0,-0.04073 0.05054,-0.09036 0.151636,-0.148909 0.987273,-0.600545 1.761818,-1.072727 2.323455,-1.416182 0.373272,-0.228363 0.336363,-0.779091 -0.06309,-0.957636 l -2.158364,-0.964182 c -0.05309,-0.02382 -0.121091,-0.03582 -0.144727,-0.08909 -0.01073,-0.02436 -0.01764,-0.05709 -0.02055,-0.098 -0.0024,-0.03346 0.0015,-0.06691 0.0073,-0.09982 0.09764,-0.550364 0.188727,-1.480545 0.272727,-2.789818 0.0049,-0.076 0.05055,-0.114 0.137273,-0.114 0.08655,0 0.235818,0.04964 0.447818,0.148909 0.216728,0.09927 1.085637,0.493636 2.607091,1.183091 1.400182,0.627091 2.356728,1.082 2.869637,1.364909 0.08436,0.04655 0.193091,0.08291 0.212909,0.177273 0.0025,0.01182 0.0045,0.02454 0.0062,0.03818 z"
     id="path2"
     style="fill:url(#linearGradient3);fill-opacity:1;stroke-width:0.181818" />
</svg>
