<?xml version="1.0" encoding="UTF-8" standalone="no"?>
<!-- Generator: Gravit.io -->

<svg
   style="isolation:isolate"
   viewBox="0 0 48 48"
   width="48pt"
   height="48pt"
   version="1.1"
   id="svg3"
   sodipodi:docname="video-x-generic.svg"
   inkscape:version="1.3.2 (091e20ef0f, 2023-11-25, custom)"
   xmlns:inkscape="http://www.inkscape.org/namespaces/inkscape"
   xmlns:sodipodi="http://sodipodi.sourceforge.net/DTD/sodipodi-0.dtd"
   xmlns:xlink="http://www.w3.org/1999/xlink"
   xmlns="http://www.w3.org/2000/svg"
   xmlns:svg="http://www.w3.org/2000/svg">
  <defs
     id="defs3">
    <linearGradient
       id="linearGradient11"
       x1="0.50555557"
       y1="-0.047222223"
       x2="0.50555557"
       y2="0.96764994"
       gradientTransform="matrix(45,0,0,45,3.044823,0.096004)"
       gradientUnits="userSpaceOnUse">
      <stop
         offset="0"
         stop-opacity="1"
         style="stop-color:#e5f230;stop-opacity:1;"
         id="stop9" />
      <stop
         offset="1"
         stop-opacity="1"
         style="stop-color:#24d864;stop-opacity:1;"
         id="stop10" />
    </linearGradient>
    <linearGradient
       id="linearGradient4"
       x1="0.50555557"
       y1="-0.047222223"
       x2="0.50555557"
       y2="0.96764994"
       gradientTransform="matrix(45,0,0,45,3.044823,0.096004)"
       gradientUnits="userSpaceOnUse">
      <stop
         offset="0"
         stop-opacity="1"
         style="stop-color:#e5f230;stop-opacity:1;"
         id="stop2" />
      <stop
         offset="1"
         stop-opacity="1"
         style="stop-color:#24d864;stop-opacity:1;"
         id="stop4" />
    </linearGradient>
    <linearGradient
       id="linearGradient14"
       x1="0.50555557"
       y1="-0.047222223"
       x2="0.50555557"
       y2="0.96764994"
       gradientTransform="matrix(45,0,0,45,3.044823,0.096004)"
       gradientUnits="userSpaceOnUse">
      <stop
         offset="0"
         stop-opacity="1"
         style="stop-color:#f069ff;stop-opacity:1;"
         id="stop12" />
      <stop
         offset="1"
         stop-opacity="1"
         style="stop-color:#9000ff;stop-opacity:1;"
         id="stop14" />
    </linearGradient>
    <linearGradient
       inkscape:collect="always"
       xlink:href="#linearGradient14"
       id="linearGradient20"
       x1="9.4280005"
       y1="46"
       x2="43.504002"
       y2="24"
       gradientUnits="userSpaceOnUse" />
    <linearGradient
       inkscape:collect="always"
       xlink:href="#linearGradient14"
       id="linearGradient22"
       x1="9.4280005"
       y1="46"
       x2="43.504002"
       y2="24"
       gradientUnits="userSpaceOnUse" />
    <linearGradient
       id="paint2_linear_451_3184"
       x1="1.2064381"
       y1="20.261198"
       x2="20.867905"
       y2="10.762671"
       gradientUnits="userSpaceOnUse">
      <stop
         stop-color="#A93AFF"
         id="stop7"
         offset="0"
         style="stop-color:#c900ff;stop-opacity:1;" />
      <stop
         offset="1"
         stop-color="#FF81FF"
         id="stop8"
         style="stop-color:#6444ff;stop-opacity:1;" />
    </linearGradient>
    <linearGradient
       id="paint2_linear_451_3184-5"
       x1="1.2064381"
       y1="20.261198"
       x2="20.867905"
       y2="10.762671"
       gradientUnits="userSpaceOnUse">
      <stop
         stop-color="#A93AFF"
         id="stop7-3"
         offset="0"
         style="stop-color:#c900ff;stop-opacity:1;" />
      <stop
         offset="1"
         stop-color="#FF81FF"
         id="stop8-5"
         style="stop-color:#6444ff;stop-opacity:1;" />
    </linearGradient>
    <linearGradient
       id="paint1_linear_451_3184"
       x1="1.2064381"
       y1="20.261198"
       x2="20.80998"
       y2="10.68973"
       gradientUnits="userSpaceOnUse">
      <stop
         stop-color="#A93AFF"
         id="stop5"
         offset="0"
         style="stop-color:#c900ff;stop-opacity:1;" />
      <stop
         offset="1"
         stop-color="#FF81FF"
         id="stop6"
         style="stop-color:#6444ff;stop-opacity:1;" />
    </linearGradient>
    <linearGradient
       inkscape:collect="always"
       xlink:href="#linearGradient6165"
       id="linearGradient5722"
       gradientUnits="userSpaceOnUse"
       gradientTransform="matrix(64.512049,0,0,51.955609,-21.550266,-10.38803)"
       x1="0.45965892"
       y1="1.1238061"
       x2="1.0358895"
       y2="0.66187328" />
    <linearGradient
       inkscape:collect="always"
       id="linearGradient6165">
      <stop
         style="stop-color:#e5f230;stop-opacity:1;"
         offset="0"
         id="stop6161" />
      <stop
         style="stop-color:#54d864;stop-opacity:1;"
         offset="1"
         id="stop6163" />
    </linearGradient>
    <linearGradient
       id="linearGradient1"
       x1="-16.808336"
       y1="186.00021"
       x2="172.15887"
       y2="64.000015"
       gradientUnits="userSpaceOnUse"
       gradientTransform="matrix(0.196721,0,0,0.196721,11.409826,11.409853)">
      <stop
         id="stop1-9"
         offset="0"
         style="stop-color:#e5f230;stop-opacity:1;" />
      <stop
         offset="1"
         id="stop2-4"
         style="stop-color:#24d864;stop-opacity:1;" />
    </linearGradient>
  </defs>
  <sodipodi:namedview
     id="namedview3"
     pagecolor="#ffffff"
     bordercolor="#666666"
     borderopacity="1.0"
     inkscape:showpageshadow="2"
     inkscape:pageopacity="0.0"
     inkscape:pagecheckerboard="0"
     inkscape:deskcolor="#d1d1d1"
     inkscape:document-units="pt"
     inkscape:zoom="6.6180775"
     inkscape:cx="-10.879292"
     inkscape:cy="28.407041"
     inkscape:current-layer="svg3" />
  <linearGradient
     id="_lgradient_2"
     x1="0.87354201"
     y1="1"
     x2="0"
     y2="0.5"
     gradientTransform="matrix(-42.555273,0,0,48,45.277091,0)"
     gradientUnits="userSpaceOnUse"
     spreadMethod="pad">
    <stop
       offset="0"
       stop-opacity="1"
       style="stop-color:#e5f230;stop-opacity:1;"
       id="stop1" />
    <stop
       offset="1"
       stop-opacity="1"
       style="stop-color:#24d864;stop-opacity:1;"
       id="stop3" />
  </linearGradient>
  <path
     d="m 39.896727,0 c 2.969455,0 5.380364,2.410909 5.380364,5.380364 v 22.048364 0 c 0,1.26109 -0.907636,2.285454 -2.025818,2.285454 v 0 c -1.118182,0 -2.026909,-1.024364 -2.026909,-2.285454 v 0 0 0 V 7.8 c 0,-1.782545 -1.446546,-3.729 -3.228001,-3.729 H 10.003637 C 8.2221813,4.071 6.7756373,6.017455 6.7756373,7.8 v 3.628364 0 c 0,1.262182 -0.908728,2.285454 -2.02691,2.285454 v 0 c -1.118182,0 -2.025818,-1.023272 -2.025818,-2.285454 v 0 -6.048 C 2.7229093,2.410909 5.1338193,0 8.1032733,0 Z m -4.939313,43.928955 c -0.737617,0.0049 -1.838505,0.523409 -1.838505,1.785591 v 0 c 0,1.26109 0.907636,2.285454 2.02691,2.285454 v 0 h 4.750908 c 2.969455,0 5.380364,-2.41091 5.380364,-5.380364 v -6.048 0 c 0,-1.262182 -0.907636,-2.285454 -2.025818,-2.285454 v 0 c -1.118182,0 -2.026909,1.023272 -2.026909,2.285454 v 0 V 40.2 c 0,1.782546 -1.446546,3.729045 -3.228001,3.729045 -1.012711,0.0042 -2.301332,-0.005 -3.038949,-9e-5 z M 6.7756373,21.714546 v 0 c 0,-1.262182 -0.908728,-2.285456 -2.02691,-2.285456 v 0 c -1.118182,0 -2.025818,1.023274 -2.025818,2.285456 v 0 20.90509 C 2.7229093,45.58909 5.1338193,48 8.1032733,48 H 26.026909 v 0 c 1.118182,0 2.025818,-1.024364 2.025818,-2.285454 v 0 c 0,-1.262182 -2.025818,-1.785501 -2.025818,-1.785501 v 0 H 10.003637 c -1.7814557,0 -3.2279997,-1.946499 -3.2279997,-3.729045 z"
     fill-rule="evenodd"
     fill="url(#_lgradient_2)"
     id="path3"
     sodipodi:nodetypes="sscsssscccsssscsssscssszssscsscsssscsszscsssscsscsssscss"
     style="fill:url(#_lgradient_2);stroke-width:1.0909" />
  <path
     id="path7768"
     style="color:#000000;display:none;isolation:isolate;fill:url(#linearGradient5722);fill-rule:evenodd;stroke-width:0.210533;-inkscape-stroke:none"
     d="M 15.431918,13.399552 C 13.538912,13.399552 12,14.940551 12,16.834821 v 14.330358 c 0,1.894267 1.538912,3.435269 3.431918,3.435269 h 4.610492 c 0.293189,0 0.574329,-0.100115 0.78683,-0.287948 0.208777,-0.183977 0.331474,-0.441618 0.331474,-0.709822 0,-0.26821 -0.122697,-0.525837 -0.331474,-0.709821 -0.212503,-0.187817 -0.493639,-0.291296 -0.78683,-0.291296 h -3.535715 c -1.25419,0 -2.270089,-1.014855 -2.270089,-2.270087 V 17.668526 c 0,-1.256697 1.015899,-2.273438 2.270089,-2.273438 h 14.98661 c 1.25419,0 2.270087,1.016739 2.270087,2.273438 v 12.662948 c 0,1.255232 -1.015897,2.270087 -2.270087,2.270087 H 27.95759 c -0.293191,0 -0.574329,0.103474 -0.786832,0.291296 -0.208777,0.183977 -0.331472,0.441611 -0.331472,0.709821 0,0.268204 0.122697,0.525834 0.331472,0.709822 0.212503,0.187817 0.493641,0.287948 0.786832,0.287948 h 4.61049 C 34.461088,34.600448 36,33.059446 36,31.165179 V 16.834821 c 0,-1.89427 -1.538912,-3.435269 -3.43192,-3.435269 z m 4.80134,5.330357 c -0.599335,0.0096 -1.124999,0.284135 -1.124999,0.796876 v 4.439733 4.43973 c 0.0053,0.484307 0.83787,1.342663 2.183036,0.522323 l 7.282366,-4.439733 c 0.424295,-0.273079 0.426082,-0.770464 0,-1.044643 l -7.282366,-4.439733 c -0.312215,-0.1904 -0.698435,-0.280317 -1.058037,-0.274553 z m 0.452009,1.503349 5.799107,3.73326 -5.799107,3.736606 v -3.736606 z" />
  <path
     d="m 12.949051,17.339811 c -0.508966,0.0056 -0.944636,0.466602 -0.937721,0.979434 -0.0069,1.430614 -0.02489,2.862625 0.0069,4.291842 -0.0166,1.375965 0,2.75195 -0.0097,4.127895 -0.01936,0.798688 0.326405,1.555316 0.751011,2.209689 0.04979,0.06305 0.149375,0.19196 0.199165,0.255009 0.477154,0.519835 1.063599,0.934602 1.723323,1.178418 0.84832,0.31137 1.758705,0.304268 2.649851,0.297304 l 0.03331,-2.62e-4 c 1.008274,-0.0028 2.016528,0.02243 3.026159,0 1.146549,0.0042 2.293157,-0.0098 3.439726,-0.0098 1.033159,0.0014 2.064941,-0.01961 3.0981,-0.0042 0.450865,0.05465 0.894845,-0.135914 1.188057,-0.483422 0.638989,-0.763632 0.334701,-1.839755 0.385888,-2.75193 -0.132787,-0.601101 -0.915618,-0.920576 -1.391388,-0.503016 -0.551842,0.4932 -0.255855,1.332529 -0.318098,1.982673 -0.591972,0 -1.183926,0.0014 -1.775879,0 -1.152116,0.01824 -2.304232,0.0042 -3.456329,0.01961 -0.999952,-0.01261 -2.001282,0.01963 -3.001254,0.0042 -0.94188,-0.02662 -1.887892,0.04204 -2.825622,-0.06584 -0.863034,-0.161154 -1.644469,-0.765048 -1.905872,-1.630995 l -0.06917,-0.198983 c -0.05254,-1.560902 -0.0069,-3.126034 -0.02213,-4.688353 l -5.9e-5,-0.0095 c -0.0055,-1.088379 -0.011,-2.175341 -0.0068,-3.262323 0.78834,-0.0014 1.576699,0 2.366436,-0.0014 1.10925,-0.0056 2.218462,-0.01261 3.32907,-0.0098 0.925277,0 1.850554,0.0014 2.777208,0 0.954333,0.03081 1.922496,-0.0827 2.86713,0.105089 0.243403,0.08546 0.478544,0.198944 0.697062,0.336274 0.495146,0.320852 0.818792,0.846314 0.972313,1.412398 0.09543,1.09853 0.0166,2.202666 0.04979,3.304008 0.0028,0.180747 0.0567,0.355888 0.139691,0.514229 0.109259,0.09388 0.218538,0.186354 0.33057,0.277435 0.585029,0.186354 1.217094,-0.05046 1.792443,0.128912 0.150767,0.270412 0.04564,0.610917 0.08298,0.909362 -0.0028,0.248006 0.09822,0.480609 0.183954,0.709022 0.08575,0.105088 0.175633,0.20876 0.268308,0.309659 1.295959,1.004634 2.670861,1.90001 3.99558,2.866815 0.442819,0.313868 0.930884,0.711815 1.510424,0.60533 0.540786,-0.07987 0.92931,-0.610937 0.900392,-1.154575 0.01534,-3.40772 -0.0041,-6.815399 0.0055,-10.223079 0.0027,-0.344695 -0.01239,-0.689389 -0.06079,-1.03129 -0.08852,-0.163928 -0.200655,-0.313849 -0.302753,-0.468 -0.441442,-0.316661 -1.0499,-0.341881 -1.493899,-0.0154 -1.063474,0.780452 -2.092521,1.608549 -3.149267,2.398836 -0.235102,0.18777 -0.52556,0.362911 -0.60714,0.678176 -0.120335,0.350301 0.03319,0.725802 0.282137,0.975225 0.311193,0.127514 0.6887,0.256425 0.986143,0.02101 0.889375,-0.654333 1.742554,-1.357748 2.614028,-2.034508 v 2.17e-4 c -0.0028,0.179271 -0.0055,0.358563 -0.0055,0.539231 0.0055,2.681878 -0.0014,5.365153 0,8.04703 -1.042818,-0.728615 -2.07757,-1.471256 -3.121569,-2.198475 -0.09415,-0.07706 -0.18958,-0.148505 -0.290517,-0.215764 0.02073,-0.37973 0.03734,-0.759461 0.04285,-1.140588 -0.01523,-0.271809 -0.05669,-0.540845 -0.117541,-0.805671 -0.143843,-0.243796 -0.373436,-0.469415 -0.672176,-0.467999 -0.544937,-0.03222 -1.089854,0 -1.633414,-0.02382 l 0.04841,-0.05746 c -0.02211,-1.338116 0.177049,-2.78134 -0.542163,-3.986354 -0.445357,-0.725842 -1.095402,-1.360582 -1.894836,-1.65763 l -0.09958,-0.05742 c -0.815998,-0.374124 -1.732974,-0.357305 -2.608461,-0.348905 -0.915599,0.0084 -1.831236,-0.01682 -2.745419,0 h -3.341502 c -1.446706,0.0238 -2.892016,-0.0098 -4.337343,0.02241 z"
     id="path1"
     style="fill:url(#linearGradient1);stroke-width:0.196721" />
</svg>
