<?xml version="1.0" encoding="UTF-8" standalone="no"?>
<!-- Generator: Gravit.io -->

<svg
   style="isolation:isolate"
   viewBox="0 0 48 48"
   width="48pt"
   height="48pt"
   version="1.1"
   id="svg3"
   sodipodi:docname="text-html.svg"
   inkscape:version="1.3.2 (091e20ef0f, 2023-11-25, custom)"
   xmlns:inkscape="http://www.inkscape.org/namespaces/inkscape"
   xmlns:sodipodi="http://sodipodi.sourceforge.net/DTD/sodipodi-0.dtd"
   xmlns:xlink="http://www.w3.org/1999/xlink"
   xmlns="http://www.w3.org/2000/svg"
   xmlns:svg="http://www.w3.org/2000/svg">
  <defs
     id="defs3">
    <linearGradient
       id="linearGradient11"
       x1="0.50555557"
       y1="-0.047222223"
       x2="0.50555557"
       y2="0.96764994"
       gradientTransform="matrix(45,0,0,45,3.044823,0.096004)"
       gradientUnits="userSpaceOnUse">
      <stop
         offset="0"
         stop-opacity="1"
         style="stop-color:#e5f230;stop-opacity:1;"
         id="stop9" />
      <stop
         offset="1"
         stop-opacity="1"
         style="stop-color:#24d864;stop-opacity:1;"
         id="stop10" />
    </linearGradient>
    <linearGradient
       id="linearGradient4"
       x1="0.50555557"
       y1="-0.047222223"
       x2="0.50555557"
       y2="0.96764994"
       gradientTransform="matrix(45,0,0,45,3.044823,0.096004)"
       gradientUnits="userSpaceOnUse">
      <stop
         offset="0"
         stop-opacity="1"
         style="stop-color:#e5f230;stop-opacity:1;"
         id="stop2" />
      <stop
         offset="1"
         stop-opacity="1"
         style="stop-color:#24d864;stop-opacity:1;"
         id="stop4" />
    </linearGradient>
    <linearGradient
       id="linearGradient14"
       x1="0.50555557"
       y1="-0.047222223"
       x2="0.50555557"
       y2="0.96764994"
       gradientTransform="matrix(45,0,0,45,3.044823,0.096004)"
       gradientUnits="userSpaceOnUse">
      <stop
         offset="0"
         stop-opacity="1"
         style="stop-color:#f069ff;stop-opacity:1;"
         id="stop12" />
      <stop
         offset="1"
         stop-opacity="1"
         style="stop-color:#9000ff;stop-opacity:1;"
         id="stop14" />
    </linearGradient>
    <linearGradient
       inkscape:collect="always"
       xlink:href="#linearGradient14"
       id="linearGradient20"
       x1="9.4280005"
       y1="46"
       x2="43.504002"
       y2="24"
       gradientUnits="userSpaceOnUse" />
    <linearGradient
       inkscape:collect="always"
       xlink:href="#linearGradient14"
       id="linearGradient22"
       x1="9.4280005"
       y1="46"
       x2="43.504002"
       y2="24"
       gradientUnits="userSpaceOnUse" />
    <linearGradient
       id="paint2_linear_451_3184"
       x1="1.2064381"
       y1="20.261198"
       x2="20.867905"
       y2="10.762671"
       gradientUnits="userSpaceOnUse">
      <stop
         stop-color="#A93AFF"
         id="stop7"
         offset="0"
         style="stop-color:#c900ff;stop-opacity:1;" />
      <stop
         offset="1"
         stop-color="#FF81FF"
         id="stop8"
         style="stop-color:#6444ff;stop-opacity:1;" />
    </linearGradient>
    <linearGradient
       id="paint2_linear_451_3184-5"
       x1="1.2064381"
       y1="20.261198"
       x2="20.867905"
       y2="10.762671"
       gradientUnits="userSpaceOnUse">
      <stop
         stop-color="#A93AFF"
         id="stop7-3"
         offset="0"
         style="stop-color:#c900ff;stop-opacity:1;" />
      <stop
         offset="1"
         stop-color="#FF81FF"
         id="stop8-5"
         style="stop-color:#6444ff;stop-opacity:1;" />
    </linearGradient>
    <linearGradient
       id="paint1_linear_451_3184"
       x1="1.2064381"
       y1="20.261198"
       x2="20.80998"
       y2="10.68973"
       gradientUnits="userSpaceOnUse">
      <stop
         stop-color="#A93AFF"
         id="stop5"
         offset="0"
         style="stop-color:#c900ff;stop-opacity:1;" />
      <stop
         offset="1"
         stop-color="#FF81FF"
         id="stop6"
         style="stop-color:#6444ff;stop-opacity:1;" />
    </linearGradient>
    <linearGradient
       id="_lgradient_2-9"
       x1="0.12643236"
       y1="1"
       x2="0.99997437"
       y2="0.5"
       gradientTransform="matrix(39.009,0,0,44,4.496,2)"
       gradientUnits="userSpaceOnUse"
       spreadMethod="pad">
      <stop
         offset="0"
         stop-opacity="1"
         style="stop-color:#f069ff;stop-opacity:1;"
         id="stop1-1" />
      <stop
         offset="1"
         stop-opacity="1"
         style="stop-color:#9000ff;stop-opacity:1;"
         id="stop3-2" />
    </linearGradient>
    <linearGradient
       id="linearGradient1-7"
       inkscape:collect="always">
      <stop
         style="stop-color:#ff69ff;stop-opacity:1;"
         offset="0"
         id="stop19" />
      <stop
         style="stop-color:#9033dd;stop-opacity:1;"
         offset="1"
         id="stop22" />
    </linearGradient>
    <linearGradient
       inkscape:collect="always"
       xlink:href="#linearGradient1-7"
       id="linearGradient13"
       x1="8.1032734"
       y1="48"
       x2="45.277092"
       y2="24"
       gradientUnits="userSpaceOnUse" />
    <linearGradient
       id="paint0_linear"
       x1="32.701672"
       y1="62.094521"
       x2="62.21664"
       y2="31.799997"
       gradientUnits="userSpaceOnUse"
       gradientTransform="matrix(0.3961112,0,0,0.3961112,19.737712,0.9036651)">
      <stop
         stop-color="#5558ff"
         id="stop3240"
         offset="0"
         style="stop-color:#ff69ff;stop-opacity:1;" />
      <stop
         offset="0.99989998"
         stop-color="#00E0FF"
         id="stop3242"
         style="stop-color:#9033dd;stop-opacity:1;" />
    </linearGradient>
    <linearGradient
       inkscape:collect="always"
       xlink:href="#linearGradient1-7"
       id="linearGradient16"
       x1="16.794479"
       y1="37.5"
       x2="53.9683"
       y2="13.5"
       gradientUnits="userSpaceOnUse"
       gradientTransform="translate(-8.691207,10.5)" />
  </defs>
  <sodipodi:namedview
     id="namedview3"
     pagecolor="#ffffff"
     bordercolor="#666666"
     borderopacity="1.0"
     inkscape:showpageshadow="2"
     inkscape:pageopacity="0.0"
     inkscape:pagecheckerboard="0"
     inkscape:deskcolor="#d1d1d1"
     inkscape:document-units="pt"
     inkscape:zoom="9.359375"
     inkscape:cx="15.706177"
     inkscape:cy="27.459098"
     inkscape:current-layer="svg3" />
  <linearGradient
     id="_lgradient_2"
     x1="0.12643237"
     y1="1"
     x2="0.99997437"
     y2="0.5"
     gradientTransform="matrix(42.555273,0,0,48,2.7229093,0)"
     gradientUnits="userSpaceOnUse"
     spreadMethod="pad">
    <stop
       offset="0"
       stop-opacity="1"
       style="stop-color:#ff69ff;stop-opacity:1;"
       id="stop1" />
    <stop
       offset="1"
       stop-opacity="1"
       style="stop-color:#9033dd;stop-opacity:1;"
       id="stop3" />
  </linearGradient>
  <path
     d="m 8.1032733,0 c -2.969455,0 -5.380364,2.410909 -5.380364,5.380364 v 22.048364 0 c 0,1.26109 0.907636,2.285454 2.025818,2.285454 v 0 c 1.118182,0 2.026909,-1.024364 2.026909,-2.285454 v 0 0 0 V 7.8 c 0,-1.782545 1.446546,-3.729 3.2280007,-3.729 h 27.992726 c 1.781456,0 3.228,1.946455 3.228,3.729 v 3.628364 0 c 0,1.262182 0.908728,2.285454 2.02691,2.285454 v 0 c 1.118182,0 2.025818,-1.023272 2.025818,-2.285454 v 0 -6.048 C 45.277091,2.410909 42.866181,0 39.896727,0 Z m 4.9393127,43.928955 c 0.737617,0.0049 1.838505,0.523409 1.838505,1.785591 v 0 C 14.881091,46.975636 13.973455,48 12.854181,48 v 0 H 8.1032733 c -2.969455,0 -5.380364,-2.41091 -5.380364,-5.380364 v -6.048 0 c 0,-1.262182 0.907636,-2.285454 2.025818,-2.285454 v 0 c 1.118182,0 2.026909,1.023272 2.026909,2.285454 v 0 V 40.2 c 0,1.782546 1.446546,3.729045 3.2280007,3.729045 1.012711,0.0042 2.301332,-0.005 3.038949,-9e-5 z M 41.224363,21.714546 v 0 c 0,-1.262182 0.908728,-2.285456 2.02691,-2.285456 v 0 c 1.118182,0 2.025818,1.023274 2.025818,2.285456 v 0 20.90509 C 45.277091,45.58909 42.866181,48 39.896727,48 H 21.973091 v 0 c -1.118182,0 -2.025818,-1.024364 -2.025818,-2.285454 v 0 c 0,-1.262182 2.025818,-1.785501 2.025818,-1.785501 v 0 h 16.023272 c 1.781456,0 3.228,-1.946499 3.228,-3.729045 z"
     fill-rule="evenodd"
     id="path3"
     sodipodi:nodetypes="sscsssscccsssscsssscssszssscsscsssscsszscsssscsscsssscss"
     style="fill:url(#_lgradient_2);stroke-width:1.0909" />
  <path
     fill-rule="evenodd"
     clip-rule="evenodd"
     d="m 22.978689,21.658175 c -1.188195,-0.102064 -2.347283,-0.381448 -3.439541,-0.827237 -0.122554,0.710811 -0.201831,1.427749 -0.238597,2.147751 h 3.678138 z m 2.042622,5.74e-4 c 1.187237,-0.102064 2.3469,-0.38049 3.441265,-0.824747 0.121404,0.709853 0.200107,1.426217 0.236873,2.144687 h -3.678138 z m -2.042622,5.19378 c -1.159088,0.099 -2.290602,0.367086 -3.359499,0.793534 -0.167936,-0.866109 -0.274213,-1.743898 -0.318639,-2.624752 h 3.678138 z m 2.042622,-5.75e-4 c 1.159088,0.09958 2.290794,0.367661 3.359499,0.794109 0.167936,-0.866683 0.274213,-1.743898 0.318639,-2.624752 h -3.678138 z m -2.042622,2.051814 c -0.980428,0.101107 -1.935197,0.347171 -2.835008,0.727087 0.192448,0.570832 0.429512,1.126918 0.70564,1.666154 0.214469,0.413618 0.464746,0.811917 0.750641,1.184748 0.240128,0.311554 0.510703,0.597448 0.811917,0.847725 0.175787,0.142852 0.364596,0.264448 0.56681,0.367086 z m 2.042622,0 c 0.980428,0.10149 1.935388,0.348703 2.834625,0.729194 -0.192639,0.569874 -0.428938,1.125386 -0.705257,1.664047 -0.214469,0.413618 -0.464746,0.811917 -0.750641,1.184748 -0.239937,0.311554 -0.510703,0.597448 -0.811917,0.847725 -0.175596,0.142852 -0.364596,0.264448 -0.56681,0.367086 z m -2.042622,-9.296833 c -1.034429,-0.107234 -2.040899,-0.376277 -2.982646,-0.792959 0.220213,-0.726704 0.505533,-1.432345 0.853278,-2.110985 0.214469,-0.413618 0.464746,-0.811917 0.750641,-1.184748 0.240128,-0.311362 0.510703,-0.597448 0.811917,-0.847534 0.175787,-0.143043 0.364596,-0.264639 0.56681,-0.367277 z m 2.042622,0 c 1.033471,-0.10666 2.040516,-0.373788 2.984178,-0.787789 -0.220021,-0.727662 -0.506107,-1.435408 -0.85481,-2.116155 -0.214469,-0.413618 -0.464746,-0.811917 -0.750641,-1.184748 -0.239937,-0.311362 -0.510703,-0.597448 -0.811917,-0.847534 -0.175596,-0.143043 -0.364596,-0.264639 -0.56681,-0.367277 z m 8.883598,3.371754 C 33.735824,21.343748 33.164035,19.779085 32.24833,18.423336 l -0.282256,0.25066 c -0.501512,0.445789 -1.036726,0.84562 -1.602004,1.191833 0.205852,1.026003 0.332427,2.067708 0.38049,3.11286 z m 0,2.042622 c -0.182298,1.762664 -0.832406,3.443754 -1.875068,4.869971 -0.54747,-0.493278 -1.13611,-0.931982 -1.761133,-1.305195 0.008,-0.03428 0.01532,-0.06836 0.0224,-0.102639 0.249129,-1.138216 0.399831,-2.297878 0.453448,-3.462137 z m -19.809761,0 c 0.182298,1.763813 0.832866,3.444712 1.876103,4.871503 0.546895,-0.493278 1.135152,-0.932365 1.760673,-1.30577 -0.0087,-0.03466 -0.01582,-0.06894 -0.02298,-0.103596 -0.249186,-1.138216 -0.399831,-2.297878 -0.453448,-3.462137 z m 5.263616,7.784638 c -0.723008,-0.377235 -1.400614,-0.846577 -2.015948,-1.397493 0.314044,-0.283405 0.643923,-0.54498 0.989122,-0.782811 0.200164,0.546321 0.435123,1.080386 0.69957,1.600856 0.101681,0.197617 0.209873,0.391596 0.327256,0.579448 z m 10.309432,-2.179921 c 0.345065,0.238022 0.675959,0.499023 0.990003,0.781279 -0.615832,0.551491 -1.293323,1.021407 -2.016963,1.398642 0.117383,-0.187852 0.225766,-0.381831 0.327256,-0.579448 0.264639,-0.519895 0.499406,-1.053961 0.699704,-1.600473 z M 19.34919,15.210328 c -0.82986,0.432575 -1.593253,0.989236 -2.267815,1.648344 0.347229,0.33664 0.717455,0.645513 1.103997,0.928343 0.230305,-0.690321 0.515242,-1.362259 0.846136,-2.013324 0.09862,-0.192064 0.203745,-0.38049 0.317682,-0.563363 z m 10.461857,2.56807 c 0.277852,-0.192447 0.5423,-0.405001 0.796598,-0.63115 l 0.329363,-0.292022 c -0.685725,-0.663896 -1.456855,-1.220557 -2.290602,-1.652558 0.115851,0.185362 0.222128,0.376469 0.322086,0.571023 0.329363,0.647427 0.613342,1.316876 0.842555,2.004707 z M 14.384681,21.405982 C 14.232523,21.947324 13.66826,22.2629 13.12596,22.110665 12.583661,21.958431 12.266554,21.393153 12.418731,20.849321 l 0.05616,-0.204128 c 0.155241,-0.543831 0.721534,-0.860938 1.263833,-0.707363 0.542299,0.153766 0.857358,0.717512 0.702136,1.258854 z m -0.342116,1.572707 C 12.915073,22.978689 12,23.43635 12,24.000096 c 0,3.181221 1.26638,6.23491 3.513207,8.486831 C 17.765128,34.733677 20.818683,36 24.000096,36 c 3.181221,0 6.23491,-1.266323 8.486831,-3.513073 C 34.733677,30.235006 36,27.181317 36,24.000096 36,20.818683 34.733677,17.765186 32.486927,15.513265 30.235006,13.266323 27.181317,12 24.000096,12 c -4.131203,0.0051 -7.981356,2.134538 -10.172,5.637462 -0.298724,0.476427 -0.153192,1.105471 0.32425,1.404195 0.477442,0.298724 1.108095,0.154724 1.406819,-0.321703 0.06331,-0.101107 0.128681,-0.201064 0.196085,-0.299107 0.579564,0.547852 1.208684,1.032513 1.880163,1.443068 -0.205277,1.027917 -0.33191,2.06809 -0.379916,3.114774 z"
     id="path2"
     style="display:none;fill:url(#linearGradient13);stroke-width:0.19149" />
  <path
     d="m 16.862843,14.408165 c 1.975922,-1.50836 4.428405,-2.370726 6.9041,-2.405223 2.481874,-0.05645 4.977691,0.700871 7.012396,2.146511 2.559235,1.785883 4.391249,4.634833 4.900331,7.747198 0.06655,0.653821 -0.710227,1.171261 -1.275003,0.845103 -0.371354,-0.156781 -0.475016,-0.575431 -0.544653,-0.934466 -0.346597,-1.69496 -1.17439,-3.261342 -2.282273,-4.568984 -0.371355,0.371592 -0.765921,0.719694 -1.18057,1.045813 -0.218178,0.108178 -0.09907,0.362204 -0.04179,0.531541 1.367811,3.472984 1.333785,7.47751 -0.06346,10.937938 0.428632,0.333961 0.835557,0.696165 1.222399,1.077184 1.236302,-1.387656 2.076494,-3.123336 2.421507,-4.957846 0.06809,-0.454696 0.515261,-0.810602 0.970195,-0.73851 0.52453,0.03922 0.902064,0.61936 0.751977,1.127372 -0.471926,2.574564 -1.827379,4.964105 -3.759966,6.699785 -1.974377,1.782778 -4.550645,2.878738 -7.196549,3.013614 -2.859407,0.191282 -5.774548,-0.730666 -8.025886,-2.525961 -2.234305,-1.767092 -3.824937,-4.36673 -4.334003,-7.196865 -0.165563,-0.564459 0.320291,-1.179065 0.90208,-1.121074 0.451817,0.01255 0.78758,0.41552 0.838642,0.851401 0.34041,1.77335 1.165142,3.444781 2.348801,4.796313 0.459569,-0.448398 0.943894,-0.873307 1.471514,-1.237095 -0.440991,-1.418989 -0.849461,-2.866182 -0.911373,-4.363561 -0.146997,-2.213945 0.204235,-4.454508 1.022759,-6.513217 -0.591077,-0.404548 -1.1326,-0.87493 -1.647862,-1.370386 -1.067638,1.277855 -1.872255,2.797179 -2.217304,4.441951 -0.08201,0.379475 -0.164013,0.843558 -0.569409,1.005053 -0.594167,0.335546 -1.392581,-0.257116 -1.245584,-0.934466 0.505969,-2.93051 2.180156,-5.621095 4.528981,-7.399123 z m 3.473698,3.515332 c 2.378212,1.088157 5.223716,1.020699 7.555504,-0.161494 -0.889706,-1.546022 -2.091943,-2.900703 -3.509268,-3.968472 -0.109881,-0.0016 -0.32806,-0.0047 -0.437901,-0.0078 -1.468384,1.106964 -2.71554,2.516562 -3.608335,4.137806 z m -2.68302,-1.87214 c 0.358956,0.351232 0.738074,0.678934 1.140364,0.97685 0.541564,-0.962749 1.175936,-1.872137 1.909375,-2.695303 -1.100159,0.401391 -2.141496,0.968987 -3.049739,1.718453 z M 27.76826,14.505374 c 0.606565,0.714981 1.152763,1.483278 1.626234,2.295465 0.304808,-0.257156 0.598802,-0.526828 0.881982,-0.807473 -0.765921,-0.609932 -1.618511,-1.092871 -2.508216,-1.487992 z m -8.193006,5.045625 c -1.100119,2.883452 -1.138819,6.162025 -0.08817,9.064252 2.91823,-1.364088 6.41205,-1.274725 9.286946,0.167793 1.114063,-3.007316 1.092395,-6.425439 -0.09903,-9.404512 -2.814568,1.411146 -6.234117,1.472306 -9.099744,0.172467 z m 0.640591,10.698052 c 0.789133,1.519364 1.901651,2.848951 3.195192,3.95121 0.504447,0.02979 1.011945,0.01881 1.516393,-0.02036 1.214635,-1.067797 2.358089,-2.298594 3.04356,-3.785001 -2.392155,-1.229292 -5.322784,-1.291996 -7.755145,-0.145849 z m -2.497362,1.763963 c 0.764376,0.613061 1.616966,1.102258 2.514395,1.486407 -0.586442,-0.727537 -1.098575,-1.513065 -1.547329,-2.333095 -0.337289,0.264959 -0.660674,0.547188 -0.967066,0.846688 z m 11.781219,-0.602089 c -0.371355,0.647523 -0.776735,1.277855 -1.240938,1.862713 0.690105,-0.341844 1.352364,-0.73851 1.958889,-1.21832 -0.235171,-0.219485 -0.475016,-0.434296 -0.717951,-0.644393 z"
     id="path3233"
     style="display:inline;fill:url(#linearGradient16);stroke-width:0.396111" />
</svg>
