<?xml version="1.0" encoding="UTF-8" standalone="no"?>
<svg
   width="64"
   height="64"
   viewBox="0 0 64 64"
   fill="none"
   version="1.1"
   id="svg14303"
   sodipodi:docname="preferences-desktop-display-symbolic.svg"
   inkscape:version="1.3.2 (091e20ef0f, 2023-11-25, custom)"
   xmlns:inkscape="http://www.inkscape.org/namespaces/inkscape"
   xmlns:sodipodi="http://sodipodi.sourceforge.net/DTD/sodipodi-0.dtd"
   xmlns:xlink="http://www.w3.org/1999/xlink"
   xmlns="http://www.w3.org/2000/svg"
   xmlns:svg="http://www.w3.org/2000/svg">
  <sodipodi:namedview
     id="namedview14305"
     pagecolor="#ffffff"
     bordercolor="#666666"
     borderopacity="1.0"
     inkscape:showpageshadow="2"
     inkscape:pageopacity="0.0"
     inkscape:pagecheckerboard="0"
     inkscape:deskcolor="#d1d1d1"
     showgrid="false"
     inkscape:zoom="5.2149125"
     inkscape:cx="-9.4920097"
     inkscape:cy="24.92851"
     inkscape:current-layer="svg14303" />
  <style
    type="text/css"
    id="current-color-scheme">.ColorScheme-Text{color:#dddddd;}.ColorScheme-Background{color:#1a1a1a;}.ColorScheme-Highlight{color:#aaaaac30;}.ColorScheme-ViewText{color:#dddddd;}.ColorScheme-ViewBackground{color:#1a1a1a01;}.ColorScheme-ViewHover{color:#aaaaac30;}.ColorScheme-ViewFocus{color:#aaaaac30;}.ColorScheme-ButtonText{color:#bbbbbb;}.ColorScheme-ButtonBackground{color:#aaaaac20;}.ColorScheme-ButtonHover{color:#aaaaac30;}.ColorScheme-ButtonFocus{color:#aaaaac30;}.ColorScheme-NegativeText { color: #8500ff; } </style>
  <g
     id="path14282">
    <path
      class="ColorScheme-Text"
       id="path12826"
       style="fill:currentColor;-inkscape-stroke:none;fill-opacity:1"
       d="M 11.78125 3.4960938 C 10.4841 3.4853384 9.169178 3.5321989 7.8574219 3.8144531 L 7.8476562 3.8164062 L 7.8378906 3.8183594 C 4.4623973 4.6903656 1.8239175 7.6264324 1.5664062 10.970703 L 1.5664062 10.972656 L 1.5664062 10.976562 C 1.4577755 12.693983 1.519037 14.392708 1.515625 16.064453 L 1.515625 16.066406 C 1.468076 16.995835 1.8165137 18.032525 2.7226562 18.605469 C 4.3067328 19.748868 6.7587708 18.860557 7.1152344 16.972656 L 7.1191406 16.953125 L 7.1210938 16.933594 C 7.3316601 15.037554 7.0957104 13.203152 7.234375 11.455078 C 7.3315563 10.207261 8.5612183 9.0571799 9.9394531 8.9882812 C 12.619329 8.8775597 15.351636 9.0678549 18.115234 8.90625 L 18.134766 8.90625 L 18.152344 8.9023438 C 20.281586 8.6115061 21.218638 5.8707645 19.716797 4.4042969 C 19.141822 3.777638 18.36611 3.5748066 17.648438 3.5253906 C 16.924353 3.4755333 16.215142 3.551363 15.648438 3.5214844 L 15.625 3.5195312 L 15.601562 3.5195312 C 14.358455 3.5744382 13.0784 3.5068486 11.78125 3.4960938 z M 27.09375 4.03125 C 25.771751 3.9419501 24.583919 5.0915456 24.699219 6.3339844 C 24.707419 7.5220732 25.886186 8.5501949 27.146484 8.453125 C 36.359475 8.488075 45.572359 8.4455025 54.78125 8.4765625 C 56.667548 8.4183226 58.344322 9.9991155 58.294922 11.777344 C 58.327822 17.659538 58.289947 23.541634 58.310547 29.423828 C 49.707055 29.462628 41.099779 29.451447 32.492188 29.498047 C 31.264889 29.447547 30.152925 30.456276 30.140625 31.609375 C 30.033525 32.824674 31.161686 33.958728 32.458984 33.923828 C 41.070676 34.013128 49.687137 33.842078 58.298828 33.892578 C 58.278228 35.962076 58.381312 38.035965 58.257812 40.101562 C 58.068313 41.871961 56.182601 43.129772 54.345703 42.951172 C 39.655218 42.935672 24.963829 42.966672 10.277344 42.951172 C 8.4157956 43.021072 6.6985775 41.510745 6.7109375 39.748047 C 6.6491576 34.956952 6.7522918 30.166201 6.6699219 25.378906 C 6.7193418 23.713208 4.4495242 22.613648 3.0410156 23.623047 C 2.1061166 24.151146 1.9625125 25.242035 2.0078125 26.177734 C 2.0490025 30.83693 1.9538945 35.497055 2.0527344 40.15625 C 2.1886442 43.972846 5.8007259 47.326334 9.8574219 47.365234 C 15.462696 47.369034 21.066681 47.404009 26.671875 47.349609 C 23.389478 50.106307 20.256728 53.018962 17.019531 55.818359 C 16.352332 56.412359 15.540519 57.044782 15.511719 57.988281 C 15.379919 59.30058 16.668742 60.473803 18.056641 60.345703 C 27.681531 60.357403 37.310563 60.357403 46.939453 60.345703 C 48.327452 60.470003 49.575647 59.265442 49.435547 57.964844 C 49.373847 56.850445 48.31444 56.198881 47.556641 55.488281 C 44.430744 52.793784 41.466984 49.923688 38.242188 47.337891 C 43.892782 47.423291 49.546671 47.373047 55.197266 47.373047 C 59.406261 47.318747 63.060234 43.700537 62.990234 39.744141 C 62.998534 30.29375 63.011028 20.835056 62.986328 11.384766 C 62.908028 7.5215195 59.291837 4.07784 55.181641 4.03125 C 45.82035 4.01572 36.455041 4.0196 27.09375 4.03125 z M 32.503906 48.236328 C 35.411503 50.771626 38.261644 53.372793 41.181641 55.900391 C 35.378746 55.915891 29.580238 55.915897 23.777344 55.904297 C 26.713741 53.376699 29.571509 50.767826 32.503906 48.236328 z " />
  </g>
  <path
     style="display:none;isolation:isolate;fill:url(#linearGradient8325);fill-opacity:1;stroke-width:1.48056"
     d="m 17.499952,19.931892 h 30.000104 c 1.361251,0 2.466032,0.895999 2.466032,1.999999 v 1.333334 c 0,1.104 -1.104781,2 -2.466032,2 H 17.499952 c -1.36125,0 -2.466034,-0.896 -2.466034,-2 v -1.333334 c 0,-1.104 1.104784,-1.999999 2.466034,-1.999999 z"
     id="path4072" />
  <defs
     id="defs14301">
    <linearGradient
       id="linearGradient998"
       x1="0.22078557"
       y1="0.047239967"
       x2="0.9022491"
       y2="0.90614605"
       gradientTransform="matrix(43.5,0,0,44,5,2)"
       gradientUnits="userSpaceOnUse"
       spreadMethod="pad">
      <stop
         offset="0.0001"
         stop-opacity="1"
         style="stop-color:#00f1fa;stop-opacity:1;"
         id="stop994" />
      <stop
         offset="0.99993777"
         stop-opacity="1"
         style="stop-color:#006cff;stop-opacity:1;"
         id="stop996" />
    </linearGradient>
    <linearGradient
       id="linearGradient436"
       x1="0.22078557"
       y1="0.047239967"
       x2="0.9022491"
       y2="0.90614605"
       gradientTransform="matrix(43.5,0,0,44,5,2)"
       gradientUnits="userSpaceOnUse"
       spreadMethod="pad">
      <stop
         offset="0.00000001"
         stop-opacity="1"
         style="stop-color:#00f1fa;stop-opacity:1;"
         id="stop432" />
      <stop
         offset="0.99993777"
         stop-opacity="1"
         style="stop-color:#006cff;stop-opacity:1;"
         id="stop434" />
    </linearGradient>
    <linearGradient
       id="linearGradient428"
       x1="0.22078557"
       y1="0.047239967"
       x2="0.9022491"
       y2="0.90614605"
       gradientTransform="matrix(43.5,0,0,44,5,2)"
       gradientUnits="userSpaceOnUse"
       spreadMethod="pad">
      <stop
         offset="0.0001"
         stop-opacity="1"
         style="stop-color:#00f1fa;stop-opacity:1;"
         id="stop424" />
      <stop
         offset="0.99993777"
         stop-opacity="1"
         style="stop-color:#006cff;stop-opacity:1;"
         id="stop426" />
    </linearGradient>
    <linearGradient
       id="linearGradient14839"
       x1="3.134865"
       y1="32"
       x2="4.5678296"
       y2="32.39473"
       gradientUnits="userSpaceOnUse">
      <stop
         stop-color="#00f1fa"
         id="stop14835"
         offset="0"
         style="stop-color:#00f1fa;stop-opacity:1;" />
      <stop
         offset="1"
         stop-color="#006cff"
         id="stop14837" />
    </linearGradient>
    <linearGradient
       id="paint0_linear"
       x1="3.134865"
       y1="32"
       x2="63.000008"
       y2="32.18811"
       gradientUnits="userSpaceOnUse"
       xlink:href="#linearGradient8325">
      <stop
         stop-color="#00f1fa"
         id="stop14286"
         offset="0"
         style="stop-color:#00f1fa;stop-opacity:1;" />
      <stop
         offset="1"
         stop-color="#006cff"
         id="stop14288" />
    </linearGradient>
    <linearGradient
       id="paint1_linear"
       x1="3.134865"
       y1="32"
       x2="63.000008"
       y2="32.18811"
       gradientUnits="userSpaceOnUse">
      <stop
         stop-color="#00f1fa"
         id="stop14291"
         offset="0"
         style="stop-color:#00f1fa;stop-opacity:1;" />
      <stop
         offset="1"
         stop-color="#006cff"
         id="stop14293" />
    </linearGradient>
    <linearGradient
       id="paint2_linear"
       x1="3.134865"
       y1="32"
       x2="4.5678296"
       y2="32.39473"
       gradientUnits="userSpaceOnUse">
      <stop
         stop-color="#00f1fa"
         id="stop14296" />
      <stop
         offset="1"
         stop-color="#006cff"
         id="stop14298" />
    </linearGradient>
    <linearGradient
       inkscape:collect="always"
       xlink:href="#linearGradient8325"
       id="linearGradient14424"
       gradientUnits="userSpaceOnUse"
       x1="1.9999987"
       y1="32.18811"
       x2="63.000008"
       y2="32.18811" />
    <linearGradient
       inkscape:collect="always"
       xlink:href="#linearGradient8325"
       id="linearGradient5043"
       gradientUnits="userSpaceOnUse"
       gradientTransform="matrix(65.760858,0,0,58.666665,3.5257676,-2.7347745)"
       x1="-0.02320178"
       y1="0.59527647"
       x2="0.90440184"
       y2="0.59527647" />
    <linearGradient
       id="linearGradient8325"
       x1="0.22078557"
       y1="0.047239967"
       x2="0.9022491"
       y2="0.90614605"
       gradientTransform="matrix(43.5,0,0,44,5,2)"
       gradientUnits="userSpaceOnUse"
       spreadMethod="pad">
      <stop
         offset="0.00018442"
         stop-opacity="1"
         style="stop-color:#00f1fa;stop-opacity:1;"
         id="stop8321" />
      <stop
         offset="0.99993777"
         stop-opacity="1"
         style="stop-color:#006cff;stop-opacity:1;"
         id="stop8323" />
    </linearGradient>
  </defs>
</svg>
