<?xml version="1.0" encoding="UTF-8" standalone="no"?>
<svg
   width="192"
   height="192"
   viewBox="0 0 192 192"
   fill="none"
   version="1.1"
   id="svg16"
   sodipodi:docname="audacious.svg"
   inkscape:version="1.2.2 (b0a8486541, 2022-12-01)"
   xmlns:inkscape="http://www.inkscape.org/namespaces/inkscape"
   xmlns:sodipodi="http://sodipodi.sourceforge.net/DTD/sodipodi-0.dtd"
   xmlns="http://www.w3.org/2000/svg"
   xmlns:svg="http://www.w3.org/2000/svg">
  <sodipodi:namedview
     id="namedview18"
     pagecolor="#ffffff"
     bordercolor="#666666"
     borderopacity="1.0"
     inkscape:pageshadow="2"
     inkscape:pageopacity="0.0"
     inkscape:pagecheckerboard="0"
     showgrid="true"
     inkscape:zoom="3.2708333"
     inkscape:cx="61.910829"
     inkscape:cy="96.305733"
     inkscape:current-layer="svg16"
     inkscape:showpageshadow="2"
     inkscape:deskcolor="#d1d1d1">
    <inkscape:grid
       type="xygrid"
       id="grid1113" />
  </sodipodi:namedview>
  <g
     id="path2">
    <path
       id="path2483"
       style="color:#000000;fill:url(#paint0_linear);stroke-width:2;-inkscape-stroke:none"
       d="M 166.9707 3.8457031 C 166.49267 3.8730025 166.02624 3.9258182 165.57617 3.9941406 C 164.67782 4.1305226 163.81028 4.3296982 163.00586 4.5195312 C 162.91476 4.5409562 162.82515 4.5608643 162.73633 4.5820312 C 162.02295 4.750803 161.36371 4.9076093 160.73438 5.0214844 L 160.73242 5.0214844 L 160.71875 5.0234375 L 160.70508 5.0273438 C 149.52809 7.2147906 138.3414 9.3683437 127.14844 11.523438 C 109.07309 15.00381 90.98628 18.486679 72.927734 22.113281 C 69.756488 22.352729 67.236834 24.203454 65.623047 26.533203 C 63.985861 28.896661 63.148705 31.841453 63.318359 34.628906 L 63.316406 34.570312 C 63.335506 46.560155 63.331225 58.554052 63.328125 70.548828 C 63.323525 88.463244 63.323328 106.38146 63.392578 124.29883 C 55.860357 120.58223 47.003134 119.69316 38.933594 122.09375 C 26.016715 125.7812 16.058642 137.63253 14.900391 151.00977 C 14.900223 151.01177 14.900557 151.01363 14.900391 151.01562 C 13.546602 162.67534 18.9195 174.64729 28.414062 181.55664 C 36.976118 187.93363 48.62033 189.92849 58.820312 186.54688 L 58.822266 186.54688 C 69.107505 183.37654 77.334791 174.99589 80.666016 164.89258 C 82.192386 161.33716 82.503336 157.67196 82.466797 154.16016 C 82.449977 152.54376 82.360536 150.93697 82.273438 149.375 C 82.265138 149.22595 82.256237 149.07939 82.248047 148.93164 C 82.153327 147.22084 82.071209 145.56357 82.085938 143.95703 L 82.085938 143.95312 L 82.085938 143.93945 C 82.090637 135.75504 82.090444 127.57261 82.089844 119.39062 C 82.088963 106.30303 82.088957 93.220593 82.109375 80.140625 C 86.476598 79.235836 90.894552 78.520924 95.371094 77.826172 L 95.416016 77.820312 C 100.41616 77.04421 105.47659 76.256859 110.50781 75.144531 L 110.53516 75.140625 L 110.55859 75.134766 C 113.78122 74.409823 117.06901 73.896599 120.41602 73.375 C 120.80818 73.31387 121.20035 73.253069 121.59375 73.191406 C 125.33444 72.605016 129.13896 71.976695 132.91016 70.988281 L 132.95312 70.976562 L 132.99219 70.964844 C 135.22134 70.277213 137.22095 68.782553 138.5332 66.833984 C 139.85287 64.873866 140.50874 62.32916 139.71484 59.759766 L 139.66016 59.585938 L 139.57812 59.425781 C 138.60672 57.564312 137.11152 55.741325 135.19531 54.494141 C 133.27519 53.244075 130.82376 52.56188 128.25 53.289062 L 128.32617 53.271484 C 126.94947 53.544921 125.5809 53.824295 124.2168 54.103516 C 118.60179 55.251915 113.06874 56.382396 107.47461 56.972656 L 107.41992 56.978516 L 107.36328 56.988281 C 103.64824 57.591699 99.96396 58.311197 96.308594 59.025391 C 95.376427 59.207583 94.445872 59.389032 93.517578 59.568359 C 89.692232 60.30746 85.892834 60.969046 82.083984 61.5 C 82.102544 57.961822 82.103289 54.426122 82.099609 50.898438 L 82.099609 50.435547 C 82.095609 46.523649 82.09651 42.617974 82.125 38.714844 C 83.92658 38.374733 85.729252 38.035301 87.53125 37.695312 C 111.27489 33.215587 135.04875 28.715382 158.74023 23.800781 C 158.82373 39.074348 158.81543 54.3274 158.80273 69.583984 C 158.79113 82.621913 158.78458 95.664726 158.83398 108.72461 C 149.63457 105.05285 138.65863 106.03044 130.57617 112.03125 C 120.78183 118.89253 116.19158 131.92231 119.50391 143.36328 L 119.50391 143.36523 C 122.26157 153.79715 131.23118 162.18382 141.875 164.24023 C 151.35122 166.23067 161.58868 163.10259 168.36133 156.24219 C 175.21708 149.46878 177.87574 139.56923 177.20312 130.38867 L 177.20312 130.38086 C 177.15614 108.92599 177.16769 87.469873 177.17969 66.013672 L 177.17969 66.011719 C 177.19069 48.578766 177.20169 31.142716 177.17969 13.705078 L 177.17578 13.791016 C 177.52972 9.5554946 174.40775 6.4709263 171.7207 4.7519531 L 171.59961 4.6738281 L 171.47266 4.6171875 L 171.46875 4.6152344 C 170.45087 4.1520572 169.42853 3.9272049 168.43555 3.8535156 C 167.93838 3.8166207 167.44874 3.8184038 166.9707 3.8457031 z M 147.23633 124.4082 C 147.65185 124.39693 148.06832 124.41063 148.48438 124.44922 C 150.15192 124.60388 151.80465 125.14976 153.29297 126.02148 C 156.27019 127.76528 158.39852 130.6941 158.65039 134.04492 L 158.6582 134.16406 L 158.68359 134.28906 C 159.34277 137.62317 158.05397 141.01834 155.62305 143.48438 C 153.18933 145.95229 149.75967 147.32861 146.37891 146.7832 L 146.31445 146.77344 L 146.25391 146.76758 L 146.25 146.76758 C 140.03769 146.16131 135.22765 139.40135 136.69336 133.38672 L 136.69531 133.38281 L 136.69922 133.36133 L 136.70703 133.33203 L 136.70898 133.31836 C 137.44106 129.77971 140.13711 126.66125 143.53906 125.24609 L 143.54102 125.24414 L 143.57422 125.23242 L 143.59961 125.2207 C 144.75579 124.70407 145.98976 124.44203 147.23633 124.4082 z M 47.992188 138.63477 C 48.490893 138.62585 48.989964 138.64249 49.488281 138.68164 C 55.446612 139.14975 61.213575 142.98655 63.033203 148.62891 C 63.568485 152.4197 63.505762 156.36831 63.134766 160.29297 C 60.572971 167.54992 51.727264 171.92232 44.261719 169.68359 L 44.220703 169.66992 L 44.181641 169.66211 L 44.175781 169.66016 C 36.598629 167.67255 31.326707 159.25658 32.925781 151.62695 L 32.927734 151.62109 L 32.931641 151.59961 L 32.935547 151.57812 L 32.9375 151.57227 C 33.939303 146.03724 38.184808 141.17301 43.548828 139.41406 C 43.551028 139.41333 43.552388 139.41116 43.554688 139.41016 L 43.558594 139.41016 L 43.574219 139.4043 L 43.580078 139.40234 L 43.585938 139.40039 L 43.587891 139.40039 C 45.00763 138.90959 46.49607 138.66152 47.992188 138.63477 z " />
  </g>
  <defs
     id="defs14">
    <linearGradient
       id="paint0_linear"
       x1="28.720425"
       y1="181.73232"
       x2="159.04659"
       y2="23.976463"
       gradientUnits="userSpaceOnUse"
       gradientTransform="translate(-0.3063622,-0.17568157)">
      <stop
         stop-color="#b900ff"
         id="stop4"
         style="stop-color:#b900ff;stop-opacity:1;"
         offset="0" />
      <stop
         offset="1"
         stop-color="#6033ff"
         id="stop6"
         style="stop-color:#6033ff;stop-opacity:1;" />
    </linearGradient>
    <linearGradient
       id="paint1_linear"
       x1="14.999117"
       y1="188.35028"
       x2="176.48601"
       y2="13.8827"
       gradientUnits="userSpaceOnUse"
       gradientTransform="translate(-0.3063622,-0.17568157)">
      <stop
         stop-color="#b900ff"
         id="stop9"
         style="stop-color:#b900ff;stop-opacity:1;"
         offset="0" />
      <stop
         offset="1"
         stop-color="#6033ff"
         id="stop11"
         style="stop-color:#6033ff;stop-opacity:1;" />
    </linearGradient>
  </defs>
</svg>
