<?xml version="1.0" encoding="UTF-8" standalone="no"?>
<svg
   width="24"
   height="24"
   viewBox="0 0 24 24"
   fill="none"
   version="1.1"
   id="svg18"
   sodipodi:docname="audio-volume-zero-panel.svg"
   inkscape:version="1.3.2 (091e20ef0f, 2023-11-25, custom)"
   xmlns:inkscape="http://www.inkscape.org/namespaces/inkscape"
   xmlns:sodipodi="http://sodipodi.sourceforge.net/DTD/sodipodi-0.dtd"
   xmlns:xlink="http://www.w3.org/1999/xlink"
   xmlns="http://www.w3.org/2000/svg"
   xmlns:svg="http://www.w3.org/2000/svg">
  <sodipodi:namedview
     id="namedview20"
     pagecolor="#4a4a4a"
     bordercolor="#666666"
     borderopacity="1.0"
     inkscape:showpageshadow="2"
     inkscape:pageopacity="0.0"
     inkscape:pagecheckerboard="0"
     inkscape:deskcolor="#d1d1d1"
     showgrid="false"
     inkscape:zoom="13.906434"
     inkscape:cx="3.9909584"
     inkscape:cy="13.626786"
     inkscape:current-layer="svg18" />
  <path
     d="M 6.68998,8.4204735 H 2.75229 c -0.11996,0 -0.235,0.04712 -0.31982,0.13103 C 2.34765,8.6354035 2.3,8.7491835 2.3,8.8678335 v 6.2631595 c 0,0.1187 0.04765,0.2325 0.13247,0.3164 0.08482,0.0839 0.19986,0.131 0.31982,0.131 h 3.93769 c 0.20906,10e-5 0.41163,0.0719 0.57326,0.203 l 5.17126,4.1941 c 0.0675,0.0491 0.1474,0.0788 0.2308,0.0855 0.0834,0.0068 0.1671,-0.0094 0.2418,-0.0469 0.0746,-0.0375 0.1373,-0.0947 0.181,-0.1652 0.0438,-0.0706 0.0669,-0.1518 0.0667,-0.2347 V 4.3846135 c 0,-0.08271 -0.0233,-0.16378 -0.0671,-0.23421 -0.0438,-0.07044 -0.1065,-0.12748 -0.1811,-0.16479 -0.0747,-0.03731 -0.1583,-0.05344 -0.2416,-0.04658 -0.0833,0.00687 -0.1631,0.03645 -0.2305,0.08545 l -5.17126,4.19411 c -0.16178,0.13076 -0.36433,0.20209 -0.57326,0.20188 z"
     stroke="url(#linearGradient9689)"
     stroke-width="2.4"
     stroke-linecap="round"
     stroke-linejoin="round"
     id="path2"
     style="display:none;opacity:1;fill:#000000;fill-opacity:0;stroke:url(#linearGradient9689)" />
  <path
     fill-rule="evenodd"
     clip-rule="evenodd"
     d="m 20.8554,5.5247691 c -0.299,-0.50712 -0.9524,-0.67587 -1.4595,-0.37694 -0.5071,0.29894 -0.6759,0.95236 -0.3769,1.45946 1.0048,1.70463 1.5664,3.09183 1.5664,5.3927099 0,2.2955 -0.5857,3.6994 -1.5706,5.3997 -0.295,0.5093 -0.1212,1.1615 0.3882,1.4566 0.5092,0.295 1.1613,0.1213 1.4565,-0.3882 1.1018,-1.9024 1.8576,-3.6774 1.8576,-6.4681 0,-2.7853899 -0.7241,-4.5453299 -1.8617,-6.4752299 z m -2.5421,2.59577 c -0.2698,-0.52315 -0.9126,-0.72851 -1.4358,-0.45865 -0.5232,0.26983 -0.7286,0.9127 -0.4586,1.43586 0.4703,0.9118499 0.7383,1.8521499 0.7383,2.9022499 0,1.0292 -0.2799,1.9983 -0.7416,2.9086 -0.2664,0.5249 -0.0567,1.1664 0.4683,1.4327 0.5249,0.2663 1.1664,0.0567 1.4328,-0.4683 0.5816,-1.1465 0.9722,-2.4449 0.9722,-3.873 0,-1.4411 -0.3746,-2.7143899 -0.9756,-3.8794599 z"
     fill="url(#linearGradient2)"
     id="path4"
     style="display:none;fill:url(#linearGradient2);fill-opacity:1" />
  <defs
     id="defs16">
    <linearGradient
       id="linearGradient9689"
       x1="7.4274006"
       y1="21.325018"
       x2="20.555401"
       y2="5.5247698"
       gradientUnits="userSpaceOnUse"
       gradientTransform="translate(0.30000015,-0.06250654)">
      <stop
         stop-color="#b900ff"
         id="stop6"
         offset="0"
         style="stop-color:#b900ff;stop-opacity:1;" />
      <stop
         offset="1"
         stop-color="#6033ff"
         id="stop8"
         style="stop-color:#6033ff;stop-opacity:1;" />
    </linearGradient>
    <linearGradient
       id="linearGradient1135"
       x1="17.296173"
       y1="2.7374878"
       x2="12.8548"
       y2="5.393187"
       gradientUnits="userSpaceOnUse"
       gradientTransform="translate(0.30000015)">
      <stop
         stop-color="#b900ff"
         id="stop11"
         offset="0"
         style="stop-color:#000000;stop-opacity:0;" />
      <stop
         offset="1"
         stop-color="#6033ff"
         id="stop13"
         style="stop-color:#000000;stop-opacity:0" />
    </linearGradient>
    <linearGradient
       inkscape:collect="always"
       xlink:href="#linearGradient9689"
       id="linearGradient2"
       x1="6.2782483"
       y1="21.262497"
       x2="20.8554"
       y2="5.5247693"
       gradientUnits="userSpaceOnUse" />
    <linearGradient
       inkscape:collect="always"
       xlink:href="#paint0_linear"
       id="linearGradient2-3"
       x1="28.999437"
       y1="113.15477"
       x2="92.531792"
       y2="43.477272"
       gradientUnits="userSpaceOnUse"
       gradientTransform="matrix(0.18903084,0,0,0.18903084,5.0683258,-0.09800628)" />
    <linearGradient
       id="paint0_linear"
       x1="28.999437"
       y1="113.15477"
       x2="92.128899"
       y2="28.7416"
       gradientUnits="userSpaceOnUse">
      <stop
         stop-color="#b900ff"
         id="stop1661"
         offset="0"
         style="stop-color:#b900ff;stop-opacity:1;" />
      <stop
         offset="1"
         stop-color="#6033ff"
         id="stop1663"
         style="stop-color:#6033ff;stop-opacity:1;" />
    </linearGradient>
  </defs>
  <path
     fill-rule="evenodd"
     clip-rule="evenodd"
     d="m 17.682335,2.9075837 c -0.261562,-0.132 -0.554597,-0.188974 -0.846575,-0.16457 -0.291995,0.02439 -0.571497,0.129202 -0.807539,0.302808 -0.0158,0.01163 -0.0313,0.02367 -0.04648,0.0361 l -5.094366,4.170947 H 7.0321857 c -0.4205728,0 -0.8239306,0.167065 -1.1213272,0.464467 -0.2973961,0.297408 -0.464471,0.700762 -0.464471,1.121336 v 6.3226663 c 0,0.420593 0.1670749,0.823947 0.4644714,1.121331 0.2973966,0.297402 0.7007544,0.464486 1.1213272,0.464486 h 3.8551889 l 5.094363,4.170909 c 0.01518,0.01248 0.03068,0.02438 0.04648,0.0361 0.236043,0.17353 0.515544,0.278442 0.807539,0.302827 0.291978,0.02438 0.585014,-0.03251 0.846575,-0.164646 0.261562,-0.131943 0.481461,-0.333828 0.635257,-0.583349 0.153795,-0.249331 0.235494,-0.536469 0.236023,-0.829467 v -0.0021 -15.3549753 -0.0021 c -5.26e-4,-0.292997 -0.08223,-0.580135 -0.23602,-0.829505 -0.153796,-0.249407 -0.373677,-0.451311 -0.635258,-0.58333 z m -5.42201,6.152859 4.024921,-3.295355 V 18.234922 l -4.030214,-3.299684 -0.0056,-0.0045 C 11.884717,14.635964 11.429361,14.476346 10.960527,14.478822 H 7.7147575 V 9.5212807 h 3.2658105 c 0.467643,0.0022 0.920977,-0.160998 1.279757,-0.460801 z"
     fill="url(#linearGradient2)"
     id="path1"
     style="fill:url(#linearGradient2-3);stroke:none;stroke-width:0.189031;stroke-opacity:1"
     sodipodi:nodetypes="ccsccsssscscccsccsccccccccccccccc" />
</svg>
