<?xml version="1.0" encoding="UTF-8" standalone="no"?>
<!-- Generator: Gravit.io -->

<svg
   style="isolation:isolate"
   viewBox="0 0 48 48"
   width="48pt"
   height="48pt"
   version="1.1"
   id="svg2"
   sodipodi:docname="circle-a.svg"
   inkscape:version="1.4 (e7c3feb100, 2024-10-09)"
   xmlns:inkscape="http://www.inkscape.org/namespaces/inkscape"
   xmlns:sodipodi="http://sodipodi.sourceforge.net/DTD/sodipodi-0.dtd"
   xmlns:xlink="http://www.w3.org/1999/xlink"
   xmlns="http://www.w3.org/2000/svg"
   xmlns:svg="http://www.w3.org/2000/svg">
  <defs
     id="defs2">
    <linearGradient
       id="paint0_linear"
       x1="12.382255"
       y1="8.1303654"
       x2="12.378265"
       y2="18"
       gradientUnits="userSpaceOnUse"
       gradientTransform="matrix(0.75,0,0,0.75,10.110377,17.239337)">
      <stop
         stop-color="#ff69ff"
         id="stop4" />
      <stop
         offset="1"
         stop-color="#9033dd"
         id="stop6"
         style="stop-color:#9033dd;stop-opacity:1;" />
    </linearGradient>
    <linearGradient
       id="paint0_linear-6"
       x1="1.61043"
       y1="12.7791"
       x2="13.9277"
       y2="7.5404301"
       gradientUnits="userSpaceOnUse"
       gradientTransform="matrix(0.75,0,0,0.75,42.33317,-13.871652)">
      <stop
         stop-color="#ff69ff"
         id="stop1-7" />
      <stop
         offset="1"
         stop-color="#9033dd"
         id="stop2-5" />
    </linearGradient>
    <linearGradient
       id="paint0_linear-61"
       x1="129.55952"
       y1="512"
       x2="435.34366"
       y2="79.280602"
       gradientUnits="userSpaceOnUse"
       gradientTransform="matrix(0.09126984,0,0,0.09126984,0.63492,0.63492)">
      <stop
         id="stop4-8"
         offset="0"
         style="stop-color:#ff69ff;stop-opacity:1;" />
      <stop
         offset="1"
         id="stop5"
         style="stop-color:#9033dd;stop-opacity:1;" />
    </linearGradient>
    <linearGradient
       inkscape:collect="always"
       xlink:href="#paint0_linear-6"
       id="linearGradient8"
       gradientUnits="userSpaceOnUse"
       gradientTransform="matrix(0,-3.6115018,3.6115018,0,-4.8162814,51.4942)"
       x1="1.6104312"
       y1="3.2208707"
       x2="11.434972"
       y2="12.437037" />
    <linearGradient
       id="_lgradient_38-6"
       x1="0.32035008"
       y1="0.99999225"
       x2="0.99999893"
       y2="0.49999669"
       gradientTransform="matrix(20.000033,0,0,19.969008,0.99998892,1.0155621)"
       gradientUnits="userSpaceOnUse"
       xlink:href="#paint0_linear-3">
      <stop
         offset="0"
         stop-opacity="1"
         style="stop-color:#ff69ff;stop-opacity:1;"
         id="stop2-7" />
      <stop
         offset="1"
         stop-opacity="1"
         style="stop-color:#9033dd;stop-opacity:1;"
         id="stop1-5" />
    </linearGradient>
    <linearGradient
       id="paint0_linear-3"
       x1="8.9972801"
       y1="95.520599"
       x2="182.02499"
       y2="95.520599"
       gradientUnits="userSpaceOnUse">
      <stop
         id="stop6-3"
         style="stop-color:#ff69ff;stop-opacity:1" />
      <stop
         offset="0.986957"
         id="stop8-6"
         style="stop-color:#9033dd;stop-opacity:1" />
    </linearGradient>
    <linearGradient
       inkscape:collect="always"
       xlink:href="#_lgradient_38-6"
       id="linearGradient11"
       gradientUnits="userSpaceOnUse"
       gradientTransform="matrix(20.000033,0,0,-19.969008,0.69725902,20.563152)"
       x1="0.51927692"
       y1="-0.1585619"
       x2="0.58694202"
       y2="0.99976057" />
    <linearGradient
       inkscape:collect="always"
       xlink:href="#_lgradient_38-6"
       id="linearGradient12"
       gradientUnits="userSpaceOnUse"
       gradientTransform="matrix(20.000033,0,0,-19.969008,11.547259,20.563152)"
       x1="-0.222149"
       y1="-1.904792e-05"
       x2="0.45749983"
       y2="0.49999669" />
    <linearGradient
       inkscape:collect="always"
       xlink:href="#paint0_linear-6"
       id="linearGradient15"
       gradientUnits="userSpaceOnUse"
       gradientTransform="matrix(-2.9791723,1.860061,1.7900674,3.0956612,28.839003,-23.39374)"
       x1="14.902159"
       y1="13.358355"
       x2="1.9985595"
       y2="9.6816864" />
    <linearGradient
       inkscape:collect="always"
       xlink:href="#_lgradient_38-6"
       id="linearGradient16"
       gradientUnits="userSpaceOnUse"
       gradientTransform="matrix(20.000033,0,0,-19.969008,0.94825168,20.468201)"
       x1="0.32035008"
       y1="-1.904792e-05"
       x2="0.99999893"
       y2="0.49999669" />
    <linearGradient
       inkscape:collect="always"
       xlink:href="#_lgradient_38-6"
       id="linearGradient18"
       gradientUnits="userSpaceOnUse"
       gradientTransform="matrix(20.000033,0,0,-19.969008,1.4208196,20.681358)"
       x1="-0.15840372"
       y1="0.48159492"
       x2="0.99834114"
       y2="0.41633451" />
    <linearGradient
       inkscape:collect="always"
       xlink:href="#_lgradient_38-6"
       id="linearGradient21"
       gradientUnits="userSpaceOnUse"
       gradientTransform="matrix(20.000033,0,0,-19.969008,11.624943,20.516987)"
       x1="-0.222149"
       y1="-1.904792e-05"
       x2="0.45749983"
       y2="0.49999669" />
    <linearGradient
       inkscape:collect="always"
       xlink:href="#_lgradient_38-6"
       id="linearGradient23"
       gradientUnits="userSpaceOnUse"
       gradientTransform="matrix(20.000033,0,0,-19.969008,11.547259,20.563152)"
       x1="-0.023222143"
       y1="-0.15856192"
       x2="0.044442978"
       y2="0.99976057" />
    <linearGradient
       inkscape:collect="always"
       xlink:href="#_lgradient_38-6"
       id="linearGradient25"
       gradientUnits="userSpaceOnUse"
       gradientTransform="matrix(-10.000016,17.320536,17.293668,9.9845043,2.2936691,6.6942604)"
       x1="-0.023222143"
       y1="-0.15856192"
       x2="0.044442978"
       y2="0.99976057" />
    <linearGradient
       inkscape:collect="always"
       xlink:href="#_lgradient_38-6"
       id="linearGradient26"
       gradientUnits="userSpaceOnUse"
       gradientTransform="matrix(-39.467157,14.364871,14.342587,39.405936,15.876843,5.3423989)"
       x1="-0.023222143"
       y1="-0.15856192"
       x2="0.044442978"
       y2="0.99976057" />
  </defs>
  <sodipodi:namedview
     id="namedview2"
     pagecolor="#505050"
     bordercolor="#aaaaac"
     borderopacity="1"
     inkscape:showpageshadow="false"
     inkscape:pageopacity="0.0"
     inkscape:pagecheckerboard="true"
     inkscape:deskcolor="#505050"
     inkscape:document-units="pt"
     inkscape:zoom="8"
     inkscape:cx="35.8125"
     inkscape:cy="40.5"
     inkscape:current-layer="svg2" />
  <linearGradient
     id="_lgradient_38"
     x1="0.99999887"
     y1="0.49999669"
     x2="0.49999973"
     y2="0.99999231"
     gradientTransform="matrix(47.058,0,0,46.985,0.495,0.559)"
     gradientUnits="userSpaceOnUse">
    <stop
       offset="0"
       stop-opacity="1"
       style="stop-color:#6444ff;stop-opacity:1;"
       id="stop1" />
    <stop
       offset="1"
       stop-opacity="1"
       style="stop-color:#b900ff;stop-opacity:1;"
       id="stop2" />
  </linearGradient>
  <g
     id="g11"
     transform="matrix(1.6086935,1.3498541,-1.3498541,1.6086935,21.099593,-8.5411534)"
     style="display:inline" />
  <g
     id="g13"
     transform="matrix(1.9282717,0.34000632,-0.34000632,1.9282717,6.4780393,0.32502391)"
     style="display:inline">
    <path
       id="path12"
       style="display:inline;isolation:isolate;fill:url(#linearGradient16);stroke-width:0.403534"
       d="m 2.5406862,10.157654 c 0,0 -0.02113,0.250852 -0.02817,0.376954 -4.73e-4,0.0085 -0.0014,0.0169 -0.0018,0.02539 -3.21e-4,0.0065 3.07e-4,0.01302 0,0.01953 -0.0049,0.09649 -0.007,0.19408 -0.0088,0.291015 -7.8e-4,0.05134 -0.0036,0.102866 -0.0035,0.154297 -9e-5,0.05143 0.0027,0.102958 0.0035,0.154297 0.0018,0.09806 0.0038,0.195369 0.0088,0.292969 2.67e-4,0.0052 -2.75e-4,0.01043 0,0.01563 3.54e-4,0.0072 0.0014,0.01428 0.0018,0.02148 0.007,0.127408 0.01579,0.254414 0.02817,0.380859 0.183109,1.870166 1.0855202,3.600112 2.3048552,4.932194 0.17467,0.189766 0.344393,0.369351 0.510625,0.537109 0.0053,0.0054 0.01052,0.01027 0.01585,0.01563 1.143389,1.025569 2.544704,1.654404 4.026893,1.792969 0.449821,0.04208 0.7851106,0.482189 0.7483276,0.982422 -0.03445,0.463636 -0.3786216,0.812961 -0.7888256,0.828125 -0.02993,0.0083 -0.06246,0.0094 -0.09684,0.002 -2.26443,-0.209105 -4.377166,-1.361203 -5.910924,-3.226563 -1.298277,-1.582922 -2.09738,-3.581319 -2.297813,-5.691406 -0.01386,-0.145983 -0.02538,-0.292487 -0.03345,-0.439453 -0.0018,-0.03121 -0.0038,-0.0625 -0.0053,-0.09375 -0.005,-0.107817 -0.0087,-0.21599 -0.01057,-0.324219 -8.69e-4,-0.04361 -0.0032,-0.08718 -0.0035,-0.130859 -2.0295e-4,-0.02487 0.0018,-0.04937 0.0018,-0.07422 3.4e-5,-0.0254 -0.002,-0.05076 -0.0018,-0.07617 3.56e-4,-0.04385 0.0026,-0.08707 0.0035,-0.130859 0.0019,-0.108306 0.0055,-0.216326 0.01057,-0.324219 0.0014,-0.03001 0.0035,-0.05988 0.0053,-0.08984 0.008,-0.147556 0.01954,-0.29484 0.03345,-0.4414062 0.01552,-0.1636054 0.0581,-0.4882812 0.0581,-0.4882812 z"
       sodipodi:nodetypes="cscccccscccccccccccccccccccccccc" />
    <path
       id="path17"
       style="display:inline;isolation:isolate;fill:url(#linearGradient18);stroke-width:0.403534"
       d="M 9.8853533,1.2566318 C 9.738997,1.1089142 9.5442295,1.0200669 9.333761,1.0192369 c -0.00759,-0.00138 -0.015165,-0.00301 -0.022965,-0.00349 -0.0158,-9.7e-4 -0.032486,0.00129 -0.049376,0.0041 -1.015687,0.093792 -1.999548,0.3794799 -2.915801,0.8321896 -0.476446,0.224633 -0.9290974,0.497145 -1.3769194,0.8430438 -0.00357,0.00271 -0.0071,0.00526 -0.010601,0.00798 C 4.3733899,3.1420194 3.8337134,3.6583092 3.3506284,4.245839 2.1969945,5.6524044 1.3392205,7.4721523 1.0359388,9.3277733 L 0.9420577,9.2972793 c 0,0 -0.70377571,3.8647207 1.3276091,6.6022567 0.01643,0.03109 0.038331,0.05534 0.063927,0.07293 0.2752904,0.304487 0.7636268,0.343228 1.1409351,0.0716 C 3.8813731,15.7507 4.0036762,15.211118 3.7467724,14.839485 2.9808872,13.731719 2.5658443,12.416273 2.5310225,11.039011 c 8.67e-4,-0.03381 0.00191,-0.06756 0.00243,-0.101288 0.0018,-0.09694 0.00376,-0.194874 0.00866,-0.291364 3.07e-4,-0.0065 -1.185e-4,-0.01279 2.025e-4,-0.01929 4e-4,-0.0085 0.00123,-0.0166 0.0017,-0.0251 0.00689,-0.123468 0.015471,-0.246385 0.027328,-0.368951 2.529e-4,-0.0026 4.319e-4,-0.0052 6.878e-4,-0.0079 7.355e-4,-0.0075 0.0022,-0.01501 0.00296,-0.02252 0.187865,-1.8624097 1.0561401,-3.6981293 2.2705774,-5.0248603 0.17467,-0.1897662 0.3446863,-0.3693117 0.5109173,-0.5370696 0.00531,-0.00536 0.00992,-0.010163 0.01522,-0.015503 C 6.5150953,3.5995962 7.9717597,2.8914044 9.4122861,2.6110133 9.8621061,2.5689334 10.183877,2.3476683 10.147077,1.8474352 10.129495,1.6110105 10.03171,1.4043493 9.8853533,1.2566318 Z"
       transform="rotate(-60,11.007235,10.975217)"
       sodipodi:nodetypes="sccccccccccccccccccscccscccs" />
  </g>
  <g
     id="g18"
     transform="matrix(1.2585899,-1.4999291,1.4999291,1.2585899,-6.344307,27.927527)"
     style="display:inline">
    <path
       id="path10"
       style="display:inline;isolation:isolate;fill:url(#linearGradient11);stroke-width:0.403534"
       d="M 4.7215547,2.8955032 C 4.5316678,3.0588507 4.3225857,3.2564733 4.1248705,3.4508155 3.5950306,3.903427 3.1252927,4.4028817 2.7215661,4.9406566 c -0.00272,0.0035 -0.00511,0.00664 -0.00782,0.010208 C 2.3678473,5.3986866 2.0945003,5.8517931 1.8698673,6.3282391 1.4171576,7.2444921 1.1317871,8.2278375 1.037995,9.2435245 c -0.00281,0.01689 -0.00482,0.03387 -0.00385,0.04967 4.829e-4,0.0078 0.00254,0.015529 0.00392,0.023119 0.00166,0.420937 0.3551522,0.7779805 0.8280017,0.8131445 0.5002331,0.0368 0.7989109,-0.712857 0.8409908,-1.162677 0.1385652,-1.482189 0.910467,-2.4690424 1.9360363,-3.6124324 0.00534,-0.0053 0.010394,-0.010641 0.015754,-0.015951 0.05603,-0.055521 0.1150679,-0.1121419 0.1736758,-0.1684958 l 0.013156,0.00808 c 0,0 0.082554,-0.088441 0.1763781,-0.1880643 C 5.0795772,4.9360068 5.1366105,4.8822508 5.1961944,4.8274069 5.590483,4.466491 6.2686616,3.9837105 6.7781426,3.6329394 7.592608,3.1925403 8.623871,2.5758844 9.5426637,2.4899894 9.9924837,2.4479095 10.183983,2.3479154 10.147183,1.8476823 10.112019,1.3748328 9.7548035,1.0211439 9.3338665,1.0194839 c -0.00759,-0.00138 -0.015165,-0.00301 -0.022965,-0.00349 -0.0158,-9.7e-4 -0.0324,3.046e-4 -0.04929,0.00311 C 8.3522131,1.1030809 7.468666,1.341503 6.6359703,1.7152692 l -0.00297,-0.00571 c 0,0 -0.034613,0.02173 -0.038768,0.024335 -0.083261,0.037904 -0.1662268,0.076782 -0.2484247,0.1173951 -0.476446,0.224633 -0.9291834,0.4981276 -1.3770054,0.8440264 -0.00357,0.00271 -0.0071,0.00526 -0.010601,0.00798 -0.073089,0.05487 -0.1527218,0.1200008 -0.2366496,0.1921985 z"
       transform="rotate(90,11.000322,10.981893)"
       sodipodi:nodetypes="ccccccccccccccccccccsccccccccc" />
  </g>
  <g
     id="g14"
     style="isolation:isolate"
     transform="matrix(0.93238961,0,0,0.93238961,1.5062541,2.879074)">
    <path
       id="path11"
       style="display:none;isolation:isolate;fill:url(#linearGradient12);stroke-width:0.403534"
       d="m 12.2981,1.1171357 c -0.244717,0.1367476 -0.421353,0.4057495 -0.445528,0.7308335 -0.0368,0.5002331 0.298638,0.9417877 0.748458,0.9838676 0.576662,0.05391 1.141122,0.1831215 1.682874,0.3799459 1.368491,0.6142383 2.579418,1.6113844 3.486012,2.8780733 0.07319,0.102265 0.144306,0.2068262 0.213454,0.3125138 0.0047,0.00712 0.0092,0.013897 0.01376,0.02105 0.0035,0.00547 0.0062,0.01143 0.0098,0.016915 0.05249,0.081113 0.103265,0.1643238 0.153291,0.247372 0.02635,0.044072 0.05447,0.08717 0.0801,0.1317603 0.02579,0.044495 0.04943,0.090991 0.07441,0.1358522 0.04747,0.085822 0.09416,0.1712283 0.138631,0.2582524 0.0024,0.00464 0.0053,0.00865 0.0077,0.01329 0.0033,0.00641 0.0064,0.012989 0.0096,0.019424 0.05764,0.1138385 0.11316,0.2284389 0.165661,0.3441335 0.776506,1.7111657 0.994419,3.6112798 0.604485,5.3745638 -0.05639,0.251678 -0.113558,0.492053 -0.17364,0.720452 -0.0019,0.0073 -0.0039,0.01461 -0.0059,0.02192 -0.477419,1.459863 -1.376743,2.704882 -2.591074,3.565977 -0.368516,0.261353 -0.438487,0.809622 -0.156514,1.224445 0.261652,0.384295 0.734135,0.515517 1.096964,0.323547 0.03007,-0.0078 0.05859,-0.02367 0.08467,-0.04727 1.856502,-1.313305 3.110405,-3.36709 3.505999,-5.749419 0.332879,-2.019989 0.02571,-4.1500308 -0.855757,-6.0776363 -0.04176,-0.09124 -0.08625,-0.1815107 -0.13042,-0.2718781 C 19.643922,5.8132689 19.237768,4.9639644 18.648975,4.246081 18.16589,3.6585512 17.626614,3.1417491 17.041905,2.7027874 c -0.0035,-0.00272 -0.0072,-0.00477 -0.01076,-0.00748 C 16.583321,2.3494092 16.130665,2.0766126 15.654219,1.8519796 14.737966,1.3992699 13.754522,1.1135332 12.738835,1.0197411 c -0.01689,-0.00281 -0.03414,-0.00516 -0.04994,-0.00419 -0.0078,4.829e-4 -0.01497,0.00279 -0.02256,0.00417 -0.131543,5.188e-4 -0.256996,0.03526 -0.368231,0.097418 z"
       transform="matrix(1.6086935,1.3498541,-1.3498541,1.6086935,21.223307,-8.5227323)" />
    <path
       id="path9"
       style="display:none;isolation:isolate;fill:url(#linearGradient21);stroke-width:0.403534"
       d="m 12.689127,1.015625 c -0.0078,4.829e-4 -0.0153,0.00253 -0.02289,0.00391 -0.420937,0.00166 -0.778311,0.3552755 -0.813475,0.828125 -0.0368,0.5002331 0.298507,0.9422951 0.748327,0.984375 1.482189,0.1385652 2.883504,0.7673995 4.026894,1.7929688 0.0053,0.00534 0.01054,0.010265 0.01585,0.015625 0.166231,0.1677579 0.335954,0.3473432 0.510624,0.5371094 0.609667,0.6660408 1.063795,1.4609943 1.429488,2.2994828 0.365693,0.8384886 1.827203,0.119411 1.450783,-0.7576795 C 19.658308,5.842451 19.248281,4.9763897 18.649357,4.2461536 18.166272,3.6586238 17.626478,3.1421465 17.041769,2.7031848 c -0.0035,-0.00272 -0.007,-0.0051 -0.01057,-0.00781 -0.447822,-0.3458988 -0.90048,-0.619117 -1.376926,-0.84375 -0.916253,-0.4527097 -1.900157,-0.7382392 -2.915844,-0.8320313 -0.01689,-0.00281 -0.0335,-0.00488 -0.0493,-0.00391 z"
       sodipodi:nodetypes="cccccccssccccccc"
       transform="matrix(1.8186535,1.0500001,-1.0500001,1.8186535,15.545291,-7.556016)" />
    <path
       id="path23"
       style="display:inline;isolation:isolate;fill:url(#linearGradient23);stroke-width:0.403534"
       d="m 12.209345,1.1745072 c -0.198081,0.1475433 -0.335328,0.3889229 -0.356481,0.6733714 -0.0368,0.5002331 0.327594,0.8482615 0.777414,0.8903414 0.576662,0.05391 1.111889,0.276684 1.653641,0.4735084 0.783859,0.3518301 1.516021,0.8299356 2.168908,1.4117174 0.09256,0.1263206 0.201982,0.2537242 0.329775,0.3789033 0.08983,0.088002 0.177046,0.1785396 0.263496,0.2706141 0.0058,0.00621 0.01198,0.011645 0.01774,0.017891 0.0044,0.00477 0.0081,0.010172 0.01255,0.014962 0.06578,0.070766 0.130144,0.1448784 0.193832,0.2179779 0.0336,0.038827 0.06878,0.076387 0.101762,0.1158495 0.03313,0.03934 0.06403,0.080491 0.09642,0.1203333 0.06165,0.076275 0.122998,0.1518276 0.181904,0.2298075 0.0031,0.00416 0.0067,0.0076 0.0099,0.011756 0.0044,0.00574 0.008,0.012137 0.0123,0.01791 0.07653,0.1020997 0.151644,0.2048699 0.223437,0.3096901 0.597291,0.8720609 1.031144,1.8337132 1.282386,2.829427 0.01891,0.074933 0.0352,0.1505778 0.05203,0.225872 0.01276,0.058647 0.02604,0.117283 0.03757,0.1760849 0.0012,0.00591 0.0028,0.011759 0.0039,0.017671 0.0019,0.00952 0.0031,0.01913 0.0049,0.028652 0.105853,0.5553886 0.157606,1.1163026 0.153047,1.6745266 -8.18e-4,0.100227 -0.0046,0.200783 -0.009,0.300743 -0.0034,0.071 -0.0086,0.136075 -0.01252,0.205371 -0.02754,0.396737 -0.08181,0.790611 -0.167393,1.17761 -0.0186,0.08299 -0.03198,0.131973 -0.05743,0.237586 -0.317752,1.154685 -0.909245,2.198399 -1.739311,3.0384 -0.317534,0.321375 -0.291321,0.874447 0.0584,1.234004 0.32441,0.333022 0.812587,0.379221 1.136569,0.127164 0.02826,-0.01288 0.05404,-0.03295 0.07562,-0.06072 1.600244,-1.615731 2.478013,-3.856588 2.453909,-6.271417 -0.0164,-1.4628875 -0.366123,-2.9234661 -1.002387,-4.2754443 -0.0071,-0.015723 -0.01344,-0.031658 -0.02061,-0.047355 C 20.103875,6.856075 20.059646,6.7653654 20.015476,6.674998 19.644262,5.8131463 19.237859,4.9635891 18.649066,4.2457057 18.165981,3.6581759 17.626908,3.1418976 17.042199,2.7029359 c -0.0035,-0.00272 -0.0076,-0.0052 -0.01119,-0.00791 C 16.583184,2.3491269 16.130528,2.0763137 15.654082,1.8516807 14.737829,1.398971 13.754484,1.1136006 12.738797,1.0198085 c -0.01689,-0.00281 -0.03432,-0.00535 -0.05012,-0.00438 -0.0078,4.829e-4 -0.01455,0.00262 -0.02214,0.004 -0.131543,5.188e-4 -0.257291,0.035817 -0.368526,0.097975 -0.03059,0.017093 -0.06037,0.036026 -0.08867,0.057103 z"
       transform="matrix(1.6086935,1.3498541,-1.3498541,1.6086935,21.223307,-8.5227323)"
       sodipodi:nodetypes="cccccccscccccccssccccscccccccccccccccccscscc" />
  </g>
  <path
     id="path15"
     style="display:inline;isolation:isolate;fill:url(#linearGradient15);stroke-width:3.54289"
     d="m 45.662562,20.027379 c -2.530763,0.03943 -8.088388,1.028885 -9.391569,1.214355 l -25.845844,3.681153 c -2.4811372,0.28421 -8.9476112,0.959832 -9.61148444,1.710937 -0.7738803,0.875567 -0.50462604,2.120232 0.28476384,2.702637 0.3455586,0.289526 0.8004378,0.449739 1.3152707,0.376465 L 46.144687,23.48734 c 1.603924,-0.228279 2.062706,-2.411276 0.696402,-3.313477 -0.01621,-0.02199 -0.05996,-0.03572 -0.121236,-0.04395 -0.210107,-0.0765 -0.566871,-0.110181 -1.057291,-0.102539 z" />
  <path
     d="M 11.481387,36.725012 22.340234,11.384075 c 0.62533,-1.4594077 2.694214,-1.4594077 3.319548,0 l 10.858775,25.340937 c 0.662711,1.546151 3.730114,9.459822 4.74118,9.965355 1.50455,0.752275 3.130089,-0.780295 2.467379,-2.326457 L 25.659744,2.2065265 c -0.625369,-1.45904664 -2.694108,-1.45904664 -3.319476,0 L 4.2728689,44.36391 c -0.6626432,1.546162 0.9627155,3.078732 2.4673058,2.326457 1.0110555,-0.505514 4.0786473,-8.419204 4.7412123,-9.965355 z"
     fill="url(#paint0_linear)"
     id="path8"
     style="display:inline;isolation:isolate;fill:url(#linearGradient8);stroke-width:3.61149"
     sodipodi:nodetypes="ccccsccccsc" />
  <g
     id="g16"
     style="isolation:isolate"
     transform="matrix(-0.46619481,-0.80747309,0.80747309,-0.46619481,15.821988,55.619822)">
    <path
       id="path16"
       style="display:inline;isolation:isolate;fill:url(#linearGradient25);stroke-width:0.403534"
       d="m 12.209345,1.1745072 c -0.198081,0.1475433 -0.335328,0.3889229 -0.356481,0.6733714 -0.0368,0.5002331 0.284186,0.7638467 0.734006,0.8059266 0.576662,0.05391 1.155297,0.3610988 1.697049,0.5579232 0.783859,0.3518301 1.516021,0.8299356 2.168908,1.4117174 0.09256,0.1263206 0.201982,0.2537242 0.329775,0.3789033 0.08983,0.088002 0.177046,0.1785396 0.263496,0.2706141 0.0058,0.00621 0.01198,0.011645 0.01774,0.017891 0.0044,0.00477 0.0081,0.010172 0.01255,0.014962 0.06578,0.070766 0.130144,0.1448784 0.193832,0.2179779 0.0336,0.038827 0.06878,0.076387 0.101762,0.1158495 0.03313,0.03934 0.06403,0.080491 0.09642,0.1203333 0.06165,0.076275 0.122998,0.1518276 0.181904,0.2298075 0.0031,0.00416 0.0067,0.0076 0.0099,0.011756 0.0044,0.00574 0.008,0.012137 0.0123,0.01791 0.07653,0.1020997 0.151644,0.2048699 0.223437,0.3096901 0.597291,0.8720609 1.031144,1.8337132 1.282386,2.829427 0.01891,0.074933 0.0352,0.1505778 0.05203,0.225872 0.01276,0.058647 0.02604,0.117283 0.03757,0.1760849 0.0012,0.00591 0.0028,0.011759 0.0039,0.017671 0.0019,0.00952 0.0031,0.01913 0.0049,0.028652 0.105853,0.5553886 0.157606,1.1163026 0.153047,1.6745266 -8.18e-4,0.100227 -0.0046,0.200783 -0.009,0.300743 -0.0034,0.071 -0.0086,0.136075 -0.01252,0.205371 -0.02754,0.396737 -0.08181,0.790611 -0.167393,1.17761 -0.0186,0.08299 -0.03198,0.131973 -0.05743,0.237586 -0.317752,1.154685 -0.909245,2.198399 -1.739311,3.0384 -0.317534,0.321375 -0.291321,0.874447 0.0584,1.234004 0.32441,0.333022 0.812587,0.379221 1.136569,0.127164 0.02826,-0.01288 0.05404,-0.03295 0.07562,-0.06072 1.600244,-1.615731 2.478013,-3.856588 2.453909,-6.271417 -0.0164,-1.4628875 -0.366123,-2.9234661 -1.002387,-4.2754443 -0.0071,-0.015723 -0.01344,-0.031658 -0.02061,-0.047355 C 20.103875,6.856075 20.059646,6.7653654 20.015476,6.674998 19.644262,5.8131463 19.237859,4.9635891 18.649066,4.2457057 18.165981,3.6581759 17.626908,3.1418976 17.042199,2.7029359 c -0.0035,-0.00272 -0.0076,-0.0052 -0.01119,-0.00791 C 16.583184,2.3491269 16.130528,2.0763137 15.654082,1.8516807 14.737829,1.398971 13.754484,1.1136006 12.738797,1.0198085 c -0.01689,-0.00281 -0.03432,-0.00535 -0.05012,-0.00438 -0.0078,4.829e-4 -0.01455,0.00262 -0.02214,0.004 -0.131543,5.188e-4 -0.257291,0.035817 -0.368526,0.097975 -0.03059,0.017093 -0.06037,0.036026 -0.08867,0.057103 z"
       transform="matrix(1.6086935,1.3498541,-1.3498541,1.6086935,21.223307,-8.5227323)"
       sodipodi:nodetypes="cccccccscccccccccccccscccccccccccccccccccscc" />
    <path
       id="path25"
       style="display:inline;isolation:isolate;fill:url(#linearGradient26);stroke-width:0.847421"
       d="m 43.198494,16.087721 c -0.476315,-0.20532 -1.05941,-0.201476 -1.598934,0.05872 -0.948391,0.458319 -1.090777,1.318875 -0.694995,2.181126 0.507452,1.105354 0.556348,2.480239 0.767233,3.672164 0.183195,1.794989 0.08246,3.628549 -0.290071,5.426795 -0.132546,0.300971 -0.249356,0.633746 -0.34283,0.997595 -0.06572,0.255772 -0.138804,0.509452 -0.215483,0.763353 -0.0052,0.01707 -0.0086,0.03402 -0.01391,0.05105 -0.0041,0.01301 -0.01,0.02541 -0.01403,0.03853 -0.05963,0.193935 -0.126832,0.388809 -0.192902,0.58139 -0.03533,0.101875 -0.0667,0.205293 -0.10384,0.306712 -0.03676,0.101559 -0.07915,0.200964 -0.117604,0.301704 -0.07398,0.192209 -0.146974,0.38311 -0.226941,0.572118 -0.0043,0.01001 -0.0068,0.02017 -0.01098,0.03035 -0.0058,0.01403 -0.01367,0.02729 -0.01966,0.04117 -0.105327,0.246386 -0.213361,0.490901 -0.32861,0.731529 -0.958821,2.001929 -2.252188,3.800693 -3.799242,5.303114 -0.116422,0.113071 -0.236889,0.222124 -0.356151,0.331791 -0.09326,0.08479 -0.185956,0.170504 -0.280789,0.253216 -0.0095,0.0084 -0.01845,0.01744 -0.02804,0.02565 -0.01532,0.01345 -0.03154,0.02572 -0.04696,0.039 -0.898914,0.775668 -1.864681,1.458748 -2.884684,2.036592 -0.183137,0.103751 -0.369985,0.202457 -0.556397,0.299413 -0.132695,0.06837 -0.256504,0.127238 -0.386645,0.19287 -0.750444,0.366488 -1.523748,0.681357 -2.317427,0.932061 -0.17046,0.05331 -0.273593,0.08041 -0.492389,0.14502 -2.433611,0.634538 -4.952833,0.654717 -7.352073,0.02712 -0.917881,-0.240041 -1.896203,0.388357 -2.182906,1.401914 -0.265021,0.939662 0.163545,1.875996 0.96213,2.200547 0.0531,0.03787 0.116667,0.06368 0.18983,0.07377 4.618711,1.213771 9.615711,0.457229 13.982139,-2.122179 2.643266,-1.565858 4.932343,-3.73549 6.723046,-6.312211 0.02114,-0.02942 0.04346,-0.05768 0.06448,-0.08721 0.122099,-0.171728 0.240628,-0.34741 0.358597,-0.522626 1.177635,-1.580054 2.295962,-3.211195 2.98331,-5.035783 0.561274,-1.495471 0.934179,-3.01795 1.118553,-4.542243 0.0013,-0.0092 0.0015,-0.01928 0.0026,-0.02866 0.158855,-1.177633 0.179718,-2.287311 0.08798,-3.389666 -0.138744,-2.141692 -0.652267,-4.229695 -1.548163,-6.175359 -0.01262,-0.03367 -0.02631,-0.06803 -0.04466,-0.09575 -0.0091,-0.01368 -0.02004,-0.02371 -0.03052,-0.03607 -0.139063,-0.238686 -0.335294,-0.430315 -0.565135,-0.567347 -0.0632,-0.03768 -0.128907,-0.07197 -0.196954,-0.101302 z"
       sodipodi:nodetypes="cccccccscccccccccccccscccccccccccccccccccscc" />
  </g>
</svg>
