<?xml version="1.0" encoding="UTF-8" standalone="no"?>
<svg
   width="512"
   height="512"
   viewBox="0 0 512 512"
   fill="none"
   version="1.1"
   id="svg11"
   sodipodi:docname="compass3.svg"
   inkscape:version="1.3.2 (091e20ef0f, 2023-11-25, custom)"
   xmlns:inkscape="http://www.inkscape.org/namespaces/inkscape"
   xmlns:sodipodi="http://sodipodi.sourceforge.net/DTD/sodipodi-0.dtd"
   xmlns="http://www.w3.org/2000/svg"
   xmlns:svg="http://www.w3.org/2000/svg">
  <sodipodi:namedview
     id="namedview11"
     pagecolor="#ffffff"
     bordercolor="#666666"
     borderopacity="1.0"
     inkscape:showpageshadow="2"
     inkscape:pageopacity="0.0"
     inkscape:pagecheckerboard="0"
     inkscape:deskcolor="#d1d1d1"
     inkscape:zoom="0.734375"
     inkscape:cx="55.148936"
     inkscape:cy="514.7234"
     inkscape:current-layer="svg11" />
  <path
     fill-rule="evenodd"
     clip-rule="evenodd"
     d="M 10,256 C 10,391.445 120.547,502 256,502 391.445,502 502,391.453 502,256 502,120.555 391.454,10 256,10 120.555,10 10,120.546 10,256 Z m 28.8281,0 C 38.8281,136.251 136.251,38.8281 256,38.8281 375.749,38.8281 473.172,136.251 473.172,256 473.172,375.749 375.749,473.172 256,473.172 136.251,473.172 38.8281,375.749 38.8281,256 Z"
     fill="url(#paint0_linear)"
     id="path1"
     style="display:inline;fill:url(#paint0_linear)" />
  <path
     d="M 256,496 C 123.861,496 16,388.132 16,256 H 4 C 4,394.759 117.233,508 256,508 Z M 496,256 c 0,132.139 -107.868,240 -240,240 v 12 C 394.759,508 508,394.767 508,256 Z M 256,16 c 132.14,0 240,107.868 240,240 h 12 C 508,117.241 394.768,4 256,4 Z M 16,256 C 16,123.86 123.868,16 256,16 V 4 C 117.241,4 4,117.232 4,256 Z M 256,32.8281 C 132.937,32.8281 32.8281,132.937 32.8281,256 h 12 C 44.8281,139.565 139.565,44.8281 256,44.8281 Z M 479.172,256 C 479.172,132.937 379.063,32.8281 256,32.8281 v 12 c 116.435,0 211.172,94.7369 211.172,211.1719 z M 256,479.172 c 123.063,0 223.172,-100.109 223.172,-223.172 h -12 c 0,116.435 -94.737,211.172 -211.172,211.172 z M 32.8281,256 c 0,123.063 100.1089,223.172 223.1719,223.172 v -12 C 139.565,467.172 44.8281,372.435 44.8281,256 Z"
     fill="url(#paint1_linear)"
     id="path2"
     style="display:inline;fill:url(#paint1_linear)" />
  <path
     d="M307.022 307.022L205.105 205.105L205.114 205.076C203.827 206.363 202.779 207.901 202.049 209.611L140.895 352.311C138.569 357.721 139.78 364.015 143.951 368.176C148.121 372.356 154.415 373.547 159.816 371.232L302.515 310.077C304.216 309.357 305.744 308.309 307.031 307.031L307.022 307.022Z"
     fill="url(#paint2_linear)"
     id="path3"
     style="fill:url(#paint2_linear)" />
  <path
     d="M371.234 159.816L310.08 302.515C309.36 304.216 308.312 305.744 307.034 307.031L307.024 307.022L205.107 205.105L205.117 205.076C206.405 203.807 207.923 202.77 209.614 202.049L352.313 140.895C357.733 138.569 364.018 139.78 368.179 143.951C372.349 148.112 373.56 154.406 371.234 159.816V159.816Z"
     fill="url(#paint3_linear)"
     id="path4"
     style="fill:url(#paint3_linear)" />
  <defs
     id="defs11">
    <linearGradient
       id="paint0_linear"
       x1="129.55952"
       y1="512"
       x2="435.34366"
       y2="79.280602"
       gradientUnits="userSpaceOnUse">
      <stop
         id="stop4"
         offset="0"
         style="stop-color:#00f1fa;stop-opacity:1;" />
      <stop
         offset="1"
         id="stop5"
         style="stop-color:#006cff;stop-opacity:1;" />
    </linearGradient>
    <linearGradient
       id="paint1_linear"
       x1="129.55952"
       y1="512"
       x2="435.34366"
       y2="79.280602"
       gradientUnits="userSpaceOnUse">
      <stop
         id="stop6"
         offset="0"
         style="stop-color:#00f1fa;stop-opacity:1;" />
      <stop
         offset="1"
         id="stop7"
         style="stop-color:#006cff;stop-opacity:1;" />
    </linearGradient>
    <linearGradient
       id="paint2_linear"
       x1="129.55952"
       y1="512"
       x2="435.34366"
       y2="79.280602"
       gradientUnits="userSpaceOnUse">
      <stop
         id="stop8"
         offset="0"
         style="stop-color:#00f1fa;stop-opacity:1;" />
      <stop
         offset="1"
         id="stop9"
         style="stop-color:#006cff;stop-opacity:1;" />
    </linearGradient>
    <linearGradient
       id="paint3_linear"
       x1="129.55952"
       y1="512"
       x2="435.34366"
       y2="79.280602"
       gradientUnits="userSpaceOnUse">
      <stop
         id="stop10"
         offset="0"
         style="stop-color:#00f1fa;stop-opacity:1;" />
      <stop
         offset="1"
         id="stop11"
         style="stop-color:#006cff;stop-opacity:1;" />
    </linearGradient>
  </defs>
</svg>
