<?xml version="1.0" encoding="UTF-8" standalone="no"?>
<svg
   width="512"
   height="512"
   viewBox="0 0 512 512"
   fill="none"
   version="1.1"
   id="svg11"
   sodipodi:docname="compass.svg"
   inkscape:version="1.4.1 (93de688d07, 2025-03-30)"
   xmlns:inkscape="http://www.inkscape.org/namespaces/inkscape"
   xmlns:sodipodi="http://sodipodi.sourceforge.net/DTD/sodipodi-0.dtd"
   xmlns="http://www.w3.org/2000/svg"
   xmlns:svg="http://www.w3.org/2000/svg">
  <sodipodi:namedview
     id="namedview11"
     pagecolor="#ffffff"
     bordercolor="#666666"
     borderopacity="1.0"
     inkscape:showpageshadow="2"
     inkscape:pageopacity="0.0"
     inkscape:pagecheckerboard="0"
     inkscape:deskcolor="#d1d1d1"
     inkscape:zoom="1.4142136"
     inkscape:cx="124.80434"
     inkscape:cy="371.23105"
     inkscape:current-layer="svg11" />
  <path
     fill-rule="evenodd"
     clip-rule="evenodd"
     d="M 10,256 C 10,391.445 120.547,502 256,502 391.445,502 502,391.453 502,256 502,120.555 391.454,10 256,10 120.555,10 10,120.546 10,256 Z m 28.8281,0 C 38.8281,136.251 136.251,38.8281 256,38.8281 375.749,38.8281 473.172,136.251 473.172,256 473.172,375.749 375.749,473.172 256,473.172 136.251,473.172 38.8281,375.749 38.8281,256 Z"
     fill="url(#paint0_linear)"
     id="path1"
     style="display:inline;fill:url(#paint0_linear)" />
  <path
     d="M 256,496 C 123.861,496 16,388.132 16,256 H 4 C 4,394.759 117.233,508 256,508 Z M 496,256 c 0,132.139 -107.868,240 -240,240 v 12 C 394.759,508 508,394.767 508,256 Z M 256,16 c 132.14,0 240,107.868 240,240 h 12 C 508,117.241 394.768,4 256,4 Z M 16,256 C 16,123.86 123.868,16 256,16 V 4 C 117.241,4 4,117.232 4,256 Z M 256,32.8281 C 132.937,32.8281 32.8281,132.937 32.8281,256 h 12 C 44.8281,139.565 139.565,44.8281 256,44.8281 Z M 479.172,256 C 479.172,132.937 379.063,32.8281 256,32.8281 v 12 c 116.435,0 211.172,94.7369 211.172,211.1719 z M 256,479.172 c 123.063,0 223.172,-100.109 223.172,-223.172 h -12 c 0,116.435 -94.737,211.172 -211.172,211.172 z M 32.8281,256 c 0,123.063 100.1089,223.172 223.1719,223.172 v -12 C 139.565,467.172 44.8281,372.435 44.8281,256 Z"
     fill="url(#paint1_linear)"
     id="path2"
     style="display:inline;fill:url(#paint1_linear)" />
  <path
     id="path3"
     style="fill:url(#paint2_linear)"
     d="M 358.61719 139.74023 C 356.49903 139.64813 354.345 140.02228 352.3125 140.89453 L 209.61328 202.04883 C 207.92228 202.76983 206.40519 203.80717 205.11719 205.07617 L 205.10742 205.10547 L 205.10547 205.10547 L 205.11328 205.07617 C 203.82628 206.36317 202.77883 207.90133 202.04883 209.61133 L 140.89453 352.31055 C 138.56853 357.72055 139.78017 364.01478 143.95117 368.17578 C 148.12117 372.35578 154.41541 373.54742 159.81641 371.23242 L 302.51562 310.07617 C 304.21663 309.35617 305.74425 308.30925 307.03125 307.03125 L 307.0332 307.03125 C 308.3112 305.74425 309.36008 304.21663 310.08008 302.51562 L 371.23438 159.81641 C 373.56037 154.40641 372.34969 148.11217 368.17969 143.95117 C 365.57906 141.3443 362.14745 139.89374 358.61719 139.74023 z " />
  <defs
     id="defs11">
    <linearGradient
       id="paint0_linear"
       x1="129.55952"
       y1="512"
       x2="435.34366"
       y2="79.280602"
       gradientUnits="userSpaceOnUse">
      <stop
         id="stop4"
         offset="0"
         style="stop-color:#00f1fa;stop-opacity:1;" />
      <stop
         offset="1"
         id="stop5"
         style="stop-color:#006cff;stop-opacity:1;" />
    </linearGradient>
    <linearGradient
       id="paint1_linear"
       x1="129.55952"
       y1="512"
       x2="435.34366"
       y2="79.280602"
       gradientUnits="userSpaceOnUse">
      <stop
         id="stop6"
         offset="0"
         style="stop-color:#00f1fa;stop-opacity:1;" />
      <stop
         offset="1"
         id="stop7"
         style="stop-color:#006cff;stop-opacity:1;" />
    </linearGradient>
    <linearGradient
       id="paint2_linear"
       x1="129.55952"
       y1="512"
       x2="435.34366"
       y2="79.280602"
       gradientUnits="userSpaceOnUse">
      <stop
         id="stop8"
         offset="0"
         style="stop-color:#00f1fa;stop-opacity:1;" />
      <stop
         offset="1"
         id="stop9"
         style="stop-color:#006cff;stop-opacity:1;" />
    </linearGradient>
    <linearGradient
       id="paint3_linear"
       x1="129.55952"
       y1="512"
       x2="435.34366"
       y2="79.280602"
       gradientUnits="userSpaceOnUse">
      <stop
         id="stop10"
         offset="0"
         style="stop-color:#00f1fa;stop-opacity:1;" />
      <stop
         offset="1"
         id="stop11"
         style="stop-color:#006cff;stop-opacity:1;" />
    </linearGradient>
  </defs>
</svg>
