<?xml version="1.0" encoding="UTF-8" standalone="no"?>
<svg
   width="192pt"
   height="192pt"
   viewBox="0 0 192 192"
   version="1.1"
   id="svg14"
   sodipodi:docname="gps.svg"
   inkscape:version="1.4.1 (93de688d07, 2025-03-30)"
   xmlns:inkscape="http://www.inkscape.org/namespaces/inkscape"
   xmlns:sodipodi="http://sodipodi.sourceforge.net/DTD/sodipodi-0.dtd"
   xmlns:xlink="http://www.w3.org/1999/xlink"
   xmlns="http://www.w3.org/2000/svg"
   xmlns:svg="http://www.w3.org/2000/svg">
  <defs
     id="defs14">
    <linearGradient
       id="linearGradient16"
       inkscape:collect="always">
      <stop
         style="stop-color:#00f1fa;stop-opacity:1;"
         offset="0"
         id="stop16" />
      <stop
         style="stop-color:#006cff;stop-opacity:1;"
         offset="1"
         id="stop17" />
    </linearGradient>
    <linearGradient
       id="linearGradient14"
       inkscape:collect="always">
      <stop
         style="stop-color:#00f1fa;stop-opacity:1;"
         offset="0"
         id="stop14" />
      <stop
         style="stop-color:#006cff;stop-opacity:1;"
         offset="1"
         id="stop15" />
    </linearGradient>
    <linearGradient
       inkscape:collect="always"
       xlink:href="#linearGradient14"
       id="linearGradient15"
       x1="44.650986"
       y1="182.56009"
       x2="182.03217"
       y2="95.97168"
       gradientUnits="userSpaceOnUse" />
    <linearGradient
       inkscape:collect="always"
       xlink:href="#linearGradient16"
       id="linearGradient17"
       x1="44.650986"
       y1="182.56009"
       x2="182.03217"
       y2="95.97168"
       gradientUnits="userSpaceOnUse" />
  </defs>
  <sodipodi:namedview
     id="namedview14"
     pagecolor="#505050"
     bordercolor="#ffffff"
     borderopacity="1"
     inkscape:showpageshadow="0"
     inkscape:pageopacity="0"
     inkscape:pagecheckerboard="1"
     inkscape:deskcolor="#505050"
     inkscape:document-units="pt"
     inkscape:zoom="2.015625"
     inkscape:cx="103.44186"
     inkscape:cy="176.12403"
     inkscape:current-layer="svg14" />
  <g
     id="#0b91ffff">
    <path
       id="path1"
       d="M 91.722656 9.440918 C 75.404063 10.05123 59.203066 15.479355 45.830566 24.839355 C 28.930566 36.559355 16.319297 54.410371 11.279297 74.380371 C 6.8992969 91.690371 7.7201172 110.46984 14.370117 127.08984 C 18.470117 138.12984 25.129395 148.21963 33.379395 156.61963 C 35.149395 158.60963 38.080371 159.7601 40.630371 158.6001 C 44.790371 157.1901 45.989434 151.25059 42.669434 148.35059 C 33.799434 139.55059 27.599707 128.44965 23.699707 116.63965 C 23.469707 114.35965 22.739824 112.17041 22.319824 109.92041 C 18.699824 90.98041 22.729375 70.660195 33.609375 54.700195 C 47.789375 32.880195 74.200605 19.990625 100.12061 21.890625 C 111.13061 22.600625 121.95984 25.760156 131.58984 31.160156 C 142.39984 37.320156 151.92031 46.05002 158.32031 56.77002 C 158.99031 57.89002 159.72051 58.97 160.52051 60 C 166.40051 71.39 169.91936 84.110488 169.58936 97.000488 C 169.53936 119.10049 158.66049 140.70977 141.25049 154.25977 C 129.61049 163.58977 115.08053 168.82949 100.29053 170.22949 C 86.810527 170.69949 73.20041 168.11039 61.17041 161.90039 C 55.63041 158.97039 50.060215 165.8693 52.970215 171.0293 C 62.080215 177.1293 72.970469 180.17979 83.730469 181.77979 C 97.430469 183.63979 111.56057 182.15951 124.58057 177.49951 C 141.00057 171.68951 155.32045 160.62971 165.71045 146.69971 C 185.74045 119.55971 187.61953 80.359434 169.76953 51.669434 C 162.29953 38.929434 151.32984 28.010449 138.33984 20.960449 C 129.19984 15.310449 118.63949 11.730703 107.97949 10.470703 C 102.61449 9.5707031 97.162188 9.2374805 91.722656 9.440918 z "
       style="fill:url(#linearGradient15)" />
  </g>
  <g
     id="#0000003c"
     style="display:none">
    <path
       fill="#000000"
       opacity="0.24"
       d="M 33.61,54.7 C 47.79,32.88 74.2,19.99 100.12,21.89 c 11.01,0.71 21.84,3.87 31.47,9.27 10.81,6.16 20.33,14.89 26.73,25.61 -3.17,-1.3 -4.58,-4.82 -6.96,-7.11 C 145.52,42.38 137.68,37.01 129.67,32.37 111.27,23.04 89.03,21.62 69.62,28.68 56.77,33.52 44.91,41.61 36.67,52.69 c -0.69,1.09 -1.86,1.66 -3.06,2.01 z"
       id="path4" />
    <path
       fill="#000000"
       opacity="0.24"
       d="m 71.16,117.88 c 4.68,3.93 11.06,4.4 16.61,6.44 13.48,4.16 26.96,8.32 40.47,12.38 3.02,1.23 5.84,-0.63 7.9,-2.7 0.18,3.3 -3.19,5.33 -6.15,5.34 -2.82,-0.2 -5.46,-1.28 -8.14,-2.1 -15.08,-4.61 -30.15,-9.23 -45.24,-13.78 -2.62,-0.74 -5.4,-2.56 -5.45,-5.58 z"
       id="path5" />
    <path
       fill="#000000"
       opacity="0.24"
       d="m 124.58,177.5 c 16.42,-5.81 30.74,-16.87 41.13,-30.8 0.02,2.92 -2.2,5 -3.99,7.02 -16.84,20.36 -43.37,32.21 -69.76,31.31 -11.84,-0.71 -23.61,-3.46 -34.31,-8.66 -2.23,-1.05 -4.22,-2.81 -4.68,-5.34 9.11,6.1 20,9.15 30.76,10.75 13.7,1.86 27.83,0.38 40.85,-4.28 z"
       id="path6" />
  </g>
  <g
     id="#129fffff">
    <path
       id="path8"
       d="M 60.580078 54.805664 C 58.295391 54.726914 56.008125 55.817168 54.890625 57.909668 C 53.300625 60.429668 54.490469 63.409746 55.230469 65.989746 C 58.340469 75.679746 61.10957 85.469629 64.30957 95.119629 C 66.41957 102.74963 69.000645 110.26037 71.160645 117.88037 C 75.840645 121.81037 82.220508 122.27982 87.770508 124.31982 C 101.25051 128.47982 114.72975 132.64068 128.23975 136.70068 C 131.25975 137.93068 134.07965 136.06951 136.13965 133.99951 C 136.58965 132.03951 136.69023 129.97957 135.99023 128.05957 C 131.31023 112.81957 126.59066 97.590586 121.93066 82.350586 C 121.33066 81.010586 121.39006 79.180547 120.06006 78.310547 L 120.55957 77.749512 C 119.91957 75.079512 118.50986 72.189473 115.60986 71.459473 C 107.13986 68.859473 98.699414 66.099551 90.149414 63.789551 C 81.129414 60.679551 71.929824 58.130273 62.819824 55.280273 C 62.102324 54.987773 61.341641 54.831914 60.580078 54.805664 z M 70.000488 70.630371 C 74.540488 71.640371 78.910625 73.25043 83.390625 74.44043 C 91.730625 77.38043 100.38064 79.379941 108.66064 82.439941 C 109.92064 84.879941 110.5499 87.580176 111.3999 90.180176 C 114.3099 100.56018 118.04963 110.71971 120.61963 121.19971 C 119.92963 121.02971 118.53936 120.69027 117.83936 120.53027 C 109.00936 118.04027 100.29949 115.13936 91.479492 112.58936 C 88.259492 111.42936 84.790508 110.88021 81.770508 109.22021 C 78.940508 101.44021 76.890059 93.38 74.310059 85.5 C 73.230059 81.9 72.070273 78.319707 71.030273 74.699707 C 70.620273 73.359707 70.270488 72.010371 70.000488 70.630371 z "
       style="fill:url(#linearGradient17)" />
  </g>
  <g
     id="#00000033"
     style="display:none">
    <path
       fill="#000000"
       opacity="0.2"
       d="m 70,70.63 c 4.54,1.01 8.91,2.62 13.39,3.81 8.34,2.94 16.99,4.94 25.27,8 1.26,2.44 1.89,5.14 2.74,7.74 2.91,10.38 6.65,20.54 9.22,31.02 -0.69,-0.17 -2.08,-0.51 -2.78,-0.67 -0.03,-2.18 0.03,-4.41 -0.73,-6.48 -2.96,-8.58 -5.31,-17.36 -8.12,-25.98 -0.86,-2.89 -4.05,-3.75 -6.56,-4.65 C 97.58,81.96 92.71,80.59 87.89,79.02 82.31,77.45 76.88,75.1 71.03,74.7 70.62,73.36 70.27,72.01 70,70.63 Z"
       id="path10" />
  </g>
</svg>
