<?xml version="1.0" encoding="UTF-8" standalone="no"?>
<svg
   id="Capa_1"
   enable-background="new 0 0 512 512"
   height="512"
   viewBox="0 0 512 512"
   width="512"
   version="1.1"
   sodipodi:docname="document-decrypt-2.svg"
   inkscape:version="1.4 (e7c3feb100, 2024-10-09)"
   xmlns:inkscape="http://www.inkscape.org/namespaces/inkscape"
   xmlns:sodipodi="http://sodipodi.sourceforge.net/DTD/sodipodi-0.dtd"
   xmlns="http://www.w3.org/2000/svg"
   xmlns:svg="http://www.w3.org/2000/svg">
  <defs
     id="defs3" />
  <sodipodi:namedview
     id="namedview3"
     pagecolor="#ffffff"
     bordercolor="#666666"
     borderopacity="1.0"
     inkscape:showpageshadow="2"
     inkscape:pageopacity="0.0"
     inkscape:pagecheckerboard="0"
     inkscape:deskcolor="#d1d1d1"
     inkscape:zoom="1.0385631"
     inkscape:cx="246.01298"
     inkscape:cy="293.19355"
     inkscape:current-layer="Capa_1" />
  <linearGradient
     id="linearGradient7779"
     gradientUnits="userSpaceOnUse"
     x1="91"
     x2="421"
     y1="512"
     y2="256"
     gradientTransform="matrix(0.98461424,0,0,0.98461424,3.9409414,3.9401308)">
    <stop
       offset="0"
       id="stop1"
       style="stop-color:#ff69ff;stop-opacity:1;" />
    <stop
       offset="1"
       id="stop2"
       style="stop-color:#9033dd;stop-opacity:1;" />
  </linearGradient>
  <g
     id="g3">
    <path
       id="path2"
       style="fill:url(#linearGradient7779);stroke-width:0.984614"
       d="M 254.26373,0.01321227 C 230.18974,0.27497377 206.22035,7.0685584 185.61523,19.526927 163.25408,32.96195 144.85175,52.89615 133.29127,76.285769 c -9.56918,19.263951 -14.44311,40.824881 -14.13839,62.330361 -0.0286,33.22136 -0.005,66.44274 -0.0121,99.66411 -4.26654,0.0315 -8.53978,-0.0964 -12.80171,0.10103 -7.136509,0.67584 -13.597325,5.86756 -15.784788,12.6961 -0.935197,2.73041 -1.036625,5.64374 -0.951967,8.50131 0.0091,29.62821 -0.02711,59.25677 0.02665,88.88477 0.409652,26.26058 7.180124,52.39998 19.624825,75.53218 13.71919,25.60751 34.24199,47.52194 58.90414,62.87807 22.26847,13.92206 47.8897,22.44641 74.07157,24.55909 26.06638,2.16056 52.64783,-1.86467 76.83678,-11.84532 26.92385,-11.04058 50.8122,-29.31549 68.60015,-52.33783 16.32327,-21.0762 27.51422,-46.11904 32.15547,-72.37926 1.96078,-10.91903 2.7365,-22.03099 2.58013,-33.11833 -0.004,-28.55943 0.0167,-57.11955 -0.0266,-85.67854 -0.25388,-7.13373 -5.04327,-13.8434 -11.68575,-16.44436 -3.00127,-1.25152 -6.30017,-1.4711 -9.51458,-1.35083 -61.84738,0 -123.69474,0 -185.5421,0 0.003,-34.21589 -0.0155,-68.43217 0.0234,-102.64782 0.11726,-4.95802 1.22926,-9.87733 3.15158,-14.44436 0.14513,-0.31869 0.44959,-1.03792 0.67472,-1.50018 4.46232,-9.57337 12.84908,-17.21157 22.7885,-20.778664 9.91384,-3.656688 21.26143,-3.129964 30.8098,1.387254 9.6728,4.47342 17.36984,12.96025 20.93759,22.99709 1.71898,4.66 2.41094,9.6438 2.36121,14.59757 -0.008,7.56743 -0.0381,15.13533 0.0242,22.70266 0.32447,7.14105 5.18431,13.81324 11.86365,16.34767 2.91452,1.1743 6.09802,1.39064 9.20709,1.27737 19.2349,-0.0109 38.4707,0.0312 57.70502,-0.0306 7.09432,-0.29914 13.7442,-5.07447 16.33291,-11.68177 1.25117,-3.00128 1.47184,-6.30018 1.35021,-9.51459 -0.0357,-8.47869 0.0936,-16.9599 -0.10267,-25.43674 -0.866,-23.48999 -7.96195,-46.716298 -20.39434,-66.667758 C 358.83401,43.044897 339.05802,25.12268 315.96682,13.847711 296.85859,4.484157 275.53966,-0.28545533 254.26373,0.01321227 Z m 1.73845,37.40380273 c 2.52046,0.0038 5.21267,0.109624 7.6173,0.288462 16.8605,1.264329 33.36427,6.948555 47.40592,16.370102 7.14168,4.754466 13.664,10.436531 19.36132,16.851013 0.4047,0.465344 1.01905,1.15582 1.49335,1.72714 1.38285,1.624308 2.81173,3.443412 4.02202,5.057467 0.78738,1.070707 1.43865,1.980451 2.19662,3.088656 7.11902,10.39195 12.24481,22.147955 14.98605,34.443995 0.17856,0.81858 0.41653,1.91977 0.58873,2.85217 0.91141,4.78844 1.47525,9.64327 1.68627,14.51319 0.0162,0.49589 0.0445,1.26578 0.0521,1.81299 0.0426,2.1261 0.0414,4.25286 0.0364,6.37931 -7.21922,0 -14.43844,0 -21.65766,0 0.0543,-5.69011 -0.0968,-11.40858 -1.10652,-17.02204 -2.8267,-16.8307 -11.45423,-32.592809 -24.02714,-44.12178 -11.70526,-10.810624 -26.79281,-17.922414 -42.60939,-19.93184 -16.14188,-2.109104 -32.93658,0.971782 -47.21171,8.821177 -15.50445,8.43866 -27.99262,22.288488 -34.72377,38.613743 -4.18603,10.0566 -6.13608,21.00001 -5.89435,31.88113 0,33.0788 0,66.15762 0,99.23642 -7.2205,0 -14.44102,0 -21.66152,0 0.003,-34.46013 -0.0151,-68.92061 0.0231,-103.38052 0.0354,-1.91736 0.13399,-3.82351 0.26534,-5.65205 0.58293,-7.53559 2.00617,-15.00937 4.2846,-22.21728 0.40915,-1.29331 0.9069,-2.79464 1.40705,-4.1494 5.63368,-15.474224 15.21627,-29.473502 27.52946,-40.400545 0.46535,-0.404715 1.15583,-1.019063 1.72714,-1.493356 1.62431,-1.382857 3.44341,-2.811734 5.05747,-4.022023 1.07071,-0.787375 1.98045,-1.438656 3.08866,-2.196617 10.39194,-7.119022 22.14795,-12.244808 34.44399,-14.986055 0.81925,-0.178453 1.9211,-0.41625 2.85404,-0.588981 6.18145,-1.180282 12.47218,-1.769186 18.76509,-1.774478 z M 384.98665,275.69366 c -0.01,24.16424 0.0296,48.32887 -0.0296,72.49285 -0.14993,7.71719 -1.0016,15.63143 -2.57296,23.2743 -0.28797,1.41575 -0.60839,2.8246 -0.93966,4.23082 -0.24058,0.95003 -0.53471,2.16678 -0.82312,3.21201 -0.93876,3.52201 -2.03701,7.00131 -3.27302,10.43028 -0.22652,0.61255 -0.56441,1.54738 -0.80306,2.15613 -0.56046,1.4579 -1.08762,2.79149 -1.71529,4.26083 -8.48305,20.12187 -22.22654,37.96362 -39.41646,51.41744 -14.87486,11.68036 -32.34669,20.0365 -50.79558,24.21406 -7.61419,1.72984 -15.38527,2.76377 -23.18679,3.08797 -0.75777,0.0239 -1.81403,0.0663 -2.68766,0.0828 -2.6506,0.0487 -5.30078,0.0328 -7.88569,-0.0718 -8.4008,-0.33014 -16.77075,-1.47214 -24.94584,-3.43797 -0.95004,-0.24058 -2.16678,-0.53471 -3.21202,-0.82312 -3.522,-0.93876 -7.00131,-2.037 -10.43027,-3.27302 -0.61255,-0.22652 -1.54738,-0.56441 -2.15613,-0.80306 -1.4579,-0.56045 -2.79149,-1.08762 -4.26083,-1.71529 -20.12187,-8.48305 -37.96363,-22.22654 -51.41744,-39.41646 -11.68036,-14.87486 -20.03651,-32.34668 -24.21406,-50.79558 -1.54679,-6.81564 -2.54097,-13.75654 -2.96298,-20.73294 -0.25585,-3.8878 -0.24475,-7.96845 -0.24038,-11.93306 0,-21.95241 0,-43.90483 0,-65.85724 85.98964,0 171.97929,0 257.96893,0 z m -130.18062,21.6769 c -12.40753,0.24898 -24.60172,5.58178 -33.24902,14.47642 -8.27164,8.39332 -13.30334,19.90214 -13.76049,31.68552 -0.52604,11.64713 3.35488,23.43582 10.75833,32.45099 4.97759,6.12138 11.46327,11.01762 18.73966,14.07542 0.0125,15.09753 -0.035,30.19624 0.0346,45.29301 0.3425,6.91925 4.92228,13.39911 11.30962,16.07039 6.2972,2.74771 14.07858,1.64093 19.32144,-2.81536 4.50689,-3.70106 7.05383,-9.59587 6.74968,-15.41155 0,-14.37754 0,-28.7551 0,-43.13264 12.5436,-5.24447 22.62943,-16.03562 26.97418,-28.92334 4.24161,-12.35803 3.17304,-26.44031 -2.9778,-37.9789 -6.23996,-11.90547 -17.64254,-21.00664 -30.69556,-24.28629 -4.30382,-1.10826 -8.76223,-1.60927 -13.20464,-1.50367 z m 1.80769,37.41727 c 4.86573,0.19431 9.26186,4.09801 10.05575,8.89998 0.76609,4.14421 -1.12574,8.63174 -4.66661,10.93332 -3.61777,2.44242 -8.72037,2.40795 -12.25836,-0.17756 -2.89355,-2.06904 -4.73584,-5.61207 -4.56153,-9.18845 0.0172,-1.87963 0.66489,-3.9183 1.74666,-5.53978 2.06422,-3.24284 5.8465,-5.16298 9.68409,-4.92751 z" />
  </g>
</svg>
