<?xml version="1.0" encoding="UTF-8" standalone="no"?>
<svg
   width="22"
   height="22"
   viewBox="0 0 22 22"
   fill="none"
   version="1.1"
   id="svg2"
   sodipodi:docname="fileview-preview.svg"
   inkscape:version="1.3.2 (091e20ef0f, 2023-11-25, custom)"
   xmlns:inkscape="http://www.inkscape.org/namespaces/inkscape"
   xmlns:sodipodi="http://sodipodi.sourceforge.net/DTD/sodipodi-0.dtd"
   xmlns:xlink="http://www.w3.org/1999/xlink"
   xmlns="http://www.w3.org/2000/svg"
   xmlns:svg="http://www.w3.org/2000/svg">
  <sodipodi:namedview
     id="namedview2"
     pagecolor="#ffffff"
     bordercolor="#666666"
     borderopacity="1.0"
     inkscape:showpageshadow="2"
     inkscape:pageopacity="0.0"
     inkscape:pagecheckerboard="0"
     inkscape:deskcolor="#d1d1d1"
     inkscape:zoom="24.170195"
     inkscape:cx="6.8886494"
     inkscape:cy="11.170783"
     inkscape:current-layer="svg2" />
  <path
     d="m 17.8152,6.98956 c -0.7446,0 -1.4587,-0.29577 -1.9851,-0.82224 -0.5265,-0.52647 -0.8223,-1.24051 -0.8223,-1.98503 0,-0.74455 0.2958,-1.45859 0.8223,-1.98506 0.5264,-0.52646 1.2405,-0.82223 1.9851,-0.82223 0.7444,0 1.4585,0.29577 1.985,0.82223 0.5264,0.52647 0.8222,1.24051 0.8222,1.98506 0,0.74452 -0.2958,1.45856 -0.8222,1.98503 -0.5265,0.52647 -1.2406,0.82224 -1.985,0.82224 z M 18.2658,20.6248 H 11.7482 C 11.336,20.6286 10.9302,20.5233 10.5719,20.3196 10.2135,20.1159 9.9154,19.8211 9.70771,19.465 9.50448,19.1221 9.39558,18.7315 9.39206,18.3329 9.38853,17.9341 9.49051,17.5417 9.68765,17.1952 l 3.26125,-5.803 c 0.2111,-0.3586 0.5122,-0.6559 0.8734,-0.8624 0.3613,-0.2065 0.7702,-0.3152 1.1863,-0.3152 0.4162,0 0.8251,0.1087 1.1863,0.3152 0.3613,0.2065 0.6624,0.5038 0.8735,0.8624 l 3.2589,5.8006 c 0.1975,0.3467 0.2996,0.7394 0.2962,1.1385 -0.0037,0.399 -0.1128,0.7898 -0.3163,1.133 -0.2076,0.3563 -0.5058,0.6513 -0.8644,0.8551 -0.3585,0.2039 -0.7645,0.3092 -1.177,0.3054 z m -3.2652,-8.0022 -3.1153,5.5962 h 6.2659 z m -7.21148,6.7991 c 0,-0.319 -0.12676,-0.6251 -0.35238,-0.8506 C 7.21112,18.3454 6.9051,18.2188 6.58601,18.2188 H 4.34981 C 4.251,18.2205 4.15357,18.1955 4.06773,18.1466 3.98191,18.0976 3.9109,18.0263 3.86215,17.9403 3.81102,17.8561 3.783,17.7598 3.78089,17.6612 3.77877,17.5627 3.80265,17.4653 3.85012,17.379 L 8.87193,8.09 c 0.04855,-0.09015 0.1206,-0.16548 0.2085,-0.21799 0.08792,-0.0525 0.18839,-0.08023 0.2908,-0.08023 0.1024,0 0.20288,0.02773 0.29079,0.08023 0.0879,0.05251 0.15995,0.12784 0.2085,0.21799 l 0.49888,0.9224 c 0.0705,0.14654 0.1701,0.27727 0.2925,0.38426 0.1225,0.10701 0.2654,0.18807 0.4201,0.23829 0.1547,0.05021 0.318,0.06855 0.4799,0.05388 0.162,-0.01464 0.3193,-0.06199 0.4625,-0.13916 C 12.1675,9.4725 12.2936,9.3671 12.3949,9.23986 12.4961,9.11261 12.5706,8.96615 12.6136,8.80932 12.6567,8.6525 12.6676,8.48856 12.6455,8.32743 12.6234,8.1663 12.5689,8.01132 12.4853,7.87184 L 11.9864,6.94865 C 11.727,6.48252 11.3477,6.09421 10.8879,5.82385 10.428,5.55351 9.90426,5.41095 9.37083,5.41095 c -0.53345,0 -1.0572,0.14256 -1.51705,0.4129 C 7.39391,6.09421 7.01465,6.48252 6.75524,6.94865 L 1.73343,16.2303 c -0.24516,0.4534 -0.36844,0.9627 -0.35779,1.478 0.01065,0.5154 0.15486,1.019 0.41855,1.462 0.26367,0.4429 0.63779,0.8098 1.08575,1.0647 0.44796,0.2549 0.95444,0.3893 1.46987,0.3898 h 2.2362 c 0.31909,0 0.62511,-0.1266 0.85073,-0.3523 0.22562,-0.2257 0.35238,-0.5316 0.35238,-0.8508 z"
     fill="url(#paint0_linear_451_2237)"
     id="path1"
     style="display:none;fill:url(#paint0_linear_451_2237)" />
  <defs
     id="defs2">
    <linearGradient
       id="paint0_linear_451_2237"
       x1="4.3498101"
       y1="20.6248"
       x2="20.623583"
       y2="10.999949"
       gradientUnits="userSpaceOnUse">
      <stop
         offset="0"
         id="stop2"
         style="stop-color:#00f1fa;stop-opacity:1;" />
      <stop
         id="stop1"
         offset="1"
         style="stop-color:#006cff;stop-opacity:1;" />
    </linearGradient>
    <linearGradient
       inkscape:collect="always"
       xlink:href="#paint0_linear_451_2237"
       id="linearGradient3"
       gradientUnits="userSpaceOnUse"
       x1="4.3498101"
       y1="20.6248"
       x2="19.8002"
       y2="2.1972301" />
  </defs>
  <path
     d="M 18.2658,20.6248 H 11.7482 C 11.336,20.6286 10.9302,20.5233 10.5719,20.3196 10.2135,20.1159 9.9154,19.8211 9.70771,19.465 9.50448,19.1221 9.39558,18.7315 9.39206,18.3329 9.38853,17.9341 9.49051,17.5417 9.68765,17.1952 l 3.26125,-5.803 c 0.2111,-0.3586 0.5122,-0.6559 0.8734,-0.8624 0.3613,-0.2065 0.7702,-0.3152 1.1863,-0.3152 0.4162,0 0.8251,0.1087 1.1863,0.3152 0.3613,0.2065 0.6624,0.5038 0.8735,0.8624 l 3.2589,5.8006 c 0.1975,0.3467 0.2996,0.7394 0.2962,1.1385 -0.0037,0.399 -0.1128,0.7898 -0.3163,1.133 -0.2076,0.3563 -0.5058,0.6513 -0.8644,0.8551 -0.3585,0.2039 -0.7645,0.3092 -1.177,0.3054 z m -3.2652,-8.0022 -3.1153,5.5962 h 6.2659 z m -7.21148,6.7991 c 0,-0.319 -0.12676,-0.6251 -0.35238,-0.8506 C 7.21112,18.3454 6.9051,18.2188 6.58601,18.2188 H 4.34981 C 4.251,18.2205 4.15357,18.1955 4.06773,18.1466 3.98191,18.0976 3.9109,18.0263 3.86215,17.9403 3.81102,17.8561 3.783,17.7598 3.78089,17.6612 3.77877,17.5627 3.80265,17.4653 3.85012,17.379 L 8.87193,8.09 c 0.04855,-0.09015 0.1206,-0.16548 0.2085,-0.21799 0.08792,-0.0525 0.18839,-0.08023 0.2908,-0.08023 0.1024,0 0.20288,0.02773 0.29079,0.08023 0.0879,0.05251 0.15995,0.12784 0.2085,0.21799 l 0.49888,0.9224 c 0.0705,0.14654 0.1701,0.27727 0.2925,0.38426 0.1225,0.10701 0.2654,0.18807 0.4201,0.23829 0.1547,0.05021 0.318,0.06855 0.4799,0.05388 0.162,-0.01464 0.3193,-0.06199 0.4625,-0.13916 C 12.1675,9.4725 12.2936,9.3671 12.3949,9.23986 12.4961,9.11261 12.5706,8.96615 12.6136,8.80932 12.6567,8.6525 12.6676,8.48856 12.6455,8.32743 12.6234,8.1663 12.5689,8.01132 12.4853,7.87184 L 11.9864,6.94865 C 11.727,6.48252 11.3477,6.09421 10.8879,5.82385 10.428,5.55351 9.90426,5.41095 9.37083,5.41095 c -0.53345,0 -1.0572,0.14256 -1.51705,0.4129 C 7.39391,6.09421 7.01465,6.48252 6.75524,6.94865 L 1.73343,16.2303 c -0.24516,0.4534 -0.36844,0.9627 -0.35779,1.478 0.01065,0.5154 0.15486,1.019 0.41855,1.462 0.26367,0.4429 0.63779,0.8098 1.08575,1.0647 0.44796,0.2549 0.95444,0.3893 1.46987,0.3898 h 2.2362 c 0.31909,0 0.62511,-0.1266 0.85073,-0.3523 0.22562,-0.2257 0.35238,-0.5316 0.35238,-0.8508 z"
     fill="url(#paint0_linear_451_2237)"
     id="path2"
     style="fill:url(#paint0_linear_451_2237)"
     sodipodi:nodetypes="ccccccccscccccccccccscscccccccscccccccccscccscccscscsss" />
  <path
     d="m 17.8152,6.98956 c -0.7446,0 -1.4587,-0.29577 -1.9851,-0.82224 -0.5265,-0.52647 -0.8223,-1.24051 -0.8223,-1.98503 0,-0.74455 0.2958,-1.45859 0.8223,-1.98506 0.5264,-0.52646 1.2405,-0.82223 1.9851,-0.82223 0.7444,0 1.4585,0.29577 1.985,0.82223 0.5264,0.52647 0.8222,1.24051 0.8222,1.98506 0,0.74452 -0.2958,1.45856 -0.8222,1.98503 -0.5265,0.52647 -1.2406,0.82224 -1.985,0.82224 z"
     fill="url(#paint0_linear_451_2237)"
     id="path3"
     style="fill:url(#linearGradient3)"
     sodipodi:nodetypes="scscscscs" />
</svg>
