<?xml version="1.0" encoding="UTF-8" standalone="no"?>
<svg
   width="48"
   height="48"
   viewBox="0 0 48 48"
   fill="none"
   version="1.1"
   id="svg2"
   sodipodi:docname="insert-image.svg"
   inkscape:version="1.3.2 (091e20ef0f, 2023-11-25, custom)"
   xmlns:inkscape="http://www.inkscape.org/namespaces/inkscape"
   xmlns:sodipodi="http://sodipodi.sourceforge.net/DTD/sodipodi-0.dtd"
   xmlns:xlink="http://www.w3.org/1999/xlink"
   xmlns="http://www.w3.org/2000/svg"
   xmlns:svg="http://www.w3.org/2000/svg">
  <sodipodi:namedview
     id="namedview2"
     pagecolor="#ffffff"
     bordercolor="#666666"
     borderopacity="1.0"
     inkscape:showpageshadow="2"
     inkscape:pageopacity="0.0"
     inkscape:pagecheckerboard="0"
     inkscape:deskcolor="#d1d1d1"
     inkscape:zoom="12.085098"
     inkscape:cx="10.550184"
     inkscape:cy="25.485934"
     inkscape:current-layer="svg2" />
  <path
     d="m 38.871147,15.250013 c -1.62459,0 -3.182635,-0.64532 -4.33115,-1.793987 -1.148733,-1.148668 -1.794118,-2.706582 -1.794118,-4.3309977 0,-1.6244812 0.645385,-3.1823948 1.794118,-4.3310627 1.148515,-1.148646 2.70656,-1.7939657 4.33115,-1.7939657 1.624154,0 3.182199,0.6453197 4.330932,1.7939657 1.148515,1.1486679 1.7939,2.7065815 1.7939,4.3310627 0,1.6244157 -0.645385,3.1823297 -1.7939,4.3309977 -1.148733,1.148667 -2.706778,1.793987 -4.330932,1.793987 z m 0.983132,29.74977 H 25.633987 c -0.89935,0.0083 -1.784737,-0.221455 -2.566486,-0.665894 -0.781968,-0.444439 -1.432371,-1.087642 -1.885516,-1.864592 -0.443413,-0.748149 -0.681014,-1.600372 -0.688694,-2.470049 -0.0077,-0.870114 0.214801,-1.726264 0.644927,-2.482267 L 28.25371,24.855823 c 0.460584,-0.782404 1.117533,-1.431062 1.90561,-1.881609 0.788295,-0.450548 1.680445,-0.687713 2.588304,-0.687713 0.908078,0 1.800228,0.237165 2.588305,0.687713 0.788295,0.450547 1.445243,1.099205 1.905828,1.881609 l 7.110364,12.655921 c 0.430912,0.75644 0.653676,1.613245 0.646258,2.484013 -0.0081,0.87055 -0.24611,1.723209 -0.690113,2.472013 -0.452947,0.777386 -1.103569,1.421026 -1.885973,1.865683 -0.782186,0.444875 -1.668009,0.674621 -2.568014,0.66633 z m -7.12411,-17.459436 -6.797053,12.209954 h 13.671126 z m -15.73422,14.834477 c 0,-0.696004 -0.276569,-1.363862 -0.768833,-1.855864 -0.492265,-0.492439 -1.159948,-0.768659 -1.856148,-0.768659 H 9.491961 C 9.2763744,39.75401 9.0637987,39.699465 8.8765105,39.592773 8.6892659,39.485864 8.5343341,39.330299 8.4279699,39.142662 8.316413,38.958952 8.2552781,38.748842 8.2506745,38.533713 c -0.00463,-0.21491 0.047477,-0.42742 0.151048,-0.615712 L 19.358456,17.650986 c 0.105928,-0.196692 0.263129,-0.361049 0.454911,-0.475617 0.191827,-0.114546 0.411035,-0.175049 0.634476,-0.175049 0.22342,0 0.44265,0.0605 0.634455,0.175049 0.191782,0.114568 0.348983,0.278925 0.454911,0.475617 l 1.088471,2.012519 c 0.153819,0.319726 0.371129,0.604956 0.638185,0.83839 0.267275,0.233478 0.579058,0.410337 0.916587,0.519908 0.337529,0.10955 0.693822,0.149565 1.04706,0.117557 0.353456,-0.03194 0.696658,-0.135251 1.009096,-0.303623 0.31222,-0.168372 0.587349,-0.398337 0.808368,-0.675953 0.220801,-0.277638 0.383348,-0.597188 0.477166,-0.939365 0.09404,-0.342154 0.117819,-0.699843 0.0696,-1.051401 -0.04822,-0.351559 -0.167129,-0.689699 -0.349529,-0.99402 l -1.088515,-2.014243 c -0.565967,-1.017017 -1.393535,-1.864243 -2.39674,-2.454122 -1.003424,-0.589836 -2.146135,-0.900878 -3.309988,-0.900878 -1.163897,0 -2.306631,0.311042 -3.309945,0.900878 -1.003358,0.589879 -1.830839,1.437105 -2.396827,2.454122 L 3.7834657,35.411733 c -0.5348974,0.989242 -0.8038733,2.100447 -0.7806369,3.224744 0.023237,1.124515 0.3378782,2.223285 0.9132048,3.189835 0.575283,0.966332 1.3915491,1.766846 2.3689215,2.322994 0.9773724,0.556148 2.0824254,0.849386 3.2070059,0.850477 h 4.879007 c 0.6962,0 1.363883,-0.276219 1.856148,-0.768658 0.492264,-0.492439 0.768833,-1.159861 0.768833,-1.856301 z"
     id="path1"
     style="display:none;fill:url(#paint0_linear_451_2237);stroke-width:2.18183" />
  <defs
     id="defs2">
    <linearGradient
       id="linearGradient4"
       x1="24"
       y1="24"
       x2="37.656853"
       y2="37.656853"
       gradientUnits="userSpaceOnUse"
       gradientTransform="rotate(45,32,32)">
      <stop
         id="stop3"
         offset="0"
         style="stop-color:#006cff;stop-opacity:1;" />
      <stop
         offset="1"
         id="stop4"
         style="stop-color:#00f1fa;stop-opacity:1;" />
    </linearGradient>
    <linearGradient
       id="paint0_linear_451_2237"
       x1="4.3498101"
       y1="20.6248"
       x2="20.623583"
       y2="10.999949"
       gradientUnits="userSpaceOnUse"
       gradientTransform="matrix(2.1818296,0,0,2.1818296,0.00141679,-1.5782079e-5)">
      <stop
         offset="0"
         id="stop2"
         style="stop-color:#00f1fa;stop-opacity:1;" />
      <stop
         id="stop1"
         offset="1"
         style="stop-color:#006cff;stop-opacity:1;" />
    </linearGradient>
    <linearGradient
       id="paint1_linear"
       x1="24"
       y1="24"
       x2="37.656853"
       y2="37.656853"
       gradientUnits="userSpaceOnUse"
       gradientTransform="rotate(45,32,32)">
      <stop
         id="stop13"
         offset="0"
         style="stop-color:#006cff;stop-opacity:1;" />
      <stop
         offset="1"
         id="stop15"
         style="stop-color:#00f1fa;stop-opacity:1;" />
    </linearGradient>
    <linearGradient
       id="_lgradient_38"
       x1="0.32035008"
       y1="0.99999225"
       x2="0.99999893"
       y2="0.49999669"
       gradientTransform="matrix(52.965088,0,0,52.882926,5.5174698,5.5587116)"
       gradientUnits="userSpaceOnUse"
       xlink:href="#paint0_linear-3">
      <stop
         offset="0"
         stop-opacity="1"
         style="stop-color:#e5f230;stop-opacity:1;"
         id="stop2-1" />
      <stop
         offset="1"
         stop-opacity="1"
         style="stop-color:#24d864;stop-opacity:1;"
         id="stop1-0" />
    </linearGradient>
    <linearGradient
       id="paint0_linear-3"
       x1="8.9972801"
       y1="95.520599"
       x2="182.02499"
       y2="95.520599"
       gradientUnits="userSpaceOnUse">
      <stop
         id="stop6"
         style="stop-color:#e5f230;stop-opacity:1" />
      <stop
         offset="0.986957"
         id="stop8-6"
         style="stop-color:#24d864;stop-opacity:1" />
    </linearGradient>
    <linearGradient
       inkscape:collect="always"
       xlink:href="#linearGradient4"
       id="linearGradient1"
       gradientUnits="userSpaceOnUse"
       gradientTransform="rotate(45,32,32)"
       x1="54.369984"
       y1="39.932854"
       x2="39.042362"
       y2="99.636406" />
    <linearGradient
       inkscape:collect="always"
       xlink:href="#paint1_linear"
       id="linearGradient2"
       gradientUnits="userSpaceOnUse"
       gradientTransform="rotate(45,32,32)"
       x1="54.369984"
       y1="39.932854"
       x2="39.042362"
       y2="99.636406" />
    <linearGradient
       inkscape:collect="always"
       xlink:href="#linearGradient4"
       id="linearGradient10"
       gradientUnits="userSpaceOnUse"
       gradientTransform="rotate(45,32,32)"
       x1="31.69512"
       y1="16.509167"
       x2="39.042362"
       y2="99.636406" />
    <linearGradient
       inkscape:collect="always"
       xlink:href="#paint1_linear"
       id="linearGradient11"
       gradientUnits="userSpaceOnUse"
       gradientTransform="rotate(45,32,32)"
       x1="31.666145"
       y1="16.51807"
       x2="39.042362"
       y2="99.636406" />
  </defs>
  <g
     id="g2"
     transform="matrix(0.66924071,0,0,0.66924071,16.750851,-11.755752)">
    <path
       d="M 32,43.313708 V 20.686292"
       stroke-width="5"
       stroke-linecap="round"
       stroke-linejoin="round"
       id="path4"
       style="stroke:url(#linearGradient10)" />
    <path
       d="M 20.686292,32 H 43.313708"
       stroke-width="5"
       stroke-linecap="round"
       stroke-linejoin="round"
       id="path6"
       style="display:inline;stroke:url(#linearGradient11)" />
    <path
       d="M 39.854279,44.999783 H 25.633987 c -0.89935,0.0083 -1.784737,-0.221455 -2.566486,-0.665894 -0.781968,-0.444439 -1.432371,-1.087642 -1.885516,-1.864592 -0.443413,-0.748149 -0.681014,-1.600372 -0.688694,-2.470049 -0.0077,-0.870114 0.214801,-1.726264 0.644927,-2.482267 L 28.25371,24.855823 c 0.460584,-0.782404 1.117533,-1.431062 1.90561,-1.881609 0.788295,-0.450548 1.680445,-0.687713 2.588304,-0.687713 0.908078,0 1.800228,0.237165 2.588305,0.687713 0.788295,0.450547 1.445243,1.099205 1.905828,1.881609 l 7.110364,12.655921 c 0.430912,0.75644 0.653676,1.613245 0.646258,2.484013 -0.0081,0.87055 -0.24611,1.723209 -0.690113,2.472013 -0.452947,0.777386 -1.103569,1.421026 -1.885973,1.865683 -0.782186,0.444875 -1.668009,0.674621 -2.568014,0.66633 z m -7.12411,-17.459436 -6.797053,12.209954 h 13.671126 z m -15.73422,14.834477 c 0,-0.696004 -0.276569,-1.363862 -0.768833,-1.855864 -0.492265,-0.492439 -1.159948,-0.768659 -1.856148,-0.768659 H 9.491961 C 9.2763744,39.75401 9.0637987,39.699465 8.8765105,39.592773 8.6892659,39.485864 8.5343341,39.330299 8.4279699,39.142662 8.316413,38.958952 8.2552781,38.748842 8.2506745,38.533713 c -0.00463,-0.21491 0.047477,-0.42742 0.151048,-0.615712 L 19.358456,17.650986 c 0.105928,-0.196692 0.263129,-0.361049 0.454911,-0.475617 0.191827,-0.114546 0.411035,-0.175049 0.634476,-0.175049 0.22342,0 0.44265,0.0605 0.634455,0.175049 0.191782,0.114568 0.348983,0.278925 0.454911,0.475617 l 1.088471,2.012519 c 0.153819,0.319726 0.371129,0.604956 0.638185,0.83839 0.267275,0.233478 0.579058,0.410337 0.916587,0.519908 0.337529,0.10955 0.693822,0.149565 1.04706,0.117557 0.353456,-0.03194 0.696658,-0.135251 1.009096,-0.303623 0.31222,-0.168372 0.587349,-0.398337 0.808368,-0.675953 0.220801,-0.277638 0.383348,-0.597188 0.477166,-0.939365 0.09404,-0.342154 0.117819,-0.699843 0.0696,-1.051401 -0.04822,-0.351559 -0.167129,-0.689699 -0.349529,-0.99402 l -1.088515,-2.014243 c -0.565967,-1.017017 -1.393535,-1.864243 -2.39674,-2.454122 -1.003424,-0.589836 -2.146135,-0.900878 -3.309988,-0.900878 -1.163897,0 -2.306631,0.311042 -3.309945,0.900878 -1.003358,0.589879 -1.830839,1.437105 -2.396827,2.454122 L 3.7834657,35.411733 c -0.5348974,0.989242 -0.8038733,2.100447 -0.7806369,3.224744 0.023237,1.124515 0.3378782,2.223285 0.9132048,3.189835 0.575283,0.966332 1.3915491,1.766846 2.3689215,2.322994 0.9773724,0.556148 2.0824254,0.849386 3.2070059,0.850477 h 4.879007 c 0.6962,0 1.363883,-0.276219 1.856148,-0.768658 0.492264,-0.492439 0.768833,-1.159861 0.768833,-1.856301 z"
       id="path5"
       style="display:inline;fill:url(#paint0_linear_451_2237);stroke-width:2.18183"
       sodipodi:nodetypes="ccccccccscccccccccccscscccccccscccccccccscccscccscscsss"
       transform="matrix(1.4942307,0,0,1.4942307,-25.029635,17.565805)" />
    <path
       d="m 30.191292,53.633385 v 0 c 1.321369,0.111428 2.306206,1.277472 2.198156,2.602214 v 0 c -0.109178,1.323622 -1.275222,2.30846 -2.602221,2.197034 v 0 C 23.135358,57.878873 16.926946,54.825319 12.421458,49.885378 7.9272258,44.945436 5.4578168,38.482654 5.5185958,31.80152 c 0.06303,-7.017667 2.917368,-13.732565 7.9214652,-18.659 5.015351,-4.9151804 11.782025,-7.6457114 18.799692,-7.5826814 7.017667,0.06303 13.732562,2.917368 18.658997,7.9214654 4.91406,5.015353 7.645715,11.782024 7.582683,18.799691 v 0 c -0.0124,1.328122 -1.100765,2.397372 -2.428886,2.384994 v 0 c -1.329252,-0.01125 -2.398505,-1.099643 -2.38612,-2.42889 v 0 c 0.05174,-5.741316 -2.18465,-11.275538 -6.20504,-15.380337 -4.03164,-4.093544 -9.524211,-6.43014 -15.26553,-6.481914 -5.741319,-0.05177 -11.275537,2.184649 -15.380337,6.205035 -4.093546,4.03164 -6.430141,9.524217 -6.481916,15.265533 -0.04953,5.464433 1.96067,10.755538 5.644523,14.797309 3.682727,4.04177 8.764484,6.531446 14.213165,6.99066 z M 51.095723,42.290311 v 0 c 0.628045,-1.170546 2.088975,-1.610632 3.259527,-0.982587 v 0 c 1.16942,0.629176 1.609506,2.088984 0.981461,3.259535 v 0 c -2.681007,4.983838 -6.894982,8.990709 -12.009385,11.41172 v 0 c -1.20094,0.574018 -2.639365,0.06415 -3.208876,-1.136778 v 0 c -0.570642,-1.200939 -0.0585,-2.641617 1.142407,-3.215639 v 0 c 4.194839,-1.984298 7.63108,-5.25171 9.834866,-9.336251 z"
       fill-rule="evenodd"
       id="path2-3"
       style="display:none;isolation:isolate;fill:url(#_lgradient_38);stroke-width:1.12552"
       sodipodi:nodetypes="sssssscccscsssssscscccssssssssssssss" />
  </g>
  <g
     id="g10"
     transform="matrix(0.66924071,0,0,0.66924071,16.750851,-11.755752)"
     style="display:none">
    <path
       d="M 32,43.313708 V 20.686292"
       stroke-width="5"
       stroke-linecap="round"
       stroke-linejoin="round"
       id="path7"
       style="stroke:url(#linearGradient1)" />
    <path
       d="M 20.686292,32 H 43.313708"
       stroke-width="5"
       stroke-linecap="round"
       stroke-linejoin="round"
       id="path8"
       style="display:inline;stroke:url(#linearGradient2)" />
    <path
       d="M 39.854279,44.999783 H 25.633987 c -0.89935,0.0083 -1.784737,-0.221455 -2.566486,-0.665894 -0.781968,-0.444439 -1.432371,-1.087642 -1.885516,-1.864592 -0.443413,-0.748149 -0.681014,-1.600372 -0.688694,-2.470049 -0.0077,-0.870114 0.214801,-1.726264 0.644927,-2.482267 L 28.25371,24.855823 c 0.460584,-0.782404 1.117533,-1.431062 1.90561,-1.881609 0.788295,-0.450548 1.680445,-0.687713 2.588304,-0.687713 0.908078,0 1.800228,0.237165 2.588305,0.687713 0.788295,0.450547 1.445243,1.099205 1.905828,1.881609 l 7.110364,12.655921 c 0.430912,0.75644 0.653676,1.613245 0.646258,2.484013 -0.0081,0.87055 -0.24611,1.723209 -0.690113,2.472013 -0.452947,0.777386 -1.103569,1.421026 -1.885973,1.865683 -0.782186,0.444875 -1.668009,0.674621 -2.568014,0.66633 z m -7.12411,-17.459436 -6.797053,12.209954 h 13.671126 z m -15.73422,14.834477 c 0,-0.696004 -0.276569,-1.363862 -0.768833,-1.855864 -0.492265,-0.492439 -1.159948,-0.768659 -1.856148,-0.768659 H 9.491961 C 9.2763744,39.75401 9.0637987,39.699465 8.8765105,39.592773 8.6892659,39.485864 8.5343341,39.330299 8.4279699,39.142662 8.316413,38.958952 8.2552781,38.748842 8.2506745,38.533713 c -0.00463,-0.21491 0.047477,-0.42742 0.151048,-0.615712 L 19.358456,17.650986 c 0.105928,-0.196692 0.263129,-0.361049 0.454911,-0.475617 0.191827,-0.114546 0.411035,-0.175049 0.634476,-0.175049 0.22342,0 0.44265,0.0605 0.634455,0.175049 0.191782,0.114568 0.348983,0.278925 0.454911,0.475617 l 1.088471,2.012519 c 0.153819,0.319726 0.371129,0.604956 0.638185,0.83839 0.267275,0.233478 0.579058,0.410337 0.916587,0.519908 0.337529,0.10955 0.693822,0.149565 1.04706,0.117557 0.353456,-0.03194 0.696658,-0.135251 1.009096,-0.303623 0.31222,-0.168372 0.587349,-0.398337 0.808368,-0.675953 0.220801,-0.277638 0.383348,-0.597188 0.477166,-0.939365 0.09404,-0.342154 0.117819,-0.699843 0.0696,-1.051401 -0.04822,-0.351559 -0.167129,-0.689699 -0.349529,-0.99402 l -1.088515,-2.014243 c -0.565967,-1.017017 -1.393535,-1.864243 -2.39674,-2.454122 -1.003424,-0.589836 -2.146135,-0.900878 -3.309988,-0.900878 -1.163897,0 -2.306631,0.311042 -3.309945,0.900878 -1.003358,0.589879 -1.830839,1.437105 -2.396827,2.454122 L 3.7834657,35.411733 c -0.5348974,0.989242 -0.8038733,2.100447 -0.7806369,3.224744 0.023237,1.124515 0.3378782,2.223285 0.9132048,3.189835 0.575283,0.966332 1.3915491,1.766846 2.3689215,2.322994 0.9773724,0.556148 2.0824254,0.849386 3.2070059,0.850477 h 4.879007 c 0.6962,0 1.363883,-0.276219 1.856148,-0.768658 0.492264,-0.492439 0.768833,-1.159861 0.768833,-1.856301 z"
       id="path9"
       style="display:inline;fill:url(#paint0_linear_451_2237);stroke-width:2.18183"
       sodipodi:nodetypes="ccccccccscccccccccccscscccccccscccccccccscccscccscscsss"
       transform="matrix(1.4942307,0,0,1.4942307,-25.029635,17.565805)" />
    <path
       d="m 30.191292,53.633385 v 0 c 1.321369,0.111428 2.306206,1.277472 2.198156,2.602214 v 0 c -0.109178,1.323622 -1.275222,2.30846 -2.602221,2.197034 v 0 C 23.135358,57.878873 16.926946,54.825319 12.421458,49.885378 7.9272258,44.945436 5.4578168,38.482654 5.5185958,31.80152 c 0.06303,-7.017667 2.917368,-13.732565 7.9214652,-18.659 5.015351,-4.9151804 11.782025,-7.6457114 18.799692,-7.5826814 7.017667,0.06303 13.732562,2.917368 18.658997,7.9214654 4.91406,5.015353 7.645715,11.782024 7.582683,18.799691 v 0 c -0.0124,1.328122 -1.100765,2.397372 -2.428886,2.384994 v 0 c -1.329252,-0.01125 -2.398505,-1.099643 -2.38612,-2.42889 v 0 c 0.05174,-5.741316 -2.18465,-11.275538 -6.20504,-15.380337 -4.03164,-4.093544 -9.524211,-6.43014 -15.26553,-6.481914 -5.741319,-0.05177 -11.275537,2.184649 -15.380337,6.205035 -4.093546,4.03164 -6.430141,9.524217 -6.481916,15.265533 -0.04953,5.464433 1.96067,10.755538 5.644523,14.797309 3.682727,4.04177 8.764484,6.531446 14.213165,6.99066 z M 51.095723,42.290311 v 0 c 0.628045,-1.170546 2.088975,-1.610632 3.259527,-0.982587 v 0 c 1.16942,0.629176 1.609506,2.088984 0.981461,3.259535 v 0 c -2.681007,4.983838 -6.894982,8.990709 -12.009385,11.41172 v 0 c -1.20094,0.574018 -2.639365,0.06415 -3.208876,-1.136778 v 0 c -0.570642,-1.200939 -0.0585,-2.641617 1.142407,-3.215639 v 0 c 4.194839,-1.984298 7.63108,-5.25171 9.834866,-9.336251 z"
       fill-rule="evenodd"
       id="path10"
       style="display:none;isolation:isolate;fill:url(#_lgradient_38);stroke-width:1.12552"
       sodipodi:nodetypes="sssssscccscsssssscscccssssssssssssss" />
  </g>
</svg>
