<?xml version="1.0" encoding="UTF-8" standalone="no"?>
<svg
   width="22"
   height="22"
   viewBox="0 0 22 22"
   fill="none"
   version="1.1"
   id="svg25"
   sodipodi:docname="list-add.svg"
   inkscape:version="1.3.2 (091e20ef0f, 2023-11-25, custom)"
   xmlns:inkscape="http://www.inkscape.org/namespaces/inkscape"
   xmlns:sodipodi="http://sodipodi.sourceforge.net/DTD/sodipodi-0.dtd"
   xmlns:xlink="http://www.w3.org/1999/xlink"
   xmlns="http://www.w3.org/2000/svg"
   xmlns:svg="http://www.w3.org/2000/svg">
  <sodipodi:namedview
     id="namedview27"
     pagecolor="#ffffff"
     bordercolor="#666666"
     borderopacity="1.0"
     inkscape:pageshadow="2"
     inkscape:pageopacity="0.0"
     inkscape:pagecheckerboard="0"
     showgrid="true"
     inkscape:zoom="42.624999"
     inkscape:cx="7.3782993"
     inkscape:cy="12.457478"
     inkscape:current-layer="svg25"
     inkscape:showpageshadow="2"
     inkscape:deskcolor="#d1d1d1">
    <inkscape:grid
       type="xygrid"
       id="grid13217"
       originx="0"
       originy="0"
       spacingy="1"
       spacingx="1"
       units="px"
       visible="true"
       enabled="false" />
  </sodipodi:namedview>
  <defs
     id="defs23">
    <linearGradient
       id="paint0_linear"
       x1="13.615224"
       y1="12.908117"
       x2="50.384777"
       y2="49.67767"
       gradientUnits="userSpaceOnUse"
       gradientTransform="rotate(45,32,32)">
      <stop
         stop-color="#54d863"
         id="stop8"
         offset="0"
         style="stop-color:#54ff64;stop-opacity:1;" />
      <stop
         offset="1"
         stop-color="#e5f230"
         id="stop10" />
    </linearGradient>
    <linearGradient
       id="paint1_linear"
       x1="24"
       y1="24"
       x2="37.656853"
       y2="37.656853"
       gradientUnits="userSpaceOnUse"
       gradientTransform="rotate(45,32,32)">
      <stop
         stop-color="#54d863"
         id="stop13"
         offset="0"
         style="stop-color:#54ff64;stop-opacity:1;" />
      <stop
         offset="1"
         stop-color="#e5f230"
         id="stop15" />
    </linearGradient>
    <linearGradient
       id="paint2_linear"
       x1="24"
       y1="24"
       x2="37.656853"
       y2="37.656853"
       gradientUnits="userSpaceOnUse"
       gradientTransform="rotate(45,32,32)">
      <stop
         stop-color="#54d863"
         id="stop18"
         offset="0"
         style="stop-color:#54ff64;stop-opacity:1;" />
      <stop
         offset="1"
         stop-color="#e5f230"
         id="stop20" />
    </linearGradient>
    <linearGradient
       id="_lgradient_38"
       x1="0.32035008"
       y1="0.99999225"
       x2="0.99999893"
       y2="0.49999669"
       gradientTransform="matrix(20.000033,0,0,19.969008,0.99998859,1.0155616)"
       gradientUnits="userSpaceOnUse"
       xlink:href="#paint0_linear-3">
      <stop
         offset="0"
         stop-opacity="1"
         style="stop-color:#e5f230;stop-opacity:1;"
         id="stop2" />
      <stop
         offset="1"
         stop-opacity="1"
         style="stop-color:#24d864;stop-opacity:1;"
         id="stop1" />
    </linearGradient>
    <linearGradient
       id="paint0_linear-3"
       x1="8.9972801"
       y1="95.520599"
       x2="182.02499"
       y2="95.520599"
       gradientUnits="userSpaceOnUse">
      <stop
         id="stop6"
         style="stop-color:#e5f230;stop-opacity:1" />
      <stop
         offset="0.986957"
         id="stop8-6"
         style="stop-color:#24d864;stop-opacity:1" />
    </linearGradient>
    <linearGradient
       inkscape:collect="always"
       xlink:href="#linearGradient4158"
       id="linearGradient1099"
       x1="315.57132"
       y1="266.76324"
       x2="724.89319"
       y2="676.08313"
       gradientUnits="userSpaceOnUse"
       gradientTransform="matrix(0.00991728,-0.01050538,-0.00991733,-0.01050543,13.473608,21.21932)" />
    <linearGradient
       inkscape:collect="always"
       id="linearGradient4158">
      <stop
         style="stop-color:#e5f230;stop-opacity:1"
         offset="0"
         id="stop4154" />
      <stop
         style="stop-color:#54ff64;stop-opacity:1;"
         offset="1"
         id="stop4156" />
    </linearGradient>
    <linearGradient
       inkscape:collect="always"
       xlink:href="#linearGradient4158"
       id="linearGradient1"
       gradientUnits="userSpaceOnUse"
       gradientTransform="matrix(0.01050535,-0.00991728,-0.01050541,-0.00991733,13.620031,20.647233)"
       x1="315.57132"
       y1="266.76324"
       x2="724.89319"
       y2="676.08313" />
  </defs>
  <path
     d="m 10.317018,19.168936 v 0 c 0.498959,0.04208 0.870841,0.482383 0.830041,0.982616 v 0 c -0.04123,0.49981 -0.481534,0.871693 -0.98262,0.829618 v 0 C 7.6526411,20.772065 5.3082965,19.619019 3.6069888,17.753659 1.9099314,15.888298 0.97746319,13.447901 1.0004138,10.925052 1.0242145,8.275126 2.1020349,5.739528 3.9916213,3.8792673 5.8854571,2.0232565 8.4406061,0.99218656 11.090533,1.0159872 c 2.649926,0.023801 5.185523,1.1016211 7.045783,2.9912076 1.855588,1.8938362 2.887082,4.4489852 2.863281,7.0989112 v 0 c -0.0047,0.501509 -0.415658,0.905266 -0.917166,0.900592 v 0 c -0.501936,-0.0042 -0.905695,-0.415234 -0.901018,-0.917168 v 0 C 19.20095,8.921564 18.356472,6.831799 16.838341,5.2817942 15.315962,3.7360398 13.241924,2.8537228 11.073957,2.8341726 8.9059901,2.8146238 6.8162261,3.6591132 5.2662211,5.1772425 3.720466,6.699621 2.8381494,8.773662 2.8185987,10.941628 c -0.018703,2.063412 0.7403644,4.061375 2.1314163,5.58758 1.3906261,1.526204 3.3095381,2.466325 5.367003,2.639728 z m 7.893677,-4.283234 v 0 c 0.237155,-0.442007 0.788813,-0.608187 1.230823,-0.371033 v 0 c 0.441582,0.237582 0.607762,0.788817 0.370607,1.230826 v 0 c -1.012369,1.881937 -2.603599,3.394963 -4.534838,4.309156 v 0 c -0.453484,0.216753 -0.996645,0.02422 -1.211697,-0.429257 v 0 c -0.215479,-0.453484 -0.02209,-0.997495 0.431382,-1.21425 v 0 c 1.584004,-0.749287 2.881556,-1.983087 3.713723,-3.525442 z"
     fill-rule="evenodd"
     fill="url(#_lgradient_38)"
     id="path2-3"
     style="display:inline;isolation:isolate;fill:url(#_lgradient_38);stroke-width:0.425005"
     sodipodi:nodetypes="sssssscccscsssssscscccssssssssssssss" />
  <path
     inkscape:connector-curvature="0"
     d="m 6.7156976,9.999998 8.5686014,3.1e-5 c 0.512397,2e-6 0.931667,0.444134 0.931742,0.986996 l -9.3e-5,0.02602 c 2e-6,0.542942 -0.419174,0.986974 -0.931665,0.986914 l -8.5686374,4.3e-5 c -0.51251,7.8e-5 -0.931761,-0.444033 -0.931687,-0.986936 v -0.02607 c 0,-0.54294 0.419192,-0.986992 0.931739,-0.986991"
     style="fill:url(#linearGradient1099);fill-opacity:1;fill-rule:evenodd;stroke:none;stroke-width:0.0273074"
     id="path20-2"
     sodipodi:nodetypes="cccccccsc" />
  <path
     inkscape:connector-curvature="0"
     d="m 11.999966,6.7156975 -2.8e-5,8.5686025 c -4e-6,0.512395 -0.444135,0.931664 -0.986994,0.931743 l -0.02599,-9.4e-5 c -0.542943,0 -0.98697,-0.419175 -0.98691,-0.931668 L 10,6.7156445 c -7.9e-5,-0.512508 0.444031,-0.931763 0.986934,-0.931687 h 0.02608 c 0.542939,0 0.986986,0.41919 0.986986,0.93174"
     style="fill:url(#linearGradient1);fill-opacity:1;fill-rule:evenodd;stroke:none;stroke-width:0.0273073"
     id="path1"
     sodipodi:nodetypes="cccccccsc" />
</svg>
