<?xml version="1.0" encoding="UTF-8" standalone="no"?>
<svg
   width="16"
   height="16"
   viewBox="0 0 16 16"
   fill="none"
   version="1.1"
   id="svg11"
   sodipodi:docname="document-open-recent.svg"
   inkscape:version="1.3.2 (091e20ef0f, 2023-11-25, custom)"
   xmlns:inkscape="http://www.inkscape.org/namespaces/inkscape"
   xmlns:sodipodi="http://sodipodi.sourceforge.net/DTD/sodipodi-0.dtd"
   xmlns:xlink="http://www.w3.org/1999/xlink"
   xmlns="http://www.w3.org/2000/svg"
   xmlns:svg="http://www.w3.org/2000/svg">
  <sodipodi:namedview
     id="namedview13"
     pagecolor="#ffffff"
     bordercolor="#666666"
     borderopacity="1.0"
     inkscape:pageshadow="2"
     inkscape:pageopacity="0.0"
     inkscape:pagecheckerboard="0"
     showgrid="true"
     inkscape:zoom="22.627417"
     inkscape:cx="1.6130873"
     inkscape:cy="9.5901357"
     inkscape:current-layer="svg11"
     inkscape:showpageshadow="2"
     inkscape:deskcolor="#d1d1d1"
     showguides="true" />
  <path
     d="M 8,1 C 4.134005,1 1,4.134005 1,8 c 0,3.865984 3.134005,7 7,7 3.865984,0 7,-3.134016 7,-7 C 15,4.134005 11.865984,1 8,1 Z m 0,1.1666666 c 3.221634,0 5.833334,2.6116768 5.833334,5.8333334 0,3.221634 -2.6117,5.833334 -5.833334,5.833334 C 4.7783434,13.833334 2.1666666,11.221634 2.1666666,8 2.1666666,4.7783434 4.7783434,2.1666666 8,2.1666666 Z M 6.8333332,3.3333334 V 8 9.1666664 H 8 12.666666 V 8 H 8 V 3.3333334 Z"
     fill="url(#paint0_linear)"
     id="path2"
     style="display:none;fill:url(#paint0_linear);stroke-width:1.16666" />
  <defs
     id="defs9">
    <linearGradient
       id="paint0_linear"
       x1="4.0275874"
       y1="14.000001"
       x2="12.19252"
       y2="3.7078226"
       gradientUnits="userSpaceOnUse"
       gradientTransform="matrix(1.1666666,0,0,1.1666666,-1.3333334,-1.3333334)">
      <stop
         id="stop4"
         offset="0"
         style="stop-color:#00f1fa;stop-opacity:1;" />
      <stop
         offset="1"
         id="stop6"
         style="stop-color:#006cff;stop-opacity:1;" />
    </linearGradient>
    <linearGradient
       id="_lgradient_19"
       x1="0.09660808"
       y1="0.23223008"
       x2="0.20233724"
       y2="0.04810404"
       gradientTransform="scale(63.999999,63.599999)"
       gradientUnits="userSpaceOnUse">
      <stop
         offset="0"
         stop-opacity="1"
         style="stop-color:#00f1fa;stop-opacity:1;"
         id="stop5" />
      <stop
         offset="1"
         stop-opacity="1"
         style="stop-color:#006cff;stop-opacity:1;"
         id="stop6-6" />
    </linearGradient>
    <linearGradient
       inkscape:collect="always"
       xlink:href="#paint0_linear"
       id="linearGradient1"
       gradientUnits="userSpaceOnUse"
       gradientTransform="matrix(1.1666666,0,0,1.1666666,-1.3333334,-1.3333334)"
       x1="4.0543733"
       y1="13.820014"
       x2="12.2425"
       y2="3.7652149" />
    <linearGradient
       inkscape:collect="always"
       xlink:href="#linearGradient14"
       id="linearGradient4"
       gradientUnits="userSpaceOnUse"
       gradientTransform="matrix(0.00787884,0.00763513,0.00787888,-0.00763516,12.58573,5.5845134)"
       x1="204.40701"
       y1="-1047.2743"
       x2="-139.44783"
       y2="199.69984" />
    <linearGradient
       id="linearGradient14"
       inkscape:collect="always">
      <stop
         style="stop-color:#00f1fa;stop-opacity:1;"
         offset="0"
         id="stop14" />
      <stop
         style="stop-color:#006cff;stop-opacity:1;"
         offset="1"
         id="stop15" />
    </linearGradient>
    <linearGradient
       inkscape:collect="always"
       xlink:href="#linearGradient1-9"
       id="linearGradient5"
       x1="-56.809521"
       y1="259.75107"
       x2="200.72157"
       y2="-174.81525"
       gradientUnits="userSpaceOnUse"
       gradientTransform="matrix(0.02777098,0,0,0.02795022,7.4862191,7.8811954)" />
    <linearGradient
       id="linearGradient1-9"
       inkscape:collect="always">
      <stop
         style="stop-color:#00f1fa;stop-opacity:1;"
         offset="0"
         id="stop4-3" />
      <stop
         style="stop-color:#006cff;stop-opacity:1;"
         offset="1"
         id="stop5-3" />
    </linearGradient>
    <linearGradient
       inkscape:collect="always"
       xlink:href="#paint0_linear"
       id="linearGradient7"
       gradientUnits="userSpaceOnUse"
       gradientTransform="matrix(1.1666666,0,0,1.1666666,-1.3333334,-1.3333334)"
       x1="4.5200367"
       y1="14.000001"
       x2="12.19252"
       y2="3.7078226" />
    <linearGradient
       inkscape:collect="always"
       xlink:href="#linearGradient14"
       id="linearGradient8"
       gradientUnits="userSpaceOnUse"
       gradientTransform="matrix(0.00787884,0.00763513,0.00787888,-0.00763516,12.58573,5.5845134)"
       x1="67.544327"
       y1="-1165.6307"
       x2="-149.43753"
       y2="189.13013" />
  </defs>
  <path
     d="M 6.8333332,3.2328413 V 7.8995079 9.0661743 H 8 12.666666 V 7.8995079 H 8 V 3.2328413 Z"
     fill="url(#paint0_linear)"
     id="path1"
     style="display:none;fill:url(#linearGradient1);stroke-width:1.16666"
     sodipodi:nodetypes="ccccccccc" />
  <path
     id="path2-9"
     style="display:none;fill:#000000;fill-opacity:1;stroke:#000000;stroke-width:0.294707;stroke-dasharray:none;stroke-opacity:1"
     d="m 8.1152827,1.1491717 c -0.374764,-0.0066 -0.74989,0.01694 -1.120263,0.07094 -1.988175,0.280098 -3.812027,1.495256 -4.849146,3.211851 -1.32690901,2.130151 -1.33402901,5.007621 0.0052,7.1334173 0.168609,0.244091 0.562871,0.260658 0.763102,0.04648 0.182653,-0.177414 0.177431,-0.472491 0.04044,-0.675324 -0.488256,-0.835863 -0.763096,-1.7947023 -0.789435,-2.7623063 -0.04655,-1.396986 0.437261,-2.802658 1.330356,-3.877389 0.89661,-1.094933 2.204309,-1.845712 3.604986,-2.058204 1.247916,-0.200201 2.557979,0.02808 3.6688783,0.630427 0.20018,0.122922 0.480343,0.120364 0.648989,-0.05612 0.236208,-0.209861 0.196644,-0.63847 -0.07986,-0.79476 -0.97806,-0.557787 -2.0989273,-0.849216 -3.2232193,-0.869013 z m 5.5369883,3.492312 c -0.06596,0.0016 -0.131708,0.01641 -0.19297,0.04605 -0.275698,0.114147 -0.381154,0.476836 -0.229232,0.729717 0.696393,1.401362 0.793934,3.083703 0.258156,4.554439 -0.516327,1.4478963 -1.630731,2.6682823 -3.025212,3.3154593 -1.4963753,0.708623 -3.2994003,0.734095 -4.8107253,0.05612 -0.189681,-0.08944 -0.419758,-0.177361 -0.616468,-0.05439 -0.360044,0.172108 -0.343299,0.759543 0.03079,0.905276 1.124057,0.54005 2.40082,0.749867 3.639953,0.620785 1.6561813,-0.158921 3.2361093,-0.962281 4.3531233,-2.192463 0.86327,-0.941221 1.456015,-2.128458 1.681761,-3.3858253 0.265089,-1.448774 0.0534,-2.983537 -0.610425,-4.299736 -0.08173,-0.186368 -0.280875,-0.300201 -0.478756,-0.295427 z"
     sodipodi:nodetypes="scccccccccccsscccccccccccs" />
  <path
     d="m 6.48625,13.644 v 0 c 0.310625,0.08371 0.494958,0.403958 0.41125,0.714583 v 0 c -0.08371,0.310625 -0.403958,0.494959 -0.714583,0.41125 v 0 C 4.695417,14.37025 3.3800001,13.489417 2.44375,12.267333 1.5075,11.04525 1,9.549 1,8.009 1,6.154 1.7379166,4.371917 3.0504167,3.059417 4.362917,1.746917 6.145,1.009 8,1.009 c 1.855,0 3.637083,0.737917 4.949583,2.050417 C 14.262083,4.371917 15,6.154 15,8.009 c 0,1.534167 -0.504583,3.024584 -1.432083,4.24375 -0.930417,1.219167 -2.234167,2.1 -3.712917,2.508333 v 0 C 9.544375,14.846543 9.222958,14.663373 9.1375,14.35275 v 0 c -0.08546,-0.310625 0.09771,-0.632042 0.408333,-0.7175 v 0 c 1.230834,-0.338333 2.31875,-1.073333 3.094584,-2.088333 C 13.413333,10.529 13.833333,9.2865 13.833333,8.009 c 0,-1.545833 -0.615416,-3.030417 -1.709166,-4.124167 C 11.030417,2.791083 9.545833,2.175667 8,2.175667 6.454167,2.175667 4.969583,2.791083 3.8758333,3.884833 2.7820832,4.978583 2.1666666,6.463167 2.1666666,8.009 c 0,1.283333 0.4229166,2.531667 1.2045835,3.549583 C 4.15,12.5765 5.246667,13.3115 6.48625,13.644 Z"
     fill="url(#_lgradient_19)"
     id="path6"
     style="display:none;isolation:isolate;fill:url(#_lgradient_19);stroke-width:0.291666" />
  <path
     id="path4"
     style="display:none;fill:url(#linearGradient4);fill-opacity:1;fill-rule:evenodd;stroke:none;stroke-width:0.0159881"
     d="M 7.4023438,3.2324219 C 7.085668,3.2324679 6.8257427,3.4801446 6.8261719,3.78125 l 0.00781,5.2851562 H 7.4121094 8 12.130859 c 0.30116,3.42e-5 0.546875,-0.2594483 0.546875,-0.5761718 V 8.4746094 C 12.677688,8.1579333 12.431965,7.9003911 12.130859,7.9003906 H 7.9980469 L 7.9921875,3.78125 C 7.9922215,3.4800903 7.7327393,3.2324219 7.4160156,3.2324219 Z" />
  <path
     d="m 2.1947812,7.5123574 v 0 C 2.1647773,7.868606 1.851947,8.1341295 1.496503,8.1049216 v 0 C 1.1410894,8.0757443 0.87685305,7.7613029 0.90681636,7.4032588 v 0 C 1.0554164,5.6094781 1.8748553,3.9353956 3.2005581,2.7203963 4.5262304,1.5086412 6.2604819,0.8427053 8.0532002,0.85899781 9.9363558,0.87613671 11.738441,1.6456317 13.060454,2.9950709 c 1.31876,1.3526426 2.051775,3.1771513 2.034756,5.0695228 -0.01703,1.892371 -0.782816,3.7032603 -2.12568,5.0317153 -1.346087,1.325199 -3.1617243,2.061803 -5.0448799,2.044694 v 0 c -0.3565489,-0.003 -0.6434199,-0.296772 -0.6401965,-0.65507 v 0 c 0.00304,-0.358289 0.295335,-0.646542 0.6518635,-0.643298 v 0 C 9.4771046,13.856615 10.962051,13.253356 12.063668,12.169419 13.162092,11.082188 13.789222,9.6011552 13.80313,8.0528514 13.817118,6.5045474 13.216747,5.0123436 12.138069,3.9053512 11.056138,2.8015419 9.5822803,2.1713737 8.0415129,2.1573666 6.5750355,2.1440021 5.1552464,2.6862406 4.070598,3.6794312 2.9859395,4.6726424 2.3178273,6.0429547 2.1947812,7.5123574 Z M 5.23873,12.908197 v 0 c 0.3140569,0.166167 0.4320855,0.552246 0.2634559,0.861627 v 0 c -0.1686498,0.309382 -0.5605545,0.425682 -0.8745912,0.259545 v 0 C 3.2902553,13.320463 2.2150744,12.206564 1.5652686,10.854616 v 0 C 1.4112759,10.537073 1.5479354,10.156839 1.8702432,10.006015 v 0 c 0.322308,-0.1508243 0.7089925,-0.01551 0.862985,0.302057 v 0 c 0.5325071,1.109063 1.4092979,2.017538 2.5055018,2.600125 z"
     fill-rule="evenodd"
     id="path3"
     style="display:none;isolation:isolate;fill:url(#linearGradient5);fill-opacity:1;stroke-width:0.0278604"
     sodipodi:nodetypes="sssssscccccsssssscccccssssssssssssss" />
  <path
     id="path5"
     style="fill:url(#linearGradient8);fill-opacity:1;fill-rule:evenodd;stroke:none;stroke-width:0.0159881"
     d="M 7.4023438 3.2324219 C 7.085668 3.2324679 6.8257427 3.4801446 6.8261719 3.78125 L 6.8339844 9.0664062 L 7.4121094 9.0664062 L 8 9.0664062 L 12.130859 9.0664062 C 12.432019 9.0664404 12.677734 8.8069579 12.677734 8.4902344 L 12.677734 8.4746094 C 12.677688 8.1579333 12.431965 7.9003911 12.130859 7.9003906 L 7.9980469 7.9003906 L 7.9921875 3.78125 C 7.9922215 3.4800903 7.7327393 3.2324219 7.4160156 3.2324219 L 7.4023438 3.2324219 z " />
  <path
     d="M 8,1 C 4.134005,1 1,4.134005 1,8 c 0,3.865984 3.134005,7 7,7 3.865984,0 7,-3.134016 7,-7 C 15,4.134005 11.865984,1 8,1 Z m 0,1.1666666 c 3.221634,0 5.833334,2.6116768 5.833334,5.8333334 0,3.221634 -2.6117,5.833334 -5.833334,5.833334 C 4.7783434,13.833334 2.1666666,11.221634 2.1666666,8 2.1666666,4.7783434 4.7783434,2.1666666 8,2.1666666 Z"
     id="path7"
     style="display:inline;fill:url(#linearGradient7);stroke-width:1.16666"
     sodipodi:nodetypes="ssssssssss" />
</svg>
