<?xml version="1.0" encoding="UTF-8" standalone="no"?>
<!-- Generator: Gravit.io -->

<svg
   style="isolation:isolate"
   viewBox="0 0 48 48"
   width="48px"
   height="48px"
   version="1.1"
   id="svg4"
   sodipodi:docname="mail-sent-test-2.svg"
   inkscape:version="1.4 (e7c3feb100, 2024-10-09)"
   xmlns:inkscape="http://www.inkscape.org/namespaces/inkscape"
   xmlns:sodipodi="http://sodipodi.sourceforge.net/DTD/sodipodi-0.dtd"
   xmlns:xlink="http://www.w3.org/1999/xlink"
   xmlns="http://www.w3.org/2000/svg"
   xmlns:svg="http://www.w3.org/2000/svg">
  <defs
     id="defs4">
    <linearGradient
       id="linearGradient6"
       inkscape:collect="always">
      <stop
         style="stop-color:#00f1fa;stop-opacity:1;"
         offset="0"
         id="stop6" />
      <stop
         style="stop-color:#006cff;stop-opacity:1;"
         offset="1"
         id="stop7" />
    </linearGradient>
    <linearGradient
       inkscape:collect="always"
       xlink:href="#_lgradient_0"
       id="linearGradient4"
       gradientUnits="userSpaceOnUse"
       gradientTransform="matrix(44,0,0,22,2,20)"
       x1="0.11363637"
       y1="1"
       x2="1"
       y2="0" />
    <linearGradient
       id="paint0_linear"
       x1="9.0500002"
       y1="28.200001"
       x2="45.209011"
       y2="58.622879"
       gradientUnits="userSpaceOnUse"
       gradientTransform="matrix(-0.81481481,0,0,0.81481481,101.07407,-14.777778)">
      <stop
         id="stop1-7"
         offset="0"
         style="stop-color:#6444ff;stop-opacity:1;" />
      <stop
         offset="1"
         id="stop2-5"
         style="stop-color:#b900ff;stop-opacity:1;" />
    </linearGradient>
    <linearGradient
       inkscape:collect="always"
       xlink:href="#linearGradient6"
       id="linearGradient7"
       x1="7"
       y1="42"
       x2="46"
       y2="20"
       gradientUnits="userSpaceOnUse" />
    <linearGradient
       inkscape:collect="always"
       xlink:href="#linearGradient6"
       id="linearGradient9"
       x1="7"
       y1="42"
       x2="46"
       y2="20"
       gradientUnits="userSpaceOnUse"
       gradientTransform="translate(0,-0.002791)" />
  </defs>
  <sodipodi:namedview
     id="namedview4"
     pagecolor="#505050"
     bordercolor="#ffffff"
     borderopacity="1"
     inkscape:showpageshadow="0"
     inkscape:pageopacity="0"
     inkscape:pagecheckerboard="1"
     inkscape:deskcolor="#505050"
     inkscape:zoom="15.202796"
     inkscape:cx="24.238962"
     inkscape:cy="37.032662"
     inkscape:current-layer="svg4" />
  <linearGradient
     id="_lgradient_0"
     x1="0.11363637"
     y1="1"
     x2="1"
     y2="0"
     gradientTransform="matrix(44,0,0,22,2,20)"
     gradientUnits="userSpaceOnUse">
    <stop
       offset="0"
       stop-opacity="1"
       style="stop-color:#00f1fa;stop-opacity:1;"
       id="stop1" />
    <stop
       offset="0.99989998"
       stop-opacity="1"
       style="stop-color:#006cff;stop-opacity:1;"
       id="stop2" />
  </linearGradient>
  <path
     d="m 42,22 c 0,-1.104 0.896,-2 2,-2 1.104,0 2,0.896 2,2 0,5 0,10 0,15 0,2.76 -2.24,5 -5,5 H 7 C 4.24,42 2,39.76 2,37 v -15 0 c 0,-1.104 0.896,-2 2,-2 v 0 c 1.104,0 2,0.896 2,2 v 0 13 c 0,1.656 1.344,3 3,3 h 30 c 1.656,0 3,-1.344 3,-3 z"
     fill="url(#_lgradient_0)"
     id="path2"
     style="display:none;fill:url(#_lgradient_0)"
     sodipodi:nodetypes="scssssscsssscsssss" />
  <linearGradient
     id="_lgradient_1"
     x1="0.11363637"
     y1="1.4084507"
     x2="1"
     y2="0.5477308"
     gradientTransform="matrix(44,0,0,25.56,2,6)"
     gradientUnits="userSpaceOnUse">
    <stop
       offset="0"
       stop-opacity="1"
       style="stop-color:#00f1fa;stop-opacity:1;"
       id="stop3" />
    <stop
       offset="1"
       stop-opacity="1"
       style="stop-color:#006cff;stop-opacity:1;"
       id="stop4" />
  </linearGradient>
  <path
     d="M 44,6 H 4 C 2.896,6 2,6.896 2,8 v 5.04 c 0,1.104 0.687,2.575 1.534,3.283 l 16.631,13.909 c 2.116,1.771 5.554,1.771 7.67,0 L 44.466,16.323 C 45.313,15.615 46,14.144 46,13.04 V 8 C 46,6.896 45.104,6 44,6 Z m -3,4 H 7 c -0.552,0 -1,0.448 -1,1 v 0.96 c 0,0.552 0.339,1.293 0.756,1.655 l 14.977,12.98 c 1.251,1.085 3.283,1.085 4.534,0 L 41.244,13.615 C 41.661,13.253 42,12.512 42,11.96 V 11 c 0,-0.552 -0.448,-1 -1,-1 z"
     fill-rule="evenodd"
     fill="url(#_lgradient_1)"
     id="path4"
     style="fill:url(#_lgradient_1)" />
  <path
     id="path3"
     style="fill:url(#linearGradient4)"
     d="m 44,20 c 1.104,0 2,0.896 2,2 v 15 c 0,2.76 -2.24,5 -5,5 H 22 13 c -1.104,0 -2,-0.896 -2,-2 0,-1.104 0.896,-2 2,-2 h 2 5 19 c 1.656,0 3,-1.344 3,-3 V 22 c 0,-1.104 0.896,-2 2,-2 z"
     sodipodi:nodetypes="sssscsssccssss" />
  <path
     d="m 3,29.16 c -1.104592,0 -2,-0.895407 -2,-2 0,-1.104593 0.895408,-2 2,-2 h 5.7 c 1.104568,0 2,0.895407 2,2 0,1.104593 -0.895432,2 -2,2 z"
     fill="url(#paint0_linear)"
     id="path5"
     style="display:inline;fill:url(#linearGradient9);stroke-width:1"
     sodipodi:nodetypes="scsscss" />
  <path
     d="m 6,35.56025 c -1.104592,0 -2,-0.895407 -2,-2 0,-1.104593 0.895408,-2 2,-2 h 9.674 c 1.104568,0 2,0.895407 2,2 0,1.104593 -0.895432,2 -2,2 z"
     fill="url(#paint0_linear)"
     id="path6"
     style="display:inline;fill:url(#linearGradient7);stroke-width:1"
     sodipodi:nodetypes="scsscss" />
</svg>
