<?xml version="1.0" encoding="UTF-8" standalone="no"?>
<!-- Generator: Gravit.io -->

<svg
   style="isolation:isolate"
   viewBox="0 0 48 48"
   width="48px"
   height="48px"
   version="1.1"
   id="svg4"
   sodipodi:docname="internet-mail copy17.svg"
   inkscape:version="1.4 (e7c3feb100, 2024-10-09)"
   xmlns:inkscape="http://www.inkscape.org/namespaces/inkscape"
   xmlns:sodipodi="http://sodipodi.sourceforge.net/DTD/sodipodi-0.dtd"
   xmlns:xlink="http://www.w3.org/1999/xlink"
   xmlns="http://www.w3.org/2000/svg"
   xmlns:svg="http://www.w3.org/2000/svg">
  <defs
     id="defs4">
    <linearGradient
       id="paint0_linear"
       x1="12.382255"
       y1="8.1303644"
       x2="12.378265"
       y2="18"
       gradientUnits="userSpaceOnUse"
       gradientTransform="translate(-0.382255,-0.630365)">
      <stop
         stop-color="#00f1fa"
         id="stop4-3" />
      <stop
         offset="1"
         stop-color="#006cff"
         id="stop6"
         style="stop-color:#006cff;stop-opacity:1;" />
    </linearGradient>
    <linearGradient
       id="paint0_linear-5"
       x1="12.382255"
       y1="8.1303644"
       x2="12.378265"
       y2="18"
       gradientUnits="userSpaceOnUse"
       gradientTransform="matrix(1.7242038,0,0,1.7242038,-0.8474686,-20.185607)">
      <stop
         stop-color="#00f1fa"
         id="stop4-6" />
      <stop
         offset="1"
         stop-color="#006cff"
         id="stop6-2"
         style="stop-color:#006cff;stop-opacity:1;" />
    </linearGradient>
    <linearGradient
       id="linearGradient8"
       x1="0.11363637"
       y1="1.4084507"
       x2="1"
       y2="0.5477308"
       gradientTransform="matrix(44,0,0,25.56,2,6)"
       gradientUnits="userSpaceOnUse">
      <stop
         offset="0"
         stop-opacity="1"
         style="stop-color:#00f1fa;stop-opacity:1;"
         id="stop3-1" />
      <stop
         offset="1"
         stop-opacity="1"
         style="stop-color:#006cff;stop-opacity:1;"
         id="stop4-2" />
    </linearGradient>
    <linearGradient
       inkscape:collect="always"
       xlink:href="#linearGradient1-7"
       id="linearGradient2"
       gradientTransform="scale(0.94156543,1.0620611)"
       x1="8.6061716"
       y1="45.195141"
       x2="48.087036"
       y2="22.59757"
       gradientUnits="userSpaceOnUse" />
    <linearGradient
       id="linearGradient1-7"
       inkscape:collect="always">
      <stop
         style="stop-color:#00f1fa;stop-opacity:1;"
         offset="0"
         id="stop11" />
      <stop
         style="stop-color:#006cff;stop-opacity:1;"
         offset="1"
         id="stop13" />
    </linearGradient>
    <linearGradient
       inkscape:collect="always"
       xlink:href="#linearGradient12"
       id="linearGradient5043"
       gradientUnits="userSpaceOnUse"
       gradientTransform="matrix(49.320645,0,0,44,1.5890785,17.66787)"
       x1="-0.10262211"
       y1="-0.58667713"
       x2="1.1435968"
       y2="0.20145422" />
    <linearGradient
       id="linearGradient12"
       x1="0.22078557"
       y1="0.047239967"
       x2="0.9022491"
       y2="0.90614605"
       gradientTransform="matrix(43.5,0,0,44,5,2)"
       gradientUnits="userSpaceOnUse"
       spreadMethod="pad">
      <stop
         offset="0"
         stop-opacity="1"
         style="stop-color:#00f1fa;stop-opacity:1;"
         id="stop11-3" />
      <stop
         offset="1"
         stop-opacity="1"
         style="stop-color:#006cff;stop-opacity:1;"
         id="stop12" />
    </linearGradient>
    <linearGradient
       inkscape:collect="always"
       xlink:href="#linearGradient1-7"
       id="linearGradient3"
       gradientUnits="userSpaceOnUse"
       gradientTransform="scale(0.94156543,1.0620611)"
       x1="8.6061716"
       y1="45.195141"
       x2="48.087036"
       y2="22.59757" />
    <linearGradient
       inkscape:collect="always"
       xlink:href="#linearGradient1-7"
       id="linearGradient4"
       gradientUnits="userSpaceOnUse"
       gradientTransform="scale(0.94156543,1.0620611)"
       x1="8.6061716"
       y1="45.195141"
       x2="48.087036"
       y2="22.59757" />
    <linearGradient
       inkscape:collect="always"
       xlink:href="#linearGradient12"
       id="linearGradient5"
       gradientUnits="userSpaceOnUse"
       gradientTransform="matrix(49.320645,0,0,44,1.5890785,17.66787)"
       x1="0.13654295"
       y1="-0.38258943"
       x2="0.89026016"
       y2="0.18181819" />
  </defs>
  <sodipodi:namedview
     id="namedview4"
     pagecolor="#505050"
     bordercolor="#ffffff"
     borderopacity="1"
     inkscape:showpageshadow="0"
     inkscape:pageopacity="0"
     inkscape:pagecheckerboard="1"
     inkscape:deskcolor="#505050"
     inkscape:zoom="11.313709"
     inkscape:cx="49.364892"
     inkscape:cy="30.140427"
     inkscape:current-layer="svg4" />
  <linearGradient
     id="_lgradient_0"
     x1="0.11365917"
     y1="1.0000203"
     x2="0.99997717"
     y2="-2.0211293e-05"
     gradientTransform="matrix(44,0,0,22,2,20)"
     gradientUnits="userSpaceOnUse">
    <stop
       offset="0"
       stop-opacity="1"
       style="stop-color:#00f1fa;stop-opacity:1;"
       id="stop1" />
    <stop
       offset="0.99989998"
       stop-opacity="1"
       style="stop-color:#006cff;stop-opacity:1;"
       id="stop2" />
  </linearGradient>
  <g
     id="g4"
     transform="matrix(0.63448524,0,0,0.63448524,8.5057086,5.8483909)"
     style="isolation:isolate;stroke-width:2.10144">
    <path
       d="m 8.1032733,0 c -2.969455,0 -5.380364,2.410909 -5.380364,5.380364 v 22.048364 0 c 0,1.26109 0.907636,2.285454 2.025818,2.285454 v 0 c 1.118182,0 2.026909,-1.024364 2.026909,-2.285454 v 0 0 0 V 7.8 c 0,-1.782545 1.446546,-3.729 3.2280007,-3.729 h 27.992726 c 1.781456,0 3.228,1.946455 3.228,3.729 v 3.628364 0 c 0,1.262182 0.908728,2.285454 2.02691,2.285454 v 0 c 1.118182,0 2.025818,-1.023272 2.025818,-2.285454 v 0 -6.048 C 45.277091,2.410909 42.866181,0 39.896727,0 Z m 4.9393127,43.928955 c 0.737617,0.0049 1.838505,0.523409 1.838505,1.785591 v 0 C 14.881091,46.975636 13.973455,48 12.854181,48 v 0 H 8.1032733 c -2.969455,0 -5.380364,-2.41091 -5.380364,-5.380364 v -6.048 0 c 0,-1.262182 0.907636,-2.285454 2.025818,-2.285454 v 0 c 1.118182,0 2.026909,1.023272 2.026909,2.285454 v 0 V 40.2 c 0,1.782546 1.446546,3.729045 3.2280007,3.729045 1.012711,0.0042 2.301332,-0.005 3.038949,-9e-5 z M 41.224363,21.714546 v 0 c 0,-1.262182 0.908728,-2.285456 2.02691,-2.285456 v 0 c 1.118182,0 2.025818,1.023274 2.025818,2.285456 v 0 20.90509 C 45.277091,45.58909 42.866181,48 39.896727,48 H 21.973091 v 0 c -1.118182,0 -2.025818,-1.024364 -2.025818,-2.285454 v 0 c 0,-1.262182 2.025818,-1.785501 2.025818,-1.785501 v 0 h 16.023272 c 1.781456,0 3.228,-1.946499 3.228,-3.729045 z"
       fill-rule="evenodd"
       id="path3"
       sodipodi:nodetypes="sscsssscccsssscsssscssszssscsscsssscsszscsssscsscsssscss"
       style="display:none;isolation:isolate;fill:url(#linearGradient4);fill-opacity:1;stroke-width:2.29246"
       transform="translate(1.3208896)" />
    <path
       d="m 8.1032733,0 c -2.969455,0 -5.380364,2.410909 -5.380364,5.380364 v 22.048364 0 c 0,1.26109 0.907636,2.285454 2.025818,2.285454 v 0 c 1.118182,0 2.026909,-1.024364 2.026909,-2.285454 v 0 0 0 V 7.8 c 0,-1.782545 1.446546,-3.729 3.2280007,-3.729 h 27.992726 c 1.781456,0 3.228,1.946455 3.228,3.729 v 3.628364 0 c 0,1.262182 0.908728,2.285454 2.02691,2.285454 v 0 c 1.118182,0 2.025818,-1.023272 2.025818,-2.285454 v 0 -6.048 C 45.277091,2.410909 42.866181,0 39.896727,0 Z m 4.9393127,43.928955 c 0.737617,0.0049 1.838505,0.523409 1.838505,1.785591 v 0 C 14.881091,46.975636 13.973455,48 12.854181,48 v 0 H 8.1032733 c -2.969455,0 -5.380364,-2.41091 -5.380364,-5.380364 v -6.048 0 c 0,-1.262182 0.907636,-2.285454 2.025818,-2.285454 v 0 c 1.118182,0 2.026909,1.023272 2.026909,2.285454 v 0 V 40.2 c 0,1.782546 1.446546,3.729045 3.2280007,3.729045 1.012711,0.0042 2.301332,-0.005 3.038949,-9e-5 z"
       fill-rule="evenodd"
       id="path4-3"
       sodipodi:nodetypes="sscsssscccsssscsssscssszssscsscsssscssz"
       style="display:none;fill:url(#linearGradient2);fill-opacity:1;stroke-width:2.29246" />
    <g
       id="g2"
       transform="matrix(0.99999998,0,0,-0.99999998,1.1006095,48.833935)"
       style="isolation:isolate;stroke-width:2.10144">
      <path
         id="path4072"
         style="display:none;isolation:isolate;fill:url(#linearGradient5);fill-opacity:1;stroke-width:2.33348"
         d="m 12.070378,38.66792 c -1.020937,0 -1.850097,-0.672001 -1.850097,-2.000244 0,-1.328243 0.82916,-2.000244 1.850097,-2.000244 h 22.500001 c 1.020937,0 1.848632,0.672001 1.848632,2.000244 0,1.328243 -0.827695,2.000244 -1.848632,2.000244 z m 0,-7.668457 c -1.020937,0 -1.850097,-0.672001 -1.850097,-1.999512 0,-1.327511 0.82916,-1.999512 1.850097,-1.999512 h 22.500001 c 1.020937,0 1.848632,0.672001 1.848632,1.999512 0,1.327511 -0.827695,1.999512 -1.848632,1.999512 z m -0.249023,-7.999512 c -0.827999,0 -1.5,-0.672001 -1.5,-2.000244 0,-1.328243 0.672001,-2.000244 1.5,-2.000244 h 17.749512 c 0.827999,0 1.5,0.672001 1.5,2.000244 0,1.328243 -0.672001,2.000244 -1.5,2.000244 z m 0,-7.999512 c -0.827999,0 -1.5,-0.672001 -1.5,-2.000244 0,-1.328243 0.672001,-2.000244 1.5,-2.000244 h 10.248047 c 0.827999,0 1.5,0.672001 1.5,2.000244 0,1.328243 -0.672001,2.000244 -1.5,2.000244 z"
         sodipodi:nodetypes="ssssssssssssssssssssssssssss" />
      <path
         id="path5"
         style="display:inline;isolation:isolate;fill:url(#linearGradient5043);fill-opacity:1;stroke-width:2.33348"
         d="M 8.3222519 48.835094 C 5.3527969 48.835094 2.9444918 46.42371 2.9444918 43.454255 L 2.9444918 25.864947 L -5.0498088 32.744909 C -7.1626802 32.843684 -9.240976 32.762185 -11.354132 32.772614 L -11.354132 29.682018 L -11.354132 -0.26351777 C -11.354132 -4.6135008 -7.823711 -8.1439219 -3.473728 -8.1439219 L 50.11302 -8.1439219 C 54.463003 -8.1439219 57.993424 -4.6135008 57.993424 -0.26351777 L 57.993424 29.682018 L 57.993424 32.772614 C 55.878056 32.81583 53.804465 32.768979 51.689101 32.766457 L 26.893532 11.406253 C 24.921855 9.6962285 21.717437 9.6962285 19.74576 11.406253 L 6.995512 22.380331 L 6.995512 41.034725 C 6.995512 42.81727 8.443176 44.762526 10.224631 44.762526 L 38.215457 44.762526 C 39.996913 44.762526 41.444576 42.81727 41.444576 41.034725 L 41.444576 37.40543 C 41.444576 36.143248 42.351904 35.121344 43.470086 35.121344 C 44.588268 35.121344 45.498674 36.143248 45.498674 37.40543 L 45.498674 43.454255 C 45.498674 46.42371 43.08729 48.835094 40.117836 48.835094 L 8.3222519 48.835094 z M 12.0716 38.667526 C 11.050663 38.667526 10.221552 37.994885 10.221552 36.666642 C 10.221552 35.338399 11.050663 34.668836 12.0716 34.668836 L 34.57077 34.668836 C 35.591707 34.668836 36.41774 35.338399 36.41774 36.666642 C 36.41774 37.994885 35.591707 38.667526 34.57077 38.667526 L 12.0716 38.667526 z M 12.0716 30.999523 C 11.050663 30.999523 10.221552 30.32615 10.221552 28.998639 C 10.221552 27.671128 11.050663 27.000834 12.0716 27.000834 L 34.57077 27.000834 C 35.591707 27.000834 36.41774 27.671128 36.41774 28.998639 C 36.41774 30.32615 35.591707 30.999523 34.57077 30.999523 L 12.0716 30.999523 z M -5.0498088 24.347354 L 17.273899 5.6744899 C 20.608886 2.8832886 26.030407 2.8832886 29.365394 5.6744899 L 51.689101 24.347354 L 51.689101 2.8886439 C 51.689101 0.27865403 49.570848 -1.8395986 46.960858 -1.8395986 L -0.32156632 -1.8395986 C -2.9315562 -1.8395986 -5.0498088 0.27865403 -5.0498088 2.8886439 L -5.0498088 24.347354 z " />
    </g>
    <path
       d="m 8.1032733,0 c -2.969455,0 -5.380364,2.410909 -5.380364,5.380364 v 22.048364 0 c 0,1.26109 0.907636,2.285454 2.025818,2.285454 v 0 c 1.118182,0 2.026909,-1.024364 2.026909,-2.285454 v 0 0 0 V 7.8 c 0,-1.782545 1.446546,-3.729 3.2280007,-3.729 h 27.992726 c 1.781456,0 3.228,1.946455 3.228,3.729 v 3.628364 0 c 0,1.262182 0.908728,2.285454 2.02691,2.285454 v 0 c 1.118182,0 2.025818,-1.023272 2.025818,-2.285454 v 0 -6.048 C 45.277091,2.410909 42.866181,0 39.896727,0 Z M 41.224363,21.714546 v 0 c 0,-1.262182 0.908728,-2.285456 2.02691,-2.285456 v 0 c 1.118182,0 2.025818,1.023274 2.025818,2.285456 v 0 c 1e-6,12.261916 -3.868561,12.301585 -4.052728,0 z"
       fill-rule="evenodd"
       id="path6"
       sodipodi:nodetypes="sscsssscccsssscsssscsssccssscc"
       style="display:none;isolation:isolate;fill:url(#linearGradient3);fill-opacity:1;stroke-width:2.29246"
       transform="translate(1.3208896)" />
  </g>
  <linearGradient
     id="_lgradient_1"
     x1="0.11363637"
     y1="1.4084507"
     x2="1"
     y2="0.5477308"
     gradientTransform="matrix(44,0,0,25.56,2,6)"
     gradientUnits="userSpaceOnUse">
    <stop
       offset="0"
       stop-opacity="1"
       style="stop-color:#00f1fa;stop-opacity:1;"
       id="stop3" />
    <stop
       offset="1"
       stop-opacity="1"
       style="stop-color:#006cff;stop-opacity:1;"
       id="stop4" />
  </linearGradient>
  <path
     d="m 46,13.04 c 0,1.104 -0.687,2.575 -1.534,3.283 L 27.835,30.232 c -2.116,1.771 -5.554,1.771 -7.67,0 L 3.534,16.323 C 2.687,15.615 2,14.144 2,13.04 m 39.244,0.575 -14.977,12.98 c -1.251,1.085 -3.283,1.085 -4.534,0 L 6.756,13.615"
     fill-rule="evenodd"
     fill="url(#_lgradient_1)"
     id="path4"
     style="display:none;fill:url(#_lgradient_1)"
     sodipodi:nodetypes="cccccccccc" />
  <path
     d="m 36.046009,10.215899 c 0.200697,-0.20018 0.360014,-0.4379479 0.468639,-0.6998539 0.108624,-0.261907 0.164489,-0.542607 0.164489,-0.826066 0,-0.283459 -0.05586,-0.56416 -0.164489,-0.826066 C 36.406023,7.6021789 36.246706,7.3642389 36.046009,7.1640579 L 21.717875,-7.1640579 c -0.159488,-0.1598337 -0.348978,-0.2866489 -0.557607,-0.3731695 -0.208456,-0.08652 -0.432086,-0.1310567 -0.657956,-0.1310567 -0.225871,0 -0.449328,0.044536 -0.657956,0.1310567 -0.208629,0.086521 -0.398119,0.2133358 -0.557608,0.3731695 L 4.9586324,7.1640579 c -0.84486,0.8448602 -0.84486,2.2069812 0,3.0518411 0.84486,0.84486 2.206981,0.84486 3.05184,0 l 6.2502306,-6.2416175 3.125115,-3.1208088 1.562557,-1.5604044 1.562558,-1.5604044 1.562559,1.56255965 1.56256,1.56255965 3.125119,3.1251193 6.250239,6.2502385 c 0.827618,0.827618 2.206981,0.827618 3.034599,-0.01724 z"
     fill="url(#paint0_linear)"
     id="path2-9"
     style="display:none;fill:url(#paint0_linear-5);stroke-width:1"
     sodipodi:nodetypes="sssccccsscsscscccccssss" />
  <path
     d="m 36.046009,10.215899 c 0.200697,-0.20018 0.360014,-0.4379479 0.468639,-0.6998539 0.108624,-0.261907 0.164489,-0.542607 0.164489,-0.826066 0,-0.283459 -0.05586,-0.56416 -0.164489,-0.826066 C 36.406023,7.6021789 36.246706,7.3642389 36.046009,7.1640579 L 28.881942,0 25.299908,-3.582029 c 0,0 -1.194011,-1.1940096 -1.791016,-1.7910144 -0.597006,-0.5970049 -1.791017,-1.7910145 -1.791017,-1.7910145 -0.668992,-0.6704418 -1.762396,-0.6701764 -2.431127,0 0,0 -1.19401,1.1940096 -1.791014,1.7910145 -0.597005,0.5970048 -1.791015,1.7910144 -1.791015,1.7910144 L 12.12269,0 4.9586324,7.1640579 c -0.84486,0.8448602 -0.84486,2.2069812 0,3.0518411 0.84486,0.84486 2.206981,0.84486 3.05184,0 L 14.260703,3.9742815 17.385818,0.8534727 c 0,0 1.041705,-1.04026968 1.562557,-1.5604044 0.520853,-0.5201349 2.604264,-0.5186979 3.125117,0.002155 0.520853,0.5208533 1.56256,1.56255965 1.56256,1.56255965 l 3.125119,3.12511935 6.250239,6.2502387 c 0.827618,0.827618 2.206981,0.827618 3.034599,-0.01724 z"
     fill="url(#paint0_linear)"
     id="path8"
     style="display:none;fill:url(#paint0_linear-5);stroke-width:1"
     sodipodi:nodetypes="sssccccsccsccsscscsscssss" />
</svg>
