<?xml version="1.0" encoding="UTF-8" standalone="no"?>
<svg
   width="24"
   height="24"
   viewBox="0 0 24 24"
   fill="none"
   version="1.1"
   id="svg2"
   sodipodi:docname="media-playlist-repeat.svg"
   inkscape:version="1.3.2 (091e20ef0f, 2023-11-25, custom)"
   xmlns:inkscape="http://www.inkscape.org/namespaces/inkscape"
   xmlns:sodipodi="http://sodipodi.sourceforge.net/DTD/sodipodi-0.dtd"
   xmlns:xlink="http://www.w3.org/1999/xlink"
   xmlns="http://www.w3.org/2000/svg"
   xmlns:svg="http://www.w3.org/2000/svg">
  <sodipodi:namedview
     id="namedview2"
     pagecolor="#ffffff"
     bordercolor="#666666"
     borderopacity="1.0"
     inkscape:showpageshadow="2"
     inkscape:pageopacity="0.0"
     inkscape:pagecheckerboard="0"
     inkscape:deskcolor="#d1d1d1"
     inkscape:zoom="11.71875"
     inkscape:cx="7.9786667"
     inkscape:cy="17.109333"
     inkscape:current-layer="svg2" />
  <path
     d="m 18.167581,12.527255 c 0.04157,-0.377196 0.343084,-0.689627 0.722585,-0.689627 h 1.260777 c 0.374551,0 0.681013,0.30409 0.650089,0.677352 -0.161335,1.944164 -1.016637,3.85876 -2.545764,5.305761 -3.441146,3.256345 -9.0364827,3.256345 -12.4776085,0 -3.4411253,-3.256278 -3.4411253,-8.5511201 0,-11.8074658 1.4066502,-1.3311026 3.196715,-2.1073304 5.0461385,-2.3478349 0.354748,-0.046136 0.633135,-0.3397675 0.633135,-0.6975065 V 2.4171281 c 0,-0.5148495 0.551145,-0.8419285 1.003074,-0.5952798 l 4.652553,2.5393149 c 0.470171,0.2566448 0.471189,0.9315073 0.0018,1.1895695 L 12.461771,8.1083303 C 12.009841,8.3567422 11.456933,8.0297988 11.456933,7.5140542 V 6.8241573 c 0,-0.394726 -0.337116,-0.7093336 -0.724416,-0.6330875 -1.1335523,0.2231774 -2.2024085,0.7651257 -3.0804157,1.5959458 -2.4339755,2.2768044 -2.4339755,5.9831804 0,8.2599844 2.4059807,2.303252 6.3227237,2.303252 8.7287177,0 1.043968,-0.965504 1.645297,-2.23564 1.786762,-3.519745 z"
     fill="url(#linearGradient3)"
     id="path1"
     style="fill:url(#linearGradient3);fill-opacity:1;stroke-width:0.678165" />
  <defs
     id="defs2">
    <linearGradient
       id="linearGradient1"
       inkscape:collect="always">
      <stop
         style="stop-color:#00f1fa;stop-opacity:1;"
         offset="0"
         id="stop1" />
      <stop
         style="stop-color:#006cff;stop-opacity:1;"
         offset="1"
         id="stop2" />
    </linearGradient>
    <linearGradient
       id="linearGradient2"
       inkscape:collect="always">
      <stop
         style="stop-color:#006cff;stop-opacity:1;"
         offset="0"
         id="stop3" />
      <stop
         style="stop-color:#00f1fa;stop-opacity:1;"
         offset="1"
         id="stop4" />
    </linearGradient>
    <linearGradient
       inkscape:collect="always"
       xlink:href="#linearGradient2"
       id="linearGradient4"
       x1="15.980888"
       y1="2.68362"
       x2="15.980888"
       y2="29.999975"
       gradientUnits="userSpaceOnUse" />
    <linearGradient
       inkscape:collect="always"
       xlink:href="#linearGradient1"
       id="linearGradient3"
       x1="8.321496"
       y1="29.999973"
       x2="23.519701"
       y2="6.55165"
       gradientUnits="userSpaceOnUse"
       gradientTransform="matrix(0.67816517,0,0,0.67816517,1.1623182,-0.38193756)" />
  </defs>
</svg>
