<?xml version="1.0" encoding="UTF-8" standalone="no"?>
<svg
   width="24"
   height="24"
   viewBox="0 0 24 24"
   fill="none"
   version="1.1"
   id="svg11"
   sodipodi:docname="view-refresh.svg"
   inkscape:version="1.3.2 (091e20ef0f, 2023-11-25, custom)"
   xmlns:inkscape="http://www.inkscape.org/namespaces/inkscape"
   xmlns:sodipodi="http://sodipodi.sourceforge.net/DTD/sodipodi-0.dtd"
   xmlns:xlink="http://www.w3.org/1999/xlink"
   xmlns="http://www.w3.org/2000/svg"
   xmlns:svg="http://www.w3.org/2000/svg">
  <sodipodi:namedview
     id="namedview13"
     pagecolor="#ffffff"
     bordercolor="#666666"
     borderopacity="1.0"
     inkscape:showpageshadow="2"
     inkscape:pageopacity="0.0"
     inkscape:pagecheckerboard="0"
     inkscape:deskcolor="#d1d1d1"
     showgrid="false"
     inkscape:zoom="32"
     inkscape:cx="13.40625"
     inkscape:cy="10.875"
     inkscape:current-layer="svg11" />
  <path
     id="path2"
     style="display:inline;fill:url(#linearGradient10);fill-opacity:1"
     d="M 12 2 L 11.998047 2.0019531 C 11.936256 2.0016954 11.873047 2.0008901 11.8125 2.0019531 C 11.771785 2.042668 9.4627043 1.9486546 7.0917969 3.3007812 C 6.6967853 3.524053 6.4836542 4.2685588 6.9414062 4.7050781 C 7.2971727 5.110322 7.850747 5.0310726 8.1367188 4.8554688 C 9.7237152 3.9949806 11.469219 3.7022785 13.251953 3.9882812 C 15.252919 4.2918399 16.96913 5.2444053 18.25 6.8085938 C 19.477003 8.2851419 20.146197 10.09972 20.136719 12.011719 L 17 12 L 20.189453 17.740234 C 20.922714 16.695659 21.460812 15.50272 21.751953 14.216797 C 21.77154 14.135927 21.789376 14.054369 21.806641 13.972656 C 21.808142 13.96555 21.809063 13.958284 21.810547 13.951172 C 21.813241 13.937546 21.81572 13.923802 21.818359 13.910156 C 22.000488 13.015686 22.044535 12.076745 21.960938 11.142578 C 21.952232 11.040114 21.943412 10.937497 21.931641 10.835938 C 21.922111 10.756297 21.911767 10.677077 21.900391 10.597656 C 21.875409 10.41964 21.846726 10.243239 21.8125 10.068359 C 21.80895 10.050222 21.806382 10.031774 21.802734 10.013672 C 21.800761 10.003892 21.798877 9.9941482 21.796875 9.984375 C 21.757399 9.7914515 21.710568 9.6008105 21.660156 9.4121094 C 21.640874 9.3393365 21.620463 9.2675363 21.599609 9.1953125 C 21.569535 9.092185 21.537184 8.9903918 21.503906 8.8886719 C 21.36983 8.4742095 21.208843 8.0724074 21.023438 7.6855469 C 21.020039 7.6784567 21.017087 7.6711415 21.013672 7.6640625 C 21.011522 7.6596016 21.009968 7.6548479 21.007812 7.6503906 C 20.94411 7.5188774 20.878095 7.3891386 20.808594 7.2617188 C 20.758637 7.1690222 20.705112 7.0791912 20.652344 6.9882812 C 20.621112 6.9344754 20.592747 6.8793356 20.560547 6.8261719 C 20.55813 6.8221717 20.555158 6.8184501 20.552734 6.8144531 C 20.545885 6.8031802 20.538143 6.7924936 20.53125 6.78125 C 20.446509 6.6430188 20.358742 6.5067344 20.267578 6.3730469 C 18.580749 3.8993847 15.811794 2.22477 12.642578 2.0234375 C 12.536955 2.0167275 12.430708 2.0112181 12.324219 2.0078125 C 12.259224 2.0053095 12.195156 2.0051102 12.130859 2.0039062 C 12.087021 2.0033404 12.043972 2 12 2 z M 3.8105469 6.2597656 C 3.5373776 6.648912 3.2926157 7.0590514 3.0761719 7.4863281 C 3.0597166 7.5119314 3.0397444 7.536175 3.0273438 7.5644531 C 2.6933882 8.226601 2.4437004 8.939179 2.2714844 9.6738281 C 2.2454948 9.7846959 2.2214845 9.8959919 2.1992188 10.007812 C 2.1940733 10.033264 2.1885455 10.058463 2.1835938 10.083984 C 2.1615929 10.199046 2.1411045 10.31386 2.1230469 10.429688 C 2.1029917 10.558328 2.0854888 10.687079 2.0703125 10.816406 C 2.0551967 10.945218 2.0415103 11.073902 2.03125 11.203125 C 2.0310459 11.205712 2.0314521 11.20835 2.03125 11.210938 C 2.0214203 11.335931 2.0130851 11.460812 2.0078125 11.585938 C 2.0073886 11.596335 2.0082046 11.606781 2.0078125 11.617188 C 2.0028181 11.744887 2.000232 11.87244 2 12 C 1.998899 12.605425 2.0491063 13.209356 2.15625 13.794922 C 2.1669932 13.85476 2.1832347 13.914698 2.1953125 13.974609 C 2.2102675 14.049286 2.2275323 14.123201 2.2441406 14.197266 C 2.2672638 14.298438 2.2876931 14.39891 2.3144531 14.5 C 2.3160231 14.505931 2.3187302 14.511648 2.3203125 14.517578 C 2.6787197 15.899933 3.3264147 17.163986 4.1933594 18.246094 C 4.3238734 18.408999 4.4573894 18.570281 4.5976562 18.724609 C 4.6019958 18.729384 4.6069794 18.733515 4.6113281 18.738281 C 4.6214882 18.749472 4.6304231 18.762314 4.640625 18.773438 C 4.9462867 19.110067 5.2818755 19.424502 5.6386719 19.716797 C 5.7547722 19.811909 5.8733866 19.904116 5.9941406 19.994141 C 6.0022521 20.000245 6.0094475 20.007591 6.0175781 20.013672 C 6.7270198 20.544225 7.510287 20.979734 8.3476562 21.308594 C 8.4857423 21.362824 8.6246205 21.414705 8.765625 21.462891 C 8.7706793 21.46464 8.7761934 21.465056 8.78125 21.466797 C 8.9114328 21.511049 9.0412958 21.554778 9.1738281 21.59375 C 9.2218994 21.608123 9.2701262 21.62114 9.3183594 21.634766 C 9.3930331 21.655501 9.4676029 21.676277 9.5429688 21.695312 C 9.6898289 21.733053 9.8364789 21.766229 9.984375 21.796875 C 10.310948 21.864546 10.640128 21.917691 10.96875 21.949219 C 10.971333 21.949483 10.973979 21.948956 10.976562 21.949219 C 10.99423 21.950856 11.011645 21.951563 11.029297 21.953125 C 11.217995 21.971292 11.409946 21.982703 11.601562 21.990234 C 11.665544 21.992867 11.729173 21.992584 11.792969 21.994141 C 11.862196 21.995554 11.930434 22 12 22 L 12.003906 21.994141 C 13.525134 22.002317 14.995931 21.701013 16.447266 20.947266 C 16.981678 20.739077 16.940129 19.636495 16.425781 19.390625 C 16.051799 19.165733 15.645973 19.249177 15.375 19.376953 C 13.303466 20.345528 10.733381 20.391224 8.5957031 19.378906 C 6.6035901 18.454369 5.0891708 16.808655 4.3515625 14.740234 C 4.0269537 13.849167 3.8714167 12.921013 3.8730469 11.994141 L 7 12 L 3.8105469 6.2597656 z " />
  <defs
     id="defs9">
    <linearGradient
       id="linearGradient1"
       inkscape:collect="always">
      <stop
         style="stop-color:#b900ff;stop-opacity:1;"
         offset="0"
         id="stop8" />
      <stop
         style="stop-color:#6444ff;stop-opacity:1;"
         offset="1"
         id="stop9" />
    </linearGradient>
    <linearGradient
       id="linearGradient12"
       inkscape:collect="always">
      <stop
         style="stop-color:#b900ff;stop-opacity:1;"
         offset="0"
         id="stop12" />
      <stop
         style="stop-color:#6444ff;stop-opacity:1;"
         offset="1"
         id="stop13" />
    </linearGradient>
    <linearGradient
       id="linearGradient3"
       inkscape:collect="always">
      <stop
         style="stop-color:#b900ff;stop-opacity:1;"
         offset="0"
         id="stop5" />
      <stop
         style="stop-color:#6444ff;stop-opacity:1;"
         offset="1"
         id="stop7" />
    </linearGradient>
    <linearGradient
       id="linearGradient2"
       x1="-5337.0938"
       y1="-5846.7725"
       x2="-4091.0837"
       y2="-7153.0879"
       gradientUnits="userSpaceOnUse"
       gradientTransform="matrix(0.01107812,0,0,0.01107812,64.302469,84.082604)">
      <stop
         id="stop1"
         offset="0"
         style="stop-color:#00f1fa;stop-opacity:1;" />
      <stop
         offset="1"
         id="stop2"
         style="stop-color:#666666;stop-opacity:1;" />
    </linearGradient>
    <linearGradient
       id="paint0_linear"
       x1="12.000812"
       y1="2"
       x2="12.000812"
       y2="22"
       gradientUnits="userSpaceOnUse"
       xlink:href="#linearGradient12">
      <stop
         id="stop4"
         offset="0"
         style="stop-color:#6444ff;stop-opacity:1;" />
      <stop
         offset="1"
         id="stop6"
         style="stop-color:#b900ff;stop-opacity:1;" />
    </linearGradient>
    <linearGradient
       id="paint0_linear-7"
       x1="-5337.0938"
       y1="-5846.7725"
       x2="-4091.0837"
       y2="-7153.0879"
       gradientUnits="userSpaceOnUse"
       gradientTransform="matrix(0.01107812,0,0,0.01107812,64.302469,84.082604)"
       xlink:href="#linearGradient2">
      <stop
         id="stop3"
         offset="0"
         style="stop-color:#00f1fa;stop-opacity:1;" />
      <stop
         offset="1"
         id="stop4-5"
         style="stop-color:#006cff;stop-opacity:1;" />
    </linearGradient>
    <linearGradient
       inkscape:collect="always"
       xlink:href="#linearGradient3"
       id="linearGradient9"
       x1="4.7718735"
       y1="18.603525"
       x2="20.363039"
       y2="6.9028125"
       gradientUnits="userSpaceOnUse" />
    <linearGradient
       inkscape:collect="always"
       xlink:href="#linearGradient2"
       id="linearGradient11"
       x1="2.0000012"
       y1="12"
       x2="21.37656"
       y2="11.704687"
       gradientUnits="userSpaceOnUse" />
    <linearGradient
       inkscape:collect="always"
       xlink:href="#linearGradient1"
       id="linearGradient10"
       x1="11.792969"
       y1="21.994141"
       x2="12.130859"
       y2="2.0039062"
       gradientUnits="userSpaceOnUse" />
  </defs>
  <path
     id="path1"
     style="display:none;fill:url(#linearGradient11);fill-opacity:1;stroke:url(#linearGradient9);stroke-width:0.421011;stroke-dasharray:none;stroke-opacity:1"
     d="m 11.835311,2.2131076 c 0.535377,-0.0094 1.071271,0.0242 1.600375,0.101346 2.840252,0.40014 5.445755,2.136079 6.927353,4.588359 1.895584,3.043072 1.905755,7.1537434 -0.0074,10.1905954 -0.265299,0.159914 -0.108792,-3.727887 -0.02015,-4.8445 0.0665,-1.995694 -0.624659,-4.0037984 -1.900509,-5.5391274 -1.280871,-1.56419 -3.149013,-2.636732 -5.149981,-2.940291 -1.782736,-0.286003 -3.6542546,0.04012 -5.2412526,0.900609 -0.285972,0.175604 -0.686205,0.171949 -0.927128,-0.08017 -0.33744,-0.299801 -0.28092,-0.912099 0.114092,-1.135371 1.397228,-0.796838 2.9984666,-1.213166 4.6045976,-1.241447 z m -7.9099836,4.989017 c 0.1775112,0.1966737 0.6999078,0.8081047 0.603146,1.108233 -0.994847,2.0019464 -1.134191,4.4052904 -0.368794,6.5063424 0.737609,2.068423 2.329616,3.811831 4.321731,4.736369 2.1376796,1.012319 4.7134296,1.048707 6.8724656,0.08017 0.270973,-0.127776 0.599655,-0.253372 0.880669,-0.07771 0.514348,0.24587 0.490427,1.085062 -0.04399,1.293251 -1.605796,0.771501 -3.429744,1.071239 -5.199934,0.886836 -2.3659726,-0.22703 -4.6230126,-1.374687 -6.2187476,-3.13209 -1.233243,-1.3446 -2.080021,-3.040653 -2.402515,-4.836893 -0.378698,-2.069676 -0.07629,-4.2621964 0.872035,-6.1424804 0.1890509,-0.431108 0.6856347,-0.4276971 0.683934,-0.422028 z"
     sodipodi:nodetypes="scccccccccssccccccccccsc" />
</svg>
