<?xml version="1.0" encoding="UTF-8" standalone="no"?>
<svg
   width="22"
   height="22"
   viewBox="0 0 22 22"
   fill="none"
   version="1.1"
   id="svg2"
   sodipodi:docname="system-suspend-hibernate.svg"
   inkscape:version="1.3.2 (091e20ef0f, 2023-11-25, custom)"
   xmlns:inkscape="http://www.inkscape.org/namespaces/inkscape"
   xmlns:sodipodi="http://sodipodi.sourceforge.net/DTD/sodipodi-0.dtd"
   xmlns="http://www.w3.org/2000/svg"
   xmlns:svg="http://www.w3.org/2000/svg">
  <sodipodi:namedview
     id="namedview2"
     pagecolor="#ffffff"
     bordercolor="#666666"
     borderopacity="1.0"
     inkscape:showpageshadow="2"
     inkscape:pageopacity="0.0"
     inkscape:pagecheckerboard="0"
     inkscape:deskcolor="#d1d1d1"
     inkscape:zoom="34.181818"
     inkscape:cx="10.956117"
     inkscape:cy="10.956117"
     inkscape:current-layer="svg2" />
  <path
     d="m 19.47354,12.231438 -2.039063,0.485922 c -0.256519,0.06535 -0.501921,0.168519 -0.728103,0.306077 l -1.658388,-1.018284 c 0.179117,-0.658077 0.179117,-1.352103 0,-2.0101072 L 16.706374,8.97672 c 0.226182,0.137579 0.471584,0.2407166 0.728103,0.3060048 0,0 2.232309,0.519927 2.328517,0.519927 0.68696,-0.0065 1.23844,-0.5687477 1.231895,-1.2557184 C 20.989489,7.979547 20.600708,7.4877241 20.049851,7.3514022 L 18.007464,6.8629767 c -0.04634,-0.011283 -0.08603,-0.041319 -0.109403,-0.082899 -0.02514,-0.040031 -0.03293,-0.088499 -0.02161,-0.1343167 l 0.485921,-2.0399251 c 0.198753,-0.6575681 -0.17309,-1.351822 -0.830648,-1.5505854 -0.657558,-0.1987634 -1.351791,0.1731219 -1.550544,0.83069 -0.01475,0.048748 -0.02649,0.098358 -0.03522,0.1485401 l -0.485921,2.0399252 c -0.05693,0.2556464 -0.07574,0.5183163 -0.05548,0.7795004 L 13.746065,7.8763367 C 13.31978,7.509189 12.822742,7.2331582 12.285807,7.065335 V 5.1124747 C 12.521132,4.9932333 12.736924,4.838875 12.92591,4.6547297 L 14.409441,3.1720508 C 14.895155,2.6861292 14.894947,1.8984937 14.409026,1.4128423 13.923104,0.92714926 13.135469,0.92734666 12.649859,1.4132682 l -1.482804,1.4834582 c -0.06857,0.068706 -0.179844,0.068789 -0.248519,1.662e-4 0,3.12e-5 -1.04e-4,-4.15e-5 0,0 L 9.4340297,1.4132267 c -0.485932,-0.48592164 -1.2737441,-0.48592164 -1.7596761,0 -0.4858904,0.4859215 -0.4858904,1.2737233 0,1.7596449 l 1.4835309,1.4826789 c 0.1890076,0.1838232 0.4048619,0.3378906 0.640145,0.4569242 V 7.065335 C 9.2622065,7.2346854 8.7666746,7.5117968 8.3418854,7.879651 L 6.6792482,6.8539066 C 6.7000272,6.5908316 6.6812882,6.326115 6.6237162,6.068588 L 6.1377838,4.034481 C 5.9892126,3.3638012 5.3250366,2.940529 4.6543568,3.0891002 3.983677,3.2376611 3.5603944,3.901837 3.7089656,4.5725168 c 0.00286,0.012821 0.00589,0.025569 0.00914,0.038244 l 0.4859319,2.0399251 c 0.011314,0.045901 0.00353,0.094358 -0.021538,0.1343583 -0.023428,0.04161 -0.063106,0.071605 -0.1094648,0.082899 L 2.0339233,7.351371 C 1.3656954,7.5109033 0.95331138,8.1819052 1.1128541,8.8500811 c 0.1335064,0.5592826 0.632976,0.9541807 1.2079468,0.9550327 0.096187,0 2.3284858,-0.5199266 2.3284858,-0.5199266 0.2564984,-0.065288 0.5018904,-0.1684258 0.728072,-0.3059945 l 1.6584605,1.0183151 c -0.1791063,0.6580362 -0.1791063,1.3519572 0,2.0100342 L 5.3773587,13.025827 C 5.1511771,12.888269 4.9057851,12.7851 4.6492867,12.719853 L 2.610172,12.233932 c -0.65655,-0.202182 -1.3526427,0.166337 -1.5547828,0.822856 -0.20212962,0.656519 0.166296,1.352622 0.8228563,1.554804 0.051013,0.01569 0.1030129,0.02805 0.1555946,0.03709 l 2.0391252,0.485922 c 0.046358,0.01132 0.086036,0.04135 0.1094232,0.08291 0.025112,0.04 0.032894,0.08852 0.021579,0.134338 l -0.4859008,2.039997 c -0.1602803,0.668156 0.2514283,1.339739 0.9196146,1.500051 0.6681759,0.160311 1.3398116,-0.251429 1.5001023,-0.919584 l 0.485932,-2.039998 c 0.057641,-0.257766 0.076384,-0.5227 0.055532,-0.786077 l 1.6626372,-1.02244 c 0.4247892,0.367896 0.9203211,0.644986 1.4561437,0.814337 v 1.949504 C 9.5628497,17.007538 9.3470266,17.162135 9.1578839,17.346239 L 7.674353,18.827173 c -0.4858904,0.485921 -0.4858904,1.273764 0,1.759686 0.485932,0.485922 1.2737441,0.485922 1.7596761,0 l 1.4826359,-1.483531 c 0.06868,-0.06867 0.179948,-0.06878 0.248623,-1.04e-4 0,0 1.04e-4,0 0,0 l 1.482907,1.483635 c 0.485922,0.485922 1.273661,0.485922 1.759583,0 0.485922,-0.485922 0.485922,-1.273765 0,-1.759686 l -1.483426,-1.482597 c -0.188779,-0.183481 -0.404051,-0.337454 -0.638545,-0.456935 v -1.952933 c 0.535792,-0.16935 1.031376,-0.446441 1.456103,-0.814233 l 1.658491,1.022441 c -0.02078,0.263064 -0.0021,0.527687 0.05548,0.785246 l 0.485921,2.039997 c 0.160312,0.668156 0.831999,1.079792 1.500155,0.919584 0.668155,-0.160312 1.079895,-0.831895 0.919583,-1.50005 l -0.48592,-2.039998 c -0.01133,-0.04582 -0.0035,-0.09434 0.02161,-0.134338 0.02338,-0.04156 0.06306,-0.07158 0.109402,-0.08291 l 2.039167,-0.485921 c 0.668155,-0.160312 1.079895,-0.831896 0.919583,-1.500051 -0.160311,-0.668259 -0.831895,-1.079895 -1.500154,-0.919687 z m -8.431679,0.427117 c -0.915948,0 -1.658439,-0.742545 -1.658439,-1.658492 0,-0.915947 0.742491,-1.6584499 1.658439,-1.6584499 0.915947,0 1.658491,0.7425029 1.658491,1.6584499 0,0.915947 -0.742544,1.658492 -1.658491,1.658492 z"
     id="path1"
     style="fill:url(#paint0_linear_451_2434);stroke-width:1.03896" />
  <defs
     id="defs2">
    <linearGradient
       id="paint0_linear_451_2434"
       x1="11"
       y1="20.5313"
       x2="20.625019"
       y2="10.953138"
       gradientUnits="userSpaceOnUse"
       gradientTransform="matrix(1.0389599,0,0,1.0389599,-0.42856767,-0.37987279)">
      <stop
         id="stop1"
         offset="0"
         style="stop-color:#ff69ff;stop-opacity:1;" />
      <stop
         offset="1"
         id="stop2"
         style="stop-color:#9033dd;stop-opacity:1;" />
    </linearGradient>
  </defs>
</svg>
