<?xml version="1.0" encoding="UTF-8" standalone="no"?>
<svg
   width="22"
   height="22"
   viewBox="0 0 22 22"
   fill="none"
   version="1.1"
   id="svg5"
   sodipodi:docname="system-log-out.svg"
   inkscape:version="1.3.2 (091e20ef0f, 2023-11-25, custom)"
   xmlns:inkscape="http://www.inkscape.org/namespaces/inkscape"
   xmlns:sodipodi="http://sodipodi.sourceforge.net/DTD/sodipodi-0.dtd"
   xmlns="http://www.w3.org/2000/svg"
   xmlns:svg="http://www.w3.org/2000/svg">
  <sodipodi:namedview
     id="namedview5"
     pagecolor="#ffffff"
     bordercolor="#666666"
     borderopacity="1.0"
     inkscape:showpageshadow="2"
     inkscape:pageopacity="0.0"
     inkscape:pagecheckerboard="0"
     inkscape:deskcolor="#d1d1d1"
     inkscape:zoom="33.234019"
     inkscape:cx="12.712877"
     inkscape:cy="7.5976367"
     inkscape:current-layer="svg5" />
  <g
     clip-path="url(#clip0)"
     id="g2"
     transform="matrix(0.0863323,0,0,0.0863323,-0.84176993,-0.05057792)">
    <path
       d="M 128,234.667 C 69.0882,234.667 21.3335,186.913 21.3335,128.001 21.3335,69.0887 69.0882,21.334 128,21.334 c 16.562,-0.0124 32.898,3.8376 47.711,11.2442 11.828,5.9137 22.424,13.9646 31.268,23.7177 2.767,3.051 0.482,7.7048 -3.636,7.7048 h -17.027 c -1.217,0 -2.389,-0.4491 -3.32,-1.2341 C 170.942,52.603 156.296,45.9694 140.68,43.6209 124.44,41.1787 107.841,43.4743 92.8736,50.2323 77.9064,56.9902 65.2071,67.9235 56.2996,81.72 c -8.9075,13.7966 -13.6448,29.87 -13.6435,46.292 0.0014,16.423 4.7414,32.496 13.6512,46.291 8.9098,13.795 21.6109,24.726 36.5793,31.481 14.9684,6.756 31.5684,9.049 47.8074,6.604 15.615,-2.351 30.26,-8.987 42.312,-19.153 0.931,-0.785 2.104,-1.234 3.322,-1.234 h 17.026 c 4.118,0 6.402,4.654 3.636,7.704 -8.846,9.755 -19.443,17.807 -31.273,23.721 -14.815,7.406 -31.153,11.255 -47.717,11.241 z"
       fill="url(#paint0_linear)"
       id="path1"
       style="fill:url(#paint0_linear)" />
    <path
       d="m 202.667,143.667 v 16.597 c 0,4.193 4.849,6.524 8.123,3.905 l 40.33,-32.264 c 2.502,-2.002 2.502,-5.807 0,-7.809 L 210.79,91.8328 c -3.273,-2.6191 -8.123,-0.2882 -8.123,3.9043 v 16.5969 c 0,2.761 -2.239,5 -5,5 h -75.334 c -2.761,0 -5,2.239 -5,5 v 11.333 c 0,2.762 2.239,5 5.001,5 h 75.333 c 2.761,0 5,2.239 5,5 z"
       fill="url(#paint1_linear)"
       id="path2"
       style="fill:url(#paint1_linear)" />
  </g>
  <defs
     id="defs5">
    <linearGradient
       id="paint0_linear"
       x1="21.3335"
       y1="234.66704"
       x2="252.99651"
       y2="128.00085"
       gradientUnits="userSpaceOnUse">
      <stop
         id="stop2"
         offset="0"
         style="stop-color:#c900ff;stop-opacity:1;" />
      <stop
         offset="1"
         id="stop3"
         style="stop-color:#6444ff;stop-opacity:1;" />
    </linearGradient>
    <linearGradient
       id="paint1_linear"
       x1="21.3335"
       y1="234.66704"
       x2="252.99651"
       y2="128.00085"
       gradientUnits="userSpaceOnUse">
      <stop
         id="stop4"
         offset="0"
         style="stop-color:#c900ff;stop-opacity:1;" />
      <stop
         offset="1"
         id="stop5"
         style="stop-color:#6444ff;stop-opacity:1;" />
    </linearGradient>
    <clipPath
       id="clip0">
      <rect
         width="256"
         height="256"
         fill="#ffffff"
         id="rect5"
         x="0"
         y="0" />
    </clipPath>
  </defs>
</svg>
