<?xml version="1.0" encoding="UTF-8" standalone="no"?>
<!-- Generator: Gravit.io -->

<svg
   style="isolation:isolate"
   viewBox="0 0 48 48"
   width="48pt"
   height="48pt"
   version="1.1"
   id="svg3"
   sodipodi:docname="system-switch-user.svg"
   inkscape:version="1.3.2 (091e20ef0f, 2023-11-25, custom)"
   xmlns:inkscape="http://www.inkscape.org/namespaces/inkscape"
   xmlns:sodipodi="http://sodipodi.sourceforge.net/DTD/sodipodi-0.dtd"
   xmlns="http://www.w3.org/2000/svg"
   xmlns:svg="http://www.w3.org/2000/svg">
  <defs
     id="defs3" />
  <sodipodi:namedview
     id="namedview3"
     pagecolor="#ffffff"
     bordercolor="#666666"
     borderopacity="1.0"
     inkscape:showpageshadow="2"
     inkscape:pageopacity="0.0"
     inkscape:pagecheckerboard="0"
     inkscape:deskcolor="#d1d1d1"
     inkscape:document-units="pt"
     inkscape:zoom="12.953125"
     inkscape:cx="31.961399"
     inkscape:cy="32"
     inkscape:current-layer="svg3" />
  <linearGradient
     id="linearGradient8889"
     x1="0.068176001"
     y1="1"
     x2="0.73969799"
     y2="0.23409091"
     gradientTransform="matrix(42.977,0,0,44,2,2)"
     gradientUnits="userSpaceOnUse">
    <stop
       offset="0"
       stop-opacity="1"
       style="stop-color:#00f1fa;stop-opacity:1;"
       id="stop1" />
    <stop
       offset="1"
       stop-opacity="1"
       style="stop-color:#006cff;stop-opacity:1;"
       id="stop3" />
  </linearGradient>
  <path
     d=" M 18.67 21.409 L 19.787 22.197 L 40.272 36.684 C 40.712 36.996 41.07 37.686 41.07 38.225 L 41.07 41.116 C 41.07 41.655 40.632 42.093 40.093 42.093 L 6.884 42.093 C 6.345 42.093 5.907 41.655 5.907 41.116 L 5.907 38.293 C 5.907 37.754 6.277 37.084 6.734 36.796 L 17.423 30.069 L 17.423 30.069 C 18.334 29.498 18.61 28.292 18.038 27.378 L 18.038 27.378 C 17.467 26.465 16.259 26.191 15.342 26.768 L 15.342 26.768 L 4.481 33.59 C 3.112 34.45 2 36.461 2 38.079 L 2 43.07 C 2 44.687 3.313 46 4.93 46 L 42.047 46 C 43.664 46 44.977 44.687 44.977 43.07 L 44.977 38.147 C 44.977 36.53 43.904 34.459 42.584 33.526 L 26.49 22.155 C 28.091 21.668 29.565 20.795 30.77 19.59 C 32.7 17.66 33.79 15.03 33.79 12.3 C 33.79 9.57 32.7 6.95 30.77 5.02 C 28.84 3.09 26.22 2 23.49 2 C 20.76 2 18.13 3.09 16.2 5.02 C 14.27 6.95 13.19 9.57 13.19 12.3 L 13.19 12.3 C 13.19 15.03 14.27 17.66 16.2 19.59 C 16.933 20.323 17.768 20.934 18.67 21.409 Z  M 17.19 12.3 C 17.19 10.63 17.85 9.03 19.03 7.85 C 20.21 6.66 21.82 6 23.49 6 C 25.16 6 26.76 6.66 27.94 7.85 C 29.13 9.03 29.79 10.63 29.79 12.3 C 29.79 13.97 29.13 15.58 27.94 16.76 C 26.76 17.94 25.16 18.6 23.49 18.6 C 21.82 18.6 20.21 17.94 19.03 16.76 C 17.85 15.58 17.19 13.97 17.19 12.3 L 17.19 12.3 Z "
     fill-rule="evenodd"
     fill="url(#linearGradient8889)"
     id="path3"
     style="fill:url(#linearGradient8889)" />
</svg>
