<?xml version="1.0" encoding="UTF-8" standalone="no"?>
<svg
   width="16"
   height="16"
   viewBox="0 0 16 16"
   fill="none"
   version="1.1"
   id="svg2"
   sodipodi:docname="view-split-left-right.svg"
   inkscape:version="1.3.2 (091e20ef0f, 2023-11-25, custom)"
   xmlns:inkscape="http://www.inkscape.org/namespaces/inkscape"
   xmlns:sodipodi="http://sodipodi.sourceforge.net/DTD/sodipodi-0.dtd"
   xmlns:xlink="http://www.w3.org/1999/xlink"
   xmlns="http://www.w3.org/2000/svg"
   xmlns:svg="http://www.w3.org/2000/svg">
  <sodipodi:namedview
     id="namedview2"
     pagecolor="#ffffff"
     bordercolor="#666666"
     borderopacity="1.0"
     inkscape:showpageshadow="2"
     inkscape:pageopacity="0.0"
     inkscape:pagecheckerboard="0"
     inkscape:deskcolor="#d1d1d1"
     inkscape:zoom="28.9375"
     inkscape:cx="7.9827214"
     inkscape:cy="8"
     inkscape:current-layer="svg2" />
  <path
     d="M1.5 1C1.22386 1 1 1.22386 1 1.5V14.5C1 14.7761 1.22386 15 1.5 15H6.33333C6.60948 15 6.83333 14.7761 6.83333 14.5V1.5C6.83333 1.22386 6.60948 1 6.33333 1H1.5ZM8.5 1C8.22386 1 8 1.22386 8 1.5V14.5C8 14.7761 8.22386 15 8.5 15H14.5C14.7761 15 15 14.7761 15 14.5V1.5C15 1.22386 14.7761 1 14.5 1H8.5ZM2.16667 5C2.16667 4.72386 2.39052 4.5 2.66667 4.5H5.16667C5.44281 4.5 5.66667 4.72386 5.66667 5V13.3333C5.66667 13.6095 5.44281 13.8333 5.16667 13.8333H2.66667C2.39052 13.8333 2.16667 13.6095 2.16667 13.3333V5ZM9.16667 5C9.16667 4.72386 9.39052 4.5 9.66667 4.5H13.3333C13.6095 4.5 13.8333 4.72386 13.8333 5V13.3333C13.8333 13.6095 13.6095 13.8333 13.3333 13.8333H9.66667C9.39052 13.8333 9.16667 13.6095 9.16667 13.3333V5Z"
     id="path1"
     style="fill:url(#linearGradient4);fill-opacity:1" />
  <defs
     id="defs2">
    <linearGradient
       id="linearGradient2"
       inkscape:collect="always">
      <stop
         style="stop-color:#b900ff;stop-opacity:1;"
         offset="0"
         id="stop3" />
      <stop
         style="stop-color:#6444ff;stop-opacity:1;"
         offset="1"
         id="stop4" />
    </linearGradient>
    <linearGradient
       id="paint0_linear"
       x1="7.39122"
       y1="14.624"
       x2="8.97294"
       y2="1.97355"
       gradientUnits="userSpaceOnUse">
      <stop
         stop-color="#DC18FC"
         id="stop1" />
      <stop
         offset="1"
         stop-color="#8E1EFF"
         id="stop2" />
    </linearGradient>
    <linearGradient
       inkscape:collect="always"
       xlink:href="#linearGradient2"
       id="linearGradient4"
       x1="3.9166651"
       y1="15"
       x2="15"
       y2="8"
       gradientUnits="userSpaceOnUse" />
  </defs>
</svg>
