<?xml version="1.0" encoding="UTF-8" standalone="no"?>
<svg
   width="24"
   height="24"
   viewBox="0 0 24 24"
   fill="none"
   version="1.1"
   id="svg4"
   sodipodi:docname="wallet-open.svg"
   inkscape:version="1.4 (e7c3feb100, 2024-10-09)"
   xmlns:inkscape="http://www.inkscape.org/namespaces/inkscape"
   xmlns:sodipodi="http://sodipodi.sourceforge.net/DTD/sodipodi-0.dtd"
   xmlns="http://www.w3.org/2000/svg"
   xmlns:svg="http://www.w3.org/2000/svg">
  <sodipodi:namedview
     id="namedview4"
     pagecolor="#505050"
     bordercolor="#ffffff"
     borderopacity="1"
     inkscape:showpageshadow="0"
     inkscape:pageopacity="0"
     inkscape:pagecheckerboard="1"
     inkscape:deskcolor="#505050"
     inkscape:zoom="27.782609"
     inkscape:cx="12.795775"
     inkscape:cy="11.877934"
     inkscape:current-layer="svg4" />
  <g
     id="path1">
    <path
       style="fill:url(#paint0_linear)"
       d="m 3.22222,2 c -0.55228,0 -1,0.44772 -1,1 v 3.27778 c 0,0.3375 -0.2736,0.61111 -0.61111,0.61111 v 0 C 1.2736,6.88889 1,7.16249 1,7.5 V 8.11111 20.3333 c 0,0.6771 0.54511,1.2223 1.22222,1.2223 H 21.7778 22 c 0.5523,0 1,-0.4478 1,-1 V 20.3333 8.11111 C 23,7.434 22.4549,6.88889 21.7778,6.88889 h -5.1111 c -0.5523,0 -1,-0.44772 -1,-1 V 3 c 0,-0.55228 -0.4477,-1 -1,-1 z m 0.22222,2.22222 c 0,-0.55228 0.44772,-1 1,-1 h 8.99996 c 0.5523,0 1,0.44772 1,1 v 1.66667 c 0,0.55228 -0.4477,1 -1,1 h -1.5651 c -0.3147,0 -0.6039,-0.1561 -0.8313,-0.37378 C 10.4863,5.97723 9.73471,5.66914 8.94444,5.66667 8.15166,5.66729 7.39722,5.97556 6.83371,6.51511 6.60636,6.73279 6.31714,6.88889 6.00239,6.88889 H 4.44444 c -0.55228,0 -1,-0.44772 -1,-1 z M 2.22222,9.11111 c 0,-0.55228 0.44772,-1 1,-1 h 0.22222 2.50651 5.98225 2.5112 1.2223 5.1111 c 0.5523,0 1,0.44772 1,1 v 1.66669 c 0,0.5523 -0.4477,1 -1,1 h -1.4445 -6.1111 c -1.3542,0 -2.4444,1.0902 -2.4444,2.4444 0,1.3542 1.0902,2.4445 2.4444,2.4445 h 6.1111 1.4445 c 0.5523,0 1,0.4477 1,1 v 1.6666 c 0,0.5523 -0.4477,1 -1,1 H 3.22222 c -0.55228,0 -1,-0.4477 -1,-1 z M 14.4444,13 c 0.6751,0 1.2223,0.5472 1.2223,1.2222 0,0.675 -0.5472,1.2222 -1.2223,1.2222 -0.675,0 -1.2222,-0.5472 -1.2222,-1.2222 0,-0.675 0.5472,-1.2222 1.2222,-1.2222 z"
       id="path4" />
    <path
       style="fill:url(#paint1_linear)"
       d="m 3.2226563,1.5 c -0.8225053,0 -1.5,0.6774948 -1.5000001,1.5 v 3.2773437 c 0,0.067278 -0.044042,0.1113282 -0.1113281,0.1113282 C 1.0036039,6.3886719 0.5,6.8922758 0.5,7.5 V 8.1113281 20.333984 c 0,0.945456 0.7771507,1.720703 1.7226563,1.720703 H 21.777344 22 c 0.822564,0 1.5,-0.677547 1.5,-1.5 V 20.333984 8.1113281 c 0,-0.9454563 -0.777201,-1.7226562 -1.722656,-1.7226562 h -5.111328 c -0.282085,0 -0.5,-0.2179332 -0.5,-0.5 V 3 c 0,-0.8224932 -0.677485,-1.5 -1.5,-1.5 z m 0,1 H 14.666016 c 0.282084,0 0.5,0.2179332 0.5,0.5 v 2.8886719 c 0,0.8224932 0.677484,1.5 1.5,1.5 h 5.111328 c 0.408745,0 0.722656,0.3138926 0.722656,0.7226562 v 12.2226559 0.220703 c 0,0.281948 -0.217964,0.5 -0.5,0.5 H 21.777344 2.2226563 C 1.8139418,21.054687 1.5,20.742729 1.5,20.333984 V 8.1113281 7.5 c 0,-0.067296 0.044032,-0.1113281 0.1113281,-0.1113281 0.6077341,0 1.1113282,-0.5036059 1.1113282,-1.1113282 V 3 c 0,-0.2820548 0.2179452,-0.5 0.5,-0.5 z m 1.2226562,0.2226563 c -0.8225052,0 -1.5,0.6774947 -1.5,1.4999999 v 1.6660157 c 0,0.8225052 0.6774948,1.5 1.5,1.5 h 1.5566406 c 0.4800664,0 0.8836313,-0.2301249 1.1777344,-0.5117188 0.4707578,-0.4507415 1.1009531,-0.7099297 1.7636719,-0.7109375 0.6613113,0.00207 1.2901006,0.2611891 1.7597656,0.7109375 0.294115,0.2815436 0.695739,0.5117188 1.175781,0.5117188 h 1.566407 c 0.822515,0 1.499999,-0.6775068 1.5,-1.5 V 4.2226562 c 0,-0.8224931 -0.677485,-1.5 -1.5,-1.4999999 z m 0,1 h 9.0000005 c 0.282084,0 0.499999,0.2179331 0.5,0.4999999 v 1.6660157 c 0,0.2820668 -0.217916,0.5 -0.5,0.5 h -1.566407 c -0.149357,0 -0.32369,-0.080559 -0.484375,-0.234375 C 10.740797,5.5282853 9.8645411,5.1688887 8.9453125,5.1660156 h -0.00195 C 8.021212,5.1667368 7.1440949,5.5263679 6.4882812,6.1542969 6.3276844,6.308063 6.1513867,6.3886719 6.0019531,6.3886719 H 4.4453125 c -0.2820548,0 -0.5,-0.2179453 -0.5,-0.5 V 4.2226562 c 0,-0.2820547 0.2179452,-0.5 0.5,-0.4999999 z M 3.2226563,7.6113281 c -0.8225053,0 -1.5,0.6774948 -1.5000001,1.5 V 19.333984 c 0,0.822516 0.6775069,1.5 1.5000001,1.5 H 20.777344 c 0.822503,0 1.5,-0.677496 1.5,-1.5 v -1.667968 c 0,-0.822504 -0.677497,-1.5 -1.5,-1.5 h -1.44336 -6.111328 c -1.085825,0 -1.945312,-0.85751 -1.945312,-1.94336 0,-1.085849 0.859463,-1.945312 1.945312,-1.945312 h 6.111328 1.44336 c 0.822503,0 1.5,-0.677497 1.5,-1.5 V 9.1113281 c 0,-0.8224932 -0.677485,-1.5 -1.5,-1.5 H 15.666016 14.445313 11.933594 5.9511719 3.4453125 Z m 0,1 h 0.2226562 2.5058594 5.9824221 2.511719 1.220703 5.111328 c 0.282084,0 0.5,0.2179332 0.5,0.5 v 1.6660159 c 0,0.282096 -0.217904,0.5 -0.5,0.5 h -1.44336 -6.111328 c -1.62255,0 -2.945312,1.322762 -2.945312,2.945312 0,1.622551 1.322737,2.94336 2.945312,2.94336 h 6.111328 1.44336 c 0.282096,0 0.5,0.217903 0.5,0.5 v 1.667968 c 0,0.282097 -0.217904,0.5 -0.5,0.5 H 3.2226563 c -0.2820669,0 -0.5000001,-0.217915 -0.5,-0.5 V 9.1113281 c 0,-0.2820547 0.2179452,-0.5 0.5,-0.5 z M 14.445313,12.5 c -0.945223,0 -1.722657,0.777434 -1.722657,1.722656 0,0.945222 0.777434,1.722657 1.722657,1.722657 0.945282,0 1.720703,-0.777435 1.720703,-1.722657 0,-0.945222 -0.775421,-1.722656 -1.720703,-1.722656 z m 0,1 c 0.404917,0 0.720703,0.317878 0.720703,0.722656 0,0.404778 -0.315786,0.722657 -0.720703,0.722657 -0.404778,0 -0.722657,-0.317879 -0.722657,-0.722657 0,-0.404778 0.317879,-0.722656 0.722657,-0.722656 z"
       id="path5" />
  </g>
  <defs
     id="defs4">
    <linearGradient
       id="paint0_linear"
       x1="2.2226562"
       y1="22.054688"
       x2="23.5"
       y2="14.222656"
       gradientUnits="userSpaceOnUse">
      <stop
         stop-color="#00B59C"
         id="stop1"
         offset="0"
         style="stop-color:#e5f230;stop-opacity:1;" />
      <stop
         offset="1"
         stop-color="#9CFFAC"
         id="stop2"
         style="stop-color:#24d864;stop-opacity:1;" />
    </linearGradient>
    <linearGradient
       id="paint1_linear"
       x1="2.2226562"
       y1="22.054688"
       x2="23.5"
       y2="14.222656"
       gradientUnits="userSpaceOnUse">
      <stop
         stop-color="#00B59C"
         id="stop3"
         offset="0"
         style="stop-color:#e5f230;stop-opacity:1;" />
      <stop
         offset="1"
         stop-color="#9CFFAC"
         id="stop4"
         style="stop-color:#24d864;stop-opacity:1;" />
    </linearGradient>
  </defs>
</svg>
