<?xml version="1.0" encoding="UTF-8" standalone="no"?>
<svg
   width="16"
   height="16"
   viewBox="0 0 16 16"
   fill="none"
   version="1.1"
   id="svg2"
   sodipodi:docname="window-new.svg"
   inkscape:version="1.4 (e7c3feb100, 2024-10-09)"
   xmlns:inkscape="http://www.inkscape.org/namespaces/inkscape"
   xmlns:sodipodi="http://sodipodi.sourceforge.net/DTD/sodipodi-0.dtd"
   xmlns="http://www.w3.org/2000/svg"
   xmlns:svg="http://www.w3.org/2000/svg">
  <sodipodi:namedview
     id="namedview2"
     pagecolor="#505050"
     bordercolor="#ffffff"
     borderopacity="1"
     inkscape:showpageshadow="0"
     inkscape:pageopacity="0"
     inkscape:pagecheckerboard="1"
     inkscape:deskcolor="#505050"
     inkscape:zoom="32.25"
     inkscape:cx="4.5426357"
     inkscape:cy="10.20155"
     inkscape:current-layer="svg2" />
  <path
     d="M1.5 1C1.22386 1 1 1.22386 1 1.5V14.5C1 14.7761 1.22386 15 1.5 15H8.66667C8.94281 15 9.16667 14.7761 9.16667 14.5V14.3333C9.16667 14.0572 8.94281 13.8333 8.66667 13.8333H2.66667C2.39052 13.8333 2.16667 13.6095 2.16667 13.3333V3.83333C2.16667 3.55719 2.39052 3.33333 2.66667 3.33333H13.3333C13.6095 3.33333 13.8333 3.55719 13.8333 3.83333V8.66667C13.8333 8.94281 14.0572 9.16667 14.3333 9.16667H14.5C14.7761 9.16667 15 8.94281 15 8.66667V1.5C15 1.22386 14.7761 1 14.5 1H1.5ZM12 9.16667C11.7239 9.16667 11.5 9.39052 11.5 9.66667V11C11.5 11.2761 11.2761 11.5 11 11.5H9.66667C9.39052 11.5 9.16667 11.7239 9.16667 12V12.1667C9.16667 12.4428 9.39052 12.6667 9.66667 12.6667H11C11.2761 12.6667 11.5 12.8905 11.5 13.1667V14.5C11.5 14.7761 11.7239 15 12 15H12.1667C12.4428 15 12.6667 14.7761 12.6667 14.5V13.1667C12.6667 12.8905 12.8905 12.6667 13.1667 12.6667H14.5C14.7761 12.6667 15 12.4428 15 12.1667V12C15 11.7239 14.7761 11.5 14.5 11.5H13.1667C12.8905 11.5 12.6667 11.2761 12.6667 11V9.66667C12.6667 9.39052 12.4428 9.16667 12.1667 9.16667H12Z"
     fill="url(#paint0_linear)"
     id="path1"
     style="fill:url(#paint0_linear)" />
  <defs
     id="defs2">
    <linearGradient
       id="paint0_linear"
       x1="1.5"
       y1="15"
       x2="15"
       y2="7.263566"
       gradientUnits="userSpaceOnUse">
      <stop
         stop-color="#e5f230"
         id="stop1" />
      <stop
         offset="1"
         stop-color="#24d864"
         id="stop2" />
    </linearGradient>
  </defs>
</svg>
