<?xml version="1.0" encoding="UTF-8" standalone="no"?>
<svg
   width="16"
   height="16"
   viewBox="0 0 16 16"
   fill="none"
   version="1.1"
   id="svg2"
   sodipodi:docname="window.svg"
   inkscape:version="1.4 (e7c3feb100, 2024-10-09)"
   xmlns:inkscape="http://www.inkscape.org/namespaces/inkscape"
   xmlns:sodipodi="http://sodipodi.sourceforge.net/DTD/sodipodi-0.dtd"
   xmlns="http://www.w3.org/2000/svg"
   xmlns:svg="http://www.w3.org/2000/svg">
  <sodipodi:namedview
     id="namedview2"
     pagecolor="#505050"
     bordercolor="#ffffff"
     borderopacity="1"
     inkscape:showpageshadow="0"
     inkscape:pageopacity="0"
     inkscape:pagecheckerboard="1"
     inkscape:deskcolor="#505050"
     inkscape:zoom="16.125"
     inkscape:cx="-9.4573643"
     inkscape:cy="8.8062015"
     inkscape:current-layer="svg2" />
  <path
     d="M1.5 1C1.22386 1 1 1.22386 1 1.5V4.5V14.5C1 14.7761 1.22386 15 1.5 15H2.16667H14.5C14.7761 15 15 14.7761 15 14.5V13.8333V1.5C15 1.22386 14.7761 1 14.5 1H2.16667H1.5ZM2.16667 5C2.16667 4.72386 2.39052 4.5 2.66667 4.5H13.3333C13.6095 4.5 13.8333 4.72386 13.8333 5V13.3333C13.8333 13.6095 13.6095 13.8333 13.3333 13.8333H2.66667C2.39052 13.8333 2.16667 13.6095 2.16667 13.3333V5Z"
     fill="url(#paint0_linear)"
     id="path1"
     style="fill:url(#paint0_linear)" />
  <defs
     id="defs2">
    <linearGradient
       id="paint0_linear"
       x1="1.5"
       y1="15"
       x2="15"
       y2="7.6666498"
       gradientUnits="userSpaceOnUse">
      <stop
         stop-color="#e5f230"
         id="stop1" />
      <stop
         offset="1"
         stop-color="#24d864"
         id="stop2" />
    </linearGradient>
  </defs>
</svg>
