<?xml version="1.0" encoding="UTF-8" standalone="no"?>
<svg
   width="24"
   height="24"
   viewBox="0 0 24 24"
   fill="none"
   version="1.1"
   id="svg11"
   sodipodi:docname="go-previous-symbolic.svg"
   inkscape:version="1.2 (dc2aedaf03, 2022-05-15)"
   xmlns:inkscape="http://www.inkscape.org/namespaces/inkscape"
   xmlns:sodipodi="http://sodipodi.sourceforge.net/DTD/sodipodi-0.dtd"
   xmlns="http://www.w3.org/2000/svg"
   xmlns:svg="http://www.w3.org/2000/svg">
  <sodipodi:namedview
     id="namedview13"
     pagecolor="#ffffff"
     bordercolor="#666666"
     borderopacity="1.0"
     inkscape:pageshadow="2"
     inkscape:pageopacity="0.0"
     inkscape:pagecheckerboard="0"
     showgrid="true"
     gridtolerance="4.8"
     inkscape:zoom="32"
     inkscape:cx="9.203125"
     inkscape:cy="14.9375"
     inkscape:current-layer="svg11"
     inkscape:showpageshadow="2"
     inkscape:deskcolor="#d1d1d1">
    <inkscape:grid
       type="xygrid"
       id="grid1244"
       spacingx="0.5"
       spacingy="0.5" />
  </sodipodi:namedview>
  <style
    type="text/css"
    id="current-color-scheme">.ColorScheme-Text{color:#dddddd;}.ColorScheme-Background{color:#1a1a1a;}.ColorScheme-Highlight{color:#aaaaac30;}.ColorScheme-ViewText{color:#dddddd;}.ColorScheme-ViewBackground{color:#1a1a1a01;}.ColorScheme-ViewHover{color:#aaaaac30;}.ColorScheme-ViewFocus{color:#aaaaac30;}.ColorScheme-ButtonText{color:#bbbbbb;}.ColorScheme-ButtonBackground{color:#aaaaac20;}.ColorScheme-ButtonHover{color:#aaaaac30;}.ColorScheme-ButtonFocus{color:#aaaaac30;}.ColorScheme-NegativeText { color: #8500ff; } </style>
  <path
    class="ColorScheme-Text"
     d="m 17.001835,2.9848549 c -0.1161,-0.1164 -0.254,-0.2088 -0.4059,-0.2718 -0.1519,-0.063 -0.3147,-0.0954 -0.4791,-0.0954 -0.1644,0 -0.3272,0.0324 -0.4791,0.0954 -0.1518,0.063 -0.2898,0.1554 -0.4059,0.2718 L 6.9218453,11.294855 c -0.0927,0.0925 -0.16625,0.2024 -0.21643,0.3234 -0.05018,0.1209 -0.07601,0.2506 -0.07601,0.3816 0,0.131 0.02583,0.2606 0.07601,0.3816 0.05018,0.121 0.12373,0.2309 0.21643,0.3234 l 8.3099897,8.30999 c 0.49,0.49 1.28,0.49 1.77,0 0.49,-0.49 0.49,-1.28 0,-1.77 L 9.7618351,11.994855 17.011835,4.7448549 c 0.48,-0.48 0.48,-1.28 -0.01,-1.76 z"
     fill="url(#paint0_linear)"
     id="path2"
     style="fill:currentColor;fill-opacity:1fill-opacity:1" />
  <defs
     id="defs9">
    <linearGradient
       id="paint0_linear"
       x1="12.382256"
       y1="8.1303644"
       x2="12.378265"
       y2="18"
       gradientUnits="userSpaceOnUse"
       gradientTransform="rotate(-90,11.875946,12.50631)">
      <stop
         stop-color="#e5f230"
         id="stop4" />
      <stop
         offset="1"
         stop-color="#54d863"
         id="stop6"
         style="stop-color:#12ff64;stop-opacity:1;" />
    </linearGradient>
  </defs>
</svg>
