<?xml version="1.0" encoding="UTF-8" standalone="no"?>
<!-- Generator: Gravit.io -->

<svg
   style="isolation:isolate"
   viewBox="0 0 48 48"
   width="48pt"
   height="48pt"
   version="1.1"
   id="svg6812"
   sodipodi:docname="folder-script-test.svg"
   inkscape:version="1.4 (e7c3feb100, 2024-10-09)"
   xmlns:inkscape="http://www.inkscape.org/namespaces/inkscape"
   xmlns:sodipodi="http://sodipodi.sourceforge.net/DTD/sodipodi-0.dtd"
   xmlns:xlink="http://www.w3.org/1999/xlink"
   xmlns="http://www.w3.org/2000/svg"
   xmlns:svg="http://www.w3.org/2000/svg">
  <defs
     id="defs6816">
    <linearGradient
       id="linearGradient2909"
       x1="0"
       y1="0.5"
       x2="1"
       y2="0.5"
       gradientTransform="matrix(46.1,0,0,37.1,0.95,5.45)"
       gradientUnits="userSpaceOnUse">
      <stop
         offset="0"
         stop-opacity="1"
         style="stop-color:#b900ff;stop-opacity:1;"
         id="stop2903" />
      <stop
         offset="1"
         stop-opacity="1"
         style="stop-color:#6440ff;stop-opacity:1;"
         id="stop2907" />
    </linearGradient>
    <linearGradient
       inkscape:collect="always"
       xlink:href="#linearGradient1"
       id="linearGradient18"
       x1="42.712482"
       y1="95.736237"
       x2="100.99402"
       y2="66.075424"
       gradientUnits="userSpaceOnUse"
       gradientTransform="matrix(0.63019678,0,0,0.63019678,-16.646102,-17.640518)" />
    <linearGradient
       id="linearGradient1"
       inkscape:collect="always">
      <stop
         style="stop-color:#ff69ff;stop-opacity:1;"
         offset="0"
         id="stop17" />
      <stop
         style="stop-color:#9033dd;stop-opacity:1;"
         offset="1"
         id="stop18" />
    </linearGradient>
    <linearGradient
       inkscape:collect="always"
       xlink:href="#linearGradient21"
       id="linearGradient23"
       x1="42.712482"
       y1="95.736237"
       x2="100.99402"
       y2="66.075424"
       gradientUnits="userSpaceOnUse" />
    <linearGradient
       id="linearGradient21"
       inkscape:collect="always">
      <stop
         style="stop-color:#ff69ff;stop-opacity:1;"
         offset="0"
         id="stop22" />
      <stop
         style="stop-color:#9033dd;stop-opacity:1;"
         offset="1"
         id="stop21" />
    </linearGradient>
  </defs>
  <sodipodi:namedview
     id="namedview6814"
     pagecolor="#ffffff"
     bordercolor="#666666"
     borderopacity="1.0"
     inkscape:showpageshadow="2"
     inkscape:pageopacity="0.0"
     inkscape:pagecheckerboard="0"
     inkscape:deskcolor="#d1d1d1"
     inkscape:document-units="pt"
     showgrid="true"
     inkscape:zoom="10.429825"
     inkscape:cx="28.236332"
     inkscape:cy="18.792262"
     inkscape:current-layer="svg6812" />
  <path
     id="path4"
     style="isolation:isolate;fill:url(#linearGradient18);fill-opacity:1;stroke-width:1.00001"
     d="m 27.077407,33.266148 c -0.121061,0.0056 -0.245637,0.0071 -0.38403,0.0086 -0.480612,0.005 -1.152767,0.0038 -1.777368,0.332334 l -0.0013,-0.0025 c -0.0051,0.0025 -0.0097,0.0061 -0.01477,0.0086 -0.0028,0.0015 -0.0057,0.0021 -0.0086,0.0037 l 0.0013,0.0013 c -1.128865,0.565381 -1.815948,1.898912 -1.832757,3.210094 h -0.0013 c -1.74e-4,0.0042 0.0015,0.0081 0.0013,0.01231 -3.2e-5,0.0033 -0.0012,0.0066 -0.0013,0.0099 h 0.0013 c -0.03491,0.97774 0.32809,1.927855 0.905915,2.616819 0.563053,0.67138 1.39678,1.160272 2.33372,1.080698 v 0.0013 c 4.047851,0.01356 8.09753,0.01041 12.14494,0.0074 1.732169,-0.0013 3.464126,-0.0025 5.195478,-0.0025 0.965208,0.115057 1.840386,-0.348411 2.43465,-1.033926 0.608761,-0.702342 0.977401,-1.688033 0.919461,-2.721441 h 0.0025 c -7e-5,-0.0059 -0.0013,-0.01138 -0.0013,-0.01722 -3.28e-4,-0.0054 3.53e-4,-0.01059 0,-0.016 h -0.0025 c -0.02054,-0.973953 -0.409936,-1.868287 -1.006848,-2.506065 -0.587813,-0.627884 -1.413556,-1.036089 -2.309102,-0.973615 v -0.005 c -2.86307,-0.015 -5.727603,-0.01177 -8.588971,-0.0086 -2.661721,0.0028 -5.321314,0.0055 -7.979695,-0.0062 h -0.016 z"
     sodipodi:nodetypes="cscccccccccccccccccccccccccccc" />
  <g
     id="path6"
     style="isolation:isolate;stroke-width:1.58681"
     transform="matrix(0.63019678,0,0,0.63019678,-16.646102,-17.640518)">
    <path
       style="fill-opacity:0;stroke-width:1.58681;stroke-linecap:round;stroke-linejoin:round"
       d="M 34.000056,45.779056 52.000218,63.779216 34.000056,81.779379"
       id="path2" />
    <path
       style="fill:url(#linearGradient23);stroke-width:1.58681;stroke-linecap:round;stroke-linejoin:round"
       d="m 34,39.779297 a 6.0000501,6.0000501 0 0 0 -4.242188,1.757812 6.0000501,6.0000501 0 0 0 0,8.484375 L 43.515625,63.779297 29.757812,77.537109 a 6.0000501,6.0000501 0 0 0 0,8.484375 6.0000501,6.0000501 0 0 0 8.484375,0 l 18,-18 a 6.0006501,6.0006501 0 0 0 0,-8.484375 l -18,-18 A 6.0000501,6.0000501 0 0 0 34,39.779297 Z"
       id="path3" />
  </g>
</svg>
