<?xml version="1.0" encoding="UTF-8" standalone="no"?>
<!-- Generator: Gravit.io -->

<svg
   style="isolation:isolate"
   viewBox="0 0 16 16"
   width="16pt"
   height="16pt"
   version="1.1"
   id="svg9"
   sodipodi:docname="folder-github.svg"
   inkscape:version="1.3.2 (091e20ef0f, 2023-11-25, custom)"
   xmlns:inkscape="http://www.inkscape.org/namespaces/inkscape"
   xmlns:sodipodi="http://sodipodi.sourceforge.net/DTD/sodipodi-0.dtd"
   xmlns:xlink="http://www.w3.org/1999/xlink"
   xmlns="http://www.w3.org/2000/svg"
   xmlns:svg="http://www.w3.org/2000/svg">
  <defs
     id="defs13">
    <linearGradient
       id="linearGradient7298"
       x1="0"
       y1="0.49999997"
       x2="1"
       y2="0.49999997"
       gradientTransform="matrix(46.1,0,0,37.1,0.95,9.95)"
       gradientUnits="userSpaceOnUse">
      <stop
         offset="0"
         stop-opacity="1"
         style="stop-color:#e5f230;stop-opacity:1;"
         id="stop7294" />
      <stop
         offset="1"
         stop-opacity="1"
         style="stop-color:#24d864;stop-opacity:1;"
         id="stop7296" />
    </linearGradient>
    <linearGradient
       id="linearGradient1135"
       x1="0"
       y1="0.49999997"
       x2="1"
       y2="0.49999997"
       gradientTransform="matrix(46.1,0,0,37.1,0.95,9.95)"
       gradientUnits="userSpaceOnUse">
      <stop
         offset="0"
         stop-opacity="1"
         style="stop-color:#e5f230;stop-opacity:1;"
         id="stop1131" />
      <stop
         offset="1"
         stop-opacity="1"
         style="stop-color:#24d864;stop-opacity:1;"
         id="stop1133" />
    </linearGradient>
    <linearGradient
       id="linearGradient9689"
       x1="44.379128"
       y1="182.05327"
       x2="183.05659"
       y2="95.526634"
       gradientUnits="userSpaceOnUse"
       gradientTransform="matrix(0.08617877,0,0,0.08617877,-0.27559272,-0.23236762)"
       xlink:href="#linearGradient1135">
      <stop
         id="stop244"
         offset="0"
         style="stop-color:#e5f230;stop-opacity:1;" />
      <stop
         offset="1"
         id="stop246"
         style="stop-color:#24d864;stop-opacity:1;" />
    </linearGradient>
  </defs>
  <sodipodi:namedview
     id="namedview11"
     pagecolor="#ffffff"
     bordercolor="#666666"
     borderopacity="1.0"
     inkscape:showpageshadow="2"
     inkscape:pageopacity="0.0"
     inkscape:pagecheckerboard="0"
     inkscape:deskcolor="#d1d1d1"
     inkscape:document-units="pt"
     showgrid="false"
     inkscape:zoom="20.85965"
     inkscape:cx="8.7249786"
     inkscape:cy="8.0777961"
     inkscape:current-layer="svg9" />
  <path
     d="M 4.5831493,1.3711528 C 5.8670745,0.70336982 7.3460831,0.43239157 8.781881,0.58433573 c 1.513558,0.15291122 2.972392,0.79262557 4.119862,1.79719367 1.282944,1.1119993 2.173773,2.6720848 2.473675,4.3502356 0.307486,1.6703772 0.04223,3.443418 -0.756391,4.941551 -0.960979,1.827248 -2.695586,3.231445 -4.6877795,3.746363 -0.3219638,0.107379 -0.7515648,-0.01741 -0.8265402,-0.388063 -0.05378,-0.859461 0.00965,-1.725643 -0.030679,-2.586914 C 9.0557542,12.165914 8.8981365,11.931766 8.7289679,11.721748 8.4935274,11.460454 8.6117647,10.984229 8.9432946,10.867113 9.2768062,10.747152 9.6188502,10.63874 9.9158213,10.440355 10.698152,9.9758521 11.27667,9.0312463 11.026752,8.1011965 10.975822,7.7053695 10.611628,7.4295453 10.593359,7.032753 10.682726,6.5633711 10.776919,6.09399 10.796137,5.613966 10.371363,5.7688122 9.9110813,5.8830163 9.5602486,6.185934 9.3527293,6.3862648 9.057653,6.2788434 8.8154907,6.2236724 8.1975458,6.0707656 7.5536615,6.1230248 6.9405342,6.2730401 6.6637624,6.3543315 6.4648276,6.1046374 6.2409088,5.9943113 5.9083969,5.8297874 5.5557011,5.7117142 5.2010854,5.6071966 c 0.020188,0.480024 0.059585,0.9590836 0.1451165,1.4313693 0.054777,0.2274253 -0.1066732,0.417113 -0.201814,0.6068017 -0.3036854,0.5458388 -0.3056072,1.2417063 -0.014426,1.7933369 0.358462,0.6958075 1.0532776,1.1584145 1.7855731,1.3771365 0.2335275,0.05326 0.4497583,0.23613 0.4708978,0.48872 0.056709,0.422965 -0.4324536,0.642635 -0.4507149,1.055862 -0.059585,0.865235 0.024027,1.737192 -0.00865,2.604409 C 6.9107269,15.242585 6.6406784,15.465186 6.367751,15.4439 6.0996219,15.4507 5.8507211,15.2213 5.8353469,14.951216 5.8122819,14.545745 5.8247759,14.139239 5.8170819,13.73282 5.2202941,13.622511 4.5917839,13.541158 4.0699539,13.206355 3.8633311,13.082429 3.7749209,12.84923 3.6605615,12.649812 c -0.295033,-0.524484 -0.6948157,-0.9939 -1.1887844,-1.338443 0.5698821,0.01741 1.3031438,0.05713 1.6087421,0.630053 0.3007983,0.634879 1.0859565,0.768456 1.7154232,0.723902 C 5.7969158,12.319832 5.8709013,11.983046 5.97181,11.654016 5.0396232,11.232947 4.2390909,10.444238 3.9373361,9.4464613 3.6845829,8.6460322 3.7922196,7.7489199 4.2064208,7.0211403 4.1122356,6.2740045 4.0411204,5.5142873 4.1353118,4.7642468 4.183356,4.4439043 4.5437389,4.2271212 4.8474243,4.336482 5.5758762,4.5261707 6.3091369,4.7419876 6.972239,5.1087817 7.6651338,4.9742569 8.3810554,4.9742569 9.0720372,5.1203846 9.7236342,4.7526253 10.4434,4.5309998 11.161354,4.3355026 c 0.320929,-0.1151606 0.703391,0.1335603 0.721661,0.4780943 0.07687,0.7103636 0.0039,1.430404 -0.134525,2.1291497 0.441149,0.7461705 0.578518,1.674324 0.311364,2.5065523 -0.301711,1.0045861 -1.112825,1.7826941 -2.04123,2.2172941 0.301798,0.797412 0.134611,1.66549 0.177873,2.496857 1.324222,-0.490702 2.476519,-1.434273 3.21938,-2.642068 C 14.207773,10.252572 14.53353,8.7002335 14.32015,7.2175958 14.115475,5.7059003 13.349519,4.2813128 12.209805,3.2767358 11.253565,2.4241092 10.037929,1.8715053 8.7703256,1.7185897 7.2422811,1.5230934 5.6518002,1.9198945 4.3871006,2.8034857 3.1396978,3.6648255 2.2123102,4.9829631 1.8279017,6.4569141 1.5223033,7.5940684 1.5472854,8.8125237 1.8730606,9.9419838 1.9970376,10.251623 1.800028,10.642616 1.4675117,10.695875 1.1897834,10.76266 0.88706336,10.580654 0.81882733,10.301003 0.29603293,8.5647602 0.41904291,6.6369242 1.1667143,4.9848946 1.8576864,3.4383647 3.0839498,2.1424862 4.5831334,1.3711519 Z"
     fill="url(#linearGradient9689)"
     id="path242-3"
     style="fill:url(#linearGradient9689);fill-opacity:1;stroke-width:0.0861787" />
</svg>
