<?xml version="1.0" encoding="UTF-8" standalone="no"?>
<svg
   viewBox="0 0 24 24"
   version="1.1"
   id="svg6"
   sodipodi:docname="folder-text-6.svg"
   inkscape:version="1.4 (e7c3feb100, 2024-10-09)"
   width="24"
   height="24"
   xmlns:inkscape="http://www.inkscape.org/namespaces/inkscape"
   xmlns:sodipodi="http://sodipodi.sourceforge.net/DTD/sodipodi-0.dtd"
   xmlns:xlink="http://www.w3.org/1999/xlink"
   xmlns="http://www.w3.org/2000/svg"
   xmlns:svg="http://www.w3.org/2000/svg"
   xmlns:rdf="http://www.w3.org/1999/02/22-rdf-syntax-ns#"
   xmlns:cc="http://creativecommons.org/ns#"
   xmlns:dc="http://purl.org/dc/elements/1.1/">
  <metadata
     id="metadata10">
    <rdf:RDF>
      <cc:Work
         rdf:about="">
        <dc:format>image/svg+xml</dc:format>
        <dc:type
           rdf:resource="http://purl.org/dc/dcmitype/StillImage" />
      </cc:Work>
    </rdf:RDF>
  </metadata>
  <sodipodi:namedview
     pagecolor="#505050"
     bordercolor="#666666"
     borderopacity="1"
     objecttolerance="10"
     gridtolerance="10"
     guidetolerance="10"
     inkscape:pageopacity="0"
     inkscape:pageshadow="2"
     inkscape:window-width="1366"
     inkscape:window-height="723"
     id="namedview8"
     showgrid="false"
     inkscape:zoom="22.627417"
     inkscape:cx="8.8609318"
     inkscape:cy="10.827573"
     inkscape:window-x="0"
     inkscape:window-y="22"
     inkscape:window-maximized="1"
     inkscape:current-layer="svg6"
     inkscape:showpageshadow="0"
     inkscape:pagecheckerboard="1"
     inkscape:deskcolor="#505050" />
  <defs
     id="defs3051">
    <linearGradient
       inkscape:collect="always"
       id="linearGradient821">
      <stop
         style="stop-color:#00ddff;stop-opacity:1"
         offset="0"
         id="stop817" />
      <stop
         style="stop-color:#9900ff;stop-opacity:1"
         offset="1"
         id="stop819" />
    </linearGradient>
    <style
       type="text/css"
       id="current-color-scheme">
      .ColorScheme-Text {
        color:#4d4d4d;
      }
      </style>
    <linearGradient
       inkscape:collect="always"
       xlink:href="#linearGradient821"
       id="linearGradient823"
       x1="2"
       y1="8"
       x2="14"
       y2="8"
       gradientUnits="userSpaceOnUse" />
    <linearGradient
       id="paint0_linear"
       x1="20.9526"
       y1="3.11027"
       x2="3.0852001"
       y2="20.829"
       gradientUnits="userSpaceOnUse">
      <stop
         stop-color="#FE7970"
         id="stop2"
         offset="0"
         style="stop-color:#24d864;stop-opacity:1;" />
      <stop
         offset="1"
         stop-color="#DC3282"
         id="stop3"
         style="stop-color:#e5f230;stop-opacity:1;" />
    </linearGradient>
    <linearGradient
       inkscape:collect="always"
       xlink:href="#paint0_linear"
       id="linearGradient5"
       gradientUnits="userSpaceOnUse"
       x1="21.438736"
       y1="2.4031632"
       x2="2.2040987"
       y2="22.0082" />
  </defs>
  <path
     id="path5"
     style="fill:url(#linearGradient5)"
     d="M 2.203125 2 C 2.0711789 1.9994349 1.9404767 2.0258919 1.8183594 2.0761719 C 1.6963128 2.1265219 1.5855256 2.1996308 1.4921875 2.2929688 C 1.3988495 2.3863087 1.3257366 2.4970936 1.2753906 2.6191406 C 1.2251856 2.7411866 1.1987238 2.8718892 1.1992188 3.0039062 C 1.1987238 3.1359232 1.2251856 3.2666259 1.2753906 3.3886719 C 1.3257366 3.5107187 1.3988494 3.6215058 1.4921875 3.7148438 C 1.5855255 3.8081837 1.6963128 3.8832478 1.8183594 3.9335938 C 1.9404767 3.9838637 2.0711789 4.0083725 2.203125 4.0078125 L 12.230469 4.0078125 C 12.36233 4.0078124 12.493406 3.9821106 12.615234 3.9316406 C 12.737054 3.8811806 12.848174 3.8080758 12.941406 3.7148438 C 13.034646 3.6216037 13.107744 3.5104917 13.158203 3.3886719 C 13.208673 3.2668439 13.234385 3.1357603 13.234375 3.0039062 C 13.234382 2.7376032 13.129715 2.4832319 12.941406 2.2949219 C 12.753103 2.1066199 12.496779 2 12.230469 2 L 11.169922 2 L 3.6660156 2 L 2.203125 2 z M 2.203125 5.5 C 2.0711789 5.499435 1.9404767 5.5258919 1.8183594 5.5761719 C 1.6963128 5.6265219 1.5855256 5.6996308 1.4921875 5.7929688 C 1.3988495 5.8863088 1.3257366 5.9970936 1.2753906 6.1191406 C 1.2251856 6.2411866 1.1987238 6.3718892 1.1992188 6.5039062 C 1.1987238 6.6359233 1.2251856 6.7666259 1.2753906 6.8886719 C 1.3257366 7.0107189 1.3988494 7.1215057 1.4921875 7.2148438 C 1.5855255 7.3081838 1.6963128 7.3832477 1.8183594 7.4335938 C 1.9404767 7.4838638 2.0711789 7.5083725 2.203125 7.5078125 L 18.03125 7.5078125 C 18.163111 7.5078125 18.294188 7.4821106 18.416016 7.4316406 C 18.537836 7.3811806 18.647002 7.3080757 18.740234 7.2148438 C 18.833474 7.1216038 18.908525 7.0104919 18.958984 6.8886719 C 19.009454 6.7668439 19.035166 6.6357603 19.035156 6.5039062 C 19.035163 6.2376033 18.928543 5.9832319 18.740234 5.7949219 C 18.551931 5.6066199 18.29756 5.5 18.03125 5.5 L 16.96875 5.5 L 3.6660156 5.5 L 2.203125 5.5 z M 2.203125 9 C 2.0711789 8.999435 1.9404767 9.0258919 1.8183594 9.0761719 C 1.6963128 9.1265219 1.5855256 9.1996307 1.4921875 9.2929688 C 1.3988495 9.3863087 1.3257366 9.4970936 1.2753906 9.6191406 C 1.2251856 9.7411866 1.1987238 9.8718895 1.1992188 10.003906 C 1.1987238 10.135923 1.2251856 10.266626 1.2753906 10.388672 C 1.3257366 10.510719 1.3988494 10.621506 1.4921875 10.714844 C 1.5855255 10.808184 1.6963128 10.883248 1.8183594 10.933594 C 1.9404767 10.983864 2.0711789 11.008373 2.203125 11.007812 L 16.431641 11.007812 C 16.563502 11.007812 16.692625 10.982111 16.814453 10.931641 C 16.936273 10.881181 17.047393 10.808076 17.140625 10.714844 C 17.233865 10.621604 17.308916 10.510492 17.359375 10.388672 C 17.409845 10.266844 17.435557 10.13576 17.435547 10.003906 C 17.435554 9.7376034 17.328934 9.4832319 17.140625 9.2949219 C 16.952322 9.1066199 16.697951 9 16.431641 9 L 15.369141 9 L 3.6660156 9 L 2.203125 9 z M 2.203125 13 C 2.0711789 12.999435 1.9404767 13.025892 1.8183594 13.076172 C 1.6963128 13.126522 1.5855256 13.199631 1.4921875 13.292969 C 1.3988495 13.386309 1.3257366 13.497094 1.2753906 13.619141 C 1.2251856 13.741187 1.1987238 13.871889 1.1992188 14.003906 C 1.1987238 14.135923 1.2251856 14.266626 1.2753906 14.388672 C 1.3257366 14.510719 1.3988494 14.621506 1.4921875 14.714844 C 1.5855255 14.808184 1.6963128 14.883248 1.8183594 14.933594 C 1.9404767 14.983864 2.0711789 15.008373 2.203125 15.007812 L 12.230469 15.007812 C 12.36233 15.007812 12.493406 14.982111 12.615234 14.931641 C 12.737054 14.881181 12.848174 14.808076 12.941406 14.714844 C 13.034646 14.621604 13.107744 14.510492 13.158203 14.388672 C 13.208673 14.266844 13.234385 14.13576 13.234375 14.003906 C 13.234382 13.737603 13.129715 13.483232 12.941406 13.294922 C 12.753103 13.10662 12.496779 13 12.230469 13 L 11.169922 13 L 3.6660156 13 L 2.203125 13 z M 2.203125 16.5 C 2.0711789 16.499435 1.9404767 16.525892 1.8183594 16.576172 C 1.6963128 16.626522 1.5855256 16.699631 1.4921875 16.792969 C 1.3988495 16.886309 1.3257366 16.997094 1.2753906 17.119141 C 1.2251856 17.241187 1.1987238 17.371889 1.1992188 17.503906 C 1.1987238 17.635923 1.2251856 17.766626 1.2753906 17.888672 C 1.3257366 18.010719 1.3988494 18.121506 1.4921875 18.214844 C 1.5855255 18.308184 1.6963128 18.383248 1.8183594 18.433594 C 1.9404767 18.483864 2.0711789 18.508373 2.203125 18.507812 L 18.03125 18.507812 C 18.163111 18.507812 18.294188 18.482111 18.416016 18.431641 C 18.537836 18.381181 18.647002 18.308076 18.740234 18.214844 C 18.833474 18.121604 18.908525 18.010492 18.958984 17.888672 C 19.009454 17.766844 19.035166 17.63576 19.035156 17.503906 C 19.035163 17.237603 18.928543 16.983232 18.740234 16.794922 C 18.551931 16.60662 18.29756 16.5 18.03125 16.5 L 16.96875 16.5 L 3.6660156 16.5 L 2.203125 16.5 z M 2.203125 20 C 2.0711789 19.999435 1.9404767 20.025892 1.8183594 20.076172 C 1.6963128 20.126522 1.5855256 20.199631 1.4921875 20.292969 C 1.3988495 20.386309 1.3257366 20.497094 1.2753906 20.619141 C 1.2251856 20.741187 1.1987238 20.871889 1.1992188 21.003906 C 1.1987238 21.135923 1.2251856 21.266626 1.2753906 21.388672 C 1.3257366 21.510719 1.3988494 21.621506 1.4921875 21.714844 C 1.5855255 21.808184 1.6963128 21.883248 1.8183594 21.933594 C 1.9404767 21.983864 2.0711789 22.008373 2.203125 22.007812 L 14.431641 22.007812 C 14.563502 22.007812 14.692625 21.982111 14.814453 21.931641 C 14.936273 21.881181 15.047393 21.808076 15.140625 21.714844 C 15.233865 21.621604 15.308916 21.510492 15.359375 21.388672 C 15.409845 21.266844 15.435557 21.13576 15.435547 21.003906 C 15.435554 20.737603 15.328934 20.483232 15.140625 20.294922 C 14.952322 20.10662 14.697951 20 14.431641 20 L 13.369141 20 L 3.6660156 20 L 2.203125 20 z " />
  <path
     style="display:none;fill:url(#linearGradient823);fill-opacity:1;stroke:none"
     d="M 2,2 V 3 H 8 V 2 Z M 2,4 V 5 H 14 V 4 Z M 2,6 V 7 H 12 V 6 Z m 0,3 v 1 H 8 V 9 Z m 0,2 v 1 h 12 v -1 z m 0,2 v 1 h 9 v -1 z"
     class="ColorScheme-Text"
     id="path4" />
</svg>
