<?xml version="1.0" encoding="UTF-8" standalone="no"?>
<svg
   width="128"
   height="128"
   viewBox="0 0 128 128"
   fill="none"
   version="1.1"
   id="svg33"
   sodipodi:docname="folder-locked-test-5.svg"
   inkscape:version="1.4 (e7c3feb100, 2024-10-09)"
   xmlns:inkscape="http://www.inkscape.org/namespaces/inkscape"
   xmlns:sodipodi="http://sodipodi.sourceforge.net/DTD/sodipodi-0.dtd"
   xmlns:xlink="http://www.w3.org/1999/xlink"
   xmlns="http://www.w3.org/2000/svg"
   xmlns:svg="http://www.w3.org/2000/svg">
  <sodipodi:namedview
     id="namedview35"
     pagecolor="#505050"
     bordercolor="#666666"
     borderopacity="1.0"
     inkscape:pageshadow="2"
     inkscape:pageopacity="0.0"
     inkscape:pagecheckerboard="true"
     showgrid="true"
     inkscape:zoom="4"
     inkscape:cx="28.5"
     inkscape:cy="81.749999"
     inkscape:current-layer="svg33"
     inkscape:showpageshadow="2"
     inkscape:deskcolor="#505050">
    <inkscape:grid
       type="xygrid"
       id="grid882"
       originx="0"
       originy="0"
       spacingy="1"
       spacingx="1"
       units="px"
       visible="true"
       enabled="false" />
  </sodipodi:namedview>
  <g
     clip-path="url(#clip0)"
     id="g6"
     transform="translate(0.01322271)">
    <g
       id="path2">
      <path
         id="path10241"
         style="color:#000000;display:none;fill:url(#linearGradient2);stroke-width:2.90557;-inkscape-stroke:none"
         d="m 65.420156,2.0048997 c -2.681067,-0.07808 -5.388758,0.780968 -7.498501,2.5953429 l -0.0076,0.00568 -0.0057,0.00568 C 40.445255,19.970129 23.006514,35.358042 5.5607783,50.730005 c -1.6791982,1.438603 -2.6556278,3.865533 -1.7800428,6.18002 1.0871108,3.713023 5.8248789,5.375743 8.8964305,2.916923 l 0.02081,-0.01513 0.01892,-0.01702 c 17.530254,-15.060196 34.85312,-30.362574 52.349526,-45.43742 16.608592,14.909484 33.016986,30.074305 49.568798,45.089354 1.43805,1.332797 3.69703,2.192149 5.83574,1.254165 4.00716,-1.190778 5.5368,-6.631423 2.39862,-9.583096 l -0.006,-0.0057 -0.006,-0.0038 C 106.16898,35.713999 89.443341,20.366415 72.72571,5.0050557 l 0.02649,0.026483 C 70.754246,3.0983273 68.101226,2.082979 65.420159,2.0048993 Z M 63.360149,59.172437 c -12.531276,-0.01399 -25.064665,1.16e-4 -37.596548,0.13809 l -0.100257,0.0019 -0.09837,0.01324 c -5.11397,0.761656 -8.833084,5.651463 -8.5408,10.799427 l -0.0019,-0.08134 c 0,15.235732 -0.03146,30.474626 0.01513,45.717386 0,5.56296 4.761717,10.34448 10.28301,10.20356 5.851682,-0.14773 11.904292,0.29269 17.95176,-0.22511 0.06775,0.002 0.131162,-0.0218 0.196737,-0.0327 5.638792,-1.27672 5.531041,-10.21289 -0.07756,-11.48041 l -0.0908,-0.0208 -0.09269,-0.01 c -4.506134,-0.4254 -8.907375,-0.0323 -13.124268,-0.20997 -1.677469,-0.17507 -3.257923,-1.91636 -3.270664,-3.67738 v -0.004 c -0.03115,-11.591085 -0.0076,-23.185694 -0.0076,-34.791208 v -0.05864 l -0.0038,-0.06054 c -0.175472,-2.142546 1.780001,-4.313455 3.843834,-4.286477 h 0.0095 0.01135 c 20.926638,-0.0156 41.853168,-0.0156 62.787652,0 h 0.01135 0.01135 c 1.817344,-0.02642 3.642359,1.785293 3.658449,3.684933 0.0464,11.801981 0.03061,23.614807 0.0078,35.421142 v 0.004 0.004 c 0.0058,1.81226 -1.589619,3.6189 -3.312277,3.76438 -2.911569,0.0827 -5.872211,0.007 -8.877514,0.0302 -0.934863,-0.004 -2.098035,-0.0869 -3.331196,0.0965 -1.223013,0.18188 -2.585043,0.71241 -3.561977,1.90298 -3.22778,3.37284 -1.071069,9.43383 3.580894,9.92549 0.04685,0.0106 0.09458,0.005 0.14187,0.008 5.729164,0.0398 11.452566,-0.008 17.153486,0.0246 h 0.0322 l 0.0302,-0.002 c 3.71662,-0.13959 7.20277,-2.36002 8.82644,-5.79791 1.47902,-2.86042 1.08132,-5.91106 1.11797,-8.34973 v -0.0133 -0.0113 c -0.0388,-14.155189 0.0847,-28.334036 -0.0548,-42.518609 v -0.0019 c -0.0457,-5.386454 -4.55485,-10.088324 -9.94631,-10.078719 -12.520911,0.02769 -25.050143,-0.01439 -37.581419,-0.02837 z"
         sodipodi:nodetypes="sccccccccccccccccsscccccccccccccccssccccsscccscsccscccccccccsssccc" />
      <path
         id="path1"
         style="color:#000000;display:inline;fill:url(#linearGradient4);stroke-width:2.90557;-inkscape-stroke:none"
         d="M 63.824668 6.0234375 C 57.569507 6.0234375 51.813163 7.5642991 46.55709 10.648438 C 41.301019 13.732577 37.163965 17.925103 34.14498 23.224609 C 31.125997 28.524121 29.615684 34.301479 29.615684 40.556641 L 29.615684 56.232422 C 29.409526 57.712911 28.103681 59.078693 26.689902 59.304688 C 26.381324 59.307936 26.072697 59.307149 25.764121 59.310547 L 25.662559 59.3125 L 25.564902 59.326172 C 20.450932 60.087828 16.731603 64.977036 17.023887 70.125 L 17.021934 70.042969 C 17.021934 85.278701 16.990969 100.51896 17.037559 115.76172 C 17.037559 121.32468 21.799469 126.10576 27.320762 125.96484 C 33.172444 125.81711 39.224466 126.25803 45.271934 125.74023 C 45.339684 125.74223 45.403624 125.71793 45.469199 125.70703 C 51.107991 124.43031 50.999675 115.49408 45.391074 114.22656 L 45.30123 114.20508 L 45.20748 114.19531 C 40.701346 113.76991 36.301327 114.164 32.084434 113.98633 C 30.406965 113.81126 28.82569 112.06961 28.812949 110.30859 L 28.812949 110.10352 C 28.812949 98.512389 28.805137 87.119186 28.805137 75.513672 L 28.805137 75.455078 L 28.80123 75.394531 C 28.625758 73.251985 30.581147 71.080444 32.64498 71.107422 L 32.654746 71.107422 L 32.865684 71.107422 L 84.793418 71.107422 L 95.477012 71.107422 C 97.294356 71.081002 99.119125 72.893329 99.135215 74.792969 C 99.181615 86.59495 99.143027 98.208104 99.143027 104.11328 L 99.143027 110.2207 C 99.143027 112.03297 97.553185 113.84085 95.830527 113.98633 C 92.918958 114.06903 89.958877 113.99242 86.953574 114.01562 C 86.018711 114.01162 84.854704 113.92988 83.621543 114.11328 C 82.39853 114.29516 81.035977 114.82506 80.059043 116.01562 C 76.831263 119.38846 78.989111 125.44975 83.641074 125.94141 C 83.687924 125.95201 83.734409 125.94622 83.781699 125.94922 C 89.510863 125.98902 95.235076 125.94201 100.936 125.97461 L 100.9692 125.97461 L 100.9985 125.97266 C 104.71512 125.83307 108.201 123.61172 109.82467 120.17383 C 111.30369 117.31341 110.90716 114.26289 110.94381 111.82422 L 110.94381 111.81055 L 110.94381 111.79883 C 110.90501 97.643639 111.02667 83.465823 110.88717 69.28125 L 110.88717 69.279297 C 110.84147 63.892843 106.33332 59.191567 100.94186 59.201172 C 100.91322 59.201235 100.88455 59.201109 100.85592 59.201172 C 99.545978 58.763205 98.430419 57.391195 98.357871 55.976562 L 98.357871 39.253906 C 98.184109 33.172501 96.522794 27.578648 93.373496 22.474609 C 90.224202 17.370575 86.043159 13.353983 80.830527 10.421875 C 75.617893 7.4897681 69.949513 6.0234375 63.824668 6.0234375 z M 63.824668 17.685547 C 69.862634 17.685547 75.106584 19.792313 79.559043 24.005859 C 84.011499 28.219407 86.389738 33.302815 86.693809 39.253906 L 86.693809 46.007812 L 86.65084 46.007812 C 86.650841 46.007813 86.646934 50.16994 86.646934 55.658203 L 86.646934 55.851562 C 86.636482 57.296288 85.509653 58.723022 84.17623 59.1875 C 77.237571 59.179186 70.300804 59.179618 63.359824 59.171875 C 56.847465 59.164605 50.335708 59.168105 43.822715 59.189453 C 42.488238 58.72586 41.360516 57.297158 41.350059 55.851562 L 41.350059 55.658203 C 41.350059 50.16994 41.346152 46.007813 41.346152 46.007812 L 41.344199 46.007812 L 41.344199 40.556641 C 41.344199 34.344919 43.571428 28.980505 48.023887 24.462891 C 52.476343 19.945277 57.743261 17.685547 63.824668 17.685547 z " />
      <path
         id="path3"
         style="color:#000000;display:none;fill:url(#linearGradient3);stroke-width:2.90557;-inkscape-stroke:none"
         d="m 126.06205,67.96238 c 0.014,-12.531276 -1.2e-4,-19.764488 -0.13809,-32.296371 l -0.002,-0.100257 -0.0132,-0.09837 c -0.76166,-5.11397 -5.65146,-8.833084 -10.79943,-8.5408 l -0.51833,-0.0019 c -7.61786,0 -27.106,-0.0099 -27.106,-0.0099 v 11.796765 c 0,0 16.43351,-0.0038 22.23626,-0.0038 h 0.0586 l 0.0605,-0.0038 c 2.14255,-0.175472 4.31346,1.780001 4.28648,3.843834 v 0.0095 0.211137 46.626578 10.683814 c 0.0264,1.81734 -1.78529,3.64236 -3.68493,3.65845 -11.801982,0.0464 -80.71548,0.008 -86.620657,0.008 h -6.10872 c -1.81227,0 -3.618899,-1.58962 -3.76438,-3.31228 -0.0827,-2.911571 -0.007,-17.37208 -0.0302,-20.377383 0.004,-0.934863 0.0869,-2.098035 -0.0965,-3.331196 -0.18188,-1.223013 -0.71241,-2.585043 -1.90298,-3.561977 -3.3728395,-3.22778 -9.4338265,-1.071069 -9.9254865,3.580894 -0.0106,0.04685 -0.005,0.09458 -0.008,0.14187 -0.0398,5.729164 0.008,22.952433 -0.0246,28.653352 v 0.0322 l 0.002,0.0302 c 0.13959,3.71663 2.360017,7.20278 5.797907,8.82645 2.8604195,1.47902 5.9110595,1.08132 8.3497295,1.11797 h 0.0133 0.0113 c 14.155243,0 85.633587,-0.0548 99.818847,-0.0548 h 0.002 c 5.38664,0 10.08832,-4.55485 10.07871,-9.94632 -0.0277,-12.52091 0.0144,-25.050142 0.0284,-37.581418 z"
         sodipodi:nodetypes="ccccccccsccccsccccsccscccccccccsssccc" />
      <path
         id="path4"
         style="color:#000000;display:none;fill:url(#linearGradient5);stroke-width:2.90557;-inkscape-stroke:none"
         d="m 109.47754,88.764262 c 0.014,-12.531276 -1.1e-4,-25.064665 -0.13809,-37.596548 l -0.002,-0.100257 -0.0132,-0.09837 C 108.5626,45.855118 103.67279,42.136004 98.524824,42.428288 L 97.906,42.426388 c -7.617866,0 -14.536358,-0.0079 -22.155893,-0.0099 -7.619535,-0.002 -15.239949,0.0017 -22.861329,0.02504 -5.562956,0 -10.344476,4.761717 -10.203556,10.283009 0.14773,5.851682 -0.29269,11.904292 0.22511,17.95176 -0.002,0.06775 0.0218,0.131162 0.0327,0.196737 1.27672,5.638792 10.212886,5.531041 11.480406,-0.07756 l 0.0208,-0.0908 0.01,-0.09269 c 0.4254,-4.506134 0.0323,-8.907375 0.20997,-13.124268 0.17507,-1.677469 1.91636,-3.257923 3.67738,-3.270664 h 0.20433 c 5.795563,0 11.541905,-0.0019 17.290044,-0.0038 5.748139,-0.0019 11.498077,-0.0038 17.300834,-0.0038 h 0.05864 l 0.06054,-0.0038 c 2.142546,-0.175472 4.313455,1.780001 4.286477,3.843834 v 0.0095 0.211137 51.926757 10.68381 c 0.02642,1.81734 -1.785293,3.64236 -3.684933,3.65845 -11.801981,0.0464 -23.415245,0.008 -29.320422,0.008 h -6.10872 c -1.81227,0 -3.6189,-1.58962 -3.76438,-3.31228 -0.0827,-2.91157 -0.007,-5.87221 -0.0302,-8.87751 0.004,-0.93487 0.0869,-2.09804 -0.0965,-3.3312 -0.18188,-1.22301 -0.71241,-2.58504 -1.90298,-3.56198 -3.372836,-3.22778 -9.433826,-1.07107 -9.925486,3.5809 -0.0106,0.0469 -0.005,0.0946 -0.008,0.14187 -0.0398,5.72916 0.008,11.45256 -0.0246,17.15348 v 0.0322 l 0.002,0.0302 c 0.13959,3.71662 2.36002,7.20277 5.79791,8.82644 2.86042,1.47902 5.911056,1.08132 8.349726,1.11797 h 0.0133 0.0113 c 14.155189,-0.0388 28.334036,0.0847 42.518609,-0.0548 h 0.0019 c 5.386453,-0.0457 10.088323,-4.55485 10.078723,-9.94631 -0.0277,-12.52091 0.0144,-25.05014 0.0284,-37.581416 z"
         sodipodi:nodetypes="ccccccscccccccccsssccccsccccsccscccccccccsssccc" />
      <path
         id="path7"
         style="color:#000000;display:none;fill:url(#linearGradient7);stroke-width:2.90557;-inkscape-stroke:none"
         d="m 66.602734,6.9490034 c -2.681067,-0.07808 -5.388758,0.780968 -7.498501,2.595343 l -0.0076,0.0057 -0.0057,0.0057 C 41.627833,24.914232 24.189092,40.302145 6.7433557,55.674108 c -1.679198,1.438603 -2.655628,3.865533 -1.780043,6.18002 1.087111,3.713023 5.8248793,5.375743 8.8964313,2.916923 l 0.02081,-0.01513 0.01892,-0.01702 C 31.429728,49.678705 48.752594,34.376327 66.249,19.301481 c 16.608592,14.909484 33.016985,30.074305 49.56879,45.089354 1.43805,1.332797 3.69703,2.192149 5.83575,1.254165 4.00716,-1.190778 5.5368,-6.631423 2.39862,-9.583096 l -0.006,-0.0057 -0.006,-0.0038 C 107.35155,40.658102 90.625915,25.310518 73.908288,9.9491594 l 0.02649,0.02648 c -1.997954,-1.933211 -4.650974,-2.94856 -7.332041,-3.026639 z"
         sodipodi:nodetypes="sccccccccccccccccss" />
    </g>
  </g>
  <defs
     id="defs31">
    <linearGradient
       id="linearGradient17"
       x1="92.393677"
       y1="20.367702"
       x2="25.195557"
       y2="127.4441"
       gradientUnits="userSpaceOnUse"
       gradientTransform="matrix(0.96852488,0,0,0.9685245,1.9969094,2.5099701)">
      <stop
         stop-color="#24d864"
         id="stop16"
         offset="0"
         style="stop-color:#006cff;stop-opacity:1;" />
      <stop
         offset="1"
         stop-color="#e5f230"
         id="stop17"
         style="stop-color:#00f1fa;stop-opacity:1;" />
    </linearGradient>
    <linearGradient
       id="paint0_linear"
       x1="92.393677"
       y1="20.367702"
       x2="25.195557"
       y2="127.4441"
       gradientUnits="userSpaceOnUse"
       gradientTransform="matrix(0.96852488,0,0,0.9685245,1.9969094,2.5099701)">
      <stop
         stop-color="#24d864"
         id="stop8" />
      <stop
         offset="1"
         stop-color="#e5f230"
         id="stop10" />
    </linearGradient>
    <linearGradient
       id="paint1_linear"
       x1="65"
       y1="2.5"
       x2="65"
       y2="125"
       gradientUnits="userSpaceOnUse">
      <stop
         stop-color="#24d864"
         id="stop13" />
      <stop
         offset="0.986957"
         stop-color="#e5f230"
         id="stop15" />
    </linearGradient>
    <linearGradient
       id="paint2_linear"
       x1="65"
       y1="2.5"
       x2="65"
       y2="125"
       gradientUnits="userSpaceOnUse">
      <stop
         stop-color="#24d864"
         id="stop18" />
      <stop
         offset="0.986957"
         stop-color="#e5f230"
         id="stop20" />
    </linearGradient>
    <linearGradient
       id="paint3_linear"
       x1="65"
       y1="2.5"
       x2="65"
       y2="125"
       gradientUnits="userSpaceOnUse">
      <stop
         stop-color="#24d864"
         id="stop23" />
      <stop
         offset="0.986957"
         stop-color="#e5f230"
         id="stop25" />
    </linearGradient>
    <clipPath
       id="clip0">
      <rect
         width="128"
         height="128"
         fill="white"
         id="rect28" />
    </clipPath>
    <linearGradient
       id="linearGradient2909"
       x1="0"
       y1="0.5"
       x2="1"
       y2="0.5"
       gradientTransform="matrix(46.1,0,0,37.1,0.95,5.45)"
       gradientUnits="userSpaceOnUse">
      <stop
         offset="0"
         stop-opacity="1"
         style="stop-color:#b900ff;stop-opacity:1;"
         id="stop2903" />
      <stop
         offset="1"
         stop-opacity="1"
         style="stop-color:#6440ff;stop-opacity:1;"
         id="stop2907" />
    </linearGradient>
    <linearGradient
       inkscape:collect="always"
       xlink:href="#paint0_linear"
       id="linearGradient3"
       gradientUnits="userSpaceOnUse"
       gradientTransform="matrix(0.96852488,0,0,0.9685245,-0.93926411,-21.485087)"
       x1="92.393677"
       y1="20.367702"
       x2="25.195557"
       y2="127.4441" />
    <linearGradient
       inkscape:collect="always"
       xlink:href="#paint0_linear"
       id="linearGradient5"
       gradientUnits="userSpaceOnUse"
       gradientTransform="matrix(0.96852488,0,0,0.9685245,14.076042,-0.68320845)"
       x1="92.393677"
       y1="20.367702"
       x2="25.195557"
       y2="127.4441" />
    <linearGradient
       inkscape:collect="always"
       xlink:href="#paint0_linear"
       id="linearGradient7"
       gradientUnits="userSpaceOnUse"
       gradientTransform="matrix(0.96852488,0,0,0.9685245,3.1794867,7.4540734)"
       x1="92.393677"
       y1="20.367702"
       x2="25.195557"
       y2="127.4441" />
    <linearGradient
       id="linearGradient436"
       x1="0.22078557"
       y1="0.047239967"
       x2="0.9022491"
       y2="0.90614605"
       gradientTransform="matrix(43.5,0,0,44,5,2)"
       gradientUnits="userSpaceOnUse"
       spreadMethod="pad">
      <stop
         offset="0"
         stop-opacity="1"
         style="stop-color:#00f1fa;stop-opacity:1;"
         id="stop432" />
      <stop
         offset="0.99993777"
         stop-opacity="1"
         style="stop-color:#006cff;stop-opacity:1;"
         id="stop434" />
    </linearGradient>
    <linearGradient
       inkscape:collect="always"
       xlink:href="#paint0_linear"
       id="linearGradient2"
       gradientUnits="userSpaceOnUse"
       gradientTransform="matrix(0.96852488,0,0,0.9685245,1.9969094,2.5099701)"
       x1="92.393677"
       y1="20.367702"
       x2="25.195557"
       y2="127.4441" />
    <linearGradient
       inkscape:collect="always"
       xlink:href="#linearGradient17"
       id="linearGradient4"
       gradientUnits="userSpaceOnUse"
       gradientTransform="matrix(0.96852488,0,0,0.9685245,1.9969094,2.5099701)"
       x1="94.346146"
       y1="20.613459"
       x2="25.195557"
       y2="127.4441" />
    <linearGradient
       inkscape:collect="always"
       xlink:href="#paint0_linear"
       id="linearGradient10"
       gradientUnits="userSpaceOnUse"
       gradientTransform="matrix(0.96852488,0,0,0.9685245,14.600217,-11.530191)"
       x1="92.393677"
       y1="20.367702"
       x2="25.195557"
       y2="127.4441" />
    <linearGradient
       id="SVGID_1_"
       gradientUnits="userSpaceOnUse"
       x1="91.033302"
       x2="384.97473"
       y1="508.09024"
       y2="53.980717"
       gradientTransform="matrix(0.22784832,0,0,0.22784832,5.6708704,10.175193)">
      <stop
         offset="0"
         id="stop1"
         style="stop-color:#00f1fa;stop-opacity:1;" />
      <stop
         offset="1"
         id="stop2"
         style="stop-color:#006cff;stop-opacity:1;" />
    </linearGradient>
  </defs>
  <path
     id="path8"
     style="color:#000000;display:none;fill:url(#linearGradient10);stroke-width:2.90557;-inkscape-stroke:none"
     d="m 29.615676,45.213855 c 0,0 0.002,8.14011 0.025,15.76149 0,5.56296 4.761711,10.344479 10.283011,10.203559 5.851673,-0.147729 28.004303,0.29269 34.051763,-0.225109 0.0677,0.002 0.13117,-0.0218 0.19674,-0.0327 5.63879,-1.27672 5.53104,-10.21289 -0.0776,-11.48041 l -0.0908,-0.0208 -0.0927,-0.01 c -4.50613,-0.4254 -25.00739,-0.0323 -29.22429,-0.20997 -1.677453,-0.17507 -3.257913,-1.91636 -3.270653,-3.67738 v -0.20433 c 0,-5.795564 -0.004,-10.190205 -0.004,-10.190205 l -11.796471,0.08586 z"
     sodipodi:nodetypes="ccccccccccsccc" />
  <path
     id="path1-5"
     style="fill:url(#SVGID_1_);stroke-width:1"
     d="m 63.997202,78.074 c -0.334681,1.99e-4 -0.669369,0.015 -1.002721,0.04499 -0.43127,0.03873 -0.860281,0.102539 -1.284103,0.191225 -0.35541,0.07441 -0.707175,0.166228 -1.053568,0.275156 -0.406159,0.127685 -0.804905,0.27891 -1.193693,0.452416 -0.334634,0.149384 -0.661898,0.315299 -0.980174,0.496943 -0.382377,0.218183 -0.751852,0.458968 -1.105892,0.720635 -0.62234,0.459892 -1.196958,0.984291 -1.711771,1.562024 -0.322666,0.362044 -0.621959,0.744928 -0.895165,1.145608 -0.23256,0.341035 -0.446211,0.694942 -0.63966,1.05958 -0.176823,0.333338 -0.3367,0.675666 -0.478749,1.025237 -0.156785,0.385826 -0.291803,0.780493 -0.404155,1.181515 -0.124406,0.443893 -0.220966,0.895562 -0.289156,1.351481 -0.108455,0.724786 -0.144873,1.460232 -0.110241,2.192238 0.02112,0.445685 0.06889,0.890111 0.143184,1.330068 0.07256,0.429664 0.170507,0.855021 0.293165,1.273136 0.145722,0.496573 0.326238,0.982934 0.539869,1.45429 0.242206,0.534505 0.526793,1.049793 0.850022,1.539565 0.233809,0.354347 0.487821,0.695353 0.760221,1.020973 0.271467,0.324424 0.561254,0.633512 0.867507,0.92533 0.297196,0.28321 0.609902,0.55013 0.936254,0.79918 0.689921,0.52656 1.441166,0.97281 2.234101,1.32574 0.06586,0.0293 0.132001,0.058 0.198426,0.0861 v 10.22474 c 6.84e-4,0.41098 0.05942,0.82195 0.17555,1.21622 0.142339,0.48465 0.371167,0.94362 0.671754,1.34952 0.305277,0.41279 0.684363,0.77082 1.114103,1.05176 0.239986,0.15704 0.495664,0.29009 0.761971,0.39658 0.268462,0.10731 0.547769,0.18741 0.832286,0.23878 0.273656,0.0494 0.552054,0.0723 0.830102,0.0686 0.385905,-0.005 0.771183,-0.0612 1.142084,-0.16798 0.250294,-0.072 0.493972,-0.16687 0.727173,-0.28282 0.321817,-0.1601 0.62359,-0.36044 0.89601,-0.59494 0.293792,-0.25268 0.55366,-0.54478 0.770145,-0.86621 0.170883,-0.25353 0.314745,-0.52525 0.428378,-0.8091 0.11799,-0.29465 0.203122,-0.60243 0.253486,-0.9158 0.03674,-0.22811 0.05508,-0.45914 0.05515,-0.69017 1.57e-4,-0.0348 0,-0.0695 0,-0.10425 v -0.0105 c 6.4e-5,-3.36814 0,-6.73628 0,-10.10442 0.775675,-0.32741 1.513879,-0.74331 2.19629,-1.23641 0.663483,-0.47925 1.274358,-1.03125 1.818246,-1.642883 0.454754,-0.511279 0.86279,-1.064136 1.216888,-1.649665 0.280921,-0.464513 0.528018,-0.949501 0.738255,-1.449991 0.190692,-0.453965 0.351149,-0.920623 0.479821,-1.395903 0.134998,-0.498734 0.234985,-1.006921 0.299186,-1.519592 0.0866,-0.691126 0.108111,-1.390295 0.06553,-2.085493 -0.0285,-0.463531 -0.08576,-0.925321 -0.17185,-1.381702 -0.07974,-0.423061 -0.18421,-0.841467 -0.312655,-1.252383 -0.09565,-0.305974 -0.204558,-0.607812 -0.326372,-0.904347 -0.172682,-0.420645 -0.371398,-0.830579 -0.594237,-1.226938 -0.141373,-0.251275 -0.292398,-0.497113 -0.45272,-0.736755 -0.496553,-0.742468 -1.082303,-1.425184 -1.740236,-2.029286 -0.259093,-0.237885 -0.529303,-0.463666 -0.809527,-0.67627 -0.281979,-0.213841 -0.573988,-0.414469 -0.874915,-0.600712 -0.290942,-0.180052 -0.590107,-0.346834 -0.896337,-0.499452 -0.401434,-0.200009 -0.814936,-0.375832 -1.2376,-0.52587 -0.35606,-0.126476 -0.71863,-0.234594 -1.085749,-0.324034 -0.38272,-0.09318 -0.770408,-0.165865 -1.160847,-0.217892 -0.446956,-0.05949 -0.897516,-0.09176 -1.348375,-0.09701 -0.04492,-4.69e-4 -0.08984,-7.1e-4 -0.134757,-7.1e-4 z m 0.01997,8.658313 c 0.289875,0.0014 0.57951,0.05394 0.851261,0.155026 0.280289,0.103897 0.541351,0.258945 0.767459,0.454406 0.258361,0.22313 0.471236,0.498919 0.620342,0.806094 0.114401,0.235312 0.191459,0.488791 0.226761,0.748069 0.04961,0.362308 0.02011,0.735625 -0.08881,1.084876 -0.09082,0.292661 -0.236635,0.567982 -0.426786,0.808219 -0.192931,0.244289 -0.431278,0.452629 -0.699519,0.610633 -0.243159,0.143548 -0.510859,0.24554 -0.788105,0.29923 -0.358463,0.06965 -0.732163,0.06027 -1.086517,-0.02814 -0.231325,-0.05764 -0.454107,-0.149149 -0.659525,-0.27011 -0.253095,-0.148893 -0.479701,-0.342492 -0.666646,-0.568913 -0.183705,-0.222099 -0.328999,-0.475969 -0.426532,-0.747231 -0.07615,-0.211032 -0.123017,-0.432499 -0.139789,-0.656198 -0.02364,-0.315299 0.01175,-0.635225 0.106599,-0.936977 0.08733,-0.279265 0.224717,-0.542644 0.402958,-0.774637 0.173531,-0.226215 0.385495,-0.422884 0.62429,-0.578671 0.227422,-0.148581 0.479138,-0.260032 0.742333,-0.327482 0.208845,-0.05359 0.424626,-0.07977 0.640222,-0.0782 z"
     sodipodi:nodetypes="cccccccccsscccsccccscscccccsccccccsccsscccssscccscccscsccccccccccccccccccccsccccc" />
</svg>
