<?xml version="1.0" encoding="UTF-8" standalone="no"?>
<svg
   width="64"
   height="64"
   viewBox="0 0 64 64"
   fill="none"
   version="1.1"
   id="svg1076"
   sodipodi:docname="edit-copy.svg"
   inkscape:version="1.2.2 (b0a8486541, 2022-12-01)"
   xmlns:inkscape="http://www.inkscape.org/namespaces/inkscape"
   xmlns:sodipodi="http://sodipodi.sourceforge.net/DTD/sodipodi-0.dtd"
   xmlns="http://www.w3.org/2000/svg"
   xmlns:svg="http://www.w3.org/2000/svg">
  <sodipodi:namedview
     id="namedview1078"
     pagecolor="#ffffff"
     bordercolor="#666666"
     borderopacity="1.0"
     inkscape:showpageshadow="2"
     inkscape:pageopacity="0.0"
     inkscape:pagecheckerboard="0"
     inkscape:deskcolor="#d1d1d1"
     showgrid="false"
     inkscape:zoom="7.375"
     inkscape:cx="33.966102"
     inkscape:cy="37.152542"
     inkscape:current-layer="svg1076" />
  <g
     clip-path="url(#clip0)"
     id="g1044">
    <path
       id="path1034"
       style="fill:url(#paint1_linear)"
       d="M 28.951172 0.00390625 C 27.100259 -0.067681352 25.246184 1.0771263 24.474609 2.9042969 C 23.50091 5.4575243 23.859843 8.4218237 22.714844 10.894531 C 23.007343 10.885631 23.598025 10.858609 23.890625 10.849609 C 17.258732 11.891508 10.625487 13.046436 4.0019531 14.177734 C 1.4319157 14.535434 -0.45173423 17.415303 0.095703125 20.125 C 1.6711516 30.856689 3.2752928 41.582864 4.8632812 52.314453 C 5.063861 54.273051 6.3807493 56.025357 8.1484375 56.597656 C 9.3059963 57.031456 10.528826 56.723994 11.703125 56.558594 C 11.749125 58.096792 11.519385 59.75193 12.208984 61.173828 C 12.956984 62.810426 14.57957 63.954756 16.292969 63.972656 C 19.381166 64.012856 22.468444 64.003462 25.556641 63.976562 C 26.62224 64.039162 27.68426 63.278649 27.943359 62.15625 C 28.407159 60.729851 27.371483 59.016862 25.958984 58.914062 C 23.317887 58.748563 20.664535 58.985712 18.023438 58.820312 C 16.941139 58.699613 16.364347 57.460683 16.498047 56.396484 C 16.514747 46.836394 16.480272 37.272981 16.513672 27.712891 C 16.438472 26.617392 17.374639 25.623984 18.398438 25.708984 C 27.479228 25.686584 36.56374 25.682084 45.644531 25.708984 C 46.64743 25.646384 47.555081 26.63052 47.488281 27.699219 C 47.521681 37.268209 47.489159 46.83716 47.505859 56.40625 C 47.643759 57.483849 47.036599 58.736672 45.9375 58.826172 C 43.463602 58.982672 40.973998 58.745028 38.5 58.923828 C 37.225501 59.017728 36.258678 60.421408 36.455078 61.753906 C 36.555378 63.019305 37.66867 64.039656 38.855469 63.972656 C 41.809966 64.008356 44.764253 64.011497 47.71875 63.966797 C 50.125848 63.966797 52.265331 61.674613 52.269531 59.103516 C 52.323831 55.450319 52.263769 51.796368 52.292969 48.138672 C 52.288869 46.466374 52.290528 44.793492 52.298828 43.121094 C 52.269628 37.393099 52.30215 31.665494 52.28125 25.9375 C 52.36905 24.068402 51.470611 22.20413 49.945312 21.269531 C 48.507714 20.330532 46.74923 20.621466 45.144531 20.572266 C 42.319634 20.666166 39.498825 20.414606 36.673828 20.441406 L 36.447266 20.351562 C 37.947464 20.060863 39.488861 20.353466 41.005859 20.384766 C 40.63396 17.938868 40.334503 15.479373 39.908203 13.046875 C 39.540503 10.672577 37.379645 8.7937964 35.123047 8.9726562 C 32.711749 9.187286 30.345769 9.7720122 27.951172 10.107422 C 28.222772 8.8106332 28.248888 7.4168569 28.804688 6.2050781 C 29.364587 5.2660691 30.50082 5.3998289 31.386719 5.5742188 C 39.389411 7.0498173 47.388033 8.5395127 55.390625 9.9882812 C 56.310024 10.180561 57.28002 10.251747 58.136719 10.685547 C 59.072818 11.280246 58.942297 12.546092 58.779297 13.525391 C 57.262398 22.718781 55.838092 31.93015 54.308594 41.119141 C 54.262594 42.313039 53.201527 42.799194 52.298828 43.121094 C 52.290528 44.793492 52.290722 46.466374 52.294922 48.138672 C 54.927619 48.992771 58.115201 47.382172 58.625 44.359375 C 60.417798 33.448886 62.159452 22.524858 63.90625 11.605469 C 64.445349 8.9091614 62.570582 6.0527703 60.021484 5.6816406 C 49.929394 3.8125425 39.836524 1.9561092 29.740234 0.109375 C 29.47906 0.047891811 29.215588 0.01413305 28.951172 0.00390625 z M 33.755859 14.361328 C 34.429345 14.398224 35.061016 14.661782 35.353516 15.402344 C 35.804815 17.114942 36.0207 18.899989 36.0625 20.679688 C 29.627006 20.451688 23.179928 20.643172 16.740234 20.576172 C 14.170237 20.357072 11.713475 22.713437 11.734375 25.490234 C 11.675875 34.165026 11.753912 42.844246 11.695312 51.523438 C 10.633914 51.523438 9.3774068 51.022224 9.3105469 49.703125 C 7.8938883 40.312934 6.505718 30.918128 5.1308594 21.523438 C 4.7631097 20.316139 5.5244493 18.944053 6.7363281 18.876953 C 15.34075 17.383455 23.956155 15.961927 32.560547 14.486328 C 32.931947 14.399103 33.351768 14.339191 33.755859 14.361328 z M 23.839844 31.974609 C 23.054245 32.010409 22.184812 31.898404 21.507812 32.408203 C 20.237414 33.235402 20.066235 35.348998 21.177734 36.404297 C 21.875634 37.195796 22.96146 37.06695 23.880859 37.09375 C 29.722954 37.05355 35.566109 37.1206 41.408203 37.0625 C 42.983702 37.1072 44.136565 35.139439 43.509766 33.619141 C 43.142066 32.510142 42.030249 31.898781 40.96875 31.988281 C 35.256156 31.970381 29.548238 32.001509 23.839844 31.974609 z M 23.855469 40.023438 C 23.06147 40.059237 22.175827 39.928738 21.486328 40.460938 C 20.236829 41.292637 20.069457 43.380742 21.160156 44.431641 C 21.853856 45.22754 22.932163 45.120278 23.851562 45.142578 C 29.568257 45.115778 35.281546 45.142306 40.994141 45.128906 C 41.95944 45.204906 42.961591 44.72643 43.400391 43.769531 C 44.24449 42.231333 43.083123 40.009394 41.390625 40.058594 C 35.548531 39.991494 29.701763 40.063737 23.855469 40.023438 z M 25.271484 48.039062 C 24.298077 48.041376 23.32548 48.061819 22.355469 48.128906 C 20.99317 48.348006 20.070475 50.034317 20.546875 51.416016 C 20.851975 52.516015 21.901492 53.244069 22.962891 53.167969 C 25.637388 53.176969 28.311831 53.227578 30.986328 53.142578 C 32.662026 53.124678 33.740002 50.857374 32.845703 49.359375 C 32.340004 48.304076 31.168624 47.977228 30.140625 48.048828 C 28.518689 48.082328 26.89383 48.035206 25.271484 48.039062 z " />
  </g>
  <defs
     id="defs1074">
    <linearGradient
       id="paint0_linear"
       x1="0"
       y1="32"
       x2="64"
       y2="32"
       gradientUnits="userSpaceOnUse">
      <stop
         stop-color="#00e0ff"
         id="stop1046"
         offset="0"
         style="stop-color:#54d863;stop-opacity:1;" />
      <stop
         offset="1"
         stop-color="#9900FF"
         id="stop1048"
         style="stop-color:#54d863;stop-opacity:1;" />
    </linearGradient>
    <linearGradient
       id="paint1_linear"
       x1="12.208984"
       y1="61.173828"
       x2="63.90625"
       y2="11.605469"
       gradientUnits="userSpaceOnUse">
      <stop
         stop-color="#e5f230"
         id="stop1051" />
      <stop
         offset="1"
         stop-color="#54d863"
         id="stop1053" />
    </linearGradient>
    <linearGradient
       id="paint2_linear"
       x1="0"
       y1="32"
       x2="64"
       y2="32"
       gradientUnits="userSpaceOnUse">
      <stop
         stop-color="#e5f230"
         id="stop1056" />
      <stop
         offset="1"
         stop-color="#54d863"
         id="stop1058" />
    </linearGradient>
    <linearGradient
       id="paint3_linear"
       x1="0"
       y1="32"
       x2="64"
       y2="32"
       gradientUnits="userSpaceOnUse">
      <stop
         stop-color="#e5f230"
         id="stop1061" />
      <stop
         offset="1"
         stop-color="#54d863"
         id="stop1063" />
    </linearGradient>
    <linearGradient
       id="paint4_linear"
       x1="0"
       y1="32"
       x2="64"
       y2="32"
       gradientUnits="userSpaceOnUse">
      <stop
         stop-color="#e5f230"
         id="stop1066" />
      <stop
         offset="1"
         stop-color="#54d863"
         id="stop1068" />
    </linearGradient>
    <clipPath
       id="clip0">
      <rect
         width="64"
         height="64"
         fill="white"
         id="rect1071" />
    </clipPath>
  </defs>
</svg>
